<?xml version="1.0" encoding="UTF-8" standalone="no"?>
<!-- Created with Inkscape (http://www.inkscape.org/) -->

<svg
   xmlns:dc="http://purl.org/dc/elements/1.1/"
   xmlns:cc="http://creativecommons.org/ns#"
   xmlns:rdf="http://www.w3.org/1999/02/22-rdf-syntax-ns#"
   xmlns:svg="http://www.w3.org/2000/svg"
   xmlns="http://www.w3.org/2000/svg"
   xmlns:sodipodi="http://sodipodi.sourceforge.net/DTD/sodipodi-0.dtd"
   xmlns:inkscape="http://www.inkscape.org/namespaces/inkscape"
   width="2834.6455"
   height="2125.9841"
   id="svg2"
   version="1.1"
   inkscape:version="0.48.4 r9939"
   sodipodi:docname="both_signs_text_flattified.svg">
  <defs
     id="defs4" />
  <sodipodi:namedview
     id="base"
     pagecolor="#ffffff"
     bordercolor="#666666"
     borderopacity="1.0"
     inkscape:pageopacity="0.0"
     inkscape:pageshadow="2"
     inkscape:zoom="0.175"
     inkscape:cx="1426.2251"
     inkscape:cy="1103.4142"
     inkscape:document-units="px"
     inkscape:current-layer="g4523"
     showgrid="true"
     inkscape:window-width="1278"
     inkscape:window-height="779"
     inkscape:window-x="0"
     inkscape:window-y="19"
     inkscape:window-maximized="0"
     units="mm"
     inkscape:snap-global="true"
     showguides="true"
     inkscape:guide-bbox="true">
    <inkscape:grid
       type="xygrid"
       id="grid3004"
       empspacing="10"
       visible="true"
       enabled="true"
       snapvisiblegridlinesonly="true"
       spacingx="1px"
       spacingy="1px"
       dotted="true" />
  </sodipodi:namedview>
  <metadata
     id="metadata7">
    <rdf:RDF>
      <cc:Work
         rdf:about="">
        <dc:format>image/svg+xml</dc:format>
        <dc:type
           rdf:resource="http://purl.org/dc/dcmitype/StillImage" />
        <dc:title></dc:title>
      </cc:Work>
    </rdf:RDF>
  </metadata>
  <g
     inkscape:label="Layer 1"
     inkscape:groupmode="layer"
     id="layer1"
     transform="translate(0,1073.622)">
    <g
       id="g4709"
       style="fill:none;stroke:#ff0000;stroke-opacity:1;stroke-width:3.54330709;stroke-miterlimit:4;stroke-dasharray:none">
      <rect
         y="12.362129"
         x="360"
         height="100"
         width="100"
         id="rect3816"
         style="fill:none;fill-opacity:1;stroke:#ff0000;stroke-opacity:1;stroke-width:3.54330709;stroke-miterlimit:4;stroke-dasharray:none" />
      <rect
         y="12.362129"
         x="240"
         height="100"
         width="100"
         id="rect3816-4"
         style="fill:none;fill-opacity:1;stroke:#ff0000;stroke-opacity:1;stroke-width:3.54330709;stroke-miterlimit:4;stroke-dasharray:none" />
      <rect
         y="132.36212"
         x="360"
         height="100"
         width="100"
         id="rect3816-6"
         style="fill:none;fill-opacity:1;stroke:#ff0000;stroke-opacity:1;stroke-width:3.54330709;stroke-miterlimit:4;stroke-dasharray:none" />
    </g>
    <g
       id="g4753"
       style="fill:none;stroke:#ff0000;stroke-opacity:1;stroke-width:3.54330709;stroke-miterlimit:4;stroke-dasharray:none"
       transform="translate(0,2)">
      <rect
         y="450.36212"
         x="120"
         height="100"
         width="100"
         id="rect3816-6-4"
         style="fill:none;stroke:#ff0000;stroke-opacity:1;stroke-width:3.54330709;stroke-miterlimit:4;stroke-dasharray:none" />
      <rect
         y="570.36212"
         x="120"
         height="100"
         width="100"
         id="rect3816-6-8"
         style="fill:none;stroke:#ff0000;stroke-opacity:1;stroke-width:3.54330709;stroke-miterlimit:4;stroke-dasharray:none" />
    </g>
    <g
       id="g4714"
       style="fill:none;stroke:#ff0000;stroke-opacity:1;stroke-width:3.54330709;stroke-miterlimit:4;stroke-dasharray:none"
       transform="translate(0,2)">
      <rect
         y="10.362122"
         x="1020"
         height="100"
         width="100"
         id="rect3816-6-8-1-0-7-9"
         style="fill:none;stroke:#ff0000;stroke-opacity:1;stroke-width:3.54330709;stroke-miterlimit:4;stroke-dasharray:none" />
      <rect
         y="130.36212"
         x="1020"
         height="100"
         width="100"
         id="rect3816-6-8-1-0-7-7"
         style="fill:none;stroke:#ff0000;stroke-opacity:1;stroke-width:3.54330709;stroke-miterlimit:4;stroke-dasharray:none" />
      <rect
         y="130.36212"
         x="1140"
         height="100"
         width="100"
         id="rect3816-6-8-1-0-7-70"
         style="fill:none;stroke:#ff0000;stroke-opacity:1;stroke-width:3.54330709;stroke-miterlimit:4;stroke-dasharray:none" />
      <rect
         y="10.362122"
         x="900"
         height="100"
         width="100"
         id="rect3816-6-8-1-0-7-3"
         style="fill:none;stroke:#ff0000;stroke-opacity:1;stroke-width:3.54330709;stroke-miterlimit:4;stroke-dasharray:none" />
    </g>
    <g
       id="g4740"
       style="fill:none;stroke:#ff0000;stroke-opacity:1;stroke-width:3.54330709;stroke-miterlimit:4;stroke-dasharray:none"
       transform="translate(0,2)">
      <rect
         y="870.36212"
         x="2620"
         height="100"
         width="100"
         id="rect3816-6-8-1-0-7-7-4-0-7"
         style="fill:none;stroke:#ff0000;stroke-opacity:1;stroke-width:3.54330709;stroke-miterlimit:4;stroke-dasharray:none" />
      <rect
         y="750.36212"
         x="2620"
         height="100"
         width="100"
         id="rect3816-6-8-1-0-7-7-4-0-7-5"
         style="fill:none;stroke:#ff0000;stroke-opacity:1;stroke-width:3.54330709;stroke-miterlimit:4;stroke-dasharray:none" />
      <rect
         y="750.36212"
         x="2500"
         height="100"
         width="100"
         id="rect3816-6-8-1-0-7-7-4-0-7-5-5"
         style="fill:none;stroke:#ff0000;stroke-opacity:1;stroke-width:3.54330709;stroke-miterlimit:4;stroke-dasharray:none" />
      <rect
         y="870.36212"
         x="2500"
         height="100"
         width="100"
         id="rect3816-6-8-1-0-7-7-4-0-7-5-50"
         style="fill:none;stroke:#ff0000;stroke-opacity:1;stroke-width:3.54330709;stroke-miterlimit:4;stroke-dasharray:none" />
      <rect
         y="870.36212"
         x="2380"
         height="100"
         width="100"
         id="rect3816-6-8-1-0-7-7-4-0-7-5-50-1"
         style="fill:none;stroke:#ff0000;stroke-opacity:1;stroke-width:3.54330709;stroke-miterlimit:4;stroke-dasharray:none" />
    </g>
    <g
       id="g4405"
       transform="translate(20,2)"
       style="fill:none;stroke:#ff0000;stroke-opacity:1;stroke-width:3.54330709;stroke-miterlimit:4;stroke-dasharray:none">
      <rect
         y="750.36212"
         x="220"
         height="100"
         width="100"
         id="rect3816-6-8-1"
         style="fill:none;stroke:#ff0000;stroke-opacity:1;stroke-width:3.54330709;stroke-miterlimit:4;stroke-dasharray:none" />
      <rect
         y="750.36212"
         x="340"
         height="100"
         width="100"
         id="rect3816-6-8-1-0"
         style="fill:none;stroke:#ff0000;stroke-opacity:1;stroke-width:3.54330709;stroke-miterlimit:4;stroke-dasharray:none" />
      <rect
         y="870.36212"
         x="340"
         height="100"
         width="100"
         id="rect3816-6-8-1-0-7"
         style="fill:none;stroke:#ff0000;stroke-opacity:1;stroke-width:3.54330709;stroke-miterlimit:4;stroke-dasharray:none" />
      <rect
         y="870.36212"
         x="460"
         height="100"
         width="100"
         id="rect3816-6-8-1-0-7-73"
         style="fill:none;stroke:#ff0000;stroke-opacity:1;stroke-width:3.54330709;stroke-miterlimit:4;stroke-dasharray:none" />
      <rect
         y="750.36212"
         x="460"
         height="100"
         width="100"
         id="rect3816-6-8-1-00"
         style="fill:none;stroke:#ff0000;stroke-opacity:1;stroke-width:3.54330709;stroke-miterlimit:4;stroke-dasharray:none" />
      <rect
         y="750.36212"
         x="580"
         height="100"
         width="100"
         id="rect3816-6-8-1-2"
         style="fill:none;stroke:#ff0000;stroke-opacity:1;stroke-width:3.54330709;stroke-miterlimit:4;stroke-dasharray:none" />
      <rect
         y="870.36212"
         x="580"
         height="100"
         width="100"
         id="rect3816-6-8-1-1"
         style="fill:none;stroke:#ff0000;stroke-opacity:1;stroke-width:3.54330709;stroke-miterlimit:4;stroke-dasharray:none" />
      <rect
         y="870.36212"
         x="700"
         height="100"
         width="100"
         id="rect3816-6-8-1-3"
         style="fill:none;stroke:#ff0000;stroke-opacity:1;stroke-width:3.54330709;stroke-miterlimit:4;stroke-dasharray:none" />
    </g>
    <rect
       style="fill:none;stroke:#ff0000;stroke-opacity:1;stroke-width:3.54330709;stroke-miterlimit:4;stroke-dasharray:none"
       id="rect3816-6-8-1-0-7-7-4-0-2-1-0-4"
       width="100"
       height="100"
       x="1920"
       y="872.36212" />
    <g
       id="g4523"
       transform="translate(0,-8)"
       style="stroke:none;fill:#ffff00;fill-opacity:1">
      <g
         style="font-size:40px;font-style:normal;font-variant:normal;font-weight:bold;font-stretch:normal;line-height:125%;letter-spacing:0px;word-spacing:0px;fill:#ffff00;font-family:Impact;-inkscape-font-specification:Impact Bold"
         id="text3812" />
      <g
         id="g5117">
        <path
           id="path5096"
           style="stroke:none;fill:#ffff00;fill-opacity:1;font-size:550px;font-style:normal;font-variant:normal;font-weight:bold;font-stretch:normal;line-height:125%;letter-spacing:0px;word-spacing:0px;font-family:Cabin;-inkscape-font-specification:Cabin Bold"
           d="m 466.34859,382.11028 0,-68.2 -288.2,0 0,68.2 108.9,0 0,316.8 70.4,0 0,-316.8 108.9,0" />
        <path
           id="path5098"
           style="stroke:none;fill:#ffff00;fill-opacity:1;font-size:550px;font-style:normal;font-variant:normal;font-weight:bold;font-stretch:normal;line-height:125%;letter-spacing:0px;word-spacing:0px;font-family:Cabin;-inkscape-font-specification:Cabin Bold"
           d="m 839.62672,698.91028 0,-385 -70.4,0 0,150.15 -181.5,0 0,-150.15 -70.4,0 0,385 70.4,0 0,-166.65 181.5,0 0,166.65 70.4,0" />
        <path
           id="path5100"
           style="stroke:none;fill:#ffff00;fill-opacity:1;font-size:550px;font-style:normal;font-variant:normal;font-weight:bold;font-stretch:normal;line-height:125%;letter-spacing:0px;word-spacing:0px;font-family:Cabin;-inkscape-font-specification:Cabin Bold"
           d="m 1176.3556,698.91028 0,-68.2 -179.84998,0 0,-98.45 135.29998,0 0,-68.2 -135.29998,0 0,-81.95 174.34998,0 0,-68.2 -246.39998,0 0,385 251.89998,0" />
        <path
           id="path5102"
           style="stroke:none;fill:#ffff00;fill-opacity:1;font-size:550px;font-style:normal;font-variant:normal;font-weight:bold;font-stretch:normal;line-height:125%;letter-spacing:0px;word-spacing:0px;font-family:Cabin;-inkscape-font-specification:Cabin Bold"
           d="m 1525.5884,706.61028 c 44,0 103.9501,-13.20002 132,-29.15 l 0,-171.6 -112.75,0 0,58.3 42.35,0 0,68.75 c -18.6999,3.84999 -36.85,6.05 -52.8,6.05 -79.7499,0 -119.9,-55.55008 -119.9,-134.2 0,-74.79993 36.3001,-130.9 116.6,-130.9 34.1,0 76.4501,9.90001 106.15,22 l 7.7,-67.1 c -28.0499,-13.74999 -78.1,-22.55 -115.5,-22.55 -112.7499,0 -191.95,79.20012 -191.95,199.65 0,121.54988 80.3001,200.75 188.1,200.75" />
        <path
           id="path5104"
           style="stroke:none;fill:#ffff00;fill-opacity:1;font-size:550px;font-style:normal;font-variant:normal;font-weight:bold;font-stretch:normal;line-height:125%;letter-spacing:0px;word-spacing:0px;font-family:Cabin;-inkscape-font-specification:Cabin Bold"
           d="m 2020.6228,698.91028 -86.9,-161.7 c 36.3,-22.54998 65.45,-52.80006 65.45,-112.2 0,-83.59992 -58.3001,-111.1 -132.55,-111.1 l -140.8,0 0,385 70.4,0 0,-143 71.5,0 79.75,143 73.15,0 m -169.95,-326.15 c 60.4999,0 74.8,21.45003 74.8,57.2 0,34.64996 -13.7501,59.95 -77.55,59.95 l -51.7,0 0,-117.15 54.45,0" />
        <path
           id="path5106"
           style="stroke:none;fill:#ffff00;fill-opacity:1;font-size:550px;font-style:normal;font-variant:normal;font-weight:bold;font-stretch:normal;line-height:125%;letter-spacing:0px;word-spacing:0px;font-family:Cabin;-inkscape-font-specification:Cabin Bold"
           d="m 2141.047,698.91028 0,-385 -70.4,0 0,385 70.4,0" />
        <path
           id="path5108"
           style="stroke:none;fill:#ffff00;fill-opacity:1;font-size:550px;font-style:normal;font-variant:normal;font-weight:bold;font-stretch:normal;line-height:125%;letter-spacing:0px;word-spacing:0px;font-family:Cabin;-inkscape-font-specification:Cabin Bold"
           d="m 2369.4345,698.91028 c 109.9999,0 189.75,-71.50012 189.75,-192.5 0,-120.99988 -79.7501,-192.5 -189.75,-192.5 l -144.1,0 0,385 144.1,0 m 0,-317.35 c 74.8,0 112.75,47.85008 112.75,124.85 0,76.99992 -37.95,124.85 -112.75,124.85 l -73.7,0 0,-249.7 73.7,0" />
        <rect
           style="fill:#ffff00;fill-opacity:1;stroke:none"
           id="rect3816-6-8-1-0-7-7-3"
           width="64"
           height="72.000008"
           x="1212"
           y="468.36212" />
      </g>
    </g>
    <g
       id="g4747"
       style="fill:none;stroke:#ff0000;stroke-opacity:1;stroke-width:3.54330709;stroke-miterlimit:4;stroke-dasharray:none"
       transform="translate(0,2)">
      <rect
         y="870.36212"
         x="1140"
         height="100"
         width="100"
         id="rect3816-6-8-1-0-7-7-4-0"
         style="fill:none;stroke:#ff0000;stroke-opacity:1;stroke-width:3.54330709;stroke-miterlimit:4;stroke-dasharray:none" />
      <rect
         y="870.36212"
         x="1260"
         height="100"
         width="100"
         id="rect3816-6-8-1-0-7-7-4-4"
         style="fill:none;stroke:#ff0000;stroke-opacity:1;stroke-width:3.54330709;stroke-miterlimit:4;stroke-dasharray:none" />
      <rect
         y="750.36212"
         x="1380"
         height="100"
         width="100"
         id="rect3816-6-8-1-0-7-7-4-0-2-1-0-4-9"
         style="fill:none;stroke:#ff0000;stroke-opacity:1;stroke-width:3.54330709;stroke-miterlimit:4;stroke-dasharray:none" />
      <rect
         y="870.36212"
         x="1380"
         height="100"
         width="100"
         id="rect3816-6-8-1-0-7-7-4-0-2-1-0-4-9-8"
         style="fill:none;stroke:#ff0000;stroke-opacity:1;stroke-width:3.54330709;stroke-miterlimit:4;stroke-dasharray:none" />
    </g>
    <rect
       style="fill:none;fill-opacity:1;stroke:#ff0000;stroke-opacity:1;stroke-width:3.54330709;stroke-miterlimit:4;stroke-dasharray:none"
       id="rect3816-6-8-1-0-7-7-4-0-2-1-0-3-9"
       width="100"
       height="100"
       x="2620"
       y="490.36212" />
    <g
       id="g4720"
       style="fill:none;stroke:#ff0000;stroke-opacity:1;stroke-width:3.54330709;stroke-miterlimit:4;stroke-dasharray:none"
       transform="translate(0,2)">
      <rect
         y="10.362122"
         x="1660"
         height="100"
         width="100"
         id="rect3816-6-8-1-0-7-7-4-0-2"
         style="fill:none;stroke:#ff0000;stroke-opacity:1;stroke-width:3.54330709;stroke-miterlimit:4;stroke-dasharray:none" />
      <rect
         y="10.362137"
         x="1780"
         height="100"
         width="100"
         id="rect3816-6-8-1-0-7-7-4-0-2-1"
         style="fill:none;stroke:#ff0000;stroke-opacity:1;stroke-width:3.54330709;stroke-miterlimit:4;stroke-dasharray:none" />
      <rect
         y="10.362137"
         x="1900"
         height="100"
         width="100"
         id="rect3816-6-8-1-0-7-7-4-0-2-1-5"
         style="fill:none;stroke:#ff0000;stroke-opacity:1;stroke-width:3.54330709;stroke-miterlimit:4;stroke-dasharray:none" />
      <rect
         y="10.362137"
         x="2020"
         height="100"
         width="100"
         id="rect3816-6-8-1-0-7-7-4-0-2-1-9"
         style="fill:none;stroke:#ff0000;stroke-opacity:1;stroke-width:3.54330709;stroke-miterlimit:4;stroke-dasharray:none" />
      <rect
         y="130.36214"
         x="2620"
         height="100"
         width="100"
         id="rect3816-6-8-1-0-7-7-4-0-2-1-0"
         style="fill:none;stroke:#ff0000;stroke-opacity:1;stroke-width:3.54330709;stroke-miterlimit:4;stroke-dasharray:none" />
      <rect
         y="130.36212"
         x="1780"
         height="100"
         width="100"
         id="rect3816-6-8-1-0-7-7-4-0-2-1-3"
         style="fill:none;stroke:#ff0000;stroke-opacity:1;stroke-width:3.54330709;stroke-miterlimit:4;stroke-dasharray:none" />
      <rect
         y="10.362141"
         x="2500"
         height="100"
         width="100"
         id="rect3816-6-8-1-0-7-7-4-0-2-1-0-2"
         style="fill:none;stroke:#ff0000;stroke-opacity:1;stroke-width:3.54330709;stroke-miterlimit:4;stroke-dasharray:none" />
      <rect
         y="130.36214"
         x="2500"
         height="100"
         width="100"
         id="rect3816-6-8-1-0-7-7-4-0-2-1-0-2-2"
         style="fill:none;stroke:#ff0000;stroke-opacity:1;stroke-width:3.54330709;stroke-miterlimit:4;stroke-dasharray:none" />
      <rect
         y="130.36214"
         x="2380"
         height="100"
         width="100"
         id="rect3816-6-8-1-0-7-7-4-0-2-1-0-1"
         style="fill:none;stroke:#ff0000;stroke-opacity:1;stroke-width:3.54330709;stroke-miterlimit:4;stroke-dasharray:none" />
      <rect
         y="250.36214"
         x="2620"
         height="100"
         width="100"
         id="rect3816-6-8-1-0-7-7-4-0-2-1-0-3"
         style="fill:none;stroke:#ff0000;stroke-opacity:1;stroke-width:3.54330709;stroke-miterlimit:4;stroke-dasharray:none" />
      <rect
         y="10.362129"
         x="2620"
         height="100"
         width="100"
         id="rect3816-6-8-1-0-7-7-4-0-2-1-0-2-26"
         style="fill:none;stroke:#ff0000;stroke-opacity:1;stroke-width:3.54330709;stroke-miterlimit:4;stroke-dasharray:none" />
      <rect
         y="250.36214"
         x="2500"
         height="100"
         width="100"
         id="rect3816-6-8-1-0-7-7-4-0-2-1-0-7"
         style="fill:none;stroke:#ff0000;stroke-opacity:1;stroke-width:3.54330709;stroke-miterlimit:4;stroke-dasharray:none" />
      <rect
         y="10.362137"
         x="2380"
         height="100"
         width="100"
         id="rect3816-6-8-1-0-7-7-4-0-2-1-0-79-4"
         style="fill:none;stroke:#ff0000;stroke-opacity:1;stroke-width:3.54330709;stroke-miterlimit:4;stroke-dasharray:none" />
      <rect
         y="370.36212"
         x="2620"
         height="100"
         width="100"
         id="rect3816-6-8-1-0-7-7-4-0-2-1-0-3-6"
         style="fill:none;stroke:#ff0000;stroke-opacity:1;stroke-width:3.54330709;stroke-miterlimit:4;stroke-dasharray:none" />
      <rect
         y="10.362129"
         x="2140"
         height="100"
         width="100"
         id="rect3816-6-8-1-0-7-7-4-0-2-1-9-8"
         style="fill:none;stroke:#ff0000;stroke-opacity:1;stroke-width:3.54330709;stroke-miterlimit:4;stroke-dasharray:none" />
      <rect
         y="130.36214"
         x="2140"
         height="100"
         width="100"
         id="rect3816-6-8-1-0-7-7-4-0-2-1-9-4-4"
         style="fill:none;stroke:#ff0000;stroke-opacity:1;stroke-width:3.54330709;stroke-miterlimit:4;stroke-dasharray:none" />
      <rect
         y="130.36214"
         x="2020"
         height="100"
         width="100"
         id="rect3816-6-8-1-0-7-7-4-0-2-1-9-4-4-5"
         style="fill:none;stroke:#ff0000;stroke-opacity:1;stroke-width:3.54330709;stroke-miterlimit:4;stroke-dasharray:none" />
      <rect
         y="130.36214"
         x="2260"
         height="100"
         width="100"
         id="rect3816-6-8-1-0-7-7-4-0-2-1-0-1-1"
         style="fill:none;stroke:#ff0000;stroke-opacity:1;stroke-width:3.54330709;stroke-miterlimit:4;stroke-dasharray:none" />
    </g>
    <g
       id="g4821"
       style="stroke:#ff0000;stroke-opacity:1;stroke-width:3.54330709;stroke-miterlimit:4;stroke-dasharray:none">
      <path
         transform="translate(0,-1073.622)"
         inkscape:connector-curvature="0"
         id="path4757"
         d="m 120,1085.9841 120,0"
         style="fill:none;stroke:#ff0000;stroke-width:3.54330709;stroke-linecap:butt;stroke-linejoin:miter;stroke-opacity:1;stroke-miterlimit:4;stroke-dasharray:none" />
      <path
         transform="translate(0,-1073.622)"
         inkscape:connector-curvature="0"
         id="path4759"
         d="m 340,1085.9841 20,0"
         style="fill:none;stroke:#ff0000;stroke-width:3.54330709;stroke-linecap:butt;stroke-linejoin:miter;stroke-opacity:1;stroke-miterlimit:4;stroke-dasharray:none" />
      <path
         transform="translate(0,-1073.622)"
         inkscape:connector-curvature="0"
         id="path4761"
         d="m 460,1085.9841 440,0"
         style="fill:none;stroke:#ff0000;stroke-width:3.54330709;stroke-linecap:butt;stroke-linejoin:miter;stroke-opacity:1;stroke-miterlimit:4;stroke-dasharray:none" />
      <path
         transform="translate(0,-1073.622)"
         inkscape:connector-curvature="0"
         id="path4763"
         d="m 1000,1085.9841 20,0"
         style="fill:none;stroke:#ff0000;stroke-width:3.54330709;stroke-linecap:butt;stroke-linejoin:miter;stroke-opacity:1;stroke-miterlimit:4;stroke-dasharray:none" />
      <path
         transform="translate(0,-1073.622)"
         inkscape:connector-curvature="0"
         id="path4765"
         d="m 1120,1085.9841 540,0"
         style="fill:none;stroke:#ff0000;stroke-width:3.54330709;stroke-linecap:butt;stroke-linejoin:miter;stroke-opacity:1;stroke-miterlimit:4;stroke-dasharray:none" />
      <path
         transform="translate(0,-1073.622)"
         inkscape:connector-curvature="0"
         id="path4767"
         d="m 1760,1085.9841 20,0"
         style="fill:none;stroke:#ff0000;stroke-width:3.54330709;stroke-linecap:butt;stroke-linejoin:miter;stroke-opacity:1;stroke-miterlimit:4;stroke-dasharray:none" />
      <path
         transform="translate(0,-1073.622)"
         inkscape:connector-curvature="0"
         id="path4769"
         d="m 1880,1085.9841 20,0"
         style="fill:none;stroke:#ff0000;stroke-width:3.54330709;stroke-linecap:butt;stroke-linejoin:miter;stroke-opacity:1;stroke-miterlimit:4;stroke-dasharray:none" />
      <path
         transform="translate(0,-1073.622)"
         inkscape:connector-curvature="0"
         id="path4771"
         d="m 2000,1085.9841 20,0"
         style="fill:none;stroke:#ff0000;stroke-width:3.54330709;stroke-linecap:butt;stroke-linejoin:miter;stroke-opacity:1;stroke-miterlimit:4;stroke-dasharray:none" />
      <path
         transform="translate(0,-1073.622)"
         inkscape:connector-curvature="0"
         id="path4773"
         d="m 2120,1085.9841 20,0"
         style="fill:none;stroke:#ff0000;stroke-width:3.54330709;stroke-linecap:butt;stroke-linejoin:miter;stroke-opacity:1;stroke-miterlimit:4;stroke-dasharray:none" />
      <path
         transform="translate(0,-1073.622)"
         inkscape:connector-curvature="0"
         id="path4775"
         d="m 2240,1085.9841 140,0"
         style="fill:none;stroke:#ff0000;stroke-width:3.54330709;stroke-linecap:butt;stroke-linejoin:miter;stroke-opacity:1;stroke-miterlimit:4;stroke-dasharray:none" />
      <path
         transform="translate(0,-1073.622)"
         inkscape:connector-curvature="0"
         id="path4777"
         d="m 2480,1085.9841 20,0"
         style="fill:none;stroke:#ff0000;stroke-width:3.54330709;stroke-linecap:butt;stroke-linejoin:miter;stroke-opacity:1;stroke-miterlimit:4;stroke-dasharray:none" />
      <path
         transform="translate(0,-1073.622)"
         inkscape:connector-curvature="0"
         id="path4779"
         d="m 2600,1085.9841 20,0"
         style="fill:none;stroke:#ff0000;stroke-width:3.54330709;stroke-linecap:butt;stroke-linejoin:miter;stroke-opacity:1;stroke-miterlimit:4;stroke-dasharray:none" />
      <path
         transform="translate(0,-1073.622)"
         inkscape:connector-curvature="0"
         id="path4781"
         d="m 2720,1185.9841 0,20"
         style="fill:none;stroke:#ff0000;stroke-width:3.54330709;stroke-linecap:butt;stroke-linejoin:miter;stroke-opacity:1;stroke-miterlimit:4;stroke-dasharray:none" />
      <path
         transform="translate(0,-1073.622)"
         inkscape:connector-curvature="0"
         id="path4783"
         d="m 2720,1305.9841 0,20"
         style="fill:none;stroke:#ff0000;stroke-width:3.54330709;stroke-linecap:butt;stroke-linejoin:miter;stroke-opacity:1;stroke-miterlimit:4;stroke-dasharray:none" />
      <path
         transform="translate(0,-1073.622)"
         inkscape:connector-curvature="0"
         id="path4785"
         d="m 2720,1425.9841 0,20"
         style="fill:none;stroke:#ff0000;stroke-width:3.54330709;stroke-linecap:butt;stroke-linejoin:miter;stroke-opacity:1;stroke-miterlimit:4;stroke-dasharray:none" />
      <path
         transform="translate(0,-1073.622)"
         inkscape:connector-curvature="0"
         id="path4787"
         d="m 2720,1545.9841 0,20"
         style="fill:none;stroke:#ff0000;stroke-width:3.54330709;stroke-linecap:butt;stroke-linejoin:miter;stroke-opacity:1;stroke-miterlimit:4;stroke-dasharray:none" />
      <path
         transform="translate(0,-1073.622)"
         inkscape:connector-curvature="0"
         id="path4789"
         d="m 2720,1665.9841 0,160"
         style="fill:none;stroke:#ff0000;stroke-width:3.54330709;stroke-linecap:butt;stroke-linejoin:miter;stroke-opacity:1;stroke-miterlimit:4;stroke-dasharray:none" />
      <path
         transform="translate(0,-1073.622)"
         inkscape:connector-curvature="0"
         id="path4791"
         d="m 2720,1925.9841 0,20"
         style="fill:none;stroke:#ff0000;stroke-width:3.54330709;stroke-linecap:butt;stroke-linejoin:miter;stroke-opacity:1;stroke-miterlimit:4;stroke-dasharray:none" />
      <path
         transform="translate(0,-1073.622)"
         inkscape:connector-curvature="0"
         id="path4793"
         d="m 2480,2045.9841 20,0"
         style="fill:none;stroke:#ff0000;stroke-width:3.54330709;stroke-linecap:butt;stroke-linejoin:miter;stroke-opacity:1;stroke-miterlimit:4;stroke-dasharray:none" />
      <path
         transform="translate(0,-1073.622)"
         inkscape:connector-curvature="0"
         id="path4795"
         d="m 2600,2045.9841 20,0"
         style="fill:none;stroke:#ff0000;stroke-width:3.54330709;stroke-linecap:butt;stroke-linejoin:miter;stroke-opacity:1;stroke-miterlimit:4;stroke-dasharray:none" />
      <path
         transform="translate(0,-1073.622)"
         inkscape:connector-curvature="0"
         id="path4797"
         d="m 2380,2045.9841 -360,0"
         style="fill:none;stroke:#ff0000;stroke-width:3.54330709;stroke-linecap:butt;stroke-linejoin:miter;stroke-opacity:1;stroke-miterlimit:4;stroke-dasharray:none" />
      <path
         transform="translate(0,-1073.622)"
         inkscape:connector-curvature="0"
         id="path4799"
         d="m 1920,2045.9841 -440,0"
         style="fill:none;stroke:#ff0000;stroke-width:3.54330709;stroke-linecap:butt;stroke-linejoin:miter;stroke-opacity:1;stroke-miterlimit:4;stroke-dasharray:none" />
      <path
         transform="translate(0,-1073.622)"
         inkscape:connector-curvature="0"
         id="path4801"
         d="m 1240,2045.9841 20,0"
         style="fill:none;stroke:#ff0000;stroke-width:3.54330709;stroke-linecap:butt;stroke-linejoin:miter;stroke-opacity:1;stroke-miterlimit:4;stroke-dasharray:none" />
      <path
         transform="translate(0,-1073.622)"
         inkscape:connector-curvature="0"
         id="path4803"
         d="m 1360,2045.9841 20,0"
         style="fill:none;stroke:#ff0000;stroke-width:3.54330709;stroke-linecap:butt;stroke-linejoin:miter;stroke-opacity:1;stroke-miterlimit:4;stroke-dasharray:none" />
      <path
         transform="translate(0,-1073.622)"
         inkscape:connector-curvature="0"
         id="path4805"
         d="m 1140,2045.9841 -320,0"
         style="fill:none;stroke:#ff0000;stroke-width:3.54330709;stroke-linecap:butt;stroke-linejoin:miter;stroke-opacity:1;stroke-miterlimit:4;stroke-dasharray:none" />
      <path
         transform="translate(0,-1073.622)"
         inkscape:connector-curvature="0"
         id="path4807"
         d="m 720,2045.9841 -20,0"
         style="fill:none;stroke:#ff0000;stroke-width:3.54330709;stroke-linecap:butt;stroke-linejoin:miter;stroke-opacity:1;stroke-miterlimit:4;stroke-dasharray:none" />
      <path
         transform="translate(0,-1073.622)"
         inkscape:connector-curvature="0"
         id="path4809"
         d="m 600,2045.9841 -20,0"
         style="fill:none;stroke:#ff0000;stroke-width:3.54330709;stroke-linecap:butt;stroke-linejoin:miter;stroke-opacity:1;stroke-miterlimit:4;stroke-dasharray:none" />
      <path
         transform="translate(0,-1073.622)"
         inkscape:connector-curvature="0"
         id="path4811"
         d="m 460,2045.9841 20,0"
         style="fill:none;stroke:#ff0000;stroke-width:3.54330709;stroke-linecap:butt;stroke-linejoin:miter;stroke-opacity:1;stroke-miterlimit:4;stroke-dasharray:none" />
      <path
         transform="translate(0,-1073.622)"
         inkscape:connector-curvature="0"
         id="path4813"
         d="m 360,2045.9841 -240,0"
         style="fill:none;stroke:#ff0000;stroke-width:3.54330709;stroke-linecap:butt;stroke-linejoin:miter;stroke-opacity:1;stroke-miterlimit:4;stroke-dasharray:none" />
      <path
         transform="translate(0,-1073.622)"
         inkscape:connector-curvature="0"
         id="path4815"
         d="m 120,2045.9841 0,-300"
         style="fill:none;stroke:#ff0000;stroke-width:3.54330709;stroke-linecap:butt;stroke-linejoin:miter;stroke-opacity:1;stroke-miterlimit:4;stroke-dasharray:none" />
      <path
         sodipodi:nodetypes="cc"
         transform="translate(0,-1073.622)"
         inkscape:connector-curvature="0"
         id="path4817"
         d="m 120,1625.9841 0,20"
         style="fill:none;stroke:#ff0000;stroke-width:3.54330709;stroke-linecap:butt;stroke-linejoin:miter;stroke-opacity:1;stroke-miterlimit:4;stroke-dasharray:none" />
      <path
         transform="translate(0,-1073.622)"
         inkscape:connector-curvature="0"
         id="path4819"
         d="m 120,1525.9841 0,-440"
         style="fill:none;stroke:#ff0000;stroke-width:3.54330709;stroke-linecap:butt;stroke-linejoin:miter;stroke-opacity:1;stroke-miterlimit:4;stroke-dasharray:none" />
    </g>
    <g
       transform="matrix(1.1867477,0,0,1.1867477,636.26505,-877.00552)"
       style="font-size:470px;font-style:normal;font-variant:normal;font-weight:normal;font-stretch:normal;line-height:125%;letter-spacing:0px;word-spacing:0px;fill:#ffff00;fill-opacity:1;stroke:none;font-family:Transport;-inkscape-font-specification:Transport"
       id="flowRoot2985">
      <g
         id="g5085">
        <path
           id="path5069"
           style="letter-spacing:-42.13195419px;fill:#ffff00"
           d="m 61.35021,155.77506 41.55593,0 0,125.90213 151.00027,0 0,-125.90213 41.55593,0 0,307.1436 -41.55593,0 0,-146.26865 -151.00027,0 0,146.26865 -41.55593,0 0,-307.1436" />
        <path
           id="path5071"
           style="letter-spacing:-42.13195419px;fill:#ffff00"
           d="m 438.68631,196.71382 -56.36795,152.85178 112.94162,0 -56.57367,-152.85178 m -23.45236,-40.93876 47.11044,0 117.05606,307.1436 -43.20171,0 -27.97825,-78.7917 -138.4512,0 -27.97825,78.7917 -43.81888,0 117.26179,-307.1436" />
        <path
           id="path5073"
           style="letter-spacing:-42.13195419px;fill:#ffff00"
           d="m 623.4662,316.23856 0,112.53017 66.65407,0 c 22.355,4e-5 38.88135,-4.59443 49.57911,-13.7834 10.8345,-9.32603 16.25185,-23.52086 16.25207,-42.58454 -2.2e-4,-19.20066 -5.41757,-33.32692 -16.25207,-42.37883 -10.69776,-9.18879 -27.22411,-13.78325 -49.57911,-13.7834 l -66.65407,0 m 0,-126.31358 0,92.5751 61.51101,0 c 20.29778,1.8e-4 35.38408,-3.77139 45.25893,-11.31473 10.01163,-7.68011 15.01754,-19.3377 15.01774,-34.97282 -2e-4,-15.49751 -5.00611,-27.08653 -15.01774,-34.76709 -9.87485,-7.68003 -24.96115,-11.52018 -45.25893,-11.52046 l -61.51101,0 m -41.55593,-34.14992 106.15278,0 c 31.68107,3.1e-4 56.09344,6.58342 73.23718,19.74935 17.1433,13.16651 25.71506,31.88724 25.71531,56.16223 -2.5e-4,18.78953 -4.38899,33.73868 -13.16624,44.84749 -8.77771,11.10919 -21.66964,18.03517 -38.67582,20.77797 20.43488,4.3889 36.2755,13.57783 47.52189,27.5668 11.38305,13.8521 17.0747,31.20135 17.07496,52.04778 -2.6e-4,27.42972 -9.32634,48.61911 -27.97825,63.56823 -18.65238,14.94917 -45.19055,22.42375 -79.61459,22.42375 l -110.26722,0 0,-307.1436" />
        <path
           id="path5075"
           style="font-size:421.31954956px;fill:#ffff00"
           d="m 799.81146,232.50953 40.11587,0 72.00286,193.37909 72.00285,-193.37909 40.11586,0 -86.40341,230.40913 -51.43061,0 -86.40342,-230.40913" />
        <path
           id="path5077"
           style="font-size:421.31954956px;fill:#ffff00"
           d="m 1076.3024,232.50953 37.8529,0 0,230.40913 -37.8529,0 0,-230.40913 m 0,-89.69498 37.8529,0 0,47.93332 -37.8529,0 0,-47.93332" />
        <path
           id="path5079"
           style="font-size:421.31954956px;fill:#ffff00"
           d="m 1193.1528,142.81455 37.8529,0 0,320.10411 -37.8529,0 0,-320.10411" />
        <path
           id="path5081"
           style="font-size:421.31954956px;fill:#ffff00"
           d="m 1310.0031,142.81455 37.853,0 0,320.10411 -37.853,0 0,-320.10411" />
        <path
           id="path5083"
           style="font-size:421.31954956px;fill:#ffff00"
           d="m 1623.9356,338.25086 0,18.51502 -174.0412,0 c 1.6457,26.05826 9.4632,45.94474 23.4523,59.65951 14.1262,13.57771 33.7384,20.36654 58.8367,20.36652 14.5375,2e-5 28.5952,-1.7829 42.1731,-5.34879 13.7146,-3.56582 27.2923,-8.91459 40.733,-16.04635 l 0,35.79571 c -13.5779,5.76023 -27.4984,10.14897 -41.7616,13.16623 -14.2636,3.01726 -28.7328,4.52589 -43.4075,4.5259 -36.7558,-1e-5 -65.8998,-10.69756 -87.432,-32.0927 -21.3952,-21.39509 -32.0927,-50.33335 -32.0927,-86.81487 0,-37.71563 10.1489,-67.61393 30.4469,-89.69498 20.435,-22.2178 47.9332,-33.3268 82.4947,-33.32704 30.9953,2.4e-4 55.4763,10.01205 73.4429,30.03548 18.1034,19.88669 27.1551,46.97345 27.1554,81.26036 m -37.853,-11.10901 c -0.2745,-20.70924 -6.1032,-37.23559 -17.4864,-49.57911 -11.2463,-12.34315 -26.1954,-18.51481 -44.8475,-18.51502 -21.1209,2.1e-4 -38.0587,5.96615 -50.8134,17.89786 -12.6177,11.93207 -19.8866,28.73272 -21.8066,50.40199 l 134.9539,-0.20572" />
      </g>
    </g>
    <path
       inkscape:export-filename="C:\Users\Matt\git\rtty_modem\map.png"
       inkscape:export-ydpi="1000"
       inkscape:export-xdpi="1000"
       sodipodi:nodetypes="ccsssssc"
       inkscape:connector-curvature="0"
       id="path3015-2-6-4"
       d="m 456.37977,-225.5571 c 0.69231,-12.1637 -4.22522,-108.9543 -4.22522,-108.9543 0,0 1.74727,-98.5032 -22.09592,-115.7918 -88.05251,-63.8461 -153.79687,-106.2746 -145.44864,-241.09912 9.39515,-151.7293 123.49599,-177.5776 175.36613,-180.2468 52.35887,-2.6941 183.04757,13.765 194.28438,186.7607 8.55572,131.71802 -97.19611,180.27732 -180.068,236.34272 -22.84505,15.4557 -21.54823,119.725 -21.54823,119.725"
       style="fill:#ffff00;fill-opacity:1;stroke:#ffff00;stroke-width:10.62973880999999921;stroke-linecap:butt;stroke-linejoin:miter;stroke-miterlimit:4;stroke-opacity:1;stroke-dasharray:none;display:inline" />
    <rect
       style="fill:none;stroke:#ff0000;stroke-width:3.54330709;stroke-miterlimit:4;stroke-opacity:1;stroke-dasharray:none"
       id="rect5012"
       width="2600"
       height="960"
       x="120"
       y="-1027.6379" />
  </g>
</svg>
