<?xml version="1.0" encoding="UTF-8" standalone="no"?>
<!-- Created with Inkscape (http://www.inkscape.org/) -->

<svg
   xmlns:dc="http://purl.org/dc/elements/1.1/"
   xmlns:cc="http://creativecommons.org/ns#"
   xmlns:rdf="http://www.w3.org/1999/02/22-rdf-syntax-ns#"
   xmlns:svg="http://www.w3.org/2000/svg"
   xmlns="http://www.w3.org/2000/svg"
   xmlns:sodipodi="http://sodipodi.sourceforge.net/DTD/sodipodi-0.dtd"
   xmlns:inkscape="http://www.inkscape.org/namespaces/inkscape"
   width="2834.6455"
   height="2125.9841"
   id="svg3804"
   version="1.1"
   inkscape:version="0.48.4 r9939"
   sodipodi:docname="New document 6">
  <defs
     id="defs3806" />
  <sodipodi:namedview
     id="base"
     pagecolor="#ffffff"
     bordercolor="#666666"
     borderopacity="1.0"
     inkscape:pageopacity="0.0"
     inkscape:pageshadow="2"
     inkscape:zoom="0.98994949"
     inkscape:cx="876.53667"
     inkscape:cy="1690.4802"
     inkscape:document-units="px"
     inkscape:current-layer="g3931"
     showgrid="false"
     units="mm"
     inkscape:window-width="1918"
     inkscape:window-height="671"
     inkscape:window-x="0"
     inkscape:window-y="19"
     inkscape:window-maximized="0" />
  <metadata
     id="metadata3809">
    <rdf:RDF>
      <cc:Work
         rdf:about="">
        <dc:format>image/svg+xml</dc:format>
        <dc:type
           rdf:resource="http://purl.org/dc/dcmitype/StillImage" />
        <dc:title></dc:title>
      </cc:Work>
    </rdf:RDF>
  </metadata>
  <g
     inkscape:label="Layer 1"
     inkscape:groupmode="layer"
     id="layer1"
     transform="translate(0,1073.622)">
    <rect
       style="fill:none;stroke:#ff0000;stroke-width:3.16849852;stroke-miterlimit:4;stroke-opacity:1;stroke-dasharray:none;stroke-dashoffset:0"
       id="rect3812"
       width="1130.6897"
       height="280.29608"
       x="185.52687"
       y="-767.74652"
       ry="2.4094715" />
    <g
       id="g3931"
       transform="matrix(1.25,0,0,1.25,200.49956,-467.17186)">
      <g
         id="g3946"
         transform="matrix(0.78553796,0,0,0.78553796,202.74319,15.434411)"
         style="fill:#00ff00">
        <g
           id="g3968"
           transform="matrix(1.0489286,0,0,1.0489286,-41.341856,3.7384693)">
          <path
             id="path3901"
             d="m 651.64286,-198.67143 c 4.59,-0.03 9.18,-0.06 13.77,0.05 -0.01,9.29 0.06,18.59 -0.02,27.88 6.51,0.05 13.04,-0.05 19.55,0.29 -0.33,3.8 -0.83,7.58 -1.37,11.36 -6.05,0.09 -12.1,0.06 -18.14,0.05 0.01,19.12 -0.06,38.23 0.04,57.35 -0.09,5.300001 2.39,11.330001 7.86,12.960001 5.92,1.58 12.14,0.66 18.18,0.58 0.55,3.26 1.07,6.52 1.43,9.8 -10.91,2.44 -23.47,3.61 -33.28,-2.83 -5.88,-3.59 -7.95,-10.93 -8.02,-17.43 0.01,-20.150001 0,-40.290001 -0.01,-60.430001 -4.26,0 -8.51,-0.01 -12.77,-0.03 0,-3.78 -0.01,-7.56 -0.05,-11.35 4.27,-0.32 8.56,-0.29 12.85,-0.28 -0.07,-9.33 0.03,-18.65 -0.02,-27.97 z"
             inkscape:connector-curvature="0"
             style="fill:#00ff00" />
          <path
             id="path3903"
             d="m 148.46286,-197.21143 c 4.66,-0.11 9.33,-0.12 14,0.03 -0.03,39.75 -0.07,79.49 0.02,119.240001 -4.68,0.12 -9.37,0.1 -14.05,0.01 0.02,-39.760001 -0.03,-79.520001 0.03,-119.280001 z"
             inkscape:connector-curvature="0"
             style="fill:#00ff00" />
          <path
             id="path3905"
             d="m 314.88286,-169.71143 c 10.22,-3.14 21.61,-3.04 31.64,0.8 5.56,2.13 9.75,6.79 11.83,12.31 4.37,-7.12 11.64,-12.28 19.84,-13.96 10.32,-2.13 21.64,-2.02 31.25,2.74 9.56,4.9 13.71,16.06 13.97,26.26 0.07,21.22 -0.03,42.430001 0.04,63.650001 -4.62,0.08 -9.23,-0.03 -13.84,0 0.01,-21.24 0.05,-42.470001 -0.02,-63.700001 -0.19,-5.92 -1.26,-13.28 -7.06,-16.36 -6.93,-3.11 -14.82,-2.47 -22.2,-1.92 -5.66,1.06 -12.41,2.62 -15.22,8.24 -3.01,5.83 -3.62,12.57 -3.69,19.04 0,18.23 0.01,36.460001 -0.01,54.700001 -4.59,0 -9.18,0.02 -13.77,0.05 -0.06,-20.25 0.12,-40.500001 -0.1,-60.740001 -0.09,-5.75 -0.25,-12.38 -4.71,-16.64 -5.36,-5.29 -13.51,-5.43 -20.55,-4.91 -6.94,0.79 -14.16,3.82 -17.95,9.99 -3.9,6.08 -4.97,13.5 -4.91,20.59 0.04,17.22 -0.06,34.440001 0.03,51.660001 -4.61,0.06 -9.21,0.03 -13.82,0.04 -0.03,-30.840001 0,-61.680001 -0.02,-92.520001 4.2,-0.39 8.43,-0.45 12.62,0.15 0.11,4.63 0.56,9.25 0.86,13.87 3.21,-6.38 8.96,-11.24 15.79,-13.34 z"
             inkscape:connector-curvature="0"
             style="fill:#00ff00" />
          <path
             id="path3907"
             d="m 724.06286,-172.26143 c 4.55,-0.03 9.11,0 13.67,-0.01 0.13,31.46 0,62.92 0.07,94.390001 -4.45,0.52 -8.96,0.72 -13.41,0.12 -0.87,-7.23 -0.38,-14.52 -0.49,-21.78 0.09,-24.240001 -0.2,-48.480001 0.16,-72.720001 z"
             inkscape:connector-curvature="0"
             style="fill:#ffff00" />
          <path
             id="path3909"
             d="m 762.48286,-172.21143 c 4.78,-0.06 9.56,-0.1 14.35,-0.05 0.1,11.88 -0.07,23.76 0.08,35.64 0.39,7.21 0.58,14.56 2.9,21.46 0.93,2.89 3.3,5.15 6.15,6.16 8.94,3.26 18.59,3.01 27.97,3.03 -0.01,-14.74 0.05,-29.48 -0.04,-44.22 4.54,-0.14 9.08,-0.15 13.63,-0.02 -0.12,14.45 -0.16,28.9 0.01,43.35 5.59,-0.59 11.17,-1.32 16.79,-1.54 0.25,3.41 0.52,6.82 0.62,10.240001 -5.74,1.14 -11.55,1.88 -17.36,2.46 -0.23,5.95 -0.15,11.91 -0.08,17.87 -4.55,0.5 -9.15,0.7 -13.68,-0.06 0.14,-5.41 0.11,-10.82 0.12,-16.23 -12.92,0.01 -26.85,0.88 -38.54,-5.64 -5.81,-3.000001 -9.05,-9.110001 -10.76,-15.180001 -2.69,-9.64 -2.12,-19.74 -2.15,-29.63 0,-9.22 -0.01,-18.43 -0.01,-27.64 z"
             inkscape:connector-curvature="0"
             style="fill:#ffff00" />
          <path
             id="path3911"
             d="m 71.172857,-170.68143 c 12.52,-1.99 25.52,-1.66 37.820003,1.49 5.93,1.38 11.52,5.11 13.89,10.9 4.73,10.96 4.49,23.24 4.53,34.96 0.55,2.02 -2.06,1.87 -3.29,1.91 -21.18,0.06 -42.370003,-0.18 -63.550003,0.12 0.42,8.37 0.09,17.1 3.32,25.000001 2.43,5.46 8.83,7.15 14.22,7.94 14.06,1.57 28.120003,-0.99 42.120003,-1.94 0.1,3.38 0.36,6.75 0.74,10.1 -16.71,3.03 -34.020003,5.47 -50.900003,2.28 -5.38,-1.06 -10.87,-2.92 -14.97,-6.7 -4.98,-4.94 -6.39,-12.13 -7.66,-18.760001 -1.38,-9 -1.63,-18.15 -1.39,-27.24 0.45,-9.39 1.19,-19.1 5.29,-27.72 3.71,-7.46 11.98,-11.11 19.83,-12.34 z"
             inkscape:connector-curvature="0"
             style="fill:#00ff00" />
          <path
             id="path3913"
             d="m 208.03286,-170.63143 c 11.64,-1.9 23.63,-1.61 35.19,0.67 6.82,1.31 13.85,4.92 16.67,11.64 4.99,11.59 4.46,24.55 4.58,36.91 -22.3,-0.01 -44.6,-0.09 -66.9,0.04 0.38,8.37 0.17,17.12 3.34,25.020001 2.52,5.9 9.54,7.43 15.28,8.05 13.57,1.18 27.16,-0.74 40.64,-2.13 0.36,3.43 0.78,6.85 1.08,10.29 -16.69,2.94 -33.9,5.35 -50.77,2.31 -6.64,-1.43 -13.83,-3.98 -17.67,-9.98 -3.96,-6.51 -5.01,-14.230001 -5.84,-21.670001 -1.15,-13.03 -1.2,-26.32 1.46,-39.18 1.3,-6.29 3.74,-12.87 9.16,-16.75 4.13,-2.74 8.95,-4.29 13.78,-5.22 z"
             inkscape:connector-curvature="0"
             style="fill:#00ff00" />
          <path
             id="path3915"
             d="m 470.11286,-170.65143 c 12.41,-1.97 25.25,-1.66 37.49,1.23 6.07,1.37 11.96,4.99 14.46,10.92 4.94,11.54 4.64,24.42 4.64,36.74 -22.31,0.86 -44.66,-0.08 -66.98,0.48 0.87,8.48 0.08,17.48 3.7,25.420001 2.29,5.32 8.69,6.52 13.79,7.44 14.01,1.52 28.08,-0.59 42.02,-2.03 0.21,3.42 0.6,6.84 1.15,10.23 -16.52,2.94 -33.57,5.43 -50.28,2.46 -5.1,-0.87 -10.11,-2.67 -14.41,-5.58 -4.39,-3.47 -6.47,-8.97 -7.85,-14.22 -1.95,-8.520001 -2.66,-17.290001 -2.47,-26.030001 -0.15,-11.63 0.25,-23.8 5.19,-34.55 3.38,-7.63 11.83,-11.11 19.55,-12.51 z"
             inkscape:connector-curvature="0"
             style="fill:#00ff00" />
          <path
             id="path3917"
             d="m 562.11286,-157.85143 c 5.47,-11.02 18.79,-13.94 30.04,-14.02 9.67,0.19 20.61,0.35 28.33,7.02 5.76,6.63 6.56,15.92 6.93,24.32 0.07,20.88 0,41.750001 0.03,62.630001 -4.61,0.06 -9.21,0 -13.81,0.01 -0.05,-20.89 0.04,-41.780001 -0.05,-62.670001 -0.16,-5.28 -0.41,-11.23 -4.14,-15.37 -3.05,-2.69 -7.23,-3.63 -11.17,-4.12 -8.34,-0.59 -17.29,-0.57 -24.7,3.85 -6.67,4.05 -10.04,12 -10.28,19.58 -0.24,19.58 0.38,39.190001 -0.32,58.760001 -4.51,0 -9.01,-0.04 -13.51,-0.03 -0.08,-30.940001 -0.11,-61.880001 0.02,-92.820001 3.91,-0.05 7.82,0.05 11.73,0.38 0.11,4.17 0.54,8.32 0.9,12.48 z"
             inkscape:connector-curvature="0"
             style="fill:#00ff00" />
          <path
             id="path3919"
             d="m 65.672857,-155.12143 c 4.14,-3.76 10,-4.6 15.37,-5.08 8.08,-0.2 16.51,-0.64 24.160003,2.44 3.08,1.09 5.02,3.98 6.03,6.95 2.16,5.92 1.78,12.33 1.75,18.52 -12.61,-0.03 -25.210003,0 -37.820003,-0.02 -4.81,-0.02 -9.65,0.24 -14.43,-0.4 0.53,-7.56 0.14,-16.04 4.94,-22.41 z"
             inkscape:connector-curvature="0"
             style="fill:#ffffff" />
          <path
             id="path3921"
             d="m 201.45286,-153.43143 c 3.13,-4.97 9.54,-5.95 14.9,-6.64 7.46,-0.36 15.09,-0.66 22.41,1.11 3.12,0.87 6.5,2.25 8.07,5.29 3.82,6.43 3.08,14.18 3.12,21.35 -14.95,0.05 -29.9,-0.02 -44.85,0.04 -2.47,0.02 -4.94,-0.15 -7.4,-0.43 0.62,-6.97 0.33,-14.39 3.75,-20.72 z"
             inkscape:connector-curvature="0"
             style="fill:#ffffff" />
          <path
             id="path3923"
             d="m 465.28286,-155.43143 c 7.82,-6.01 18.46,-4.78 27.72,-4.75 5.89,0.7 13.5,1.16 16.53,7.19 3.09,6.22 2.83,13.44 2.96,20.22 -4.12,0.6 -8.28,0.51 -12.42,0.47 -13.25,-0.03 -26.5,0.03 -39.75,-0.02 0.14,-7.8 -0.28,-16.73 4.96,-23.11 z"
             inkscape:connector-curvature="0"
             style="fill:#ffffff" />
        </g>
      </g>
      <flowRoot
         xml:space="preserve"
         id="flowRoot3960"
         style="font-size:140px;font-style:normal;font-weight:normal;line-height:125%;letter-spacing:0px;word-spacing:0px;fill:#0000ff;fill-opacity:1;stroke:none;font-family:Sans"
         transform="matrix(0.72530095,0,0,0.72530095,-152.88989,-476.90211)"><flowRegion
           id="flowRegion3962"><rect
             id="rect3964"
             width="1092.8572"
             height="250"
             x="219.28572"
             y="329.55557"
             style="fill:#0000ff" /></flowRegion><flowPara
           id="flowPara3966"
           style="font-size:100px;fill:#0000ff">Sponsored by</flowPara></flowRoot>    </g>
  </g>
</svg>
