999
dxfrw 0.5.10
0
SECTION
2
HEADER
9
$ACADVER
1
AC1021
9
$HANDSEED
5
20000
9
$DWGCODEPAGE
3
ANSI_1252
9
$INSBASE
10
0
20
0
30
0
9
$EXTMIN
10
187.282288
20
590.535196
30
0
9
$EXTMAX
10
328.299584
20
731.552492
30
0
9
$LIMMIN
10
0
20
0
9
$LIMMAX
10
420
20
297
9
$ORTHOMODE
70
0
9
$LTSCALE
40
1
9
$TEXTSTYLE
7
STANDARD
9
$CLAYER
8
0
9
$DIMASZ
40
2.5
9
$DIMLFAC
40
1
9
$DIMSCALE
40
1
9
$DIMEXO
40
0.625
9
$DIMEXE
40
1.25
9
$DIMTXT
40
2.5
9
$DIMTSZ
40
0
9
$DIMAUNIT
70
0
9
$DIMADEC
70
0
9
$DIMLUNIT
70
2
9
$DIMSTYLE
2
Standard
9
$DIMGAP
40
0.625
9
$DIMTIH
70
0
9
$LUNITS
70
2
9
$LUPREC
70
4
9
$AUNITS
70
0
9
$AUPREC
70
2
9
$SPLINESEGS
70
8
9
$GRIDMODE
70
0
9
$SNAPSTYLE
70
0
9
$PINSBASE
10
0
20
0
30
0
9
$PLIMMIN
10
0
20
0
9
$PLIMMAX
10
210
20
297
9
$INSUNITS
70
4
9
$PSVPSCALE
40
1
0
ENDSEC
0
SECTION
2
CLASSES
0
ENDSEC
0
SECTION
2
TABLES
0
TABLE
2
VPORT
5
8
330
0
100
AcDbSymbolTable
70
1
0
VPORT
5
31
330
2
100
AcDbSymbolTableRecord
100
AcDbViewportTableRecord
2
*ACTIVE
70
0
10
0
20
0
11
1
21
1
12
194.785460169
22
367.155696225
13
0
23
0
14
10
24
10
15
10
25
10
16
0
26
0
36
1
17
0
27
0
37
0
40
146.692036282
41
1.79690522244
42
50
43
0
44
0
50
0
51
0
71
0
72
100
73
1
74
3
75
0
76
0
77
0
78
0
281
0
65
1
110
0
120
0
130
0
111
1
121
0
131
0
112
0
122
1
132
0
79
0
146
0
348
10020
60
7
61
5
292
1
282
1
141
0
142
0
63
250
421
3358443
0
ENDTAB
0
TABLE
2
LTYPE
5
5
330
0
100
AcDbSymbolTable
70
4
0
LTYPE
5
14
330
5
100
AcDbSymbolTableRecord
100
AcDbLinetypeTableRecord
2
ByBlock
70
0
3

72
65
73
0
40
0
0
LTYPE
5
15
330
5
100
AcDbSymbolTableRecord
100
AcDbLinetypeTableRecord
2
ByLayer
70
0
3

72
65
73
0
40
0
0
LTYPE
5
16
330
5
100
AcDbSymbolTableRecord
100
AcDbLinetypeTableRecord
2
Continuous
70
0
3
Solid line
72
65
73
0
40
0
0
LTYPE
5
32
330
5
100
AcDbSymbolTableRecord
100
AcDbLinetypeTableRecord
2
DOT
70
0
3
Dot . . . . . . . . . . . . . . . . . . . . . .
72
65
73
2
40
6.35
49
0
74
0
49
-6.35
74
0
0
LTYPE
5
33
330
5
100
AcDbSymbolTableRecord
100
AcDbLinetypeTableRecord
2
DOT2
70
0
3
Dot (.5x) .....................................
72
65
73
2
40
3.175
49
0
74
0
49
-3.175
74
0
0
LTYPE
5
34
330
5
100
AcDbSymbolTableRecord
100
AcDbLinetypeTableRecord
2
DOTX2
70
0
3
Dot (2x) .  .  .  .  .  .  .  .  .  .  .  .  .
72
65
73
2
40
12.7
49
0
74
0
49
-12.7
74
0
0
LTYPE
5
35
330
5
100
AcDbSymbolTableRecord
100
AcDbLinetypeTableRecord
2
DASHED
70
0
3
Dot . . . . . . . . . . . . . . . . . . . . . .
72
65
73
2
40
19.05
49
12.7
74
0
49
-6.35
74
0
0
LTYPE
5
36
330
5
100
AcDbSymbolTableRecord
100
AcDbLinetypeTableRecord
2
DASHED2
70
0
3
Dashed (.5x) _ _ _ _ _ _ _ _ _ _ _ _ _ _ _ _ _
72
65
73
2
40
9.525
49
6.35
74
0
49
-3.175
74
0
0
LTYPE
5
37
330
5
100
AcDbSymbolTableRecord
100
AcDbLinetypeTableRecord
2
DASHEDX2
70
0
3
Dashed (2x) ____  ____  ____  ____  ____  ___
72
65
73
2
40
38.1
49
25.4
74
0
49
-12.7
74
0
0
LTYPE
5
38
330
5
100
AcDbSymbolTableRecord
100
AcDbLinetypeTableRecord
2
DASHDOT
70
0
3
Dash dot __ . __ . __ . __ . __ . __ . __ . __
72
65
73
4
40
25.4
49
12.7
74
0
49
-6.35
74
0
49
0
74
0
49
-6.35
74
0
0
LTYPE
5
39
330
5
100
AcDbSymbolTableRecord
100
AcDbLinetypeTableRecord
2
DASHDOT2
70
0
3
Dash dot (.5x) _._._._._._._._._._._._._._._.
72
65
73
4
40
12.7
49
6.35
74
0
49
-3.175
74
0
49
0
74
0
49
-3.175
74
0
0
LTYPE
5
3A
330
5
100
AcDbSymbolTableRecord
100
AcDbLinetypeTableRecord
2
DASHDOTX2
70
0
3
Dash dot (2x) ____  .  ____  .  ____  .  ___
72
65
73
4
40
50.8
49
25.4
74
0
49
-12.7
74
0
49
0
74
0
49
-12.7
74
0
0
LTYPE
5
3B
330
5
100
AcDbSymbolTableRecord
100
AcDbLinetypeTableRecord
2
DIVIDE
70
0
3
Divide ____ . . ____ . . ____ . . ____ . . ____
72
65
73
6
40
31.75
49
12.7
74
0
49
-6.35
74
0
49
0
74
0
49
-6.35
74
0
49
0
74
0
49
-6.35
74
0
0
LTYPE
5
3C
330
5
100
AcDbSymbolTableRecord
100
AcDbLinetypeTableRecord
2
DIVIDE2
70
0
3
Divide (.5x) __..__..__..__..__..__..__..__.._
72
65
73
6
40
15.875
49
6.35
74
0
49
-3.175
74
0
49
0
74
0
49
-3.175
74
0
49
0
74
0
49
-3.175
74
0
0
LTYPE
5
3D
330
5
100
AcDbSymbolTableRecord
100
AcDbLinetypeTableRecord
2
DIVIDEX2
70
0
3
Divide (2x) ________  .  .  ________  .  .  _
72
65
73
6
40
63.5
49
25.4
74
0
49
-12.7
74
0
49
0
74
0
49
-12.7
74
0
49
0
74
0
49
-12.7
74
0
0
LTYPE
5
3E
330
5
100
AcDbSymbolTableRecord
100
AcDbLinetypeTableRecord
2
BORDER
70
0
3
Border __ __ . __ __ . __ __ . __ __ . __ __ .
72
65
73
6
40
44.45
49
12.7
74
0
49
-6.35
74
0
49
12.7
74
0
49
-6.35
74
0
49
0
74
0
49
-6.35
74
0
0
LTYPE
5
3F
330
5
100
AcDbSymbolTableRecord
100
AcDbLinetypeTableRecord
2
BORDER2
70
0
3
Border (.5x) __.__.__.__.__.__.__.__.__.__.__.
72
65
73
6
40
22.225
49
6.35
74
0
49
-3.175
74
0
49
6.35
74
0
49
-3.175
74
0
49
0
74
0
49
-3.175
74
0
0
LTYPE
5
40
330
5
100
AcDbSymbolTableRecord
100
AcDbLinetypeTableRecord
2
BORDERX2
70
0
3
Border (2x) ____  ____  .  ____  ____  .  ___
72
65
73
6
40
88.9
49
25.4
74
0
49
-12.7
74
0
49
25.4
74
0
49
-12.7
74
0
49
0
74
0
49
-12.7
74
0
0
LTYPE
5
41
330
5
100
AcDbSymbolTableRecord
100
AcDbLinetypeTableRecord
2
CENTER
70
0
3
Center ____ _ ____ _ ____ _ ____ _ ____ _ ____
72
65
73
4
40
50.8
49
31.75
74
0
49
-6.35
74
0
49
6.35
74
0
49
-6.35
74
0
0
LTYPE
5
42
330
5
100
AcDbSymbolTableRecord
100
AcDbLinetypeTableRecord
2
CENTER2
70
0
3
Center (.5x) ___ _ ___ _ ___ _ ___ _ ___ _ ___
72
65
73
4
40
28.575
49
19.05
74
0
49
-3.175
74
0
49
3.175
74
0
49
-3.175
74
0
0
LTYPE
5
43
330
5
100
AcDbSymbolTableRecord
100
AcDbLinetypeTableRecord
2
CENTERX2
70
0
3
Center (2x) ________  __  ________  __  _____
72
65
73
4
40
101.6
49
63.5
74
0
49
-12.7
74
0
49
12.7
74
0
49
-12.7
74
0
0
ENDTAB
0
TABLE
2
LAYER
5
2
330
0
100
AcDbSymbolTable
70
1
0
LAYER
5
10
330
2
100
AcDbSymbolTableRecord
100
AcDbLayerTableRecord
2
0
70
0
62
7
6
CONTINUOUS
370
-3
390
F
0
LAYER
5
44
330
2
100
AcDbSymbolTableRecord
100
AcDbLayerTableRecord
2
Layer_1
70
0
62
7
6
CONTINUOUS
370
-3
390
F
0
ENDTAB
0
TABLE
2
STYLE
5
3
330
0
100
AcDbSymbolTable
70
3
0
STYLE
5
45
330
2
100
AcDbSymbolTableRecord
100
AcDbTextStyleTableRecord
2
Standard
70
0
40
0
41
1
50
0
71
0
42
1
3
txt
4

0
ENDTAB
0
TABLE
2
VIEW
5
6
330
0
100
AcDbSymbolTable
70
0
0
ENDTAB
0
TABLE
2
UCS
5
7
330
0
100
AcDbSymbolTable
70
0
0
ENDTAB
0
TABLE
2
APPID
5
9
330
0
100
AcDbSymbolTable
70
1
0
APPID
5
12
330
9
100
AcDbSymbolTableRecord
100
AcDbRegAppTableRecord
2
ACAD
70
0
0
ENDTAB
0
TABLE
2
DIMSTYLE
5
A
330
0
100
AcDbSymbolTable
70
1
100
AcDbDimStyleTable
71
1
0
DIMSTYLE
105
46
330
A
100
AcDbSymbolTableRecord
100
AcDbDimStyleTableRecord
2
Standard
70
0
40
1
41
2.5
42
0.625
43
0.38
44
1.25
45
0
46
0
47
0
48
0
140
2.5
141
0.09
142
0
143
25.4
144
1
145
0
146
1
147
0.625
148
0
71
0
72
0
73
0
74
1
75
0
76
0
77
0
78
0
79
0
170
0
171
2
172
0
173
0
174
0
175
0
176
0
177
0
178
0
179
0
271
4
272
4
273
2
274
2
275
0
276
0
277
2
278
46
279
0
280
0
281
0
282
0
283
1
284
0
285
0
286
0
288
0
289
3
340
Standard
341

371
-2
372
-2
0
ENDTAB
0
TABLE
2
BLOCK_RECORD
5
1
330
0
100
AcDbSymbolTable
70
2
0
BLOCK_RECORD
5
1F
330
1
100
AcDbSymbolTableRecord
100
AcDbBlockTableRecord
2
*Model_Space
70
0
280
1
281
0
0
BLOCK_RECORD
5
1E
330
1
100
AcDbSymbolTableRecord
100
AcDbBlockTableRecord
2
*Paper_Space
70
0
280
1
281
0
0
ENDTAB
0
ENDSEC
0
SECTION
2
BLOCKS
0
BLOCK
5
20
330
1F
100
AcDbEntity
8
0
100
AcDbBlockBegin
2
*Model_Space
70
0
10
0
20
0
30
0
3
*Model_Space
1

0
ENDBLK
5
21
330
1F
100
AcDbEntity
8
0
100
AcDbBlockEnd
0
BLOCK
5
1C
330
1B
100
AcDbEntity
8
0
100
AcDbBlockBegin
2
*Paper_Space
70
0
10
0
20
0
30
0
3
*Paper_Space
1

0
ENDBLK
5
1D
330
1F
100
AcDbEntity
8
0
100
AcDbBlockEnd
0
ENDSEC
0
SECTION
2
ENTITIES
0
LWPOLYLINE
5
47
100
AcDbEntity
8
Layer_1
6
ByLayer
62
2
370
-1
100
AcDbPolyline
90
10
70
0
43
0
10
216.645184
20
626.818308
10
299.845184
20
626.818308
10
299.845184
20
630.018308
10
303.045184
20
633.218308
10
303.045184
20
674.818308
10
299.845184
20
678.018308
10
299.845184
20
692.418308
10
298.245184
20
694.018308
10
216.645184
20
694.0183
10
216.645184
20
626.818308
0
LWPOLYLINE
5
48
100
AcDbEntity
8
Layer_1
6
ByLayer
62
2
370
-1
100
AcDbPolyline
90
5
70
0
43
0
10
214.245192
20
642.018308
10
231.04519
20
642.018308
10
231.04519
20
630.818309
10
214.245192
20
630.818309
10
214.245192
20
642.018308
0
SPLINE
5
49
100
AcDbEntity
8
Layer_1
6
ByLayer
62
2
370
-1
100
AcDbSpline
210
0
220
0
230
1
70
8
71
3
72
8
73
4
74
0
42
1e-07
43
1e-07
40
0
40
0
40
0
40
0
40
1
40
1
40
1
40
1
10
301.842136
20
636.418305
30
0
10
301.842486
20
635.70463
30
0
10
301.461946
20
635.045017
30
0
10
300.843943
20
634.688078
30
0
0
SPLINE
5
4A
100
AcDbEntity
8
Layer_1
6
ByLayer
62
2
370
-1
100
AcDbSpline
210
0
220
0
230
1
70
8
71
3
72
8
73
4
74
0
42
1e-07
43
1e-07
40
0
40
0
40
0
40
0
40
1
40
1
40
1
40
1
10
300.843943
20
634.688078
30
0
10
300.22594
20
634.331139
30
0
10
299.464428
20
634.331139
30
0
10
298.846425
20
634.688078
30
0
0
SPLINE
5
4B
100
AcDbEntity
8
Layer_1
6
ByLayer
62
2
370
-1
100
AcDbSpline
210
0
220
0
230
1
70
8
71
3
72
8
73
4
74
0
42
1e-07
43
1e-07
40
0
40
0
40
0
40
0
40
1
40
1
40
1
40
1
10
298.846425
20
634.688078
30
0
10
298.228422
20
635.045017
30
0
10
297.847882
20
635.70463
30
0
10
297.848232
20
636.418305
30
0
0
SPLINE
5
4C
100
AcDbEntity
8
Layer_1
6
ByLayer
62
2
370
-1
100
AcDbSpline
210
0
220
0
230
1
70
8
71
3
72
8
73
4
74
0
42
1e-07
43
1e-07
40
0
40
0
40
0
40
0
40
1
40
1
40
1
40
1
10
297.848232
20
636.418305
30
0
10
297.847882
20
637.131981
30
0
10
298.228422
20
637.791594
30
0
10
298.846425
20
638.148533
30
0
0
SPLINE
5
4D
100
AcDbEntity
8
Layer_1
6
ByLayer
62
2
370
-1
100
AcDbSpline
210
0
220
0
230
1
70
8
71
3
72
8
73
4
74
0
42
1e-07
43
1e-07
40
0
40
0
40
0
40
0
40
1
40
1
40
1
40
1
10
298.846425
20
638.148533
30
0
10
299.464428
20
638.505471
30
0
10
300.22594
20
638.505471
30
0
10
300.843943
20
638.148533
30
0
0
SPLINE
5
4E
100
AcDbEntity
8
Layer_1
6
ByLayer
62
2
370
-1
100
AcDbSpline
210
0
220
0
230
1
70
8
71
3
72
8
73
4
74
0
42
1e-07
43
1e-07
40
0
40
0
40
0
40
0
40
1
40
1
40
1
40
1
10
300.843943
20
638.148533
30
0
10
301.461946
20
637.791594
30
0
10
301.842486
20
637.131981
30
0
10
301.842136
20
636.418305
30
0
0
LWPOLYLINE
5
4F
100
AcDbEntity
8
Layer_1
6
ByLayer
62
2
370
-1
100
AcDbPolyline
90
5
70
0
43
0
10
208.645192
20
682.018308
10
228.645192
20
682.018308
10
228.645192
20
667.618309
10
208.645192
20
667.618309
10
208.645192
20
682.018308
0
SPLINE
5
50
100
AcDbEntity
8
Layer_1
6
ByLayer
62
2
370
-1
100
AcDbSpline
210
0
220
0
230
1
70
8
71
3
72
8
73
4
74
0
42
1e-07
43
1e-07
40
0
40
0
40
0
40
0
40
1
40
1
40
1
40
1
10
301.842136
20
671.618308
30
0
10
301.842486
20
670.904632
30
0
10
301.461946
20
670.245019
30
0
10
300.843943
20
669.888081
30
0
0
SPLINE
5
51
100
AcDbEntity
8
Layer_1
6
ByLayer
62
2
370
-1
100
AcDbSpline
210
0
220
0
230
1
70
8
71
3
72
8
73
4
74
0
42
1e-07
43
1e-07
40
0
40
0
40
0
40
0
40
1
40
1
40
1
40
1
10
300.843943
20
669.888081
30
0
10
300.22594
20
669.531142
30
0
10
299.464428
20
669.531142
30
0
10
298.846425
20
669.888081
30
0
0
SPLINE
5
52
100
AcDbEntity
8
Layer_1
6
ByLayer
62
2
370
-1
100
AcDbSpline
210
0
220
0
230
1
70
8
71
3
72
8
73
4
74
0
42
1e-07
43
1e-07
40
0
40
0
40
0
40
0
40
1
40
1
40
1
40
1
10
298.846425
20
669.888081
30
0
10
298.228422
20
670.245019
30
0
10
297.847882
20
670.904632
30
0
10
297.848232
20
671.618308
30
0
0
SPLINE
5
53
100
AcDbEntity
8
Layer_1
6
ByLayer
62
2
370
-1
100
AcDbSpline
210
0
220
0
230
1
70
8
71
3
72
8
73
4
74
0
42
1e-07
43
1e-07
40
0
40
0
40
0
40
0
40
1
40
1
40
1
40
1
10
297.848232
20
671.618308
30
0
10
297.847882
20
672.331983
30
0
10
298.228422
20
672.991596
30
0
10
298.846425
20
673.348535
30
0
0
SPLINE
5
54
100
AcDbEntity
8
Layer_1
6
ByLayer
62
2
370
-1
100
AcDbSpline
210
0
220
0
230
1
70
8
71
3
72
8
73
4
74
0
42
1e-07
43
1e-07
40
0
40
0
40
0
40
0
40
1
40
1
40
1
40
1
10
298.846425
20
673.348535
30
0
10
299.464428
20
673.705474
30
0
10
300.22594
20
673.705474
30
0
10
300.843943
20
673.348535
30
0
0
SPLINE
5
55
100
AcDbEntity
8
Layer_1
6
ByLayer
62
2
370
-1
100
AcDbSpline
210
0
220
0
230
1
70
8
71
3
72
8
73
4
74
0
42
1e-07
43
1e-07
40
0
40
0
40
0
40
0
40
1
40
1
40
1
40
1
10
300.843943
20
673.348535
30
0
10
301.461946
20
672.991596
30
0
10
301.842486
20
672.331983
30
0
10
301.842136
20
671.618308
30
0
0
LWPOLYLINE
5
56
100
AcDbEntity
8
Layer_1
6
ByLayer
62
2
370
-1
100
AcDbPolyline
90
2
70
0
43
0
10
301.842136
20
636.418305
10
301.842136
20
636.418305
0
LWPOLYLINE
5
57
100
AcDbEntity
8
Layer_1
6
ByLayer
62
2
370
-1
100
AcDbPolyline
90
2
70
0
43
0
10
301.842136
20
671.618308
10
301.842136
20
671.618308
0
LWPOLYLINE
5
58
100
AcDbEntity
8
Layer_1
6
ByLayer
62
7
370
-1
100
AcDbPolyline
90
5
70
0
43
0
10
260.504784
20
631.899068
10
262.385558
20
631.899068
10
262.385558
20
628.137519
10
260.504784
20
628.137519
10
260.504784
20
631.899068
0
LWPOLYLINE
5
59
100
AcDbEntity
8
Layer_1
6
ByLayer
62
7
370
-1
100
AcDbPolyline
90
5
70
0
43
0
10
263.704784
20
631.899068
10
265.585558
20
631.899068
10
265.585558
20
628.137519
10
263.704784
20
628.137519
10
263.704784
20
631.899068
0
LWPOLYLINE
5
5A
100
AcDbEntity
8
Layer_1
6
ByLayer
62
7
370
-1
100
AcDbPolyline
90
5
70
0
43
0
10
266.904784
20
631.899068
10
268.785558
20
631.899068
10
268.785558
20
628.137519
10
266.904784
20
628.137519
10
266.904784
20
631.899068
0
LWPOLYLINE
5
5B
100
AcDbEntity
8
Layer_1
6
ByLayer
62
7
370
-1
100
AcDbPolyline
90
5
70
0
43
0
10
270.104784
20
631.899068
10
271.985558
20
631.899068
10
271.985558
20
628.137519
10
270.104784
20
628.137519
10
270.104784
20
631.899068
0
LWPOLYLINE
5
5C
100
AcDbEntity
8
Layer_1
6
ByLayer
62
7
370
-1
100
AcDbPolyline
90
5
70
0
43
0
10
292.504784
20
631.899068
10
294.385558
20
631.899068
10
294.385558
20
628.137519
10
292.504784
20
628.137519
10
292.504784
20
631.899068
0
LWPOLYLINE
5
5D
100
AcDbEntity
8
Layer_1
6
ByLayer
62
7
370
-1
100
AcDbPolyline
90
5
70
0
43
0
10
279.704784
20
692.699068
10
281.585558
20
692.699068
10
281.585558
20
688.937519
10
279.704784
20
688.937519
10
279.704784
20
692.699068
0
LWPOLYLINE
5
5E
100
AcDbEntity
8
Layer_1
6
ByLayer
62
7
370
-1
100
AcDbPolyline
90
5
70
0
43
0
10
282.904808
20
692.699068
10
284.785582
20
692.699068
10
284.785582
20
688.937519
10
282.904808
20
688.937519
10
282.904808
20
692.699068
0
LWPOLYLINE
5
5F
100
AcDbEntity
8
Layer_1
6
ByLayer
62
7
370
-1
100
AcDbPolyline
90
5
70
0
43
0
10
286.104808
20
692.699068
10
287.985582
20
692.699068
10
287.985582
20
688.937519
10
286.104808
20
688.937519
10
286.104808
20
692.699068
0
LWPOLYLINE
5
60
100
AcDbEntity
8
Layer_1
6
ByLayer
62
7
370
-1
100
AcDbPolyline
90
5
70
0
43
0
10
289.304808
20
692.699068
10
291.185582
20
692.699068
10
291.185582
20
688.937519
10
289.304808
20
688.937519
10
289.304808
20
692.699068
0
LWPOLYLINE
5
61
100
AcDbEntity
8
Layer_1
6
ByLayer
62
7
370
-1
100
AcDbPolyline
90
5
70
0
43
0
10
292.504808
20
692.699068
10
294.385582
20
692.699068
10
294.385582
20
688.937519
10
292.504808
20
688.937519
10
292.504808
20
692.699068
0
LWPOLYLINE
5
62
100
AcDbEntity
8
Layer_1
6
ByLayer
62
7
370
-1
100
AcDbPolyline
90
5
70
0
43
0
10
276.504808
20
692.699068
10
278.385582
20
692.699068
10
278.385582
20
688.937519
10
276.504808
20
688.937519
10
276.504808
20
692.699068
0
LWPOLYLINE
5
63
100
AcDbEntity
8
Layer_1
6
ByLayer
62
7
370
-1
100
AcDbPolyline
90
5
70
0
43
0
10
252.184816
20
692.699068
10
254.06559
20
692.699068
10
254.06559
20
688.937519
10
252.184816
20
688.937519
10
252.184816
20
692.699068
0
LWPOLYLINE
5
64
100
AcDbEntity
8
Layer_1
6
ByLayer
62
7
370
-1
100
AcDbPolyline
90
5
70
0
43
0
10
255.384816
20
692.699068
10
257.26559
20
692.699068
10
257.26559
20
688.937519
10
255.384816
20
688.937519
10
255.384816
20
692.699068
0
LWPOLYLINE
5
65
100
AcDbEntity
8
Layer_1
6
ByLayer
62
7
370
-1
100
AcDbPolyline
90
5
70
0
43
0
10
258.584816
20
692.699068
10
260.46559
20
692.699068
10
260.46559
20
688.937519
10
258.584816
20
688.937519
10
258.584816
20
692.699068
0
LWPOLYLINE
5
66
100
AcDbEntity
8
Layer_1
6
ByLayer
62
7
370
-1
100
AcDbPolyline
90
5
70
0
43
0
10
261.784816
20
692.699068
10
263.66559
20
692.699068
10
263.66559
20
688.937519
10
261.784816
20
688.937519
10
261.784816
20
692.699068
0
LWPOLYLINE
5
67
100
AcDbEntity
8
Layer_1
6
ByLayer
62
7
370
-1
100
AcDbPolyline
90
5
70
0
43
0
10
264.984816
20
692.699068
10
266.86559
20
692.699068
10
266.86559
20
688.937519
10
264.984816
20
688.937519
10
264.984816
20
692.699068
0
SPLINE
5
68
100
AcDbEntity
8
Layer_1
6
ByLayer
62
2
370
-1
100
AcDbSpline
210
0
220
0
230
1
70
8
71
3
72
8
73
4
74
0
42
1e-07
43
1e-07
40
0
40
0
40
0
40
0
40
1
40
1
40
1
40
1
10
237.842144
20
690.818308
30
0
10
237.842494
20
690.104632
30
0
10
237.461954
20
689.445019
30
0
10
236.843951
20
689.088081
30
0
0
SPLINE
5
69
100
AcDbEntity
8
Layer_1
6
ByLayer
62
2
370
-1
100
AcDbSpline
210
0
220
0
230
1
70
8
71
3
72
8
73
4
74
0
42
1e-07
43
1e-07
40
0
40
0
40
0
40
0
40
1
40
1
40
1
40
1
10
236.843951
20
689.088081
30
0
10
236.225948
20
688.731142
30
0
10
235.464436
20
688.731142
30
0
10
234.846433
20
689.088081
30
0
0
SPLINE
5
6A
100
AcDbEntity
8
Layer_1
6
ByLayer
62
2
370
-1
100
AcDbSpline
210
0
220
0
230
1
70
8
71
3
72
8
73
4
74
0
42
1e-07
43
1e-07
40
0
40
0
40
0
40
0
40
1
40
1
40
1
40
1
10
234.846433
20
689.088081
30
0
10
234.22843
20
689.445019
30
0
10
233.84789
20
690.104632
30
0
10
233.84824
20
690.818308
30
0
0
SPLINE
5
6B
100
AcDbEntity
8
Layer_1
6
ByLayer
62
2
370
-1
100
AcDbSpline
210
0
220
0
230
1
70
8
71
3
72
8
73
4
74
0
42
1e-07
43
1e-07
40
0
40
0
40
0
40
0
40
1
40
1
40
1
40
1
10
233.84824
20
690.818308
30
0
10
233.84789
20
691.531983
30
0
10
234.22843
20
692.191596
30
0
10
234.846433
20
692.548535
30
0
0
SPLINE
5
6C
100
AcDbEntity
8
Layer_1
6
ByLayer
62
2
370
-1
100
AcDbSpline
210
0
220
0
230
1
70
8
71
3
72
8
73
4
74
0
42
1e-07
43
1e-07
40
0
40
0
40
0
40
0
40
1
40
1
40
1
40
1
10
234.846433
20
692.548535
30
0
10
235.464436
20
692.905474
30
0
10
236.225948
20
692.905474
30
0
10
236.843951
20
692.548535
30
0
0
SPLINE
5
6D
100
AcDbEntity
8
Layer_1
6
ByLayer
62
2
370
-1
100
AcDbSpline
210
0
220
0
230
1
70
8
71
3
72
8
73
4
74
0
42
1e-07
43
1e-07
40
0
40
0
40
0
40
0
40
1
40
1
40
1
40
1
10
236.843951
20
692.548535
30
0
10
237.461954
20
692.191596
30
0
10
237.842494
20
691.531983
30
0
10
237.842144
20
690.818308
30
0
0
LWPOLYLINE
5
6E
100
AcDbEntity
8
Layer_1
6
ByLayer
62
7
370
-1
100
AcDbPolyline
90
5
70
0
43
0
10
248.984816
20
692.699068
10
250.86559
20
692.699068
10
250.86559
20
688.937519
10
248.984816
20
688.937519
10
248.984816
20
692.699068
0
LWPOLYLINE
5
6F
100
AcDbEntity
8
Layer_1
6
ByLayer
62
2
370
-1
100
AcDbPolyline
90
2
70
0
43
0
10
237.842144
20
690.818308
10
237.842144
20
690.818308
0
LWPOLYLINE
5
70
100
AcDbEntity
8
Layer_1
6
ByLayer
62
7
370
-1
100
AcDbPolyline
90
9
70
0
43
0
10
297.721288
20
664.838844
10
297.184647
20
664.302202
10
296.425721
20
664.302203
10
295.889075
20
664.838846
10
295.889075
20
665.597771
10
296.425718
20
666.134417
10
297.184648
20
666.134415
10
297.72129
20
665.597774
10
297.721288
20
664.838844
0
LWPOLYLINE
5
71
100
AcDbEntity
8
Layer_1
6
ByLayer
62
7
370
-1
100
AcDbPolyline
90
9
70
0
43
0
10
300.921288
20
664.838844
10
300.384647
20
664.302202
10
299.625721
20
664.302203
10
299.089075
20
664.838846
10
299.089075
20
665.597771
10
299.625718
20
666.134417
10
300.384648
20
666.134415
10
300.92129
20
665.597774
10
300.921288
20
664.838844
0
LWPOLYLINE
5
72
100
AcDbEntity
8
Layer_1
6
ByLayer
62
7
370
-1
100
AcDbPolyline
90
9
70
0
43
0
10
297.721288
20
661.638844
10
297.184647
20
661.102202
10
296.425721
20
661.102203
10
295.889075
20
661.638846
10
295.889075
20
662.397771
10
296.425718
20
662.934417
10
297.184648
20
662.934415
10
297.72129
20
662.397774
10
297.721288
20
661.638844
0
LWPOLYLINE
5
73
100
AcDbEntity
8
Layer_1
6
ByLayer
62
7
370
-1
100
AcDbPolyline
90
9
70
0
43
0
10
300.921288
20
661.638844
10
300.384647
20
661.102202
10
299.625721
20
661.102203
10
299.089075
20
661.638846
10
299.089075
20
662.397771
10
299.625718
20
662.934417
10
300.384648
20
662.934415
10
300.92129
20
662.397774
10
300.921288
20
661.638844
0
LWPOLYLINE
5
74
100
AcDbEntity
8
Layer_1
6
ByLayer
62
7
370
-1
100
AcDbPolyline
90
9
70
0
43
0
10
297.721288
20
658.438844
10
297.184647
20
657.902202
10
296.425721
20
657.902203
10
295.889075
20
658.438846
10
295.889075
20
659.197771
10
296.425718
20
659.734417
10
297.184648
20
659.734415
10
297.72129
20
659.197774
10
297.721288
20
658.438844
0
LWPOLYLINE
5
75
100
AcDbEntity
8
Layer_1
6
ByLayer
62
7
370
-1
100
AcDbPolyline
90
9
70
0
43
0
10
300.921288
20
658.438844
10
300.384647
20
657.902202
10
299.625721
20
657.902203
10
299.089075
20
658.438846
10
299.089075
20
659.197771
10
299.625718
20
659.734417
10
300.384648
20
659.734415
10
300.92129
20
659.197774
10
300.921288
20
658.438844
0
SPLINE
5
76
100
AcDbEntity
8
Layer_1
6
ByLayer
62
2
370
-1
100
AcDbSpline
210
0
220
0
230
1
70
8
71
3
72
8
73
4
74
0
42
1e-07
43
1e-07
40
0
40
0
40
0
40
0
40
1
40
1
40
1
40
1
10
236.242144
20
630.018309
30
0
10
236.242494
20
629.304633
30
0
10
235.861954
20
628.64502
30
0
10
235.243951
20
628.288081
30
0
0
SPLINE
5
77
100
AcDbEntity
8
Layer_1
6
ByLayer
62
2
370
-1
100
AcDbSpline
210
0
220
0
230
1
70
8
71
3
72
8
73
4
74
0
42
1e-07
43
1e-07
40
0
40
0
40
0
40
0
40
1
40
1
40
1
40
1
10
235.243951
20
628.288081
30
0
10
234.625948
20
627.931143
30
0
10
233.864436
20
627.931143
30
0
10
233.246433
20
628.288081
30
0
0
SPLINE
5
78
100
AcDbEntity
8
Layer_1
6
ByLayer
62
2
370
-1
100
AcDbSpline
210
0
220
0
230
1
70
8
71
3
72
8
73
4
74
0
42
1e-07
43
1e-07
40
0
40
0
40
0
40
0
40
1
40
1
40
1
40
1
10
233.246433
20
628.288081
30
0
10
232.62843
20
628.64502
30
0
10
232.24789
20
629.304633
30
0
10
232.24824
20
630.018309
30
0
0
SPLINE
5
79
100
AcDbEntity
8
Layer_1
6
ByLayer
62
2
370
-1
100
AcDbSpline
210
0
220
0
230
1
70
8
71
3
72
8
73
4
74
0
42
1e-07
43
1e-07
40
0
40
0
40
0
40
0
40
1
40
1
40
1
40
1
10
232.24824
20
630.018309
30
0
10
232.24789
20
630.731984
30
0
10
232.62843
20
631.391597
30
0
10
233.246433
20
631.748536
30
0
0
SPLINE
5
7A
100
AcDbEntity
8
Layer_1
6
ByLayer
62
2
370
-1
100
AcDbSpline
210
0
220
0
230
1
70
8
71
3
72
8
73
4
74
0
42
1e-07
43
1e-07
40
0
40
0
40
0
40
0
40
1
40
1
40
1
40
1
10
233.246433
20
631.748536
30
0
10
233.864436
20
632.105475
30
0
10
234.625948
20
632.105475
30
0
10
235.243951
20
631.748536
30
0
0
SPLINE
5
7B
100
AcDbEntity
8
Layer_1
6
ByLayer
62
2
370
-1
100
AcDbSpline
210
0
220
0
230
1
70
8
71
3
72
8
73
4
74
0
42
1e-07
43
1e-07
40
0
40
0
40
0
40
0
40
1
40
1
40
1
40
1
10
235.243951
20
631.748536
30
0
10
235.861954
20
631.391597
30
0
10
236.242494
20
630.731984
30
0
10
236.242144
20
630.018309
30
0
0
LWPOLYLINE
5
7C
100
AcDbEntity
8
Layer_1
6
ByLayer
62
2
370
-1
100
AcDbPolyline
90
5
70
0
43
0
10
295.21992
20
667.01894
10
301.599052
20
667.01894
10
301.599052
20
657.181509
10
295.21992
20
657.181509
10
295.21992
20
667.01894
0
LWPOLYLINE
5
7D
100
AcDbEntity
8
Layer_1
6
ByLayer
62
2
370
-1
100
AcDbPolyline
90
2
70
0
43
0
10
236.242144
20
630.018309
10
236.242144
20
630.018309
0
LWPOLYLINE
5
7E
100
AcDbEntity
8
Layer_1
6
ByLayer
62
7
370
-1
100
AcDbPolyline
90
5
70
0
43
0
10
245.784816
20
692.699068
10
247.66559
20
692.699068
10
247.66559
20
688.937519
10
245.784816
20
688.937519
10
245.784816
20
692.699068
0
LWPOLYLINE
5
7F
100
AcDbEntity
8
Layer_1
6
ByLayer
62
7
370
-1
100
AcDbPolyline
90
5
70
0
43
0
10
273.304808
20
692.699068
10
275.185582
20
692.699068
10
275.185582
20
688.937519
10
273.304808
20
688.937519
10
273.304808
20
692.699068
0
LWPOLYLINE
5
80
100
AcDbEntity
8
Layer_1
6
ByLayer
62
7
370
-1
100
AcDbPolyline
90
5
70
0
43
0
10
268.184816
20
692.699068
10
270.06559
20
692.699068
10
270.06559
20
688.937519
10
268.184816
20
688.937519
10
268.184816
20
692.699068
0
LWPOLYLINE
5
81
100
AcDbEntity
8
Layer_1
6
ByLayer
62
7
370
-1
100
AcDbPolyline
90
5
70
0
43
0
10
295.704808
20
692.699068
10
297.585582
20
692.699068
10
297.585582
20
688.937519
10
295.704808
20
688.937519
10
295.704808
20
692.699068
0
LWPOLYLINE
5
82
100
AcDbEntity
8
Layer_1
6
ByLayer
62
7
370
-1
100
AcDbPolyline
90
5
70
0
43
0
10
257.304784
20
631.899068
10
259.185558
20
631.899068
10
259.185558
20
628.137519
10
257.304784
20
628.137519
10
257.304784
20
631.899068
0
LWPOLYLINE
5
83
100
AcDbEntity
8
Layer_1
6
ByLayer
62
7
370
-1
100
AcDbPolyline
90
5
70
0
43
0
10
273.304784
20
631.899068
10
275.185558
20
631.899068
10
275.185558
20
628.137519
10
273.304784
20
628.137519
10
273.304784
20
631.899068
0
LWPOLYLINE
5
84
100
AcDbEntity
8
Layer_1
6
ByLayer
62
7
370
-1
100
AcDbPolyline
90
5
70
0
43
0
10
279.704784
20
631.899068
10
281.585558
20
631.899068
10
281.585558
20
628.137519
10
279.704784
20
628.137519
10
279.704784
20
631.899068
0
LWPOLYLINE
5
85
100
AcDbEntity
8
Layer_1
6
ByLayer
62
7
370
-1
100
AcDbPolyline
90
5
70
0
43
0
10
295.704784
20
631.899068
10
297.585558
20
631.899068
10
297.585558
20
628.137519
10
295.704784
20
628.137519
10
295.704784
20
631.899068
0
LWPOLYLINE
5
86
100
AcDbEntity
8
Layer_1
6
ByLayer
62
7
370
-1
100
AcDbPolyline
90
5
70
0
43
0
10
242.584816
20
692.699068
10
244.46559
20
692.699068
10
244.46559
20
688.937519
10
242.584816
20
688.937519
10
242.584816
20
692.699068
0
LWPOLYLINE
5
87
100
AcDbEntity
8
Layer_1
6
ByLayer
62
7
370
-1
100
AcDbPolyline
90
5
70
0
43
0
10
239.384816
20
692.699068
10
241.26559
20
692.699068
10
241.26559
20
688.937519
10
239.384816
20
688.937519
10
239.384816
20
692.699068
0
LWPOLYLINE
5
88
100
AcDbEntity
8
Layer_1
6
ByLayer
62
7
370
-1
100
AcDbPolyline
90
5
70
0
43
0
10
254.104784
20
631.899068
10
255.985558
20
631.899068
10
255.985558
20
628.137519
10
254.104784
20
628.137519
10
254.104784
20
631.899068
0
SPLINE
5
89
100
AcDbEntity
8
Layer_1
6
ByLayer
62
2
370
-1
100
AcDbSpline
210
0
220
0
230
1
70
8
71
3
72
8
73
4
74
0
42
1e-07
43
1e-07
40
0
40
0
40
0
40
0
40
1
40
1
40
1
40
1
10
314.354449
20
660.437751
30
0
10
314.354449
20
628.752264
30
0
10
288.668289
20
603.066104
30
0
10
256.982811
20
603.066104
30
0
0
SPLINE
5
8A
100
AcDbEntity
8
Layer_1
6
ByLayer
62
2
370
-1
100
AcDbSpline
210
0
220
0
230
1
70
8
71
3
72
8
73
4
74
0
42
1e-07
43
1e-07
40
0
40
0
40
0
40
0
40
1
40
1
40
1
40
1
10
256.982811
20
603.066104
30
0
10
225.297324
20
603.066104
30
0
10
199.611164
20
628.752264
30
0
10
199.611164
20
660.437751
30
0
0
SPLINE
5
8B
100
AcDbEntity
8
Layer_1
6
ByLayer
62
2
370
-1
100
AcDbSpline
210
0
220
0
230
1
70
8
71
3
72
8
73
4
74
0
42
1e-07
43
1e-07
40
0
40
0
40
0
40
0
40
1
40
1
40
1
40
1
10
199.611164
20
660.437751
30
0
10
199.611164
20
692.123238
30
0
10
225.297324
20
717.809398
30
0
10
256.982811
20
717.809398
30
0
0
SPLINE
5
8C
100
AcDbEntity
8
Layer_1
6
ByLayer
62
2
370
-1
100
AcDbSpline
210
0
220
0
230
1
70
8
71
3
72
8
73
4
74
0
42
1e-07
43
1e-07
40
0
40
0
40
0
40
0
40
1
40
1
40
1
40
1
10
256.982811
20
717.809398
30
0
10
288.668289
20
717.809398
30
0
10
314.354449
20
692.123238
30
0
10
314.354449
20
660.437751
30
0
0
LWPOLYLINE
5
8D
100
AcDbEntity
8
Layer_1
6
ByLayer
62
7
370
-1
100
AcDbPolyline
90
5
70
0
43
0
10
250.904784
20
631.899068
10
252.785558
20
631.899068
10
252.785558
20
628.137519
10
250.904784
20
628.137519
10
250.904784
20
631.899068
0
LWPOLYLINE
5
8E
100
AcDbEntity
8
Layer_1
6
ByLayer
62
2
370
-1
100
AcDbPolyline
90
2
70
0
43
0
10
314.354449
20
660.437751
10
314.354449
20
660.437751
0
LWPOLYLINE
5
8F
100
AcDbEntity
8
Layer_1
6
ByLayer
62
2
370
-1
100
AcDbPolyline
90
2
70
0
43
0
10
216.141965
20
701.035486
10
297.702087
20
619.475373
0
LWPOLYLINE
5
90
100
AcDbEntity
8
Layer_1
6
ByLayer
62
1
370
-1
100
AcDbPolyline
90
5
70
0
43
0
10
187.282288
20
731.552492
10
328.299584
20
731.552492
10
328.299584
20
590.535196
10
187.282288
20
590.535196
10
187.282288
20
731.552492
0
ENDSEC
0
SECTION
2
OBJECTS
0
DICTIONARY
5
C
330
0
100
AcDbDictionary
281
1
3
ACAD_GROUP
350
D
0
DICTIONARY
5
D
330
C
100
AcDbDictionary
281
1
0
ENDSEC
0
EOF
