999
dxfrw 0.5.10
0
SECTION
2
HEADER
9
$ACADVER
1
AC1021
9
$HANDSEED
5
20000
9
$DWGCODEPAGE
3
ANSI_1252
9
$INSBASE
10
0
20
0
30
0
9
$EXTMIN
10
22.528069
20
1511.857416
30
0
9
$EXTMAX
10
929.156789
20
1681.47824
30
0
9
$LIMMIN
10
0
20
0
9
$LIMMAX
10
420
20
297
9
$ORTHOMODE
70
0
9
$LTSCALE
40
1
9
$TEXTSTYLE
7
STANDARD
9
$DIMASZ
40
0.0025
9
$DIMSCALE
40
1
9
$DIMEXO
40
0.000625
9
$DIMEXE
40
0.00125
9
$DIMTXT
40
0.0025
9
$DIMTSZ
40
0
9
$DIMAUNIT
70
0
9
$DIMADEC
70
0
9
$DIMLUNIT
70
2
9
$DIMSTYLE
2
Standard
9
$DIMGAP
40
0.000625
9
$DIMTIH
70
0
9
$LUNITS
70
2
9
$LUPREC
70
4
9
$AUNITS
70
0
9
$AUPREC
70
2
9
$SPLINESEGS
70
8
9
$GRIDMODE
70
0
9
$SNAPSTYLE
70
0
9
$PINSBASE
10
0
20
0
30
0
9
$PLIMMIN
10
0
20
0
9
$PLIMMAX
10
0.21
20
0.297
9
$INSUNITS
70
6
9
$PSVPSCALE
40
1
0
ENDSEC
0
SECTION
2
CLASSES
0
ENDSEC
0
SECTION
2
TABLES
0
TABLE
2
VPORT
5
8
330
0
100
AcDbSymbolTable
70
1
0
VPORT
5
31
330
2
100
AcDbSymbolTableRecord
100
AcDbViewportTableRecord
2
*ACTIVE
70
0
10
0
20
0
11
1
21
1
12
519.078696646
22
972.441882622
13
0
23
0
14
10
24
10
15
10
25
10
16
0
26
0
36
1
17
0
27
0
37
0
40
666.015625
41
1.73614190687
42
50
43
0
44
0
50
0
51
0
71
0
72
100
73
1
74
3
75
0
76
0
77
0
78
0
281
0
65
1
110
0
120
0
130
0
111
1
121
0
131
0
112
0
122
1
132
0
79
0
146
0
348
10020
60
7
61
5
292
1
282
1
141
0
142
0
63
250
421
3358443
0
ENDTAB
0
TABLE
2
LTYPE
5
5
330
0
100
AcDbSymbolTable
70
4
0
LTYPE
5
14
330
5
100
AcDbSymbolTableRecord
100
AcDbLinetypeTableRecord
2
ByBlock
70
0
3

72
65
73
0
40
0
0
LTYPE
5
15
330
5
100
AcDbSymbolTableRecord
100
AcDbLinetypeTableRecord
2
ByLayer
70
0
3

72
65
73
0
40
0
0
LTYPE
5
16
330
5
100
AcDbSymbolTableRecord
100
AcDbLinetypeTableRecord
2
Continuous
70
0
3
Solid line
72
65
73
0
40
0
0
LTYPE
5
32
330
5
100
AcDbSymbolTableRecord
100
AcDbLinetypeTableRecord
2
DOT
70
0
3
Dot . . . . . . . . . . . . . . . . . . . . . .
72
65
73
2
40
6.35
49
0
74
0
49
-6.35
74
0
0
LTYPE
5
33
330
5
100
AcDbSymbolTableRecord
100
AcDbLinetypeTableRecord
2
DOT2
70
0
3
Dot (.5x) .....................................
72
65
73
2
40
3.175
49
0
74
0
49
-3.175
74
0
0
LTYPE
5
34
330
5
100
AcDbSymbolTableRecord
100
AcDbLinetypeTableRecord
2
DOTX2
70
0
3
Dot (2x) .  .  .  .  .  .  .  .  .  .  .  .  .
72
65
73
2
40
12.7
49
0
74
0
49
-12.7
74
0
0
LTYPE
5
35
330
5
100
AcDbSymbolTableRecord
100
AcDbLinetypeTableRecord
2
DASHED
70
0
3
Dot . . . . . . . . . . . . . . . . . . . . . .
72
65
73
2
40
19.05
49
12.7
74
0
49
-6.35
74
0
0
LTYPE
5
36
330
5
100
AcDbSymbolTableRecord
100
AcDbLinetypeTableRecord
2
DASHED2
70
0
3
Dashed (.5x) _ _ _ _ _ _ _ _ _ _ _ _ _ _ _ _ _
72
65
73
2
40
9.525
49
6.35
74
0
49
-3.175
74
0
0
LTYPE
5
37
330
5
100
AcDbSymbolTableRecord
100
AcDbLinetypeTableRecord
2
DASHEDX2
70
0
3
Dashed (2x) ____  ____  ____  ____  ____  ___
72
65
73
2
40
38.1
49
25.4
74
0
49
-12.7
74
0
0
LTYPE
5
38
330
5
100
AcDbSymbolTableRecord
100
AcDbLinetypeTableRecord
2
DASHDOT
70
0
3
Dash dot __ . __ . __ . __ . __ . __ . __ . __
72
65
73
4
40
25.4
49
12.7
74
0
49
-6.35
74
0
49
0
74
0
49
-6.35
74
0
0
LTYPE
5
39
330
5
100
AcDbSymbolTableRecord
100
AcDbLinetypeTableRecord
2
DASHDOT2
70
0
3
Dash dot (.5x) _._._._._._._._._._._._._._._.
72
65
73
4
40
12.7
49
6.35
74
0
49
-3.175
74
0
49
0
74
0
49
-3.175
74
0
0
LTYPE
5
3A
330
5
100
AcDbSymbolTableRecord
100
AcDbLinetypeTableRecord
2
DASHDOTX2
70
0
3
Dash dot (2x) ____  .  ____  .  ____  .  ___
72
65
73
4
40
50.8
49
25.4
74
0
49
-12.7
74
0
49
0
74
0
49
-12.7
74
0
0
LTYPE
5
3B
330
5
100
AcDbSymbolTableRecord
100
AcDbLinetypeTableRecord
2
DIVIDE
70
0
3
Divide ____ . . ____ . . ____ . . ____ . . ____
72
65
73
6
40
31.75
49
12.7
74
0
49
-6.35
74
0
49
0
74
0
49
-6.35
74
0
49
0
74
0
49
-6.35
74
0
0
LTYPE
5
3C
330
5
100
AcDbSymbolTableRecord
100
AcDbLinetypeTableRecord
2
DIVIDE2
70
0
3
Divide (.5x) __..__..__..__..__..__..__..__.._
72
65
73
6
40
15.875
49
6.35
74
0
49
-3.175
74
0
49
0
74
0
49
-3.175
74
0
49
0
74
0
49
-3.175
74
0
0
LTYPE
5
3D
330
5
100
AcDbSymbolTableRecord
100
AcDbLinetypeTableRecord
2
DIVIDEX2
70
0
3
Divide (2x) ________  .  .  ________  .  .  _
72
65
73
6
40
63.5
49
25.4
74
0
49
-12.7
74
0
49
0
74
0
49
-12.7
74
0
49
0
74
0
49
-12.7
74
0
0
LTYPE
5
3E
330
5
100
AcDbSymbolTableRecord
100
AcDbLinetypeTableRecord
2
BORDER
70
0
3
Border __ __ . __ __ . __ __ . __ __ . __ __ .
72
65
73
6
40
44.45
49
12.7
74
0
49
-6.35
74
0
49
12.7
74
0
49
-6.35
74
0
49
0
74
0
49
-6.35
74
0
0
LTYPE
5
3F
330
5
100
AcDbSymbolTableRecord
100
AcDbLinetypeTableRecord
2
BORDER2
70
0
3
Border (.5x) __.__.__.__.__.__.__.__.__.__.__.
72
65
73
6
40
22.225
49
6.35
74
0
49
-3.175
74
0
49
6.35
74
0
49
-3.175
74
0
49
0
74
0
49
-3.175
74
0
0
LTYPE
5
40
330
5
100
AcDbSymbolTableRecord
100
AcDbLinetypeTableRecord
2
BORDERX2
70
0
3
Border (2x) ____  ____  .  ____  ____  .  ___
72
65
73
6
40
88.9
49
25.4
74
0
49
-12.7
74
0
49
25.4
74
0
49
-12.7
74
0
49
0
74
0
49
-12.7
74
0
0
LTYPE
5
41
330
5
100
AcDbSymbolTableRecord
100
AcDbLinetypeTableRecord
2
CENTER
70
0
3
Center ____ _ ____ _ ____ _ ____ _ ____ _ ____
72
65
73
4
40
50.8
49
31.75
74
0
49
-6.35
74
0
49
6.35
74
0
49
-6.35
74
0
0
LTYPE
5
42
330
5
100
AcDbSymbolTableRecord
100
AcDbLinetypeTableRecord
2
CENTER2
70
0
3
Center (.5x) ___ _ ___ _ ___ _ ___ _ ___ _ ___
72
65
73
4
40
28.575
49
19.05
74
0
49
-3.175
74
0
49
3.175
74
0
49
-3.175
74
0
0
LTYPE
5
43
330
5
100
AcDbSymbolTableRecord
100
AcDbLinetypeTableRecord
2
CENTERX2
70
0
3
Center (2x) ________  __  ________  __  _____
72
65
73
4
40
101.6
49
63.5
74
0
49
-12.7
74
0
49
12.7
74
0
49
-12.7
74
0
0
ENDTAB
0
TABLE
2
LAYER
5
2
330
0
100
AcDbSymbolTable
70
1
0
LAYER
5
10
330
2
100
AcDbSymbolTableRecord
100
AcDbLayerTableRecord
2
0
70
0
62
7
6
CONTINUOUS
370
-3
390
F
0
LAYER
5
44
330
2
100
AcDbSymbolTableRecord
100
AcDbLayerTableRecord
2
Layer_1
70
0
62
7
6
CONTINUOUS
370
-3
390
F
0
ENDTAB
0
TABLE
2
STYLE
5
3
330
0
100
AcDbSymbolTable
70
3
0
STYLE
5
45
330
2
100
AcDbSymbolTableRecord
100
AcDbTextStyleTableRecord
2
Standard
70
0
40
0
41
1
50
0
71
0
42
1
3
txt
4

0
ENDTAB
0
TABLE
2
VIEW
5
6
330
0
100
AcDbSymbolTable
70
0
0
ENDTAB
0
TABLE
2
UCS
5
7
330
0
100
AcDbSymbolTable
70
0
0
ENDTAB
0
TABLE
2
APPID
5
9
330
0
100
AcDbSymbolTable
70
1
0
APPID
5
12
330
9
100
AcDbSymbolTableRecord
100
AcDbRegAppTableRecord
2
ACAD
70
0
0
ENDTAB
0
TABLE
2
DIMSTYLE
5
A
330
0
100
AcDbSymbolTable
70
1
100
AcDbDimStyleTable
71
1
0
DIMSTYLE
105
46
330
A
100
AcDbSymbolTableRecord
100
AcDbDimStyleTableRecord
2
Standard
70
0
40
1
41
0.0025
42
0.000625
43
0.38
44
0.00125
45
0
46
0
47
0
48
0
140
0.0025
141
0.09
142
0
143
25.4
144
1
145
0
146
1
147
0.000625
148
0
71
0
72
0
73
0
74
1
75
0
76
0
77
0
78
0
79
0
170
0
171
2
172
0
173
0
174
0
175
0
176
0
177
0
178
0
179
0
271
4
272
4
273
2
274
2
275
0
276
0
277
2
278
46
279
0
280
0
281
0
282
0
283
1
284
0
285
0
286
0
288
0
289
3
340
Standard
341

371
-2
372
-2
0
ENDTAB
0
TABLE
2
BLOCK_RECORD
5
1
330
0
100
AcDbSymbolTable
70
2
0
BLOCK_RECORD
5
1F
330
1
100
AcDbSymbolTableRecord
100
AcDbBlockTableRecord
2
*Model_Space
70
0
280
1
281
0
0
BLOCK_RECORD
5
1E
330
1
100
AcDbSymbolTableRecord
100
AcDbBlockTableRecord
2
*Paper_Space
70
0
280
1
281
0
0
ENDTAB
0
ENDSEC
0
SECTION
2
BLOCKS
0
BLOCK
5
20
330
1F
100
AcDbEntity
8
0
100
AcDbBlockBegin
2
*Model_Space
70
0
10
0
20
0
30
0
3
*Model_Space
1

0
ENDBLK
5
21
330
1F
100
AcDbEntity
8
0
100
AcDbBlockEnd
0
BLOCK
5
1C
330
1B
100
AcDbEntity
8
0
100
AcDbBlockBegin
2
*Paper_Space
70
0
10
0
20
0
30
0
3
*Paper_Space
1

0
ENDBLK
5
1D
330
1F
100
AcDbEntity
8
0
100
AcDbBlockEnd
0
ENDSEC
0
SECTION
2
ENTITIES
0
LWPOLYLINE
5
47
100
AcDbEntity
8
Layer_1
6
ByLayer
62
1
370
-1
100
AcDbPolyline
90
5
70
0
43
0
10
22.528069
20
1681.47824
10
929.156789
20
1681.47824
10
929.156789
20
1511.857416
10
22.528069
20
1511.857416
10
22.528069
20
1681.47824
0
LWPOLYLINE
5
48
100
AcDbEntity
8
Layer_1
6
ByLayer
62
7
370
-1
100
AcDbPolyline
90
14
70
0
43
0
10
139.02683
20
1622.17204
10
126.30683
20
1622.17204
10
115.02683
20
1575.25204
10
102.42683
20
1620.37204
10
91.26683
20
1620.37204
10
78.78683
20
1575.25204
10
67.50683
20
1622.17204
10
54.78683
20
1622.17204
10
72.42683
20
1563.37204
10
84.54683
20
1563.37204
10
96.90683
20
1606.81204
10
109.14683
20
1563.37204
10
121.26683
20
1563.37204
10
139.02683
20
1622.17204
0
LWPOLYLINE
5
49
100
AcDbEntity
8
Layer_1
6
ByLayer
62
7
370
-1
100
AcDbPolyline
90
14
70
0
43
0
10
225.979958
20
1622.17204
10
213.259958
20
1622.17204
10
201.979958
20
1575.25204
10
189.379958
20
1620.37204
10
178.219958
20
1620.37204
10
165.739958
20
1575.25204
10
154.459958
20
1622.17204
10
141.739958
20
1622.17204
10
159.379958
20
1563.37204
10
171.499958
20
1563.37204
10
183.859958
20
1606.81204
10
196.099958
20
1563.37204
10
208.219958
20
1563.37204
10
225.979958
20
1622.17204
0
LWPOLYLINE
5
4A
100
AcDbEntity
8
Layer_1
6
ByLayer
62
7
370
-1
100
AcDbPolyline
90
14
70
0
43
0
10
312.933078
20
1622.17204
10
300.213078
20
1622.17204
10
288.933078
20
1575.25204
10
276.333078
20
1620.37204
10
265.173078
20
1620.37204
10
252.693078
20
1575.25204
10
241.413078
20
1622.17204
10
228.693078
20
1622.17204
10
246.333078
20
1563.37204
10
258.453078
20
1563.37204
10
270.813078
20
1606.81204
10
283.053078
20
1563.37204
10
295.173078
20
1563.37204
10
312.933078
20
1622.17204
0
LWPOLYLINE
5
4B
100
AcDbEntity
8
Layer_1
6
ByLayer
62
7
370
-1
100
AcDbPolyline
90
5
70
0
43
0
10
329.446374
20
1563.37204
10
329.446374
20
1573.69204
10
318.646374
20
1573.69204
10
318.646374
20
1563.37204
10
329.446374
20
1563.37204
0
SPLINE
5
4C
100
AcDbEntity
8
Layer_1
6
ByLayer
62
7
370
-1
100
AcDbSpline
210
0
220
0
230
1
70
8
71
3
72
8
73
4
74
0
42
1e-07
43
1e-07
40
0
40
0
40
0
40
0
40
1
40
1
40
1
40
1
10
369.541582
20
1570.81204
30
0
10
357.90159
20
1570.81204
30
0
10
357.181582
20
1571.532048
30
0
10
357.181582
20
1582.81204
30
0
0
LWPOLYLINE
5
4D
100
AcDbEntity
8
Layer_1
6
ByLayer
62
7
370
-1
100
AcDbPolyline
90
2
70
0
43
0
10
372.301582
20
1570.81204
10
369.541582
20
1570.81204
0
SPLINE
5
4E
100
AcDbEntity
8
Layer_1
6
ByLayer
62
7
370
-1
100
AcDbSpline
210
0
220
0
230
1
70
8
71
3
72
8
73
4
74
0
42
1e-07
43
1e-07
40
0
40
0
40
0
40
0
40
1
40
1
40
1
40
1
10
346.381582
20
1576.21204
30
0
10
346.381582
20
1569.132048
30
0
10
350.58159
20
1562.17204
30
0
10
361.741582
20
1562.17204
30
0
0
LWPOLYLINE
5
4F
100
AcDbEntity
8
Layer_1
6
ByLayer
62
7
370
-1
100
AcDbPolyline
90
12
70
0
43
0
10
357.181582
20
1582.81204
10
357.181582
20
1613.77204
10
372.661582
20
1613.77204
10
372.661582
20
1622.17204
10
357.181582
20
1622.17204
10
357.181582
20
1637.772038
10
346.381582
20
1636.69204
10
346.381582
20
1622.17204
10
337.261582
20
1622.17204
10
336.301582
20
1613.77204
10
346.381582
20
1613.77204
10
346.381582
20
1576.21204
0
LWPOLYLINE
5
50
100
AcDbEntity
8
Layer_1
6
ByLayer
62
7
370
-1
100
AcDbPolyline
90
3
70
0
43
0
10
361.741582
20
1562.17204
10
371.461582
20
1562.17204
10
372.301582
20
1570.81204
0
SPLINE
5
51
100
AcDbEntity
8
Layer_1
6
ByLayer
62
7
370
-1
100
AcDbSpline
210
0
220
0
230
1
70
8
71
3
72
8
73
4
74
0
42
1e-07
43
1e-07
40
0
40
0
40
0
40
0
40
1
40
1
40
1
40
1
10
433.008454
20
1594.81204
30
0
10
433.008454
20
1611.732024
30
0
10
426.768438
20
1623.37204
30
0
10
409.848454
20
1623.37204
30
0
0
SPLINE
5
52
100
AcDbEntity
8
Layer_1
6
ByLayer
62
7
370
-1
100
AcDbSpline
210
0
220
0
230
1
70
8
71
3
72
8
73
4
74
0
42
1e-07
43
1e-07
40
0
40
0
40
0
40
0
40
1
40
1
40
1
40
1
10
409.848454
20
1623.37204
30
0
10
402.168462
20
1623.37204
30
0
10
396.888454
20
1620.972032
30
0
10
392.808454
20
1615.81204
30
0
0
LWPOLYLINE
5
53
100
AcDbEntity
8
Layer_1
6
ByLayer
62
7
370
-1
100
AcDbPolyline
90
2
70
0
43
0
10
433.008454
20
1563.37204
10
433.008454
20
1594.81204
0
SPLINE
5
54
100
AcDbEntity
8
Layer_1
6
ByLayer
62
7
370
-1
100
AcDbSpline
210
0
220
0
230
1
70
8
71
3
72
8
73
4
74
0
42
1e-07
43
1e-07
40
0
40
0
40
0
40
0
40
1
40
1
40
1
40
1
10
392.808454
20
1606.09204
30
0
10
396.168454
20
1611.372032
30
0
10
400.968462
20
1613.77204
30
0
10
408.168454
20
1613.77204
30
0
0
SPLINE
5
55
100
AcDbEntity
8
Layer_1
6
ByLayer
62
7
370
-1
100
AcDbSpline
210
0
220
0
230
1
70
8
71
3
72
8
73
4
74
0
42
1e-07
43
1e-07
40
0
40
0
40
0
40
0
40
1
40
1
40
1
40
1
10
408.168454
20
1613.77204
30
0
10
418.608446
20
1613.77204
30
0
10
422.208454
20
1608.732024
30
0
10
422.208454
20
1594.81204
30
0
0
LWPOLYLINE
5
56
100
AcDbEntity
8
Layer_1
6
ByLayer
62
7
370
-1
100
AcDbPolyline
90
6
70
0
43
0
10
392.808454
20
1615.81204
10
392.808454
20
1653.372038
10
381.888454
20
1653.372038
10
381.888454
20
1563.37204
10
392.808454
20
1563.37204
10
392.808454
20
1606.09204
0
SPLINE
5
57
100
AcDbEntity
8
Layer_1
6
ByLayer
62
7
370
-1
100
AcDbSpline
210
0
220
0
230
1
70
8
71
3
72
8
73
4
74
0
42
1e-07
43
1e-07
40
0
40
0
40
0
40
0
40
1
40
1
40
1
40
1
10
497.204702
20
1592.77204
30
0
10
497.564702
20
1594.812032
30
0
10
497.684702
20
1596.85204
30
0
10
497.684702
20
1598.53204
30
0
0
SPLINE
5
58
100
AcDbEntity
8
Layer_1
6
ByLayer
62
7
370
-1
100
AcDbSpline
210
0
220
0
230
1
70
8
71
3
72
8
73
4
74
0
42
1e-07
43
1e-07
40
0
40
0
40
0
40
0
40
1
40
1
40
1
40
1
10
497.684702
20
1598.53204
30
0
10
497.684702
20
1614.372024
30
0
10
487.004694
20
1623.37204
30
0
10
472.364702
20
1623.37204
30
0
0
SPLINE
5
59
100
AcDbEntity
8
Layer_1
6
ByLayer
62
7
370
-1
100
AcDbSpline
210
0
220
0
230
1
70
8
71
3
72
8
73
4
74
0
42
1e-07
43
1e-07
40
0
40
0
40
0
40
0
40
1
40
1
40
1
40
1
10
472.364702
20
1623.37204
30
0
10
454.124726
20
1623.37204
30
0
10
443.564702
20
1609.692024
30
0
10
443.564702
20
1593.25204
30
0
0
SPLINE
5
5A
100
AcDbEntity
8
Layer_1
6
ByLayer
62
7
370
-1
100
AcDbSpline
210
0
220
0
230
1
70
8
71
3
72
8
73
4
74
0
42
1e-07
43
1e-07
40
0
40
0
40
0
40
0
40
1
40
1
40
1
40
1
10
443.564702
20
1593.25204
30
0
10
443.564702
20
1576.332056
30
0
10
454.604726
20
1562.17204
30
0
10
475.364702
20
1562.17204
30
0
0
SPLINE
5
5B
100
AcDbEntity
8
Layer_1
6
ByLayer
62
7
370
-1
100
AcDbSpline
210
0
220
0
230
1
70
8
71
3
72
8
73
4
74
0
42
1e-07
43
1e-07
40
0
40
0
40
0
40
0
40
1
40
1
40
1
40
1
10
475.364702
20
1562.17204
30
0
10
483.884694
20
1562.17204
30
0
10
490.48471
20
1564.69204
30
0
10
495.044702
20
1566.73204
30
0
0
LWPOLYLINE
5
5C
100
AcDbEntity
8
Layer_1
6
ByLayer
62
7
370
-1
100
AcDbPolyline
90
3
70
0
43
0
10
422.208454
20
1594.81204
10
422.208454
20
1563.37204
10
433.008454
20
1563.37204
0
SPLINE
5
5D
100
AcDbEntity
8
Layer_1
6
ByLayer
62
7
370
-1
100
AcDbSpline
210
0
220
0
230
1
70
8
71
3
72
8
73
4
74
0
42
1e-07
43
1e-07
40
0
40
0
40
0
40
0
40
1
40
1
40
1
40
1
10
493.604702
20
1575.25204
30
0
10
488.32471
20
1572.85204
30
0
10
482.084702
20
1571.77204
30
0
10
476.684702
20
1571.77204
30
0
0
SPLINE
5
5E
100
AcDbEntity
8
Layer_1
6
ByLayer
62
7
370
-1
100
AcDbSpline
210
0
220
0
230
1
70
8
71
3
72
8
73
4
74
0
42
1e-07
43
1e-07
40
0
40
0
40
0
40
0
40
1
40
1
40
1
40
1
10
476.684702
20
1571.77204
30
0
10
465.524718
20
1571.77204
30
0
10
456.164702
20
1576.452056
30
0
10
454.604702
20
1592.77204
30
0
0
LWPOLYLINE
5
5F
100
AcDbEntity
8
Layer_1
6
ByLayer
62
7
370
-1
100
AcDbPolyline
90
2
70
0
43
0
10
495.044702
20
1566.73204
10
493.604702
20
1575.25204
0
SPLINE
5
60
100
AcDbEntity
8
Layer_1
6
ByLayer
62
7
370
-1
100
AcDbSpline
210
0
220
0
230
1
70
8
71
3
72
8
73
4
74
0
42
1e-07
43
1e-07
40
0
40
0
40
0
40
0
40
1
40
1
40
1
40
1
10
472.124702
20
1613.77204
30
0
10
481.964694
20
1613.77204
30
0
10
486.524702
20
1608.492032
30
0
10
486.524702
20
1600.21204
30
0
0
LWPOLYLINE
5
61
100
AcDbEntity
8
Layer_1
6
ByLayer
62
7
370
-1
100
AcDbPolyline
90
2
70
0
43
0
10
454.604702
20
1592.77204
10
497.204702
20
1592.77204
0
SPLINE
5
62
100
AcDbEntity
8
Layer_1
6
ByLayer
62
7
370
-1
100
AcDbSpline
210
0
220
0
230
1
70
8
71
3
72
8
73
4
74
0
42
1e-07
43
1e-07
40
0
40
0
40
0
40
0
40
1
40
1
40
1
40
1
10
455.564702
20
1600.21204
30
0
10
457.724702
20
1608.732032
30
0
10
462.524718
20
1613.77204
30
0
10
472.124702
20
1613.77204
30
0
0
SPLINE
5
63
100
AcDbEntity
8
Layer_1
6
ByLayer
62
7
370
-1
100
AcDbSpline
210
0
220
0
230
1
70
8
71
3
72
8
73
4
74
0
42
1e-07
43
1e-07
40
0
40
0
40
0
40
0
40
1
40
1
40
1
40
1
10
531.850934
20
1533.37204
30
0
10
551.29091
20
1533.37204
30
0
10
561.370934
20
1542.372048
30
0
10
561.370934
20
1551.85204
30
0
0
SPLINE
5
64
100
AcDbEntity
8
Layer_1
6
ByLayer
62
7
370
-1
100
AcDbSpline
210
0
220
0
230
1
70
8
71
3
72
8
73
4
74
0
42
1e-07
43
1e-07
40
0
40
0
40
0
40
0
40
1
40
1
40
1
40
1
10
561.370934
20
1551.85204
30
0
10
561.370934
20
1563.372024
30
0
10
546.610926
20
1566.61204
30
0
10
537.370934
20
1568.17204
30
0
0
SPLINE
5
65
100
AcDbEntity
8
Layer_1
6
ByLayer
62
7
370
-1
100
AcDbSpline
210
0
220
0
230
1
70
8
71
3
72
8
73
4
74
0
42
1e-07
43
1e-07
40
0
40
0
40
0
40
0
40
1
40
1
40
1
40
1
10
537.370934
20
1568.17204
30
0
10
523.450942
20
1570.572032
30
0
10
519.130934
20
1571.41204
30
0
10
519.130934
20
1574.41204
30
0
0
SPLINE
5
66
100
AcDbEntity
8
Layer_1
6
ByLayer
62
7
370
-1
100
AcDbSpline
210
0
220
0
230
1
70
8
71
3
72
8
73
4
74
0
42
1e-07
43
1e-07
40
0
40
0
40
0
40
0
40
1
40
1
40
1
40
1
10
519.130934
20
1574.41204
30
0
10
519.130934
20
1575.85204
30
0
10
520.330934
20
1577.05204
30
0
10
522.010934
20
1578.01204
30
0
0
SPLINE
5
67
100
AcDbEntity
8
Layer_1
6
ByLayer
62
7
370
-1
100
AcDbSpline
210
0
220
0
230
1
70
8
71
3
72
8
73
4
74
0
42
1e-07
43
1e-07
40
0
40
0
40
0
40
0
40
1
40
1
40
1
40
1
10
522.010934
20
1578.01204
30
0
10
524.530926
20
1577.29204
30
0
10
527.650934
20
1576.93204
30
0
10
530.410934
20
1576.93204
30
0
0
SPLINE
5
68
100
AcDbEntity
8
Layer_1
6
ByLayer
62
7
370
-1
100
AcDbSpline
210
0
220
0
230
1
70
8
71
3
72
8
73
4
74
0
42
1e-07
43
1e-07
40
0
40
0
40
0
40
0
40
1
40
1
40
1
40
1
10
530.410934
20
1576.93204
30
0
10
545.770918
20
1576.93204
30
0
10
554.170934
20
1588.452048
30
0
10
554.170934
20
1600.33204
30
0
0
SPLINE
5
69
100
AcDbEntity
8
Layer_1
6
ByLayer
62
7
370
-1
100
AcDbSpline
210
0
220
0
230
1
70
8
71
3
72
8
73
4
74
0
42
1e-07
43
1e-07
40
0
40
0
40
0
40
0
40
1
40
1
40
1
40
1
10
554.170934
20
1600.33204
30
0
10
554.170934
20
1604.652032
30
0
10
553.090926
20
1609.21204
30
0
10
548.770934
20
1614.37204
30
0
0
SPLINE
5
6A
100
AcDbEntity
8
Layer_1
6
ByLayer
62
7
370
-1
100
AcDbSpline
210
0
220
0
230
1
70
8
71
3
72
8
73
4
74
0
42
1e-07
43
1e-07
40
0
40
0
40
0
40
0
40
1
40
1
40
1
40
1
10
548.770934
20
1614.37204
30
0
10
551.290926
20
1614.97204
30
0
10
554.890934
20
1615.21204
30
0
10
555.730934
20
1615.21204
30
0
0
LWPOLYLINE
5
6B
100
AcDbEntity
8
Layer_1
6
ByLayer
62
7
370
-1
100
AcDbPolyline
90
2
70
0
43
0
10
486.524702
20
1600.21204
10
455.564702
20
1600.21204
0
SPLINE
5
6C
100
AcDbEntity
8
Layer_1
6
ByLayer
62
7
370
-1
100
AcDbSpline
210
0
220
0
230
1
70
8
71
3
72
8
73
4
74
0
42
1e-07
43
1e-07
40
0
40
0
40
0
40
0
40
1
40
1
40
1
40
1
10
558.850934
20
1622.41204
30
0
10
552.970934
20
1622.41204
30
0
10
548.170926
20
1620.972032
30
0
10
544.570934
20
1619.05204
30
0
0
SPLINE
5
6D
100
AcDbEntity
8
Layer_1
6
ByLayer
62
7
370
-1
100
AcDbSpline
210
0
220
0
230
1
70
8
71
3
72
8
73
4
74
0
42
1e-07
43
1e-07
40
0
40
0
40
0
40
0
40
1
40
1
40
1
40
1
10
544.570934
20
1619.05204
30
0
10
539.770934
20
1622.052032
30
0
10
535.090926
20
1623.37204
30
0
10
529.570934
20
1623.37204
30
0
0
SPLINE
5
6E
100
AcDbEntity
8
Layer_1
6
ByLayer
62
7
370
-1
100
AcDbSpline
210
0
220
0
230
1
70
8
71
3
72
8
73
4
74
0
42
1e-07
43
1e-07
40
0
40
0
40
0
40
0
40
1
40
1
40
1
40
1
10
529.570934
20
1623.37204
30
0
10
513.97095
20
1623.37204
30
0
10
505.570934
20
1612.692024
30
0
10
505.570934
20
1599.73204
30
0
0
SPLINE
5
6F
100
AcDbEntity
8
Layer_1
6
ByLayer
62
7
370
-1
100
AcDbSpline
210
0
220
0
230
1
70
8
71
3
72
8
73
4
74
0
42
1e-07
43
1e-07
40
0
40
0
40
0
40
0
40
1
40
1
40
1
40
1
10
505.570934
20
1599.73204
30
0
10
505.570934
20
1593.73204
30
0
10
507.370942
20
1586.652032
30
0
10
515.770934
20
1580.53204
30
0
0
SPLINE
5
70
100
AcDbEntity
8
Layer_1
6
ByLayer
62
7
370
-1
100
AcDbSpline
210
0
220
0
230
1
70
8
71
3
72
8
73
4
74
0
42
1e-07
43
1e-07
40
0
40
0
40
0
40
0
40
1
40
1
40
1
40
1
10
515.770934
20
1580.53204
30
0
10
510.130934
20
1577.89204
30
0
10
508.810934
20
1573.812032
30
0
10
508.810934
20
1571.77204
30
0
0
SPLINE
5
71
100
AcDbEntity
8
Layer_1
6
ByLayer
62
7
370
-1
100
AcDbSpline
210
0
220
0
230
1
70
8
71
3
72
8
73
4
74
0
42
1e-07
43
1e-07
40
0
40
0
40
0
40
0
40
1
40
1
40
1
40
1
10
508.810934
20
1571.77204
30
0
10
508.810934
20
1569.97204
30
0
10
509.770934
20
1566.732032
30
0
10
514.810934
20
1564.33204
30
0
0
SPLINE
5
72
100
AcDbEntity
8
Layer_1
6
ByLayer
62
7
370
-1
100
AcDbSpline
210
0
220
0
230
1
70
8
71
3
72
8
73
4
74
0
42
1e-07
43
1e-07
40
0
40
0
40
0
40
0
40
1
40
1
40
1
40
1
10
514.810934
20
1564.33204
30
0
10
505.570942
20
1561.09204
30
0
10
504.370934
20
1554.372032
30
0
10
504.370934
20
1551.13204
30
0
0
SPLINE
5
73
100
AcDbEntity
8
Layer_1
6
ByLayer
62
7
370
-1
100
AcDbSpline
210
0
220
0
230
1
70
8
71
3
72
8
73
4
74
0
42
1e-07
43
1e-07
40
0
40
0
40
0
40
0
40
1
40
1
40
1
40
1
10
504.370934
20
1551.13204
30
0
10
504.370934
20
1543.332048
30
0
10
511.45095
20
1533.37204
30
0
10
531.850934
20
1533.37204
30
0
0
SPLINE
5
74
100
AcDbEntity
8
Layer_1
6
ByLayer
62
7
370
-1
100
AcDbSpline
210
0
220
0
230
1
70
8
71
3
72
8
73
4
74
0
42
1e-07
43
1e-07
40
0
40
0
40
0
40
0
40
1
40
1
40
1
40
1
10
529.690934
20
1614.73204
30
0
10
537.970926
20
1614.73204
30
0
10
543.850934
20
1609.692032
30
0
10
543.850934
20
1600.45204
30
0
0
SPLINE
5
75
100
AcDbEntity
8
Layer_1
6
ByLayer
62
7
370
-1
100
AcDbSpline
210
0
220
0
230
1
70
8
71
3
72
8
73
4
74
0
42
1e-07
43
1e-07
40
0
40
0
40
0
40
0
40
1
40
1
40
1
40
1
10
543.850934
20
1600.45204
30
0
10
543.850934
20
1591.932048
30
0
10
538.930926
20
1585.21204
30
0
10
529.930934
20
1585.21204
30
0
0
SPLINE
5
76
100
AcDbEntity
8
Layer_1
6
ByLayer
62
7
370
-1
100
AcDbSpline
210
0
220
0
230
1
70
8
71
3
72
8
73
4
74
0
42
1e-07
43
1e-07
40
0
40
0
40
0
40
0
40
1
40
1
40
1
40
1
10
529.930934
20
1585.21204
30
0
10
521.650942
20
1585.21204
30
0
10
515.890934
20
1590.852048
30
0
10
515.890934
20
1600.09204
30
0
0
SPLINE
5
77
100
AcDbEntity
8
Layer_1
6
ByLayer
62
7
370
-1
100
AcDbSpline
210
0
220
0
230
1
70
8
71
3
72
8
73
4
74
0
42
1e-07
43
1e-07
40
0
40
0
40
0
40
0
40
1
40
1
40
1
40
1
10
515.890934
20
1600.09204
30
0
10
515.890934
20
1608.612032
30
0
10
520.690942
20
1614.73204
30
0
10
529.690934
20
1614.73204
30
0
0
SPLINE
5
78
100
AcDbEntity
8
Layer_1
6
ByLayer
62
7
370
-1
100
AcDbSpline
210
0
220
0
230
1
70
8
71
3
72
8
73
4
74
0
42
1e-07
43
1e-07
40
0
40
0
40
0
40
0
40
1
40
1
40
1
40
1
10
534.730934
20
1560.25204
30
0
10
545.410918
20
1558.33204
30
0
10
550.450934
20
1555.332032
30
0
10
550.450934
20
1551.13204
30
0
0
SPLINE
5
79
100
AcDbEntity
8
Layer_1
6
ByLayer
62
7
370
-1
100
AcDbSpline
210
0
220
0
230
1
70
8
71
3
72
8
73
4
74
0
42
1e-07
43
1e-07
40
0
40
0
40
0
40
0
40
1
40
1
40
1
40
1
10
550.450934
20
1551.13204
30
0
10
550.450934
20
1546.57204
30
0
10
544.330918
20
1541.77204
30
0
10
532.330934
20
1541.77204
30
0
0
SPLINE
5
7A
100
AcDbEntity
8
Layer_1
6
ByLayer
62
7
370
-1
100
AcDbSpline
210
0
220
0
230
1
70
8
71
3
72
8
73
4
74
0
42
1e-07
43
1e-07
40
0
40
0
40
0
40
0
40
1
40
1
40
1
40
1
10
532.330934
20
1541.77204
30
0
10
521.050942
20
1541.77204
30
0
10
514.690934
20
1545.97204
30
0
10
514.690934
20
1551.37204
30
0
0
SPLINE
5
7B
100
AcDbEntity
8
Layer_1
6
ByLayer
62
7
370
-1
100
AcDbSpline
210
0
220
0
230
1
70
8
71
3
72
8
73
4
74
0
42
1e-07
43
1e-07
40
0
40
0
40
0
40
0
40
1
40
1
40
1
40
1
10
514.690934
20
1551.37204
30
0
10
514.690934
20
1555.572032
30
0
10
518.650934
20
1560.01204
30
0
10
524.050934
20
1561.69204
30
0
0
SPLINE
5
7C
100
AcDbEntity
8
Layer_1
6
ByLayer
62
7
370
-1
100
AcDbSpline
210
0
220
0
230
1
70
8
71
3
72
8
73
4
74
0
42
1e-07
43
1e-07
40
0
40
0
40
0
40
0
40
1
40
1
40
1
40
1
10
524.050934
20
1561.69204
30
0
10
525.490934
20
1561.45204
30
0
10
534.490934
20
1560.25204
30
0
10
534.730934
20
1560.25204
30
0
0
LWPOLYLINE
5
7D
100
AcDbEntity
8
Layer_1
6
ByLayer
62
7
370
-1
100
AcDbPolyline
90
4
70
0
43
0
10
555.730934
20
1615.21204
10
558.490934
20
1615.21204
10
559.810934
20
1622.41204
10
558.850934
20
1622.41204
0
SPLINE
5
7E
100
AcDbEntity
8
Layer_1
6
ByLayer
62
7
370
-1
100
AcDbSpline
210
0
220
0
230
1
70
8
71
3
72
8
73
4
74
0
42
1e-07
43
1e-07
40
0
40
0
40
0
40
0
40
1
40
1
40
1
40
1
10
598.456558
20
1624.33204
30
0
10
591.256566
20
1624.33204
30
0
10
585.61655
20
1620.492032
30
0
10
578.536558
20
1612.45204
30
0
0
LWPOLYLINE
5
7F
100
AcDbEntity
8
Layer_1
6
ByLayer
62
7
370
-1
100
AcDbPolyline
90
2
70
0
43
0
10
599.416558
20
1624.33204
10
598.456558
20
1624.33204
0
SPLINE
5
80
100
AcDbEntity
8
Layer_1
6
ByLayer
62
7
370
-1
100
AcDbSpline
210
0
220
0
230
1
70
8
71
3
72
8
73
4
74
0
42
1e-07
43
1e-07
40
0
40
0
40
0
40
0
40
1
40
1
40
1
40
1
10
579.856558
20
1604.89204
30
0
10
581.896558
20
1608.612032
30
0
10
588.376558
20
1612.45204
30
0
10
593.296558
20
1612.45204
30
0
0
LWPOLYLINE
5
81
100
AcDbEntity
8
Layer_1
6
ByLayer
62
7
370
-1
100
AcDbPolyline
90
6
70
0
43
0
10
578.536558
20
1612.45204
10
577.216558
20
1622.17204
10
568.336558
20
1622.17204
10
568.336558
20
1563.37204
10
579.856558
20
1563.37204
10
579.856558
20
1604.89204
0
LWPOLYLINE
5
82
100
AcDbEntity
8
Layer_1
6
ByLayer
62
7
370
-1
100
AcDbPolyline
90
3
70
0
43
0
10
593.296558
20
1612.45204
10
597.016558
20
1612.45204
10
599.416558
20
1624.33204
0
LWPOLYLINE
5
83
100
AcDbEntity
8
Layer_1
6
ByLayer
62
7
370
-1
100
AcDbPolyline
90
5
70
0
43
0
10
617.574054
20
1635.37204
10
617.574054
20
1647.372038
10
606.774054
20
1647.372038
10
606.774054
20
1635.37204
10
617.574054
20
1635.37204
0
LWPOLYLINE
5
84
100
AcDbEntity
8
Layer_1
6
ByLayer
62
7
370
-1
100
AcDbPolyline
90
5
70
0
43
0
10
617.574054
20
1563.37204
10
617.574054
20
1622.17204
10
606.774054
20
1622.17204
10
606.774054
20
1563.37204
10
617.574054
20
1563.37204
0
SPLINE
5
85
100
AcDbEntity
8
Layer_1
6
ByLayer
62
7
370
-1
100
AcDbSpline
210
0
220
0
230
1
70
8
71
3
72
8
73
4
74
0
42
1e-07
43
1e-07
40
0
40
0
40
0
40
0
40
1
40
1
40
1
40
1
10
673.600934
20
1615.93204
30
0
10
668.560934
20
1622.052032
30
0
10
660.880926
20
1623.37204
30
0
10
655.600934
20
1623.37204
30
0
0
SPLINE
5
86
100
AcDbEntity
8
Layer_1
6
ByLayer
62
7
370
-1
100
AcDbSpline
210
0
220
0
230
1
70
8
71
3
72
8
73
4
74
0
42
1e-07
43
1e-07
40
0
40
0
40
0
40
0
40
1
40
1
40
1
40
1
10
655.600934
20
1623.37204
30
0
10
639.16095
20
1623.37204
30
0
10
628.840934
20
1608.852024
30
0
10
628.840934
20
1592.77204
30
0
0
SPLINE
5
87
100
AcDbEntity
8
Layer_1
6
ByLayer
62
7
370
-1
100
AcDbSpline
210
0
220
0
230
1
70
8
71
3
72
8
73
4
74
0
42
1e-07
43
1e-07
40
0
40
0
40
0
40
0
40
1
40
1
40
1
40
1
10
628.840934
20
1592.77204
30
0
10
628.840934
20
1575.612056
30
0
10
640.60095
20
1562.17204
30
0
10
655.600934
20
1562.17204
30
0
0
SPLINE
5
88
100
AcDbEntity
8
Layer_1
6
ByLayer
62
7
370
-1
100
AcDbSpline
210
0
220
0
230
1
70
8
71
3
72
8
73
4
74
0
42
1e-07
43
1e-07
40
0
40
0
40
0
40
0
40
1
40
1
40
1
40
1
10
655.600934
20
1562.17204
30
0
10
660.880926
20
1562.17204
30
0
10
669.160934
20
1565.05204
30
0
10
673.600934
20
1570.81204
30
0
0
LWPOLYLINE
5
89
100
AcDbEntity
8
Layer_1
6
ByLayer
62
7
370
-1
100
AcDbPolyline
90
4
70
0
43
0
10
684.400934
20
1563.37204
10
684.400934
20
1653.372038
10
673.600934
20
1653.372038
10
673.600934
20
1615.93204
0
SPLINE
5
8A
100
AcDbEntity
8
Layer_1
6
ByLayer
62
7
370
-1
100
AcDbSpline
210
0
220
0
230
1
70
8
71
3
72
8
73
4
74
0
42
1e-07
43
1e-07
40
0
40
0
40
0
40
0
40
1
40
1
40
1
40
1
10
656.440934
20
1613.77204
30
0
10
665.080926
20
1613.77204
30
0
10
674.800934
20
1606.572024
30
0
10
674.800934
20
1592.41204
30
0
0
SPLINE
5
8B
100
AcDbEntity
8
Layer_1
6
ByLayer
62
7
370
-1
100
AcDbSpline
210
0
220
0
230
1
70
8
71
3
72
8
73
4
74
0
42
1e-07
43
1e-07
40
0
40
0
40
0
40
0
40
1
40
1
40
1
40
1
10
674.800934
20
1592.41204
30
0
10
674.800934
20
1577.652056
30
0
10
665.080926
20
1571.77204
30
0
10
656.440934
20
1571.77204
30
0
0
SPLINE
5
8C
100
AcDbEntity
8
Layer_1
6
ByLayer
62
7
370
-1
100
AcDbSpline
210
0
220
0
230
1
70
8
71
3
72
8
73
4
74
0
42
1e-07
43
1e-07
40
0
40
0
40
0
40
0
40
1
40
1
40
1
40
1
10
656.440934
20
1571.77204
30
0
10
646.120942
20
1571.77204
30
0
10
639.880934
20
1581.252048
30
0
10
639.880934
20
1592.77204
30
0
0
SPLINE
5
8D
100
AcDbEntity
8
Layer_1
6
ByLayer
62
7
370
-1
100
AcDbSpline
210
0
220
0
230
1
70
8
71
3
72
8
73
4
74
0
42
1e-07
43
1e-07
40
0
40
0
40
0
40
0
40
1
40
1
40
1
40
1
10
639.880934
20
1592.77204
30
0
10
639.880934
20
1604.772024
30
0
10
646.120942
20
1613.77204
30
0
10
656.440934
20
1613.77204
30
0
0
LWPOLYLINE
5
8E
100
AcDbEntity
8
Layer_1
6
ByLayer
62
7
370
-1
100
AcDbPolyline
90
3
70
0
43
0
10
673.600934
20
1570.81204
10
674.800934
20
1563.37204
10
684.400934
20
1563.37204
0
LWPOLYLINE
5
8F
100
AcDbEntity
8
Layer_1
6
ByLayer
62
7
370
-1
100
AcDbPolyline
90
5
70
0
43
0
10
709.20343
20
1563.37204
10
709.20343
20
1573.69204
10
698.40343
20
1573.69204
10
698.40343
20
1563.37204
10
709.20343
20
1563.37204
0
SPLINE
5
90
100
AcDbEntity
8
Layer_1
6
ByLayer
62
7
370
-1
100
AcDbSpline
210
0
220
0
230
1
70
8
71
3
72
8
73
4
74
0
42
1e-07
43
1e-07
40
0
40
0
40
0
40
0
40
1
40
1
40
1
40
1
10
736.338526
20
1629.37204
30
0
10
736.338526
20
1641.372026
30
0
10
736.938534
20
1643.772038
30
0
10
742.578526
20
1643.772038
30
0
0
SPLINE
5
91
100
AcDbEntity
8
Layer_1
6
ByLayer
62
7
370
-1
100
AcDbSpline
210
0
220
0
230
1
70
8
71
3
72
8
73
4
74
0
42
1e-07
43
1e-07
40
0
40
0
40
0
40
0
40
1
40
1
40
1
40
1
10
742.578526
20
1643.772038
30
0
10
744.858526
20
1643.772038
30
0
10
747.138534
20
1643.532037
30
0
10
749.778526
20
1642.692038
30
0
0
LWPOLYLINE
5
92
100
AcDbEntity
8
Layer_1
6
ByLayer
62
7
370
-1
100
AcDbPolyline
90
4
70
0
43
0
10
752.178526
20
1613.77204
10
752.178526
20
1622.17204
10
736.338526
20
1622.17204
10
736.338526
20
1629.37204
0
SPLINE
5
93
100
AcDbEntity
8
Layer_1
6
ByLayer
62
7
370
-1
100
AcDbSpline
210
0
220
0
230
1
70
8
71
3
72
8
73
4
74
0
42
1e-07
43
1e-07
40
0
40
0
40
0
40
0
40
1
40
1
40
1
40
1
10
751.458526
20
1651.812038
30
0
10
748.578534
20
1652.772037
30
0
10
746.058526
20
1653.372038
30
0
10
739.218526
20
1653.372038
30
0
0
SPLINE
5
94
100
AcDbEntity
8
Layer_1
6
ByLayer
62
7
370
-1
100
AcDbSpline
210
0
220
0
230
1
70
8
71
3
72
8
73
4
74
0
42
1e-07
43
1e-07
40
0
40
0
40
0
40
0
40
1
40
1
40
1
40
1
10
739.218526
20
1653.372038
30
0
10
730.218542
20
1653.372038
30
0
10
725.538526
20
1646.532028
30
0
10
725.538526
20
1637.05204
30
0
0
LWPOLYLINE
5
95
100
AcDbEntity
8
Layer_1
6
ByLayer
62
7
370
-1
100
AcDbPolyline
90
2
70
0
43
0
10
749.778526
20
1642.692038
10
751.458526
20
1651.812038
0
LWPOLYLINE
5
96
100
AcDbEntity
8
Layer_1
6
ByLayer
62
7
370
-1
100
AcDbPolyline
90
9
70
0
43
0
10
725.538526
20
1637.05204
10
725.538526
20
1622.17204
10
716.778526
20
1622.17204
10
715.338526
20
1613.77204
10
725.538526
20
1613.77204
10
725.538526
20
1563.37204
10
736.338526
20
1563.37204
10
736.338526
20
1613.77204
10
752.178526
20
1613.77204
0
LWPOLYLINE
5
97
100
AcDbEntity
8
Layer_1
6
ByLayer
62
7
370
-1
100
AcDbPolyline
90
5
70
0
43
0
10
771.867902
20
1635.37204
10
771.867902
20
1647.372038
10
761.067902
20
1647.372038
10
761.067902
20
1635.37204
10
771.867902
20
1635.37204
0
SPLINE
5
98
100
AcDbEntity
8
Layer_1
6
ByLayer
62
7
370
-1
100
AcDbSpline
210
0
220
0
230
1
70
8
71
3
72
8
73
4
74
0
42
1e-07
43
1e-07
40
0
40
0
40
0
40
0
40
1
40
1
40
1
40
1
10
803.294782
20
1562.17204
30
0
10
821.29479
20
1562.17204
30
0
10
825.73479
20
1571.892048
30
0
10
825.73479
20
1579.69204
30
0
0
SPLINE
5
99
100
AcDbEntity
8
Layer_1
6
ByLayer
62
7
370
-1
100
AcDbSpline
210
0
220
0
230
1
70
8
71
3
72
8
73
4
74
0
42
1e-07
43
1e-07
40
0
40
0
40
0
40
0
40
1
40
1
40
1
40
1
10
825.73479
20
1579.69204
30
0
10
825.73479
20
1591.932024
30
0
10
814.69479
20
1595.53204
30
0
10
808.934782
20
1597.21204
30
0
0
SPLINE
5
9A
100
AcDbEntity
8
Layer_1
6
ByLayer
62
7
370
-1
100
AcDbSpline
210
0
220
0
230
1
70
8
71
3
72
8
73
4
74
0
42
1e-07
43
1e-07
40
0
40
0
40
0
40
0
40
1
40
1
40
1
40
1
10
808.934782
20
1597.21204
30
0
10
799.69479
20
1599.972032
30
0
10
795.254782
20
1601.41204
30
0
10
795.254782
20
1606.93204
30
0
0
SPLINE
5
9B
100
AcDbEntity
8
Layer_1
6
ByLayer
62
7
370
-1
100
AcDbSpline
210
0
220
0
230
1
70
8
71
3
72
8
73
4
74
0
42
1e-07
43
1e-07
40
0
40
0
40
0
40
0
40
1
40
1
40
1
40
1
10
795.254782
20
1606.93204
30
0
10
795.254782
20
1612.452032
30
0
10
799.934782
20
1614.85204
30
0
10
806.654782
20
1614.85204
30
0
0
SPLINE
5
9C
100
AcDbEntity
8
Layer_1
6
ByLayer
62
7
370
-1
100
AcDbSpline
210
0
220
0
230
1
70
8
71
3
72
8
73
4
74
0
42
1e-07
43
1e-07
40
0
40
0
40
0
40
0
40
1
40
1
40
1
40
1
10
806.654782
20
1614.85204
30
0
10
813.25479
20
1614.85204
30
0
10
817.57479
20
1612.572032
30
0
10
821.05479
20
1609.69204
30
0
0
LWPOLYLINE
5
9D
100
AcDbEntity
8
Layer_1
6
ByLayer
62
7
370
-1
100
AcDbPolyline
90
5
70
0
43
0
10
771.867902
20
1563.37204
10
771.867902
20
1622.17204
10
761.067902
20
1622.17204
10
761.067902
20
1563.37204
10
771.867902
20
1563.37204
0
SPLINE
5
9E
100
AcDbEntity
8
Layer_1
6
ByLayer
62
7
370
-1
100
AcDbSpline
210
0
220
0
230
1
70
8
71
3
72
8
73
4
74
0
42
1e-07
43
1e-07
40
0
40
0
40
0
40
0
40
1
40
1
40
1
40
1
10
822.37479
20
1619.53204
30
0
10
818.77479
20
1621.332032
30
0
10
814.21479
20
1623.37204
30
0
10
806.414782
20
1623.37204
30
0
0
SPLINE
5
9F
100
AcDbEntity
8
Layer_1
6
ByLayer
62
7
370
-1
100
AcDbSpline
210
0
220
0
230
1
70
8
71
3
72
8
73
4
74
0
42
1e-07
43
1e-07
40
0
40
0
40
0
40
0
40
1
40
1
40
1
40
1
10
806.414782
20
1623.37204
30
0
10
790.334798
20
1623.37204
30
0
10
784.334782
20
1614.732032
30
0
10
784.334782
20
1605.73204
30
0
0
SPLINE
5
A0
100
AcDbEntity
8
Layer_1
6
ByLayer
62
7
370
-1
100
AcDbSpline
210
0
220
0
230
1
70
8
71
3
72
8
73
4
74
0
42
1e-07
43
1e-07
40
0
40
0
40
0
40
0
40
1
40
1
40
1
40
1
10
784.334782
20
1605.73204
30
0
10
784.334782
20
1593.852048
30
0
10
794.77479
20
1590.972032
30
0
10
802.814782
20
1588.81204
30
0
0
SPLINE
5
A1
100
AcDbEntity
8
Layer_1
6
ByLayer
62
7
370
-1
100
AcDbSpline
210
0
220
0
230
1
70
8
71
3
72
8
73
4
74
0
42
1e-07
43
1e-07
40
0
40
0
40
0
40
0
40
1
40
1
40
1
40
1
10
802.814782
20
1588.81204
30
0
10
807.614774
20
1587.49204
30
0
10
814.57479
20
1585.212032
30
0
10
814.57479
20
1579.09204
30
0
0
SPLINE
5
A2
100
AcDbEntity
8
Layer_1
6
ByLayer
62
7
370
-1
100
AcDbSpline
210
0
220
0
230
1
70
8
71
3
72
8
73
4
74
0
42
1e-07
43
1e-07
40
0
40
0
40
0
40
0
40
1
40
1
40
1
40
1
10
814.57479
20
1579.09204
30
0
10
814.57479
20
1574.41204
30
0
10
810.374774
20
1571.77204
30
0
10
802.814782
20
1571.77204
30
0
0
SPLINE
5
A3
100
AcDbEntity
8
Layer_1
6
ByLayer
62
7
370
-1
100
AcDbSpline
210
0
220
0
230
1
70
8
71
3
72
8
73
4
74
0
42
1e-07
43
1e-07
40
0
40
0
40
0
40
0
40
1
40
1
40
1
40
1
10
802.814782
20
1571.77204
30
0
10
793.81479
20
1571.77204
30
0
10
786.974774
20
1575.49204
30
0
10
784.454782
20
1577.77204
30
0
0
LWPOLYLINE
5
A4
100
AcDbEntity
8
Layer_1
6
ByLayer
62
7
370
-1
100
AcDbPolyline
90
2
70
0
43
0
10
821.05479
20
1609.69204
10
822.37479
20
1619.53204
0
SPLINE
5
A5
100
AcDbEntity
8
Layer_1
6
ByLayer
62
7
370
-1
100
AcDbSpline
210
0
220
0
230
1
70
8
71
3
72
8
73
4
74
0
42
1e-07
43
1e-07
40
0
40
0
40
0
40
0
40
1
40
1
40
1
40
1
10
783.134782
20
1567.33204
30
0
10
785.894774
20
1565.41204
30
0
10
792.85479
20
1562.17204
30
0
10
803.294782
20
1562.17204
30
0
0
LWPOLYLINE
5
A6
100
AcDbEntity
8
Layer_1
6
ByLayer
62
7
370
-1
100
AcDbPolyline
90
2
70
0
43
0
10
784.454782
20
1577.77204
10
783.134782
20
1567.33204
0
SPLINE
5
A7
100
AcDbEntity
8
Layer_1
6
ByLayer
62
7
370
-1
100
AcDbSpline
210
0
220
0
230
1
70
8
71
3
72
8
73
4
74
0
42
1e-07
43
1e-07
40
0
40
0
40
0
40
0
40
1
40
1
40
1
40
1
10
887.30231
20
1594.81204
30
0
10
887.30231
20
1611.732024
30
0
10
881.06223
20
1623.37204
30
0
10
864.14231
20
1623.37204
30
0
0
SPLINE
5
A8
100
AcDbEntity
8
Layer_1
6
ByLayer
62
7
370
-1
100
AcDbSpline
210
0
220
0
230
1
70
8
71
3
72
8
73
4
74
0
42
1e-07
43
1e-07
40
0
40
0
40
0
40
0
40
1
40
1
40
1
40
1
10
864.14231
20
1623.37204
30
0
10
856.46231
20
1623.37204
30
0
10
851.18231
20
1620.972032
30
0
10
847.10231
20
1615.81204
30
0
0
LWPOLYLINE
5
A9
100
AcDbEntity
8
Layer_1
6
ByLayer
62
7
370
-1
100
AcDbPolyline
90
2
70
0
43
0
10
887.30231
20
1563.37204
10
887.30231
20
1594.81204
0
SPLINE
5
AA
100
AcDbEntity
8
Layer_1
6
ByLayer
62
7
370
-1
100
AcDbSpline
210
0
220
0
230
1
70
8
71
3
72
8
73
4
74
0
42
1e-07
43
1e-07
40
0
40
0
40
0
40
0
40
1
40
1
40
1
40
1
10
847.10231
20
1606.09204
30
0
10
850.46231
20
1611.372032
30
0
10
855.26231
20
1613.77204
30
0
10
862.46231
20
1613.77204
30
0
0
SPLINE
5
AB
100
AcDbEntity
8
Layer_1
6
ByLayer
62
7
370
-1
100
AcDbSpline
210
0
220
0
230
1
70
8
71
3
72
8
73
4
74
0
42
1e-07
43
1e-07
40
0
40
0
40
0
40
0
40
1
40
1
40
1
40
1
10
862.46231
20
1613.77204
30
0
10
872.90223
20
1613.77204
30
0
10
876.50231
20
1608.732024
30
0
10
876.50231
20
1594.81204
30
0
0
LWPOLYLINE
5
AC
100
AcDbEntity
8
Layer_1
6
ByLayer
62
7
370
-1
100
AcDbPolyline
90
6
70
0
43
0
10
847.10231
20
1615.81204
10
847.10231
20
1653.372038
10
836.18231
20
1653.372038
10
836.18231
20
1563.37204
10
847.10231
20
1563.37204
10
847.10231
20
1606.09204
0
LWPOLYLINE
5
AD
100
AcDbEntity
8
Layer_1
6
ByLayer
62
7
370
-1
100
AcDbPolyline
90
3
70
0
43
0
10
876.50231
20
1594.81204
10
876.50231
20
1563.37204
10
887.30231
20
1563.37204
0
ENDSEC
0
SECTION
2
OBJECTS
0
DICTIONARY
5
C
330
0
100
AcDbDictionary
281
1
3
ACAD_GROUP
350
D
0
DICTIONARY
5
D
330
C
100
AcDbDictionary
281
1
0
ENDSEC
0
EOF
