G04 #@! TF.FileFunction,Legend,Bot*
%FSLAX46Y46*%
G04 Gerber Fmt 4.6, Leading zero omitted, Abs format (unit mm)*
G04 Created by KiCad (PCBNEW 4.0.2-4+6225~38~ubuntu15.10.1-stable) date Tue 29 Mar 2016 00:06:07 BST*
%MOMM*%
G01*
G04 APERTURE LIST*
%ADD10C,0.100000*%
%ADD11C,0.150000*%
%ADD12C,0.300000*%
G04 APERTURE END LIST*
D10*
D11*
X124892857Y-82202381D02*
X125226191Y-81726190D01*
X125464286Y-82202381D02*
X125464286Y-81202381D01*
X125083333Y-81202381D01*
X124988095Y-81250000D01*
X124940476Y-81297619D01*
X124892857Y-81392857D01*
X124892857Y-81535714D01*
X124940476Y-81630952D01*
X124988095Y-81678571D01*
X125083333Y-81726190D01*
X125464286Y-81726190D01*
X124083333Y-82154762D02*
X124178571Y-82202381D01*
X124369048Y-82202381D01*
X124464286Y-82154762D01*
X124511905Y-82059524D01*
X124511905Y-81678571D01*
X124464286Y-81583333D01*
X124369048Y-81535714D01*
X124178571Y-81535714D01*
X124083333Y-81583333D01*
X124035714Y-81678571D01*
X124035714Y-81773810D01*
X124511905Y-81869048D01*
X123702381Y-81535714D02*
X123464286Y-82202381D01*
X123226190Y-81535714D01*
X122845238Y-82202381D02*
X122845238Y-81535714D01*
X122845238Y-81202381D02*
X122892857Y-81250000D01*
X122845238Y-81297619D01*
X122797619Y-81250000D01*
X122845238Y-81202381D01*
X122845238Y-81297619D01*
X122416667Y-82154762D02*
X122321429Y-82202381D01*
X122130953Y-82202381D01*
X122035714Y-82154762D01*
X121988095Y-82059524D01*
X121988095Y-82011905D01*
X122035714Y-81916667D01*
X122130953Y-81869048D01*
X122273810Y-81869048D01*
X122369048Y-81821429D01*
X122416667Y-81726190D01*
X122416667Y-81678571D01*
X122369048Y-81583333D01*
X122273810Y-81535714D01*
X122130953Y-81535714D01*
X122035714Y-81583333D01*
X121559524Y-82202381D02*
X121559524Y-81535714D01*
X121559524Y-81202381D02*
X121607143Y-81250000D01*
X121559524Y-81297619D01*
X121511905Y-81250000D01*
X121559524Y-81202381D01*
X121559524Y-81297619D01*
X120940477Y-82202381D02*
X121035715Y-82154762D01*
X121083334Y-82107143D01*
X121130953Y-82011905D01*
X121130953Y-81726190D01*
X121083334Y-81630952D01*
X121035715Y-81583333D01*
X120940477Y-81535714D01*
X120797619Y-81535714D01*
X120702381Y-81583333D01*
X120654762Y-81630952D01*
X120607143Y-81726190D01*
X120607143Y-82011905D01*
X120654762Y-82107143D01*
X120702381Y-82154762D01*
X120797619Y-82202381D01*
X120940477Y-82202381D01*
X120178572Y-81535714D02*
X120178572Y-82202381D01*
X120178572Y-81630952D02*
X120130953Y-81583333D01*
X120035715Y-81535714D01*
X119892857Y-81535714D01*
X119797619Y-81583333D01*
X119750000Y-81678571D01*
X119750000Y-82202381D01*
X117988095Y-82202381D02*
X118559524Y-82202381D01*
X118273810Y-82202381D02*
X118273810Y-81202381D01*
X118369048Y-81345238D01*
X118464286Y-81440476D01*
X118559524Y-81488095D01*
X130357143Y-82797619D02*
X130309524Y-82750000D01*
X130214286Y-82702381D01*
X129976190Y-82702381D01*
X129880952Y-82750000D01*
X129833333Y-82797619D01*
X129785714Y-82892857D01*
X129785714Y-82988095D01*
X129833333Y-83130952D01*
X130404762Y-83702381D01*
X129785714Y-83702381D01*
X129166667Y-82702381D02*
X129071428Y-82702381D01*
X128976190Y-82750000D01*
X128928571Y-82797619D01*
X128880952Y-82892857D01*
X128833333Y-83083333D01*
X128833333Y-83321429D01*
X128880952Y-83511905D01*
X128928571Y-83607143D01*
X128976190Y-83654762D01*
X129071428Y-83702381D01*
X129166667Y-83702381D01*
X129261905Y-83654762D01*
X129309524Y-83607143D01*
X129357143Y-83511905D01*
X129404762Y-83321429D01*
X129404762Y-83083333D01*
X129357143Y-82892857D01*
X129309524Y-82797619D01*
X129261905Y-82750000D01*
X129166667Y-82702381D01*
X127880952Y-83702381D02*
X128452381Y-83702381D01*
X128166667Y-83702381D02*
X128166667Y-82702381D01*
X128261905Y-82845238D01*
X128357143Y-82940476D01*
X128452381Y-82988095D01*
X127023809Y-82702381D02*
X127214286Y-82702381D01*
X127309524Y-82750000D01*
X127357143Y-82797619D01*
X127452381Y-82940476D01*
X127500000Y-83130952D01*
X127500000Y-83511905D01*
X127452381Y-83607143D01*
X127404762Y-83654762D01*
X127309524Y-83702381D01*
X127119047Y-83702381D01*
X127023809Y-83654762D01*
X126976190Y-83607143D01*
X126928571Y-83511905D01*
X126928571Y-83273810D01*
X126976190Y-83178571D01*
X127023809Y-83130952D01*
X127119047Y-83083333D01*
X127309524Y-83083333D01*
X127404762Y-83130952D01*
X127452381Y-83178571D01*
X127500000Y-83273810D01*
X126500000Y-83321429D02*
X125738095Y-83321429D01*
X125071429Y-82702381D02*
X124976190Y-82702381D01*
X124880952Y-82750000D01*
X124833333Y-82797619D01*
X124785714Y-82892857D01*
X124738095Y-83083333D01*
X124738095Y-83321429D01*
X124785714Y-83511905D01*
X124833333Y-83607143D01*
X124880952Y-83654762D01*
X124976190Y-83702381D01*
X125071429Y-83702381D01*
X125166667Y-83654762D01*
X125214286Y-83607143D01*
X125261905Y-83511905D01*
X125309524Y-83321429D01*
X125309524Y-83083333D01*
X125261905Y-82892857D01*
X125214286Y-82797619D01*
X125166667Y-82750000D01*
X125071429Y-82702381D01*
X124404762Y-82702381D02*
X123785714Y-82702381D01*
X124119048Y-83083333D01*
X123976190Y-83083333D01*
X123880952Y-83130952D01*
X123833333Y-83178571D01*
X123785714Y-83273810D01*
X123785714Y-83511905D01*
X123833333Y-83607143D01*
X123880952Y-83654762D01*
X123976190Y-83702381D01*
X124261905Y-83702381D01*
X124357143Y-83654762D01*
X124404762Y-83607143D01*
X123357143Y-83321429D02*
X122595238Y-83321429D01*
X122166667Y-82797619D02*
X122119048Y-82750000D01*
X122023810Y-82702381D01*
X121785714Y-82702381D01*
X121690476Y-82750000D01*
X121642857Y-82797619D01*
X121595238Y-82892857D01*
X121595238Y-82988095D01*
X121642857Y-83130952D01*
X122214286Y-83702381D01*
X121595238Y-83702381D01*
X121023810Y-83130952D02*
X121119048Y-83083333D01*
X121166667Y-83035714D01*
X121214286Y-82940476D01*
X121214286Y-82892857D01*
X121166667Y-82797619D01*
X121119048Y-82750000D01*
X121023810Y-82702381D01*
X120833333Y-82702381D01*
X120738095Y-82750000D01*
X120690476Y-82797619D01*
X120642857Y-82892857D01*
X120642857Y-82940476D01*
X120690476Y-83035714D01*
X120738095Y-83083333D01*
X120833333Y-83130952D01*
X121023810Y-83130952D01*
X121119048Y-83178571D01*
X121166667Y-83226190D01*
X121214286Y-83321429D01*
X121214286Y-83511905D01*
X121166667Y-83607143D01*
X121119048Y-83654762D01*
X121023810Y-83702381D01*
X120833333Y-83702381D01*
X120738095Y-83654762D01*
X120690476Y-83607143D01*
X120642857Y-83511905D01*
X120642857Y-83321429D01*
X120690476Y-83226190D01*
X120738095Y-83178571D01*
X120833333Y-83130952D01*
X127369048Y-101177381D02*
X127369048Y-100177381D01*
X127130953Y-100177381D01*
X126988095Y-100225000D01*
X126892857Y-100320238D01*
X126845238Y-100415476D01*
X126797619Y-100605952D01*
X126797619Y-100748810D01*
X126845238Y-100939286D01*
X126892857Y-101034524D01*
X126988095Y-101129762D01*
X127130953Y-101177381D01*
X127369048Y-101177381D01*
X126416667Y-100891667D02*
X125940476Y-100891667D01*
X126511905Y-101177381D02*
X126178572Y-100177381D01*
X125845238Y-101177381D01*
X125654762Y-100177381D02*
X125321429Y-101177381D01*
X124988095Y-100177381D01*
X124654762Y-101177381D02*
X124654762Y-100177381D01*
X124178572Y-101177381D02*
X124178572Y-100177381D01*
X123940477Y-100177381D01*
X123797619Y-100225000D01*
X123702381Y-100320238D01*
X123654762Y-100415476D01*
X123607143Y-100605952D01*
X123607143Y-100748810D01*
X123654762Y-100939286D01*
X123702381Y-101034524D01*
X123797619Y-101129762D01*
X123940477Y-101177381D01*
X124178572Y-101177381D01*
X122559524Y-100177381D02*
X121988095Y-100177381D01*
X122273810Y-101177381D02*
X122273810Y-100177381D01*
X121654762Y-100177381D02*
X121654762Y-100986905D01*
X121607143Y-101082143D01*
X121559524Y-101129762D01*
X121464286Y-101177381D01*
X121273809Y-101177381D01*
X121178571Y-101129762D01*
X121130952Y-101082143D01*
X121083333Y-100986905D01*
X121083333Y-100177381D01*
X120035714Y-101177381D02*
X120369048Y-100701190D01*
X120607143Y-101177381D02*
X120607143Y-100177381D01*
X120226190Y-100177381D01*
X120130952Y-100225000D01*
X120083333Y-100272619D01*
X120035714Y-100367857D01*
X120035714Y-100510714D01*
X120083333Y-100605952D01*
X120130952Y-100653571D01*
X120226190Y-100701190D01*
X120607143Y-100701190D01*
X119607143Y-101177381D02*
X119607143Y-100177381D01*
X119035714Y-101177381D01*
X119035714Y-100177381D01*
X118559524Y-100653571D02*
X118226190Y-100653571D01*
X118083333Y-101177381D02*
X118559524Y-101177381D01*
X118559524Y-100177381D01*
X118083333Y-100177381D01*
X117083333Y-101177381D02*
X117416667Y-100701190D01*
X117654762Y-101177381D02*
X117654762Y-100177381D01*
X117273809Y-100177381D01*
X117178571Y-100225000D01*
X117130952Y-100272619D01*
X117083333Y-100367857D01*
X117083333Y-100510714D01*
X117130952Y-100605952D01*
X117178571Y-100653571D01*
X117273809Y-100701190D01*
X117654762Y-100701190D01*
X126559524Y-102441667D02*
X126083333Y-102441667D01*
X126654762Y-102727381D02*
X126321429Y-101727381D01*
X125988095Y-102727381D01*
X125654762Y-102727381D02*
X125654762Y-101727381D01*
X125416667Y-101727381D01*
X125273809Y-101775000D01*
X125178571Y-101870238D01*
X125130952Y-101965476D01*
X125083333Y-102155952D01*
X125083333Y-102298810D01*
X125130952Y-102489286D01*
X125178571Y-102584524D01*
X125273809Y-102679762D01*
X125416667Y-102727381D01*
X125654762Y-102727381D01*
X124702381Y-102441667D02*
X124226190Y-102441667D01*
X124797619Y-102727381D02*
X124464286Y-101727381D01*
X124130952Y-102727381D01*
X123797619Y-102727381D02*
X123797619Y-101727381D01*
X123464285Y-102441667D01*
X123130952Y-101727381D01*
X123130952Y-102727381D01*
X121369047Y-101775000D02*
X121464285Y-101727381D01*
X121607142Y-101727381D01*
X121750000Y-101775000D01*
X121845238Y-101870238D01*
X121892857Y-101965476D01*
X121940476Y-102155952D01*
X121940476Y-102298810D01*
X121892857Y-102489286D01*
X121845238Y-102584524D01*
X121750000Y-102679762D01*
X121607142Y-102727381D01*
X121511904Y-102727381D01*
X121369047Y-102679762D01*
X121321428Y-102632143D01*
X121321428Y-102298810D01*
X121511904Y-102298810D01*
X120321428Y-102727381D02*
X120654762Y-102251190D01*
X120892857Y-102727381D02*
X120892857Y-101727381D01*
X120511904Y-101727381D01*
X120416666Y-101775000D01*
X120369047Y-101822619D01*
X120321428Y-101917857D01*
X120321428Y-102060714D01*
X120369047Y-102155952D01*
X120416666Y-102203571D01*
X120511904Y-102251190D01*
X120892857Y-102251190D01*
X119892857Y-102203571D02*
X119559523Y-102203571D01*
X119416666Y-102727381D02*
X119892857Y-102727381D01*
X119892857Y-101727381D01*
X119416666Y-101727381D01*
X118988095Y-102727381D02*
X118988095Y-101727381D01*
X117988095Y-101775000D02*
X118083333Y-101727381D01*
X118226190Y-101727381D01*
X118369048Y-101775000D01*
X118464286Y-101870238D01*
X118511905Y-101965476D01*
X118559524Y-102155952D01*
X118559524Y-102298810D01*
X118511905Y-102489286D01*
X118464286Y-102584524D01*
X118369048Y-102679762D01*
X118226190Y-102727381D01*
X118130952Y-102727381D01*
X117988095Y-102679762D01*
X117940476Y-102632143D01*
X117940476Y-102298810D01*
X118130952Y-102298810D01*
D12*
X127321429Y-97928571D02*
X126464286Y-97928571D01*
X126892857Y-99428571D02*
X126892857Y-97928571D01*
X125964286Y-99428571D02*
X125964286Y-97928571D01*
X125964286Y-98642857D02*
X125107143Y-98642857D01*
X125107143Y-99428571D02*
X125107143Y-97928571D01*
X124392857Y-98642857D02*
X123892857Y-98642857D01*
X123678571Y-99428571D02*
X124392857Y-99428571D01*
X124392857Y-97928571D01*
X123678571Y-97928571D01*
X122821428Y-98785714D02*
X122892857Y-98857143D01*
X122821428Y-98928571D01*
X122750000Y-98857143D01*
X122821428Y-98785714D01*
X122821428Y-98928571D01*
X121107143Y-98000000D02*
X121250000Y-97928571D01*
X121464286Y-97928571D01*
X121678571Y-98000000D01*
X121821429Y-98142857D01*
X121892857Y-98285714D01*
X121964286Y-98571429D01*
X121964286Y-98785714D01*
X121892857Y-99071429D01*
X121821429Y-99214286D01*
X121678571Y-99357143D01*
X121464286Y-99428571D01*
X121321429Y-99428571D01*
X121107143Y-99357143D01*
X121035714Y-99285714D01*
X121035714Y-98785714D01*
X121321429Y-98785714D01*
X119535714Y-99428571D02*
X120035714Y-98714286D01*
X120392857Y-99428571D02*
X120392857Y-97928571D01*
X119821429Y-97928571D01*
X119678571Y-98000000D01*
X119607143Y-98071429D01*
X119535714Y-98214286D01*
X119535714Y-98428571D01*
X119607143Y-98571429D01*
X119678571Y-98642857D01*
X119821429Y-98714286D01*
X120392857Y-98714286D01*
X118892857Y-99428571D02*
X118892857Y-97928571D01*
X118178571Y-99428571D02*
X118178571Y-97928571D01*
X117821428Y-97928571D01*
X117607143Y-98000000D01*
X117464285Y-98142857D01*
X117392857Y-98285714D01*
X117321428Y-98571429D01*
X117321428Y-98785714D01*
X117392857Y-99071429D01*
X117464285Y-99214286D01*
X117607143Y-99357143D01*
X117821428Y-99428571D01*
X118178571Y-99428571D01*
D11*
X124892857Y-82202381D02*
X125226191Y-81726190D01*
X125464286Y-82202381D02*
X125464286Y-81202381D01*
X125083333Y-81202381D01*
X124988095Y-81250000D01*
X124940476Y-81297619D01*
X124892857Y-81392857D01*
X124892857Y-81535714D01*
X124940476Y-81630952D01*
X124988095Y-81678571D01*
X125083333Y-81726190D01*
X125464286Y-81726190D01*
X124083333Y-82154762D02*
X124178571Y-82202381D01*
X124369048Y-82202381D01*
X124464286Y-82154762D01*
X124511905Y-82059524D01*
X124511905Y-81678571D01*
X124464286Y-81583333D01*
X124369048Y-81535714D01*
X124178571Y-81535714D01*
X124083333Y-81583333D01*
X124035714Y-81678571D01*
X124035714Y-81773810D01*
X124511905Y-81869048D01*
X123702381Y-81535714D02*
X123464286Y-82202381D01*
X123226190Y-81535714D01*
X122845238Y-82202381D02*
X122845238Y-81535714D01*
X122845238Y-81202381D02*
X122892857Y-81250000D01*
X122845238Y-81297619D01*
X122797619Y-81250000D01*
X122845238Y-81202381D01*
X122845238Y-81297619D01*
X122416667Y-82154762D02*
X122321429Y-82202381D01*
X122130953Y-82202381D01*
X122035714Y-82154762D01*
X121988095Y-82059524D01*
X121988095Y-82011905D01*
X122035714Y-81916667D01*
X122130953Y-81869048D01*
X122273810Y-81869048D01*
X122369048Y-81821429D01*
X122416667Y-81726190D01*
X122416667Y-81678571D01*
X122369048Y-81583333D01*
X122273810Y-81535714D01*
X122130953Y-81535714D01*
X122035714Y-81583333D01*
X121559524Y-82202381D02*
X121559524Y-81535714D01*
X121559524Y-81202381D02*
X121607143Y-81250000D01*
X121559524Y-81297619D01*
X121511905Y-81250000D01*
X121559524Y-81202381D01*
X121559524Y-81297619D01*
X120940477Y-82202381D02*
X121035715Y-82154762D01*
X121083334Y-82107143D01*
X121130953Y-82011905D01*
X121130953Y-81726190D01*
X121083334Y-81630952D01*
X121035715Y-81583333D01*
X120940477Y-81535714D01*
X120797619Y-81535714D01*
X120702381Y-81583333D01*
X120654762Y-81630952D01*
X120607143Y-81726190D01*
X120607143Y-82011905D01*
X120654762Y-82107143D01*
X120702381Y-82154762D01*
X120797619Y-82202381D01*
X120940477Y-82202381D01*
X120178572Y-81535714D02*
X120178572Y-82202381D01*
X120178572Y-81630952D02*
X120130953Y-81583333D01*
X120035715Y-81535714D01*
X119892857Y-81535714D01*
X119797619Y-81583333D01*
X119750000Y-81678571D01*
X119750000Y-82202381D01*
X117988095Y-82202381D02*
X118559524Y-82202381D01*
X118273810Y-82202381D02*
X118273810Y-81202381D01*
X118369048Y-81345238D01*
X118464286Y-81440476D01*
X118559524Y-81488095D01*
X130357143Y-82797619D02*
X130309524Y-82750000D01*
X130214286Y-82702381D01*
X129976190Y-82702381D01*
X129880952Y-82750000D01*
X129833333Y-82797619D01*
X129785714Y-82892857D01*
X129785714Y-82988095D01*
X129833333Y-83130952D01*
X130404762Y-83702381D01*
X129785714Y-83702381D01*
X129166667Y-82702381D02*
X129071428Y-82702381D01*
X128976190Y-82750000D01*
X128928571Y-82797619D01*
X128880952Y-82892857D01*
X128833333Y-83083333D01*
X128833333Y-83321429D01*
X128880952Y-83511905D01*
X128928571Y-83607143D01*
X128976190Y-83654762D01*
X129071428Y-83702381D01*
X129166667Y-83702381D01*
X129261905Y-83654762D01*
X129309524Y-83607143D01*
X129357143Y-83511905D01*
X129404762Y-83321429D01*
X129404762Y-83083333D01*
X129357143Y-82892857D01*
X129309524Y-82797619D01*
X129261905Y-82750000D01*
X129166667Y-82702381D01*
X127880952Y-83702381D02*
X128452381Y-83702381D01*
X128166667Y-83702381D02*
X128166667Y-82702381D01*
X128261905Y-82845238D01*
X128357143Y-82940476D01*
X128452381Y-82988095D01*
X127023809Y-82702381D02*
X127214286Y-82702381D01*
X127309524Y-82750000D01*
X127357143Y-82797619D01*
X127452381Y-82940476D01*
X127500000Y-83130952D01*
X127500000Y-83511905D01*
X127452381Y-83607143D01*
X127404762Y-83654762D01*
X127309524Y-83702381D01*
X127119047Y-83702381D01*
X127023809Y-83654762D01*
X126976190Y-83607143D01*
X126928571Y-83511905D01*
X126928571Y-83273810D01*
X126976190Y-83178571D01*
X127023809Y-83130952D01*
X127119047Y-83083333D01*
X127309524Y-83083333D01*
X127404762Y-83130952D01*
X127452381Y-83178571D01*
X127500000Y-83273810D01*
X126500000Y-83321429D02*
X125738095Y-83321429D01*
X125071429Y-82702381D02*
X124976190Y-82702381D01*
X124880952Y-82750000D01*
X124833333Y-82797619D01*
X124785714Y-82892857D01*
X124738095Y-83083333D01*
X124738095Y-83321429D01*
X124785714Y-83511905D01*
X124833333Y-83607143D01*
X124880952Y-83654762D01*
X124976190Y-83702381D01*
X125071429Y-83702381D01*
X125166667Y-83654762D01*
X125214286Y-83607143D01*
X125261905Y-83511905D01*
X125309524Y-83321429D01*
X125309524Y-83083333D01*
X125261905Y-82892857D01*
X125214286Y-82797619D01*
X125166667Y-82750000D01*
X125071429Y-82702381D01*
X124404762Y-82702381D02*
X123785714Y-82702381D01*
X124119048Y-83083333D01*
X123976190Y-83083333D01*
X123880952Y-83130952D01*
X123833333Y-83178571D01*
X123785714Y-83273810D01*
X123785714Y-83511905D01*
X123833333Y-83607143D01*
X123880952Y-83654762D01*
X123976190Y-83702381D01*
X124261905Y-83702381D01*
X124357143Y-83654762D01*
X124404762Y-83607143D01*
X123357143Y-83321429D02*
X122595238Y-83321429D01*
X122166667Y-82797619D02*
X122119048Y-82750000D01*
X122023810Y-82702381D01*
X121785714Y-82702381D01*
X121690476Y-82750000D01*
X121642857Y-82797619D01*
X121595238Y-82892857D01*
X121595238Y-82988095D01*
X121642857Y-83130952D01*
X122214286Y-83702381D01*
X121595238Y-83702381D01*
X121023810Y-83130952D02*
X121119048Y-83083333D01*
X121166667Y-83035714D01*
X121214286Y-82940476D01*
X121214286Y-82892857D01*
X121166667Y-82797619D01*
X121119048Y-82750000D01*
X121023810Y-82702381D01*
X120833333Y-82702381D01*
X120738095Y-82750000D01*
X120690476Y-82797619D01*
X120642857Y-82892857D01*
X120642857Y-82940476D01*
X120690476Y-83035714D01*
X120738095Y-83083333D01*
X120833333Y-83130952D01*
X121023810Y-83130952D01*
X121119048Y-83178571D01*
X121166667Y-83226190D01*
X121214286Y-83321429D01*
X121214286Y-83511905D01*
X121166667Y-83607143D01*
X121119048Y-83654762D01*
X121023810Y-83702381D01*
X120833333Y-83702381D01*
X120738095Y-83654762D01*
X120690476Y-83607143D01*
X120642857Y-83511905D01*
X120642857Y-83321429D01*
X120690476Y-83226190D01*
X120738095Y-83178571D01*
X120833333Y-83130952D01*
X127369048Y-101177381D02*
X127369048Y-100177381D01*
X127130953Y-100177381D01*
X126988095Y-100225000D01*
X126892857Y-100320238D01*
X126845238Y-100415476D01*
X126797619Y-100605952D01*
X126797619Y-100748810D01*
X126845238Y-100939286D01*
X126892857Y-101034524D01*
X126988095Y-101129762D01*
X127130953Y-101177381D01*
X127369048Y-101177381D01*
X126416667Y-100891667D02*
X125940476Y-100891667D01*
X126511905Y-101177381D02*
X126178572Y-100177381D01*
X125845238Y-101177381D01*
X125654762Y-100177381D02*
X125321429Y-101177381D01*
X124988095Y-100177381D01*
X124654762Y-101177381D02*
X124654762Y-100177381D01*
X124178572Y-101177381D02*
X124178572Y-100177381D01*
X123940477Y-100177381D01*
X123797619Y-100225000D01*
X123702381Y-100320238D01*
X123654762Y-100415476D01*
X123607143Y-100605952D01*
X123607143Y-100748810D01*
X123654762Y-100939286D01*
X123702381Y-101034524D01*
X123797619Y-101129762D01*
X123940477Y-101177381D01*
X124178572Y-101177381D01*
X122559524Y-100177381D02*
X121988095Y-100177381D01*
X122273810Y-101177381D02*
X122273810Y-100177381D01*
X121654762Y-100177381D02*
X121654762Y-100986905D01*
X121607143Y-101082143D01*
X121559524Y-101129762D01*
X121464286Y-101177381D01*
X121273809Y-101177381D01*
X121178571Y-101129762D01*
X121130952Y-101082143D01*
X121083333Y-100986905D01*
X121083333Y-100177381D01*
X120035714Y-101177381D02*
X120369048Y-100701190D01*
X120607143Y-101177381D02*
X120607143Y-100177381D01*
X120226190Y-100177381D01*
X120130952Y-100225000D01*
X120083333Y-100272619D01*
X120035714Y-100367857D01*
X120035714Y-100510714D01*
X120083333Y-100605952D01*
X120130952Y-100653571D01*
X120226190Y-100701190D01*
X120607143Y-100701190D01*
X119607143Y-101177381D02*
X119607143Y-100177381D01*
X119035714Y-101177381D01*
X119035714Y-100177381D01*
X118559524Y-100653571D02*
X118226190Y-100653571D01*
X118083333Y-101177381D02*
X118559524Y-101177381D01*
X118559524Y-100177381D01*
X118083333Y-100177381D01*
X117083333Y-101177381D02*
X117416667Y-100701190D01*
X117654762Y-101177381D02*
X117654762Y-100177381D01*
X117273809Y-100177381D01*
X117178571Y-100225000D01*
X117130952Y-100272619D01*
X117083333Y-100367857D01*
X117083333Y-100510714D01*
X117130952Y-100605952D01*
X117178571Y-100653571D01*
X117273809Y-100701190D01*
X117654762Y-100701190D01*
X126559524Y-102441667D02*
X126083333Y-102441667D01*
X126654762Y-102727381D02*
X126321429Y-101727381D01*
X125988095Y-102727381D01*
X125654762Y-102727381D02*
X125654762Y-101727381D01*
X125416667Y-101727381D01*
X125273809Y-101775000D01*
X125178571Y-101870238D01*
X125130952Y-101965476D01*
X125083333Y-102155952D01*
X125083333Y-102298810D01*
X125130952Y-102489286D01*
X125178571Y-102584524D01*
X125273809Y-102679762D01*
X125416667Y-102727381D01*
X125654762Y-102727381D01*
X124702381Y-102441667D02*
X124226190Y-102441667D01*
X124797619Y-102727381D02*
X124464286Y-101727381D01*
X124130952Y-102727381D01*
X123797619Y-102727381D02*
X123797619Y-101727381D01*
X123464285Y-102441667D01*
X123130952Y-101727381D01*
X123130952Y-102727381D01*
X121369047Y-101775000D02*
X121464285Y-101727381D01*
X121607142Y-101727381D01*
X121750000Y-101775000D01*
X121845238Y-101870238D01*
X121892857Y-101965476D01*
X121940476Y-102155952D01*
X121940476Y-102298810D01*
X121892857Y-102489286D01*
X121845238Y-102584524D01*
X121750000Y-102679762D01*
X121607142Y-102727381D01*
X121511904Y-102727381D01*
X121369047Y-102679762D01*
X121321428Y-102632143D01*
X121321428Y-102298810D01*
X121511904Y-102298810D01*
X120321428Y-102727381D02*
X120654762Y-102251190D01*
X120892857Y-102727381D02*
X120892857Y-101727381D01*
X120511904Y-101727381D01*
X120416666Y-101775000D01*
X120369047Y-101822619D01*
X120321428Y-101917857D01*
X120321428Y-102060714D01*
X120369047Y-102155952D01*
X120416666Y-102203571D01*
X120511904Y-102251190D01*
X120892857Y-102251190D01*
X119892857Y-102203571D02*
X119559523Y-102203571D01*
X119416666Y-102727381D02*
X119892857Y-102727381D01*
X119892857Y-101727381D01*
X119416666Y-101727381D01*
X118988095Y-102727381D02*
X118988095Y-101727381D01*
X117988095Y-101775000D02*
X118083333Y-101727381D01*
X118226190Y-101727381D01*
X118369048Y-101775000D01*
X118464286Y-101870238D01*
X118511905Y-101965476D01*
X118559524Y-102155952D01*
X118559524Y-102298810D01*
X118511905Y-102489286D01*
X118464286Y-102584524D01*
X118369048Y-102679762D01*
X118226190Y-102727381D01*
X118130952Y-102727381D01*
X117988095Y-102679762D01*
X117940476Y-102632143D01*
X117940476Y-102298810D01*
X118130952Y-102298810D01*
D12*
X127321429Y-97928571D02*
X126464286Y-97928571D01*
X126892857Y-99428571D02*
X126892857Y-97928571D01*
X125964286Y-99428571D02*
X125964286Y-97928571D01*
X125964286Y-98642857D02*
X125107143Y-98642857D01*
X125107143Y-99428571D02*
X125107143Y-97928571D01*
X124392857Y-98642857D02*
X123892857Y-98642857D01*
X123678571Y-99428571D02*
X124392857Y-99428571D01*
X124392857Y-97928571D01*
X123678571Y-97928571D01*
X122821428Y-98785714D02*
X122892857Y-98857143D01*
X122821428Y-98928571D01*
X122750000Y-98857143D01*
X122821428Y-98785714D01*
X122821428Y-98928571D01*
X121107143Y-98000000D02*
X121250000Y-97928571D01*
X121464286Y-97928571D01*
X121678571Y-98000000D01*
X121821429Y-98142857D01*
X121892857Y-98285714D01*
X121964286Y-98571429D01*
X121964286Y-98785714D01*
X121892857Y-99071429D01*
X121821429Y-99214286D01*
X121678571Y-99357143D01*
X121464286Y-99428571D01*
X121321429Y-99428571D01*
X121107143Y-99357143D01*
X121035714Y-99285714D01*
X121035714Y-98785714D01*
X121321429Y-98785714D01*
X119535714Y-99428571D02*
X120035714Y-98714286D01*
X120392857Y-99428571D02*
X120392857Y-97928571D01*
X119821429Y-97928571D01*
X119678571Y-98000000D01*
X119607143Y-98071429D01*
X119535714Y-98214286D01*
X119535714Y-98428571D01*
X119607143Y-98571429D01*
X119678571Y-98642857D01*
X119821429Y-98714286D01*
X120392857Y-98714286D01*
X118892857Y-99428571D02*
X118892857Y-97928571D01*
X118178571Y-99428571D02*
X118178571Y-97928571D01*
X117821428Y-97928571D01*
X117607143Y-98000000D01*
X117464285Y-98142857D01*
X117392857Y-98285714D01*
X117321428Y-98571429D01*
X117321428Y-98785714D01*
X117392857Y-99071429D01*
X117464285Y-99214286D01*
X117607143Y-99357143D01*
X117821428Y-99428571D01*
X118178571Y-99428571D01*
D11*
X141892857Y-82202381D02*
X142226191Y-81726190D01*
X142464286Y-82202381D02*
X142464286Y-81202381D01*
X142083333Y-81202381D01*
X141988095Y-81250000D01*
X141940476Y-81297619D01*
X141892857Y-81392857D01*
X141892857Y-81535714D01*
X141940476Y-81630952D01*
X141988095Y-81678571D01*
X142083333Y-81726190D01*
X142464286Y-81726190D01*
X141083333Y-82154762D02*
X141178571Y-82202381D01*
X141369048Y-82202381D01*
X141464286Y-82154762D01*
X141511905Y-82059524D01*
X141511905Y-81678571D01*
X141464286Y-81583333D01*
X141369048Y-81535714D01*
X141178571Y-81535714D01*
X141083333Y-81583333D01*
X141035714Y-81678571D01*
X141035714Y-81773810D01*
X141511905Y-81869048D01*
X140702381Y-81535714D02*
X140464286Y-82202381D01*
X140226190Y-81535714D01*
X139845238Y-82202381D02*
X139845238Y-81535714D01*
X139845238Y-81202381D02*
X139892857Y-81250000D01*
X139845238Y-81297619D01*
X139797619Y-81250000D01*
X139845238Y-81202381D01*
X139845238Y-81297619D01*
X139416667Y-82154762D02*
X139321429Y-82202381D01*
X139130953Y-82202381D01*
X139035714Y-82154762D01*
X138988095Y-82059524D01*
X138988095Y-82011905D01*
X139035714Y-81916667D01*
X139130953Y-81869048D01*
X139273810Y-81869048D01*
X139369048Y-81821429D01*
X139416667Y-81726190D01*
X139416667Y-81678571D01*
X139369048Y-81583333D01*
X139273810Y-81535714D01*
X139130953Y-81535714D01*
X139035714Y-81583333D01*
X138559524Y-82202381D02*
X138559524Y-81535714D01*
X138559524Y-81202381D02*
X138607143Y-81250000D01*
X138559524Y-81297619D01*
X138511905Y-81250000D01*
X138559524Y-81202381D01*
X138559524Y-81297619D01*
X137940477Y-82202381D02*
X138035715Y-82154762D01*
X138083334Y-82107143D01*
X138130953Y-82011905D01*
X138130953Y-81726190D01*
X138083334Y-81630952D01*
X138035715Y-81583333D01*
X137940477Y-81535714D01*
X137797619Y-81535714D01*
X137702381Y-81583333D01*
X137654762Y-81630952D01*
X137607143Y-81726190D01*
X137607143Y-82011905D01*
X137654762Y-82107143D01*
X137702381Y-82154762D01*
X137797619Y-82202381D01*
X137940477Y-82202381D01*
X137178572Y-81535714D02*
X137178572Y-82202381D01*
X137178572Y-81630952D02*
X137130953Y-81583333D01*
X137035715Y-81535714D01*
X136892857Y-81535714D01*
X136797619Y-81583333D01*
X136750000Y-81678571D01*
X136750000Y-82202381D01*
X134988095Y-82202381D02*
X135559524Y-82202381D01*
X135273810Y-82202381D02*
X135273810Y-81202381D01*
X135369048Y-81345238D01*
X135464286Y-81440476D01*
X135559524Y-81488095D01*
X147357143Y-82797619D02*
X147309524Y-82750000D01*
X147214286Y-82702381D01*
X146976190Y-82702381D01*
X146880952Y-82750000D01*
X146833333Y-82797619D01*
X146785714Y-82892857D01*
X146785714Y-82988095D01*
X146833333Y-83130952D01*
X147404762Y-83702381D01*
X146785714Y-83702381D01*
X146166667Y-82702381D02*
X146071428Y-82702381D01*
X145976190Y-82750000D01*
X145928571Y-82797619D01*
X145880952Y-82892857D01*
X145833333Y-83083333D01*
X145833333Y-83321429D01*
X145880952Y-83511905D01*
X145928571Y-83607143D01*
X145976190Y-83654762D01*
X146071428Y-83702381D01*
X146166667Y-83702381D01*
X146261905Y-83654762D01*
X146309524Y-83607143D01*
X146357143Y-83511905D01*
X146404762Y-83321429D01*
X146404762Y-83083333D01*
X146357143Y-82892857D01*
X146309524Y-82797619D01*
X146261905Y-82750000D01*
X146166667Y-82702381D01*
X144880952Y-83702381D02*
X145452381Y-83702381D01*
X145166667Y-83702381D02*
X145166667Y-82702381D01*
X145261905Y-82845238D01*
X145357143Y-82940476D01*
X145452381Y-82988095D01*
X144023809Y-82702381D02*
X144214286Y-82702381D01*
X144309524Y-82750000D01*
X144357143Y-82797619D01*
X144452381Y-82940476D01*
X144500000Y-83130952D01*
X144500000Y-83511905D01*
X144452381Y-83607143D01*
X144404762Y-83654762D01*
X144309524Y-83702381D01*
X144119047Y-83702381D01*
X144023809Y-83654762D01*
X143976190Y-83607143D01*
X143928571Y-83511905D01*
X143928571Y-83273810D01*
X143976190Y-83178571D01*
X144023809Y-83130952D01*
X144119047Y-83083333D01*
X144309524Y-83083333D01*
X144404762Y-83130952D01*
X144452381Y-83178571D01*
X144500000Y-83273810D01*
X143500000Y-83321429D02*
X142738095Y-83321429D01*
X142071429Y-82702381D02*
X141976190Y-82702381D01*
X141880952Y-82750000D01*
X141833333Y-82797619D01*
X141785714Y-82892857D01*
X141738095Y-83083333D01*
X141738095Y-83321429D01*
X141785714Y-83511905D01*
X141833333Y-83607143D01*
X141880952Y-83654762D01*
X141976190Y-83702381D01*
X142071429Y-83702381D01*
X142166667Y-83654762D01*
X142214286Y-83607143D01*
X142261905Y-83511905D01*
X142309524Y-83321429D01*
X142309524Y-83083333D01*
X142261905Y-82892857D01*
X142214286Y-82797619D01*
X142166667Y-82750000D01*
X142071429Y-82702381D01*
X141404762Y-82702381D02*
X140785714Y-82702381D01*
X141119048Y-83083333D01*
X140976190Y-83083333D01*
X140880952Y-83130952D01*
X140833333Y-83178571D01*
X140785714Y-83273810D01*
X140785714Y-83511905D01*
X140833333Y-83607143D01*
X140880952Y-83654762D01*
X140976190Y-83702381D01*
X141261905Y-83702381D01*
X141357143Y-83654762D01*
X141404762Y-83607143D01*
X140357143Y-83321429D02*
X139595238Y-83321429D01*
X139166667Y-82797619D02*
X139119048Y-82750000D01*
X139023810Y-82702381D01*
X138785714Y-82702381D01*
X138690476Y-82750000D01*
X138642857Y-82797619D01*
X138595238Y-82892857D01*
X138595238Y-82988095D01*
X138642857Y-83130952D01*
X139214286Y-83702381D01*
X138595238Y-83702381D01*
X138023810Y-83130952D02*
X138119048Y-83083333D01*
X138166667Y-83035714D01*
X138214286Y-82940476D01*
X138214286Y-82892857D01*
X138166667Y-82797619D01*
X138119048Y-82750000D01*
X138023810Y-82702381D01*
X137833333Y-82702381D01*
X137738095Y-82750000D01*
X137690476Y-82797619D01*
X137642857Y-82892857D01*
X137642857Y-82940476D01*
X137690476Y-83035714D01*
X137738095Y-83083333D01*
X137833333Y-83130952D01*
X138023810Y-83130952D01*
X138119048Y-83178571D01*
X138166667Y-83226190D01*
X138214286Y-83321429D01*
X138214286Y-83511905D01*
X138166667Y-83607143D01*
X138119048Y-83654762D01*
X138023810Y-83702381D01*
X137833333Y-83702381D01*
X137738095Y-83654762D01*
X137690476Y-83607143D01*
X137642857Y-83511905D01*
X137642857Y-83321429D01*
X137690476Y-83226190D01*
X137738095Y-83178571D01*
X137833333Y-83130952D01*
X144369048Y-101177381D02*
X144369048Y-100177381D01*
X144130953Y-100177381D01*
X143988095Y-100225000D01*
X143892857Y-100320238D01*
X143845238Y-100415476D01*
X143797619Y-100605952D01*
X143797619Y-100748810D01*
X143845238Y-100939286D01*
X143892857Y-101034524D01*
X143988095Y-101129762D01*
X144130953Y-101177381D01*
X144369048Y-101177381D01*
X143416667Y-100891667D02*
X142940476Y-100891667D01*
X143511905Y-101177381D02*
X143178572Y-100177381D01*
X142845238Y-101177381D01*
X142654762Y-100177381D02*
X142321429Y-101177381D01*
X141988095Y-100177381D01*
X141654762Y-101177381D02*
X141654762Y-100177381D01*
X141178572Y-101177381D02*
X141178572Y-100177381D01*
X140940477Y-100177381D01*
X140797619Y-100225000D01*
X140702381Y-100320238D01*
X140654762Y-100415476D01*
X140607143Y-100605952D01*
X140607143Y-100748810D01*
X140654762Y-100939286D01*
X140702381Y-101034524D01*
X140797619Y-101129762D01*
X140940477Y-101177381D01*
X141178572Y-101177381D01*
X139559524Y-100177381D02*
X138988095Y-100177381D01*
X139273810Y-101177381D02*
X139273810Y-100177381D01*
X138654762Y-100177381D02*
X138654762Y-100986905D01*
X138607143Y-101082143D01*
X138559524Y-101129762D01*
X138464286Y-101177381D01*
X138273809Y-101177381D01*
X138178571Y-101129762D01*
X138130952Y-101082143D01*
X138083333Y-100986905D01*
X138083333Y-100177381D01*
X137035714Y-101177381D02*
X137369048Y-100701190D01*
X137607143Y-101177381D02*
X137607143Y-100177381D01*
X137226190Y-100177381D01*
X137130952Y-100225000D01*
X137083333Y-100272619D01*
X137035714Y-100367857D01*
X137035714Y-100510714D01*
X137083333Y-100605952D01*
X137130952Y-100653571D01*
X137226190Y-100701190D01*
X137607143Y-100701190D01*
X136607143Y-101177381D02*
X136607143Y-100177381D01*
X136035714Y-101177381D01*
X136035714Y-100177381D01*
X135559524Y-100653571D02*
X135226190Y-100653571D01*
X135083333Y-101177381D02*
X135559524Y-101177381D01*
X135559524Y-100177381D01*
X135083333Y-100177381D01*
X134083333Y-101177381D02*
X134416667Y-100701190D01*
X134654762Y-101177381D02*
X134654762Y-100177381D01*
X134273809Y-100177381D01*
X134178571Y-100225000D01*
X134130952Y-100272619D01*
X134083333Y-100367857D01*
X134083333Y-100510714D01*
X134130952Y-100605952D01*
X134178571Y-100653571D01*
X134273809Y-100701190D01*
X134654762Y-100701190D01*
X143559524Y-102441667D02*
X143083333Y-102441667D01*
X143654762Y-102727381D02*
X143321429Y-101727381D01*
X142988095Y-102727381D01*
X142654762Y-102727381D02*
X142654762Y-101727381D01*
X142416667Y-101727381D01*
X142273809Y-101775000D01*
X142178571Y-101870238D01*
X142130952Y-101965476D01*
X142083333Y-102155952D01*
X142083333Y-102298810D01*
X142130952Y-102489286D01*
X142178571Y-102584524D01*
X142273809Y-102679762D01*
X142416667Y-102727381D01*
X142654762Y-102727381D01*
X141702381Y-102441667D02*
X141226190Y-102441667D01*
X141797619Y-102727381D02*
X141464286Y-101727381D01*
X141130952Y-102727381D01*
X140797619Y-102727381D02*
X140797619Y-101727381D01*
X140464285Y-102441667D01*
X140130952Y-101727381D01*
X140130952Y-102727381D01*
X138369047Y-101775000D02*
X138464285Y-101727381D01*
X138607142Y-101727381D01*
X138750000Y-101775000D01*
X138845238Y-101870238D01*
X138892857Y-101965476D01*
X138940476Y-102155952D01*
X138940476Y-102298810D01*
X138892857Y-102489286D01*
X138845238Y-102584524D01*
X138750000Y-102679762D01*
X138607142Y-102727381D01*
X138511904Y-102727381D01*
X138369047Y-102679762D01*
X138321428Y-102632143D01*
X138321428Y-102298810D01*
X138511904Y-102298810D01*
X137321428Y-102727381D02*
X137654762Y-102251190D01*
X137892857Y-102727381D02*
X137892857Y-101727381D01*
X137511904Y-101727381D01*
X137416666Y-101775000D01*
X137369047Y-101822619D01*
X137321428Y-101917857D01*
X137321428Y-102060714D01*
X137369047Y-102155952D01*
X137416666Y-102203571D01*
X137511904Y-102251190D01*
X137892857Y-102251190D01*
X136892857Y-102203571D02*
X136559523Y-102203571D01*
X136416666Y-102727381D02*
X136892857Y-102727381D01*
X136892857Y-101727381D01*
X136416666Y-101727381D01*
X135988095Y-102727381D02*
X135988095Y-101727381D01*
X134988095Y-101775000D02*
X135083333Y-101727381D01*
X135226190Y-101727381D01*
X135369048Y-101775000D01*
X135464286Y-101870238D01*
X135511905Y-101965476D01*
X135559524Y-102155952D01*
X135559524Y-102298810D01*
X135511905Y-102489286D01*
X135464286Y-102584524D01*
X135369048Y-102679762D01*
X135226190Y-102727381D01*
X135130952Y-102727381D01*
X134988095Y-102679762D01*
X134940476Y-102632143D01*
X134940476Y-102298810D01*
X135130952Y-102298810D01*
D12*
X144321429Y-97928571D02*
X143464286Y-97928571D01*
X143892857Y-99428571D02*
X143892857Y-97928571D01*
X142964286Y-99428571D02*
X142964286Y-97928571D01*
X142964286Y-98642857D02*
X142107143Y-98642857D01*
X142107143Y-99428571D02*
X142107143Y-97928571D01*
X141392857Y-98642857D02*
X140892857Y-98642857D01*
X140678571Y-99428571D02*
X141392857Y-99428571D01*
X141392857Y-97928571D01*
X140678571Y-97928571D01*
X139821428Y-98785714D02*
X139892857Y-98857143D01*
X139821428Y-98928571D01*
X139750000Y-98857143D01*
X139821428Y-98785714D01*
X139821428Y-98928571D01*
X138107143Y-98000000D02*
X138250000Y-97928571D01*
X138464286Y-97928571D01*
X138678571Y-98000000D01*
X138821429Y-98142857D01*
X138892857Y-98285714D01*
X138964286Y-98571429D01*
X138964286Y-98785714D01*
X138892857Y-99071429D01*
X138821429Y-99214286D01*
X138678571Y-99357143D01*
X138464286Y-99428571D01*
X138321429Y-99428571D01*
X138107143Y-99357143D01*
X138035714Y-99285714D01*
X138035714Y-98785714D01*
X138321429Y-98785714D01*
X136535714Y-99428571D02*
X137035714Y-98714286D01*
X137392857Y-99428571D02*
X137392857Y-97928571D01*
X136821429Y-97928571D01*
X136678571Y-98000000D01*
X136607143Y-98071429D01*
X136535714Y-98214286D01*
X136535714Y-98428571D01*
X136607143Y-98571429D01*
X136678571Y-98642857D01*
X136821429Y-98714286D01*
X137392857Y-98714286D01*
X135892857Y-99428571D02*
X135892857Y-97928571D01*
X135178571Y-99428571D02*
X135178571Y-97928571D01*
X134821428Y-97928571D01*
X134607143Y-98000000D01*
X134464285Y-98142857D01*
X134392857Y-98285714D01*
X134321428Y-98571429D01*
X134321428Y-98785714D01*
X134392857Y-99071429D01*
X134464285Y-99214286D01*
X134607143Y-99357143D01*
X134821428Y-99428571D01*
X135178571Y-99428571D01*
D11*
X158892857Y-82202381D02*
X159226191Y-81726190D01*
X159464286Y-82202381D02*
X159464286Y-81202381D01*
X159083333Y-81202381D01*
X158988095Y-81250000D01*
X158940476Y-81297619D01*
X158892857Y-81392857D01*
X158892857Y-81535714D01*
X158940476Y-81630952D01*
X158988095Y-81678571D01*
X159083333Y-81726190D01*
X159464286Y-81726190D01*
X158083333Y-82154762D02*
X158178571Y-82202381D01*
X158369048Y-82202381D01*
X158464286Y-82154762D01*
X158511905Y-82059524D01*
X158511905Y-81678571D01*
X158464286Y-81583333D01*
X158369048Y-81535714D01*
X158178571Y-81535714D01*
X158083333Y-81583333D01*
X158035714Y-81678571D01*
X158035714Y-81773810D01*
X158511905Y-81869048D01*
X157702381Y-81535714D02*
X157464286Y-82202381D01*
X157226190Y-81535714D01*
X156845238Y-82202381D02*
X156845238Y-81535714D01*
X156845238Y-81202381D02*
X156892857Y-81250000D01*
X156845238Y-81297619D01*
X156797619Y-81250000D01*
X156845238Y-81202381D01*
X156845238Y-81297619D01*
X156416667Y-82154762D02*
X156321429Y-82202381D01*
X156130953Y-82202381D01*
X156035714Y-82154762D01*
X155988095Y-82059524D01*
X155988095Y-82011905D01*
X156035714Y-81916667D01*
X156130953Y-81869048D01*
X156273810Y-81869048D01*
X156369048Y-81821429D01*
X156416667Y-81726190D01*
X156416667Y-81678571D01*
X156369048Y-81583333D01*
X156273810Y-81535714D01*
X156130953Y-81535714D01*
X156035714Y-81583333D01*
X155559524Y-82202381D02*
X155559524Y-81535714D01*
X155559524Y-81202381D02*
X155607143Y-81250000D01*
X155559524Y-81297619D01*
X155511905Y-81250000D01*
X155559524Y-81202381D01*
X155559524Y-81297619D01*
X154940477Y-82202381D02*
X155035715Y-82154762D01*
X155083334Y-82107143D01*
X155130953Y-82011905D01*
X155130953Y-81726190D01*
X155083334Y-81630952D01*
X155035715Y-81583333D01*
X154940477Y-81535714D01*
X154797619Y-81535714D01*
X154702381Y-81583333D01*
X154654762Y-81630952D01*
X154607143Y-81726190D01*
X154607143Y-82011905D01*
X154654762Y-82107143D01*
X154702381Y-82154762D01*
X154797619Y-82202381D01*
X154940477Y-82202381D01*
X154178572Y-81535714D02*
X154178572Y-82202381D01*
X154178572Y-81630952D02*
X154130953Y-81583333D01*
X154035715Y-81535714D01*
X153892857Y-81535714D01*
X153797619Y-81583333D01*
X153750000Y-81678571D01*
X153750000Y-82202381D01*
X151988095Y-82202381D02*
X152559524Y-82202381D01*
X152273810Y-82202381D02*
X152273810Y-81202381D01*
X152369048Y-81345238D01*
X152464286Y-81440476D01*
X152559524Y-81488095D01*
X164357143Y-82797619D02*
X164309524Y-82750000D01*
X164214286Y-82702381D01*
X163976190Y-82702381D01*
X163880952Y-82750000D01*
X163833333Y-82797619D01*
X163785714Y-82892857D01*
X163785714Y-82988095D01*
X163833333Y-83130952D01*
X164404762Y-83702381D01*
X163785714Y-83702381D01*
X163166667Y-82702381D02*
X163071428Y-82702381D01*
X162976190Y-82750000D01*
X162928571Y-82797619D01*
X162880952Y-82892857D01*
X162833333Y-83083333D01*
X162833333Y-83321429D01*
X162880952Y-83511905D01*
X162928571Y-83607143D01*
X162976190Y-83654762D01*
X163071428Y-83702381D01*
X163166667Y-83702381D01*
X163261905Y-83654762D01*
X163309524Y-83607143D01*
X163357143Y-83511905D01*
X163404762Y-83321429D01*
X163404762Y-83083333D01*
X163357143Y-82892857D01*
X163309524Y-82797619D01*
X163261905Y-82750000D01*
X163166667Y-82702381D01*
X161880952Y-83702381D02*
X162452381Y-83702381D01*
X162166667Y-83702381D02*
X162166667Y-82702381D01*
X162261905Y-82845238D01*
X162357143Y-82940476D01*
X162452381Y-82988095D01*
X161023809Y-82702381D02*
X161214286Y-82702381D01*
X161309524Y-82750000D01*
X161357143Y-82797619D01*
X161452381Y-82940476D01*
X161500000Y-83130952D01*
X161500000Y-83511905D01*
X161452381Y-83607143D01*
X161404762Y-83654762D01*
X161309524Y-83702381D01*
X161119047Y-83702381D01*
X161023809Y-83654762D01*
X160976190Y-83607143D01*
X160928571Y-83511905D01*
X160928571Y-83273810D01*
X160976190Y-83178571D01*
X161023809Y-83130952D01*
X161119047Y-83083333D01*
X161309524Y-83083333D01*
X161404762Y-83130952D01*
X161452381Y-83178571D01*
X161500000Y-83273810D01*
X160500000Y-83321429D02*
X159738095Y-83321429D01*
X159071429Y-82702381D02*
X158976190Y-82702381D01*
X158880952Y-82750000D01*
X158833333Y-82797619D01*
X158785714Y-82892857D01*
X158738095Y-83083333D01*
X158738095Y-83321429D01*
X158785714Y-83511905D01*
X158833333Y-83607143D01*
X158880952Y-83654762D01*
X158976190Y-83702381D01*
X159071429Y-83702381D01*
X159166667Y-83654762D01*
X159214286Y-83607143D01*
X159261905Y-83511905D01*
X159309524Y-83321429D01*
X159309524Y-83083333D01*
X159261905Y-82892857D01*
X159214286Y-82797619D01*
X159166667Y-82750000D01*
X159071429Y-82702381D01*
X158404762Y-82702381D02*
X157785714Y-82702381D01*
X158119048Y-83083333D01*
X157976190Y-83083333D01*
X157880952Y-83130952D01*
X157833333Y-83178571D01*
X157785714Y-83273810D01*
X157785714Y-83511905D01*
X157833333Y-83607143D01*
X157880952Y-83654762D01*
X157976190Y-83702381D01*
X158261905Y-83702381D01*
X158357143Y-83654762D01*
X158404762Y-83607143D01*
X157357143Y-83321429D02*
X156595238Y-83321429D01*
X156166667Y-82797619D02*
X156119048Y-82750000D01*
X156023810Y-82702381D01*
X155785714Y-82702381D01*
X155690476Y-82750000D01*
X155642857Y-82797619D01*
X155595238Y-82892857D01*
X155595238Y-82988095D01*
X155642857Y-83130952D01*
X156214286Y-83702381D01*
X155595238Y-83702381D01*
X155023810Y-83130952D02*
X155119048Y-83083333D01*
X155166667Y-83035714D01*
X155214286Y-82940476D01*
X155214286Y-82892857D01*
X155166667Y-82797619D01*
X155119048Y-82750000D01*
X155023810Y-82702381D01*
X154833333Y-82702381D01*
X154738095Y-82750000D01*
X154690476Y-82797619D01*
X154642857Y-82892857D01*
X154642857Y-82940476D01*
X154690476Y-83035714D01*
X154738095Y-83083333D01*
X154833333Y-83130952D01*
X155023810Y-83130952D01*
X155119048Y-83178571D01*
X155166667Y-83226190D01*
X155214286Y-83321429D01*
X155214286Y-83511905D01*
X155166667Y-83607143D01*
X155119048Y-83654762D01*
X155023810Y-83702381D01*
X154833333Y-83702381D01*
X154738095Y-83654762D01*
X154690476Y-83607143D01*
X154642857Y-83511905D01*
X154642857Y-83321429D01*
X154690476Y-83226190D01*
X154738095Y-83178571D01*
X154833333Y-83130952D01*
X161369048Y-101177381D02*
X161369048Y-100177381D01*
X161130953Y-100177381D01*
X160988095Y-100225000D01*
X160892857Y-100320238D01*
X160845238Y-100415476D01*
X160797619Y-100605952D01*
X160797619Y-100748810D01*
X160845238Y-100939286D01*
X160892857Y-101034524D01*
X160988095Y-101129762D01*
X161130953Y-101177381D01*
X161369048Y-101177381D01*
X160416667Y-100891667D02*
X159940476Y-100891667D01*
X160511905Y-101177381D02*
X160178572Y-100177381D01*
X159845238Y-101177381D01*
X159654762Y-100177381D02*
X159321429Y-101177381D01*
X158988095Y-100177381D01*
X158654762Y-101177381D02*
X158654762Y-100177381D01*
X158178572Y-101177381D02*
X158178572Y-100177381D01*
X157940477Y-100177381D01*
X157797619Y-100225000D01*
X157702381Y-100320238D01*
X157654762Y-100415476D01*
X157607143Y-100605952D01*
X157607143Y-100748810D01*
X157654762Y-100939286D01*
X157702381Y-101034524D01*
X157797619Y-101129762D01*
X157940477Y-101177381D01*
X158178572Y-101177381D01*
X156559524Y-100177381D02*
X155988095Y-100177381D01*
X156273810Y-101177381D02*
X156273810Y-100177381D01*
X155654762Y-100177381D02*
X155654762Y-100986905D01*
X155607143Y-101082143D01*
X155559524Y-101129762D01*
X155464286Y-101177381D01*
X155273809Y-101177381D01*
X155178571Y-101129762D01*
X155130952Y-101082143D01*
X155083333Y-100986905D01*
X155083333Y-100177381D01*
X154035714Y-101177381D02*
X154369048Y-100701190D01*
X154607143Y-101177381D02*
X154607143Y-100177381D01*
X154226190Y-100177381D01*
X154130952Y-100225000D01*
X154083333Y-100272619D01*
X154035714Y-100367857D01*
X154035714Y-100510714D01*
X154083333Y-100605952D01*
X154130952Y-100653571D01*
X154226190Y-100701190D01*
X154607143Y-100701190D01*
X153607143Y-101177381D02*
X153607143Y-100177381D01*
X153035714Y-101177381D01*
X153035714Y-100177381D01*
X152559524Y-100653571D02*
X152226190Y-100653571D01*
X152083333Y-101177381D02*
X152559524Y-101177381D01*
X152559524Y-100177381D01*
X152083333Y-100177381D01*
X151083333Y-101177381D02*
X151416667Y-100701190D01*
X151654762Y-101177381D02*
X151654762Y-100177381D01*
X151273809Y-100177381D01*
X151178571Y-100225000D01*
X151130952Y-100272619D01*
X151083333Y-100367857D01*
X151083333Y-100510714D01*
X151130952Y-100605952D01*
X151178571Y-100653571D01*
X151273809Y-100701190D01*
X151654762Y-100701190D01*
X160559524Y-102441667D02*
X160083333Y-102441667D01*
X160654762Y-102727381D02*
X160321429Y-101727381D01*
X159988095Y-102727381D01*
X159654762Y-102727381D02*
X159654762Y-101727381D01*
X159416667Y-101727381D01*
X159273809Y-101775000D01*
X159178571Y-101870238D01*
X159130952Y-101965476D01*
X159083333Y-102155952D01*
X159083333Y-102298810D01*
X159130952Y-102489286D01*
X159178571Y-102584524D01*
X159273809Y-102679762D01*
X159416667Y-102727381D01*
X159654762Y-102727381D01*
X158702381Y-102441667D02*
X158226190Y-102441667D01*
X158797619Y-102727381D02*
X158464286Y-101727381D01*
X158130952Y-102727381D01*
X157797619Y-102727381D02*
X157797619Y-101727381D01*
X157464285Y-102441667D01*
X157130952Y-101727381D01*
X157130952Y-102727381D01*
X155369047Y-101775000D02*
X155464285Y-101727381D01*
X155607142Y-101727381D01*
X155750000Y-101775000D01*
X155845238Y-101870238D01*
X155892857Y-101965476D01*
X155940476Y-102155952D01*
X155940476Y-102298810D01*
X155892857Y-102489286D01*
X155845238Y-102584524D01*
X155750000Y-102679762D01*
X155607142Y-102727381D01*
X155511904Y-102727381D01*
X155369047Y-102679762D01*
X155321428Y-102632143D01*
X155321428Y-102298810D01*
X155511904Y-102298810D01*
X154321428Y-102727381D02*
X154654762Y-102251190D01*
X154892857Y-102727381D02*
X154892857Y-101727381D01*
X154511904Y-101727381D01*
X154416666Y-101775000D01*
X154369047Y-101822619D01*
X154321428Y-101917857D01*
X154321428Y-102060714D01*
X154369047Y-102155952D01*
X154416666Y-102203571D01*
X154511904Y-102251190D01*
X154892857Y-102251190D01*
X153892857Y-102203571D02*
X153559523Y-102203571D01*
X153416666Y-102727381D02*
X153892857Y-102727381D01*
X153892857Y-101727381D01*
X153416666Y-101727381D01*
X152988095Y-102727381D02*
X152988095Y-101727381D01*
X151988095Y-101775000D02*
X152083333Y-101727381D01*
X152226190Y-101727381D01*
X152369048Y-101775000D01*
X152464286Y-101870238D01*
X152511905Y-101965476D01*
X152559524Y-102155952D01*
X152559524Y-102298810D01*
X152511905Y-102489286D01*
X152464286Y-102584524D01*
X152369048Y-102679762D01*
X152226190Y-102727381D01*
X152130952Y-102727381D01*
X151988095Y-102679762D01*
X151940476Y-102632143D01*
X151940476Y-102298810D01*
X152130952Y-102298810D01*
D12*
X161321429Y-97928571D02*
X160464286Y-97928571D01*
X160892857Y-99428571D02*
X160892857Y-97928571D01*
X159964286Y-99428571D02*
X159964286Y-97928571D01*
X159964286Y-98642857D02*
X159107143Y-98642857D01*
X159107143Y-99428571D02*
X159107143Y-97928571D01*
X158392857Y-98642857D02*
X157892857Y-98642857D01*
X157678571Y-99428571D02*
X158392857Y-99428571D01*
X158392857Y-97928571D01*
X157678571Y-97928571D01*
X156821428Y-98785714D02*
X156892857Y-98857143D01*
X156821428Y-98928571D01*
X156750000Y-98857143D01*
X156821428Y-98785714D01*
X156821428Y-98928571D01*
X155107143Y-98000000D02*
X155250000Y-97928571D01*
X155464286Y-97928571D01*
X155678571Y-98000000D01*
X155821429Y-98142857D01*
X155892857Y-98285714D01*
X155964286Y-98571429D01*
X155964286Y-98785714D01*
X155892857Y-99071429D01*
X155821429Y-99214286D01*
X155678571Y-99357143D01*
X155464286Y-99428571D01*
X155321429Y-99428571D01*
X155107143Y-99357143D01*
X155035714Y-99285714D01*
X155035714Y-98785714D01*
X155321429Y-98785714D01*
X153535714Y-99428571D02*
X154035714Y-98714286D01*
X154392857Y-99428571D02*
X154392857Y-97928571D01*
X153821429Y-97928571D01*
X153678571Y-98000000D01*
X153607143Y-98071429D01*
X153535714Y-98214286D01*
X153535714Y-98428571D01*
X153607143Y-98571429D01*
X153678571Y-98642857D01*
X153821429Y-98714286D01*
X154392857Y-98714286D01*
X152892857Y-99428571D02*
X152892857Y-97928571D01*
X152178571Y-99428571D02*
X152178571Y-97928571D01*
X151821428Y-97928571D01*
X151607143Y-98000000D01*
X151464285Y-98142857D01*
X151392857Y-98285714D01*
X151321428Y-98571429D01*
X151321428Y-98785714D01*
X151392857Y-99071429D01*
X151464285Y-99214286D01*
X151607143Y-99357143D01*
X151821428Y-99428571D01*
X152178571Y-99428571D01*
D11*
X127250000Y-111250000D02*
X127250000Y-112250000D01*
X126750000Y-111750000D02*
X127750000Y-111750000D01*
X118750000Y-111750000D02*
X119750000Y-111750000D01*
X129050000Y-91000000D02*
G75*
G03X129050000Y-91000000I-6300000J0D01*
G01*
X127250000Y-111250000D02*
X127250000Y-112250000D01*
X126750000Y-111750000D02*
X127750000Y-111750000D01*
X118750000Y-111750000D02*
X119750000Y-111750000D01*
X129050000Y-91000000D02*
G75*
G03X129050000Y-91000000I-6300000J0D01*
G01*
X144250000Y-111250000D02*
X144250000Y-112250000D01*
X143750000Y-111750000D02*
X144750000Y-111750000D01*
X135750000Y-111750000D02*
X136750000Y-111750000D01*
X146050000Y-91000000D02*
G75*
G03X146050000Y-91000000I-6300000J0D01*
G01*
X161250000Y-111250000D02*
X161250000Y-112250000D01*
X160750000Y-111750000D02*
X161750000Y-111750000D01*
X152750000Y-111750000D02*
X153750000Y-111750000D01*
X163050000Y-91000000D02*
G75*
G03X163050000Y-91000000I-6300000J0D01*
G01*
M02*
