G04 #@! TF.FileFunction,Copper,L1,Top,Signal*
%FSLAX46Y46*%
G04 Gerber Fmt 4.6, Leading zero omitted, Abs format (unit mm)*
G04 Created by KiCad (PCBNEW 4.0.2-4+6225~38~ubuntu15.10.1-stable) date Mon 28 Mar 2016 15:26:53 BST*
%MOMM*%
G01*
G04 APERTURE LIST*
%ADD10C,0.100000*%
%ADD11R,0.600000X1.550000*%
%ADD12R,1.727200X2.032000*%
%ADD13O,1.727200X2.032000*%
%ADD14R,2.032000X1.727200*%
%ADD15O,2.032000X1.727200*%
%ADD16C,1.600000*%
%ADD17R,1.000000X0.950000*%
%ADD18C,0.600000*%
%ADD19C,0.250000*%
%ADD20C,0.500000*%
%ADD21C,0.400000*%
%ADD22C,0.254000*%
G04 APERTURE END LIST*
D10*
D11*
X72555000Y-88200000D03*
X73825000Y-88200000D03*
X75095000Y-88200000D03*
X76365000Y-88200000D03*
X77635000Y-88200000D03*
X78905000Y-88200000D03*
X80175000Y-88200000D03*
X81445000Y-88200000D03*
X81445000Y-82800000D03*
X80175000Y-82800000D03*
X78905000Y-82800000D03*
X77635000Y-82800000D03*
X76365000Y-82800000D03*
X75095000Y-82800000D03*
X73825000Y-82800000D03*
X72555000Y-82800000D03*
X87305000Y-88200000D03*
X88575000Y-88200000D03*
X89845000Y-88200000D03*
X91115000Y-88200000D03*
X92385000Y-88200000D03*
X93655000Y-88200000D03*
X94925000Y-88200000D03*
X96195000Y-88200000D03*
X96195000Y-82800000D03*
X94925000Y-82800000D03*
X93655000Y-82800000D03*
X92385000Y-82800000D03*
X91115000Y-82800000D03*
X89845000Y-82800000D03*
X88575000Y-82800000D03*
X87305000Y-82800000D03*
D12*
X73660000Y-111760000D03*
D13*
X76200000Y-111760000D03*
X78740000Y-111760000D03*
X81280000Y-111760000D03*
X83820000Y-111760000D03*
X86360000Y-111760000D03*
X88900000Y-111760000D03*
X91440000Y-111760000D03*
D12*
X109220000Y-111760000D03*
D13*
X106680000Y-111760000D03*
X104140000Y-111760000D03*
X101600000Y-111760000D03*
X99060000Y-111760000D03*
X96520000Y-111760000D03*
D12*
X87630000Y-63500000D03*
D13*
X85090000Y-63500000D03*
X82550000Y-63500000D03*
X80010000Y-63500000D03*
X77470000Y-63500000D03*
X74930000Y-63500000D03*
X72390000Y-63500000D03*
X69850000Y-63500000D03*
X67310000Y-63500000D03*
X64770000Y-63500000D03*
D12*
X109220000Y-63500000D03*
D13*
X106680000Y-63500000D03*
X104140000Y-63500000D03*
X101600000Y-63500000D03*
X99060000Y-63500000D03*
X96520000Y-63500000D03*
X93980000Y-63500000D03*
X91440000Y-63500000D03*
D14*
X73500000Y-68500000D03*
D15*
X73500000Y-71040000D03*
X73500000Y-73580000D03*
X73500000Y-76120000D03*
D16*
X78500000Y-95000000D03*
X80500000Y-95000000D03*
X85000000Y-95000000D03*
X87000000Y-95000000D03*
X65500000Y-95000000D03*
X67500000Y-95000000D03*
X72000000Y-95000000D03*
X74000000Y-95000000D03*
X91500000Y-95000000D03*
X93500000Y-95000000D03*
X98000000Y-95000000D03*
X100000000Y-95000000D03*
X104500000Y-95000000D03*
X106500000Y-95000000D03*
X102500000Y-74750000D03*
X102500000Y-72750000D03*
D17*
X85500000Y-82700000D03*
X85500000Y-84300000D03*
X70750000Y-82700000D03*
X70750000Y-84300000D03*
D18*
X73500000Y-90500000D03*
X82500000Y-95500000D03*
X80000000Y-93000000D03*
X77500000Y-90500000D03*
X93500000Y-86500000D03*
X96000000Y-85000000D03*
X89000000Y-86500000D03*
X73500000Y-86500000D03*
X77500000Y-84250000D03*
X75500000Y-84500000D03*
X78000000Y-86500000D03*
X76000000Y-93000000D03*
X69000000Y-93000000D03*
X70500000Y-90500000D03*
X69500000Y-87500000D03*
X73000000Y-93000000D03*
X64500000Y-93000000D03*
X95000000Y-95000000D03*
X90000000Y-95000000D03*
X65000000Y-100000000D03*
X70000000Y-100000000D03*
X75000000Y-100000000D03*
X80000000Y-100000000D03*
X105000000Y-100000000D03*
X100000000Y-100000000D03*
X95000000Y-100000000D03*
X90000000Y-100000000D03*
X85000000Y-100000000D03*
X85000000Y-110000000D03*
X80000000Y-110000000D03*
X75000000Y-110000000D03*
X70000000Y-110000000D03*
X65000000Y-110000000D03*
X65000000Y-105000000D03*
X70000000Y-105000000D03*
X75000000Y-105000000D03*
X80000000Y-105000000D03*
X110000000Y-95000000D03*
X110000000Y-100000000D03*
X110000000Y-105000000D03*
X105000000Y-105000000D03*
X100000000Y-105000000D03*
X95000000Y-105000000D03*
X90000000Y-105000000D03*
X85000000Y-105000000D03*
X90000000Y-110000000D03*
X95000000Y-110000000D03*
X100000000Y-110000000D03*
X105000000Y-110000000D03*
X110000000Y-110000000D03*
X82500000Y-90000000D03*
X70000000Y-70000000D03*
X65000000Y-70000000D03*
X65000000Y-75000000D03*
X70000000Y-75000000D03*
X65000000Y-90000000D03*
X65000000Y-85000000D03*
X65000000Y-80000000D03*
X92500000Y-84250000D03*
X90000000Y-84500000D03*
X95000000Y-80000000D03*
X100000000Y-80000000D03*
X105000000Y-75000000D03*
X110000000Y-75000000D03*
X110000000Y-70000000D03*
X105000000Y-70000000D03*
X85000000Y-70000000D03*
X90000000Y-70000000D03*
X95000000Y-70000000D03*
X85000000Y-80000000D03*
X80000000Y-80000000D03*
X80000000Y-75000000D03*
X85000000Y-75000000D03*
X90000000Y-75000000D03*
X96250000Y-86750000D03*
X85500000Y-85500000D03*
X81250000Y-86750000D03*
X70750000Y-85500000D03*
X91000000Y-90000000D03*
X93000000Y-92000000D03*
X87500000Y-90000000D03*
X82500000Y-85000000D03*
X100000000Y-85000000D03*
X100000000Y-90000000D03*
X100000000Y-95000000D03*
X105000000Y-95000000D03*
D19*
X88500000Y-81250000D02*
X88500000Y-81750000D01*
X88500000Y-81750000D02*
X88500000Y-83000000D01*
X88000000Y-81250000D02*
X88500000Y-81250000D01*
X88500000Y-81250000D02*
X88930000Y-81250000D01*
X81445000Y-82800000D02*
X81445000Y-81805000D01*
X82000000Y-81250000D02*
X87500000Y-81250000D01*
X81445000Y-81805000D02*
X82000000Y-81250000D01*
X87500000Y-81250000D02*
X88000000Y-81250000D01*
X88930000Y-81250000D02*
X106680000Y-63500000D01*
X106680000Y-63500000D02*
X106680000Y-63570000D01*
X96195000Y-82800000D02*
X96195000Y-83305000D01*
X96195000Y-83305000D02*
X94000000Y-85500000D01*
X88000000Y-85500000D02*
X94000000Y-85500000D01*
X94925000Y-86425000D02*
X94925000Y-88200000D01*
X94000000Y-85500000D02*
X94925000Y-86425000D01*
X88575000Y-82800000D02*
X88575000Y-84925000D01*
X87305000Y-86195000D02*
X87305000Y-88200000D01*
X88575000Y-84925000D02*
X88000000Y-85500000D01*
X88000000Y-85500000D02*
X87305000Y-86195000D01*
X88500000Y-82750000D02*
X88575000Y-82800000D01*
X88500000Y-83000000D02*
X88575000Y-82800000D01*
X106750000Y-63500000D02*
X106680000Y-63500000D01*
X79500000Y-85250000D02*
X80500000Y-84250000D01*
X80500000Y-84250000D02*
X81500000Y-83250000D01*
X81500000Y-83250000D02*
X81500000Y-82750000D01*
X81500000Y-82750000D02*
X81445000Y-82800000D01*
X73250000Y-85250000D02*
X79500000Y-85250000D01*
X80250000Y-86000000D02*
X80250000Y-88000000D01*
X79500000Y-85250000D02*
X80250000Y-86000000D01*
X80250000Y-88000000D02*
X80175000Y-88200000D01*
X73825000Y-82800000D02*
X73825000Y-84675000D01*
X72500000Y-86000000D02*
X72500000Y-88250000D01*
X73825000Y-84675000D02*
X73250000Y-85250000D01*
X73250000Y-85250000D02*
X72500000Y-86000000D01*
X72500000Y-88250000D02*
X72555000Y-88200000D01*
X73825000Y-88200000D02*
X73825000Y-89575000D01*
X73825000Y-89575000D02*
X78500000Y-94250000D01*
X78500000Y-94250000D02*
X78500000Y-95000000D01*
X73825000Y-88200000D02*
X73825000Y-88825000D01*
X75095000Y-88200000D02*
X75095000Y-89595000D01*
X75095000Y-89595000D02*
X80500000Y-95000000D01*
D20*
X81250000Y-98250000D02*
X81250000Y-99750000D01*
X81250000Y-99750000D02*
X81250000Y-102500000D01*
X81250000Y-102500000D02*
X81250000Y-102750000D01*
X77000000Y-95500000D02*
X79750000Y-98250000D01*
X69500000Y-83000000D02*
X69500000Y-85500000D01*
X69500000Y-83000000D02*
X69750000Y-82750000D01*
X70750000Y-82750000D02*
X69750000Y-82750000D01*
X77000000Y-95250000D02*
X77000000Y-95500000D01*
X70500000Y-88750000D02*
X77000000Y-95250000D01*
X70500000Y-86750000D02*
X70500000Y-88750000D01*
X69500000Y-85750000D02*
X70500000Y-86750000D01*
X69500000Y-85500000D02*
X69500000Y-85750000D01*
X88500000Y-93250000D02*
X88500000Y-95500000D01*
X84250000Y-89000000D02*
X84250000Y-83000000D01*
X84250000Y-83000000D02*
X84500000Y-82750000D01*
X84500000Y-82750000D02*
X85500000Y-82750000D01*
X84250000Y-89000000D02*
X88500000Y-93250000D01*
X85750000Y-98250000D02*
X88500000Y-95500000D01*
X79750000Y-98250000D02*
X81250000Y-98250000D01*
X81250000Y-98250000D02*
X85750000Y-98250000D01*
D21*
X87305000Y-82800000D02*
X85550000Y-82800000D01*
X85550000Y-82800000D02*
X85500000Y-82750000D01*
X85500000Y-82750000D02*
X85500000Y-82700000D01*
D20*
X81280000Y-102750000D02*
X81250000Y-102750000D01*
X81250000Y-102750000D02*
X81250000Y-102750000D01*
X85500000Y-82750000D02*
X85500000Y-82700000D01*
D21*
X72555000Y-82800000D02*
X70800000Y-82800000D01*
X70800000Y-82800000D02*
X70750000Y-82750000D01*
X70750000Y-82750000D02*
X70750000Y-82700000D01*
D20*
X81280000Y-111760000D02*
X81280000Y-102750000D01*
X81280000Y-102750000D02*
X81280000Y-102780000D01*
X70750000Y-82750000D02*
X70750000Y-82700000D01*
D19*
X77635000Y-88200000D02*
X77635000Y-88885000D01*
X77635000Y-88885000D02*
X83750000Y-95000000D01*
X83750000Y-95000000D02*
X85000000Y-95000000D01*
X78905000Y-88200000D02*
X78905000Y-88905000D01*
X78905000Y-88905000D02*
X83500000Y-93500000D01*
X83500000Y-93500000D02*
X85500000Y-93500000D01*
X85500000Y-93500000D02*
X87000000Y-95000000D01*
D20*
X77500000Y-90500000D02*
X80000000Y-93000000D01*
X89000000Y-86500000D02*
X93500000Y-86500000D01*
X78000000Y-86500000D02*
X73500000Y-86500000D01*
D19*
X77500000Y-84250000D02*
X75750000Y-84250000D01*
X77635000Y-84115000D02*
X77500000Y-84250000D01*
X77635000Y-84115000D02*
X77635000Y-82800000D01*
X75750000Y-84250000D02*
X75500000Y-84500000D01*
D20*
X73000000Y-93000000D02*
X70500000Y-90500000D01*
D19*
X70000000Y-100000000D02*
X75000000Y-100000000D01*
X65000000Y-105000000D02*
X65000000Y-100000000D01*
D20*
X95000000Y-100000000D02*
X100000000Y-100000000D01*
X85000000Y-100000000D02*
X90000000Y-100000000D01*
D19*
X80000000Y-110000000D02*
X75000000Y-110000000D01*
X70000000Y-110000000D02*
X65000000Y-110000000D01*
X65000000Y-105000000D02*
X70000000Y-105000000D01*
X75000000Y-105000000D02*
X80000000Y-105000000D01*
X90000000Y-110000000D02*
X85000000Y-110000000D01*
X110000000Y-100000000D02*
X110000000Y-95000000D01*
X105000000Y-105000000D02*
X110000000Y-105000000D01*
X95000000Y-105000000D02*
X100000000Y-105000000D01*
X85000000Y-105000000D02*
X90000000Y-105000000D01*
X88900000Y-111760000D02*
X88900000Y-111100000D01*
X88900000Y-111100000D02*
X90000000Y-110000000D01*
X95000000Y-110000000D02*
X100000000Y-110000000D01*
X105000000Y-110000000D02*
X110000000Y-110000000D01*
X71500000Y-68500000D02*
X70000000Y-70000000D01*
X71500000Y-68500000D02*
X73500000Y-68500000D01*
X65000000Y-70000000D02*
X65000000Y-75000000D01*
X70000000Y-75000000D02*
X65000000Y-80000000D01*
X65000000Y-85000000D02*
X65000000Y-90000000D01*
X92385000Y-84135000D02*
X92500000Y-84250000D01*
X92385000Y-82800000D02*
X92385000Y-84135000D01*
X95000000Y-80000000D02*
X100000000Y-80000000D01*
X110000000Y-75000000D02*
X105000000Y-75000000D01*
X105000000Y-70000000D02*
X110000000Y-70000000D01*
X95000000Y-70000000D02*
X90000000Y-75000000D01*
X85000000Y-70000000D02*
X90000000Y-70000000D01*
X80000000Y-80000000D02*
X85000000Y-80000000D01*
X85000000Y-75000000D02*
X80000000Y-75000000D01*
X96195000Y-88200000D02*
X96195000Y-86805000D01*
X96195000Y-86805000D02*
X96250000Y-86750000D01*
D21*
X85500000Y-84300000D02*
X85500000Y-85500000D01*
D19*
X81445000Y-88200000D02*
X81445000Y-86945000D01*
X81445000Y-86945000D02*
X81250000Y-86750000D01*
D21*
X70750000Y-84300000D02*
X70750000Y-85500000D01*
D19*
X100000000Y-85000000D02*
X100000000Y-90000000D01*
X67250000Y-82000000D02*
X67250000Y-93250000D01*
X78000000Y-80000000D02*
X69250000Y-80000000D01*
X69250000Y-80000000D02*
X67250000Y-82000000D01*
X80175000Y-82175000D02*
X78000000Y-80000000D01*
X67250000Y-93250000D02*
X65500000Y-95000000D01*
X80175000Y-82800000D02*
X80175000Y-82175000D01*
X67750000Y-94750000D02*
X67750000Y-82250000D01*
X69500000Y-80500000D02*
X67750000Y-82250000D01*
X77250000Y-80500000D02*
X69500000Y-80500000D01*
X77250000Y-80500000D02*
X78905000Y-82155000D01*
X67750000Y-94750000D02*
X67500000Y-95000000D01*
X78905000Y-82800000D02*
X78905000Y-82155000D01*
X68250000Y-82500000D02*
X68250000Y-90000000D01*
X69750000Y-81000000D02*
X68250000Y-82500000D01*
X75250000Y-81000000D02*
X69750000Y-81000000D01*
X76365000Y-82115000D02*
X75250000Y-81000000D01*
X72000000Y-93750000D02*
X72000000Y-95000000D01*
X68250000Y-90000000D02*
X72000000Y-93750000D01*
X76365000Y-82800000D02*
X76365000Y-82115000D01*
X68750000Y-82750000D02*
X68750000Y-87250000D01*
X75095000Y-82800000D02*
X75095000Y-81845000D01*
X70000000Y-81500000D02*
X68750000Y-82750000D01*
X74750000Y-81500000D02*
X70000000Y-81500000D01*
X75095000Y-81845000D02*
X74750000Y-81500000D01*
X68750000Y-89750000D02*
X74000000Y-95000000D01*
X68750000Y-87250000D02*
X68750000Y-89750000D01*
X88575000Y-88200000D02*
X88575000Y-90825000D01*
X91500000Y-93750000D02*
X91500000Y-95000000D01*
X88575000Y-90825000D02*
X91500000Y-93750000D01*
X89845000Y-88200000D02*
X89845000Y-91345000D01*
X89845000Y-91345000D02*
X93500000Y-95000000D01*
X92385000Y-88200000D02*
X92385000Y-88635000D01*
X92385000Y-88635000D02*
X98000000Y-94250000D01*
X98000000Y-94250000D02*
X98000000Y-95000000D01*
X93655000Y-88200000D02*
X93655000Y-88655000D01*
X93655000Y-88655000D02*
X100000000Y-95000000D01*
X97500000Y-82000000D02*
X97500000Y-90000000D01*
X94925000Y-81825000D02*
X95250000Y-81500000D01*
X95250000Y-81500000D02*
X97000000Y-81500000D01*
X97000000Y-81500000D02*
X97500000Y-82000000D01*
X94925000Y-82800000D02*
X94925000Y-81825000D01*
X102500000Y-95000000D02*
X104500000Y-95000000D01*
X97500000Y-90000000D02*
X102500000Y-95000000D01*
X98000000Y-81750000D02*
X98000000Y-89750000D01*
X97250000Y-81000000D02*
X98000000Y-81750000D01*
X95000000Y-81000000D02*
X97250000Y-81000000D01*
X93655000Y-82345000D02*
X95000000Y-81000000D01*
X105250000Y-93750000D02*
X106500000Y-95000000D01*
X102000000Y-93750000D02*
X105250000Y-93750000D01*
X98000000Y-89750000D02*
X102000000Y-93750000D01*
X93655000Y-82800000D02*
X93655000Y-82345000D01*
X91115000Y-82800000D02*
X91115000Y-82135000D01*
X91115000Y-82135000D02*
X98500000Y-74750000D01*
X98500000Y-74750000D02*
X102500000Y-74750000D01*
X89845000Y-82800000D02*
X89845000Y-82405000D01*
X89845000Y-82405000D02*
X98000000Y-74250000D01*
X98000000Y-74250000D02*
X101000000Y-74250000D01*
X101000000Y-74250000D02*
X102500000Y-72750000D01*
X73500000Y-76120000D02*
X73500000Y-76000000D01*
X73500000Y-76000000D02*
X82550000Y-66950000D01*
X82550000Y-66950000D02*
X82550000Y-63500000D01*
X73500000Y-73580000D02*
X73920000Y-73580000D01*
X73920000Y-73580000D02*
X80010000Y-67490000D01*
X80010000Y-67490000D02*
X80010000Y-63500000D01*
X80080000Y-63580000D02*
X80000000Y-63500000D01*
X80000000Y-63500000D02*
X80010000Y-63500000D01*
X73500000Y-71040000D02*
X74460000Y-71040000D01*
X74460000Y-71040000D02*
X77470000Y-68030000D01*
X77470000Y-68030000D02*
X77470000Y-63500000D01*
D22*
G36*
X71487964Y-62149268D02*
X71098046Y-62585680D01*
X71000145Y-62865561D01*
X70996165Y-62845553D01*
X70727237Y-62443073D01*
X70324757Y-62174145D01*
X69850000Y-62079710D01*
X69375243Y-62174145D01*
X68972763Y-62443073D01*
X68703835Y-62845553D01*
X68609400Y-63320310D01*
X68609400Y-63679690D01*
X68703835Y-64154447D01*
X68972763Y-64556927D01*
X69375243Y-64825855D01*
X69850000Y-64920290D01*
X70324757Y-64825855D01*
X70727237Y-64556927D01*
X70996165Y-64154447D01*
X71000145Y-64134439D01*
X71098046Y-64414320D01*
X71487964Y-64850732D01*
X72015209Y-65104709D01*
X72030974Y-65107358D01*
X72263000Y-64986217D01*
X72263000Y-63627000D01*
X72243000Y-63627000D01*
X72243000Y-63373000D01*
X72263000Y-63373000D01*
X72263000Y-63353000D01*
X72517000Y-63353000D01*
X72517000Y-63373000D01*
X72537000Y-63373000D01*
X72537000Y-63627000D01*
X72517000Y-63627000D01*
X72517000Y-64986217D01*
X72749026Y-65107358D01*
X72764791Y-65104709D01*
X73292036Y-64850732D01*
X73681954Y-64414320D01*
X73779855Y-64134439D01*
X73783835Y-64154447D01*
X74052763Y-64556927D01*
X74455243Y-64825855D01*
X74930000Y-64920290D01*
X75404757Y-64825855D01*
X75807237Y-64556927D01*
X76076165Y-64154447D01*
X76170600Y-63679690D01*
X76170600Y-63320310D01*
X76076165Y-62845553D01*
X75807237Y-62443073D01*
X75404757Y-62174145D01*
X74930000Y-62079710D01*
X74455243Y-62174145D01*
X74052763Y-62443073D01*
X73783835Y-62845553D01*
X73779855Y-62865561D01*
X73681954Y-62585680D01*
X73292036Y-62149268D01*
X73079732Y-62047000D01*
X110673000Y-62047000D01*
X110673000Y-78923000D01*
X103505000Y-78923000D01*
X103332027Y-78957406D01*
X103185388Y-79055388D01*
X103087406Y-79202027D01*
X103053000Y-79375000D01*
X103053000Y-89535000D01*
X103087406Y-89707973D01*
X103185388Y-89854612D01*
X103332027Y-89952594D01*
X103505000Y-89987000D01*
X110673000Y-89987000D01*
X110673000Y-113213000D01*
X89589732Y-113213000D01*
X89802036Y-113110732D01*
X90191954Y-112674320D01*
X90289855Y-112394439D01*
X90293835Y-112414447D01*
X90562763Y-112816927D01*
X90965243Y-113085855D01*
X91440000Y-113180290D01*
X91914757Y-113085855D01*
X92317237Y-112816927D01*
X92586165Y-112414447D01*
X92680600Y-111939690D01*
X92680600Y-111580310D01*
X95279400Y-111580310D01*
X95279400Y-111939690D01*
X95373835Y-112414447D01*
X95642763Y-112816927D01*
X96045243Y-113085855D01*
X96520000Y-113180290D01*
X96994757Y-113085855D01*
X97397237Y-112816927D01*
X97666165Y-112414447D01*
X97760600Y-111939690D01*
X97760600Y-111580310D01*
X97819400Y-111580310D01*
X97819400Y-111939690D01*
X97913835Y-112414447D01*
X98182763Y-112816927D01*
X98585243Y-113085855D01*
X99060000Y-113180290D01*
X99534757Y-113085855D01*
X99937237Y-112816927D01*
X100206165Y-112414447D01*
X100300600Y-111939690D01*
X100300600Y-111580310D01*
X100359400Y-111580310D01*
X100359400Y-111939690D01*
X100453835Y-112414447D01*
X100722763Y-112816927D01*
X101125243Y-113085855D01*
X101600000Y-113180290D01*
X102074757Y-113085855D01*
X102477237Y-112816927D01*
X102746165Y-112414447D01*
X102840600Y-111939690D01*
X102840600Y-111580310D01*
X102899400Y-111580310D01*
X102899400Y-111939690D01*
X102993835Y-112414447D01*
X103262763Y-112816927D01*
X103665243Y-113085855D01*
X104140000Y-113180290D01*
X104614757Y-113085855D01*
X105017237Y-112816927D01*
X105286165Y-112414447D01*
X105380600Y-111939690D01*
X105380600Y-111580310D01*
X105439400Y-111580310D01*
X105439400Y-111939690D01*
X105533835Y-112414447D01*
X105802763Y-112816927D01*
X106205243Y-113085855D01*
X106680000Y-113180290D01*
X107154757Y-113085855D01*
X107557237Y-112816927D01*
X107826165Y-112414447D01*
X107920600Y-111939690D01*
X107920600Y-111580310D01*
X107826165Y-111105553D01*
X107584584Y-110744000D01*
X107972015Y-110744000D01*
X107972015Y-112776000D01*
X107998303Y-112915708D01*
X108080870Y-113044020D01*
X108206853Y-113130101D01*
X108356400Y-113160385D01*
X110083600Y-113160385D01*
X110223308Y-113134097D01*
X110351620Y-113051530D01*
X110437701Y-112925547D01*
X110467985Y-112776000D01*
X110467985Y-110744000D01*
X110441697Y-110604292D01*
X110359130Y-110475980D01*
X110233147Y-110389899D01*
X110083600Y-110359615D01*
X108356400Y-110359615D01*
X108216692Y-110385903D01*
X108088380Y-110468470D01*
X108002299Y-110594453D01*
X107972015Y-110744000D01*
X107584584Y-110744000D01*
X107557237Y-110703073D01*
X107154757Y-110434145D01*
X106680000Y-110339710D01*
X106205243Y-110434145D01*
X105802763Y-110703073D01*
X105533835Y-111105553D01*
X105439400Y-111580310D01*
X105380600Y-111580310D01*
X105286165Y-111105553D01*
X105017237Y-110703073D01*
X104614757Y-110434145D01*
X104140000Y-110339710D01*
X103665243Y-110434145D01*
X103262763Y-110703073D01*
X102993835Y-111105553D01*
X102899400Y-111580310D01*
X102840600Y-111580310D01*
X102746165Y-111105553D01*
X102477237Y-110703073D01*
X102074757Y-110434145D01*
X101600000Y-110339710D01*
X101125243Y-110434145D01*
X100722763Y-110703073D01*
X100453835Y-111105553D01*
X100359400Y-111580310D01*
X100300600Y-111580310D01*
X100206165Y-111105553D01*
X99937237Y-110703073D01*
X99534757Y-110434145D01*
X99060000Y-110339710D01*
X98585243Y-110434145D01*
X98182763Y-110703073D01*
X97913835Y-111105553D01*
X97819400Y-111580310D01*
X97760600Y-111580310D01*
X97666165Y-111105553D01*
X97397237Y-110703073D01*
X96994757Y-110434145D01*
X96520000Y-110339710D01*
X96045243Y-110434145D01*
X95642763Y-110703073D01*
X95373835Y-111105553D01*
X95279400Y-111580310D01*
X92680600Y-111580310D01*
X92586165Y-111105553D01*
X92317237Y-110703073D01*
X91914757Y-110434145D01*
X91440000Y-110339710D01*
X90965243Y-110434145D01*
X90562763Y-110703073D01*
X90293835Y-111105553D01*
X90289855Y-111125561D01*
X90191954Y-110845680D01*
X89802036Y-110409268D01*
X89274791Y-110155291D01*
X89259026Y-110152642D01*
X89027000Y-110273783D01*
X89027000Y-111633000D01*
X89047000Y-111633000D01*
X89047000Y-111887000D01*
X89027000Y-111887000D01*
X89027000Y-111907000D01*
X88773000Y-111907000D01*
X88773000Y-111887000D01*
X86487000Y-111887000D01*
X86487000Y-111907000D01*
X86233000Y-111907000D01*
X86233000Y-111887000D01*
X86213000Y-111887000D01*
X86213000Y-111633000D01*
X86233000Y-111633000D01*
X86233000Y-110273783D01*
X86487000Y-110273783D01*
X86487000Y-111633000D01*
X88773000Y-111633000D01*
X88773000Y-110273783D01*
X88540974Y-110152642D01*
X88525209Y-110155291D01*
X87997964Y-110409268D01*
X87630000Y-110821108D01*
X87262036Y-110409268D01*
X86734791Y-110155291D01*
X86719026Y-110152642D01*
X86487000Y-110273783D01*
X86233000Y-110273783D01*
X86000974Y-110152642D01*
X85985209Y-110155291D01*
X85457964Y-110409268D01*
X85068046Y-110845680D01*
X84970145Y-111125561D01*
X84966165Y-111105553D01*
X84697237Y-110703073D01*
X84294757Y-110434145D01*
X83820000Y-110339710D01*
X83345243Y-110434145D01*
X82942763Y-110703073D01*
X82673835Y-111105553D01*
X82579400Y-111580310D01*
X82579400Y-111939690D01*
X82673835Y-112414447D01*
X82942763Y-112816927D01*
X83345243Y-113085855D01*
X83820000Y-113180290D01*
X84294757Y-113085855D01*
X84697237Y-112816927D01*
X84966165Y-112414447D01*
X84970145Y-112394439D01*
X85068046Y-112674320D01*
X85457964Y-113110732D01*
X85670268Y-113213000D01*
X63317000Y-113213000D01*
X63317000Y-110744000D01*
X72412015Y-110744000D01*
X72412015Y-112776000D01*
X72438303Y-112915708D01*
X72520870Y-113044020D01*
X72646853Y-113130101D01*
X72796400Y-113160385D01*
X74523600Y-113160385D01*
X74663308Y-113134097D01*
X74791620Y-113051530D01*
X74877701Y-112925547D01*
X74907985Y-112776000D01*
X74907985Y-111580310D01*
X74959400Y-111580310D01*
X74959400Y-111939690D01*
X75053835Y-112414447D01*
X75322763Y-112816927D01*
X75725243Y-113085855D01*
X76200000Y-113180290D01*
X76674757Y-113085855D01*
X77077237Y-112816927D01*
X77346165Y-112414447D01*
X77440600Y-111939690D01*
X77440600Y-111580310D01*
X77499400Y-111580310D01*
X77499400Y-111939690D01*
X77593835Y-112414447D01*
X77862763Y-112816927D01*
X78265243Y-113085855D01*
X78740000Y-113180290D01*
X79214757Y-113085855D01*
X79617237Y-112816927D01*
X79886165Y-112414447D01*
X79980600Y-111939690D01*
X79980600Y-111580310D01*
X79886165Y-111105553D01*
X79617237Y-110703073D01*
X79214757Y-110434145D01*
X78740000Y-110339710D01*
X78265243Y-110434145D01*
X77862763Y-110703073D01*
X77593835Y-111105553D01*
X77499400Y-111580310D01*
X77440600Y-111580310D01*
X77346165Y-111105553D01*
X77077237Y-110703073D01*
X76674757Y-110434145D01*
X76200000Y-110339710D01*
X75725243Y-110434145D01*
X75322763Y-110703073D01*
X75053835Y-111105553D01*
X74959400Y-111580310D01*
X74907985Y-111580310D01*
X74907985Y-110744000D01*
X74881697Y-110604292D01*
X74799130Y-110475980D01*
X74673147Y-110389899D01*
X74523600Y-110359615D01*
X72796400Y-110359615D01*
X72656692Y-110385903D01*
X72528380Y-110468470D01*
X72442299Y-110594453D01*
X72412015Y-110744000D01*
X63317000Y-110744000D01*
X63317000Y-97798702D01*
X63445851Y-97927778D01*
X63804810Y-98076830D01*
X64193485Y-98077170D01*
X64552703Y-97928744D01*
X64827778Y-97654149D01*
X64976830Y-97295190D01*
X64976831Y-97293485D01*
X68022830Y-97293485D01*
X68171256Y-97652703D01*
X68445851Y-97927778D01*
X68804810Y-98076830D01*
X69193485Y-98077170D01*
X69552703Y-97928744D01*
X69750103Y-97731688D01*
X69945851Y-97927778D01*
X70304810Y-98076830D01*
X70693485Y-98077170D01*
X71052703Y-97928744D01*
X71327778Y-97654149D01*
X71476830Y-97295190D01*
X71477170Y-96906515D01*
X71328744Y-96547297D01*
X71054149Y-96272222D01*
X70695190Y-96123170D01*
X70306515Y-96122830D01*
X69947297Y-96271256D01*
X69749897Y-96468312D01*
X69554149Y-96272222D01*
X69195190Y-96123170D01*
X68806515Y-96122830D01*
X68447297Y-96271256D01*
X68172222Y-96545851D01*
X68023170Y-96904810D01*
X68022830Y-97293485D01*
X64976831Y-97293485D01*
X64977170Y-96906515D01*
X64828744Y-96547297D01*
X64554149Y-96272222D01*
X64195190Y-96123170D01*
X63806515Y-96122830D01*
X63447297Y-96271256D01*
X63317000Y-96401326D01*
X63317000Y-95233093D01*
X64322796Y-95233093D01*
X64501606Y-95665846D01*
X64832412Y-95997230D01*
X65264853Y-96176795D01*
X65733093Y-96177204D01*
X66165846Y-95998394D01*
X66497230Y-95667588D01*
X66499784Y-95661437D01*
X66501606Y-95665846D01*
X66832412Y-95997230D01*
X67264853Y-96176795D01*
X67733093Y-96177204D01*
X68165846Y-95998394D01*
X68497230Y-95667588D01*
X68676795Y-95235147D01*
X68677204Y-94766907D01*
X68498394Y-94334154D01*
X68252000Y-94087329D01*
X68252000Y-90711936D01*
X71480996Y-93940932D01*
X71334154Y-94001606D01*
X71002770Y-94332412D01*
X70823205Y-94764853D01*
X70822796Y-95233093D01*
X71001606Y-95665846D01*
X71332412Y-95997230D01*
X71764853Y-96176795D01*
X72233093Y-96177204D01*
X72665846Y-95998394D01*
X72997230Y-95667588D01*
X72999784Y-95661437D01*
X73001606Y-95665846D01*
X73332412Y-95997230D01*
X73764853Y-96176795D01*
X74233093Y-96177204D01*
X74665846Y-95998394D01*
X74997230Y-95667588D01*
X75176795Y-95235147D01*
X75177204Y-94766907D01*
X74998394Y-94334154D01*
X74667588Y-94002770D01*
X74235147Y-93823205D01*
X73766907Y-93822796D01*
X73601200Y-93891265D01*
X69252000Y-89542064D01*
X69252000Y-86388712D01*
X69873000Y-87009712D01*
X69873000Y-88750000D01*
X69920728Y-88989943D01*
X70015121Y-89131212D01*
X70056644Y-89193356D01*
X76375412Y-95512124D01*
X76420728Y-95739943D01*
X76556644Y-95943356D01*
X76756701Y-96143413D01*
X76447297Y-96271256D01*
X76249897Y-96468312D01*
X76054149Y-96272222D01*
X75695190Y-96123170D01*
X75306515Y-96122830D01*
X74947297Y-96271256D01*
X74672222Y-96545851D01*
X74523170Y-96904810D01*
X74522830Y-97293485D01*
X74671256Y-97652703D01*
X74945851Y-97927778D01*
X75304810Y-98076830D01*
X75693485Y-98077170D01*
X76052703Y-97928744D01*
X76250103Y-97731688D01*
X76445851Y-97927778D01*
X76804810Y-98076830D01*
X77193485Y-98077170D01*
X77552703Y-97928744D01*
X77827778Y-97654149D01*
X77956775Y-97343487D01*
X79306644Y-98693356D01*
X79510057Y-98829272D01*
X79750000Y-98877000D01*
X80623000Y-98877000D01*
X80623000Y-102750000D01*
X80653000Y-102900819D01*
X80653000Y-110535870D01*
X80402763Y-110703073D01*
X80133835Y-111105553D01*
X80039400Y-111580310D01*
X80039400Y-111939690D01*
X80133835Y-112414447D01*
X80402763Y-112816927D01*
X80805243Y-113085855D01*
X81280000Y-113180290D01*
X81754757Y-113085855D01*
X82157237Y-112816927D01*
X82426165Y-112414447D01*
X82520600Y-111939690D01*
X82520600Y-111580310D01*
X82426165Y-111105553D01*
X82157237Y-110703073D01*
X81907000Y-110535870D01*
X81907000Y-102750000D01*
X81877000Y-102599181D01*
X81877000Y-98877000D01*
X85750000Y-98877000D01*
X85989943Y-98829272D01*
X86193356Y-98693356D01*
X87543413Y-97343299D01*
X87671256Y-97652703D01*
X87945851Y-97927778D01*
X88304810Y-98076830D01*
X88693485Y-98077170D01*
X89052703Y-97928744D01*
X89250103Y-97731688D01*
X89445851Y-97927778D01*
X89804810Y-98076830D01*
X90193485Y-98077170D01*
X90552703Y-97928744D01*
X90827778Y-97654149D01*
X90976830Y-97295190D01*
X90976831Y-97293485D01*
X94022830Y-97293485D01*
X94171256Y-97652703D01*
X94445851Y-97927778D01*
X94804810Y-98076830D01*
X95193485Y-98077170D01*
X95552703Y-97928744D01*
X95750103Y-97731688D01*
X95945851Y-97927778D01*
X96304810Y-98076830D01*
X96693485Y-98077170D01*
X97052703Y-97928744D01*
X97327778Y-97654149D01*
X97476830Y-97295190D01*
X97476831Y-97293485D01*
X100522830Y-97293485D01*
X100671256Y-97652703D01*
X100945851Y-97927778D01*
X101304810Y-98076830D01*
X101693485Y-98077170D01*
X102052703Y-97928744D01*
X102250103Y-97731688D01*
X102445851Y-97927778D01*
X102804810Y-98076830D01*
X103193485Y-98077170D01*
X103552703Y-97928744D01*
X103827778Y-97654149D01*
X103976830Y-97295190D01*
X103976831Y-97293485D01*
X107022830Y-97293485D01*
X107171256Y-97652703D01*
X107445851Y-97927778D01*
X107804810Y-98076830D01*
X108193485Y-98077170D01*
X108552703Y-97928744D01*
X108827778Y-97654149D01*
X108976830Y-97295190D01*
X108977170Y-96906515D01*
X108828744Y-96547297D01*
X108554149Y-96272222D01*
X108195190Y-96123170D01*
X107806515Y-96122830D01*
X107447297Y-96271256D01*
X107172222Y-96545851D01*
X107023170Y-96904810D01*
X107022830Y-97293485D01*
X103976831Y-97293485D01*
X103977170Y-96906515D01*
X103828744Y-96547297D01*
X103554149Y-96272222D01*
X103195190Y-96123170D01*
X102806515Y-96122830D01*
X102447297Y-96271256D01*
X102249897Y-96468312D01*
X102054149Y-96272222D01*
X101695190Y-96123170D01*
X101306515Y-96122830D01*
X100947297Y-96271256D01*
X100672222Y-96545851D01*
X100523170Y-96904810D01*
X100522830Y-97293485D01*
X97476831Y-97293485D01*
X97477170Y-96906515D01*
X97328744Y-96547297D01*
X97054149Y-96272222D01*
X96695190Y-96123170D01*
X96306515Y-96122830D01*
X95947297Y-96271256D01*
X95749897Y-96468312D01*
X95554149Y-96272222D01*
X95195190Y-96123170D01*
X94806515Y-96122830D01*
X94447297Y-96271256D01*
X94172222Y-96545851D01*
X94023170Y-96904810D01*
X94022830Y-97293485D01*
X90976831Y-97293485D01*
X90977170Y-96906515D01*
X90828744Y-96547297D01*
X90554149Y-96272222D01*
X90195190Y-96123170D01*
X89806515Y-96122830D01*
X89447297Y-96271256D01*
X89249897Y-96468312D01*
X89054149Y-96272222D01*
X88743487Y-96143225D01*
X88943356Y-95943356D01*
X89079272Y-95739943D01*
X89127000Y-95500000D01*
X89127000Y-93250000D01*
X89126602Y-93247999D01*
X89079273Y-93010058D01*
X88943356Y-92806644D01*
X84877000Y-88740288D01*
X84877000Y-85410000D01*
X85214250Y-85410000D01*
X85373000Y-85251250D01*
X85373000Y-84427000D01*
X85627000Y-84427000D01*
X85627000Y-85251250D01*
X85785750Y-85410000D01*
X86126310Y-85410000D01*
X86359699Y-85313327D01*
X86538327Y-85134698D01*
X86635000Y-84901309D01*
X86635000Y-84585750D01*
X86476250Y-84427000D01*
X85627000Y-84427000D01*
X85373000Y-84427000D01*
X85353000Y-84427000D01*
X85353000Y-84173000D01*
X85373000Y-84173000D01*
X85373000Y-84153000D01*
X85627000Y-84153000D01*
X85627000Y-84173000D01*
X86476250Y-84173000D01*
X86635000Y-84014250D01*
X86635000Y-83698691D01*
X86538327Y-83465302D01*
X86450025Y-83377000D01*
X86620615Y-83377000D01*
X86620615Y-83575000D01*
X86646903Y-83714708D01*
X86729470Y-83843020D01*
X86855453Y-83929101D01*
X87005000Y-83959385D01*
X87605000Y-83959385D01*
X87744708Y-83933097D01*
X87873020Y-83850530D01*
X87940630Y-83751580D01*
X87999470Y-83843020D01*
X88073000Y-83893261D01*
X88073000Y-84717065D01*
X87645032Y-85145032D01*
X87645030Y-85145035D01*
X86950032Y-85840032D01*
X86841212Y-86002893D01*
X86802999Y-86195000D01*
X86803000Y-86195005D01*
X86803000Y-87106987D01*
X86736980Y-87149470D01*
X86650899Y-87275453D01*
X86620615Y-87425000D01*
X86620615Y-88975000D01*
X86646903Y-89114708D01*
X86729470Y-89243020D01*
X86855453Y-89329101D01*
X87005000Y-89359385D01*
X87605000Y-89359385D01*
X87744708Y-89333097D01*
X87873020Y-89250530D01*
X87940630Y-89151580D01*
X87999470Y-89243020D01*
X88073000Y-89293261D01*
X88073000Y-90824995D01*
X88072999Y-90825000D01*
X88111212Y-91017107D01*
X88220032Y-91179968D01*
X90980997Y-93940932D01*
X90834154Y-94001606D01*
X90502770Y-94332412D01*
X90323205Y-94764853D01*
X90322796Y-95233093D01*
X90501606Y-95665846D01*
X90832412Y-95997230D01*
X91264853Y-96176795D01*
X91733093Y-96177204D01*
X92165846Y-95998394D01*
X92497230Y-95667588D01*
X92499784Y-95661437D01*
X92501606Y-95665846D01*
X92832412Y-95997230D01*
X93264853Y-96176795D01*
X93733093Y-96177204D01*
X94165846Y-95998394D01*
X94497230Y-95667588D01*
X94676795Y-95235147D01*
X94677204Y-94766907D01*
X94498394Y-94334154D01*
X94167588Y-94002770D01*
X93735147Y-93823205D01*
X93266907Y-93822796D01*
X93101200Y-93891265D01*
X90347000Y-91137064D01*
X90347000Y-89293013D01*
X90413020Y-89250530D01*
X90480630Y-89151580D01*
X90539470Y-89243020D01*
X90665453Y-89329101D01*
X90815000Y-89359385D01*
X91415000Y-89359385D01*
X91554708Y-89333097D01*
X91683020Y-89250530D01*
X91750630Y-89151580D01*
X91809470Y-89243020D01*
X91935453Y-89329101D01*
X92085000Y-89359385D01*
X92399449Y-89359385D01*
X97187785Y-94147720D01*
X97002770Y-94332412D01*
X96823205Y-94764853D01*
X96822796Y-95233093D01*
X97001606Y-95665846D01*
X97332412Y-95997230D01*
X97764853Y-96176795D01*
X98233093Y-96177204D01*
X98665846Y-95998394D01*
X98997230Y-95667588D01*
X98999784Y-95661437D01*
X99001606Y-95665846D01*
X99332412Y-95997230D01*
X99764853Y-96176795D01*
X100233093Y-96177204D01*
X100665846Y-95998394D01*
X100997230Y-95667588D01*
X101176795Y-95235147D01*
X101177204Y-94766907D01*
X100998394Y-94334154D01*
X100667588Y-94002770D01*
X100235147Y-93823205D01*
X99766907Y-93822796D01*
X99601201Y-93891265D01*
X95069321Y-89359385D01*
X95225000Y-89359385D01*
X95356639Y-89334615D01*
X95356673Y-89334698D01*
X95535301Y-89513327D01*
X95768690Y-89610000D01*
X95909250Y-89610000D01*
X96068000Y-89451250D01*
X96068000Y-88327000D01*
X96048000Y-88327000D01*
X96048000Y-88073000D01*
X96068000Y-88073000D01*
X96068000Y-86948750D01*
X95909250Y-86790000D01*
X95768690Y-86790000D01*
X95535301Y-86886673D01*
X95427000Y-86994975D01*
X95427000Y-86425005D01*
X95427001Y-86425000D01*
X95388788Y-86232893D01*
X95347251Y-86170728D01*
X95279968Y-86070032D01*
X95279965Y-86070030D01*
X94709936Y-85500000D01*
X96250550Y-83959385D01*
X96495000Y-83959385D01*
X96634708Y-83933097D01*
X96763020Y-83850530D01*
X96849101Y-83724547D01*
X96879385Y-83575000D01*
X96879385Y-82089321D01*
X96998000Y-82207935D01*
X96998000Y-87029975D01*
X96854699Y-86886673D01*
X96621310Y-86790000D01*
X96480750Y-86790000D01*
X96322000Y-86948750D01*
X96322000Y-88073000D01*
X96342000Y-88073000D01*
X96342000Y-88327000D01*
X96322000Y-88327000D01*
X96322000Y-89451250D01*
X96480750Y-89610000D01*
X96621310Y-89610000D01*
X96854699Y-89513327D01*
X96998000Y-89370025D01*
X96998000Y-89999995D01*
X96997999Y-90000000D01*
X97036212Y-90192107D01*
X97145032Y-90354968D01*
X102145030Y-95354965D01*
X102145032Y-95354968D01*
X102188467Y-95383990D01*
X102307893Y-95463788D01*
X102500000Y-95502001D01*
X102500005Y-95502000D01*
X103433906Y-95502000D01*
X103501606Y-95665846D01*
X103832412Y-95997230D01*
X104264853Y-96176795D01*
X104733093Y-96177204D01*
X105165846Y-95998394D01*
X105497230Y-95667588D01*
X105499784Y-95661437D01*
X105501606Y-95665846D01*
X105832412Y-95997230D01*
X106264853Y-96176795D01*
X106733093Y-96177204D01*
X107165846Y-95998394D01*
X107497230Y-95667588D01*
X107676795Y-95235147D01*
X107677204Y-94766907D01*
X107498394Y-94334154D01*
X107167588Y-94002770D01*
X106735147Y-93823205D01*
X106266907Y-93822796D01*
X106101201Y-93891265D01*
X105604968Y-93395032D01*
X105442107Y-93286212D01*
X105250000Y-93247999D01*
X105249995Y-93248000D01*
X102207935Y-93248000D01*
X98502000Y-89542064D01*
X98502000Y-81750000D01*
X98490485Y-81692107D01*
X98463788Y-81557892D01*
X98400909Y-81463788D01*
X98354968Y-81395032D01*
X98354965Y-81395030D01*
X97604968Y-80645032D01*
X97442107Y-80536212D01*
X97250000Y-80497999D01*
X97249995Y-80498000D01*
X95000000Y-80498000D01*
X94807892Y-80536212D01*
X94742660Y-80579800D01*
X94645032Y-80645032D01*
X94645030Y-80645035D01*
X93649449Y-81640615D01*
X93355000Y-81640615D01*
X93223361Y-81665385D01*
X93223327Y-81665302D01*
X93044699Y-81486673D01*
X92811310Y-81390000D01*
X92670750Y-81390000D01*
X92512002Y-81548748D01*
X92512002Y-81447934D01*
X97516450Y-76443485D01*
X103622830Y-76443485D01*
X103771256Y-76802703D01*
X104045851Y-77077778D01*
X104404810Y-77226830D01*
X104793485Y-77227170D01*
X105152703Y-77078744D01*
X105427778Y-76804149D01*
X105576830Y-76445190D01*
X105577170Y-76056515D01*
X105428744Y-75697297D01*
X105154149Y-75422222D01*
X104795190Y-75273170D01*
X104406515Y-75272830D01*
X104047297Y-75421256D01*
X103772222Y-75695851D01*
X103623170Y-76054810D01*
X103622830Y-76443485D01*
X97516450Y-76443485D01*
X98707935Y-75252000D01*
X101433906Y-75252000D01*
X101501606Y-75415846D01*
X101832412Y-75747230D01*
X102264853Y-75926795D01*
X102733093Y-75927204D01*
X103165846Y-75748394D01*
X103497230Y-75417588D01*
X103676795Y-74985147D01*
X103677204Y-74516907D01*
X103498394Y-74084154D01*
X103167588Y-73752770D01*
X103161437Y-73750216D01*
X103165846Y-73748394D01*
X103497230Y-73417588D01*
X103676795Y-72985147D01*
X103677204Y-72516907D01*
X103498394Y-72084154D01*
X103167588Y-71752770D01*
X102735147Y-71573205D01*
X102266907Y-71572796D01*
X101834154Y-71751606D01*
X101502770Y-72082412D01*
X101323205Y-72514853D01*
X101322796Y-72983093D01*
X101391265Y-73148800D01*
X100792064Y-73748000D01*
X98000005Y-73748000D01*
X98000000Y-73747999D01*
X97807893Y-73786212D01*
X97645032Y-73895032D01*
X97645030Y-73895035D01*
X89899449Y-81640615D01*
X89545000Y-81640615D01*
X89405292Y-81666903D01*
X89276980Y-81749470D01*
X89209370Y-81848420D01*
X89150530Y-81756980D01*
X89095161Y-81719148D01*
X89122107Y-81713788D01*
X89284968Y-81604968D01*
X99446450Y-71443485D01*
X103622830Y-71443485D01*
X103771256Y-71802703D01*
X104045851Y-72077778D01*
X104404810Y-72226830D01*
X104793485Y-72227170D01*
X105152703Y-72078744D01*
X105427778Y-71804149D01*
X105576830Y-71445190D01*
X105577170Y-71056515D01*
X105428744Y-70697297D01*
X105154149Y-70422222D01*
X104795190Y-70273170D01*
X104406515Y-70272830D01*
X104047297Y-70421256D01*
X103772222Y-70695851D01*
X103623170Y-71054810D01*
X103622830Y-71443485D01*
X99446450Y-71443485D01*
X106120622Y-64769313D01*
X106205243Y-64825855D01*
X106680000Y-64920290D01*
X107154757Y-64825855D01*
X107557237Y-64556927D01*
X107826165Y-64154447D01*
X107920600Y-63679690D01*
X107920600Y-63320310D01*
X107826165Y-62845553D01*
X107584584Y-62484000D01*
X107972015Y-62484000D01*
X107972015Y-64516000D01*
X107998303Y-64655708D01*
X108080870Y-64784020D01*
X108206853Y-64870101D01*
X108356400Y-64900385D01*
X110083600Y-64900385D01*
X110223308Y-64874097D01*
X110351620Y-64791530D01*
X110437701Y-64665547D01*
X110467985Y-64516000D01*
X110467985Y-62484000D01*
X110441697Y-62344292D01*
X110359130Y-62215980D01*
X110233147Y-62129899D01*
X110083600Y-62099615D01*
X108356400Y-62099615D01*
X108216692Y-62125903D01*
X108088380Y-62208470D01*
X108002299Y-62334453D01*
X107972015Y-62484000D01*
X107584584Y-62484000D01*
X107557237Y-62443073D01*
X107154757Y-62174145D01*
X106680000Y-62079710D01*
X106205243Y-62174145D01*
X105802763Y-62443073D01*
X105533835Y-62845553D01*
X105439400Y-63320310D01*
X105439400Y-63679690D01*
X105497630Y-63972434D01*
X105226857Y-64243208D01*
X105286165Y-64154447D01*
X105380600Y-63679690D01*
X105380600Y-63320310D01*
X105286165Y-62845553D01*
X105017237Y-62443073D01*
X104614757Y-62174145D01*
X104140000Y-62079710D01*
X103665243Y-62174145D01*
X103262763Y-62443073D01*
X102993835Y-62845553D01*
X102899400Y-63320310D01*
X102899400Y-63679690D01*
X102993835Y-64154447D01*
X103262763Y-64556927D01*
X103665243Y-64825855D01*
X104140000Y-64920290D01*
X104614757Y-64825855D01*
X104703518Y-64766547D01*
X88722064Y-80748000D01*
X82000005Y-80748000D01*
X82000000Y-80747999D01*
X81807893Y-80786212D01*
X81645032Y-80895032D01*
X81645030Y-80895035D01*
X81090032Y-81450032D01*
X80981212Y-81612893D01*
X80965357Y-81692601D01*
X80876980Y-81749470D01*
X80809370Y-81848420D01*
X80750530Y-81756980D01*
X80624547Y-81670899D01*
X80475000Y-81640615D01*
X80350550Y-81640615D01*
X78354968Y-79645032D01*
X78192107Y-79536212D01*
X78000000Y-79497999D01*
X77999995Y-79498000D01*
X69250000Y-79498000D01*
X69057892Y-79536212D01*
X68895032Y-79645032D01*
X66895032Y-81645032D01*
X66786212Y-81807893D01*
X66747999Y-82000000D01*
X66748000Y-82000005D01*
X66748000Y-93042065D01*
X65898874Y-93891190D01*
X65735147Y-93823205D01*
X65266907Y-93822796D01*
X64834154Y-94001606D01*
X64502770Y-94332412D01*
X64323205Y-94764853D01*
X64322796Y-95233093D01*
X63317000Y-95233093D01*
X63317000Y-73580000D01*
X72079710Y-73580000D01*
X72174145Y-74054757D01*
X72443073Y-74457237D01*
X72845553Y-74726165D01*
X73320310Y-74820600D01*
X73679690Y-74820600D01*
X74041416Y-74748648D01*
X73872343Y-74917721D01*
X73679690Y-74879400D01*
X73320310Y-74879400D01*
X72845553Y-74973835D01*
X72443073Y-75242763D01*
X72174145Y-75645243D01*
X72079710Y-76120000D01*
X72174145Y-76594757D01*
X72443073Y-76997237D01*
X72845553Y-77266165D01*
X73320310Y-77360600D01*
X73679690Y-77360600D01*
X74154447Y-77266165D01*
X74556927Y-76997237D01*
X74825855Y-76594757D01*
X74920290Y-76120000D01*
X74825855Y-75645243D01*
X74721248Y-75488688D01*
X82904965Y-67304970D01*
X82904968Y-67304968D01*
X83013788Y-67142107D01*
X83036841Y-67026212D01*
X83052001Y-66950000D01*
X83052000Y-66949995D01*
X83052000Y-64807652D01*
X83427237Y-64556927D01*
X83696165Y-64154447D01*
X83790600Y-63679690D01*
X83790600Y-63320310D01*
X83849400Y-63320310D01*
X83849400Y-63679690D01*
X83943835Y-64154447D01*
X84212763Y-64556927D01*
X84615243Y-64825855D01*
X85090000Y-64920290D01*
X85564757Y-64825855D01*
X85967237Y-64556927D01*
X86236165Y-64154447D01*
X86330600Y-63679690D01*
X86330600Y-63320310D01*
X86236165Y-62845553D01*
X85994584Y-62484000D01*
X86382015Y-62484000D01*
X86382015Y-64516000D01*
X86408303Y-64655708D01*
X86490870Y-64784020D01*
X86616853Y-64870101D01*
X86766400Y-64900385D01*
X88493600Y-64900385D01*
X88633308Y-64874097D01*
X88761620Y-64791530D01*
X88847701Y-64665547D01*
X88877985Y-64516000D01*
X88877985Y-63320310D01*
X90199400Y-63320310D01*
X90199400Y-63679690D01*
X90293835Y-64154447D01*
X90562763Y-64556927D01*
X90965243Y-64825855D01*
X91440000Y-64920290D01*
X91914757Y-64825855D01*
X92317237Y-64556927D01*
X92586165Y-64154447D01*
X92680600Y-63679690D01*
X92680600Y-63320310D01*
X92739400Y-63320310D01*
X92739400Y-63679690D01*
X92833835Y-64154447D01*
X93102763Y-64556927D01*
X93505243Y-64825855D01*
X93980000Y-64920290D01*
X94454757Y-64825855D01*
X94857237Y-64556927D01*
X95126165Y-64154447D01*
X95220600Y-63679690D01*
X95220600Y-63320310D01*
X95279400Y-63320310D01*
X95279400Y-63679690D01*
X95373835Y-64154447D01*
X95642763Y-64556927D01*
X96045243Y-64825855D01*
X96520000Y-64920290D01*
X96994757Y-64825855D01*
X97397237Y-64556927D01*
X97666165Y-64154447D01*
X97760600Y-63679690D01*
X97760600Y-63320310D01*
X97819400Y-63320310D01*
X97819400Y-63679690D01*
X97913835Y-64154447D01*
X98182763Y-64556927D01*
X98585243Y-64825855D01*
X99060000Y-64920290D01*
X99534757Y-64825855D01*
X99937237Y-64556927D01*
X100206165Y-64154447D01*
X100300600Y-63679690D01*
X100300600Y-63320310D01*
X100359400Y-63320310D01*
X100359400Y-63679690D01*
X100453835Y-64154447D01*
X100722763Y-64556927D01*
X101125243Y-64825855D01*
X101600000Y-64920290D01*
X102074757Y-64825855D01*
X102477237Y-64556927D01*
X102746165Y-64154447D01*
X102840600Y-63679690D01*
X102840600Y-63320310D01*
X102746165Y-62845553D01*
X102477237Y-62443073D01*
X102074757Y-62174145D01*
X101600000Y-62079710D01*
X101125243Y-62174145D01*
X100722763Y-62443073D01*
X100453835Y-62845553D01*
X100359400Y-63320310D01*
X100300600Y-63320310D01*
X100206165Y-62845553D01*
X99937237Y-62443073D01*
X99534757Y-62174145D01*
X99060000Y-62079710D01*
X98585243Y-62174145D01*
X98182763Y-62443073D01*
X97913835Y-62845553D01*
X97819400Y-63320310D01*
X97760600Y-63320310D01*
X97666165Y-62845553D01*
X97397237Y-62443073D01*
X96994757Y-62174145D01*
X96520000Y-62079710D01*
X96045243Y-62174145D01*
X95642763Y-62443073D01*
X95373835Y-62845553D01*
X95279400Y-63320310D01*
X95220600Y-63320310D01*
X95126165Y-62845553D01*
X94857237Y-62443073D01*
X94454757Y-62174145D01*
X93980000Y-62079710D01*
X93505243Y-62174145D01*
X93102763Y-62443073D01*
X92833835Y-62845553D01*
X92739400Y-63320310D01*
X92680600Y-63320310D01*
X92586165Y-62845553D01*
X92317237Y-62443073D01*
X91914757Y-62174145D01*
X91440000Y-62079710D01*
X90965243Y-62174145D01*
X90562763Y-62443073D01*
X90293835Y-62845553D01*
X90199400Y-63320310D01*
X88877985Y-63320310D01*
X88877985Y-62484000D01*
X88851697Y-62344292D01*
X88769130Y-62215980D01*
X88643147Y-62129899D01*
X88493600Y-62099615D01*
X86766400Y-62099615D01*
X86626692Y-62125903D01*
X86498380Y-62208470D01*
X86412299Y-62334453D01*
X86382015Y-62484000D01*
X85994584Y-62484000D01*
X85967237Y-62443073D01*
X85564757Y-62174145D01*
X85090000Y-62079710D01*
X84615243Y-62174145D01*
X84212763Y-62443073D01*
X83943835Y-62845553D01*
X83849400Y-63320310D01*
X83790600Y-63320310D01*
X83696165Y-62845553D01*
X83427237Y-62443073D01*
X83024757Y-62174145D01*
X82550000Y-62079710D01*
X82075243Y-62174145D01*
X81672763Y-62443073D01*
X81403835Y-62845553D01*
X81309400Y-63320310D01*
X81309400Y-63679690D01*
X81403835Y-64154447D01*
X81672763Y-64556927D01*
X82048000Y-64807652D01*
X82048000Y-66742065D01*
X74848338Y-73941726D01*
X74920290Y-73580000D01*
X74872117Y-73337819D01*
X80364965Y-67844970D01*
X80364968Y-67844968D01*
X80473788Y-67682107D01*
X80504442Y-67527999D01*
X80512001Y-67490000D01*
X80512000Y-67489995D01*
X80512000Y-64807652D01*
X80887237Y-64556927D01*
X81156165Y-64154447D01*
X81250600Y-63679690D01*
X81250600Y-63320310D01*
X81156165Y-62845553D01*
X80887237Y-62443073D01*
X80484757Y-62174145D01*
X80010000Y-62079710D01*
X79535243Y-62174145D01*
X79132763Y-62443073D01*
X78863835Y-62845553D01*
X78769400Y-63320310D01*
X78769400Y-63679690D01*
X78863835Y-64154447D01*
X79132763Y-64556927D01*
X79508000Y-64807652D01*
X79508000Y-67282065D01*
X74275407Y-72514657D01*
X74154447Y-72433835D01*
X73679690Y-72339400D01*
X73320310Y-72339400D01*
X72845553Y-72433835D01*
X72443073Y-72702763D01*
X72174145Y-73105243D01*
X72079710Y-73580000D01*
X63317000Y-73580000D01*
X63317000Y-68785750D01*
X71849000Y-68785750D01*
X71849000Y-69489910D01*
X71945673Y-69723299D01*
X72124302Y-69901927D01*
X72357691Y-69998600D01*
X72688761Y-69998600D01*
X72443073Y-70162763D01*
X72174145Y-70565243D01*
X72079710Y-71040000D01*
X72174145Y-71514757D01*
X72443073Y-71917237D01*
X72845553Y-72186165D01*
X73320310Y-72280600D01*
X73679690Y-72280600D01*
X74154447Y-72186165D01*
X74556927Y-71917237D01*
X74825855Y-71514757D01*
X74858302Y-71351634D01*
X77824965Y-68384970D01*
X77824968Y-68384968D01*
X77933788Y-68222107D01*
X77935351Y-68214250D01*
X77972001Y-68030000D01*
X77972000Y-68029995D01*
X77972000Y-64807652D01*
X78347237Y-64556927D01*
X78616165Y-64154447D01*
X78710600Y-63679690D01*
X78710600Y-63320310D01*
X78616165Y-62845553D01*
X78347237Y-62443073D01*
X77944757Y-62174145D01*
X77470000Y-62079710D01*
X76995243Y-62174145D01*
X76592763Y-62443073D01*
X76323835Y-62845553D01*
X76229400Y-63320310D01*
X76229400Y-63679690D01*
X76323835Y-64154447D01*
X76592763Y-64556927D01*
X76968000Y-64807652D01*
X76968000Y-67822065D01*
X74585115Y-70204949D01*
X74556927Y-70162763D01*
X74311239Y-69998600D01*
X74642309Y-69998600D01*
X74875698Y-69901927D01*
X75054327Y-69723299D01*
X75151000Y-69489910D01*
X75151000Y-68785750D01*
X74992250Y-68627000D01*
X73627000Y-68627000D01*
X73627000Y-68647000D01*
X73373000Y-68647000D01*
X73373000Y-68627000D01*
X72007750Y-68627000D01*
X71849000Y-68785750D01*
X63317000Y-68785750D01*
X63317000Y-67510090D01*
X71849000Y-67510090D01*
X71849000Y-68214250D01*
X72007750Y-68373000D01*
X73373000Y-68373000D01*
X73373000Y-67160150D01*
X73627000Y-67160150D01*
X73627000Y-68373000D01*
X74992250Y-68373000D01*
X75151000Y-68214250D01*
X75151000Y-67510090D01*
X75054327Y-67276701D01*
X74875698Y-67098073D01*
X74642309Y-67001400D01*
X73785750Y-67001400D01*
X73627000Y-67160150D01*
X73373000Y-67160150D01*
X73214250Y-67001400D01*
X72357691Y-67001400D01*
X72124302Y-67098073D01*
X71945673Y-67276701D01*
X71849000Y-67510090D01*
X63317000Y-67510090D01*
X63317000Y-63320310D01*
X63529400Y-63320310D01*
X63529400Y-63679690D01*
X63623835Y-64154447D01*
X63892763Y-64556927D01*
X64295243Y-64825855D01*
X64770000Y-64920290D01*
X65244757Y-64825855D01*
X65647237Y-64556927D01*
X65916165Y-64154447D01*
X66010600Y-63679690D01*
X66010600Y-63320310D01*
X66069400Y-63320310D01*
X66069400Y-63679690D01*
X66163835Y-64154447D01*
X66432763Y-64556927D01*
X66835243Y-64825855D01*
X67310000Y-64920290D01*
X67784757Y-64825855D01*
X68187237Y-64556927D01*
X68456165Y-64154447D01*
X68550600Y-63679690D01*
X68550600Y-63320310D01*
X68456165Y-62845553D01*
X68187237Y-62443073D01*
X67784757Y-62174145D01*
X67310000Y-62079710D01*
X66835243Y-62174145D01*
X66432763Y-62443073D01*
X66163835Y-62845553D01*
X66069400Y-63320310D01*
X66010600Y-63320310D01*
X65916165Y-62845553D01*
X65647237Y-62443073D01*
X65244757Y-62174145D01*
X64770000Y-62079710D01*
X64295243Y-62174145D01*
X63892763Y-62443073D01*
X63623835Y-62845553D01*
X63529400Y-63320310D01*
X63317000Y-63320310D01*
X63317000Y-62047000D01*
X71700268Y-62047000D01*
X71487964Y-62149268D01*
X71487964Y-62149268D01*
G37*
X71487964Y-62149268D02*
X71098046Y-62585680D01*
X71000145Y-62865561D01*
X70996165Y-62845553D01*
X70727237Y-62443073D01*
X70324757Y-62174145D01*
X69850000Y-62079710D01*
X69375243Y-62174145D01*
X68972763Y-62443073D01*
X68703835Y-62845553D01*
X68609400Y-63320310D01*
X68609400Y-63679690D01*
X68703835Y-64154447D01*
X68972763Y-64556927D01*
X69375243Y-64825855D01*
X69850000Y-64920290D01*
X70324757Y-64825855D01*
X70727237Y-64556927D01*
X70996165Y-64154447D01*
X71000145Y-64134439D01*
X71098046Y-64414320D01*
X71487964Y-64850732D01*
X72015209Y-65104709D01*
X72030974Y-65107358D01*
X72263000Y-64986217D01*
X72263000Y-63627000D01*
X72243000Y-63627000D01*
X72243000Y-63373000D01*
X72263000Y-63373000D01*
X72263000Y-63353000D01*
X72517000Y-63353000D01*
X72517000Y-63373000D01*
X72537000Y-63373000D01*
X72537000Y-63627000D01*
X72517000Y-63627000D01*
X72517000Y-64986217D01*
X72749026Y-65107358D01*
X72764791Y-65104709D01*
X73292036Y-64850732D01*
X73681954Y-64414320D01*
X73779855Y-64134439D01*
X73783835Y-64154447D01*
X74052763Y-64556927D01*
X74455243Y-64825855D01*
X74930000Y-64920290D01*
X75404757Y-64825855D01*
X75807237Y-64556927D01*
X76076165Y-64154447D01*
X76170600Y-63679690D01*
X76170600Y-63320310D01*
X76076165Y-62845553D01*
X75807237Y-62443073D01*
X75404757Y-62174145D01*
X74930000Y-62079710D01*
X74455243Y-62174145D01*
X74052763Y-62443073D01*
X73783835Y-62845553D01*
X73779855Y-62865561D01*
X73681954Y-62585680D01*
X73292036Y-62149268D01*
X73079732Y-62047000D01*
X110673000Y-62047000D01*
X110673000Y-78923000D01*
X103505000Y-78923000D01*
X103332027Y-78957406D01*
X103185388Y-79055388D01*
X103087406Y-79202027D01*
X103053000Y-79375000D01*
X103053000Y-89535000D01*
X103087406Y-89707973D01*
X103185388Y-89854612D01*
X103332027Y-89952594D01*
X103505000Y-89987000D01*
X110673000Y-89987000D01*
X110673000Y-113213000D01*
X89589732Y-113213000D01*
X89802036Y-113110732D01*
X90191954Y-112674320D01*
X90289855Y-112394439D01*
X90293835Y-112414447D01*
X90562763Y-112816927D01*
X90965243Y-113085855D01*
X91440000Y-113180290D01*
X91914757Y-113085855D01*
X92317237Y-112816927D01*
X92586165Y-112414447D01*
X92680600Y-111939690D01*
X92680600Y-111580310D01*
X95279400Y-111580310D01*
X95279400Y-111939690D01*
X95373835Y-112414447D01*
X95642763Y-112816927D01*
X96045243Y-113085855D01*
X96520000Y-113180290D01*
X96994757Y-113085855D01*
X97397237Y-112816927D01*
X97666165Y-112414447D01*
X97760600Y-111939690D01*
X97760600Y-111580310D01*
X97819400Y-111580310D01*
X97819400Y-111939690D01*
X97913835Y-112414447D01*
X98182763Y-112816927D01*
X98585243Y-113085855D01*
X99060000Y-113180290D01*
X99534757Y-113085855D01*
X99937237Y-112816927D01*
X100206165Y-112414447D01*
X100300600Y-111939690D01*
X100300600Y-111580310D01*
X100359400Y-111580310D01*
X100359400Y-111939690D01*
X100453835Y-112414447D01*
X100722763Y-112816927D01*
X101125243Y-113085855D01*
X101600000Y-113180290D01*
X102074757Y-113085855D01*
X102477237Y-112816927D01*
X102746165Y-112414447D01*
X102840600Y-111939690D01*
X102840600Y-111580310D01*
X102899400Y-111580310D01*
X102899400Y-111939690D01*
X102993835Y-112414447D01*
X103262763Y-112816927D01*
X103665243Y-113085855D01*
X104140000Y-113180290D01*
X104614757Y-113085855D01*
X105017237Y-112816927D01*
X105286165Y-112414447D01*
X105380600Y-111939690D01*
X105380600Y-111580310D01*
X105439400Y-111580310D01*
X105439400Y-111939690D01*
X105533835Y-112414447D01*
X105802763Y-112816927D01*
X106205243Y-113085855D01*
X106680000Y-113180290D01*
X107154757Y-113085855D01*
X107557237Y-112816927D01*
X107826165Y-112414447D01*
X107920600Y-111939690D01*
X107920600Y-111580310D01*
X107826165Y-111105553D01*
X107584584Y-110744000D01*
X107972015Y-110744000D01*
X107972015Y-112776000D01*
X107998303Y-112915708D01*
X108080870Y-113044020D01*
X108206853Y-113130101D01*
X108356400Y-113160385D01*
X110083600Y-113160385D01*
X110223308Y-113134097D01*
X110351620Y-113051530D01*
X110437701Y-112925547D01*
X110467985Y-112776000D01*
X110467985Y-110744000D01*
X110441697Y-110604292D01*
X110359130Y-110475980D01*
X110233147Y-110389899D01*
X110083600Y-110359615D01*
X108356400Y-110359615D01*
X108216692Y-110385903D01*
X108088380Y-110468470D01*
X108002299Y-110594453D01*
X107972015Y-110744000D01*
X107584584Y-110744000D01*
X107557237Y-110703073D01*
X107154757Y-110434145D01*
X106680000Y-110339710D01*
X106205243Y-110434145D01*
X105802763Y-110703073D01*
X105533835Y-111105553D01*
X105439400Y-111580310D01*
X105380600Y-111580310D01*
X105286165Y-111105553D01*
X105017237Y-110703073D01*
X104614757Y-110434145D01*
X104140000Y-110339710D01*
X103665243Y-110434145D01*
X103262763Y-110703073D01*
X102993835Y-111105553D01*
X102899400Y-111580310D01*
X102840600Y-111580310D01*
X102746165Y-111105553D01*
X102477237Y-110703073D01*
X102074757Y-110434145D01*
X101600000Y-110339710D01*
X101125243Y-110434145D01*
X100722763Y-110703073D01*
X100453835Y-111105553D01*
X100359400Y-111580310D01*
X100300600Y-111580310D01*
X100206165Y-111105553D01*
X99937237Y-110703073D01*
X99534757Y-110434145D01*
X99060000Y-110339710D01*
X98585243Y-110434145D01*
X98182763Y-110703073D01*
X97913835Y-111105553D01*
X97819400Y-111580310D01*
X97760600Y-111580310D01*
X97666165Y-111105553D01*
X97397237Y-110703073D01*
X96994757Y-110434145D01*
X96520000Y-110339710D01*
X96045243Y-110434145D01*
X95642763Y-110703073D01*
X95373835Y-111105553D01*
X95279400Y-111580310D01*
X92680600Y-111580310D01*
X92586165Y-111105553D01*
X92317237Y-110703073D01*
X91914757Y-110434145D01*
X91440000Y-110339710D01*
X90965243Y-110434145D01*
X90562763Y-110703073D01*
X90293835Y-111105553D01*
X90289855Y-111125561D01*
X90191954Y-110845680D01*
X89802036Y-110409268D01*
X89274791Y-110155291D01*
X89259026Y-110152642D01*
X89027000Y-110273783D01*
X89027000Y-111633000D01*
X89047000Y-111633000D01*
X89047000Y-111887000D01*
X89027000Y-111887000D01*
X89027000Y-111907000D01*
X88773000Y-111907000D01*
X88773000Y-111887000D01*
X86487000Y-111887000D01*
X86487000Y-111907000D01*
X86233000Y-111907000D01*
X86233000Y-111887000D01*
X86213000Y-111887000D01*
X86213000Y-111633000D01*
X86233000Y-111633000D01*
X86233000Y-110273783D01*
X86487000Y-110273783D01*
X86487000Y-111633000D01*
X88773000Y-111633000D01*
X88773000Y-110273783D01*
X88540974Y-110152642D01*
X88525209Y-110155291D01*
X87997964Y-110409268D01*
X87630000Y-110821108D01*
X87262036Y-110409268D01*
X86734791Y-110155291D01*
X86719026Y-110152642D01*
X86487000Y-110273783D01*
X86233000Y-110273783D01*
X86000974Y-110152642D01*
X85985209Y-110155291D01*
X85457964Y-110409268D01*
X85068046Y-110845680D01*
X84970145Y-111125561D01*
X84966165Y-111105553D01*
X84697237Y-110703073D01*
X84294757Y-110434145D01*
X83820000Y-110339710D01*
X83345243Y-110434145D01*
X82942763Y-110703073D01*
X82673835Y-111105553D01*
X82579400Y-111580310D01*
X82579400Y-111939690D01*
X82673835Y-112414447D01*
X82942763Y-112816927D01*
X83345243Y-113085855D01*
X83820000Y-113180290D01*
X84294757Y-113085855D01*
X84697237Y-112816927D01*
X84966165Y-112414447D01*
X84970145Y-112394439D01*
X85068046Y-112674320D01*
X85457964Y-113110732D01*
X85670268Y-113213000D01*
X63317000Y-113213000D01*
X63317000Y-110744000D01*
X72412015Y-110744000D01*
X72412015Y-112776000D01*
X72438303Y-112915708D01*
X72520870Y-113044020D01*
X72646853Y-113130101D01*
X72796400Y-113160385D01*
X74523600Y-113160385D01*
X74663308Y-113134097D01*
X74791620Y-113051530D01*
X74877701Y-112925547D01*
X74907985Y-112776000D01*
X74907985Y-111580310D01*
X74959400Y-111580310D01*
X74959400Y-111939690D01*
X75053835Y-112414447D01*
X75322763Y-112816927D01*
X75725243Y-113085855D01*
X76200000Y-113180290D01*
X76674757Y-113085855D01*
X77077237Y-112816927D01*
X77346165Y-112414447D01*
X77440600Y-111939690D01*
X77440600Y-111580310D01*
X77499400Y-111580310D01*
X77499400Y-111939690D01*
X77593835Y-112414447D01*
X77862763Y-112816927D01*
X78265243Y-113085855D01*
X78740000Y-113180290D01*
X79214757Y-113085855D01*
X79617237Y-112816927D01*
X79886165Y-112414447D01*
X79980600Y-111939690D01*
X79980600Y-111580310D01*
X79886165Y-111105553D01*
X79617237Y-110703073D01*
X79214757Y-110434145D01*
X78740000Y-110339710D01*
X78265243Y-110434145D01*
X77862763Y-110703073D01*
X77593835Y-111105553D01*
X77499400Y-111580310D01*
X77440600Y-111580310D01*
X77346165Y-111105553D01*
X77077237Y-110703073D01*
X76674757Y-110434145D01*
X76200000Y-110339710D01*
X75725243Y-110434145D01*
X75322763Y-110703073D01*
X75053835Y-111105553D01*
X74959400Y-111580310D01*
X74907985Y-111580310D01*
X74907985Y-110744000D01*
X74881697Y-110604292D01*
X74799130Y-110475980D01*
X74673147Y-110389899D01*
X74523600Y-110359615D01*
X72796400Y-110359615D01*
X72656692Y-110385903D01*
X72528380Y-110468470D01*
X72442299Y-110594453D01*
X72412015Y-110744000D01*
X63317000Y-110744000D01*
X63317000Y-97798702D01*
X63445851Y-97927778D01*
X63804810Y-98076830D01*
X64193485Y-98077170D01*
X64552703Y-97928744D01*
X64827778Y-97654149D01*
X64976830Y-97295190D01*
X64976831Y-97293485D01*
X68022830Y-97293485D01*
X68171256Y-97652703D01*
X68445851Y-97927778D01*
X68804810Y-98076830D01*
X69193485Y-98077170D01*
X69552703Y-97928744D01*
X69750103Y-97731688D01*
X69945851Y-97927778D01*
X70304810Y-98076830D01*
X70693485Y-98077170D01*
X71052703Y-97928744D01*
X71327778Y-97654149D01*
X71476830Y-97295190D01*
X71477170Y-96906515D01*
X71328744Y-96547297D01*
X71054149Y-96272222D01*
X70695190Y-96123170D01*
X70306515Y-96122830D01*
X69947297Y-96271256D01*
X69749897Y-96468312D01*
X69554149Y-96272222D01*
X69195190Y-96123170D01*
X68806515Y-96122830D01*
X68447297Y-96271256D01*
X68172222Y-96545851D01*
X68023170Y-96904810D01*
X68022830Y-97293485D01*
X64976831Y-97293485D01*
X64977170Y-96906515D01*
X64828744Y-96547297D01*
X64554149Y-96272222D01*
X64195190Y-96123170D01*
X63806515Y-96122830D01*
X63447297Y-96271256D01*
X63317000Y-96401326D01*
X63317000Y-95233093D01*
X64322796Y-95233093D01*
X64501606Y-95665846D01*
X64832412Y-95997230D01*
X65264853Y-96176795D01*
X65733093Y-96177204D01*
X66165846Y-95998394D01*
X66497230Y-95667588D01*
X66499784Y-95661437D01*
X66501606Y-95665846D01*
X66832412Y-95997230D01*
X67264853Y-96176795D01*
X67733093Y-96177204D01*
X68165846Y-95998394D01*
X68497230Y-95667588D01*
X68676795Y-95235147D01*
X68677204Y-94766907D01*
X68498394Y-94334154D01*
X68252000Y-94087329D01*
X68252000Y-90711936D01*
X71480996Y-93940932D01*
X71334154Y-94001606D01*
X71002770Y-94332412D01*
X70823205Y-94764853D01*
X70822796Y-95233093D01*
X71001606Y-95665846D01*
X71332412Y-95997230D01*
X71764853Y-96176795D01*
X72233093Y-96177204D01*
X72665846Y-95998394D01*
X72997230Y-95667588D01*
X72999784Y-95661437D01*
X73001606Y-95665846D01*
X73332412Y-95997230D01*
X73764853Y-96176795D01*
X74233093Y-96177204D01*
X74665846Y-95998394D01*
X74997230Y-95667588D01*
X75176795Y-95235147D01*
X75177204Y-94766907D01*
X74998394Y-94334154D01*
X74667588Y-94002770D01*
X74235147Y-93823205D01*
X73766907Y-93822796D01*
X73601200Y-93891265D01*
X69252000Y-89542064D01*
X69252000Y-86388712D01*
X69873000Y-87009712D01*
X69873000Y-88750000D01*
X69920728Y-88989943D01*
X70015121Y-89131212D01*
X70056644Y-89193356D01*
X76375412Y-95512124D01*
X76420728Y-95739943D01*
X76556644Y-95943356D01*
X76756701Y-96143413D01*
X76447297Y-96271256D01*
X76249897Y-96468312D01*
X76054149Y-96272222D01*
X75695190Y-96123170D01*
X75306515Y-96122830D01*
X74947297Y-96271256D01*
X74672222Y-96545851D01*
X74523170Y-96904810D01*
X74522830Y-97293485D01*
X74671256Y-97652703D01*
X74945851Y-97927778D01*
X75304810Y-98076830D01*
X75693485Y-98077170D01*
X76052703Y-97928744D01*
X76250103Y-97731688D01*
X76445851Y-97927778D01*
X76804810Y-98076830D01*
X77193485Y-98077170D01*
X77552703Y-97928744D01*
X77827778Y-97654149D01*
X77956775Y-97343487D01*
X79306644Y-98693356D01*
X79510057Y-98829272D01*
X79750000Y-98877000D01*
X80623000Y-98877000D01*
X80623000Y-102750000D01*
X80653000Y-102900819D01*
X80653000Y-110535870D01*
X80402763Y-110703073D01*
X80133835Y-111105553D01*
X80039400Y-111580310D01*
X80039400Y-111939690D01*
X80133835Y-112414447D01*
X80402763Y-112816927D01*
X80805243Y-113085855D01*
X81280000Y-113180290D01*
X81754757Y-113085855D01*
X82157237Y-112816927D01*
X82426165Y-112414447D01*
X82520600Y-111939690D01*
X82520600Y-111580310D01*
X82426165Y-111105553D01*
X82157237Y-110703073D01*
X81907000Y-110535870D01*
X81907000Y-102750000D01*
X81877000Y-102599181D01*
X81877000Y-98877000D01*
X85750000Y-98877000D01*
X85989943Y-98829272D01*
X86193356Y-98693356D01*
X87543413Y-97343299D01*
X87671256Y-97652703D01*
X87945851Y-97927778D01*
X88304810Y-98076830D01*
X88693485Y-98077170D01*
X89052703Y-97928744D01*
X89250103Y-97731688D01*
X89445851Y-97927778D01*
X89804810Y-98076830D01*
X90193485Y-98077170D01*
X90552703Y-97928744D01*
X90827778Y-97654149D01*
X90976830Y-97295190D01*
X90976831Y-97293485D01*
X94022830Y-97293485D01*
X94171256Y-97652703D01*
X94445851Y-97927778D01*
X94804810Y-98076830D01*
X95193485Y-98077170D01*
X95552703Y-97928744D01*
X95750103Y-97731688D01*
X95945851Y-97927778D01*
X96304810Y-98076830D01*
X96693485Y-98077170D01*
X97052703Y-97928744D01*
X97327778Y-97654149D01*
X97476830Y-97295190D01*
X97476831Y-97293485D01*
X100522830Y-97293485D01*
X100671256Y-97652703D01*
X100945851Y-97927778D01*
X101304810Y-98076830D01*
X101693485Y-98077170D01*
X102052703Y-97928744D01*
X102250103Y-97731688D01*
X102445851Y-97927778D01*
X102804810Y-98076830D01*
X103193485Y-98077170D01*
X103552703Y-97928744D01*
X103827778Y-97654149D01*
X103976830Y-97295190D01*
X103976831Y-97293485D01*
X107022830Y-97293485D01*
X107171256Y-97652703D01*
X107445851Y-97927778D01*
X107804810Y-98076830D01*
X108193485Y-98077170D01*
X108552703Y-97928744D01*
X108827778Y-97654149D01*
X108976830Y-97295190D01*
X108977170Y-96906515D01*
X108828744Y-96547297D01*
X108554149Y-96272222D01*
X108195190Y-96123170D01*
X107806515Y-96122830D01*
X107447297Y-96271256D01*
X107172222Y-96545851D01*
X107023170Y-96904810D01*
X107022830Y-97293485D01*
X103976831Y-97293485D01*
X103977170Y-96906515D01*
X103828744Y-96547297D01*
X103554149Y-96272222D01*
X103195190Y-96123170D01*
X102806515Y-96122830D01*
X102447297Y-96271256D01*
X102249897Y-96468312D01*
X102054149Y-96272222D01*
X101695190Y-96123170D01*
X101306515Y-96122830D01*
X100947297Y-96271256D01*
X100672222Y-96545851D01*
X100523170Y-96904810D01*
X100522830Y-97293485D01*
X97476831Y-97293485D01*
X97477170Y-96906515D01*
X97328744Y-96547297D01*
X97054149Y-96272222D01*
X96695190Y-96123170D01*
X96306515Y-96122830D01*
X95947297Y-96271256D01*
X95749897Y-96468312D01*
X95554149Y-96272222D01*
X95195190Y-96123170D01*
X94806515Y-96122830D01*
X94447297Y-96271256D01*
X94172222Y-96545851D01*
X94023170Y-96904810D01*
X94022830Y-97293485D01*
X90976831Y-97293485D01*
X90977170Y-96906515D01*
X90828744Y-96547297D01*
X90554149Y-96272222D01*
X90195190Y-96123170D01*
X89806515Y-96122830D01*
X89447297Y-96271256D01*
X89249897Y-96468312D01*
X89054149Y-96272222D01*
X88743487Y-96143225D01*
X88943356Y-95943356D01*
X89079272Y-95739943D01*
X89127000Y-95500000D01*
X89127000Y-93250000D01*
X89126602Y-93247999D01*
X89079273Y-93010058D01*
X88943356Y-92806644D01*
X84877000Y-88740288D01*
X84877000Y-85410000D01*
X85214250Y-85410000D01*
X85373000Y-85251250D01*
X85373000Y-84427000D01*
X85627000Y-84427000D01*
X85627000Y-85251250D01*
X85785750Y-85410000D01*
X86126310Y-85410000D01*
X86359699Y-85313327D01*
X86538327Y-85134698D01*
X86635000Y-84901309D01*
X86635000Y-84585750D01*
X86476250Y-84427000D01*
X85627000Y-84427000D01*
X85373000Y-84427000D01*
X85353000Y-84427000D01*
X85353000Y-84173000D01*
X85373000Y-84173000D01*
X85373000Y-84153000D01*
X85627000Y-84153000D01*
X85627000Y-84173000D01*
X86476250Y-84173000D01*
X86635000Y-84014250D01*
X86635000Y-83698691D01*
X86538327Y-83465302D01*
X86450025Y-83377000D01*
X86620615Y-83377000D01*
X86620615Y-83575000D01*
X86646903Y-83714708D01*
X86729470Y-83843020D01*
X86855453Y-83929101D01*
X87005000Y-83959385D01*
X87605000Y-83959385D01*
X87744708Y-83933097D01*
X87873020Y-83850530D01*
X87940630Y-83751580D01*
X87999470Y-83843020D01*
X88073000Y-83893261D01*
X88073000Y-84717065D01*
X87645032Y-85145032D01*
X87645030Y-85145035D01*
X86950032Y-85840032D01*
X86841212Y-86002893D01*
X86802999Y-86195000D01*
X86803000Y-86195005D01*
X86803000Y-87106987D01*
X86736980Y-87149470D01*
X86650899Y-87275453D01*
X86620615Y-87425000D01*
X86620615Y-88975000D01*
X86646903Y-89114708D01*
X86729470Y-89243020D01*
X86855453Y-89329101D01*
X87005000Y-89359385D01*
X87605000Y-89359385D01*
X87744708Y-89333097D01*
X87873020Y-89250530D01*
X87940630Y-89151580D01*
X87999470Y-89243020D01*
X88073000Y-89293261D01*
X88073000Y-90824995D01*
X88072999Y-90825000D01*
X88111212Y-91017107D01*
X88220032Y-91179968D01*
X90980997Y-93940932D01*
X90834154Y-94001606D01*
X90502770Y-94332412D01*
X90323205Y-94764853D01*
X90322796Y-95233093D01*
X90501606Y-95665846D01*
X90832412Y-95997230D01*
X91264853Y-96176795D01*
X91733093Y-96177204D01*
X92165846Y-95998394D01*
X92497230Y-95667588D01*
X92499784Y-95661437D01*
X92501606Y-95665846D01*
X92832412Y-95997230D01*
X93264853Y-96176795D01*
X93733093Y-96177204D01*
X94165846Y-95998394D01*
X94497230Y-95667588D01*
X94676795Y-95235147D01*
X94677204Y-94766907D01*
X94498394Y-94334154D01*
X94167588Y-94002770D01*
X93735147Y-93823205D01*
X93266907Y-93822796D01*
X93101200Y-93891265D01*
X90347000Y-91137064D01*
X90347000Y-89293013D01*
X90413020Y-89250530D01*
X90480630Y-89151580D01*
X90539470Y-89243020D01*
X90665453Y-89329101D01*
X90815000Y-89359385D01*
X91415000Y-89359385D01*
X91554708Y-89333097D01*
X91683020Y-89250530D01*
X91750630Y-89151580D01*
X91809470Y-89243020D01*
X91935453Y-89329101D01*
X92085000Y-89359385D01*
X92399449Y-89359385D01*
X97187785Y-94147720D01*
X97002770Y-94332412D01*
X96823205Y-94764853D01*
X96822796Y-95233093D01*
X97001606Y-95665846D01*
X97332412Y-95997230D01*
X97764853Y-96176795D01*
X98233093Y-96177204D01*
X98665846Y-95998394D01*
X98997230Y-95667588D01*
X98999784Y-95661437D01*
X99001606Y-95665846D01*
X99332412Y-95997230D01*
X99764853Y-96176795D01*
X100233093Y-96177204D01*
X100665846Y-95998394D01*
X100997230Y-95667588D01*
X101176795Y-95235147D01*
X101177204Y-94766907D01*
X100998394Y-94334154D01*
X100667588Y-94002770D01*
X100235147Y-93823205D01*
X99766907Y-93822796D01*
X99601201Y-93891265D01*
X95069321Y-89359385D01*
X95225000Y-89359385D01*
X95356639Y-89334615D01*
X95356673Y-89334698D01*
X95535301Y-89513327D01*
X95768690Y-89610000D01*
X95909250Y-89610000D01*
X96068000Y-89451250D01*
X96068000Y-88327000D01*
X96048000Y-88327000D01*
X96048000Y-88073000D01*
X96068000Y-88073000D01*
X96068000Y-86948750D01*
X95909250Y-86790000D01*
X95768690Y-86790000D01*
X95535301Y-86886673D01*
X95427000Y-86994975D01*
X95427000Y-86425005D01*
X95427001Y-86425000D01*
X95388788Y-86232893D01*
X95347251Y-86170728D01*
X95279968Y-86070032D01*
X95279965Y-86070030D01*
X94709936Y-85500000D01*
X96250550Y-83959385D01*
X96495000Y-83959385D01*
X96634708Y-83933097D01*
X96763020Y-83850530D01*
X96849101Y-83724547D01*
X96879385Y-83575000D01*
X96879385Y-82089321D01*
X96998000Y-82207935D01*
X96998000Y-87029975D01*
X96854699Y-86886673D01*
X96621310Y-86790000D01*
X96480750Y-86790000D01*
X96322000Y-86948750D01*
X96322000Y-88073000D01*
X96342000Y-88073000D01*
X96342000Y-88327000D01*
X96322000Y-88327000D01*
X96322000Y-89451250D01*
X96480750Y-89610000D01*
X96621310Y-89610000D01*
X96854699Y-89513327D01*
X96998000Y-89370025D01*
X96998000Y-89999995D01*
X96997999Y-90000000D01*
X97036212Y-90192107D01*
X97145032Y-90354968D01*
X102145030Y-95354965D01*
X102145032Y-95354968D01*
X102188467Y-95383990D01*
X102307893Y-95463788D01*
X102500000Y-95502001D01*
X102500005Y-95502000D01*
X103433906Y-95502000D01*
X103501606Y-95665846D01*
X103832412Y-95997230D01*
X104264853Y-96176795D01*
X104733093Y-96177204D01*
X105165846Y-95998394D01*
X105497230Y-95667588D01*
X105499784Y-95661437D01*
X105501606Y-95665846D01*
X105832412Y-95997230D01*
X106264853Y-96176795D01*
X106733093Y-96177204D01*
X107165846Y-95998394D01*
X107497230Y-95667588D01*
X107676795Y-95235147D01*
X107677204Y-94766907D01*
X107498394Y-94334154D01*
X107167588Y-94002770D01*
X106735147Y-93823205D01*
X106266907Y-93822796D01*
X106101201Y-93891265D01*
X105604968Y-93395032D01*
X105442107Y-93286212D01*
X105250000Y-93247999D01*
X105249995Y-93248000D01*
X102207935Y-93248000D01*
X98502000Y-89542064D01*
X98502000Y-81750000D01*
X98490485Y-81692107D01*
X98463788Y-81557892D01*
X98400909Y-81463788D01*
X98354968Y-81395032D01*
X98354965Y-81395030D01*
X97604968Y-80645032D01*
X97442107Y-80536212D01*
X97250000Y-80497999D01*
X97249995Y-80498000D01*
X95000000Y-80498000D01*
X94807892Y-80536212D01*
X94742660Y-80579800D01*
X94645032Y-80645032D01*
X94645030Y-80645035D01*
X93649449Y-81640615D01*
X93355000Y-81640615D01*
X93223361Y-81665385D01*
X93223327Y-81665302D01*
X93044699Y-81486673D01*
X92811310Y-81390000D01*
X92670750Y-81390000D01*
X92512002Y-81548748D01*
X92512002Y-81447934D01*
X97516450Y-76443485D01*
X103622830Y-76443485D01*
X103771256Y-76802703D01*
X104045851Y-77077778D01*
X104404810Y-77226830D01*
X104793485Y-77227170D01*
X105152703Y-77078744D01*
X105427778Y-76804149D01*
X105576830Y-76445190D01*
X105577170Y-76056515D01*
X105428744Y-75697297D01*
X105154149Y-75422222D01*
X104795190Y-75273170D01*
X104406515Y-75272830D01*
X104047297Y-75421256D01*
X103772222Y-75695851D01*
X103623170Y-76054810D01*
X103622830Y-76443485D01*
X97516450Y-76443485D01*
X98707935Y-75252000D01*
X101433906Y-75252000D01*
X101501606Y-75415846D01*
X101832412Y-75747230D01*
X102264853Y-75926795D01*
X102733093Y-75927204D01*
X103165846Y-75748394D01*
X103497230Y-75417588D01*
X103676795Y-74985147D01*
X103677204Y-74516907D01*
X103498394Y-74084154D01*
X103167588Y-73752770D01*
X103161437Y-73750216D01*
X103165846Y-73748394D01*
X103497230Y-73417588D01*
X103676795Y-72985147D01*
X103677204Y-72516907D01*
X103498394Y-72084154D01*
X103167588Y-71752770D01*
X102735147Y-71573205D01*
X102266907Y-71572796D01*
X101834154Y-71751606D01*
X101502770Y-72082412D01*
X101323205Y-72514853D01*
X101322796Y-72983093D01*
X101391265Y-73148800D01*
X100792064Y-73748000D01*
X98000005Y-73748000D01*
X98000000Y-73747999D01*
X97807893Y-73786212D01*
X97645032Y-73895032D01*
X97645030Y-73895035D01*
X89899449Y-81640615D01*
X89545000Y-81640615D01*
X89405292Y-81666903D01*
X89276980Y-81749470D01*
X89209370Y-81848420D01*
X89150530Y-81756980D01*
X89095161Y-81719148D01*
X89122107Y-81713788D01*
X89284968Y-81604968D01*
X99446450Y-71443485D01*
X103622830Y-71443485D01*
X103771256Y-71802703D01*
X104045851Y-72077778D01*
X104404810Y-72226830D01*
X104793485Y-72227170D01*
X105152703Y-72078744D01*
X105427778Y-71804149D01*
X105576830Y-71445190D01*
X105577170Y-71056515D01*
X105428744Y-70697297D01*
X105154149Y-70422222D01*
X104795190Y-70273170D01*
X104406515Y-70272830D01*
X104047297Y-70421256D01*
X103772222Y-70695851D01*
X103623170Y-71054810D01*
X103622830Y-71443485D01*
X99446450Y-71443485D01*
X106120622Y-64769313D01*
X106205243Y-64825855D01*
X106680000Y-64920290D01*
X107154757Y-64825855D01*
X107557237Y-64556927D01*
X107826165Y-64154447D01*
X107920600Y-63679690D01*
X107920600Y-63320310D01*
X107826165Y-62845553D01*
X107584584Y-62484000D01*
X107972015Y-62484000D01*
X107972015Y-64516000D01*
X107998303Y-64655708D01*
X108080870Y-64784020D01*
X108206853Y-64870101D01*
X108356400Y-64900385D01*
X110083600Y-64900385D01*
X110223308Y-64874097D01*
X110351620Y-64791530D01*
X110437701Y-64665547D01*
X110467985Y-64516000D01*
X110467985Y-62484000D01*
X110441697Y-62344292D01*
X110359130Y-62215980D01*
X110233147Y-62129899D01*
X110083600Y-62099615D01*
X108356400Y-62099615D01*
X108216692Y-62125903D01*
X108088380Y-62208470D01*
X108002299Y-62334453D01*
X107972015Y-62484000D01*
X107584584Y-62484000D01*
X107557237Y-62443073D01*
X107154757Y-62174145D01*
X106680000Y-62079710D01*
X106205243Y-62174145D01*
X105802763Y-62443073D01*
X105533835Y-62845553D01*
X105439400Y-63320310D01*
X105439400Y-63679690D01*
X105497630Y-63972434D01*
X105226857Y-64243208D01*
X105286165Y-64154447D01*
X105380600Y-63679690D01*
X105380600Y-63320310D01*
X105286165Y-62845553D01*
X105017237Y-62443073D01*
X104614757Y-62174145D01*
X104140000Y-62079710D01*
X103665243Y-62174145D01*
X103262763Y-62443073D01*
X102993835Y-62845553D01*
X102899400Y-63320310D01*
X102899400Y-63679690D01*
X102993835Y-64154447D01*
X103262763Y-64556927D01*
X103665243Y-64825855D01*
X104140000Y-64920290D01*
X104614757Y-64825855D01*
X104703518Y-64766547D01*
X88722064Y-80748000D01*
X82000005Y-80748000D01*
X82000000Y-80747999D01*
X81807893Y-80786212D01*
X81645032Y-80895032D01*
X81645030Y-80895035D01*
X81090032Y-81450032D01*
X80981212Y-81612893D01*
X80965357Y-81692601D01*
X80876980Y-81749470D01*
X80809370Y-81848420D01*
X80750530Y-81756980D01*
X80624547Y-81670899D01*
X80475000Y-81640615D01*
X80350550Y-81640615D01*
X78354968Y-79645032D01*
X78192107Y-79536212D01*
X78000000Y-79497999D01*
X77999995Y-79498000D01*
X69250000Y-79498000D01*
X69057892Y-79536212D01*
X68895032Y-79645032D01*
X66895032Y-81645032D01*
X66786212Y-81807893D01*
X66747999Y-82000000D01*
X66748000Y-82000005D01*
X66748000Y-93042065D01*
X65898874Y-93891190D01*
X65735147Y-93823205D01*
X65266907Y-93822796D01*
X64834154Y-94001606D01*
X64502770Y-94332412D01*
X64323205Y-94764853D01*
X64322796Y-95233093D01*
X63317000Y-95233093D01*
X63317000Y-73580000D01*
X72079710Y-73580000D01*
X72174145Y-74054757D01*
X72443073Y-74457237D01*
X72845553Y-74726165D01*
X73320310Y-74820600D01*
X73679690Y-74820600D01*
X74041416Y-74748648D01*
X73872343Y-74917721D01*
X73679690Y-74879400D01*
X73320310Y-74879400D01*
X72845553Y-74973835D01*
X72443073Y-75242763D01*
X72174145Y-75645243D01*
X72079710Y-76120000D01*
X72174145Y-76594757D01*
X72443073Y-76997237D01*
X72845553Y-77266165D01*
X73320310Y-77360600D01*
X73679690Y-77360600D01*
X74154447Y-77266165D01*
X74556927Y-76997237D01*
X74825855Y-76594757D01*
X74920290Y-76120000D01*
X74825855Y-75645243D01*
X74721248Y-75488688D01*
X82904965Y-67304970D01*
X82904968Y-67304968D01*
X83013788Y-67142107D01*
X83036841Y-67026212D01*
X83052001Y-66950000D01*
X83052000Y-66949995D01*
X83052000Y-64807652D01*
X83427237Y-64556927D01*
X83696165Y-64154447D01*
X83790600Y-63679690D01*
X83790600Y-63320310D01*
X83849400Y-63320310D01*
X83849400Y-63679690D01*
X83943835Y-64154447D01*
X84212763Y-64556927D01*
X84615243Y-64825855D01*
X85090000Y-64920290D01*
X85564757Y-64825855D01*
X85967237Y-64556927D01*
X86236165Y-64154447D01*
X86330600Y-63679690D01*
X86330600Y-63320310D01*
X86236165Y-62845553D01*
X85994584Y-62484000D01*
X86382015Y-62484000D01*
X86382015Y-64516000D01*
X86408303Y-64655708D01*
X86490870Y-64784020D01*
X86616853Y-64870101D01*
X86766400Y-64900385D01*
X88493600Y-64900385D01*
X88633308Y-64874097D01*
X88761620Y-64791530D01*
X88847701Y-64665547D01*
X88877985Y-64516000D01*
X88877985Y-63320310D01*
X90199400Y-63320310D01*
X90199400Y-63679690D01*
X90293835Y-64154447D01*
X90562763Y-64556927D01*
X90965243Y-64825855D01*
X91440000Y-64920290D01*
X91914757Y-64825855D01*
X92317237Y-64556927D01*
X92586165Y-64154447D01*
X92680600Y-63679690D01*
X92680600Y-63320310D01*
X92739400Y-63320310D01*
X92739400Y-63679690D01*
X92833835Y-64154447D01*
X93102763Y-64556927D01*
X93505243Y-64825855D01*
X93980000Y-64920290D01*
X94454757Y-64825855D01*
X94857237Y-64556927D01*
X95126165Y-64154447D01*
X95220600Y-63679690D01*
X95220600Y-63320310D01*
X95279400Y-63320310D01*
X95279400Y-63679690D01*
X95373835Y-64154447D01*
X95642763Y-64556927D01*
X96045243Y-64825855D01*
X96520000Y-64920290D01*
X96994757Y-64825855D01*
X97397237Y-64556927D01*
X97666165Y-64154447D01*
X97760600Y-63679690D01*
X97760600Y-63320310D01*
X97819400Y-63320310D01*
X97819400Y-63679690D01*
X97913835Y-64154447D01*
X98182763Y-64556927D01*
X98585243Y-64825855D01*
X99060000Y-64920290D01*
X99534757Y-64825855D01*
X99937237Y-64556927D01*
X100206165Y-64154447D01*
X100300600Y-63679690D01*
X100300600Y-63320310D01*
X100359400Y-63320310D01*
X100359400Y-63679690D01*
X100453835Y-64154447D01*
X100722763Y-64556927D01*
X101125243Y-64825855D01*
X101600000Y-64920290D01*
X102074757Y-64825855D01*
X102477237Y-64556927D01*
X102746165Y-64154447D01*
X102840600Y-63679690D01*
X102840600Y-63320310D01*
X102746165Y-62845553D01*
X102477237Y-62443073D01*
X102074757Y-62174145D01*
X101600000Y-62079710D01*
X101125243Y-62174145D01*
X100722763Y-62443073D01*
X100453835Y-62845553D01*
X100359400Y-63320310D01*
X100300600Y-63320310D01*
X100206165Y-62845553D01*
X99937237Y-62443073D01*
X99534757Y-62174145D01*
X99060000Y-62079710D01*
X98585243Y-62174145D01*
X98182763Y-62443073D01*
X97913835Y-62845553D01*
X97819400Y-63320310D01*
X97760600Y-63320310D01*
X97666165Y-62845553D01*
X97397237Y-62443073D01*
X96994757Y-62174145D01*
X96520000Y-62079710D01*
X96045243Y-62174145D01*
X95642763Y-62443073D01*
X95373835Y-62845553D01*
X95279400Y-63320310D01*
X95220600Y-63320310D01*
X95126165Y-62845553D01*
X94857237Y-62443073D01*
X94454757Y-62174145D01*
X93980000Y-62079710D01*
X93505243Y-62174145D01*
X93102763Y-62443073D01*
X92833835Y-62845553D01*
X92739400Y-63320310D01*
X92680600Y-63320310D01*
X92586165Y-62845553D01*
X92317237Y-62443073D01*
X91914757Y-62174145D01*
X91440000Y-62079710D01*
X90965243Y-62174145D01*
X90562763Y-62443073D01*
X90293835Y-62845553D01*
X90199400Y-63320310D01*
X88877985Y-63320310D01*
X88877985Y-62484000D01*
X88851697Y-62344292D01*
X88769130Y-62215980D01*
X88643147Y-62129899D01*
X88493600Y-62099615D01*
X86766400Y-62099615D01*
X86626692Y-62125903D01*
X86498380Y-62208470D01*
X86412299Y-62334453D01*
X86382015Y-62484000D01*
X85994584Y-62484000D01*
X85967237Y-62443073D01*
X85564757Y-62174145D01*
X85090000Y-62079710D01*
X84615243Y-62174145D01*
X84212763Y-62443073D01*
X83943835Y-62845553D01*
X83849400Y-63320310D01*
X83790600Y-63320310D01*
X83696165Y-62845553D01*
X83427237Y-62443073D01*
X83024757Y-62174145D01*
X82550000Y-62079710D01*
X82075243Y-62174145D01*
X81672763Y-62443073D01*
X81403835Y-62845553D01*
X81309400Y-63320310D01*
X81309400Y-63679690D01*
X81403835Y-64154447D01*
X81672763Y-64556927D01*
X82048000Y-64807652D01*
X82048000Y-66742065D01*
X74848338Y-73941726D01*
X74920290Y-73580000D01*
X74872117Y-73337819D01*
X80364965Y-67844970D01*
X80364968Y-67844968D01*
X80473788Y-67682107D01*
X80504442Y-67527999D01*
X80512001Y-67490000D01*
X80512000Y-67489995D01*
X80512000Y-64807652D01*
X80887237Y-64556927D01*
X81156165Y-64154447D01*
X81250600Y-63679690D01*
X81250600Y-63320310D01*
X81156165Y-62845553D01*
X80887237Y-62443073D01*
X80484757Y-62174145D01*
X80010000Y-62079710D01*
X79535243Y-62174145D01*
X79132763Y-62443073D01*
X78863835Y-62845553D01*
X78769400Y-63320310D01*
X78769400Y-63679690D01*
X78863835Y-64154447D01*
X79132763Y-64556927D01*
X79508000Y-64807652D01*
X79508000Y-67282065D01*
X74275407Y-72514657D01*
X74154447Y-72433835D01*
X73679690Y-72339400D01*
X73320310Y-72339400D01*
X72845553Y-72433835D01*
X72443073Y-72702763D01*
X72174145Y-73105243D01*
X72079710Y-73580000D01*
X63317000Y-73580000D01*
X63317000Y-68785750D01*
X71849000Y-68785750D01*
X71849000Y-69489910D01*
X71945673Y-69723299D01*
X72124302Y-69901927D01*
X72357691Y-69998600D01*
X72688761Y-69998600D01*
X72443073Y-70162763D01*
X72174145Y-70565243D01*
X72079710Y-71040000D01*
X72174145Y-71514757D01*
X72443073Y-71917237D01*
X72845553Y-72186165D01*
X73320310Y-72280600D01*
X73679690Y-72280600D01*
X74154447Y-72186165D01*
X74556927Y-71917237D01*
X74825855Y-71514757D01*
X74858302Y-71351634D01*
X77824965Y-68384970D01*
X77824968Y-68384968D01*
X77933788Y-68222107D01*
X77935351Y-68214250D01*
X77972001Y-68030000D01*
X77972000Y-68029995D01*
X77972000Y-64807652D01*
X78347237Y-64556927D01*
X78616165Y-64154447D01*
X78710600Y-63679690D01*
X78710600Y-63320310D01*
X78616165Y-62845553D01*
X78347237Y-62443073D01*
X77944757Y-62174145D01*
X77470000Y-62079710D01*
X76995243Y-62174145D01*
X76592763Y-62443073D01*
X76323835Y-62845553D01*
X76229400Y-63320310D01*
X76229400Y-63679690D01*
X76323835Y-64154447D01*
X76592763Y-64556927D01*
X76968000Y-64807652D01*
X76968000Y-67822065D01*
X74585115Y-70204949D01*
X74556927Y-70162763D01*
X74311239Y-69998600D01*
X74642309Y-69998600D01*
X74875698Y-69901927D01*
X75054327Y-69723299D01*
X75151000Y-69489910D01*
X75151000Y-68785750D01*
X74992250Y-68627000D01*
X73627000Y-68627000D01*
X73627000Y-68647000D01*
X73373000Y-68647000D01*
X73373000Y-68627000D01*
X72007750Y-68627000D01*
X71849000Y-68785750D01*
X63317000Y-68785750D01*
X63317000Y-67510090D01*
X71849000Y-67510090D01*
X71849000Y-68214250D01*
X72007750Y-68373000D01*
X73373000Y-68373000D01*
X73373000Y-67160150D01*
X73627000Y-67160150D01*
X73627000Y-68373000D01*
X74992250Y-68373000D01*
X75151000Y-68214250D01*
X75151000Y-67510090D01*
X75054327Y-67276701D01*
X74875698Y-67098073D01*
X74642309Y-67001400D01*
X73785750Y-67001400D01*
X73627000Y-67160150D01*
X73373000Y-67160150D01*
X73214250Y-67001400D01*
X72357691Y-67001400D01*
X72124302Y-67098073D01*
X71945673Y-67276701D01*
X71849000Y-67510090D01*
X63317000Y-67510090D01*
X63317000Y-63320310D01*
X63529400Y-63320310D01*
X63529400Y-63679690D01*
X63623835Y-64154447D01*
X63892763Y-64556927D01*
X64295243Y-64825855D01*
X64770000Y-64920290D01*
X65244757Y-64825855D01*
X65647237Y-64556927D01*
X65916165Y-64154447D01*
X66010600Y-63679690D01*
X66010600Y-63320310D01*
X66069400Y-63320310D01*
X66069400Y-63679690D01*
X66163835Y-64154447D01*
X66432763Y-64556927D01*
X66835243Y-64825855D01*
X67310000Y-64920290D01*
X67784757Y-64825855D01*
X68187237Y-64556927D01*
X68456165Y-64154447D01*
X68550600Y-63679690D01*
X68550600Y-63320310D01*
X68456165Y-62845553D01*
X68187237Y-62443073D01*
X67784757Y-62174145D01*
X67310000Y-62079710D01*
X66835243Y-62174145D01*
X66432763Y-62443073D01*
X66163835Y-62845553D01*
X66069400Y-63320310D01*
X66010600Y-63320310D01*
X65916165Y-62845553D01*
X65647237Y-62443073D01*
X65244757Y-62174145D01*
X64770000Y-62079710D01*
X64295243Y-62174145D01*
X63892763Y-62443073D01*
X63623835Y-62845553D01*
X63529400Y-63320310D01*
X63317000Y-63320310D01*
X63317000Y-62047000D01*
X71700268Y-62047000D01*
X71487964Y-62149268D01*
G36*
X77059470Y-89243020D02*
X77185453Y-89329101D01*
X77335000Y-89359385D01*
X77399449Y-89359385D01*
X83395032Y-95354968D01*
X83557893Y-95463788D01*
X83750000Y-95502001D01*
X83750005Y-95502000D01*
X83933906Y-95502000D01*
X84001606Y-95665846D01*
X84332412Y-95997230D01*
X84764853Y-96176795D01*
X85233093Y-96177204D01*
X85665846Y-95998394D01*
X85997230Y-95667588D01*
X85999784Y-95661437D01*
X86001606Y-95665846D01*
X86332412Y-95997230D01*
X86764853Y-96176795D01*
X86936343Y-96176945D01*
X85490288Y-97623000D01*
X84340712Y-97623000D01*
X84476830Y-97295190D01*
X84477170Y-96906515D01*
X84328744Y-96547297D01*
X84054149Y-96272222D01*
X83695190Y-96123170D01*
X83306515Y-96122830D01*
X82947297Y-96271256D01*
X82749897Y-96468312D01*
X82554149Y-96272222D01*
X82195190Y-96123170D01*
X81806515Y-96122830D01*
X81447297Y-96271256D01*
X81172222Y-96545851D01*
X81023170Y-96904810D01*
X81022830Y-97293485D01*
X81158983Y-97623000D01*
X80009712Y-97623000D01*
X78563768Y-96177056D01*
X78733093Y-96177204D01*
X79165846Y-95998394D01*
X79497230Y-95667588D01*
X79499784Y-95661437D01*
X79501606Y-95665846D01*
X79832412Y-95997230D01*
X80264853Y-96176795D01*
X80733093Y-96177204D01*
X81165846Y-95998394D01*
X81497230Y-95667588D01*
X81676795Y-95235147D01*
X81677204Y-94766907D01*
X81498394Y-94334154D01*
X81167588Y-94002770D01*
X80735147Y-93823205D01*
X80266907Y-93822796D01*
X80101200Y-93891265D01*
X75597000Y-89387064D01*
X75597000Y-89293013D01*
X75663020Y-89250530D01*
X75730630Y-89151580D01*
X75789470Y-89243020D01*
X75915453Y-89329101D01*
X76065000Y-89359385D01*
X76665000Y-89359385D01*
X76804708Y-89333097D01*
X76933020Y-89250530D01*
X77000630Y-89151580D01*
X77059470Y-89243020D01*
X77059470Y-89243020D01*
G37*
X77059470Y-89243020D02*
X77185453Y-89329101D01*
X77335000Y-89359385D01*
X77399449Y-89359385D01*
X83395032Y-95354968D01*
X83557893Y-95463788D01*
X83750000Y-95502001D01*
X83750005Y-95502000D01*
X83933906Y-95502000D01*
X84001606Y-95665846D01*
X84332412Y-95997230D01*
X84764853Y-96176795D01*
X85233093Y-96177204D01*
X85665846Y-95998394D01*
X85997230Y-95667588D01*
X85999784Y-95661437D01*
X86001606Y-95665846D01*
X86332412Y-95997230D01*
X86764853Y-96176795D01*
X86936343Y-96176945D01*
X85490288Y-97623000D01*
X84340712Y-97623000D01*
X84476830Y-97295190D01*
X84477170Y-96906515D01*
X84328744Y-96547297D01*
X84054149Y-96272222D01*
X83695190Y-96123170D01*
X83306515Y-96122830D01*
X82947297Y-96271256D01*
X82749897Y-96468312D01*
X82554149Y-96272222D01*
X82195190Y-96123170D01*
X81806515Y-96122830D01*
X81447297Y-96271256D01*
X81172222Y-96545851D01*
X81023170Y-96904810D01*
X81022830Y-97293485D01*
X81158983Y-97623000D01*
X80009712Y-97623000D01*
X78563768Y-96177056D01*
X78733093Y-96177204D01*
X79165846Y-95998394D01*
X79497230Y-95667588D01*
X79499784Y-95661437D01*
X79501606Y-95665846D01*
X79832412Y-95997230D01*
X80264853Y-96176795D01*
X80733093Y-96177204D01*
X81165846Y-95998394D01*
X81497230Y-95667588D01*
X81676795Y-95235147D01*
X81677204Y-94766907D01*
X81498394Y-94334154D01*
X81167588Y-94002770D01*
X80735147Y-93823205D01*
X80266907Y-93822796D01*
X80101200Y-93891265D01*
X75597000Y-89387064D01*
X75597000Y-89293013D01*
X75663020Y-89250530D01*
X75730630Y-89151580D01*
X75789470Y-89243020D01*
X75915453Y-89329101D01*
X76065000Y-89359385D01*
X76665000Y-89359385D01*
X76804708Y-89333097D01*
X76933020Y-89250530D01*
X77000630Y-89151580D01*
X77059470Y-89243020D01*
G36*
X71870615Y-83575000D02*
X71896903Y-83714708D01*
X71979470Y-83843020D01*
X72105453Y-83929101D01*
X72255000Y-83959385D01*
X72855000Y-83959385D01*
X72994708Y-83933097D01*
X73123020Y-83850530D01*
X73190630Y-83751580D01*
X73249470Y-83843020D01*
X73323000Y-83893261D01*
X73323000Y-84467065D01*
X72895032Y-84895032D01*
X72895030Y-84895035D01*
X72145032Y-85645032D01*
X72036212Y-85807893D01*
X71997999Y-86000000D01*
X71998000Y-86000005D01*
X71998000Y-87142379D01*
X71986980Y-87149470D01*
X71900899Y-87275453D01*
X71870615Y-87425000D01*
X71870615Y-88975000D01*
X71896903Y-89114708D01*
X71979470Y-89243020D01*
X72105453Y-89329101D01*
X72255000Y-89359385D01*
X72855000Y-89359385D01*
X72994708Y-89333097D01*
X73123020Y-89250530D01*
X73190630Y-89151580D01*
X73249470Y-89243020D01*
X73323000Y-89293261D01*
X73323000Y-89574995D01*
X73322999Y-89575000D01*
X73361212Y-89767107D01*
X73470032Y-89929968D01*
X77687785Y-94147720D01*
X77502770Y-94332412D01*
X77346196Y-94709484D01*
X71127000Y-88490288D01*
X71127000Y-86750000D01*
X71100566Y-86617108D01*
X71079273Y-86510058D01*
X70943356Y-86306644D01*
X70127000Y-85490288D01*
X70127000Y-85410000D01*
X70464250Y-85410000D01*
X70623000Y-85251250D01*
X70623000Y-84427000D01*
X70877000Y-84427000D01*
X70877000Y-85251250D01*
X71035750Y-85410000D01*
X71376310Y-85410000D01*
X71609699Y-85313327D01*
X71788327Y-85134698D01*
X71885000Y-84901309D01*
X71885000Y-84585750D01*
X71726250Y-84427000D01*
X70877000Y-84427000D01*
X70623000Y-84427000D01*
X70603000Y-84427000D01*
X70603000Y-84173000D01*
X70623000Y-84173000D01*
X70623000Y-84153000D01*
X70877000Y-84153000D01*
X70877000Y-84173000D01*
X71726250Y-84173000D01*
X71885000Y-84014250D01*
X71885000Y-83698691D01*
X71788327Y-83465302D01*
X71700025Y-83377000D01*
X71870615Y-83377000D01*
X71870615Y-83575000D01*
X71870615Y-83575000D01*
G37*
X71870615Y-83575000D02*
X71896903Y-83714708D01*
X71979470Y-83843020D01*
X72105453Y-83929101D01*
X72255000Y-83959385D01*
X72855000Y-83959385D01*
X72994708Y-83933097D01*
X73123020Y-83850530D01*
X73190630Y-83751580D01*
X73249470Y-83843020D01*
X73323000Y-83893261D01*
X73323000Y-84467065D01*
X72895032Y-84895032D01*
X72895030Y-84895035D01*
X72145032Y-85645032D01*
X72036212Y-85807893D01*
X71997999Y-86000000D01*
X71998000Y-86000005D01*
X71998000Y-87142379D01*
X71986980Y-87149470D01*
X71900899Y-87275453D01*
X71870615Y-87425000D01*
X71870615Y-88975000D01*
X71896903Y-89114708D01*
X71979470Y-89243020D01*
X72105453Y-89329101D01*
X72255000Y-89359385D01*
X72855000Y-89359385D01*
X72994708Y-89333097D01*
X73123020Y-89250530D01*
X73190630Y-89151580D01*
X73249470Y-89243020D01*
X73323000Y-89293261D01*
X73323000Y-89574995D01*
X73322999Y-89575000D01*
X73361212Y-89767107D01*
X73470032Y-89929968D01*
X77687785Y-94147720D01*
X77502770Y-94332412D01*
X77346196Y-94709484D01*
X71127000Y-88490288D01*
X71127000Y-86750000D01*
X71100566Y-86617108D01*
X71079273Y-86510058D01*
X70943356Y-86306644D01*
X70127000Y-85490288D01*
X70127000Y-85410000D01*
X70464250Y-85410000D01*
X70623000Y-85251250D01*
X70623000Y-84427000D01*
X70877000Y-84427000D01*
X70877000Y-85251250D01*
X71035750Y-85410000D01*
X71376310Y-85410000D01*
X71609699Y-85313327D01*
X71788327Y-85134698D01*
X71885000Y-84901309D01*
X71885000Y-84585750D01*
X71726250Y-84427000D01*
X70877000Y-84427000D01*
X70623000Y-84427000D01*
X70603000Y-84427000D01*
X70603000Y-84173000D01*
X70623000Y-84173000D01*
X70623000Y-84153000D01*
X70877000Y-84153000D01*
X70877000Y-84173000D01*
X71726250Y-84173000D01*
X71885000Y-84014250D01*
X71885000Y-83698691D01*
X71788327Y-83465302D01*
X71700025Y-83377000D01*
X71870615Y-83377000D01*
X71870615Y-83575000D01*
G36*
X86650899Y-81875453D02*
X86620615Y-82025000D01*
X86620615Y-82223000D01*
X86384009Y-82223000D01*
X86358097Y-82085292D01*
X86275530Y-81956980D01*
X86149547Y-81870899D01*
X86000000Y-81840615D01*
X85000000Y-81840615D01*
X84860292Y-81866903D01*
X84731980Y-81949470D01*
X84645899Y-82075453D01*
X84636270Y-82123000D01*
X84500000Y-82123000D01*
X84260057Y-82170728D01*
X84078562Y-82291999D01*
X84056644Y-82306644D01*
X83806644Y-82556644D01*
X83670728Y-82760057D01*
X83623000Y-83000000D01*
X83623000Y-89000000D01*
X83670728Y-89239943D01*
X83766244Y-89382893D01*
X83806644Y-89443356D01*
X87873000Y-93509712D01*
X87873000Y-94208541D01*
X87667588Y-94002770D01*
X87235147Y-93823205D01*
X86766907Y-93822796D01*
X86601200Y-93891265D01*
X85854968Y-93145032D01*
X85692107Y-93036212D01*
X85500000Y-92997999D01*
X85499995Y-92998000D01*
X83707935Y-92998000D01*
X80069321Y-89359385D01*
X80475000Y-89359385D01*
X80606639Y-89334615D01*
X80606673Y-89334698D01*
X80785301Y-89513327D01*
X81018690Y-89610000D01*
X81159250Y-89610000D01*
X81318000Y-89451250D01*
X81318000Y-88327000D01*
X81572000Y-88327000D01*
X81572000Y-89451250D01*
X81730750Y-89610000D01*
X81871310Y-89610000D01*
X82104699Y-89513327D01*
X82283327Y-89334698D01*
X82380000Y-89101309D01*
X82380000Y-88485750D01*
X82221250Y-88327000D01*
X81572000Y-88327000D01*
X81318000Y-88327000D01*
X81298000Y-88327000D01*
X81298000Y-88073000D01*
X81318000Y-88073000D01*
X81318000Y-86948750D01*
X81572000Y-86948750D01*
X81572000Y-88073000D01*
X82221250Y-88073000D01*
X82380000Y-87914250D01*
X82380000Y-87298691D01*
X82283327Y-87065302D01*
X82104699Y-86886673D01*
X81871310Y-86790000D01*
X81730750Y-86790000D01*
X81572000Y-86948750D01*
X81318000Y-86948750D01*
X81159250Y-86790000D01*
X81018690Y-86790000D01*
X80785301Y-86886673D01*
X80752000Y-86919974D01*
X80752000Y-86000000D01*
X80713788Y-85807893D01*
X80713788Y-85807892D01*
X80668385Y-85739943D01*
X80604968Y-85645032D01*
X80604965Y-85645030D01*
X80209936Y-85250000D01*
X80854965Y-84604970D01*
X80854968Y-84604968D01*
X81500550Y-83959385D01*
X81745000Y-83959385D01*
X81884708Y-83933097D01*
X82013020Y-83850530D01*
X82099101Y-83724547D01*
X82129385Y-83575000D01*
X82129385Y-82025000D01*
X82103097Y-81885292D01*
X82091956Y-81867979D01*
X82207935Y-81752000D01*
X86735251Y-81752000D01*
X86650899Y-81875453D01*
X86650899Y-81875453D01*
G37*
X86650899Y-81875453D02*
X86620615Y-82025000D01*
X86620615Y-82223000D01*
X86384009Y-82223000D01*
X86358097Y-82085292D01*
X86275530Y-81956980D01*
X86149547Y-81870899D01*
X86000000Y-81840615D01*
X85000000Y-81840615D01*
X84860292Y-81866903D01*
X84731980Y-81949470D01*
X84645899Y-82075453D01*
X84636270Y-82123000D01*
X84500000Y-82123000D01*
X84260057Y-82170728D01*
X84078562Y-82291999D01*
X84056644Y-82306644D01*
X83806644Y-82556644D01*
X83670728Y-82760057D01*
X83623000Y-83000000D01*
X83623000Y-89000000D01*
X83670728Y-89239943D01*
X83766244Y-89382893D01*
X83806644Y-89443356D01*
X87873000Y-93509712D01*
X87873000Y-94208541D01*
X87667588Y-94002770D01*
X87235147Y-93823205D01*
X86766907Y-93822796D01*
X86601200Y-93891265D01*
X85854968Y-93145032D01*
X85692107Y-93036212D01*
X85500000Y-92997999D01*
X85499995Y-92998000D01*
X83707935Y-92998000D01*
X80069321Y-89359385D01*
X80475000Y-89359385D01*
X80606639Y-89334615D01*
X80606673Y-89334698D01*
X80785301Y-89513327D01*
X81018690Y-89610000D01*
X81159250Y-89610000D01*
X81318000Y-89451250D01*
X81318000Y-88327000D01*
X81572000Y-88327000D01*
X81572000Y-89451250D01*
X81730750Y-89610000D01*
X81871310Y-89610000D01*
X82104699Y-89513327D01*
X82283327Y-89334698D01*
X82380000Y-89101309D01*
X82380000Y-88485750D01*
X82221250Y-88327000D01*
X81572000Y-88327000D01*
X81318000Y-88327000D01*
X81298000Y-88327000D01*
X81298000Y-88073000D01*
X81318000Y-88073000D01*
X81318000Y-86948750D01*
X81572000Y-86948750D01*
X81572000Y-88073000D01*
X82221250Y-88073000D01*
X82380000Y-87914250D01*
X82380000Y-87298691D01*
X82283327Y-87065302D01*
X82104699Y-86886673D01*
X81871310Y-86790000D01*
X81730750Y-86790000D01*
X81572000Y-86948750D01*
X81318000Y-86948750D01*
X81159250Y-86790000D01*
X81018690Y-86790000D01*
X80785301Y-86886673D01*
X80752000Y-86919974D01*
X80752000Y-86000000D01*
X80713788Y-85807893D01*
X80713788Y-85807892D01*
X80668385Y-85739943D01*
X80604968Y-85645032D01*
X80604965Y-85645030D01*
X80209936Y-85250000D01*
X80854965Y-84604970D01*
X80854968Y-84604968D01*
X81500550Y-83959385D01*
X81745000Y-83959385D01*
X81884708Y-83933097D01*
X82013020Y-83850530D01*
X82099101Y-83724547D01*
X82129385Y-83575000D01*
X82129385Y-82025000D01*
X82103097Y-81885292D01*
X82091956Y-81867979D01*
X82207935Y-81752000D01*
X86735251Y-81752000D01*
X86650899Y-81875453D01*
G36*
X94423000Y-86632935D02*
X94423000Y-87106987D01*
X94356980Y-87149470D01*
X94289370Y-87248420D01*
X94230530Y-87156980D01*
X94104547Y-87070899D01*
X93955000Y-87040615D01*
X93355000Y-87040615D01*
X93215292Y-87066903D01*
X93086980Y-87149470D01*
X93019370Y-87248420D01*
X92960530Y-87156980D01*
X92834547Y-87070899D01*
X92685000Y-87040615D01*
X92085000Y-87040615D01*
X91945292Y-87066903D01*
X91816980Y-87149470D01*
X91749370Y-87248420D01*
X91690530Y-87156980D01*
X91564547Y-87070899D01*
X91415000Y-87040615D01*
X90815000Y-87040615D01*
X90675292Y-87066903D01*
X90546980Y-87149470D01*
X90479370Y-87248420D01*
X90420530Y-87156980D01*
X90294547Y-87070899D01*
X90145000Y-87040615D01*
X89545000Y-87040615D01*
X89405292Y-87066903D01*
X89276980Y-87149470D01*
X89209370Y-87248420D01*
X89150530Y-87156980D01*
X89024547Y-87070899D01*
X88875000Y-87040615D01*
X88275000Y-87040615D01*
X88135292Y-87066903D01*
X88006980Y-87149470D01*
X87939370Y-87248420D01*
X87880530Y-87156980D01*
X87807000Y-87106739D01*
X87807000Y-86402936D01*
X88207935Y-86002000D01*
X93792064Y-86002000D01*
X94423000Y-86632935D01*
X94423000Y-86632935D01*
G37*
X94423000Y-86632935D02*
X94423000Y-87106987D01*
X94356980Y-87149470D01*
X94289370Y-87248420D01*
X94230530Y-87156980D01*
X94104547Y-87070899D01*
X93955000Y-87040615D01*
X93355000Y-87040615D01*
X93215292Y-87066903D01*
X93086980Y-87149470D01*
X93019370Y-87248420D01*
X92960530Y-87156980D01*
X92834547Y-87070899D01*
X92685000Y-87040615D01*
X92085000Y-87040615D01*
X91945292Y-87066903D01*
X91816980Y-87149470D01*
X91749370Y-87248420D01*
X91690530Y-87156980D01*
X91564547Y-87070899D01*
X91415000Y-87040615D01*
X90815000Y-87040615D01*
X90675292Y-87066903D01*
X90546980Y-87149470D01*
X90479370Y-87248420D01*
X90420530Y-87156980D01*
X90294547Y-87070899D01*
X90145000Y-87040615D01*
X89545000Y-87040615D01*
X89405292Y-87066903D01*
X89276980Y-87149470D01*
X89209370Y-87248420D01*
X89150530Y-87156980D01*
X89024547Y-87070899D01*
X88875000Y-87040615D01*
X88275000Y-87040615D01*
X88135292Y-87066903D01*
X88006980Y-87149470D01*
X87939370Y-87248420D01*
X87880530Y-87156980D01*
X87807000Y-87106739D01*
X87807000Y-86402936D01*
X88207935Y-86002000D01*
X93792064Y-86002000D01*
X94423000Y-86632935D01*
G36*
X79748000Y-86207935D02*
X79748000Y-87064512D01*
X79735292Y-87066903D01*
X79606980Y-87149470D01*
X79539370Y-87248420D01*
X79480530Y-87156980D01*
X79354547Y-87070899D01*
X79205000Y-87040615D01*
X78605000Y-87040615D01*
X78465292Y-87066903D01*
X78336980Y-87149470D01*
X78269370Y-87248420D01*
X78210530Y-87156980D01*
X78084547Y-87070899D01*
X77935000Y-87040615D01*
X77335000Y-87040615D01*
X77195292Y-87066903D01*
X77066980Y-87149470D01*
X76999370Y-87248420D01*
X76940530Y-87156980D01*
X76814547Y-87070899D01*
X76665000Y-87040615D01*
X76065000Y-87040615D01*
X75925292Y-87066903D01*
X75796980Y-87149470D01*
X75729370Y-87248420D01*
X75670530Y-87156980D01*
X75544547Y-87070899D01*
X75395000Y-87040615D01*
X74795000Y-87040615D01*
X74655292Y-87066903D01*
X74526980Y-87149470D01*
X74459370Y-87248420D01*
X74400530Y-87156980D01*
X74274547Y-87070899D01*
X74125000Y-87040615D01*
X73525000Y-87040615D01*
X73385292Y-87066903D01*
X73256980Y-87149470D01*
X73189370Y-87248420D01*
X73130530Y-87156980D01*
X73004547Y-87070899D01*
X73002000Y-87070383D01*
X73002000Y-86207936D01*
X73457935Y-85752000D01*
X79292064Y-85752000D01*
X79748000Y-86207935D01*
X79748000Y-86207935D01*
G37*
X79748000Y-86207935D02*
X79748000Y-87064512D01*
X79735292Y-87066903D01*
X79606980Y-87149470D01*
X79539370Y-87248420D01*
X79480530Y-87156980D01*
X79354547Y-87070899D01*
X79205000Y-87040615D01*
X78605000Y-87040615D01*
X78465292Y-87066903D01*
X78336980Y-87149470D01*
X78269370Y-87248420D01*
X78210530Y-87156980D01*
X78084547Y-87070899D01*
X77935000Y-87040615D01*
X77335000Y-87040615D01*
X77195292Y-87066903D01*
X77066980Y-87149470D01*
X76999370Y-87248420D01*
X76940530Y-87156980D01*
X76814547Y-87070899D01*
X76665000Y-87040615D01*
X76065000Y-87040615D01*
X75925292Y-87066903D01*
X75796980Y-87149470D01*
X75729370Y-87248420D01*
X75670530Y-87156980D01*
X75544547Y-87070899D01*
X75395000Y-87040615D01*
X74795000Y-87040615D01*
X74655292Y-87066903D01*
X74526980Y-87149470D01*
X74459370Y-87248420D01*
X74400530Y-87156980D01*
X74274547Y-87070899D01*
X74125000Y-87040615D01*
X73525000Y-87040615D01*
X73385292Y-87066903D01*
X73256980Y-87149470D01*
X73189370Y-87248420D01*
X73130530Y-87156980D01*
X73004547Y-87070899D01*
X73002000Y-87070383D01*
X73002000Y-86207936D01*
X73457935Y-85752000D01*
X79292064Y-85752000D01*
X79748000Y-86207935D01*
G36*
X92512000Y-82673000D02*
X92532000Y-82673000D01*
X92532000Y-82927000D01*
X92512000Y-82927000D01*
X92512000Y-84051250D01*
X92670750Y-84210000D01*
X92811310Y-84210000D01*
X93044699Y-84113327D01*
X93223327Y-83934698D01*
X93224083Y-83932874D01*
X93355000Y-83959385D01*
X93955000Y-83959385D01*
X94094708Y-83933097D01*
X94223020Y-83850530D01*
X94290630Y-83751580D01*
X94349470Y-83843020D01*
X94475453Y-83929101D01*
X94625000Y-83959385D01*
X94830680Y-83959385D01*
X93792064Y-84998000D01*
X89062480Y-84998000D01*
X89077001Y-84925000D01*
X89077000Y-84924995D01*
X89077000Y-83893013D01*
X89143020Y-83850530D01*
X89210630Y-83751580D01*
X89269470Y-83843020D01*
X89395453Y-83929101D01*
X89545000Y-83959385D01*
X90145000Y-83959385D01*
X90284708Y-83933097D01*
X90413020Y-83850530D01*
X90480630Y-83751580D01*
X90539470Y-83843020D01*
X90665453Y-83929101D01*
X90815000Y-83959385D01*
X91415000Y-83959385D01*
X91546639Y-83934615D01*
X91546673Y-83934698D01*
X91725301Y-84113327D01*
X91958690Y-84210000D01*
X92099250Y-84210000D01*
X92258000Y-84051250D01*
X92258000Y-82927000D01*
X92238000Y-82927000D01*
X92238000Y-82673000D01*
X92258000Y-82673000D01*
X92258000Y-82653000D01*
X92512000Y-82653000D01*
X92512000Y-82673000D01*
X92512000Y-82673000D01*
G37*
X92512000Y-82673000D02*
X92532000Y-82673000D01*
X92532000Y-82927000D01*
X92512000Y-82927000D01*
X92512000Y-84051250D01*
X92670750Y-84210000D01*
X92811310Y-84210000D01*
X93044699Y-84113327D01*
X93223327Y-83934698D01*
X93224083Y-83932874D01*
X93355000Y-83959385D01*
X93955000Y-83959385D01*
X94094708Y-83933097D01*
X94223020Y-83850530D01*
X94290630Y-83751580D01*
X94349470Y-83843020D01*
X94475453Y-83929101D01*
X94625000Y-83959385D01*
X94830680Y-83959385D01*
X93792064Y-84998000D01*
X89062480Y-84998000D01*
X89077001Y-84925000D01*
X89077000Y-84924995D01*
X89077000Y-83893013D01*
X89143020Y-83850530D01*
X89210630Y-83751580D01*
X89269470Y-83843020D01*
X89395453Y-83929101D01*
X89545000Y-83959385D01*
X90145000Y-83959385D01*
X90284708Y-83933097D01*
X90413020Y-83850530D01*
X90480630Y-83751580D01*
X90539470Y-83843020D01*
X90665453Y-83929101D01*
X90815000Y-83959385D01*
X91415000Y-83959385D01*
X91546639Y-83934615D01*
X91546673Y-83934698D01*
X91725301Y-84113327D01*
X91958690Y-84210000D01*
X92099250Y-84210000D01*
X92258000Y-84051250D01*
X92258000Y-82927000D01*
X92238000Y-82927000D01*
X92238000Y-82673000D01*
X92258000Y-82673000D01*
X92258000Y-82653000D01*
X92512000Y-82653000D01*
X92512000Y-82673000D01*
G36*
X77762000Y-82673000D02*
X77782000Y-82673000D01*
X77782000Y-82927000D01*
X77762000Y-82927000D01*
X77762000Y-84051250D01*
X77920750Y-84210000D01*
X78061310Y-84210000D01*
X78294699Y-84113327D01*
X78473327Y-83934698D01*
X78474083Y-83932874D01*
X78605000Y-83959385D01*
X79205000Y-83959385D01*
X79344708Y-83933097D01*
X79473020Y-83850530D01*
X79540630Y-83751580D01*
X79599470Y-83843020D01*
X79725453Y-83929101D01*
X79875000Y-83959385D01*
X80080680Y-83959385D01*
X79292064Y-84748000D01*
X74312480Y-84748000D01*
X74319285Y-84713788D01*
X74327001Y-84675000D01*
X74327000Y-84674995D01*
X74327000Y-83893013D01*
X74393020Y-83850530D01*
X74460630Y-83751580D01*
X74519470Y-83843020D01*
X74645453Y-83929101D01*
X74795000Y-83959385D01*
X75395000Y-83959385D01*
X75534708Y-83933097D01*
X75663020Y-83850530D01*
X75730630Y-83751580D01*
X75789470Y-83843020D01*
X75915453Y-83929101D01*
X76065000Y-83959385D01*
X76665000Y-83959385D01*
X76796639Y-83934615D01*
X76796673Y-83934698D01*
X76975301Y-84113327D01*
X77208690Y-84210000D01*
X77349250Y-84210000D01*
X77508000Y-84051250D01*
X77508000Y-82927000D01*
X77488000Y-82927000D01*
X77488000Y-82673000D01*
X77508000Y-82673000D01*
X77508000Y-82653000D01*
X77762000Y-82653000D01*
X77762000Y-82673000D01*
X77762000Y-82673000D01*
G37*
X77762000Y-82673000D02*
X77782000Y-82673000D01*
X77782000Y-82927000D01*
X77762000Y-82927000D01*
X77762000Y-84051250D01*
X77920750Y-84210000D01*
X78061310Y-84210000D01*
X78294699Y-84113327D01*
X78473327Y-83934698D01*
X78474083Y-83932874D01*
X78605000Y-83959385D01*
X79205000Y-83959385D01*
X79344708Y-83933097D01*
X79473020Y-83850530D01*
X79540630Y-83751580D01*
X79599470Y-83843020D01*
X79725453Y-83929101D01*
X79875000Y-83959385D01*
X80080680Y-83959385D01*
X79292064Y-84748000D01*
X74312480Y-84748000D01*
X74319285Y-84713788D01*
X74327001Y-84675000D01*
X74327000Y-84674995D01*
X74327000Y-83893013D01*
X74393020Y-83850530D01*
X74460630Y-83751580D01*
X74519470Y-83843020D01*
X74645453Y-83929101D01*
X74795000Y-83959385D01*
X75395000Y-83959385D01*
X75534708Y-83933097D01*
X75663020Y-83850530D01*
X75730630Y-83751580D01*
X75789470Y-83843020D01*
X75915453Y-83929101D01*
X76065000Y-83959385D01*
X76665000Y-83959385D01*
X76796639Y-83934615D01*
X76796673Y-83934698D01*
X76975301Y-84113327D01*
X77208690Y-84210000D01*
X77349250Y-84210000D01*
X77508000Y-84051250D01*
X77508000Y-82927000D01*
X77488000Y-82927000D01*
X77488000Y-82673000D01*
X77508000Y-82673000D01*
X77508000Y-82653000D01*
X77762000Y-82653000D01*
X77762000Y-82673000D01*
M02*
