M48
;DRILL file {KiCad 4.0.2-4+6225~38~ubuntu15.10.1-stable} date Mon 28 Mar 2016 15:26:55 BST
;FORMAT={-:-/ absolute / inch / decimal}
FMAT,2
INCH,TZ
T1C0.016
T2C0.031
T3C0.040
T4C0.047
%
G90
G05
M72
T1
X2.5394Y-3.6614
X2.5591Y-2.7559
X2.5591Y-2.9528
X2.5591Y-3.1496
X2.5591Y-3.3465
X2.5591Y-3.5433
X2.5591Y-3.937
X2.5591Y-4.1339
X2.5591Y-4.3307
X2.7165Y-3.6614
X2.7362Y-3.4449
X2.7559Y-2.7559
X2.7559Y-2.9528
X2.7559Y-3.937
X2.7559Y-4.1339
X2.7559Y-4.3307
X2.7756Y-3.563
X2.7854Y-3.3661
X2.874Y-3.6614
X2.8937Y-3.4055
X2.8937Y-3.563
X2.9528Y-3.937
X2.9528Y-4.1339
X2.9528Y-4.3307
X2.9724Y-3.3268
X2.9921Y-3.6614
X3.0512Y-3.3169
X3.0512Y-3.563
X3.0709Y-3.4055
X3.1496Y-2.9528
X3.1496Y-3.1496
X3.1496Y-3.6614
X3.1496Y-3.937
X3.1496Y-4.1339
X3.1496Y-4.3307
X3.1988Y-3.4154
X3.248Y-3.3465
X3.248Y-3.5433
X3.248Y-3.7598
X3.3465Y-2.7559
X3.3465Y-2.9528
X3.3465Y-3.1496
X3.3465Y-3.937
X3.3465Y-4.1339
X3.3465Y-4.3307
X3.3661Y-3.3661
X3.4449Y-3.5433
X3.5039Y-3.4055
X3.5433Y-2.7559
X3.5433Y-2.9528
X3.5433Y-3.3268
X3.5433Y-3.7402
X3.5433Y-3.937
X3.5433Y-4.1339
X3.5433Y-4.3307
X3.5827Y-3.5433
X3.6417Y-3.3169
X3.6614Y-3.622
X3.6811Y-3.4055
X3.7402Y-2.7559
X3.7402Y-3.1496
X3.7402Y-3.7402
X3.7402Y-3.937
X3.7402Y-4.1339
X3.7402Y-4.3307
X3.7795Y-3.3465
X3.7894Y-3.4154
X3.937Y-3.1496
X3.937Y-3.3465
X3.937Y-3.5433
X3.937Y-3.7402
X3.937Y-3.937
X3.937Y-4.1339
X3.937Y-4.3307
X4.1339Y-2.7559
X4.1339Y-2.9528
X4.1339Y-3.7402
X4.1339Y-3.937
X4.1339Y-4.1339
X4.1339Y-4.3307
X4.3307Y-2.7559
X4.3307Y-2.9528
X4.3307Y-3.7402
X4.3307Y-3.937
X4.3307Y-4.1339
X4.3307Y-4.3307
T2
X2.5787Y-3.7402
X2.6575Y-3.7402
X2.8346Y-3.7402
X2.9134Y-3.7402
X3.0906Y-3.7402
X3.1693Y-3.7402
X3.3465Y-3.7402
X3.4252Y-3.7402
X3.6024Y-3.7402
X3.6811Y-3.7402
X3.8583Y-3.7402
X3.937Y-3.7402
X4.0354Y-2.8642
X4.0354Y-2.9429
X4.1142Y-3.7402
X4.1929Y-3.7402
T3
X2.55Y-2.5
X2.65Y-2.5
X2.75Y-2.5
X2.85Y-2.5
X2.8937Y-2.6969
X2.8937Y-2.7969
X2.8937Y-2.8969
X2.8937Y-2.9969
X2.9Y-4.4
X2.95Y-2.5
X3.Y-4.4
X3.05Y-2.5
X3.1Y-4.4
X3.15Y-2.5
X3.2Y-4.4
X3.25Y-2.5
X3.3Y-4.4
X3.35Y-2.5
X3.4Y-4.4
X3.45Y-2.5
X3.5Y-4.4
X3.6Y-2.5
X3.6Y-4.4
X3.7Y-2.5
X3.8Y-2.5
X3.8Y-4.4
X3.9Y-2.5
X3.9Y-4.4
X4.Y-2.5
X4.Y-4.4
X4.1Y-2.5
X4.1Y-4.4
X4.2Y-2.5
X4.2Y-4.4
X4.3Y-2.5
X4.3Y-4.4
T4
X2.5197Y-3.8228
X2.7165Y-3.8228
X2.7756Y-3.8228
X2.9724Y-3.8228
X3.0315Y-3.8228
X3.2283Y-3.8228
X3.2874Y-3.8228
X3.4843Y-3.8228
X3.5433Y-3.8228
X3.7402Y-3.8228
X3.7992Y-3.8228
X3.9961Y-3.8228
X4.0551Y-3.8228
X4.1181Y-2.8051
X4.1181Y-3.002
X4.252Y-3.8228
T0
M30
