G04 #@! TF.FileFunction,Copper,L2,Bot,Signal*
%FSLAX46Y46*%
G04 Gerber Fmt 4.6, Leading zero omitted, Abs format (unit mm)*
G04 Created by KiCad (PCBNEW 4.0.2-4+6225~38~ubuntu15.10.1-stable) date Mon 28 Mar 2016 15:26:53 BST*
%MOMM*%
G01*
G04 APERTURE LIST*
%ADD10C,0.100000*%
%ADD11R,1.727200X2.032000*%
%ADD12O,1.727200X2.032000*%
%ADD13R,2.032000X1.727200*%
%ADD14O,2.032000X1.727200*%
%ADD15C,1.600000*%
%ADD16C,0.600000*%
%ADD17C,0.500000*%
%ADD18C,0.250000*%
G04 APERTURE END LIST*
D10*
D11*
X73660000Y-111760000D03*
D12*
X76200000Y-111760000D03*
X78740000Y-111760000D03*
X81280000Y-111760000D03*
X83820000Y-111760000D03*
X86360000Y-111760000D03*
X88900000Y-111760000D03*
X91440000Y-111760000D03*
D11*
X109220000Y-111760000D03*
D12*
X106680000Y-111760000D03*
X104140000Y-111760000D03*
X101600000Y-111760000D03*
X99060000Y-111760000D03*
X96520000Y-111760000D03*
D11*
X87630000Y-63500000D03*
D12*
X85090000Y-63500000D03*
X82550000Y-63500000D03*
X80010000Y-63500000D03*
X77470000Y-63500000D03*
X74930000Y-63500000D03*
X72390000Y-63500000D03*
X69850000Y-63500000D03*
X67310000Y-63500000D03*
X64770000Y-63500000D03*
D11*
X109220000Y-63500000D03*
D12*
X106680000Y-63500000D03*
X104140000Y-63500000D03*
X101600000Y-63500000D03*
X99060000Y-63500000D03*
X96520000Y-63500000D03*
X93980000Y-63500000D03*
X91440000Y-63500000D03*
D13*
X73500000Y-68500000D03*
D14*
X73500000Y-71040000D03*
X73500000Y-73580000D03*
X73500000Y-76120000D03*
D15*
X78500000Y-95000000D03*
X80500000Y-95000000D03*
X85000000Y-95000000D03*
X87000000Y-95000000D03*
X65500000Y-95000000D03*
X67500000Y-95000000D03*
X72000000Y-95000000D03*
X74000000Y-95000000D03*
X91500000Y-95000000D03*
X93500000Y-95000000D03*
X98000000Y-95000000D03*
X100000000Y-95000000D03*
X104500000Y-95000000D03*
X106500000Y-95000000D03*
X102500000Y-74750000D03*
X102500000Y-72750000D03*
D16*
X73500000Y-90500000D03*
X82500000Y-95500000D03*
X80000000Y-93000000D03*
X77500000Y-90500000D03*
X93500000Y-86500000D03*
X96000000Y-85000000D03*
X89000000Y-86500000D03*
X73500000Y-86500000D03*
X77500000Y-84250000D03*
X75500000Y-84500000D03*
X78000000Y-86500000D03*
X76000000Y-93000000D03*
X69000000Y-93000000D03*
X70500000Y-90500000D03*
X69500000Y-87500000D03*
X73000000Y-93000000D03*
X64500000Y-93000000D03*
X95000000Y-95000000D03*
X90000000Y-95000000D03*
X65000000Y-100000000D03*
X70000000Y-100000000D03*
X75000000Y-100000000D03*
X80000000Y-100000000D03*
X105000000Y-100000000D03*
X100000000Y-100000000D03*
X95000000Y-100000000D03*
X90000000Y-100000000D03*
X85000000Y-100000000D03*
X85000000Y-110000000D03*
X80000000Y-110000000D03*
X75000000Y-110000000D03*
X70000000Y-110000000D03*
X65000000Y-110000000D03*
X65000000Y-105000000D03*
X70000000Y-105000000D03*
X75000000Y-105000000D03*
X80000000Y-105000000D03*
X110000000Y-95000000D03*
X110000000Y-100000000D03*
X110000000Y-105000000D03*
X105000000Y-105000000D03*
X100000000Y-105000000D03*
X95000000Y-105000000D03*
X90000000Y-105000000D03*
X85000000Y-105000000D03*
X90000000Y-110000000D03*
X95000000Y-110000000D03*
X100000000Y-110000000D03*
X105000000Y-110000000D03*
X110000000Y-110000000D03*
X82500000Y-90000000D03*
X70000000Y-70000000D03*
X65000000Y-70000000D03*
X65000000Y-75000000D03*
X70000000Y-75000000D03*
X65000000Y-90000000D03*
X65000000Y-85000000D03*
X65000000Y-80000000D03*
X92500000Y-84250000D03*
X90000000Y-84500000D03*
X95000000Y-80000000D03*
X100000000Y-80000000D03*
X105000000Y-75000000D03*
X110000000Y-75000000D03*
X110000000Y-70000000D03*
X105000000Y-70000000D03*
X85000000Y-70000000D03*
X90000000Y-70000000D03*
X95000000Y-70000000D03*
X85000000Y-80000000D03*
X80000000Y-80000000D03*
X80000000Y-75000000D03*
X85000000Y-75000000D03*
X90000000Y-75000000D03*
X96250000Y-86750000D03*
X85500000Y-85500000D03*
X81250000Y-86750000D03*
X70750000Y-85500000D03*
X91000000Y-90000000D03*
X93000000Y-92000000D03*
X87500000Y-90000000D03*
X82500000Y-85000000D03*
X100000000Y-85000000D03*
X100000000Y-90000000D03*
X100000000Y-95000000D03*
X105000000Y-95000000D03*
D17*
X73500000Y-90500000D02*
X77500000Y-90500000D01*
X70500000Y-90500000D02*
X73500000Y-90500000D01*
X83000000Y-95000000D02*
X82500000Y-95500000D01*
X83000000Y-94500000D02*
X83000000Y-95000000D01*
X81500000Y-93000000D02*
X83000000Y-94500000D01*
X80000000Y-93000000D02*
X81500000Y-93000000D01*
X94500000Y-86500000D02*
X93500000Y-86500000D01*
D18*
X96000000Y-85000000D02*
X100000000Y-85000000D01*
D17*
X96000000Y-85000000D02*
X94500000Y-86500000D01*
X73500000Y-86500000D02*
X75500000Y-84500000D01*
X73000000Y-93000000D02*
X76000000Y-93000000D01*
X64500000Y-93000000D02*
X69000000Y-93000000D01*
X70500000Y-88500000D02*
X70500000Y-90500000D01*
X67500000Y-87500000D02*
X65000000Y-90000000D01*
X67500000Y-87500000D02*
X69500000Y-87500000D01*
X69500000Y-87500000D02*
X70500000Y-88500000D01*
X69000000Y-93000000D02*
X73000000Y-93000000D01*
X95000000Y-90000000D02*
X95000000Y-95000000D01*
X85000000Y-90000000D02*
X90000000Y-95000000D01*
X80000000Y-100000000D02*
X85000000Y-100000000D01*
D18*
X65000000Y-100000000D02*
X70000000Y-100000000D01*
X75000000Y-100000000D02*
X80000000Y-100000000D01*
D17*
X100000000Y-100000000D02*
X105000000Y-100000000D01*
X90000000Y-100000000D02*
X95000000Y-100000000D01*
D18*
X80000000Y-105000000D02*
X85000000Y-105000000D01*
X85000000Y-110000000D02*
X80000000Y-110000000D01*
X75000000Y-110000000D02*
X70000000Y-110000000D01*
X65000000Y-110000000D02*
X65000000Y-105000000D01*
X70000000Y-105000000D02*
X75000000Y-105000000D01*
X110000000Y-105000000D02*
X110000000Y-100000000D01*
X100000000Y-105000000D02*
X105000000Y-105000000D01*
X90000000Y-105000000D02*
X95000000Y-105000000D01*
X90000000Y-110000000D02*
X95000000Y-110000000D01*
X100000000Y-110000000D02*
X105000000Y-110000000D01*
X82500000Y-90000000D02*
X77000000Y-90000000D01*
X70000000Y-70000000D02*
X65000000Y-70000000D01*
X65000000Y-75000000D02*
X70000000Y-75000000D01*
X77000000Y-90000000D02*
X72500000Y-90000000D01*
X72500000Y-90000000D02*
X65000000Y-90000000D01*
X65000000Y-80000000D02*
X65000000Y-85000000D01*
X92500000Y-84250000D02*
X90250000Y-84250000D01*
X90250000Y-84250000D02*
X90000000Y-84500000D01*
X90000000Y-75000000D02*
X95000000Y-80000000D01*
X95000000Y-70000000D02*
X105000000Y-70000000D01*
X110000000Y-70000000D02*
X110000000Y-75000000D01*
X83500000Y-68500000D02*
X85000000Y-70000000D01*
X90000000Y-70000000D02*
X95000000Y-70000000D01*
X73500000Y-68500000D02*
X83500000Y-68500000D01*
X80000000Y-75000000D02*
X80000000Y-80000000D01*
X90000000Y-75000000D02*
X85000000Y-75000000D01*
X100000000Y-80000000D02*
X100000000Y-85000000D01*
X95000000Y-90000000D02*
X91000000Y-90000000D01*
X95000000Y-90000000D02*
X93000000Y-92000000D01*
X82500000Y-85000000D02*
X82500000Y-90000000D01*
X87500000Y-90000000D02*
X95000000Y-90000000D01*
X95000000Y-90000000D02*
X100000000Y-90000000D01*
X82500000Y-90000000D02*
X85000000Y-90000000D01*
X85000000Y-90000000D02*
X87500000Y-90000000D01*
G36*
X110675000Y-78925000D02*
X103505000Y-78925000D01*
X103332792Y-78959254D01*
X103186802Y-79056802D01*
X103089254Y-79202792D01*
X103055000Y-79375000D01*
X103055000Y-89535000D01*
X103089254Y-89707208D01*
X103186802Y-89853198D01*
X103332792Y-89950746D01*
X103505000Y-89985000D01*
X110675000Y-89985000D01*
X110675000Y-113215000D01*
X63315000Y-113215000D01*
X63315000Y-110744000D01*
X72414054Y-110744000D01*
X72414054Y-112776000D01*
X72440202Y-112914966D01*
X72522331Y-113042599D01*
X72647646Y-113128223D01*
X72796400Y-113158346D01*
X74523600Y-113158346D01*
X74662566Y-113132198D01*
X74790199Y-113050069D01*
X74875823Y-112924754D01*
X74905946Y-112776000D01*
X74905946Y-111580349D01*
X74961400Y-111580349D01*
X74961400Y-111939651D01*
X75055683Y-112413643D01*
X75324178Y-112815473D01*
X75726008Y-113083968D01*
X76200000Y-113178251D01*
X76673992Y-113083968D01*
X77075822Y-112815473D01*
X77344317Y-112413643D01*
X77438600Y-111939651D01*
X77438600Y-111580349D01*
X77501400Y-111580349D01*
X77501400Y-111939651D01*
X77595683Y-112413643D01*
X77864178Y-112815473D01*
X78266008Y-113083968D01*
X78740000Y-113178251D01*
X79213992Y-113083968D01*
X79615822Y-112815473D01*
X79884317Y-112413643D01*
X79978600Y-111939651D01*
X79978600Y-111580349D01*
X80041400Y-111580349D01*
X80041400Y-111939651D01*
X80135683Y-112413643D01*
X80404178Y-112815473D01*
X80806008Y-113083968D01*
X81280000Y-113178251D01*
X81753992Y-113083968D01*
X82155822Y-112815473D01*
X82424317Y-112413643D01*
X82518600Y-111939651D01*
X82518600Y-111580349D01*
X82581400Y-111580349D01*
X82581400Y-111939651D01*
X82675683Y-112413643D01*
X82944178Y-112815473D01*
X83346008Y-113083968D01*
X83820000Y-113178251D01*
X84293992Y-113083968D01*
X84695822Y-112815473D01*
X84964317Y-112413643D01*
X85058600Y-111939651D01*
X85058600Y-111765000D01*
X85111400Y-111765000D01*
X85111400Y-111917400D01*
X85208357Y-112394838D01*
X85480642Y-112798829D01*
X85886801Y-113067869D01*
X86159739Y-113144836D01*
X86355000Y-113064739D01*
X86355000Y-111765000D01*
X86365000Y-111765000D01*
X86365000Y-113064739D01*
X86560261Y-113144836D01*
X86833199Y-113067869D01*
X87239358Y-112798829D01*
X87511643Y-112394838D01*
X87608600Y-111917400D01*
X87608600Y-111765000D01*
X87651400Y-111765000D01*
X87651400Y-111917400D01*
X87748357Y-112394838D01*
X88020642Y-112798829D01*
X88426801Y-113067869D01*
X88699739Y-113144836D01*
X88895000Y-113064739D01*
X88895000Y-111765000D01*
X88905000Y-111765000D01*
X88905000Y-113064739D01*
X89100261Y-113144836D01*
X89373199Y-113067869D01*
X89779358Y-112798829D01*
X90051643Y-112394838D01*
X90148600Y-111917400D01*
X90148600Y-111765000D01*
X88905000Y-111765000D01*
X88895000Y-111765000D01*
X87651400Y-111765000D01*
X87608600Y-111765000D01*
X86365000Y-111765000D01*
X86355000Y-111765000D01*
X85111400Y-111765000D01*
X85058600Y-111765000D01*
X85058600Y-111602600D01*
X85111400Y-111602600D01*
X85111400Y-111755000D01*
X86355000Y-111755000D01*
X86355000Y-110455261D01*
X86365000Y-110455261D01*
X86365000Y-111755000D01*
X87608600Y-111755000D01*
X87608600Y-111602600D01*
X87651400Y-111602600D01*
X87651400Y-111755000D01*
X88895000Y-111755000D01*
X88895000Y-110455261D01*
X88905000Y-110455261D01*
X88905000Y-111755000D01*
X90148600Y-111755000D01*
X90148600Y-111602600D01*
X90144082Y-111580349D01*
X90201400Y-111580349D01*
X90201400Y-111939651D01*
X90295683Y-112413643D01*
X90564178Y-112815473D01*
X90966008Y-113083968D01*
X91440000Y-113178251D01*
X91913992Y-113083968D01*
X92315822Y-112815473D01*
X92584317Y-112413643D01*
X92678600Y-111939651D01*
X92678600Y-111580349D01*
X95281400Y-111580349D01*
X95281400Y-111939651D01*
X95375683Y-112413643D01*
X95644178Y-112815473D01*
X96046008Y-113083968D01*
X96520000Y-113178251D01*
X96993992Y-113083968D01*
X97395822Y-112815473D01*
X97664317Y-112413643D01*
X97758600Y-111939651D01*
X97758600Y-111580349D01*
X97821400Y-111580349D01*
X97821400Y-111939651D01*
X97915683Y-112413643D01*
X98184178Y-112815473D01*
X98586008Y-113083968D01*
X99060000Y-113178251D01*
X99533992Y-113083968D01*
X99935822Y-112815473D01*
X100204317Y-112413643D01*
X100298600Y-111939651D01*
X100298600Y-111580349D01*
X100361400Y-111580349D01*
X100361400Y-111939651D01*
X100455683Y-112413643D01*
X100724178Y-112815473D01*
X101126008Y-113083968D01*
X101600000Y-113178251D01*
X102073992Y-113083968D01*
X102475822Y-112815473D01*
X102744317Y-112413643D01*
X102838600Y-111939651D01*
X102838600Y-111580349D01*
X102901400Y-111580349D01*
X102901400Y-111939651D01*
X102995683Y-112413643D01*
X103264178Y-112815473D01*
X103666008Y-113083968D01*
X104140000Y-113178251D01*
X104613992Y-113083968D01*
X105015822Y-112815473D01*
X105284317Y-112413643D01*
X105378600Y-111939651D01*
X105378600Y-111580349D01*
X105441400Y-111580349D01*
X105441400Y-111939651D01*
X105535683Y-112413643D01*
X105804178Y-112815473D01*
X106206008Y-113083968D01*
X106680000Y-113178251D01*
X107153992Y-113083968D01*
X107555822Y-112815473D01*
X107824317Y-112413643D01*
X107918600Y-111939651D01*
X107918600Y-111580349D01*
X107824317Y-111106357D01*
X107582198Y-110744000D01*
X107974054Y-110744000D01*
X107974054Y-112776000D01*
X108000202Y-112914966D01*
X108082331Y-113042599D01*
X108207646Y-113128223D01*
X108356400Y-113158346D01*
X110083600Y-113158346D01*
X110222566Y-113132198D01*
X110350199Y-113050069D01*
X110435823Y-112924754D01*
X110465946Y-112776000D01*
X110465946Y-110744000D01*
X110439798Y-110605034D01*
X110357669Y-110477401D01*
X110232354Y-110391777D01*
X110083600Y-110361654D01*
X108356400Y-110361654D01*
X108217434Y-110387802D01*
X108089801Y-110469931D01*
X108004177Y-110595246D01*
X107974054Y-110744000D01*
X107582198Y-110744000D01*
X107555822Y-110704527D01*
X107153992Y-110436032D01*
X106680000Y-110341749D01*
X106206008Y-110436032D01*
X105804178Y-110704527D01*
X105535683Y-111106357D01*
X105441400Y-111580349D01*
X105378600Y-111580349D01*
X105284317Y-111106357D01*
X105015822Y-110704527D01*
X104613992Y-110436032D01*
X104140000Y-110341749D01*
X103666008Y-110436032D01*
X103264178Y-110704527D01*
X102995683Y-111106357D01*
X102901400Y-111580349D01*
X102838600Y-111580349D01*
X102744317Y-111106357D01*
X102475822Y-110704527D01*
X102073992Y-110436032D01*
X101600000Y-110341749D01*
X101126008Y-110436032D01*
X100724178Y-110704527D01*
X100455683Y-111106357D01*
X100361400Y-111580349D01*
X100298600Y-111580349D01*
X100204317Y-111106357D01*
X99935822Y-110704527D01*
X99533992Y-110436032D01*
X99060000Y-110341749D01*
X98586008Y-110436032D01*
X98184178Y-110704527D01*
X97915683Y-111106357D01*
X97821400Y-111580349D01*
X97758600Y-111580349D01*
X97664317Y-111106357D01*
X97395822Y-110704527D01*
X96993992Y-110436032D01*
X96520000Y-110341749D01*
X96046008Y-110436032D01*
X95644178Y-110704527D01*
X95375683Y-111106357D01*
X95281400Y-111580349D01*
X92678600Y-111580349D01*
X92584317Y-111106357D01*
X92315822Y-110704527D01*
X91913992Y-110436032D01*
X91440000Y-110341749D01*
X90966008Y-110436032D01*
X90564178Y-110704527D01*
X90295683Y-111106357D01*
X90201400Y-111580349D01*
X90144082Y-111580349D01*
X90051643Y-111125162D01*
X89779358Y-110721171D01*
X89373199Y-110452131D01*
X89100261Y-110375164D01*
X88905000Y-110455261D01*
X88895000Y-110455261D01*
X88699739Y-110375164D01*
X88426801Y-110452131D01*
X88020642Y-110721171D01*
X87748357Y-111125162D01*
X87651400Y-111602600D01*
X87608600Y-111602600D01*
X87511643Y-111125162D01*
X87239358Y-110721171D01*
X86833199Y-110452131D01*
X86560261Y-110375164D01*
X86365000Y-110455261D01*
X86355000Y-110455261D01*
X86159739Y-110375164D01*
X85886801Y-110452131D01*
X85480642Y-110721171D01*
X85208357Y-111125162D01*
X85111400Y-111602600D01*
X85058600Y-111602600D01*
X85058600Y-111580349D01*
X84964317Y-111106357D01*
X84695822Y-110704527D01*
X84293992Y-110436032D01*
X83820000Y-110341749D01*
X83346008Y-110436032D01*
X82944178Y-110704527D01*
X82675683Y-111106357D01*
X82581400Y-111580349D01*
X82518600Y-111580349D01*
X82424317Y-111106357D01*
X82155822Y-110704527D01*
X81753992Y-110436032D01*
X81280000Y-110341749D01*
X80806008Y-110436032D01*
X80404178Y-110704527D01*
X80135683Y-111106357D01*
X80041400Y-111580349D01*
X79978600Y-111580349D01*
X79884317Y-111106357D01*
X79615822Y-110704527D01*
X79213992Y-110436032D01*
X78740000Y-110341749D01*
X78266008Y-110436032D01*
X77864178Y-110704527D01*
X77595683Y-111106357D01*
X77501400Y-111580349D01*
X77438600Y-111580349D01*
X77344317Y-111106357D01*
X77075822Y-110704527D01*
X76673992Y-110436032D01*
X76200000Y-110341749D01*
X75726008Y-110436032D01*
X75324178Y-110704527D01*
X75055683Y-111106357D01*
X74961400Y-111580349D01*
X74905946Y-111580349D01*
X74905946Y-110744000D01*
X74879798Y-110605034D01*
X74797669Y-110477401D01*
X74672354Y-110391777D01*
X74523600Y-110361654D01*
X72796400Y-110361654D01*
X72657434Y-110387802D01*
X72529801Y-110469931D01*
X72444177Y-110595246D01*
X72414054Y-110744000D01*
X63315000Y-110744000D01*
X63315000Y-97793865D01*
X63446986Y-97926082D01*
X63805210Y-98074830D01*
X64193089Y-98075169D01*
X64551571Y-97927046D01*
X64826082Y-97653014D01*
X64974830Y-97294790D01*
X64974831Y-97293089D01*
X68024831Y-97293089D01*
X68172954Y-97651571D01*
X68446986Y-97926082D01*
X68805210Y-98074830D01*
X69193089Y-98075169D01*
X69551571Y-97927046D01*
X69750106Y-97728858D01*
X69946986Y-97926082D01*
X70305210Y-98074830D01*
X70693089Y-98075169D01*
X71051571Y-97927046D01*
X71326082Y-97653014D01*
X71474830Y-97294790D01*
X71474831Y-97293089D01*
X74524831Y-97293089D01*
X74672954Y-97651571D01*
X74946986Y-97926082D01*
X75305210Y-98074830D01*
X75693089Y-98075169D01*
X76051571Y-97927046D01*
X76250106Y-97728858D01*
X76446986Y-97926082D01*
X76805210Y-98074830D01*
X77193089Y-98075169D01*
X77551571Y-97927046D01*
X77826082Y-97653014D01*
X77974830Y-97294790D01*
X77974831Y-97293089D01*
X81024831Y-97293089D01*
X81172954Y-97651571D01*
X81446986Y-97926082D01*
X81805210Y-98074830D01*
X82193089Y-98075169D01*
X82551571Y-97927046D01*
X82750106Y-97728858D01*
X82946986Y-97926082D01*
X83305210Y-98074830D01*
X83693089Y-98075169D01*
X84051571Y-97927046D01*
X84326082Y-97653014D01*
X84474830Y-97294790D01*
X84474831Y-97293089D01*
X87524831Y-97293089D01*
X87672954Y-97651571D01*
X87946986Y-97926082D01*
X88305210Y-98074830D01*
X88693089Y-98075169D01*
X89051571Y-97927046D01*
X89250106Y-97728858D01*
X89446986Y-97926082D01*
X89805210Y-98074830D01*
X90193089Y-98075169D01*
X90551571Y-97927046D01*
X90826082Y-97653014D01*
X90974830Y-97294790D01*
X90974831Y-97293089D01*
X94024831Y-97293089D01*
X94172954Y-97651571D01*
X94446986Y-97926082D01*
X94805210Y-98074830D01*
X95193089Y-98075169D01*
X95551571Y-97927046D01*
X95750106Y-97728858D01*
X95946986Y-97926082D01*
X96305210Y-98074830D01*
X96693089Y-98075169D01*
X97051571Y-97927046D01*
X97326082Y-97653014D01*
X97474830Y-97294790D01*
X97474831Y-97293089D01*
X100524831Y-97293089D01*
X100672954Y-97651571D01*
X100946986Y-97926082D01*
X101305210Y-98074830D01*
X101693089Y-98075169D01*
X102051571Y-97927046D01*
X102250106Y-97728858D01*
X102446986Y-97926082D01*
X102805210Y-98074830D01*
X103193089Y-98075169D01*
X103551571Y-97927046D01*
X103826082Y-97653014D01*
X103974830Y-97294790D01*
X103974831Y-97293089D01*
X107024831Y-97293089D01*
X107172954Y-97651571D01*
X107446986Y-97926082D01*
X107805210Y-98074830D01*
X108193089Y-98075169D01*
X108551571Y-97927046D01*
X108826082Y-97653014D01*
X108974830Y-97294790D01*
X108975169Y-96906911D01*
X108827046Y-96548429D01*
X108553014Y-96273918D01*
X108194790Y-96125170D01*
X107806911Y-96124831D01*
X107448429Y-96272954D01*
X107173918Y-96546986D01*
X107025170Y-96905210D01*
X107024831Y-97293089D01*
X103974831Y-97293089D01*
X103975169Y-96906911D01*
X103827046Y-96548429D01*
X103553014Y-96273918D01*
X103194790Y-96125170D01*
X102806911Y-96124831D01*
X102448429Y-96272954D01*
X102249894Y-96471142D01*
X102053014Y-96273918D01*
X101694790Y-96125170D01*
X101306911Y-96124831D01*
X100948429Y-96272954D01*
X100673918Y-96546986D01*
X100525170Y-96905210D01*
X100524831Y-97293089D01*
X97474831Y-97293089D01*
X97475169Y-96906911D01*
X97327046Y-96548429D01*
X97053014Y-96273918D01*
X96694790Y-96125170D01*
X96306911Y-96124831D01*
X95948429Y-96272954D01*
X95749894Y-96471142D01*
X95553014Y-96273918D01*
X95194790Y-96125170D01*
X94806911Y-96124831D01*
X94448429Y-96272954D01*
X94173918Y-96546986D01*
X94025170Y-96905210D01*
X94024831Y-97293089D01*
X90974831Y-97293089D01*
X90975169Y-96906911D01*
X90827046Y-96548429D01*
X90553014Y-96273918D01*
X90194790Y-96125170D01*
X89806911Y-96124831D01*
X89448429Y-96272954D01*
X89249894Y-96471142D01*
X89053014Y-96273918D01*
X88694790Y-96125170D01*
X88306911Y-96124831D01*
X87948429Y-96272954D01*
X87673918Y-96546986D01*
X87525170Y-96905210D01*
X87524831Y-97293089D01*
X84474831Y-97293089D01*
X84475169Y-96906911D01*
X84327046Y-96548429D01*
X84053014Y-96273918D01*
X83694790Y-96125170D01*
X83306911Y-96124831D01*
X82948429Y-96272954D01*
X82749894Y-96471142D01*
X82553014Y-96273918D01*
X82194790Y-96125170D01*
X81806911Y-96124831D01*
X81448429Y-96272954D01*
X81173918Y-96546986D01*
X81025170Y-96905210D01*
X81024831Y-97293089D01*
X77974831Y-97293089D01*
X77975169Y-96906911D01*
X77827046Y-96548429D01*
X77553014Y-96273918D01*
X77194790Y-96125170D01*
X76806911Y-96124831D01*
X76448429Y-96272954D01*
X76249894Y-96471142D01*
X76053014Y-96273918D01*
X75694790Y-96125170D01*
X75306911Y-96124831D01*
X74948429Y-96272954D01*
X74673918Y-96546986D01*
X74525170Y-96905210D01*
X74524831Y-97293089D01*
X71474831Y-97293089D01*
X71475169Y-96906911D01*
X71327046Y-96548429D01*
X71053014Y-96273918D01*
X70694790Y-96125170D01*
X70306911Y-96124831D01*
X69948429Y-96272954D01*
X69749894Y-96471142D01*
X69553014Y-96273918D01*
X69194790Y-96125170D01*
X68806911Y-96124831D01*
X68448429Y-96272954D01*
X68173918Y-96546986D01*
X68025170Y-96905210D01*
X68024831Y-97293089D01*
X64974831Y-97293089D01*
X64975169Y-96906911D01*
X64827046Y-96548429D01*
X64553014Y-96273918D01*
X64194790Y-96125170D01*
X63806911Y-96124831D01*
X63448429Y-96272954D01*
X63315000Y-96406150D01*
X63315000Y-95232697D01*
X64324796Y-95232697D01*
X64503302Y-95664715D01*
X64833547Y-95995536D01*
X65265253Y-96174796D01*
X65732697Y-96175204D01*
X66164715Y-95996698D01*
X66495536Y-95666453D01*
X66499789Y-95656212D01*
X66503302Y-95664715D01*
X66833547Y-95995536D01*
X67265253Y-96174796D01*
X67732697Y-96175204D01*
X68164715Y-95996698D01*
X68495536Y-95666453D01*
X68674796Y-95234747D01*
X68674797Y-95232697D01*
X70824796Y-95232697D01*
X71003302Y-95664715D01*
X71333547Y-95995536D01*
X71765253Y-96174796D01*
X72232697Y-96175204D01*
X72664715Y-95996698D01*
X72995536Y-95666453D01*
X72999789Y-95656212D01*
X73003302Y-95664715D01*
X73333547Y-95995536D01*
X73765253Y-96174796D01*
X74232697Y-96175204D01*
X74664715Y-95996698D01*
X74995536Y-95666453D01*
X75174796Y-95234747D01*
X75174797Y-95232697D01*
X77324796Y-95232697D01*
X77503302Y-95664715D01*
X77833547Y-95995536D01*
X78265253Y-96174796D01*
X78732697Y-96175204D01*
X79164715Y-95996698D01*
X79495536Y-95666453D01*
X79499789Y-95656212D01*
X79503302Y-95664715D01*
X79833547Y-95995536D01*
X80265253Y-96174796D01*
X80732697Y-96175204D01*
X81164715Y-95996698D01*
X81495536Y-95666453D01*
X81674796Y-95234747D01*
X81674797Y-95232697D01*
X83824796Y-95232697D01*
X84003302Y-95664715D01*
X84333547Y-95995536D01*
X84765253Y-96174796D01*
X85232697Y-96175204D01*
X85664715Y-95996698D01*
X85995536Y-95666453D01*
X85999789Y-95656212D01*
X86003302Y-95664715D01*
X86333547Y-95995536D01*
X86765253Y-96174796D01*
X87232697Y-96175204D01*
X87664715Y-95996698D01*
X87995536Y-95666453D01*
X88174796Y-95234747D01*
X88174797Y-95232697D01*
X90324796Y-95232697D01*
X90503302Y-95664715D01*
X90833547Y-95995536D01*
X91265253Y-96174796D01*
X91732697Y-96175204D01*
X92164715Y-95996698D01*
X92495536Y-95666453D01*
X92499789Y-95656212D01*
X92503302Y-95664715D01*
X92833547Y-95995536D01*
X93265253Y-96174796D01*
X93732697Y-96175204D01*
X94164715Y-95996698D01*
X94495536Y-95666453D01*
X94674796Y-95234747D01*
X94674797Y-95232697D01*
X96824796Y-95232697D01*
X97003302Y-95664715D01*
X97333547Y-95995536D01*
X97765253Y-96174796D01*
X98232697Y-96175204D01*
X98664715Y-95996698D01*
X98995536Y-95666453D01*
X98999789Y-95656212D01*
X99003302Y-95664715D01*
X99333547Y-95995536D01*
X99765253Y-96174796D01*
X100232697Y-96175204D01*
X100664715Y-95996698D01*
X100995536Y-95666453D01*
X101174796Y-95234747D01*
X101174797Y-95232697D01*
X103324796Y-95232697D01*
X103503302Y-95664715D01*
X103833547Y-95995536D01*
X104265253Y-96174796D01*
X104732697Y-96175204D01*
X105164715Y-95996698D01*
X105495536Y-95666453D01*
X105499789Y-95656212D01*
X105503302Y-95664715D01*
X105833547Y-95995536D01*
X106265253Y-96174796D01*
X106732697Y-96175204D01*
X107164715Y-95996698D01*
X107495536Y-95666453D01*
X107674796Y-95234747D01*
X107675204Y-94767303D01*
X107496698Y-94335285D01*
X107166453Y-94004464D01*
X106734747Y-93825204D01*
X106267303Y-93824796D01*
X105835285Y-94003302D01*
X105504464Y-94333547D01*
X105500211Y-94343788D01*
X105496698Y-94335285D01*
X105166453Y-94004464D01*
X104734747Y-93825204D01*
X104267303Y-93824796D01*
X103835285Y-94003302D01*
X103504464Y-94333547D01*
X103325204Y-94765253D01*
X103324796Y-95232697D01*
X101174797Y-95232697D01*
X101175204Y-94767303D01*
X100996698Y-94335285D01*
X100666453Y-94004464D01*
X100234747Y-93825204D01*
X99767303Y-93824796D01*
X99335285Y-94003302D01*
X99004464Y-94333547D01*
X99000211Y-94343788D01*
X98996698Y-94335285D01*
X98666453Y-94004464D01*
X98234747Y-93825204D01*
X97767303Y-93824796D01*
X97335285Y-94003302D01*
X97004464Y-94333547D01*
X96825204Y-94765253D01*
X96824796Y-95232697D01*
X94674797Y-95232697D01*
X94675204Y-94767303D01*
X94496698Y-94335285D01*
X94166453Y-94004464D01*
X93734747Y-93825204D01*
X93267303Y-93824796D01*
X92835285Y-94003302D01*
X92504464Y-94333547D01*
X92500211Y-94343788D01*
X92496698Y-94335285D01*
X92166453Y-94004464D01*
X91734747Y-93825204D01*
X91267303Y-93824796D01*
X90835285Y-94003302D01*
X90504464Y-94333547D01*
X90325204Y-94765253D01*
X90324796Y-95232697D01*
X88174797Y-95232697D01*
X88175204Y-94767303D01*
X87996698Y-94335285D01*
X87666453Y-94004464D01*
X87234747Y-93825204D01*
X86767303Y-93824796D01*
X86335285Y-94003302D01*
X86004464Y-94333547D01*
X86000211Y-94343788D01*
X85996698Y-94335285D01*
X85666453Y-94004464D01*
X85234747Y-93825204D01*
X84767303Y-93824796D01*
X84335285Y-94003302D01*
X84004464Y-94333547D01*
X83825204Y-94765253D01*
X83824796Y-95232697D01*
X81674797Y-95232697D01*
X81675204Y-94767303D01*
X81496698Y-94335285D01*
X81166453Y-94004464D01*
X80734747Y-93825204D01*
X80267303Y-93824796D01*
X79835285Y-94003302D01*
X79504464Y-94333547D01*
X79500211Y-94343788D01*
X79496698Y-94335285D01*
X79166453Y-94004464D01*
X78734747Y-93825204D01*
X78267303Y-93824796D01*
X77835285Y-94003302D01*
X77504464Y-94333547D01*
X77325204Y-94765253D01*
X77324796Y-95232697D01*
X75174797Y-95232697D01*
X75175204Y-94767303D01*
X74996698Y-94335285D01*
X74666453Y-94004464D01*
X74234747Y-93825204D01*
X73767303Y-93824796D01*
X73335285Y-94003302D01*
X73004464Y-94333547D01*
X73000211Y-94343788D01*
X72996698Y-94335285D01*
X72666453Y-94004464D01*
X72234747Y-93825204D01*
X71767303Y-93824796D01*
X71335285Y-94003302D01*
X71004464Y-94333547D01*
X70825204Y-94765253D01*
X70824796Y-95232697D01*
X68674797Y-95232697D01*
X68675204Y-94767303D01*
X68496698Y-94335285D01*
X68166453Y-94004464D01*
X67734747Y-93825204D01*
X67267303Y-93824796D01*
X66835285Y-94003302D01*
X66504464Y-94333547D01*
X66500211Y-94343788D01*
X66496698Y-94335285D01*
X66166453Y-94004464D01*
X65734747Y-93825204D01*
X65267303Y-93824796D01*
X64835285Y-94003302D01*
X64504464Y-94333547D01*
X64325204Y-94765253D01*
X64324796Y-95232697D01*
X63315000Y-95232697D01*
X63315000Y-76120000D01*
X72081749Y-76120000D01*
X72176032Y-76593992D01*
X72444527Y-76995822D01*
X72846357Y-77264317D01*
X73320349Y-77358600D01*
X73679651Y-77358600D01*
X74153643Y-77264317D01*
X74555473Y-76995822D01*
X74823968Y-76593992D01*
X74853984Y-76443089D01*
X103624831Y-76443089D01*
X103772954Y-76801571D01*
X104046986Y-77076082D01*
X104405210Y-77224830D01*
X104793089Y-77225169D01*
X105151571Y-77077046D01*
X105426082Y-76803014D01*
X105574830Y-76444790D01*
X105575169Y-76056911D01*
X105427046Y-75698429D01*
X105153014Y-75423918D01*
X104794790Y-75275170D01*
X104406911Y-75274831D01*
X104048429Y-75422954D01*
X103773918Y-75696986D01*
X103625170Y-76055210D01*
X103624831Y-76443089D01*
X74853984Y-76443089D01*
X74918251Y-76120000D01*
X74823968Y-75646008D01*
X74555473Y-75244178D01*
X74153643Y-74975683D01*
X73679651Y-74881400D01*
X73320349Y-74881400D01*
X72846357Y-74975683D01*
X72444527Y-75244178D01*
X72176032Y-75646008D01*
X72081749Y-76120000D01*
X63315000Y-76120000D01*
X63315000Y-73580000D01*
X72081749Y-73580000D01*
X72176032Y-74053992D01*
X72444527Y-74455822D01*
X72846357Y-74724317D01*
X73320349Y-74818600D01*
X73679651Y-74818600D01*
X74153643Y-74724317D01*
X74555473Y-74455822D01*
X74823968Y-74053992D01*
X74918251Y-73580000D01*
X74823968Y-73106008D01*
X74741574Y-72982697D01*
X101324796Y-72982697D01*
X101503302Y-73414715D01*
X101833547Y-73745536D01*
X101843788Y-73749789D01*
X101835285Y-73753302D01*
X101504464Y-74083547D01*
X101325204Y-74515253D01*
X101324796Y-74982697D01*
X101503302Y-75414715D01*
X101833547Y-75745536D01*
X102265253Y-75924796D01*
X102732697Y-75925204D01*
X103164715Y-75746698D01*
X103495536Y-75416453D01*
X103674796Y-74984747D01*
X103675204Y-74517303D01*
X103496698Y-74085285D01*
X103166453Y-73754464D01*
X103156212Y-73750211D01*
X103164715Y-73746698D01*
X103495536Y-73416453D01*
X103674796Y-72984747D01*
X103675204Y-72517303D01*
X103496698Y-72085285D01*
X103166453Y-71754464D01*
X102734747Y-71575204D01*
X102267303Y-71574796D01*
X101835285Y-71753302D01*
X101504464Y-72083547D01*
X101325204Y-72515253D01*
X101324796Y-72982697D01*
X74741574Y-72982697D01*
X74555473Y-72704178D01*
X74153643Y-72435683D01*
X73679651Y-72341400D01*
X73320349Y-72341400D01*
X72846357Y-72435683D01*
X72444527Y-72704178D01*
X72176032Y-73106008D01*
X72081749Y-73580000D01*
X63315000Y-73580000D01*
X63315000Y-71040000D01*
X72081749Y-71040000D01*
X72176032Y-71513992D01*
X72444527Y-71915822D01*
X72846357Y-72184317D01*
X73320349Y-72278600D01*
X73679651Y-72278600D01*
X74153643Y-72184317D01*
X74555473Y-71915822D01*
X74823968Y-71513992D01*
X74838071Y-71443089D01*
X103624831Y-71443089D01*
X103772954Y-71801571D01*
X104046986Y-72076082D01*
X104405210Y-72224830D01*
X104793089Y-72225169D01*
X105151571Y-72077046D01*
X105426082Y-71803014D01*
X105574830Y-71444790D01*
X105575169Y-71056911D01*
X105427046Y-70698429D01*
X105153014Y-70423918D01*
X104794790Y-70275170D01*
X104406911Y-70274831D01*
X104048429Y-70422954D01*
X103773918Y-70696986D01*
X103625170Y-71055210D01*
X103624831Y-71443089D01*
X74838071Y-71443089D01*
X74918251Y-71040000D01*
X74823968Y-70566008D01*
X74555473Y-70164178D01*
X74153643Y-69895683D01*
X73679651Y-69801400D01*
X73320349Y-69801400D01*
X72846357Y-69895683D01*
X72444527Y-70164178D01*
X72176032Y-70566008D01*
X72081749Y-71040000D01*
X63315000Y-71040000D01*
X63315000Y-68601250D01*
X72099000Y-68601250D01*
X72099000Y-69440182D01*
X72157613Y-69581685D01*
X72265915Y-69689987D01*
X72407419Y-69748600D01*
X73398750Y-69748600D01*
X73495000Y-69652350D01*
X73495000Y-68505000D01*
X73505000Y-68505000D01*
X73505000Y-69652350D01*
X73601250Y-69748600D01*
X74592581Y-69748600D01*
X74734085Y-69689987D01*
X74842387Y-69581685D01*
X74901000Y-69440182D01*
X74901000Y-68601250D01*
X74804750Y-68505000D01*
X73505000Y-68505000D01*
X73495000Y-68505000D01*
X72195250Y-68505000D01*
X72099000Y-68601250D01*
X63315000Y-68601250D01*
X63315000Y-67559818D01*
X72099000Y-67559818D01*
X72099000Y-68398750D01*
X72195250Y-68495000D01*
X73495000Y-68495000D01*
X73495000Y-67347650D01*
X73505000Y-67347650D01*
X73505000Y-68495000D01*
X74804750Y-68495000D01*
X74901000Y-68398750D01*
X74901000Y-67559818D01*
X74842387Y-67418315D01*
X74734085Y-67310013D01*
X74592581Y-67251400D01*
X73601250Y-67251400D01*
X73505000Y-67347650D01*
X73495000Y-67347650D01*
X73398750Y-67251400D01*
X72407419Y-67251400D01*
X72265915Y-67310013D01*
X72157613Y-67418315D01*
X72099000Y-67559818D01*
X63315000Y-67559818D01*
X63315000Y-63320349D01*
X63531400Y-63320349D01*
X63531400Y-63679651D01*
X63625683Y-64153643D01*
X63894178Y-64555473D01*
X64296008Y-64823968D01*
X64770000Y-64918251D01*
X65243992Y-64823968D01*
X65645822Y-64555473D01*
X65914317Y-64153643D01*
X66008600Y-63679651D01*
X66008600Y-63320349D01*
X66071400Y-63320349D01*
X66071400Y-63679651D01*
X66165683Y-64153643D01*
X66434178Y-64555473D01*
X66836008Y-64823968D01*
X67310000Y-64918251D01*
X67783992Y-64823968D01*
X68185822Y-64555473D01*
X68454317Y-64153643D01*
X68548600Y-63679651D01*
X68548600Y-63320349D01*
X68611400Y-63320349D01*
X68611400Y-63679651D01*
X68705683Y-64153643D01*
X68974178Y-64555473D01*
X69376008Y-64823968D01*
X69850000Y-64918251D01*
X70323992Y-64823968D01*
X70725822Y-64555473D01*
X70994317Y-64153643D01*
X71088600Y-63679651D01*
X71088600Y-63505000D01*
X71141400Y-63505000D01*
X71141400Y-63657400D01*
X71238357Y-64134838D01*
X71510642Y-64538829D01*
X71916801Y-64807869D01*
X72189739Y-64884836D01*
X72385000Y-64804739D01*
X72385000Y-63505000D01*
X72395000Y-63505000D01*
X72395000Y-64804739D01*
X72590261Y-64884836D01*
X72863199Y-64807869D01*
X73269358Y-64538829D01*
X73541643Y-64134838D01*
X73638600Y-63657400D01*
X73638600Y-63505000D01*
X72395000Y-63505000D01*
X72385000Y-63505000D01*
X71141400Y-63505000D01*
X71088600Y-63505000D01*
X71088600Y-63342600D01*
X71141400Y-63342600D01*
X71141400Y-63495000D01*
X72385000Y-63495000D01*
X72385000Y-62195261D01*
X72395000Y-62195261D01*
X72395000Y-63495000D01*
X73638600Y-63495000D01*
X73638600Y-63342600D01*
X73634082Y-63320349D01*
X73691400Y-63320349D01*
X73691400Y-63679651D01*
X73785683Y-64153643D01*
X74054178Y-64555473D01*
X74456008Y-64823968D01*
X74930000Y-64918251D01*
X75403992Y-64823968D01*
X75805822Y-64555473D01*
X76074317Y-64153643D01*
X76168600Y-63679651D01*
X76168600Y-63320349D01*
X76231400Y-63320349D01*
X76231400Y-63679651D01*
X76325683Y-64153643D01*
X76594178Y-64555473D01*
X76996008Y-64823968D01*
X77470000Y-64918251D01*
X77943992Y-64823968D01*
X78345822Y-64555473D01*
X78614317Y-64153643D01*
X78708600Y-63679651D01*
X78708600Y-63320349D01*
X78771400Y-63320349D01*
X78771400Y-63679651D01*
X78865683Y-64153643D01*
X79134178Y-64555473D01*
X79536008Y-64823968D01*
X80010000Y-64918251D01*
X80483992Y-64823968D01*
X80885822Y-64555473D01*
X81154317Y-64153643D01*
X81248600Y-63679651D01*
X81248600Y-63320349D01*
X81311400Y-63320349D01*
X81311400Y-63679651D01*
X81405683Y-64153643D01*
X81674178Y-64555473D01*
X82076008Y-64823968D01*
X82550000Y-64918251D01*
X83023992Y-64823968D01*
X83425822Y-64555473D01*
X83694317Y-64153643D01*
X83788600Y-63679651D01*
X83788600Y-63320349D01*
X83851400Y-63320349D01*
X83851400Y-63679651D01*
X83945683Y-64153643D01*
X84214178Y-64555473D01*
X84616008Y-64823968D01*
X85090000Y-64918251D01*
X85563992Y-64823968D01*
X85965822Y-64555473D01*
X86234317Y-64153643D01*
X86328600Y-63679651D01*
X86328600Y-63320349D01*
X86234317Y-62846357D01*
X85992198Y-62484000D01*
X86384054Y-62484000D01*
X86384054Y-64516000D01*
X86410202Y-64654966D01*
X86492331Y-64782599D01*
X86617646Y-64868223D01*
X86766400Y-64898346D01*
X88493600Y-64898346D01*
X88632566Y-64872198D01*
X88760199Y-64790069D01*
X88845823Y-64664754D01*
X88875946Y-64516000D01*
X88875946Y-63320349D01*
X90201400Y-63320349D01*
X90201400Y-63679651D01*
X90295683Y-64153643D01*
X90564178Y-64555473D01*
X90966008Y-64823968D01*
X91440000Y-64918251D01*
X91913992Y-64823968D01*
X92315822Y-64555473D01*
X92584317Y-64153643D01*
X92678600Y-63679651D01*
X92678600Y-63320349D01*
X92741400Y-63320349D01*
X92741400Y-63679651D01*
X92835683Y-64153643D01*
X93104178Y-64555473D01*
X93506008Y-64823968D01*
X93980000Y-64918251D01*
X94453992Y-64823968D01*
X94855822Y-64555473D01*
X95124317Y-64153643D01*
X95218600Y-63679651D01*
X95218600Y-63320349D01*
X95281400Y-63320349D01*
X95281400Y-63679651D01*
X95375683Y-64153643D01*
X95644178Y-64555473D01*
X96046008Y-64823968D01*
X96520000Y-64918251D01*
X96993992Y-64823968D01*
X97395822Y-64555473D01*
X97664317Y-64153643D01*
X97758600Y-63679651D01*
X97758600Y-63320349D01*
X97821400Y-63320349D01*
X97821400Y-63679651D01*
X97915683Y-64153643D01*
X98184178Y-64555473D01*
X98586008Y-64823968D01*
X99060000Y-64918251D01*
X99533992Y-64823968D01*
X99935822Y-64555473D01*
X100204317Y-64153643D01*
X100298600Y-63679651D01*
X100298600Y-63320349D01*
X100361400Y-63320349D01*
X100361400Y-63679651D01*
X100455683Y-64153643D01*
X100724178Y-64555473D01*
X101126008Y-64823968D01*
X101600000Y-64918251D01*
X102073992Y-64823968D01*
X102475822Y-64555473D01*
X102744317Y-64153643D01*
X102838600Y-63679651D01*
X102838600Y-63320349D01*
X102901400Y-63320349D01*
X102901400Y-63679651D01*
X102995683Y-64153643D01*
X103264178Y-64555473D01*
X103666008Y-64823968D01*
X104140000Y-64918251D01*
X104613992Y-64823968D01*
X105015822Y-64555473D01*
X105284317Y-64153643D01*
X105378600Y-63679651D01*
X105378600Y-63320349D01*
X105441400Y-63320349D01*
X105441400Y-63679651D01*
X105535683Y-64153643D01*
X105804178Y-64555473D01*
X106206008Y-64823968D01*
X106680000Y-64918251D01*
X107153992Y-64823968D01*
X107555822Y-64555473D01*
X107824317Y-64153643D01*
X107918600Y-63679651D01*
X107918600Y-63320349D01*
X107824317Y-62846357D01*
X107582198Y-62484000D01*
X107974054Y-62484000D01*
X107974054Y-64516000D01*
X108000202Y-64654966D01*
X108082331Y-64782599D01*
X108207646Y-64868223D01*
X108356400Y-64898346D01*
X110083600Y-64898346D01*
X110222566Y-64872198D01*
X110350199Y-64790069D01*
X110435823Y-64664754D01*
X110465946Y-64516000D01*
X110465946Y-62484000D01*
X110439798Y-62345034D01*
X110357669Y-62217401D01*
X110232354Y-62131777D01*
X110083600Y-62101654D01*
X108356400Y-62101654D01*
X108217434Y-62127802D01*
X108089801Y-62209931D01*
X108004177Y-62335246D01*
X107974054Y-62484000D01*
X107582198Y-62484000D01*
X107555822Y-62444527D01*
X107153992Y-62176032D01*
X106680000Y-62081749D01*
X106206008Y-62176032D01*
X105804178Y-62444527D01*
X105535683Y-62846357D01*
X105441400Y-63320349D01*
X105378600Y-63320349D01*
X105284317Y-62846357D01*
X105015822Y-62444527D01*
X104613992Y-62176032D01*
X104140000Y-62081749D01*
X103666008Y-62176032D01*
X103264178Y-62444527D01*
X102995683Y-62846357D01*
X102901400Y-63320349D01*
X102838600Y-63320349D01*
X102744317Y-62846357D01*
X102475822Y-62444527D01*
X102073992Y-62176032D01*
X101600000Y-62081749D01*
X101126008Y-62176032D01*
X100724178Y-62444527D01*
X100455683Y-62846357D01*
X100361400Y-63320349D01*
X100298600Y-63320349D01*
X100204317Y-62846357D01*
X99935822Y-62444527D01*
X99533992Y-62176032D01*
X99060000Y-62081749D01*
X98586008Y-62176032D01*
X98184178Y-62444527D01*
X97915683Y-62846357D01*
X97821400Y-63320349D01*
X97758600Y-63320349D01*
X97664317Y-62846357D01*
X97395822Y-62444527D01*
X96993992Y-62176032D01*
X96520000Y-62081749D01*
X96046008Y-62176032D01*
X95644178Y-62444527D01*
X95375683Y-62846357D01*
X95281400Y-63320349D01*
X95218600Y-63320349D01*
X95124317Y-62846357D01*
X94855822Y-62444527D01*
X94453992Y-62176032D01*
X93980000Y-62081749D01*
X93506008Y-62176032D01*
X93104178Y-62444527D01*
X92835683Y-62846357D01*
X92741400Y-63320349D01*
X92678600Y-63320349D01*
X92584317Y-62846357D01*
X92315822Y-62444527D01*
X91913992Y-62176032D01*
X91440000Y-62081749D01*
X90966008Y-62176032D01*
X90564178Y-62444527D01*
X90295683Y-62846357D01*
X90201400Y-63320349D01*
X88875946Y-63320349D01*
X88875946Y-62484000D01*
X88849798Y-62345034D01*
X88767669Y-62217401D01*
X88642354Y-62131777D01*
X88493600Y-62101654D01*
X86766400Y-62101654D01*
X86627434Y-62127802D01*
X86499801Y-62209931D01*
X86414177Y-62335246D01*
X86384054Y-62484000D01*
X85992198Y-62484000D01*
X85965822Y-62444527D01*
X85563992Y-62176032D01*
X85090000Y-62081749D01*
X84616008Y-62176032D01*
X84214178Y-62444527D01*
X83945683Y-62846357D01*
X83851400Y-63320349D01*
X83788600Y-63320349D01*
X83694317Y-62846357D01*
X83425822Y-62444527D01*
X83023992Y-62176032D01*
X82550000Y-62081749D01*
X82076008Y-62176032D01*
X81674178Y-62444527D01*
X81405683Y-62846357D01*
X81311400Y-63320349D01*
X81248600Y-63320349D01*
X81154317Y-62846357D01*
X80885822Y-62444527D01*
X80483992Y-62176032D01*
X80010000Y-62081749D01*
X79536008Y-62176032D01*
X79134178Y-62444527D01*
X78865683Y-62846357D01*
X78771400Y-63320349D01*
X78708600Y-63320349D01*
X78614317Y-62846357D01*
X78345822Y-62444527D01*
X77943992Y-62176032D01*
X77470000Y-62081749D01*
X76996008Y-62176032D01*
X76594178Y-62444527D01*
X76325683Y-62846357D01*
X76231400Y-63320349D01*
X76168600Y-63320349D01*
X76074317Y-62846357D01*
X75805822Y-62444527D01*
X75403992Y-62176032D01*
X74930000Y-62081749D01*
X74456008Y-62176032D01*
X74054178Y-62444527D01*
X73785683Y-62846357D01*
X73691400Y-63320349D01*
X73634082Y-63320349D01*
X73541643Y-62865162D01*
X73269358Y-62461171D01*
X72863199Y-62192131D01*
X72590261Y-62115164D01*
X72395000Y-62195261D01*
X72385000Y-62195261D01*
X72189739Y-62115164D01*
X71916801Y-62192131D01*
X71510642Y-62461171D01*
X71238357Y-62865162D01*
X71141400Y-63342600D01*
X71088600Y-63342600D01*
X71088600Y-63320349D01*
X70994317Y-62846357D01*
X70725822Y-62444527D01*
X70323992Y-62176032D01*
X69850000Y-62081749D01*
X69376008Y-62176032D01*
X68974178Y-62444527D01*
X68705683Y-62846357D01*
X68611400Y-63320349D01*
X68548600Y-63320349D01*
X68454317Y-62846357D01*
X68185822Y-62444527D01*
X67783992Y-62176032D01*
X67310000Y-62081749D01*
X66836008Y-62176032D01*
X66434178Y-62444527D01*
X66165683Y-62846357D01*
X66071400Y-63320349D01*
X66008600Y-63320349D01*
X65914317Y-62846357D01*
X65645822Y-62444527D01*
X65243992Y-62176032D01*
X64770000Y-62081749D01*
X64296008Y-62176032D01*
X63894178Y-62444527D01*
X63625683Y-62846357D01*
X63531400Y-63320349D01*
X63315000Y-63320349D01*
X63315000Y-62045000D01*
X110675000Y-62045000D01*
X110675000Y-78925000D01*
X110675000Y-78925000D01*
G37*
X110675000Y-78925000D02*
X103505000Y-78925000D01*
X103332792Y-78959254D01*
X103186802Y-79056802D01*
X103089254Y-79202792D01*
X103055000Y-79375000D01*
X103055000Y-89535000D01*
X103089254Y-89707208D01*
X103186802Y-89853198D01*
X103332792Y-89950746D01*
X103505000Y-89985000D01*
X110675000Y-89985000D01*
X110675000Y-113215000D01*
X63315000Y-113215000D01*
X63315000Y-110744000D01*
X72414054Y-110744000D01*
X72414054Y-112776000D01*
X72440202Y-112914966D01*
X72522331Y-113042599D01*
X72647646Y-113128223D01*
X72796400Y-113158346D01*
X74523600Y-113158346D01*
X74662566Y-113132198D01*
X74790199Y-113050069D01*
X74875823Y-112924754D01*
X74905946Y-112776000D01*
X74905946Y-111580349D01*
X74961400Y-111580349D01*
X74961400Y-111939651D01*
X75055683Y-112413643D01*
X75324178Y-112815473D01*
X75726008Y-113083968D01*
X76200000Y-113178251D01*
X76673992Y-113083968D01*
X77075822Y-112815473D01*
X77344317Y-112413643D01*
X77438600Y-111939651D01*
X77438600Y-111580349D01*
X77501400Y-111580349D01*
X77501400Y-111939651D01*
X77595683Y-112413643D01*
X77864178Y-112815473D01*
X78266008Y-113083968D01*
X78740000Y-113178251D01*
X79213992Y-113083968D01*
X79615822Y-112815473D01*
X79884317Y-112413643D01*
X79978600Y-111939651D01*
X79978600Y-111580349D01*
X80041400Y-111580349D01*
X80041400Y-111939651D01*
X80135683Y-112413643D01*
X80404178Y-112815473D01*
X80806008Y-113083968D01*
X81280000Y-113178251D01*
X81753992Y-113083968D01*
X82155822Y-112815473D01*
X82424317Y-112413643D01*
X82518600Y-111939651D01*
X82518600Y-111580349D01*
X82581400Y-111580349D01*
X82581400Y-111939651D01*
X82675683Y-112413643D01*
X82944178Y-112815473D01*
X83346008Y-113083968D01*
X83820000Y-113178251D01*
X84293992Y-113083968D01*
X84695822Y-112815473D01*
X84964317Y-112413643D01*
X85058600Y-111939651D01*
X85058600Y-111765000D01*
X85111400Y-111765000D01*
X85111400Y-111917400D01*
X85208357Y-112394838D01*
X85480642Y-112798829D01*
X85886801Y-113067869D01*
X86159739Y-113144836D01*
X86355000Y-113064739D01*
X86355000Y-111765000D01*
X86365000Y-111765000D01*
X86365000Y-113064739D01*
X86560261Y-113144836D01*
X86833199Y-113067869D01*
X87239358Y-112798829D01*
X87511643Y-112394838D01*
X87608600Y-111917400D01*
X87608600Y-111765000D01*
X87651400Y-111765000D01*
X87651400Y-111917400D01*
X87748357Y-112394838D01*
X88020642Y-112798829D01*
X88426801Y-113067869D01*
X88699739Y-113144836D01*
X88895000Y-113064739D01*
X88895000Y-111765000D01*
X88905000Y-111765000D01*
X88905000Y-113064739D01*
X89100261Y-113144836D01*
X89373199Y-113067869D01*
X89779358Y-112798829D01*
X90051643Y-112394838D01*
X90148600Y-111917400D01*
X90148600Y-111765000D01*
X88905000Y-111765000D01*
X88895000Y-111765000D01*
X87651400Y-111765000D01*
X87608600Y-111765000D01*
X86365000Y-111765000D01*
X86355000Y-111765000D01*
X85111400Y-111765000D01*
X85058600Y-111765000D01*
X85058600Y-111602600D01*
X85111400Y-111602600D01*
X85111400Y-111755000D01*
X86355000Y-111755000D01*
X86355000Y-110455261D01*
X86365000Y-110455261D01*
X86365000Y-111755000D01*
X87608600Y-111755000D01*
X87608600Y-111602600D01*
X87651400Y-111602600D01*
X87651400Y-111755000D01*
X88895000Y-111755000D01*
X88895000Y-110455261D01*
X88905000Y-110455261D01*
X88905000Y-111755000D01*
X90148600Y-111755000D01*
X90148600Y-111602600D01*
X90144082Y-111580349D01*
X90201400Y-111580349D01*
X90201400Y-111939651D01*
X90295683Y-112413643D01*
X90564178Y-112815473D01*
X90966008Y-113083968D01*
X91440000Y-113178251D01*
X91913992Y-113083968D01*
X92315822Y-112815473D01*
X92584317Y-112413643D01*
X92678600Y-111939651D01*
X92678600Y-111580349D01*
X95281400Y-111580349D01*
X95281400Y-111939651D01*
X95375683Y-112413643D01*
X95644178Y-112815473D01*
X96046008Y-113083968D01*
X96520000Y-113178251D01*
X96993992Y-113083968D01*
X97395822Y-112815473D01*
X97664317Y-112413643D01*
X97758600Y-111939651D01*
X97758600Y-111580349D01*
X97821400Y-111580349D01*
X97821400Y-111939651D01*
X97915683Y-112413643D01*
X98184178Y-112815473D01*
X98586008Y-113083968D01*
X99060000Y-113178251D01*
X99533992Y-113083968D01*
X99935822Y-112815473D01*
X100204317Y-112413643D01*
X100298600Y-111939651D01*
X100298600Y-111580349D01*
X100361400Y-111580349D01*
X100361400Y-111939651D01*
X100455683Y-112413643D01*
X100724178Y-112815473D01*
X101126008Y-113083968D01*
X101600000Y-113178251D01*
X102073992Y-113083968D01*
X102475822Y-112815473D01*
X102744317Y-112413643D01*
X102838600Y-111939651D01*
X102838600Y-111580349D01*
X102901400Y-111580349D01*
X102901400Y-111939651D01*
X102995683Y-112413643D01*
X103264178Y-112815473D01*
X103666008Y-113083968D01*
X104140000Y-113178251D01*
X104613992Y-113083968D01*
X105015822Y-112815473D01*
X105284317Y-112413643D01*
X105378600Y-111939651D01*
X105378600Y-111580349D01*
X105441400Y-111580349D01*
X105441400Y-111939651D01*
X105535683Y-112413643D01*
X105804178Y-112815473D01*
X106206008Y-113083968D01*
X106680000Y-113178251D01*
X107153992Y-113083968D01*
X107555822Y-112815473D01*
X107824317Y-112413643D01*
X107918600Y-111939651D01*
X107918600Y-111580349D01*
X107824317Y-111106357D01*
X107582198Y-110744000D01*
X107974054Y-110744000D01*
X107974054Y-112776000D01*
X108000202Y-112914966D01*
X108082331Y-113042599D01*
X108207646Y-113128223D01*
X108356400Y-113158346D01*
X110083600Y-113158346D01*
X110222566Y-113132198D01*
X110350199Y-113050069D01*
X110435823Y-112924754D01*
X110465946Y-112776000D01*
X110465946Y-110744000D01*
X110439798Y-110605034D01*
X110357669Y-110477401D01*
X110232354Y-110391777D01*
X110083600Y-110361654D01*
X108356400Y-110361654D01*
X108217434Y-110387802D01*
X108089801Y-110469931D01*
X108004177Y-110595246D01*
X107974054Y-110744000D01*
X107582198Y-110744000D01*
X107555822Y-110704527D01*
X107153992Y-110436032D01*
X106680000Y-110341749D01*
X106206008Y-110436032D01*
X105804178Y-110704527D01*
X105535683Y-111106357D01*
X105441400Y-111580349D01*
X105378600Y-111580349D01*
X105284317Y-111106357D01*
X105015822Y-110704527D01*
X104613992Y-110436032D01*
X104140000Y-110341749D01*
X103666008Y-110436032D01*
X103264178Y-110704527D01*
X102995683Y-111106357D01*
X102901400Y-111580349D01*
X102838600Y-111580349D01*
X102744317Y-111106357D01*
X102475822Y-110704527D01*
X102073992Y-110436032D01*
X101600000Y-110341749D01*
X101126008Y-110436032D01*
X100724178Y-110704527D01*
X100455683Y-111106357D01*
X100361400Y-111580349D01*
X100298600Y-111580349D01*
X100204317Y-111106357D01*
X99935822Y-110704527D01*
X99533992Y-110436032D01*
X99060000Y-110341749D01*
X98586008Y-110436032D01*
X98184178Y-110704527D01*
X97915683Y-111106357D01*
X97821400Y-111580349D01*
X97758600Y-111580349D01*
X97664317Y-111106357D01*
X97395822Y-110704527D01*
X96993992Y-110436032D01*
X96520000Y-110341749D01*
X96046008Y-110436032D01*
X95644178Y-110704527D01*
X95375683Y-111106357D01*
X95281400Y-111580349D01*
X92678600Y-111580349D01*
X92584317Y-111106357D01*
X92315822Y-110704527D01*
X91913992Y-110436032D01*
X91440000Y-110341749D01*
X90966008Y-110436032D01*
X90564178Y-110704527D01*
X90295683Y-111106357D01*
X90201400Y-111580349D01*
X90144082Y-111580349D01*
X90051643Y-111125162D01*
X89779358Y-110721171D01*
X89373199Y-110452131D01*
X89100261Y-110375164D01*
X88905000Y-110455261D01*
X88895000Y-110455261D01*
X88699739Y-110375164D01*
X88426801Y-110452131D01*
X88020642Y-110721171D01*
X87748357Y-111125162D01*
X87651400Y-111602600D01*
X87608600Y-111602600D01*
X87511643Y-111125162D01*
X87239358Y-110721171D01*
X86833199Y-110452131D01*
X86560261Y-110375164D01*
X86365000Y-110455261D01*
X86355000Y-110455261D01*
X86159739Y-110375164D01*
X85886801Y-110452131D01*
X85480642Y-110721171D01*
X85208357Y-111125162D01*
X85111400Y-111602600D01*
X85058600Y-111602600D01*
X85058600Y-111580349D01*
X84964317Y-111106357D01*
X84695822Y-110704527D01*
X84293992Y-110436032D01*
X83820000Y-110341749D01*
X83346008Y-110436032D01*
X82944178Y-110704527D01*
X82675683Y-111106357D01*
X82581400Y-111580349D01*
X82518600Y-111580349D01*
X82424317Y-111106357D01*
X82155822Y-110704527D01*
X81753992Y-110436032D01*
X81280000Y-110341749D01*
X80806008Y-110436032D01*
X80404178Y-110704527D01*
X80135683Y-111106357D01*
X80041400Y-111580349D01*
X79978600Y-111580349D01*
X79884317Y-111106357D01*
X79615822Y-110704527D01*
X79213992Y-110436032D01*
X78740000Y-110341749D01*
X78266008Y-110436032D01*
X77864178Y-110704527D01*
X77595683Y-111106357D01*
X77501400Y-111580349D01*
X77438600Y-111580349D01*
X77344317Y-111106357D01*
X77075822Y-110704527D01*
X76673992Y-110436032D01*
X76200000Y-110341749D01*
X75726008Y-110436032D01*
X75324178Y-110704527D01*
X75055683Y-111106357D01*
X74961400Y-111580349D01*
X74905946Y-111580349D01*
X74905946Y-110744000D01*
X74879798Y-110605034D01*
X74797669Y-110477401D01*
X74672354Y-110391777D01*
X74523600Y-110361654D01*
X72796400Y-110361654D01*
X72657434Y-110387802D01*
X72529801Y-110469931D01*
X72444177Y-110595246D01*
X72414054Y-110744000D01*
X63315000Y-110744000D01*
X63315000Y-97793865D01*
X63446986Y-97926082D01*
X63805210Y-98074830D01*
X64193089Y-98075169D01*
X64551571Y-97927046D01*
X64826082Y-97653014D01*
X64974830Y-97294790D01*
X64974831Y-97293089D01*
X68024831Y-97293089D01*
X68172954Y-97651571D01*
X68446986Y-97926082D01*
X68805210Y-98074830D01*
X69193089Y-98075169D01*
X69551571Y-97927046D01*
X69750106Y-97728858D01*
X69946986Y-97926082D01*
X70305210Y-98074830D01*
X70693089Y-98075169D01*
X71051571Y-97927046D01*
X71326082Y-97653014D01*
X71474830Y-97294790D01*
X71474831Y-97293089D01*
X74524831Y-97293089D01*
X74672954Y-97651571D01*
X74946986Y-97926082D01*
X75305210Y-98074830D01*
X75693089Y-98075169D01*
X76051571Y-97927046D01*
X76250106Y-97728858D01*
X76446986Y-97926082D01*
X76805210Y-98074830D01*
X77193089Y-98075169D01*
X77551571Y-97927046D01*
X77826082Y-97653014D01*
X77974830Y-97294790D01*
X77974831Y-97293089D01*
X81024831Y-97293089D01*
X81172954Y-97651571D01*
X81446986Y-97926082D01*
X81805210Y-98074830D01*
X82193089Y-98075169D01*
X82551571Y-97927046D01*
X82750106Y-97728858D01*
X82946986Y-97926082D01*
X83305210Y-98074830D01*
X83693089Y-98075169D01*
X84051571Y-97927046D01*
X84326082Y-97653014D01*
X84474830Y-97294790D01*
X84474831Y-97293089D01*
X87524831Y-97293089D01*
X87672954Y-97651571D01*
X87946986Y-97926082D01*
X88305210Y-98074830D01*
X88693089Y-98075169D01*
X89051571Y-97927046D01*
X89250106Y-97728858D01*
X89446986Y-97926082D01*
X89805210Y-98074830D01*
X90193089Y-98075169D01*
X90551571Y-97927046D01*
X90826082Y-97653014D01*
X90974830Y-97294790D01*
X90974831Y-97293089D01*
X94024831Y-97293089D01*
X94172954Y-97651571D01*
X94446986Y-97926082D01*
X94805210Y-98074830D01*
X95193089Y-98075169D01*
X95551571Y-97927046D01*
X95750106Y-97728858D01*
X95946986Y-97926082D01*
X96305210Y-98074830D01*
X96693089Y-98075169D01*
X97051571Y-97927046D01*
X97326082Y-97653014D01*
X97474830Y-97294790D01*
X97474831Y-97293089D01*
X100524831Y-97293089D01*
X100672954Y-97651571D01*
X100946986Y-97926082D01*
X101305210Y-98074830D01*
X101693089Y-98075169D01*
X102051571Y-97927046D01*
X102250106Y-97728858D01*
X102446986Y-97926082D01*
X102805210Y-98074830D01*
X103193089Y-98075169D01*
X103551571Y-97927046D01*
X103826082Y-97653014D01*
X103974830Y-97294790D01*
X103974831Y-97293089D01*
X107024831Y-97293089D01*
X107172954Y-97651571D01*
X107446986Y-97926082D01*
X107805210Y-98074830D01*
X108193089Y-98075169D01*
X108551571Y-97927046D01*
X108826082Y-97653014D01*
X108974830Y-97294790D01*
X108975169Y-96906911D01*
X108827046Y-96548429D01*
X108553014Y-96273918D01*
X108194790Y-96125170D01*
X107806911Y-96124831D01*
X107448429Y-96272954D01*
X107173918Y-96546986D01*
X107025170Y-96905210D01*
X107024831Y-97293089D01*
X103974831Y-97293089D01*
X103975169Y-96906911D01*
X103827046Y-96548429D01*
X103553014Y-96273918D01*
X103194790Y-96125170D01*
X102806911Y-96124831D01*
X102448429Y-96272954D01*
X102249894Y-96471142D01*
X102053014Y-96273918D01*
X101694790Y-96125170D01*
X101306911Y-96124831D01*
X100948429Y-96272954D01*
X100673918Y-96546986D01*
X100525170Y-96905210D01*
X100524831Y-97293089D01*
X97474831Y-97293089D01*
X97475169Y-96906911D01*
X97327046Y-96548429D01*
X97053014Y-96273918D01*
X96694790Y-96125170D01*
X96306911Y-96124831D01*
X95948429Y-96272954D01*
X95749894Y-96471142D01*
X95553014Y-96273918D01*
X95194790Y-96125170D01*
X94806911Y-96124831D01*
X94448429Y-96272954D01*
X94173918Y-96546986D01*
X94025170Y-96905210D01*
X94024831Y-97293089D01*
X90974831Y-97293089D01*
X90975169Y-96906911D01*
X90827046Y-96548429D01*
X90553014Y-96273918D01*
X90194790Y-96125170D01*
X89806911Y-96124831D01*
X89448429Y-96272954D01*
X89249894Y-96471142D01*
X89053014Y-96273918D01*
X88694790Y-96125170D01*
X88306911Y-96124831D01*
X87948429Y-96272954D01*
X87673918Y-96546986D01*
X87525170Y-96905210D01*
X87524831Y-97293089D01*
X84474831Y-97293089D01*
X84475169Y-96906911D01*
X84327046Y-96548429D01*
X84053014Y-96273918D01*
X83694790Y-96125170D01*
X83306911Y-96124831D01*
X82948429Y-96272954D01*
X82749894Y-96471142D01*
X82553014Y-96273918D01*
X82194790Y-96125170D01*
X81806911Y-96124831D01*
X81448429Y-96272954D01*
X81173918Y-96546986D01*
X81025170Y-96905210D01*
X81024831Y-97293089D01*
X77974831Y-97293089D01*
X77975169Y-96906911D01*
X77827046Y-96548429D01*
X77553014Y-96273918D01*
X77194790Y-96125170D01*
X76806911Y-96124831D01*
X76448429Y-96272954D01*
X76249894Y-96471142D01*
X76053014Y-96273918D01*
X75694790Y-96125170D01*
X75306911Y-96124831D01*
X74948429Y-96272954D01*
X74673918Y-96546986D01*
X74525170Y-96905210D01*
X74524831Y-97293089D01*
X71474831Y-97293089D01*
X71475169Y-96906911D01*
X71327046Y-96548429D01*
X71053014Y-96273918D01*
X70694790Y-96125170D01*
X70306911Y-96124831D01*
X69948429Y-96272954D01*
X69749894Y-96471142D01*
X69553014Y-96273918D01*
X69194790Y-96125170D01*
X68806911Y-96124831D01*
X68448429Y-96272954D01*
X68173918Y-96546986D01*
X68025170Y-96905210D01*
X68024831Y-97293089D01*
X64974831Y-97293089D01*
X64975169Y-96906911D01*
X64827046Y-96548429D01*
X64553014Y-96273918D01*
X64194790Y-96125170D01*
X63806911Y-96124831D01*
X63448429Y-96272954D01*
X63315000Y-96406150D01*
X63315000Y-95232697D01*
X64324796Y-95232697D01*
X64503302Y-95664715D01*
X64833547Y-95995536D01*
X65265253Y-96174796D01*
X65732697Y-96175204D01*
X66164715Y-95996698D01*
X66495536Y-95666453D01*
X66499789Y-95656212D01*
X66503302Y-95664715D01*
X66833547Y-95995536D01*
X67265253Y-96174796D01*
X67732697Y-96175204D01*
X68164715Y-95996698D01*
X68495536Y-95666453D01*
X68674796Y-95234747D01*
X68674797Y-95232697D01*
X70824796Y-95232697D01*
X71003302Y-95664715D01*
X71333547Y-95995536D01*
X71765253Y-96174796D01*
X72232697Y-96175204D01*
X72664715Y-95996698D01*
X72995536Y-95666453D01*
X72999789Y-95656212D01*
X73003302Y-95664715D01*
X73333547Y-95995536D01*
X73765253Y-96174796D01*
X74232697Y-96175204D01*
X74664715Y-95996698D01*
X74995536Y-95666453D01*
X75174796Y-95234747D01*
X75174797Y-95232697D01*
X77324796Y-95232697D01*
X77503302Y-95664715D01*
X77833547Y-95995536D01*
X78265253Y-96174796D01*
X78732697Y-96175204D01*
X79164715Y-95996698D01*
X79495536Y-95666453D01*
X79499789Y-95656212D01*
X79503302Y-95664715D01*
X79833547Y-95995536D01*
X80265253Y-96174796D01*
X80732697Y-96175204D01*
X81164715Y-95996698D01*
X81495536Y-95666453D01*
X81674796Y-95234747D01*
X81674797Y-95232697D01*
X83824796Y-95232697D01*
X84003302Y-95664715D01*
X84333547Y-95995536D01*
X84765253Y-96174796D01*
X85232697Y-96175204D01*
X85664715Y-95996698D01*
X85995536Y-95666453D01*
X85999789Y-95656212D01*
X86003302Y-95664715D01*
X86333547Y-95995536D01*
X86765253Y-96174796D01*
X87232697Y-96175204D01*
X87664715Y-95996698D01*
X87995536Y-95666453D01*
X88174796Y-95234747D01*
X88174797Y-95232697D01*
X90324796Y-95232697D01*
X90503302Y-95664715D01*
X90833547Y-95995536D01*
X91265253Y-96174796D01*
X91732697Y-96175204D01*
X92164715Y-95996698D01*
X92495536Y-95666453D01*
X92499789Y-95656212D01*
X92503302Y-95664715D01*
X92833547Y-95995536D01*
X93265253Y-96174796D01*
X93732697Y-96175204D01*
X94164715Y-95996698D01*
X94495536Y-95666453D01*
X94674796Y-95234747D01*
X94674797Y-95232697D01*
X96824796Y-95232697D01*
X97003302Y-95664715D01*
X97333547Y-95995536D01*
X97765253Y-96174796D01*
X98232697Y-96175204D01*
X98664715Y-95996698D01*
X98995536Y-95666453D01*
X98999789Y-95656212D01*
X99003302Y-95664715D01*
X99333547Y-95995536D01*
X99765253Y-96174796D01*
X100232697Y-96175204D01*
X100664715Y-95996698D01*
X100995536Y-95666453D01*
X101174796Y-95234747D01*
X101174797Y-95232697D01*
X103324796Y-95232697D01*
X103503302Y-95664715D01*
X103833547Y-95995536D01*
X104265253Y-96174796D01*
X104732697Y-96175204D01*
X105164715Y-95996698D01*
X105495536Y-95666453D01*
X105499789Y-95656212D01*
X105503302Y-95664715D01*
X105833547Y-95995536D01*
X106265253Y-96174796D01*
X106732697Y-96175204D01*
X107164715Y-95996698D01*
X107495536Y-95666453D01*
X107674796Y-95234747D01*
X107675204Y-94767303D01*
X107496698Y-94335285D01*
X107166453Y-94004464D01*
X106734747Y-93825204D01*
X106267303Y-93824796D01*
X105835285Y-94003302D01*
X105504464Y-94333547D01*
X105500211Y-94343788D01*
X105496698Y-94335285D01*
X105166453Y-94004464D01*
X104734747Y-93825204D01*
X104267303Y-93824796D01*
X103835285Y-94003302D01*
X103504464Y-94333547D01*
X103325204Y-94765253D01*
X103324796Y-95232697D01*
X101174797Y-95232697D01*
X101175204Y-94767303D01*
X100996698Y-94335285D01*
X100666453Y-94004464D01*
X100234747Y-93825204D01*
X99767303Y-93824796D01*
X99335285Y-94003302D01*
X99004464Y-94333547D01*
X99000211Y-94343788D01*
X98996698Y-94335285D01*
X98666453Y-94004464D01*
X98234747Y-93825204D01*
X97767303Y-93824796D01*
X97335285Y-94003302D01*
X97004464Y-94333547D01*
X96825204Y-94765253D01*
X96824796Y-95232697D01*
X94674797Y-95232697D01*
X94675204Y-94767303D01*
X94496698Y-94335285D01*
X94166453Y-94004464D01*
X93734747Y-93825204D01*
X93267303Y-93824796D01*
X92835285Y-94003302D01*
X92504464Y-94333547D01*
X92500211Y-94343788D01*
X92496698Y-94335285D01*
X92166453Y-94004464D01*
X91734747Y-93825204D01*
X91267303Y-93824796D01*
X90835285Y-94003302D01*
X90504464Y-94333547D01*
X90325204Y-94765253D01*
X90324796Y-95232697D01*
X88174797Y-95232697D01*
X88175204Y-94767303D01*
X87996698Y-94335285D01*
X87666453Y-94004464D01*
X87234747Y-93825204D01*
X86767303Y-93824796D01*
X86335285Y-94003302D01*
X86004464Y-94333547D01*
X86000211Y-94343788D01*
X85996698Y-94335285D01*
X85666453Y-94004464D01*
X85234747Y-93825204D01*
X84767303Y-93824796D01*
X84335285Y-94003302D01*
X84004464Y-94333547D01*
X83825204Y-94765253D01*
X83824796Y-95232697D01*
X81674797Y-95232697D01*
X81675204Y-94767303D01*
X81496698Y-94335285D01*
X81166453Y-94004464D01*
X80734747Y-93825204D01*
X80267303Y-93824796D01*
X79835285Y-94003302D01*
X79504464Y-94333547D01*
X79500211Y-94343788D01*
X79496698Y-94335285D01*
X79166453Y-94004464D01*
X78734747Y-93825204D01*
X78267303Y-93824796D01*
X77835285Y-94003302D01*
X77504464Y-94333547D01*
X77325204Y-94765253D01*
X77324796Y-95232697D01*
X75174797Y-95232697D01*
X75175204Y-94767303D01*
X74996698Y-94335285D01*
X74666453Y-94004464D01*
X74234747Y-93825204D01*
X73767303Y-93824796D01*
X73335285Y-94003302D01*
X73004464Y-94333547D01*
X73000211Y-94343788D01*
X72996698Y-94335285D01*
X72666453Y-94004464D01*
X72234747Y-93825204D01*
X71767303Y-93824796D01*
X71335285Y-94003302D01*
X71004464Y-94333547D01*
X70825204Y-94765253D01*
X70824796Y-95232697D01*
X68674797Y-95232697D01*
X68675204Y-94767303D01*
X68496698Y-94335285D01*
X68166453Y-94004464D01*
X67734747Y-93825204D01*
X67267303Y-93824796D01*
X66835285Y-94003302D01*
X66504464Y-94333547D01*
X66500211Y-94343788D01*
X66496698Y-94335285D01*
X66166453Y-94004464D01*
X65734747Y-93825204D01*
X65267303Y-93824796D01*
X64835285Y-94003302D01*
X64504464Y-94333547D01*
X64325204Y-94765253D01*
X64324796Y-95232697D01*
X63315000Y-95232697D01*
X63315000Y-76120000D01*
X72081749Y-76120000D01*
X72176032Y-76593992D01*
X72444527Y-76995822D01*
X72846357Y-77264317D01*
X73320349Y-77358600D01*
X73679651Y-77358600D01*
X74153643Y-77264317D01*
X74555473Y-76995822D01*
X74823968Y-76593992D01*
X74853984Y-76443089D01*
X103624831Y-76443089D01*
X103772954Y-76801571D01*
X104046986Y-77076082D01*
X104405210Y-77224830D01*
X104793089Y-77225169D01*
X105151571Y-77077046D01*
X105426082Y-76803014D01*
X105574830Y-76444790D01*
X105575169Y-76056911D01*
X105427046Y-75698429D01*
X105153014Y-75423918D01*
X104794790Y-75275170D01*
X104406911Y-75274831D01*
X104048429Y-75422954D01*
X103773918Y-75696986D01*
X103625170Y-76055210D01*
X103624831Y-76443089D01*
X74853984Y-76443089D01*
X74918251Y-76120000D01*
X74823968Y-75646008D01*
X74555473Y-75244178D01*
X74153643Y-74975683D01*
X73679651Y-74881400D01*
X73320349Y-74881400D01*
X72846357Y-74975683D01*
X72444527Y-75244178D01*
X72176032Y-75646008D01*
X72081749Y-76120000D01*
X63315000Y-76120000D01*
X63315000Y-73580000D01*
X72081749Y-73580000D01*
X72176032Y-74053992D01*
X72444527Y-74455822D01*
X72846357Y-74724317D01*
X73320349Y-74818600D01*
X73679651Y-74818600D01*
X74153643Y-74724317D01*
X74555473Y-74455822D01*
X74823968Y-74053992D01*
X74918251Y-73580000D01*
X74823968Y-73106008D01*
X74741574Y-72982697D01*
X101324796Y-72982697D01*
X101503302Y-73414715D01*
X101833547Y-73745536D01*
X101843788Y-73749789D01*
X101835285Y-73753302D01*
X101504464Y-74083547D01*
X101325204Y-74515253D01*
X101324796Y-74982697D01*
X101503302Y-75414715D01*
X101833547Y-75745536D01*
X102265253Y-75924796D01*
X102732697Y-75925204D01*
X103164715Y-75746698D01*
X103495536Y-75416453D01*
X103674796Y-74984747D01*
X103675204Y-74517303D01*
X103496698Y-74085285D01*
X103166453Y-73754464D01*
X103156212Y-73750211D01*
X103164715Y-73746698D01*
X103495536Y-73416453D01*
X103674796Y-72984747D01*
X103675204Y-72517303D01*
X103496698Y-72085285D01*
X103166453Y-71754464D01*
X102734747Y-71575204D01*
X102267303Y-71574796D01*
X101835285Y-71753302D01*
X101504464Y-72083547D01*
X101325204Y-72515253D01*
X101324796Y-72982697D01*
X74741574Y-72982697D01*
X74555473Y-72704178D01*
X74153643Y-72435683D01*
X73679651Y-72341400D01*
X73320349Y-72341400D01*
X72846357Y-72435683D01*
X72444527Y-72704178D01*
X72176032Y-73106008D01*
X72081749Y-73580000D01*
X63315000Y-73580000D01*
X63315000Y-71040000D01*
X72081749Y-71040000D01*
X72176032Y-71513992D01*
X72444527Y-71915822D01*
X72846357Y-72184317D01*
X73320349Y-72278600D01*
X73679651Y-72278600D01*
X74153643Y-72184317D01*
X74555473Y-71915822D01*
X74823968Y-71513992D01*
X74838071Y-71443089D01*
X103624831Y-71443089D01*
X103772954Y-71801571D01*
X104046986Y-72076082D01*
X104405210Y-72224830D01*
X104793089Y-72225169D01*
X105151571Y-72077046D01*
X105426082Y-71803014D01*
X105574830Y-71444790D01*
X105575169Y-71056911D01*
X105427046Y-70698429D01*
X105153014Y-70423918D01*
X104794790Y-70275170D01*
X104406911Y-70274831D01*
X104048429Y-70422954D01*
X103773918Y-70696986D01*
X103625170Y-71055210D01*
X103624831Y-71443089D01*
X74838071Y-71443089D01*
X74918251Y-71040000D01*
X74823968Y-70566008D01*
X74555473Y-70164178D01*
X74153643Y-69895683D01*
X73679651Y-69801400D01*
X73320349Y-69801400D01*
X72846357Y-69895683D01*
X72444527Y-70164178D01*
X72176032Y-70566008D01*
X72081749Y-71040000D01*
X63315000Y-71040000D01*
X63315000Y-68601250D01*
X72099000Y-68601250D01*
X72099000Y-69440182D01*
X72157613Y-69581685D01*
X72265915Y-69689987D01*
X72407419Y-69748600D01*
X73398750Y-69748600D01*
X73495000Y-69652350D01*
X73495000Y-68505000D01*
X73505000Y-68505000D01*
X73505000Y-69652350D01*
X73601250Y-69748600D01*
X74592581Y-69748600D01*
X74734085Y-69689987D01*
X74842387Y-69581685D01*
X74901000Y-69440182D01*
X74901000Y-68601250D01*
X74804750Y-68505000D01*
X73505000Y-68505000D01*
X73495000Y-68505000D01*
X72195250Y-68505000D01*
X72099000Y-68601250D01*
X63315000Y-68601250D01*
X63315000Y-67559818D01*
X72099000Y-67559818D01*
X72099000Y-68398750D01*
X72195250Y-68495000D01*
X73495000Y-68495000D01*
X73495000Y-67347650D01*
X73505000Y-67347650D01*
X73505000Y-68495000D01*
X74804750Y-68495000D01*
X74901000Y-68398750D01*
X74901000Y-67559818D01*
X74842387Y-67418315D01*
X74734085Y-67310013D01*
X74592581Y-67251400D01*
X73601250Y-67251400D01*
X73505000Y-67347650D01*
X73495000Y-67347650D01*
X73398750Y-67251400D01*
X72407419Y-67251400D01*
X72265915Y-67310013D01*
X72157613Y-67418315D01*
X72099000Y-67559818D01*
X63315000Y-67559818D01*
X63315000Y-63320349D01*
X63531400Y-63320349D01*
X63531400Y-63679651D01*
X63625683Y-64153643D01*
X63894178Y-64555473D01*
X64296008Y-64823968D01*
X64770000Y-64918251D01*
X65243992Y-64823968D01*
X65645822Y-64555473D01*
X65914317Y-64153643D01*
X66008600Y-63679651D01*
X66008600Y-63320349D01*
X66071400Y-63320349D01*
X66071400Y-63679651D01*
X66165683Y-64153643D01*
X66434178Y-64555473D01*
X66836008Y-64823968D01*
X67310000Y-64918251D01*
X67783992Y-64823968D01*
X68185822Y-64555473D01*
X68454317Y-64153643D01*
X68548600Y-63679651D01*
X68548600Y-63320349D01*
X68611400Y-63320349D01*
X68611400Y-63679651D01*
X68705683Y-64153643D01*
X68974178Y-64555473D01*
X69376008Y-64823968D01*
X69850000Y-64918251D01*
X70323992Y-64823968D01*
X70725822Y-64555473D01*
X70994317Y-64153643D01*
X71088600Y-63679651D01*
X71088600Y-63505000D01*
X71141400Y-63505000D01*
X71141400Y-63657400D01*
X71238357Y-64134838D01*
X71510642Y-64538829D01*
X71916801Y-64807869D01*
X72189739Y-64884836D01*
X72385000Y-64804739D01*
X72385000Y-63505000D01*
X72395000Y-63505000D01*
X72395000Y-64804739D01*
X72590261Y-64884836D01*
X72863199Y-64807869D01*
X73269358Y-64538829D01*
X73541643Y-64134838D01*
X73638600Y-63657400D01*
X73638600Y-63505000D01*
X72395000Y-63505000D01*
X72385000Y-63505000D01*
X71141400Y-63505000D01*
X71088600Y-63505000D01*
X71088600Y-63342600D01*
X71141400Y-63342600D01*
X71141400Y-63495000D01*
X72385000Y-63495000D01*
X72385000Y-62195261D01*
X72395000Y-62195261D01*
X72395000Y-63495000D01*
X73638600Y-63495000D01*
X73638600Y-63342600D01*
X73634082Y-63320349D01*
X73691400Y-63320349D01*
X73691400Y-63679651D01*
X73785683Y-64153643D01*
X74054178Y-64555473D01*
X74456008Y-64823968D01*
X74930000Y-64918251D01*
X75403992Y-64823968D01*
X75805822Y-64555473D01*
X76074317Y-64153643D01*
X76168600Y-63679651D01*
X76168600Y-63320349D01*
X76231400Y-63320349D01*
X76231400Y-63679651D01*
X76325683Y-64153643D01*
X76594178Y-64555473D01*
X76996008Y-64823968D01*
X77470000Y-64918251D01*
X77943992Y-64823968D01*
X78345822Y-64555473D01*
X78614317Y-64153643D01*
X78708600Y-63679651D01*
X78708600Y-63320349D01*
X78771400Y-63320349D01*
X78771400Y-63679651D01*
X78865683Y-64153643D01*
X79134178Y-64555473D01*
X79536008Y-64823968D01*
X80010000Y-64918251D01*
X80483992Y-64823968D01*
X80885822Y-64555473D01*
X81154317Y-64153643D01*
X81248600Y-63679651D01*
X81248600Y-63320349D01*
X81311400Y-63320349D01*
X81311400Y-63679651D01*
X81405683Y-64153643D01*
X81674178Y-64555473D01*
X82076008Y-64823968D01*
X82550000Y-64918251D01*
X83023992Y-64823968D01*
X83425822Y-64555473D01*
X83694317Y-64153643D01*
X83788600Y-63679651D01*
X83788600Y-63320349D01*
X83851400Y-63320349D01*
X83851400Y-63679651D01*
X83945683Y-64153643D01*
X84214178Y-64555473D01*
X84616008Y-64823968D01*
X85090000Y-64918251D01*
X85563992Y-64823968D01*
X85965822Y-64555473D01*
X86234317Y-64153643D01*
X86328600Y-63679651D01*
X86328600Y-63320349D01*
X86234317Y-62846357D01*
X85992198Y-62484000D01*
X86384054Y-62484000D01*
X86384054Y-64516000D01*
X86410202Y-64654966D01*
X86492331Y-64782599D01*
X86617646Y-64868223D01*
X86766400Y-64898346D01*
X88493600Y-64898346D01*
X88632566Y-64872198D01*
X88760199Y-64790069D01*
X88845823Y-64664754D01*
X88875946Y-64516000D01*
X88875946Y-63320349D01*
X90201400Y-63320349D01*
X90201400Y-63679651D01*
X90295683Y-64153643D01*
X90564178Y-64555473D01*
X90966008Y-64823968D01*
X91440000Y-64918251D01*
X91913992Y-64823968D01*
X92315822Y-64555473D01*
X92584317Y-64153643D01*
X92678600Y-63679651D01*
X92678600Y-63320349D01*
X92741400Y-63320349D01*
X92741400Y-63679651D01*
X92835683Y-64153643D01*
X93104178Y-64555473D01*
X93506008Y-64823968D01*
X93980000Y-64918251D01*
X94453992Y-64823968D01*
X94855822Y-64555473D01*
X95124317Y-64153643D01*
X95218600Y-63679651D01*
X95218600Y-63320349D01*
X95281400Y-63320349D01*
X95281400Y-63679651D01*
X95375683Y-64153643D01*
X95644178Y-64555473D01*
X96046008Y-64823968D01*
X96520000Y-64918251D01*
X96993992Y-64823968D01*
X97395822Y-64555473D01*
X97664317Y-64153643D01*
X97758600Y-63679651D01*
X97758600Y-63320349D01*
X97821400Y-63320349D01*
X97821400Y-63679651D01*
X97915683Y-64153643D01*
X98184178Y-64555473D01*
X98586008Y-64823968D01*
X99060000Y-64918251D01*
X99533992Y-64823968D01*
X99935822Y-64555473D01*
X100204317Y-64153643D01*
X100298600Y-63679651D01*
X100298600Y-63320349D01*
X100361400Y-63320349D01*
X100361400Y-63679651D01*
X100455683Y-64153643D01*
X100724178Y-64555473D01*
X101126008Y-64823968D01*
X101600000Y-64918251D01*
X102073992Y-64823968D01*
X102475822Y-64555473D01*
X102744317Y-64153643D01*
X102838600Y-63679651D01*
X102838600Y-63320349D01*
X102901400Y-63320349D01*
X102901400Y-63679651D01*
X102995683Y-64153643D01*
X103264178Y-64555473D01*
X103666008Y-64823968D01*
X104140000Y-64918251D01*
X104613992Y-64823968D01*
X105015822Y-64555473D01*
X105284317Y-64153643D01*
X105378600Y-63679651D01*
X105378600Y-63320349D01*
X105441400Y-63320349D01*
X105441400Y-63679651D01*
X105535683Y-64153643D01*
X105804178Y-64555473D01*
X106206008Y-64823968D01*
X106680000Y-64918251D01*
X107153992Y-64823968D01*
X107555822Y-64555473D01*
X107824317Y-64153643D01*
X107918600Y-63679651D01*
X107918600Y-63320349D01*
X107824317Y-62846357D01*
X107582198Y-62484000D01*
X107974054Y-62484000D01*
X107974054Y-64516000D01*
X108000202Y-64654966D01*
X108082331Y-64782599D01*
X108207646Y-64868223D01*
X108356400Y-64898346D01*
X110083600Y-64898346D01*
X110222566Y-64872198D01*
X110350199Y-64790069D01*
X110435823Y-64664754D01*
X110465946Y-64516000D01*
X110465946Y-62484000D01*
X110439798Y-62345034D01*
X110357669Y-62217401D01*
X110232354Y-62131777D01*
X110083600Y-62101654D01*
X108356400Y-62101654D01*
X108217434Y-62127802D01*
X108089801Y-62209931D01*
X108004177Y-62335246D01*
X107974054Y-62484000D01*
X107582198Y-62484000D01*
X107555822Y-62444527D01*
X107153992Y-62176032D01*
X106680000Y-62081749D01*
X106206008Y-62176032D01*
X105804178Y-62444527D01*
X105535683Y-62846357D01*
X105441400Y-63320349D01*
X105378600Y-63320349D01*
X105284317Y-62846357D01*
X105015822Y-62444527D01*
X104613992Y-62176032D01*
X104140000Y-62081749D01*
X103666008Y-62176032D01*
X103264178Y-62444527D01*
X102995683Y-62846357D01*
X102901400Y-63320349D01*
X102838600Y-63320349D01*
X102744317Y-62846357D01*
X102475822Y-62444527D01*
X102073992Y-62176032D01*
X101600000Y-62081749D01*
X101126008Y-62176032D01*
X100724178Y-62444527D01*
X100455683Y-62846357D01*
X100361400Y-63320349D01*
X100298600Y-63320349D01*
X100204317Y-62846357D01*
X99935822Y-62444527D01*
X99533992Y-62176032D01*
X99060000Y-62081749D01*
X98586008Y-62176032D01*
X98184178Y-62444527D01*
X97915683Y-62846357D01*
X97821400Y-63320349D01*
X97758600Y-63320349D01*
X97664317Y-62846357D01*
X97395822Y-62444527D01*
X96993992Y-62176032D01*
X96520000Y-62081749D01*
X96046008Y-62176032D01*
X95644178Y-62444527D01*
X95375683Y-62846357D01*
X95281400Y-63320349D01*
X95218600Y-63320349D01*
X95124317Y-62846357D01*
X94855822Y-62444527D01*
X94453992Y-62176032D01*
X93980000Y-62081749D01*
X93506008Y-62176032D01*
X93104178Y-62444527D01*
X92835683Y-62846357D01*
X92741400Y-63320349D01*
X92678600Y-63320349D01*
X92584317Y-62846357D01*
X92315822Y-62444527D01*
X91913992Y-62176032D01*
X91440000Y-62081749D01*
X90966008Y-62176032D01*
X90564178Y-62444527D01*
X90295683Y-62846357D01*
X90201400Y-63320349D01*
X88875946Y-63320349D01*
X88875946Y-62484000D01*
X88849798Y-62345034D01*
X88767669Y-62217401D01*
X88642354Y-62131777D01*
X88493600Y-62101654D01*
X86766400Y-62101654D01*
X86627434Y-62127802D01*
X86499801Y-62209931D01*
X86414177Y-62335246D01*
X86384054Y-62484000D01*
X85992198Y-62484000D01*
X85965822Y-62444527D01*
X85563992Y-62176032D01*
X85090000Y-62081749D01*
X84616008Y-62176032D01*
X84214178Y-62444527D01*
X83945683Y-62846357D01*
X83851400Y-63320349D01*
X83788600Y-63320349D01*
X83694317Y-62846357D01*
X83425822Y-62444527D01*
X83023992Y-62176032D01*
X82550000Y-62081749D01*
X82076008Y-62176032D01*
X81674178Y-62444527D01*
X81405683Y-62846357D01*
X81311400Y-63320349D01*
X81248600Y-63320349D01*
X81154317Y-62846357D01*
X80885822Y-62444527D01*
X80483992Y-62176032D01*
X80010000Y-62081749D01*
X79536008Y-62176032D01*
X79134178Y-62444527D01*
X78865683Y-62846357D01*
X78771400Y-63320349D01*
X78708600Y-63320349D01*
X78614317Y-62846357D01*
X78345822Y-62444527D01*
X77943992Y-62176032D01*
X77470000Y-62081749D01*
X76996008Y-62176032D01*
X76594178Y-62444527D01*
X76325683Y-62846357D01*
X76231400Y-63320349D01*
X76168600Y-63320349D01*
X76074317Y-62846357D01*
X75805822Y-62444527D01*
X75403992Y-62176032D01*
X74930000Y-62081749D01*
X74456008Y-62176032D01*
X74054178Y-62444527D01*
X73785683Y-62846357D01*
X73691400Y-63320349D01*
X73634082Y-63320349D01*
X73541643Y-62865162D01*
X73269358Y-62461171D01*
X72863199Y-62192131D01*
X72590261Y-62115164D01*
X72395000Y-62195261D01*
X72385000Y-62195261D01*
X72189739Y-62115164D01*
X71916801Y-62192131D01*
X71510642Y-62461171D01*
X71238357Y-62865162D01*
X71141400Y-63342600D01*
X71088600Y-63342600D01*
X71088600Y-63320349D01*
X70994317Y-62846357D01*
X70725822Y-62444527D01*
X70323992Y-62176032D01*
X69850000Y-62081749D01*
X69376008Y-62176032D01*
X68974178Y-62444527D01*
X68705683Y-62846357D01*
X68611400Y-63320349D01*
X68548600Y-63320349D01*
X68454317Y-62846357D01*
X68185822Y-62444527D01*
X67783992Y-62176032D01*
X67310000Y-62081749D01*
X66836008Y-62176032D01*
X66434178Y-62444527D01*
X66165683Y-62846357D01*
X66071400Y-63320349D01*
X66008600Y-63320349D01*
X65914317Y-62846357D01*
X65645822Y-62444527D01*
X65243992Y-62176032D01*
X64770000Y-62081749D01*
X64296008Y-62176032D01*
X63894178Y-62444527D01*
X63625683Y-62846357D01*
X63531400Y-63320349D01*
X63315000Y-63320349D01*
X63315000Y-62045000D01*
X110675000Y-62045000D01*
X110675000Y-78925000D01*
M02*
