G04 #@! TF.FileFunction,Soldermask,Top*
%FSLAX46Y46*%
G04 Gerber Fmt 4.6, Leading zero omitted, Abs format (unit mm)*
G04 Created by KiCad (PCBNEW 4.0.2-4+6225~38~ubuntu15.10.1-stable) date Mon 28 Mar 2016 16:33:15 BST*
%MOMM*%
G01*
G04 APERTURE LIST*
%ADD10C,0.100000*%
%ADD11R,1.000000X1.950000*%
%ADD12R,2.127200X2.127200*%
%ADD13C,2.127200*%
%ADD14R,2.432000X2.127200*%
%ADD15O,2.432000X2.127200*%
%ADD16C,1.600000*%
%ADD17C,2.000000*%
%ADD18R,1.400000X1.350000*%
G04 APERTURE END LIST*
D10*
D11*
X72555000Y-88200000D03*
X73825000Y-88200000D03*
X75095000Y-88200000D03*
X76365000Y-88200000D03*
X77635000Y-88200000D03*
X78905000Y-88200000D03*
X80175000Y-88200000D03*
X81445000Y-88200000D03*
X81445000Y-82800000D03*
X80175000Y-82800000D03*
X78905000Y-82800000D03*
X77635000Y-82800000D03*
X76365000Y-82800000D03*
X75095000Y-82800000D03*
X73825000Y-82800000D03*
X72555000Y-82800000D03*
X87305000Y-88200000D03*
X88575000Y-88200000D03*
X89845000Y-88200000D03*
X91115000Y-88200000D03*
X92385000Y-88200000D03*
X93655000Y-88200000D03*
X94925000Y-88200000D03*
X96195000Y-88200000D03*
X96195000Y-82800000D03*
X94925000Y-82800000D03*
X93655000Y-82800000D03*
X92385000Y-82800000D03*
X91115000Y-82800000D03*
X89845000Y-82800000D03*
X88575000Y-82800000D03*
X87305000Y-82800000D03*
D12*
X73660000Y-111760000D03*
D13*
X76200000Y-111760000D03*
X78740000Y-111760000D03*
X81280000Y-111760000D03*
X83820000Y-111760000D03*
X86360000Y-111760000D03*
X88900000Y-111760000D03*
X91440000Y-111760000D03*
D12*
X109220000Y-111760000D03*
D13*
X106680000Y-111760000D03*
X104140000Y-111760000D03*
X101600000Y-111760000D03*
X99060000Y-111760000D03*
X96520000Y-111760000D03*
D12*
X87630000Y-63500000D03*
D13*
X85090000Y-63500000D03*
X82550000Y-63500000D03*
X80010000Y-63500000D03*
X77470000Y-63500000D03*
X74930000Y-63500000D03*
X72390000Y-63500000D03*
X69850000Y-63500000D03*
X67310000Y-63500000D03*
X64770000Y-63500000D03*
D12*
X109220000Y-63500000D03*
D13*
X106680000Y-63500000D03*
X104140000Y-63500000D03*
X101600000Y-63500000D03*
X99060000Y-63500000D03*
X96520000Y-63500000D03*
X93980000Y-63500000D03*
X91440000Y-63500000D03*
D14*
X73500000Y-68500000D03*
D15*
X73500000Y-71040000D03*
X73500000Y-73580000D03*
X73500000Y-76120000D03*
D16*
X77000000Y-97100000D03*
X82000000Y-97100000D03*
D17*
X78500000Y-95000000D03*
X80500000Y-95000000D03*
D16*
X83500000Y-97100000D03*
X88500000Y-97100000D03*
D17*
X85000000Y-95000000D03*
X87000000Y-95000000D03*
D16*
X64000000Y-97100000D03*
X69000000Y-97100000D03*
D17*
X65500000Y-95000000D03*
X67500000Y-95000000D03*
D16*
X70500000Y-97100000D03*
X75500000Y-97100000D03*
D17*
X72000000Y-95000000D03*
X74000000Y-95000000D03*
D16*
X90000000Y-97100000D03*
X95000000Y-97100000D03*
D17*
X91500000Y-95000000D03*
X93500000Y-95000000D03*
D16*
X96500000Y-97100000D03*
X101500000Y-97100000D03*
D17*
X98000000Y-95000000D03*
X100000000Y-95000000D03*
D16*
X103000000Y-97100000D03*
X108000000Y-97100000D03*
D17*
X104500000Y-95000000D03*
X106500000Y-95000000D03*
D16*
X104600000Y-76250000D03*
X104600000Y-71250000D03*
D17*
X102500000Y-74750000D03*
X102500000Y-72750000D03*
D18*
X85500000Y-82700000D03*
X85500000Y-84300000D03*
X70750000Y-82700000D03*
X70750000Y-84300000D03*
M02*
