G04 #@! TF.FileFunction,Legend,Bot*
%FSLAX46Y46*%
G04 Gerber Fmt 4.6, Leading zero omitted, Abs format (unit mm)*
G04 Created by KiCad (PCBNEW 4.0.2-4+6225~38~ubuntu15.10.1-stable) date Mon 28 Mar 2016 15:26:53 BST*
%MOMM*%
G01*
G04 APERTURE LIST*
%ADD10C,0.100000*%
%ADD11C,0.300000*%
G04 APERTURE END LIST*
D10*
D11*
X82607143Y-65357143D02*
X82607143Y-66500000D01*
X83178571Y-67214286D02*
X81678571Y-67214286D01*
X81678571Y-67571429D01*
X81750000Y-67785714D01*
X81892857Y-67928572D01*
X82035714Y-68000000D01*
X82321429Y-68071429D01*
X82535714Y-68071429D01*
X82821429Y-68000000D01*
X82964286Y-67928572D01*
X83107143Y-67785714D01*
X83178571Y-67571429D01*
X83178571Y-67214286D01*
X82750000Y-68642857D02*
X82750000Y-69357143D01*
X83178571Y-68500000D02*
X81678571Y-69000000D01*
X83178571Y-69500000D01*
X81678571Y-69785714D02*
X81678571Y-70642857D01*
X83178571Y-70214286D02*
X81678571Y-70214286D01*
X82750000Y-71071428D02*
X82750000Y-71785714D01*
X83178571Y-70928571D02*
X81678571Y-71428571D01*
X83178571Y-71928571D01*
X80107143Y-65357143D02*
X80107143Y-66500000D01*
X80607143Y-67142857D02*
X80678571Y-67357143D01*
X80678571Y-67714286D01*
X80607143Y-67857143D01*
X80535714Y-67928572D01*
X80392857Y-68000000D01*
X80250000Y-68000000D01*
X80107143Y-67928572D01*
X80035714Y-67857143D01*
X79964286Y-67714286D01*
X79892857Y-67428572D01*
X79821429Y-67285714D01*
X79750000Y-67214286D01*
X79607143Y-67142857D01*
X79464286Y-67142857D01*
X79321429Y-67214286D01*
X79250000Y-67285714D01*
X79178571Y-67428572D01*
X79178571Y-67785714D01*
X79250000Y-68000000D01*
X80678571Y-69500000D02*
X79964286Y-69000000D01*
X80678571Y-68642857D02*
X79178571Y-68642857D01*
X79178571Y-69214285D01*
X79250000Y-69357143D01*
X79321429Y-69428571D01*
X79464286Y-69500000D01*
X79678571Y-69500000D01*
X79821429Y-69428571D01*
X79892857Y-69357143D01*
X79964286Y-69214285D01*
X79964286Y-68642857D01*
X80535714Y-71000000D02*
X80607143Y-70928571D01*
X80678571Y-70714285D01*
X80678571Y-70571428D01*
X80607143Y-70357143D01*
X80464286Y-70214285D01*
X80321429Y-70142857D01*
X80035714Y-70071428D01*
X79821429Y-70071428D01*
X79535714Y-70142857D01*
X79392857Y-70214285D01*
X79250000Y-70357143D01*
X79178571Y-70571428D01*
X79178571Y-70714285D01*
X79250000Y-70928571D01*
X79321429Y-71000000D01*
X80678571Y-71642857D02*
X79178571Y-71642857D01*
X80678571Y-72500000D02*
X79821429Y-71857143D01*
X79178571Y-72500000D02*
X80035714Y-71642857D01*
X77607143Y-65357143D02*
X77607143Y-66500000D01*
X78178571Y-68071429D02*
X77464286Y-67571429D01*
X78178571Y-67214286D02*
X76678571Y-67214286D01*
X76678571Y-67785714D01*
X76750000Y-67928572D01*
X76821429Y-68000000D01*
X76964286Y-68071429D01*
X77178571Y-68071429D01*
X77321429Y-68000000D01*
X77392857Y-67928572D01*
X77464286Y-67785714D01*
X77464286Y-67214286D01*
X78035714Y-69571429D02*
X78107143Y-69500000D01*
X78178571Y-69285714D01*
X78178571Y-69142857D01*
X78107143Y-68928572D01*
X77964286Y-68785714D01*
X77821429Y-68714286D01*
X77535714Y-68642857D01*
X77321429Y-68642857D01*
X77035714Y-68714286D01*
X76892857Y-68785714D01*
X76750000Y-68928572D01*
X76678571Y-69142857D01*
X76678571Y-69285714D01*
X76750000Y-69500000D01*
X76821429Y-69571429D01*
X78178571Y-70214286D02*
X76678571Y-70214286D01*
X78178571Y-71071429D02*
X77321429Y-70428572D01*
X76678571Y-71071429D02*
X77535714Y-70214286D01*
X106607143Y-65357143D02*
X106607143Y-66500000D01*
X105678571Y-67000000D02*
X105678571Y-67857143D01*
X107178571Y-67428572D02*
X105678571Y-67428572D01*
X105678571Y-68214286D02*
X107178571Y-69214286D01*
X105678571Y-69214286D02*
X107178571Y-68214286D01*
X70857143Y-69249048D02*
X71714286Y-69249048D01*
X71285714Y-69249048D02*
X71285714Y-67549048D01*
X71428571Y-67791905D01*
X71571429Y-67953810D01*
X71714286Y-68034762D01*
X68285715Y-67630000D02*
X68428572Y-67549048D01*
X68642858Y-67549048D01*
X68857143Y-67630000D01*
X69000001Y-67791905D01*
X69071429Y-67953810D01*
X69142858Y-68277619D01*
X69142858Y-68520476D01*
X69071429Y-68844286D01*
X69000001Y-69006190D01*
X68857143Y-69168095D01*
X68642858Y-69249048D01*
X68500001Y-69249048D01*
X68285715Y-69168095D01*
X68214286Y-69087143D01*
X68214286Y-68520476D01*
X68500001Y-68520476D01*
X67571429Y-69249048D02*
X67571429Y-67549048D01*
X66714286Y-69249048D01*
X66714286Y-67549048D01*
X66000000Y-69249048D02*
X66000000Y-67549048D01*
X65642857Y-67549048D01*
X65428572Y-67630000D01*
X65285714Y-67791905D01*
X65214286Y-67953810D01*
X65142857Y-68277619D01*
X65142857Y-68520476D01*
X65214286Y-68844286D01*
X65285714Y-69006190D01*
X65428572Y-69168095D01*
X65642857Y-69249048D01*
X66000000Y-69249048D01*
X71714286Y-70390952D02*
X71642857Y-70310000D01*
X71500000Y-70229048D01*
X71142857Y-70229048D01*
X71000000Y-70310000D01*
X70928571Y-70390952D01*
X70857143Y-70552857D01*
X70857143Y-70714762D01*
X70928571Y-70957619D01*
X71785714Y-71929048D01*
X70857143Y-71929048D01*
X68214286Y-71929048D02*
X68714286Y-71119524D01*
X69071429Y-71929048D02*
X69071429Y-70229048D01*
X68500001Y-70229048D01*
X68357143Y-70310000D01*
X68285715Y-70390952D01*
X68214286Y-70552857D01*
X68214286Y-70795714D01*
X68285715Y-70957619D01*
X68357143Y-71038571D01*
X68500001Y-71119524D01*
X69071429Y-71119524D01*
X66714286Y-71767143D02*
X66785715Y-71848095D01*
X67000001Y-71929048D01*
X67142858Y-71929048D01*
X67357143Y-71848095D01*
X67500001Y-71686190D01*
X67571429Y-71524286D01*
X67642858Y-71200476D01*
X67642858Y-70957619D01*
X67571429Y-70633810D01*
X67500001Y-70471905D01*
X67357143Y-70310000D01*
X67142858Y-70229048D01*
X67000001Y-70229048D01*
X66785715Y-70310000D01*
X66714286Y-70390952D01*
X66071429Y-71929048D02*
X66071429Y-70229048D01*
X65214286Y-71929048D02*
X65857143Y-70957619D01*
X65214286Y-70229048D02*
X66071429Y-71200476D01*
X71785714Y-72909048D02*
X70857143Y-72909048D01*
X71357143Y-73556667D01*
X71142857Y-73556667D01*
X71000000Y-73637619D01*
X70928571Y-73718571D01*
X70857143Y-73880476D01*
X70857143Y-74285238D01*
X70928571Y-74447143D01*
X71000000Y-74528095D01*
X71142857Y-74609048D01*
X71571429Y-74609048D01*
X71714286Y-74528095D01*
X71785714Y-74447143D01*
X69142858Y-74528095D02*
X68928572Y-74609048D01*
X68571429Y-74609048D01*
X68428572Y-74528095D01*
X68357143Y-74447143D01*
X68285715Y-74285238D01*
X68285715Y-74123333D01*
X68357143Y-73961429D01*
X68428572Y-73880476D01*
X68571429Y-73799524D01*
X68857143Y-73718571D01*
X69000001Y-73637619D01*
X69071429Y-73556667D01*
X69142858Y-73394762D01*
X69142858Y-73232857D01*
X69071429Y-73070952D01*
X69000001Y-72990000D01*
X68857143Y-72909048D01*
X68500001Y-72909048D01*
X68285715Y-72990000D01*
X66785715Y-74609048D02*
X67285715Y-73799524D01*
X67642858Y-74609048D02*
X67642858Y-72909048D01*
X67071430Y-72909048D01*
X66928572Y-72990000D01*
X66857144Y-73070952D01*
X66785715Y-73232857D01*
X66785715Y-73475714D01*
X66857144Y-73637619D01*
X66928572Y-73718571D01*
X67071430Y-73799524D01*
X67642858Y-73799524D01*
X65285715Y-74447143D02*
X65357144Y-74528095D01*
X65571430Y-74609048D01*
X65714287Y-74609048D01*
X65928572Y-74528095D01*
X66071430Y-74366190D01*
X66142858Y-74204286D01*
X66214287Y-73880476D01*
X66214287Y-73637619D01*
X66142858Y-73313810D01*
X66071430Y-73151905D01*
X65928572Y-72990000D01*
X65714287Y-72909048D01*
X65571430Y-72909048D01*
X65357144Y-72990000D01*
X65285715Y-73070952D01*
X64642858Y-74609048D02*
X64642858Y-72909048D01*
X63785715Y-74609048D02*
X64428572Y-73637619D01*
X63785715Y-72909048D02*
X64642858Y-73880476D01*
X71000000Y-76155714D02*
X71000000Y-77289048D01*
X71357143Y-75508095D02*
X71714286Y-76722381D01*
X70785714Y-76722381D01*
X69071429Y-77289048D02*
X69071429Y-75589048D01*
X68714286Y-75589048D01*
X68500001Y-75670000D01*
X68357143Y-75831905D01*
X68285715Y-75993810D01*
X68214286Y-76317619D01*
X68214286Y-76560476D01*
X68285715Y-76884286D01*
X68357143Y-77046190D01*
X68500001Y-77208095D01*
X68714286Y-77289048D01*
X69071429Y-77289048D01*
X67642858Y-76803333D02*
X66928572Y-76803333D01*
X67785715Y-77289048D02*
X67285715Y-75589048D01*
X66785715Y-77289048D01*
X66500001Y-75589048D02*
X65642858Y-75589048D01*
X66071429Y-77289048D02*
X66071429Y-75589048D01*
X65214287Y-76803333D02*
X64500001Y-76803333D01*
X65357144Y-77289048D02*
X64857144Y-75589048D01*
X64357144Y-77289048D01*
X91714285Y-78678571D02*
X92214285Y-77964286D01*
X92571428Y-78678571D02*
X92571428Y-77178571D01*
X92000000Y-77178571D01*
X91857142Y-77250000D01*
X91785714Y-77321429D01*
X91714285Y-77464286D01*
X91714285Y-77678571D01*
X91785714Y-77821429D01*
X91857142Y-77892857D01*
X92000000Y-77964286D01*
X92571428Y-77964286D01*
X90500000Y-78607143D02*
X90642857Y-78678571D01*
X90928571Y-78678571D01*
X91071428Y-78607143D01*
X91142857Y-78464286D01*
X91142857Y-77892857D01*
X91071428Y-77750000D01*
X90928571Y-77678571D01*
X90642857Y-77678571D01*
X90500000Y-77750000D01*
X90428571Y-77892857D01*
X90428571Y-78035714D01*
X91142857Y-78178571D01*
X89928571Y-77678571D02*
X89571428Y-78678571D01*
X89214286Y-77678571D01*
X88642857Y-78678571D02*
X88642857Y-77678571D01*
X88642857Y-77178571D02*
X88714286Y-77250000D01*
X88642857Y-77321429D01*
X88571429Y-77250000D01*
X88642857Y-77178571D01*
X88642857Y-77321429D01*
X88000000Y-78607143D02*
X87857143Y-78678571D01*
X87571428Y-78678571D01*
X87428571Y-78607143D01*
X87357143Y-78464286D01*
X87357143Y-78392857D01*
X87428571Y-78250000D01*
X87571428Y-78178571D01*
X87785714Y-78178571D01*
X87928571Y-78107143D01*
X88000000Y-77964286D01*
X88000000Y-77892857D01*
X87928571Y-77750000D01*
X87785714Y-77678571D01*
X87571428Y-77678571D01*
X87428571Y-77750000D01*
X86714285Y-78678571D02*
X86714285Y-77678571D01*
X86714285Y-77178571D02*
X86785714Y-77250000D01*
X86714285Y-77321429D01*
X86642857Y-77250000D01*
X86714285Y-77178571D01*
X86714285Y-77321429D01*
X85785713Y-78678571D02*
X85928571Y-78607143D01*
X85999999Y-78535714D01*
X86071428Y-78392857D01*
X86071428Y-77964286D01*
X85999999Y-77821429D01*
X85928571Y-77750000D01*
X85785713Y-77678571D01*
X85571428Y-77678571D01*
X85428571Y-77750000D01*
X85357142Y-77821429D01*
X85285713Y-77964286D01*
X85285713Y-78392857D01*
X85357142Y-78535714D01*
X85428571Y-78607143D01*
X85571428Y-78678571D01*
X85785713Y-78678571D01*
X84642856Y-77678571D02*
X84642856Y-78678571D01*
X84642856Y-77821429D02*
X84571428Y-77750000D01*
X84428570Y-77678571D01*
X84214285Y-77678571D01*
X84071428Y-77750000D01*
X83999999Y-77892857D01*
X83999999Y-78678571D01*
X81357142Y-78678571D02*
X82214285Y-78678571D01*
X81785713Y-78678571D02*
X81785713Y-77178571D01*
X81928570Y-77392857D01*
X82071428Y-77535714D01*
X82214285Y-77607143D01*
X94285713Y-81321429D02*
X94214284Y-81250000D01*
X94071427Y-81178571D01*
X93714284Y-81178571D01*
X93571427Y-81250000D01*
X93499998Y-81321429D01*
X93428570Y-81464286D01*
X93428570Y-81607143D01*
X93499998Y-81821429D01*
X94357141Y-82678571D01*
X93428570Y-82678571D01*
X92499999Y-81178571D02*
X92357142Y-81178571D01*
X92214285Y-81250000D01*
X92142856Y-81321429D01*
X92071427Y-81464286D01*
X91999999Y-81750000D01*
X91999999Y-82107143D01*
X92071427Y-82392857D01*
X92142856Y-82535714D01*
X92214285Y-82607143D01*
X92357142Y-82678571D01*
X92499999Y-82678571D01*
X92642856Y-82607143D01*
X92714285Y-82535714D01*
X92785713Y-82392857D01*
X92857142Y-82107143D01*
X92857142Y-81750000D01*
X92785713Y-81464286D01*
X92714285Y-81321429D01*
X92642856Y-81250000D01*
X92499999Y-81178571D01*
X90571428Y-82678571D02*
X91428571Y-82678571D01*
X90999999Y-82678571D02*
X90999999Y-81178571D01*
X91142856Y-81392857D01*
X91285714Y-81535714D01*
X91428571Y-81607143D01*
X89285714Y-81178571D02*
X89571428Y-81178571D01*
X89714285Y-81250000D01*
X89785714Y-81321429D01*
X89928571Y-81535714D01*
X90000000Y-81821429D01*
X90000000Y-82392857D01*
X89928571Y-82535714D01*
X89857143Y-82607143D01*
X89714285Y-82678571D01*
X89428571Y-82678571D01*
X89285714Y-82607143D01*
X89214285Y-82535714D01*
X89142857Y-82392857D01*
X89142857Y-82035714D01*
X89214285Y-81892857D01*
X89285714Y-81821429D01*
X89428571Y-81750000D01*
X89714285Y-81750000D01*
X89857143Y-81821429D01*
X89928571Y-81892857D01*
X90000000Y-82035714D01*
X88500000Y-82107143D02*
X87357143Y-82107143D01*
X86357143Y-81178571D02*
X86214286Y-81178571D01*
X86071429Y-81250000D01*
X86000000Y-81321429D01*
X85928571Y-81464286D01*
X85857143Y-81750000D01*
X85857143Y-82107143D01*
X85928571Y-82392857D01*
X86000000Y-82535714D01*
X86071429Y-82607143D01*
X86214286Y-82678571D01*
X86357143Y-82678571D01*
X86500000Y-82607143D01*
X86571429Y-82535714D01*
X86642857Y-82392857D01*
X86714286Y-82107143D01*
X86714286Y-81750000D01*
X86642857Y-81464286D01*
X86571429Y-81321429D01*
X86500000Y-81250000D01*
X86357143Y-81178571D01*
X85357143Y-81178571D02*
X84428572Y-81178571D01*
X84928572Y-81750000D01*
X84714286Y-81750000D01*
X84571429Y-81821429D01*
X84500000Y-81892857D01*
X84428572Y-82035714D01*
X84428572Y-82392857D01*
X84500000Y-82535714D01*
X84571429Y-82607143D01*
X84714286Y-82678571D01*
X85142858Y-82678571D01*
X85285715Y-82607143D01*
X85357143Y-82535714D01*
X83785715Y-82107143D02*
X82642858Y-82107143D01*
X82000001Y-81321429D02*
X81928572Y-81250000D01*
X81785715Y-81178571D01*
X81428572Y-81178571D01*
X81285715Y-81250000D01*
X81214286Y-81321429D01*
X81142858Y-81464286D01*
X81142858Y-81607143D01*
X81214286Y-81821429D01*
X82071429Y-82678571D01*
X81142858Y-82678571D01*
X80285715Y-81821429D02*
X80428573Y-81750000D01*
X80500001Y-81678571D01*
X80571430Y-81535714D01*
X80571430Y-81464286D01*
X80500001Y-81321429D01*
X80428573Y-81250000D01*
X80285715Y-81178571D01*
X80000001Y-81178571D01*
X79857144Y-81250000D01*
X79785715Y-81321429D01*
X79714287Y-81464286D01*
X79714287Y-81535714D01*
X79785715Y-81678571D01*
X79857144Y-81750000D01*
X80000001Y-81821429D01*
X80285715Y-81821429D01*
X80428573Y-81892857D01*
X80500001Y-81964286D01*
X80571430Y-82107143D01*
X80571430Y-82392857D01*
X80500001Y-82535714D01*
X80428573Y-82607143D01*
X80285715Y-82678571D01*
X80000001Y-82678571D01*
X79857144Y-82607143D01*
X79785715Y-82535714D01*
X79714287Y-82392857D01*
X79714287Y-82107143D01*
X79785715Y-81964286D01*
X79857144Y-81892857D01*
X80000001Y-81821429D01*
M02*
