G04 #@! TF.FileFunction,Legend,Top*
%FSLAX46Y46*%
G04 Gerber Fmt 4.6, Leading zero omitted, Abs format (unit mm)*
G04 Created by KiCad (PCBNEW 4.0.2-4+6225~38~ubuntu15.10.1-stable) date Mon 28 Mar 2016 01:33:35 BST*
%MOMM*%
G01*
G04 APERTURE LIST*
%ADD10C,0.100000*%
%ADD11C,0.150000*%
G04 APERTURE END LIST*
D10*
D11*
X79055000Y-87825000D02*
X79055000Y-85575000D01*
X79055000Y-85575000D02*
X87945000Y-85575000D01*
X87945000Y-85575000D02*
X87945000Y-88425000D01*
X87945000Y-88425000D02*
X79655000Y-88425000D01*
X79655000Y-88425000D02*
X79055000Y-87825000D01*
X90055000Y-87825000D02*
X90055000Y-85575000D01*
X90055000Y-85575000D02*
X98945000Y-85575000D01*
X98945000Y-85575000D02*
X98945000Y-88425000D01*
X98945000Y-88425000D02*
X90655000Y-88425000D01*
X90655000Y-88425000D02*
X90055000Y-87825000D01*
X74930000Y-110490000D02*
X92710000Y-110490000D01*
X92710000Y-110490000D02*
X92710000Y-113030000D01*
X92710000Y-113030000D02*
X74930000Y-113030000D01*
X72110000Y-110210000D02*
X73660000Y-110210000D01*
X74930000Y-110490000D02*
X74930000Y-113030000D01*
X73660000Y-113310000D02*
X72110000Y-113310000D01*
X72110000Y-113310000D02*
X72110000Y-110210000D01*
X107950000Y-113030000D02*
X95250000Y-113030000D01*
X95250000Y-113030000D02*
X95250000Y-110490000D01*
X95250000Y-110490000D02*
X107950000Y-110490000D01*
X110770000Y-113310000D02*
X109220000Y-113310000D01*
X107950000Y-113030000D02*
X107950000Y-110490000D01*
X109220000Y-110210000D02*
X110770000Y-110210000D01*
X110770000Y-110210000D02*
X110770000Y-113310000D01*
X86360000Y-64770000D02*
X63500000Y-64770000D01*
X63500000Y-64770000D02*
X63500000Y-62230000D01*
X63500000Y-62230000D02*
X86360000Y-62230000D01*
X89180000Y-65050000D02*
X87630000Y-65050000D01*
X86360000Y-64770000D02*
X86360000Y-62230000D01*
X87630000Y-61950000D02*
X89180000Y-61950000D01*
X89180000Y-61950000D02*
X89180000Y-65050000D01*
X107950000Y-64770000D02*
X90170000Y-64770000D01*
X90170000Y-64770000D02*
X90170000Y-62230000D01*
X90170000Y-62230000D02*
X107950000Y-62230000D01*
X110770000Y-65050000D02*
X109220000Y-65050000D01*
X107950000Y-64770000D02*
X107950000Y-62230000D01*
X109220000Y-61950000D02*
X110770000Y-61950000D01*
X110770000Y-61950000D02*
X110770000Y-65050000D01*
X75770000Y-69770000D02*
X83390000Y-69770000D01*
X75770000Y-67230000D02*
X83390000Y-67230000D01*
X72950000Y-66950000D02*
X74500000Y-66950000D01*
X83390000Y-69770000D02*
X83390000Y-67230000D01*
X75770000Y-67230000D02*
X75770000Y-69770000D01*
X74500000Y-70050000D02*
X72950000Y-70050000D01*
X72950000Y-70050000D02*
X72950000Y-66950000D01*
X63300000Y-100000000D02*
X63300000Y-94000000D01*
X63300000Y-94000000D02*
X75000000Y-94000000D01*
X75000000Y-94000000D02*
X75000000Y-95000000D01*
X75000000Y-95000000D02*
X71000000Y-95000000D01*
X63300000Y-100000000D02*
X75000000Y-100000000D01*
X75000000Y-100000000D02*
X75000000Y-99000000D01*
X75000000Y-99000000D02*
X71000000Y-99000000D01*
X63300000Y-106500000D02*
X63300000Y-100500000D01*
X63300000Y-100500000D02*
X75000000Y-100500000D01*
X75000000Y-100500000D02*
X75000000Y-101500000D01*
X75000000Y-101500000D02*
X71000000Y-101500000D01*
X63300000Y-106500000D02*
X75000000Y-106500000D01*
X75000000Y-106500000D02*
X75000000Y-105500000D01*
X75000000Y-105500000D02*
X71000000Y-105500000D01*
X63300000Y-87000000D02*
X63300000Y-81000000D01*
X63300000Y-81000000D02*
X75000000Y-81000000D01*
X75000000Y-81000000D02*
X75000000Y-82000000D01*
X75000000Y-82000000D02*
X71000000Y-82000000D01*
X63300000Y-87000000D02*
X75000000Y-87000000D01*
X75000000Y-87000000D02*
X75000000Y-86000000D01*
X75000000Y-86000000D02*
X71000000Y-86000000D01*
X63300000Y-93500000D02*
X63300000Y-87500000D01*
X63300000Y-87500000D02*
X75000000Y-87500000D01*
X75000000Y-87500000D02*
X75000000Y-88500000D01*
X75000000Y-88500000D02*
X71000000Y-88500000D01*
X63300000Y-93500000D02*
X75000000Y-93500000D01*
X75000000Y-93500000D02*
X75000000Y-92500000D01*
X75000000Y-92500000D02*
X71000000Y-92500000D01*
X110700000Y-100500000D02*
X110700000Y-106500000D01*
X110700000Y-106500000D02*
X99000000Y-106500000D01*
X99000000Y-106500000D02*
X99000000Y-105500000D01*
X99000000Y-105500000D02*
X103000000Y-105500000D01*
X110700000Y-100500000D02*
X99000000Y-100500000D01*
X99000000Y-100500000D02*
X99000000Y-101500000D01*
X99000000Y-101500000D02*
X103000000Y-101500000D01*
X110700000Y-94000000D02*
X110700000Y-100000000D01*
X110700000Y-100000000D02*
X99000000Y-100000000D01*
X99000000Y-100000000D02*
X99000000Y-99000000D01*
X99000000Y-99000000D02*
X103000000Y-99000000D01*
X110700000Y-94000000D02*
X99000000Y-94000000D01*
X99000000Y-94000000D02*
X99000000Y-95000000D01*
X99000000Y-95000000D02*
X103000000Y-95000000D01*
X110700000Y-72500000D02*
X110700000Y-78500000D01*
X110700000Y-78500000D02*
X99000000Y-78500000D01*
X99000000Y-78500000D02*
X99000000Y-77500000D01*
X99000000Y-77500000D02*
X103000000Y-77500000D01*
X110700000Y-72500000D02*
X99000000Y-72500000D01*
X99000000Y-72500000D02*
X99000000Y-73500000D01*
X99000000Y-73500000D02*
X103000000Y-73500000D01*
X110700000Y-66000000D02*
X110700000Y-72000000D01*
X110700000Y-72000000D02*
X99000000Y-72000000D01*
X99000000Y-72000000D02*
X99000000Y-71000000D01*
X99000000Y-71000000D02*
X103000000Y-71000000D01*
X110700000Y-66000000D02*
X99000000Y-66000000D01*
X99000000Y-66000000D02*
X99000000Y-67000000D01*
X99000000Y-67000000D02*
X103000000Y-67000000D01*
X89675000Y-81125000D02*
X89675000Y-80875000D01*
X89675000Y-80875000D02*
X90325000Y-80875000D01*
X90325000Y-80875000D02*
X90325000Y-81125000D01*
X90325000Y-81125000D02*
X89675000Y-81125000D01*
X78675000Y-81125000D02*
X78675000Y-80875000D01*
X78675000Y-80875000D02*
X79325000Y-80875000D01*
X79325000Y-80875000D02*
X79325000Y-81125000D01*
X79325000Y-81125000D02*
X78675000Y-81125000D01*
M02*
