G04 #@! TF.FileFunction,Legend,Top*
%FSLAX46Y46*%
G04 Gerber Fmt 4.6, Leading zero omitted, Abs format (unit mm)*
G04 Created by KiCad (PCBNEW 4.0.2-4+6225~38~ubuntu15.10.1-stable) date Tue 29 Mar 2016 00:01:41 BST*
%MOMM*%
G01*
G04 APERTURE LIST*
%ADD10C,0.100000*%
%ADD11C,0.300000*%
%ADD12C,0.500000*%
%ADD13C,0.150000*%
G04 APERTURE END LIST*
D10*
D11*
X101857144Y-77821429D02*
X101714286Y-77750000D01*
X101642858Y-77678571D01*
X101571429Y-77535714D01*
X101571429Y-77464286D01*
X101642858Y-77321429D01*
X101714286Y-77250000D01*
X101857144Y-77178571D01*
X102142858Y-77178571D01*
X102285715Y-77250000D01*
X102357144Y-77321429D01*
X102428572Y-77464286D01*
X102428572Y-77535714D01*
X102357144Y-77678571D01*
X102285715Y-77750000D01*
X102142858Y-77821429D01*
X101857144Y-77821429D01*
X101714286Y-77892857D01*
X101642858Y-77964286D01*
X101571429Y-78107143D01*
X101571429Y-78392857D01*
X101642858Y-78535714D01*
X101714286Y-78607143D01*
X101857144Y-78678571D01*
X102142858Y-78678571D01*
X102285715Y-78607143D01*
X102357144Y-78535714D01*
X102428572Y-78392857D01*
X102428572Y-78107143D01*
X102357144Y-77964286D01*
X102285715Y-77892857D01*
X102142858Y-77821429D01*
X105500001Y-104178571D02*
X106500001Y-104178571D01*
X105857144Y-105678571D01*
X99285715Y-104178571D02*
X99000001Y-104178571D01*
X98857144Y-104250000D01*
X98785715Y-104321429D01*
X98642858Y-104535714D01*
X98571429Y-104821429D01*
X98571429Y-105392857D01*
X98642858Y-105535714D01*
X98714286Y-105607143D01*
X98857144Y-105678571D01*
X99142858Y-105678571D01*
X99285715Y-105607143D01*
X99357144Y-105535714D01*
X99428572Y-105392857D01*
X99428572Y-105035714D01*
X99357144Y-104892857D01*
X99285715Y-104821429D01*
X99142858Y-104750000D01*
X98857144Y-104750000D01*
X98714286Y-104821429D01*
X98642858Y-104892857D01*
X98571429Y-105035714D01*
X93357144Y-104178571D02*
X92642858Y-104178571D01*
X92571429Y-104892857D01*
X92642858Y-104821429D01*
X92785715Y-104750000D01*
X93142858Y-104750000D01*
X93285715Y-104821429D01*
X93357144Y-104892857D01*
X93428572Y-105035714D01*
X93428572Y-105392857D01*
X93357144Y-105535714D01*
X93285715Y-105607143D01*
X93142858Y-105678571D01*
X92785715Y-105678571D01*
X92642858Y-105607143D01*
X92571429Y-105535714D01*
X86285715Y-104678571D02*
X86285715Y-105678571D01*
X85928572Y-104107143D02*
X85571429Y-105178571D01*
X86500001Y-105178571D01*
X79500001Y-104178571D02*
X80428572Y-104178571D01*
X79928572Y-104750000D01*
X80142858Y-104750000D01*
X80285715Y-104821429D01*
X80357144Y-104892857D01*
X80428572Y-105035714D01*
X80428572Y-105392857D01*
X80357144Y-105535714D01*
X80285715Y-105607143D01*
X80142858Y-105678571D01*
X79714286Y-105678571D01*
X79571429Y-105607143D01*
X79500001Y-105535714D01*
X72571429Y-104321429D02*
X72642858Y-104250000D01*
X72785715Y-104178571D01*
X73142858Y-104178571D01*
X73285715Y-104250000D01*
X73357144Y-104321429D01*
X73428572Y-104464286D01*
X73428572Y-104607143D01*
X73357144Y-104821429D01*
X72500001Y-105678571D01*
X73428572Y-105678571D01*
X67428572Y-105678571D02*
X66571429Y-105678571D01*
X67000001Y-105678571D02*
X67000001Y-104178571D01*
X66857144Y-104392857D01*
X66714286Y-104535714D01*
X66571429Y-104607143D01*
X66478571Y-81678571D02*
X64978571Y-81678571D01*
X64978571Y-81321428D01*
X65050000Y-81107143D01*
X65192857Y-80964285D01*
X65335714Y-80892857D01*
X65621429Y-80821428D01*
X65835714Y-80821428D01*
X66121429Y-80892857D01*
X66264286Y-80964285D01*
X66407143Y-81107143D01*
X66478571Y-81321428D01*
X66478571Y-81678571D01*
X66050000Y-80250000D02*
X66050000Y-79535714D01*
X66478571Y-80392857D02*
X64978571Y-79892857D01*
X66478571Y-79392857D01*
X64978571Y-79107143D02*
X66478571Y-78607143D01*
X64978571Y-78107143D01*
X66478571Y-77607143D02*
X64978571Y-77607143D01*
X66478571Y-76892857D02*
X64978571Y-76892857D01*
X64978571Y-76535714D01*
X65050000Y-76321429D01*
X65192857Y-76178571D01*
X65335714Y-76107143D01*
X65621429Y-76035714D01*
X65835714Y-76035714D01*
X66121429Y-76107143D01*
X66264286Y-76178571D01*
X66407143Y-76321429D01*
X66478571Y-76535714D01*
X66478571Y-76892857D01*
X64978571Y-74464286D02*
X64978571Y-73607143D01*
X66478571Y-74035714D02*
X64978571Y-74035714D01*
X64978571Y-73107143D02*
X66192857Y-73107143D01*
X66335714Y-73035715D01*
X66407143Y-72964286D01*
X66478571Y-72821429D01*
X66478571Y-72535715D01*
X66407143Y-72392857D01*
X66335714Y-72321429D01*
X66192857Y-72250000D01*
X64978571Y-72250000D01*
X66478571Y-70678571D02*
X65764286Y-71178571D01*
X66478571Y-71535714D02*
X64978571Y-71535714D01*
X64978571Y-70964286D01*
X65050000Y-70821428D01*
X65121429Y-70750000D01*
X65264286Y-70678571D01*
X65478571Y-70678571D01*
X65621429Y-70750000D01*
X65692857Y-70821428D01*
X65764286Y-70964286D01*
X65764286Y-71535714D01*
X66478571Y-70035714D02*
X64978571Y-70035714D01*
X66478571Y-69178571D01*
X64978571Y-69178571D01*
X65692857Y-68464285D02*
X65692857Y-67964285D01*
X66478571Y-67749999D02*
X66478571Y-68464285D01*
X64978571Y-68464285D01*
X64978571Y-67749999D01*
X66478571Y-66249999D02*
X65764286Y-66749999D01*
X66478571Y-67107142D02*
X64978571Y-67107142D01*
X64978571Y-66535714D01*
X65050000Y-66392856D01*
X65121429Y-66321428D01*
X65264286Y-66249999D01*
X65478571Y-66249999D01*
X65621429Y-66321428D01*
X65692857Y-66392856D01*
X65764286Y-66535714D01*
X65764286Y-67107142D01*
X68450000Y-80464286D02*
X68450000Y-79750000D01*
X68878571Y-80607143D02*
X67378571Y-80107143D01*
X68878571Y-79607143D01*
X68878571Y-79107143D02*
X67378571Y-79107143D01*
X67378571Y-78750000D01*
X67450000Y-78535715D01*
X67592857Y-78392857D01*
X67735714Y-78321429D01*
X68021429Y-78250000D01*
X68235714Y-78250000D01*
X68521429Y-78321429D01*
X68664286Y-78392857D01*
X68807143Y-78535715D01*
X68878571Y-78750000D01*
X68878571Y-79107143D01*
X68450000Y-77678572D02*
X68450000Y-76964286D01*
X68878571Y-77821429D02*
X67378571Y-77321429D01*
X68878571Y-76821429D01*
X68878571Y-76321429D02*
X67378571Y-76321429D01*
X68450000Y-75821429D01*
X67378571Y-75321429D01*
X68878571Y-75321429D01*
X67450000Y-72678572D02*
X67378571Y-72821429D01*
X67378571Y-73035715D01*
X67450000Y-73250000D01*
X67592857Y-73392858D01*
X67735714Y-73464286D01*
X68021429Y-73535715D01*
X68235714Y-73535715D01*
X68521429Y-73464286D01*
X68664286Y-73392858D01*
X68807143Y-73250000D01*
X68878571Y-73035715D01*
X68878571Y-72892858D01*
X68807143Y-72678572D01*
X68735714Y-72607143D01*
X68235714Y-72607143D01*
X68235714Y-72892858D01*
X68878571Y-71107143D02*
X68164286Y-71607143D01*
X68878571Y-71964286D02*
X67378571Y-71964286D01*
X67378571Y-71392858D01*
X67450000Y-71250000D01*
X67521429Y-71178572D01*
X67664286Y-71107143D01*
X67878571Y-71107143D01*
X68021429Y-71178572D01*
X68092857Y-71250000D01*
X68164286Y-71392858D01*
X68164286Y-71964286D01*
X68092857Y-70464286D02*
X68092857Y-69964286D01*
X68878571Y-69750000D02*
X68878571Y-70464286D01*
X67378571Y-70464286D01*
X67378571Y-69750000D01*
X68878571Y-69107143D02*
X67378571Y-69107143D01*
X67450000Y-67607143D02*
X67378571Y-67750000D01*
X67378571Y-67964286D01*
X67450000Y-68178571D01*
X67592857Y-68321429D01*
X67735714Y-68392857D01*
X68021429Y-68464286D01*
X68235714Y-68464286D01*
X68521429Y-68392857D01*
X68664286Y-68321429D01*
X68807143Y-68178571D01*
X68878571Y-67964286D01*
X68878571Y-67821429D01*
X68807143Y-67607143D01*
X68735714Y-67535714D01*
X68235714Y-67535714D01*
X68235714Y-67821429D01*
X81178572Y-70978571D02*
X81464286Y-70978571D01*
X81607144Y-71050000D01*
X81750001Y-71192857D01*
X81821429Y-71478571D01*
X81821429Y-71978571D01*
X81750001Y-72264286D01*
X81607144Y-72407143D01*
X81464286Y-72478571D01*
X81178572Y-72478571D01*
X81035715Y-72407143D01*
X80892858Y-72264286D01*
X80821429Y-71978571D01*
X80821429Y-71478571D01*
X80892858Y-71192857D01*
X81035715Y-71050000D01*
X81178572Y-70978571D01*
X83321430Y-72335714D02*
X83250001Y-72407143D01*
X83035715Y-72478571D01*
X82892858Y-72478571D01*
X82678573Y-72407143D01*
X82535715Y-72264286D01*
X82464287Y-72121429D01*
X82392858Y-71835714D01*
X82392858Y-71621429D01*
X82464287Y-71335714D01*
X82535715Y-71192857D01*
X82678573Y-71050000D01*
X82892858Y-70978571D01*
X83035715Y-70978571D01*
X83250001Y-71050000D01*
X83321430Y-71121429D01*
X83750001Y-70978571D02*
X84607144Y-70978571D01*
X84178573Y-72478571D02*
X84178573Y-70978571D01*
X85035715Y-72050000D02*
X85750001Y-72050000D01*
X84892858Y-72478571D02*
X85392858Y-70978571D01*
X85892858Y-72478571D01*
X87107144Y-72478571D02*
X86392858Y-72478571D01*
X86392858Y-70978571D01*
X89607144Y-72478571D02*
X89107144Y-71764286D01*
X88750001Y-72478571D02*
X88750001Y-70978571D01*
X89321429Y-70978571D01*
X89464287Y-71050000D01*
X89535715Y-71121429D01*
X89607144Y-71264286D01*
X89607144Y-71478571D01*
X89535715Y-71621429D01*
X89464287Y-71692857D01*
X89321429Y-71764286D01*
X88750001Y-71764286D01*
X90178572Y-72407143D02*
X90392858Y-72478571D01*
X90750001Y-72478571D01*
X90892858Y-72407143D01*
X90964287Y-72335714D01*
X91035715Y-72192857D01*
X91035715Y-72050000D01*
X90964287Y-71907143D01*
X90892858Y-71835714D01*
X90750001Y-71764286D01*
X90464287Y-71692857D01*
X90321429Y-71621429D01*
X90250001Y-71550000D01*
X90178572Y-71407143D01*
X90178572Y-71264286D01*
X90250001Y-71121429D01*
X90321429Y-71050000D01*
X90464287Y-70978571D01*
X90821429Y-70978571D01*
X91035715Y-71050000D01*
X91678572Y-71907143D02*
X92821429Y-71907143D01*
X94178572Y-71478571D02*
X94178572Y-72478571D01*
X93821429Y-70907143D02*
X93464286Y-71978571D01*
X94392858Y-71978571D01*
X94892857Y-71121429D02*
X94964286Y-71050000D01*
X95107143Y-70978571D01*
X95464286Y-70978571D01*
X95607143Y-71050000D01*
X95678572Y-71121429D01*
X95750000Y-71264286D01*
X95750000Y-71407143D01*
X95678572Y-71621429D01*
X94821429Y-72478571D01*
X95750000Y-72478571D01*
X96321428Y-71121429D02*
X96392857Y-71050000D01*
X96535714Y-70978571D01*
X96892857Y-70978571D01*
X97035714Y-71050000D01*
X97107143Y-71121429D01*
X97178571Y-71264286D01*
X97178571Y-71407143D01*
X97107143Y-71621429D01*
X96250000Y-72478571D01*
X97178571Y-72478571D01*
X79964285Y-74092857D02*
X80178571Y-74164286D01*
X80249999Y-74235714D01*
X80321428Y-74378571D01*
X80321428Y-74592857D01*
X80249999Y-74735714D01*
X80178571Y-74807143D01*
X80035713Y-74878571D01*
X79464285Y-74878571D01*
X79464285Y-73378571D01*
X79964285Y-73378571D01*
X80107142Y-73450000D01*
X80178571Y-73521429D01*
X80249999Y-73664286D01*
X80249999Y-73807143D01*
X80178571Y-73950000D01*
X80107142Y-74021429D01*
X79964285Y-74092857D01*
X79464285Y-74092857D01*
X80964285Y-73378571D02*
X80964285Y-74592857D01*
X81035713Y-74735714D01*
X81107142Y-74807143D01*
X81249999Y-74878571D01*
X81535713Y-74878571D01*
X81678571Y-74807143D01*
X81749999Y-74735714D01*
X81821428Y-74592857D01*
X81821428Y-73378571D01*
X82464285Y-74807143D02*
X82678571Y-74878571D01*
X83035714Y-74878571D01*
X83178571Y-74807143D01*
X83250000Y-74735714D01*
X83321428Y-74592857D01*
X83321428Y-74450000D01*
X83250000Y-74307143D01*
X83178571Y-74235714D01*
X83035714Y-74164286D01*
X82750000Y-74092857D01*
X82607142Y-74021429D01*
X82535714Y-73950000D01*
X82464285Y-73807143D01*
X82464285Y-73664286D01*
X82535714Y-73521429D01*
X82607142Y-73450000D01*
X82750000Y-73378571D01*
X83107142Y-73378571D01*
X83321428Y-73450000D01*
X85964285Y-74735714D02*
X85892856Y-74807143D01*
X85678570Y-74878571D01*
X85535713Y-74878571D01*
X85321428Y-74807143D01*
X85178570Y-74664286D01*
X85107142Y-74521429D01*
X85035713Y-74235714D01*
X85035713Y-74021429D01*
X85107142Y-73735714D01*
X85178570Y-73592857D01*
X85321428Y-73450000D01*
X85535713Y-73378571D01*
X85678570Y-73378571D01*
X85892856Y-73450000D01*
X85964285Y-73521429D01*
X86892856Y-73378571D02*
X87178570Y-73378571D01*
X87321428Y-73450000D01*
X87464285Y-73592857D01*
X87535713Y-73878571D01*
X87535713Y-74378571D01*
X87464285Y-74664286D01*
X87321428Y-74807143D01*
X87178570Y-74878571D01*
X86892856Y-74878571D01*
X86749999Y-74807143D01*
X86607142Y-74664286D01*
X86535713Y-74378571D01*
X86535713Y-73878571D01*
X86607142Y-73592857D01*
X86749999Y-73450000D01*
X86892856Y-73378571D01*
X88178571Y-74878571D02*
X88178571Y-73378571D01*
X89035714Y-74878571D01*
X89035714Y-73378571D01*
X89535714Y-73378571D02*
X90392857Y-73378571D01*
X89964286Y-74878571D02*
X89964286Y-73378571D01*
X91750000Y-74878571D02*
X91250000Y-74164286D01*
X90892857Y-74878571D02*
X90892857Y-73378571D01*
X91464285Y-73378571D01*
X91607143Y-73450000D01*
X91678571Y-73521429D01*
X91750000Y-73664286D01*
X91750000Y-73878571D01*
X91678571Y-74021429D01*
X91607143Y-74092857D01*
X91464285Y-74164286D01*
X90892857Y-74164286D01*
X92678571Y-73378571D02*
X92964285Y-73378571D01*
X93107143Y-73450000D01*
X93250000Y-73592857D01*
X93321428Y-73878571D01*
X93321428Y-74378571D01*
X93250000Y-74664286D01*
X93107143Y-74807143D01*
X92964285Y-74878571D01*
X92678571Y-74878571D01*
X92535714Y-74807143D01*
X92392857Y-74664286D01*
X92321428Y-74378571D01*
X92321428Y-73878571D01*
X92392857Y-73592857D01*
X92535714Y-73450000D01*
X92678571Y-73378571D01*
X94678572Y-74878571D02*
X93964286Y-74878571D01*
X93964286Y-73378571D01*
X95892858Y-74878571D02*
X95178572Y-74878571D01*
X95178572Y-73378571D01*
X96392858Y-74092857D02*
X96892858Y-74092857D01*
X97107144Y-74878571D02*
X96392858Y-74878571D01*
X96392858Y-73378571D01*
X97107144Y-73378571D01*
X98607144Y-74878571D02*
X98107144Y-74164286D01*
X97750001Y-74878571D02*
X97750001Y-73378571D01*
X98321429Y-73378571D01*
X98464287Y-73450000D01*
X98535715Y-73521429D01*
X98607144Y-73664286D01*
X98607144Y-73878571D01*
X98535715Y-74021429D01*
X98464287Y-74092857D01*
X98321429Y-74164286D01*
X97750001Y-74164286D01*
D12*
X79476190Y-66357143D02*
X81761905Y-66357143D01*
X80619048Y-69357143D02*
X80619048Y-66357143D01*
X83095238Y-69357143D02*
X83095238Y-66357143D01*
X83095238Y-67785714D02*
X85380952Y-67785714D01*
X85380952Y-69357143D02*
X85380952Y-66357143D01*
X87285714Y-67785714D02*
X88619047Y-67785714D01*
X89190476Y-69357143D02*
X87285714Y-69357143D01*
X87285714Y-66357143D01*
X89190476Y-66357143D01*
X91476191Y-68071429D02*
X91285714Y-68214286D01*
X91476191Y-68357143D01*
X91666667Y-68214286D01*
X91476191Y-68071429D01*
X91476191Y-68357143D01*
X96047619Y-66500000D02*
X95666667Y-66357143D01*
X95095238Y-66357143D01*
X94523810Y-66500000D01*
X94142857Y-66785714D01*
X93952381Y-67071429D01*
X93761905Y-67642857D01*
X93761905Y-68071429D01*
X93952381Y-68642857D01*
X94142857Y-68928571D01*
X94523810Y-69214286D01*
X95095238Y-69357143D01*
X95476190Y-69357143D01*
X96047619Y-69214286D01*
X96238095Y-69071429D01*
X96238095Y-68071429D01*
X95476190Y-68071429D01*
X100238095Y-69357143D02*
X98904762Y-67928571D01*
X97952381Y-69357143D02*
X97952381Y-66357143D01*
X99476190Y-66357143D01*
X99857143Y-66500000D01*
X100047619Y-66642857D01*
X100238095Y-66928571D01*
X100238095Y-67357143D01*
X100047619Y-67642857D01*
X99857143Y-67785714D01*
X99476190Y-67928571D01*
X97952381Y-67928571D01*
X101952381Y-69357143D02*
X101952381Y-66357143D01*
X103857143Y-69357143D02*
X103857143Y-66357143D01*
X104809524Y-66357143D01*
X105380952Y-66500000D01*
X105761905Y-66785714D01*
X105952381Y-67071429D01*
X106142857Y-67642857D01*
X106142857Y-68071429D01*
X105952381Y-68642857D01*
X105761905Y-68928571D01*
X105380952Y-69214286D01*
X104809524Y-69357143D01*
X103857143Y-69357143D01*
D13*
X72555000Y-86325000D02*
X72555000Y-84075000D01*
X72555000Y-84075000D02*
X81445000Y-84075000D01*
X81445000Y-84075000D02*
X81445000Y-86925000D01*
X81445000Y-86925000D02*
X73155000Y-86925000D01*
X73155000Y-86925000D02*
X72555000Y-86325000D01*
X87305000Y-86325000D02*
X87305000Y-84075000D01*
X87305000Y-84075000D02*
X96195000Y-84075000D01*
X96195000Y-84075000D02*
X96195000Y-86925000D01*
X96195000Y-86925000D02*
X87905000Y-86925000D01*
X87905000Y-86925000D02*
X87305000Y-86325000D01*
X74930000Y-110490000D02*
X92710000Y-110490000D01*
X92710000Y-110490000D02*
X92710000Y-113030000D01*
X92710000Y-113030000D02*
X74930000Y-113030000D01*
X72110000Y-110210000D02*
X73660000Y-110210000D01*
X74930000Y-110490000D02*
X74930000Y-113030000D01*
X73660000Y-113310000D02*
X72110000Y-113310000D01*
X72110000Y-113310000D02*
X72110000Y-110210000D01*
X107950000Y-113030000D02*
X95250000Y-113030000D01*
X95250000Y-113030000D02*
X95250000Y-110490000D01*
X95250000Y-110490000D02*
X107950000Y-110490000D01*
X110770000Y-113310000D02*
X109220000Y-113310000D01*
X107950000Y-113030000D02*
X107950000Y-110490000D01*
X109220000Y-110210000D02*
X110770000Y-110210000D01*
X110770000Y-110210000D02*
X110770000Y-113310000D01*
X86360000Y-64770000D02*
X63500000Y-64770000D01*
X63500000Y-64770000D02*
X63500000Y-62230000D01*
X63500000Y-62230000D02*
X86360000Y-62230000D01*
X89180000Y-65050000D02*
X87630000Y-65050000D01*
X86360000Y-64770000D02*
X86360000Y-62230000D01*
X87630000Y-61950000D02*
X89180000Y-61950000D01*
X89180000Y-61950000D02*
X89180000Y-65050000D01*
X107950000Y-64770000D02*
X90170000Y-64770000D01*
X90170000Y-64770000D02*
X90170000Y-62230000D01*
X90170000Y-62230000D02*
X107950000Y-62230000D01*
X110770000Y-65050000D02*
X109220000Y-65050000D01*
X107950000Y-64770000D02*
X107950000Y-62230000D01*
X109220000Y-61950000D02*
X110770000Y-61950000D01*
X110770000Y-61950000D02*
X110770000Y-65050000D01*
X72230000Y-69770000D02*
X72230000Y-77390000D01*
X74770000Y-69770000D02*
X74770000Y-77390000D01*
X75050000Y-66950000D02*
X75050000Y-68500000D01*
X72230000Y-77390000D02*
X74770000Y-77390000D01*
X74770000Y-69770000D02*
X72230000Y-69770000D01*
X71950000Y-68500000D02*
X71950000Y-66950000D01*
X71950000Y-66950000D02*
X75050000Y-66950000D01*
X82500000Y-103200000D02*
X76500000Y-103200000D01*
X76500000Y-103200000D02*
X76500000Y-91500000D01*
X76500000Y-91500000D02*
X77500000Y-91500000D01*
X77500000Y-91500000D02*
X77500000Y-95500000D01*
X82500000Y-103200000D02*
X82500000Y-91500000D01*
X82500000Y-91500000D02*
X81500000Y-91500000D01*
X81500000Y-91500000D02*
X81500000Y-95500000D01*
X89000000Y-103200000D02*
X83000000Y-103200000D01*
X83000000Y-103200000D02*
X83000000Y-91500000D01*
X83000000Y-91500000D02*
X84000000Y-91500000D01*
X84000000Y-91500000D02*
X84000000Y-95500000D01*
X89000000Y-103200000D02*
X89000000Y-91500000D01*
X89000000Y-91500000D02*
X88000000Y-91500000D01*
X88000000Y-91500000D02*
X88000000Y-95500000D01*
X69500000Y-103200000D02*
X63500000Y-103200000D01*
X63500000Y-103200000D02*
X63500000Y-91500000D01*
X63500000Y-91500000D02*
X64500000Y-91500000D01*
X64500000Y-91500000D02*
X64500000Y-95500000D01*
X69500000Y-103200000D02*
X69500000Y-91500000D01*
X69500000Y-91500000D02*
X68500000Y-91500000D01*
X68500000Y-91500000D02*
X68500000Y-95500000D01*
X76000000Y-103200000D02*
X70000000Y-103200000D01*
X70000000Y-103200000D02*
X70000000Y-91500000D01*
X70000000Y-91500000D02*
X71000000Y-91500000D01*
X71000000Y-91500000D02*
X71000000Y-95500000D01*
X76000000Y-103200000D02*
X76000000Y-91500000D01*
X76000000Y-91500000D02*
X75000000Y-91500000D01*
X75000000Y-91500000D02*
X75000000Y-95500000D01*
X95500000Y-103200000D02*
X89500000Y-103200000D01*
X89500000Y-103200000D02*
X89500000Y-91500000D01*
X89500000Y-91500000D02*
X90500000Y-91500000D01*
X90500000Y-91500000D02*
X90500000Y-95500000D01*
X95500000Y-103200000D02*
X95500000Y-91500000D01*
X95500000Y-91500000D02*
X94500000Y-91500000D01*
X94500000Y-91500000D02*
X94500000Y-95500000D01*
X102000000Y-103200000D02*
X96000000Y-103200000D01*
X96000000Y-103200000D02*
X96000000Y-91500000D01*
X96000000Y-91500000D02*
X97000000Y-91500000D01*
X97000000Y-91500000D02*
X97000000Y-95500000D01*
X102000000Y-103200000D02*
X102000000Y-91500000D01*
X102000000Y-91500000D02*
X101000000Y-91500000D01*
X101000000Y-91500000D02*
X101000000Y-95500000D01*
X108500000Y-103200000D02*
X102500000Y-103200000D01*
X102500000Y-103200000D02*
X102500000Y-91500000D01*
X102500000Y-91500000D02*
X103500000Y-91500000D01*
X103500000Y-91500000D02*
X103500000Y-95500000D01*
X108500000Y-103200000D02*
X108500000Y-91500000D01*
X108500000Y-91500000D02*
X107500000Y-91500000D01*
X107500000Y-91500000D02*
X107500000Y-95500000D01*
X110700000Y-70750000D02*
X110700000Y-76750000D01*
X110700000Y-76750000D02*
X99000000Y-76750000D01*
X99000000Y-76750000D02*
X99000000Y-75750000D01*
X99000000Y-75750000D02*
X103000000Y-75750000D01*
X110700000Y-70750000D02*
X99000000Y-70750000D01*
X99000000Y-70750000D02*
X99000000Y-71750000D01*
X99000000Y-71750000D02*
X103000000Y-71750000D01*
X85825000Y-83375000D02*
X85825000Y-83625000D01*
X85825000Y-83625000D02*
X85175000Y-83625000D01*
X85175000Y-83625000D02*
X85175000Y-83375000D01*
X85175000Y-83375000D02*
X85825000Y-83375000D01*
X71075000Y-83375000D02*
X71075000Y-83625000D01*
X71075000Y-83625000D02*
X70425000Y-83625000D01*
X70425000Y-83625000D02*
X70425000Y-83375000D01*
X70425000Y-83375000D02*
X71075000Y-83375000D01*
M02*
