M48
;DRILL file {KiCad 4.0.2-4+6225~38~ubuntu15.10.1-stable} date Mon 28 Mar 2016 01:33:41 BST
;FORMAT={-:-/ absolute / inch / decimal}
FMAT,2
INCH,TZ
T1C0.016
T2C0.031
T3C0.040
T4C0.047
%
G90
G05
M72
T1
X3.1102Y-3.1102
X3.3169Y-3.2579
X3.4252Y-3.3858
X3.4252Y-3.4449
X3.4646Y-3.4744
X3.5433Y-3.1102
X3.75Y-3.2579
X3.937Y-3.5335
T2
X2.815Y-3.2677
X2.815Y-3.3465
X2.815Y-3.5236
X2.815Y-3.6024
X2.815Y-3.7795
X2.815Y-3.8583
X2.815Y-4.0354
X2.815Y-4.1142
X4.0354Y-2.6772
X4.0354Y-2.7559
X4.0354Y-2.9331
X4.0354Y-3.0118
X4.0354Y-3.7795
X4.0354Y-3.8583
X4.0354Y-4.0354
X4.0354Y-4.1142
T3
X2.55Y-2.5
X2.65Y-2.5
X2.75Y-2.5
X2.85Y-2.5
X2.9Y-4.4
X2.9331Y-2.6969
X2.95Y-2.5
X3.Y-4.4
X3.0331Y-2.6969
X3.05Y-2.5
X3.1Y-4.4
X3.1331Y-2.6969
X3.15Y-2.5
X3.2Y-4.4
X3.2331Y-2.6969
X3.25Y-2.5
X3.3Y-4.4
X3.35Y-2.5
X3.4Y-4.4
X3.45Y-2.5
X3.5Y-4.4
X3.6Y-2.5
X3.6Y-4.4
X3.7Y-2.5
X3.8Y-2.5
X3.8Y-4.4
X3.9Y-2.5
X3.9Y-4.4
X4.Y-2.5
X4.Y-4.4
X4.1Y-2.5
X4.1Y-4.4
X4.2Y-2.5
X4.2Y-4.4
X4.3Y-2.5
X4.3Y-4.4
T4
X2.7323Y-3.2087
X2.7323Y-3.4055
X2.7323Y-3.4646
X2.7323Y-3.6614
X2.7323Y-3.7205
X2.7323Y-3.9173
X2.7323Y-3.9764
X2.7323Y-4.1732
X4.1181Y-2.6181
X4.1181Y-2.815
X4.1181Y-2.874
X4.1181Y-3.0709
X4.1181Y-3.7205
X4.1181Y-3.9173
X4.1181Y-3.9764
X4.1181Y-4.1732
T0
M30
