G04 #@! TF.FileFunction,Soldermask,Top*
%FSLAX46Y46*%
G04 Gerber Fmt 4.6, Leading zero omitted, Abs format (unit mm)*
G04 Created by KiCad (PCBNEW 4.0.2-4+6225~38~ubuntu15.10.1-stable) date Mon 28 Mar 2016 01:33:35 BST*
%MOMM*%
G01*
G04 APERTURE LIST*
%ADD10C,0.100000*%
%ADD11R,1.000000X1.950000*%
%ADD12R,2.127200X2.432000*%
%ADD13O,2.127200X2.432000*%
%ADD14C,1.600000*%
%ADD15C,2.000000*%
%ADD16R,1.400000X1.350000*%
G04 APERTURE END LIST*
D10*
D11*
X79055000Y-89700000D03*
X80325000Y-89700000D03*
X81595000Y-89700000D03*
X82865000Y-89700000D03*
X84135000Y-89700000D03*
X85405000Y-89700000D03*
X86675000Y-89700000D03*
X87945000Y-89700000D03*
X87945000Y-84300000D03*
X86675000Y-84300000D03*
X85405000Y-84300000D03*
X84135000Y-84300000D03*
X82865000Y-84300000D03*
X81595000Y-84300000D03*
X80325000Y-84300000D03*
X79055000Y-84300000D03*
X90055000Y-89700000D03*
X91325000Y-89700000D03*
X92595000Y-89700000D03*
X93865000Y-89700000D03*
X95135000Y-89700000D03*
X96405000Y-89700000D03*
X97675000Y-89700000D03*
X98945000Y-89700000D03*
X98945000Y-84300000D03*
X97675000Y-84300000D03*
X96405000Y-84300000D03*
X95135000Y-84300000D03*
X93865000Y-84300000D03*
X92595000Y-84300000D03*
X91325000Y-84300000D03*
X90055000Y-84300000D03*
D12*
X73660000Y-111760000D03*
D13*
X76200000Y-111760000D03*
X78740000Y-111760000D03*
X81280000Y-111760000D03*
X83820000Y-111760000D03*
X86360000Y-111760000D03*
X88900000Y-111760000D03*
X91440000Y-111760000D03*
D12*
X109220000Y-111760000D03*
D13*
X106680000Y-111760000D03*
X104140000Y-111760000D03*
X101600000Y-111760000D03*
X99060000Y-111760000D03*
X96520000Y-111760000D03*
D12*
X87630000Y-63500000D03*
D13*
X85090000Y-63500000D03*
X82550000Y-63500000D03*
X80010000Y-63500000D03*
X77470000Y-63500000D03*
X74930000Y-63500000D03*
X72390000Y-63500000D03*
X69850000Y-63500000D03*
X67310000Y-63500000D03*
X64770000Y-63500000D03*
D12*
X109220000Y-63500000D03*
D13*
X106680000Y-63500000D03*
X104140000Y-63500000D03*
X101600000Y-63500000D03*
X99060000Y-63500000D03*
X96520000Y-63500000D03*
X93980000Y-63500000D03*
X91440000Y-63500000D03*
D12*
X74500000Y-68500000D03*
D13*
X77040000Y-68500000D03*
X79580000Y-68500000D03*
X82120000Y-68500000D03*
D14*
X69400000Y-94500000D03*
X69400000Y-99500000D03*
D15*
X71500000Y-96000000D03*
X71500000Y-98000000D03*
D14*
X69400000Y-101000000D03*
X69400000Y-106000000D03*
D15*
X71500000Y-102500000D03*
X71500000Y-104500000D03*
D14*
X69400000Y-81500000D03*
X69400000Y-86500000D03*
D15*
X71500000Y-83000000D03*
X71500000Y-85000000D03*
D14*
X69400000Y-88000000D03*
X69400000Y-93000000D03*
D15*
X71500000Y-89500000D03*
X71500000Y-91500000D03*
D14*
X104600000Y-106000000D03*
X104600000Y-101000000D03*
D15*
X102500000Y-104500000D03*
X102500000Y-102500000D03*
D14*
X104600000Y-99500000D03*
X104600000Y-94500000D03*
D15*
X102500000Y-98000000D03*
X102500000Y-96000000D03*
D14*
X104600000Y-78000000D03*
X104600000Y-73000000D03*
D15*
X102500000Y-76500000D03*
X102500000Y-74500000D03*
D14*
X104600000Y-71500000D03*
X104600000Y-66500000D03*
D15*
X102500000Y-70000000D03*
X102500000Y-68000000D03*
D16*
X90000000Y-81800000D03*
X90000000Y-80200000D03*
X79000000Y-81800000D03*
X79000000Y-80200000D03*
M02*
