G04 #@! TF.FileFunction,Copper,L2,Bot,Signal*
%FSLAX46Y46*%
G04 Gerber Fmt 4.6, Leading zero omitted, Abs format (unit mm)*
G04 Created by KiCad (PCBNEW 4.0.2-4+6225~38~ubuntu15.10.1-stable) date Tue 29 Mar 2016 00:01:40 BST*
%MOMM*%
G01*
G04 APERTURE LIST*
%ADD10C,0.100000*%
%ADD11R,1.727200X1.727200*%
%ADD12C,1.727200*%
%ADD13R,2.032000X1.727200*%
%ADD14O,2.032000X1.727200*%
%ADD15C,1.600000*%
%ADD16C,0.600000*%
%ADD17C,0.250000*%
%ADD18C,0.500000*%
G04 APERTURE END LIST*
D10*
D11*
X73660000Y-111760000D03*
D12*
X76200000Y-111760000D03*
X78740000Y-111760000D03*
X81280000Y-111760000D03*
X83820000Y-111760000D03*
X86360000Y-111760000D03*
X88900000Y-111760000D03*
X91440000Y-111760000D03*
D11*
X109220000Y-111760000D03*
D12*
X106680000Y-111760000D03*
X104140000Y-111760000D03*
X101600000Y-111760000D03*
X99060000Y-111760000D03*
X96520000Y-111760000D03*
D11*
X87630000Y-63500000D03*
D12*
X85090000Y-63500000D03*
X82550000Y-63500000D03*
X80010000Y-63500000D03*
X77470000Y-63500000D03*
X74930000Y-63500000D03*
X72390000Y-63500000D03*
X69850000Y-63500000D03*
X67310000Y-63500000D03*
X64770000Y-63500000D03*
D11*
X109220000Y-63500000D03*
D12*
X106680000Y-63500000D03*
X104140000Y-63500000D03*
X101600000Y-63500000D03*
X99060000Y-63500000D03*
X96520000Y-63500000D03*
X93980000Y-63500000D03*
X91440000Y-63500000D03*
D13*
X73500000Y-68500000D03*
D14*
X73500000Y-71040000D03*
X73500000Y-73580000D03*
X73500000Y-76120000D03*
D15*
X78500000Y-95000000D03*
X80500000Y-95000000D03*
X85000000Y-95000000D03*
X87000000Y-95000000D03*
X65500000Y-95000000D03*
X67500000Y-95000000D03*
X72000000Y-95000000D03*
X74000000Y-95000000D03*
X91500000Y-95000000D03*
X93500000Y-95000000D03*
X98000000Y-95000000D03*
X100000000Y-95000000D03*
X104500000Y-95000000D03*
X106500000Y-95000000D03*
X102500000Y-74750000D03*
X102500000Y-72750000D03*
D16*
X70000000Y-105000000D03*
X75000000Y-105000000D03*
X80000000Y-105000000D03*
X105000000Y-105000000D03*
X100000000Y-105000000D03*
X95000000Y-105000000D03*
X90000000Y-105000000D03*
X85000000Y-105000000D03*
X73500000Y-90500000D03*
X82500000Y-95500000D03*
X80000000Y-93000000D03*
X77500000Y-90500000D03*
X93500000Y-86500000D03*
X96000000Y-85000000D03*
X89000000Y-86500000D03*
X73500000Y-86500000D03*
X77500000Y-84250000D03*
X75500000Y-84500000D03*
X78000000Y-86500000D03*
X76000000Y-93000000D03*
X69000000Y-93000000D03*
X70500000Y-90500000D03*
X69500000Y-87500000D03*
X73000000Y-93000000D03*
X64500000Y-93000000D03*
X95000000Y-95000000D03*
X90000000Y-95000000D03*
X65000000Y-100000000D03*
X70000000Y-100000000D03*
X75000000Y-100000000D03*
X80000000Y-100000000D03*
X105000000Y-100000000D03*
X100000000Y-100000000D03*
X95000000Y-100000000D03*
X90000000Y-100000000D03*
X85000000Y-100000000D03*
X85000000Y-110000000D03*
X80000000Y-110000000D03*
X75000000Y-110000000D03*
X70000000Y-110000000D03*
X65000000Y-110000000D03*
X65000000Y-105000000D03*
X90000000Y-110000000D03*
X95000000Y-110000000D03*
X100000000Y-110000000D03*
X105000000Y-110000000D03*
X82500000Y-90000000D03*
X70000000Y-70000000D03*
X65000000Y-70000000D03*
X65000000Y-75000000D03*
X70000000Y-75000000D03*
X65000000Y-90000000D03*
X65000000Y-85000000D03*
X65000000Y-80000000D03*
X92500000Y-84250000D03*
X90000000Y-84500000D03*
X95000000Y-80000000D03*
X100000000Y-80000000D03*
X105000000Y-75000000D03*
X110000000Y-75000000D03*
X110000000Y-70000000D03*
X105000000Y-70000000D03*
X85000000Y-70000000D03*
X90000000Y-70000000D03*
X95000000Y-70000000D03*
X85000000Y-80000000D03*
X80000000Y-80000000D03*
X80000000Y-75000000D03*
X85000000Y-75000000D03*
X90000000Y-75000000D03*
X96250000Y-86750000D03*
X85500000Y-85500000D03*
X81250000Y-86750000D03*
X70750000Y-85500000D03*
X91000000Y-90000000D03*
X93000000Y-92000000D03*
X87500000Y-90000000D03*
X82500000Y-85000000D03*
X100000000Y-85000000D03*
X100000000Y-90000000D03*
X100000000Y-95000000D03*
X105000000Y-95000000D03*
D17*
X80000000Y-105000000D02*
X85000000Y-105000000D01*
X70000000Y-105000000D02*
X75000000Y-105000000D01*
X100000000Y-105000000D02*
X105000000Y-105000000D01*
X90000000Y-105000000D02*
X95000000Y-105000000D01*
D18*
X73500000Y-90500000D02*
X77500000Y-90500000D01*
X70500000Y-90500000D02*
X73500000Y-90500000D01*
X83000000Y-95000000D02*
X82500000Y-95500000D01*
X83000000Y-94500000D02*
X83000000Y-95000000D01*
X81500000Y-93000000D02*
X83000000Y-94500000D01*
X80000000Y-93000000D02*
X81500000Y-93000000D01*
X94500000Y-86500000D02*
X93500000Y-86500000D01*
D17*
X96000000Y-85000000D02*
X100000000Y-85000000D01*
D18*
X96000000Y-85000000D02*
X94500000Y-86500000D01*
X73500000Y-86500000D02*
X75500000Y-84500000D01*
X73000000Y-93000000D02*
X76000000Y-93000000D01*
X64500000Y-93000000D02*
X69000000Y-93000000D01*
X70500000Y-88500000D02*
X70500000Y-90500000D01*
X67500000Y-87500000D02*
X65000000Y-90000000D01*
X67500000Y-87500000D02*
X69500000Y-87500000D01*
X69500000Y-87500000D02*
X70500000Y-88500000D01*
X69000000Y-93000000D02*
X73000000Y-93000000D01*
X95000000Y-90000000D02*
X95000000Y-95000000D01*
X85000000Y-90000000D02*
X90000000Y-95000000D01*
X80000000Y-100000000D02*
X85000000Y-100000000D01*
D17*
X65000000Y-100000000D02*
X70000000Y-100000000D01*
X75000000Y-100000000D02*
X80000000Y-100000000D01*
D18*
X100000000Y-100000000D02*
X105000000Y-100000000D01*
X90000000Y-100000000D02*
X95000000Y-100000000D01*
D17*
X85000000Y-110000000D02*
X80000000Y-110000000D01*
X75000000Y-110000000D02*
X70000000Y-110000000D01*
X65000000Y-110000000D02*
X65000000Y-105000000D01*
X90000000Y-110000000D02*
X95000000Y-110000000D01*
X100000000Y-110000000D02*
X105000000Y-110000000D01*
X82500000Y-90000000D02*
X77000000Y-90000000D01*
X70000000Y-70000000D02*
X65000000Y-70000000D01*
X65000000Y-75000000D02*
X70000000Y-75000000D01*
X77000000Y-90000000D02*
X72500000Y-90000000D01*
X72500000Y-90000000D02*
X65000000Y-90000000D01*
X65000000Y-80000000D02*
X65000000Y-85000000D01*
X92500000Y-84250000D02*
X90250000Y-84250000D01*
X90250000Y-84250000D02*
X90000000Y-84500000D01*
X90000000Y-75000000D02*
X95000000Y-80000000D01*
X95000000Y-70000000D02*
X105000000Y-70000000D01*
X110000000Y-70000000D02*
X110000000Y-75000000D01*
X83500000Y-68500000D02*
X85000000Y-70000000D01*
X90000000Y-70000000D02*
X95000000Y-70000000D01*
X73500000Y-68500000D02*
X83500000Y-68500000D01*
X80000000Y-75000000D02*
X80000000Y-80000000D01*
X90000000Y-75000000D02*
X85000000Y-75000000D01*
X100000000Y-80000000D02*
X100000000Y-85000000D01*
X95000000Y-90000000D02*
X91000000Y-90000000D01*
X95000000Y-90000000D02*
X93000000Y-92000000D01*
X82500000Y-85000000D02*
X82500000Y-90000000D01*
X87500000Y-90000000D02*
X95000000Y-90000000D01*
X95000000Y-90000000D02*
X100000000Y-90000000D01*
X82500000Y-90000000D02*
X85000000Y-90000000D01*
X85000000Y-90000000D02*
X87500000Y-90000000D01*
G36*
X63531615Y-63252546D02*
X63531185Y-63745292D01*
X63719353Y-64200694D01*
X64067473Y-64549422D01*
X64522546Y-64738385D01*
X65015292Y-64738815D01*
X65470694Y-64550647D01*
X65819422Y-64202527D01*
X66008385Y-63747454D01*
X66008815Y-63254708D01*
X65924232Y-63050000D01*
X66155720Y-63050000D01*
X66071615Y-63252546D01*
X66071185Y-63745292D01*
X66259353Y-64200694D01*
X66607473Y-64549422D01*
X67062546Y-64738385D01*
X67555292Y-64738815D01*
X68010694Y-64550647D01*
X68359422Y-64202527D01*
X68548385Y-63747454D01*
X68548815Y-63254708D01*
X68464232Y-63050000D01*
X68695720Y-63050000D01*
X68611615Y-63252546D01*
X68611185Y-63745292D01*
X68799353Y-64200694D01*
X69147473Y-64549422D01*
X69602546Y-64738385D01*
X70095292Y-64738815D01*
X70550694Y-64550647D01*
X70766056Y-64335660D01*
X71561412Y-64335660D01*
X71645764Y-64532860D01*
X72097674Y-64739044D01*
X72594088Y-64756595D01*
X73059431Y-64582841D01*
X73134236Y-64532860D01*
X73218588Y-64335660D01*
X72390000Y-63507071D01*
X71561412Y-64335660D01*
X70766056Y-64335660D01*
X70899422Y-64202527D01*
X71088385Y-63747454D01*
X71088815Y-63254708D01*
X71004232Y-63050000D01*
X71222895Y-63050000D01*
X71150956Y-63207674D01*
X71133405Y-63704088D01*
X71307159Y-64169431D01*
X71357140Y-64244236D01*
X71554340Y-64328588D01*
X72382929Y-63500000D01*
X72368786Y-63485858D01*
X72375858Y-63478786D01*
X72390000Y-63492929D01*
X72404142Y-63478786D01*
X72411214Y-63485858D01*
X72397071Y-63500000D01*
X73225660Y-64328588D01*
X73422860Y-64244236D01*
X73629044Y-63792326D01*
X73646595Y-63295912D01*
X73554774Y-63050000D01*
X73775720Y-63050000D01*
X73691615Y-63252546D01*
X73691185Y-63745292D01*
X73879353Y-64200694D01*
X74227473Y-64549422D01*
X74682546Y-64738385D01*
X75175292Y-64738815D01*
X75630694Y-64550647D01*
X75979422Y-64202527D01*
X76168385Y-63747454D01*
X76168815Y-63254708D01*
X76084232Y-63050000D01*
X76315720Y-63050000D01*
X76231615Y-63252546D01*
X76231185Y-63745292D01*
X76419353Y-64200694D01*
X76767473Y-64549422D01*
X77222546Y-64738385D01*
X77715292Y-64738815D01*
X78170694Y-64550647D01*
X78519422Y-64202527D01*
X78708385Y-63747454D01*
X78708815Y-63254708D01*
X78624232Y-63050000D01*
X78855720Y-63050000D01*
X78771615Y-63252546D01*
X78771185Y-63745292D01*
X78959353Y-64200694D01*
X79307473Y-64549422D01*
X79762546Y-64738385D01*
X80255292Y-64738815D01*
X80710694Y-64550647D01*
X81059422Y-64202527D01*
X81248385Y-63747454D01*
X81248815Y-63254708D01*
X81164232Y-63050000D01*
X81395720Y-63050000D01*
X81311615Y-63252546D01*
X81311185Y-63745292D01*
X81499353Y-64200694D01*
X81847473Y-64549422D01*
X82302546Y-64738385D01*
X82795292Y-64738815D01*
X83250694Y-64550647D01*
X83599422Y-64202527D01*
X83788385Y-63747454D01*
X83788815Y-63254708D01*
X83704232Y-63050000D01*
X83935720Y-63050000D01*
X83851615Y-63252546D01*
X83851185Y-63745292D01*
X84039353Y-64200694D01*
X84387473Y-64549422D01*
X84842546Y-64738385D01*
X85335292Y-64738815D01*
X85790694Y-64550647D01*
X86139422Y-64202527D01*
X86328385Y-63747454D01*
X86328815Y-63254708D01*
X86244232Y-63050000D01*
X86384054Y-63050000D01*
X86384054Y-64363600D01*
X86410202Y-64502566D01*
X86492331Y-64630199D01*
X86617646Y-64715823D01*
X86766400Y-64745946D01*
X88493600Y-64745946D01*
X88632566Y-64719798D01*
X88760199Y-64637669D01*
X88845823Y-64512354D01*
X88875946Y-64363600D01*
X88875946Y-63050000D01*
X90285720Y-63050000D01*
X90201615Y-63252546D01*
X90201185Y-63745292D01*
X90389353Y-64200694D01*
X90737473Y-64549422D01*
X91192546Y-64738385D01*
X91685292Y-64738815D01*
X92140694Y-64550647D01*
X92489422Y-64202527D01*
X92678385Y-63747454D01*
X92678815Y-63254708D01*
X92594232Y-63050000D01*
X92825720Y-63050000D01*
X92741615Y-63252546D01*
X92741185Y-63745292D01*
X92929353Y-64200694D01*
X93277473Y-64549422D01*
X93732546Y-64738385D01*
X94225292Y-64738815D01*
X94680694Y-64550647D01*
X95029422Y-64202527D01*
X95218385Y-63747454D01*
X95218815Y-63254708D01*
X95134232Y-63050000D01*
X95365720Y-63050000D01*
X95281615Y-63252546D01*
X95281185Y-63745292D01*
X95469353Y-64200694D01*
X95817473Y-64549422D01*
X96272546Y-64738385D01*
X96765292Y-64738815D01*
X97220694Y-64550647D01*
X97569422Y-64202527D01*
X97758385Y-63747454D01*
X97758815Y-63254708D01*
X97674232Y-63050000D01*
X97905720Y-63050000D01*
X97821615Y-63252546D01*
X97821185Y-63745292D01*
X98009353Y-64200694D01*
X98357473Y-64549422D01*
X98812546Y-64738385D01*
X99305292Y-64738815D01*
X99760694Y-64550647D01*
X100109422Y-64202527D01*
X100298385Y-63747454D01*
X100298815Y-63254708D01*
X100214232Y-63050000D01*
X100445720Y-63050000D01*
X100361615Y-63252546D01*
X100361185Y-63745292D01*
X100549353Y-64200694D01*
X100897473Y-64549422D01*
X101352546Y-64738385D01*
X101845292Y-64738815D01*
X102300694Y-64550647D01*
X102649422Y-64202527D01*
X102838385Y-63747454D01*
X102838815Y-63254708D01*
X102754232Y-63050000D01*
X102985720Y-63050000D01*
X102901615Y-63252546D01*
X102901185Y-63745292D01*
X103089353Y-64200694D01*
X103437473Y-64549422D01*
X103892546Y-64738385D01*
X104385292Y-64738815D01*
X104840694Y-64550647D01*
X105189422Y-64202527D01*
X105378385Y-63747454D01*
X105378815Y-63254708D01*
X105294232Y-63050000D01*
X105525720Y-63050000D01*
X105441615Y-63252546D01*
X105441185Y-63745292D01*
X105629353Y-64200694D01*
X105977473Y-64549422D01*
X106432546Y-64738385D01*
X106925292Y-64738815D01*
X107380694Y-64550647D01*
X107729422Y-64202527D01*
X107918385Y-63747454D01*
X107918815Y-63254708D01*
X107834232Y-63050000D01*
X107974054Y-63050000D01*
X107974054Y-64363600D01*
X108000202Y-64502566D01*
X108082331Y-64630199D01*
X108207646Y-64715823D01*
X108356400Y-64745946D01*
X110083600Y-64745946D01*
X110222566Y-64719798D01*
X110350199Y-64637669D01*
X110435823Y-64512354D01*
X110465946Y-64363600D01*
X110465946Y-63050000D01*
X110650000Y-63050000D01*
X110650000Y-79250000D01*
X103505000Y-79250000D01*
X103456368Y-79259848D01*
X103415399Y-79287841D01*
X103388549Y-79329568D01*
X103380000Y-79375000D01*
X103380000Y-89535000D01*
X103389848Y-89583632D01*
X103417841Y-89624601D01*
X103459568Y-89651451D01*
X103505000Y-89660000D01*
X110650000Y-89660000D01*
X110650000Y-112150000D01*
X110465946Y-112150000D01*
X110465946Y-110896400D01*
X110439798Y-110757434D01*
X110357669Y-110629801D01*
X110232354Y-110544177D01*
X110083600Y-110514054D01*
X108356400Y-110514054D01*
X108217434Y-110540202D01*
X108089801Y-110622331D01*
X108004177Y-110747646D01*
X107974054Y-110896400D01*
X107974054Y-112150000D01*
X107859195Y-112150000D01*
X107918385Y-112007454D01*
X107918815Y-111514708D01*
X107730647Y-111059306D01*
X107382527Y-110710578D01*
X106927454Y-110521615D01*
X106434708Y-110521185D01*
X105979306Y-110709353D01*
X105630578Y-111057473D01*
X105441615Y-111512546D01*
X105441185Y-112005292D01*
X105500977Y-112150000D01*
X105319195Y-112150000D01*
X105378385Y-112007454D01*
X105378815Y-111514708D01*
X105190647Y-111059306D01*
X104842527Y-110710578D01*
X104387454Y-110521615D01*
X103894708Y-110521185D01*
X103439306Y-110709353D01*
X103090578Y-111057473D01*
X102901615Y-111512546D01*
X102901185Y-112005292D01*
X102960977Y-112150000D01*
X102779195Y-112150000D01*
X102838385Y-112007454D01*
X102838815Y-111514708D01*
X102650647Y-111059306D01*
X102302527Y-110710578D01*
X101847454Y-110521615D01*
X101354708Y-110521185D01*
X100899306Y-110709353D01*
X100550578Y-111057473D01*
X100361615Y-111512546D01*
X100361185Y-112005292D01*
X100420977Y-112150000D01*
X100239195Y-112150000D01*
X100298385Y-112007454D01*
X100298815Y-111514708D01*
X100110647Y-111059306D01*
X99762527Y-110710578D01*
X99307454Y-110521615D01*
X98814708Y-110521185D01*
X98359306Y-110709353D01*
X98010578Y-111057473D01*
X97821615Y-111512546D01*
X97821185Y-112005292D01*
X97880977Y-112150000D01*
X97699195Y-112150000D01*
X97758385Y-112007454D01*
X97758815Y-111514708D01*
X97570647Y-111059306D01*
X97222527Y-110710578D01*
X96767454Y-110521615D01*
X96274708Y-110521185D01*
X95819306Y-110709353D01*
X95470578Y-111057473D01*
X95281615Y-111512546D01*
X95281185Y-112005292D01*
X95340977Y-112150000D01*
X92619195Y-112150000D01*
X92678385Y-112007454D01*
X92678815Y-111514708D01*
X92490647Y-111059306D01*
X92142527Y-110710578D01*
X91687454Y-110521615D01*
X91194708Y-110521185D01*
X90739306Y-110709353D01*
X90390578Y-111057473D01*
X90201615Y-111512546D01*
X90201185Y-112005292D01*
X90260977Y-112150000D01*
X90094480Y-112150000D01*
X90139044Y-112052326D01*
X90156595Y-111555912D01*
X89982841Y-111090569D01*
X89932860Y-111015764D01*
X89735660Y-110931412D01*
X88907071Y-111760000D01*
X88921214Y-111774143D01*
X88914143Y-111781214D01*
X88900000Y-111767071D01*
X88885858Y-111781214D01*
X88878787Y-111774143D01*
X88892929Y-111760000D01*
X88064340Y-110931412D01*
X87867140Y-111015764D01*
X87660956Y-111467674D01*
X87643405Y-111964088D01*
X87712823Y-112150000D01*
X87554480Y-112150000D01*
X87599044Y-112052326D01*
X87616595Y-111555912D01*
X87442841Y-111090569D01*
X87392860Y-111015764D01*
X87195660Y-110931412D01*
X86367071Y-111760000D01*
X86381214Y-111774143D01*
X86374143Y-111781214D01*
X86360000Y-111767071D01*
X86345858Y-111781214D01*
X86338787Y-111774143D01*
X86352929Y-111760000D01*
X85524340Y-110931412D01*
X85327140Y-111015764D01*
X85120956Y-111467674D01*
X85103405Y-111964088D01*
X85172823Y-112150000D01*
X84999195Y-112150000D01*
X85058385Y-112007454D01*
X85058815Y-111514708D01*
X84870647Y-111059306D01*
X84735917Y-110924340D01*
X85531412Y-110924340D01*
X86360000Y-111752929D01*
X87188588Y-110924340D01*
X88071412Y-110924340D01*
X88900000Y-111752929D01*
X89728588Y-110924340D01*
X89644236Y-110727140D01*
X89192326Y-110520956D01*
X88695912Y-110503405D01*
X88230569Y-110677159D01*
X88155764Y-110727140D01*
X88071412Y-110924340D01*
X87188588Y-110924340D01*
X87104236Y-110727140D01*
X86652326Y-110520956D01*
X86155912Y-110503405D01*
X85690569Y-110677159D01*
X85615764Y-110727140D01*
X85531412Y-110924340D01*
X84735917Y-110924340D01*
X84522527Y-110710578D01*
X84067454Y-110521615D01*
X83574708Y-110521185D01*
X83119306Y-110709353D01*
X82770578Y-111057473D01*
X82581615Y-111512546D01*
X82581185Y-112005292D01*
X82640977Y-112150000D01*
X82459195Y-112150000D01*
X82518385Y-112007454D01*
X82518815Y-111514708D01*
X82330647Y-111059306D01*
X81982527Y-110710578D01*
X81527454Y-110521615D01*
X81034708Y-110521185D01*
X80579306Y-110709353D01*
X80230578Y-111057473D01*
X80041615Y-111512546D01*
X80041185Y-112005292D01*
X80100977Y-112150000D01*
X79919195Y-112150000D01*
X79978385Y-112007454D01*
X79978815Y-111514708D01*
X79790647Y-111059306D01*
X79442527Y-110710578D01*
X78987454Y-110521615D01*
X78494708Y-110521185D01*
X78039306Y-110709353D01*
X77690578Y-111057473D01*
X77501615Y-111512546D01*
X77501185Y-112005292D01*
X77560977Y-112150000D01*
X77379195Y-112150000D01*
X77438385Y-112007454D01*
X77438815Y-111514708D01*
X77250647Y-111059306D01*
X76902527Y-110710578D01*
X76447454Y-110521615D01*
X75954708Y-110521185D01*
X75499306Y-110709353D01*
X75150578Y-111057473D01*
X74961615Y-111512546D01*
X74961185Y-112005292D01*
X75020977Y-112150000D01*
X74905946Y-112150000D01*
X74905946Y-110896400D01*
X74879798Y-110757434D01*
X74797669Y-110629801D01*
X74672354Y-110544177D01*
X74523600Y-110514054D01*
X72796400Y-110514054D01*
X72657434Y-110540202D01*
X72529801Y-110622331D01*
X72444177Y-110747646D01*
X72414054Y-110896400D01*
X72414054Y-112150000D01*
X63150000Y-112150000D01*
X63150000Y-97596019D01*
X63172954Y-97651571D01*
X63446986Y-97926082D01*
X63805210Y-98074830D01*
X64193089Y-98075169D01*
X64551571Y-97927046D01*
X64826082Y-97653014D01*
X64974830Y-97294790D01*
X64974831Y-97293089D01*
X68024831Y-97293089D01*
X68172954Y-97651571D01*
X68446986Y-97926082D01*
X68805210Y-98074830D01*
X69193089Y-98075169D01*
X69551571Y-97927046D01*
X69750106Y-97728858D01*
X69946986Y-97926082D01*
X70305210Y-98074830D01*
X70693089Y-98075169D01*
X71051571Y-97927046D01*
X71326082Y-97653014D01*
X71474830Y-97294790D01*
X71474831Y-97293089D01*
X74524831Y-97293089D01*
X74672954Y-97651571D01*
X74946986Y-97926082D01*
X75305210Y-98074830D01*
X75693089Y-98075169D01*
X76051571Y-97927046D01*
X76250106Y-97728858D01*
X76446986Y-97926082D01*
X76805210Y-98074830D01*
X77193089Y-98075169D01*
X77551571Y-97927046D01*
X77826082Y-97653014D01*
X77974830Y-97294790D01*
X77974831Y-97293089D01*
X81024831Y-97293089D01*
X81172954Y-97651571D01*
X81446986Y-97926082D01*
X81805210Y-98074830D01*
X82193089Y-98075169D01*
X82551571Y-97927046D01*
X82750106Y-97728858D01*
X82946986Y-97926082D01*
X83305210Y-98074830D01*
X83693089Y-98075169D01*
X84051571Y-97927046D01*
X84326082Y-97653014D01*
X84474830Y-97294790D01*
X84474831Y-97293089D01*
X87524831Y-97293089D01*
X87672954Y-97651571D01*
X87946986Y-97926082D01*
X88305210Y-98074830D01*
X88693089Y-98075169D01*
X89051571Y-97927046D01*
X89250106Y-97728858D01*
X89446986Y-97926082D01*
X89805210Y-98074830D01*
X90193089Y-98075169D01*
X90551571Y-97927046D01*
X90826082Y-97653014D01*
X90974830Y-97294790D01*
X90974831Y-97293089D01*
X94024831Y-97293089D01*
X94172954Y-97651571D01*
X94446986Y-97926082D01*
X94805210Y-98074830D01*
X95193089Y-98075169D01*
X95551571Y-97927046D01*
X95750106Y-97728858D01*
X95946986Y-97926082D01*
X96305210Y-98074830D01*
X96693089Y-98075169D01*
X97051571Y-97927046D01*
X97326082Y-97653014D01*
X97474830Y-97294790D01*
X97474831Y-97293089D01*
X100524831Y-97293089D01*
X100672954Y-97651571D01*
X100946986Y-97926082D01*
X101305210Y-98074830D01*
X101693089Y-98075169D01*
X102051571Y-97927046D01*
X102250106Y-97728858D01*
X102446986Y-97926082D01*
X102805210Y-98074830D01*
X103193089Y-98075169D01*
X103551571Y-97927046D01*
X103826082Y-97653014D01*
X103974830Y-97294790D01*
X103974831Y-97293089D01*
X107024831Y-97293089D01*
X107172954Y-97651571D01*
X107446986Y-97926082D01*
X107805210Y-98074830D01*
X108193089Y-98075169D01*
X108551571Y-97927046D01*
X108826082Y-97653014D01*
X108974830Y-97294790D01*
X108975169Y-96906911D01*
X108827046Y-96548429D01*
X108553014Y-96273918D01*
X108194790Y-96125170D01*
X107806911Y-96124831D01*
X107448429Y-96272954D01*
X107173918Y-96546986D01*
X107025170Y-96905210D01*
X107024831Y-97293089D01*
X103974831Y-97293089D01*
X103975169Y-96906911D01*
X103827046Y-96548429D01*
X103553014Y-96273918D01*
X103194790Y-96125170D01*
X102806911Y-96124831D01*
X102448429Y-96272954D01*
X102249894Y-96471142D01*
X102053014Y-96273918D01*
X101694790Y-96125170D01*
X101306911Y-96124831D01*
X100948429Y-96272954D01*
X100673918Y-96546986D01*
X100525170Y-96905210D01*
X100524831Y-97293089D01*
X97474831Y-97293089D01*
X97475169Y-96906911D01*
X97327046Y-96548429D01*
X97053014Y-96273918D01*
X96694790Y-96125170D01*
X96306911Y-96124831D01*
X95948429Y-96272954D01*
X95749894Y-96471142D01*
X95553014Y-96273918D01*
X95194790Y-96125170D01*
X94806911Y-96124831D01*
X94448429Y-96272954D01*
X94173918Y-96546986D01*
X94025170Y-96905210D01*
X94024831Y-97293089D01*
X90974831Y-97293089D01*
X90975169Y-96906911D01*
X90827046Y-96548429D01*
X90553014Y-96273918D01*
X90194790Y-96125170D01*
X89806911Y-96124831D01*
X89448429Y-96272954D01*
X89249894Y-96471142D01*
X89053014Y-96273918D01*
X88694790Y-96125170D01*
X88306911Y-96124831D01*
X87948429Y-96272954D01*
X87673918Y-96546986D01*
X87525170Y-96905210D01*
X87524831Y-97293089D01*
X84474831Y-97293089D01*
X84475169Y-96906911D01*
X84327046Y-96548429D01*
X84053014Y-96273918D01*
X83694790Y-96125170D01*
X83306911Y-96124831D01*
X82948429Y-96272954D01*
X82749894Y-96471142D01*
X82553014Y-96273918D01*
X82194790Y-96125170D01*
X81806911Y-96124831D01*
X81448429Y-96272954D01*
X81173918Y-96546986D01*
X81025170Y-96905210D01*
X81024831Y-97293089D01*
X77974831Y-97293089D01*
X77975169Y-96906911D01*
X77827046Y-96548429D01*
X77553014Y-96273918D01*
X77194790Y-96125170D01*
X76806911Y-96124831D01*
X76448429Y-96272954D01*
X76249894Y-96471142D01*
X76053014Y-96273918D01*
X75694790Y-96125170D01*
X75306911Y-96124831D01*
X74948429Y-96272954D01*
X74673918Y-96546986D01*
X74525170Y-96905210D01*
X74524831Y-97293089D01*
X71474831Y-97293089D01*
X71475169Y-96906911D01*
X71327046Y-96548429D01*
X71053014Y-96273918D01*
X70694790Y-96125170D01*
X70306911Y-96124831D01*
X69948429Y-96272954D01*
X69749894Y-96471142D01*
X69553014Y-96273918D01*
X69194790Y-96125170D01*
X68806911Y-96124831D01*
X68448429Y-96272954D01*
X68173918Y-96546986D01*
X68025170Y-96905210D01*
X68024831Y-97293089D01*
X64974831Y-97293089D01*
X64975169Y-96906911D01*
X64827046Y-96548429D01*
X64553014Y-96273918D01*
X64194790Y-96125170D01*
X63806911Y-96124831D01*
X63448429Y-96272954D01*
X63173918Y-96546986D01*
X63150000Y-96604587D01*
X63150000Y-95232697D01*
X64324796Y-95232697D01*
X64503302Y-95664715D01*
X64833547Y-95995536D01*
X65265253Y-96174796D01*
X65732697Y-96175204D01*
X66164715Y-95996698D01*
X66495536Y-95666453D01*
X66499789Y-95656212D01*
X66503302Y-95664715D01*
X66833547Y-95995536D01*
X67265253Y-96174796D01*
X67732697Y-96175204D01*
X68164715Y-95996698D01*
X68495536Y-95666453D01*
X68674796Y-95234747D01*
X68674797Y-95232697D01*
X70824796Y-95232697D01*
X71003302Y-95664715D01*
X71333547Y-95995536D01*
X71765253Y-96174796D01*
X72232697Y-96175204D01*
X72664715Y-95996698D01*
X72995536Y-95666453D01*
X72999789Y-95656212D01*
X73003302Y-95664715D01*
X73333547Y-95995536D01*
X73765253Y-96174796D01*
X74232697Y-96175204D01*
X74664715Y-95996698D01*
X74995536Y-95666453D01*
X75174796Y-95234747D01*
X75174797Y-95232697D01*
X77324796Y-95232697D01*
X77503302Y-95664715D01*
X77833547Y-95995536D01*
X78265253Y-96174796D01*
X78732697Y-96175204D01*
X79164715Y-95996698D01*
X79495536Y-95666453D01*
X79499789Y-95656212D01*
X79503302Y-95664715D01*
X79833547Y-95995536D01*
X80265253Y-96174796D01*
X80732697Y-96175204D01*
X81164715Y-95996698D01*
X81495536Y-95666453D01*
X81674796Y-95234747D01*
X81674797Y-95232697D01*
X83824796Y-95232697D01*
X84003302Y-95664715D01*
X84333547Y-95995536D01*
X84765253Y-96174796D01*
X85232697Y-96175204D01*
X85664715Y-95996698D01*
X85995536Y-95666453D01*
X85999789Y-95656212D01*
X86003302Y-95664715D01*
X86333547Y-95995536D01*
X86765253Y-96174796D01*
X87232697Y-96175204D01*
X87664715Y-95996698D01*
X87995536Y-95666453D01*
X88174796Y-95234747D01*
X88174797Y-95232697D01*
X90324796Y-95232697D01*
X90503302Y-95664715D01*
X90833547Y-95995536D01*
X91265253Y-96174796D01*
X91732697Y-96175204D01*
X92164715Y-95996698D01*
X92495536Y-95666453D01*
X92499789Y-95656212D01*
X92503302Y-95664715D01*
X92833547Y-95995536D01*
X93265253Y-96174796D01*
X93732697Y-96175204D01*
X94164715Y-95996698D01*
X94495536Y-95666453D01*
X94674796Y-95234747D01*
X94674797Y-95232697D01*
X96824796Y-95232697D01*
X97003302Y-95664715D01*
X97333547Y-95995536D01*
X97765253Y-96174796D01*
X98232697Y-96175204D01*
X98664715Y-95996698D01*
X98995536Y-95666453D01*
X98999789Y-95656212D01*
X99003302Y-95664715D01*
X99333547Y-95995536D01*
X99765253Y-96174796D01*
X100232697Y-96175204D01*
X100664715Y-95996698D01*
X100995536Y-95666453D01*
X101174796Y-95234747D01*
X101174797Y-95232697D01*
X103324796Y-95232697D01*
X103503302Y-95664715D01*
X103833547Y-95995536D01*
X104265253Y-96174796D01*
X104732697Y-96175204D01*
X105164715Y-95996698D01*
X105495536Y-95666453D01*
X105499789Y-95656212D01*
X105503302Y-95664715D01*
X105833547Y-95995536D01*
X106265253Y-96174796D01*
X106732697Y-96175204D01*
X107164715Y-95996698D01*
X107495536Y-95666453D01*
X107674796Y-95234747D01*
X107675204Y-94767303D01*
X107496698Y-94335285D01*
X107166453Y-94004464D01*
X106734747Y-93825204D01*
X106267303Y-93824796D01*
X105835285Y-94003302D01*
X105504464Y-94333547D01*
X105500211Y-94343788D01*
X105496698Y-94335285D01*
X105166453Y-94004464D01*
X104734747Y-93825204D01*
X104267303Y-93824796D01*
X103835285Y-94003302D01*
X103504464Y-94333547D01*
X103325204Y-94765253D01*
X103324796Y-95232697D01*
X101174797Y-95232697D01*
X101175204Y-94767303D01*
X100996698Y-94335285D01*
X100666453Y-94004464D01*
X100234747Y-93825204D01*
X99767303Y-93824796D01*
X99335285Y-94003302D01*
X99004464Y-94333547D01*
X99000211Y-94343788D01*
X98996698Y-94335285D01*
X98666453Y-94004464D01*
X98234747Y-93825204D01*
X97767303Y-93824796D01*
X97335285Y-94003302D01*
X97004464Y-94333547D01*
X96825204Y-94765253D01*
X96824796Y-95232697D01*
X94674797Y-95232697D01*
X94675204Y-94767303D01*
X94496698Y-94335285D01*
X94166453Y-94004464D01*
X93734747Y-93825204D01*
X93267303Y-93824796D01*
X92835285Y-94003302D01*
X92504464Y-94333547D01*
X92500211Y-94343788D01*
X92496698Y-94335285D01*
X92166453Y-94004464D01*
X91734747Y-93825204D01*
X91267303Y-93824796D01*
X90835285Y-94003302D01*
X90504464Y-94333547D01*
X90325204Y-94765253D01*
X90324796Y-95232697D01*
X88174797Y-95232697D01*
X88175204Y-94767303D01*
X87996698Y-94335285D01*
X87666453Y-94004464D01*
X87234747Y-93825204D01*
X86767303Y-93824796D01*
X86335285Y-94003302D01*
X86004464Y-94333547D01*
X86000211Y-94343788D01*
X85996698Y-94335285D01*
X85666453Y-94004464D01*
X85234747Y-93825204D01*
X84767303Y-93824796D01*
X84335285Y-94003302D01*
X84004464Y-94333547D01*
X83825204Y-94765253D01*
X83824796Y-95232697D01*
X81674797Y-95232697D01*
X81675204Y-94767303D01*
X81496698Y-94335285D01*
X81166453Y-94004464D01*
X80734747Y-93825204D01*
X80267303Y-93824796D01*
X79835285Y-94003302D01*
X79504464Y-94333547D01*
X79500211Y-94343788D01*
X79496698Y-94335285D01*
X79166453Y-94004464D01*
X78734747Y-93825204D01*
X78267303Y-93824796D01*
X77835285Y-94003302D01*
X77504464Y-94333547D01*
X77325204Y-94765253D01*
X77324796Y-95232697D01*
X75174797Y-95232697D01*
X75175204Y-94767303D01*
X74996698Y-94335285D01*
X74666453Y-94004464D01*
X74234747Y-93825204D01*
X73767303Y-93824796D01*
X73335285Y-94003302D01*
X73004464Y-94333547D01*
X73000211Y-94343788D01*
X72996698Y-94335285D01*
X72666453Y-94004464D01*
X72234747Y-93825204D01*
X71767303Y-93824796D01*
X71335285Y-94003302D01*
X71004464Y-94333547D01*
X70825204Y-94765253D01*
X70824796Y-95232697D01*
X68674797Y-95232697D01*
X68675204Y-94767303D01*
X68496698Y-94335285D01*
X68166453Y-94004464D01*
X67734747Y-93825204D01*
X67267303Y-93824796D01*
X66835285Y-94003302D01*
X66504464Y-94333547D01*
X66500211Y-94343788D01*
X66496698Y-94335285D01*
X66166453Y-94004464D01*
X65734747Y-93825204D01*
X65267303Y-93824796D01*
X64835285Y-94003302D01*
X64504464Y-94333547D01*
X64325204Y-94765253D01*
X64324796Y-95232697D01*
X63150000Y-95232697D01*
X63150000Y-76120000D01*
X72081749Y-76120000D01*
X72176032Y-76593992D01*
X72444527Y-76995822D01*
X72846357Y-77264317D01*
X73320349Y-77358600D01*
X73679651Y-77358600D01*
X74153643Y-77264317D01*
X74555473Y-76995822D01*
X74823968Y-76593992D01*
X74853984Y-76443089D01*
X103624831Y-76443089D01*
X103772954Y-76801571D01*
X104046986Y-77076082D01*
X104405210Y-77224830D01*
X104793089Y-77225169D01*
X105151571Y-77077046D01*
X105426082Y-76803014D01*
X105574830Y-76444790D01*
X105575169Y-76056911D01*
X105427046Y-75698429D01*
X105153014Y-75423918D01*
X104794790Y-75275170D01*
X104406911Y-75274831D01*
X104048429Y-75422954D01*
X103773918Y-75696986D01*
X103625170Y-76055210D01*
X103624831Y-76443089D01*
X74853984Y-76443089D01*
X74918251Y-76120000D01*
X74823968Y-75646008D01*
X74555473Y-75244178D01*
X74153643Y-74975683D01*
X73679651Y-74881400D01*
X73320349Y-74881400D01*
X72846357Y-74975683D01*
X72444527Y-75244178D01*
X72176032Y-75646008D01*
X72081749Y-76120000D01*
X63150000Y-76120000D01*
X63150000Y-73580000D01*
X72081749Y-73580000D01*
X72176032Y-74053992D01*
X72444527Y-74455822D01*
X72846357Y-74724317D01*
X73320349Y-74818600D01*
X73679651Y-74818600D01*
X74153643Y-74724317D01*
X74555473Y-74455822D01*
X74823968Y-74053992D01*
X74918251Y-73580000D01*
X74823968Y-73106008D01*
X74741574Y-72982697D01*
X101324796Y-72982697D01*
X101503302Y-73414715D01*
X101833547Y-73745536D01*
X101843788Y-73749789D01*
X101835285Y-73753302D01*
X101504464Y-74083547D01*
X101325204Y-74515253D01*
X101324796Y-74982697D01*
X101503302Y-75414715D01*
X101833547Y-75745536D01*
X102265253Y-75924796D01*
X102732697Y-75925204D01*
X103164715Y-75746698D01*
X103495536Y-75416453D01*
X103674796Y-74984747D01*
X103675204Y-74517303D01*
X103496698Y-74085285D01*
X103166453Y-73754464D01*
X103156212Y-73750211D01*
X103164715Y-73746698D01*
X103495536Y-73416453D01*
X103674796Y-72984747D01*
X103675204Y-72517303D01*
X103496698Y-72085285D01*
X103166453Y-71754464D01*
X102734747Y-71575204D01*
X102267303Y-71574796D01*
X101835285Y-71753302D01*
X101504464Y-72083547D01*
X101325204Y-72515253D01*
X101324796Y-72982697D01*
X74741574Y-72982697D01*
X74555473Y-72704178D01*
X74153643Y-72435683D01*
X73679651Y-72341400D01*
X73320349Y-72341400D01*
X72846357Y-72435683D01*
X72444527Y-72704178D01*
X72176032Y-73106008D01*
X72081749Y-73580000D01*
X63150000Y-73580000D01*
X63150000Y-71040000D01*
X72081749Y-71040000D01*
X72176032Y-71513992D01*
X72444527Y-71915822D01*
X72846357Y-72184317D01*
X73320349Y-72278600D01*
X73679651Y-72278600D01*
X74153643Y-72184317D01*
X74555473Y-71915822D01*
X74823968Y-71513992D01*
X74838071Y-71443089D01*
X103624831Y-71443089D01*
X103772954Y-71801571D01*
X104046986Y-72076082D01*
X104405210Y-72224830D01*
X104793089Y-72225169D01*
X105151571Y-72077046D01*
X105426082Y-71803014D01*
X105574830Y-71444790D01*
X105575169Y-71056911D01*
X105427046Y-70698429D01*
X105153014Y-70423918D01*
X104794790Y-70275170D01*
X104406911Y-70274831D01*
X104048429Y-70422954D01*
X103773918Y-70696986D01*
X103625170Y-71055210D01*
X103624831Y-71443089D01*
X74838071Y-71443089D01*
X74918251Y-71040000D01*
X74823968Y-70566008D01*
X74555473Y-70164178D01*
X74153643Y-69895683D01*
X73679651Y-69801400D01*
X73320349Y-69801400D01*
X72846357Y-69895683D01*
X72444527Y-70164178D01*
X72176032Y-70566008D01*
X72081749Y-71040000D01*
X63150000Y-71040000D01*
X63150000Y-68601250D01*
X72099000Y-68601250D01*
X72099000Y-69440182D01*
X72157613Y-69581685D01*
X72265915Y-69689987D01*
X72407419Y-69748600D01*
X73398750Y-69748600D01*
X73495000Y-69652350D01*
X73495000Y-68505000D01*
X73505000Y-68505000D01*
X73505000Y-69652350D01*
X73601250Y-69748600D01*
X74592581Y-69748600D01*
X74734085Y-69689987D01*
X74842387Y-69581685D01*
X74901000Y-69440182D01*
X74901000Y-68601250D01*
X74804750Y-68505000D01*
X73505000Y-68505000D01*
X73495000Y-68505000D01*
X72195250Y-68505000D01*
X72099000Y-68601250D01*
X63150000Y-68601250D01*
X63150000Y-67559818D01*
X72099000Y-67559818D01*
X72099000Y-68398750D01*
X72195250Y-68495000D01*
X73495000Y-68495000D01*
X73495000Y-67347650D01*
X73505000Y-67347650D01*
X73505000Y-68495000D01*
X74804750Y-68495000D01*
X74901000Y-68398750D01*
X74901000Y-67559818D01*
X74842387Y-67418315D01*
X74734085Y-67310013D01*
X74592581Y-67251400D01*
X73601250Y-67251400D01*
X73505000Y-67347650D01*
X73495000Y-67347650D01*
X73398750Y-67251400D01*
X72407419Y-67251400D01*
X72265915Y-67310013D01*
X72157613Y-67418315D01*
X72099000Y-67559818D01*
X63150000Y-67559818D01*
X63150000Y-63050000D01*
X63615720Y-63050000D01*
X63531615Y-63252546D01*
X63531615Y-63252546D01*
G37*
X63531615Y-63252546D02*
X63531185Y-63745292D01*
X63719353Y-64200694D01*
X64067473Y-64549422D01*
X64522546Y-64738385D01*
X65015292Y-64738815D01*
X65470694Y-64550647D01*
X65819422Y-64202527D01*
X66008385Y-63747454D01*
X66008815Y-63254708D01*
X65924232Y-63050000D01*
X66155720Y-63050000D01*
X66071615Y-63252546D01*
X66071185Y-63745292D01*
X66259353Y-64200694D01*
X66607473Y-64549422D01*
X67062546Y-64738385D01*
X67555292Y-64738815D01*
X68010694Y-64550647D01*
X68359422Y-64202527D01*
X68548385Y-63747454D01*
X68548815Y-63254708D01*
X68464232Y-63050000D01*
X68695720Y-63050000D01*
X68611615Y-63252546D01*
X68611185Y-63745292D01*
X68799353Y-64200694D01*
X69147473Y-64549422D01*
X69602546Y-64738385D01*
X70095292Y-64738815D01*
X70550694Y-64550647D01*
X70766056Y-64335660D01*
X71561412Y-64335660D01*
X71645764Y-64532860D01*
X72097674Y-64739044D01*
X72594088Y-64756595D01*
X73059431Y-64582841D01*
X73134236Y-64532860D01*
X73218588Y-64335660D01*
X72390000Y-63507071D01*
X71561412Y-64335660D01*
X70766056Y-64335660D01*
X70899422Y-64202527D01*
X71088385Y-63747454D01*
X71088815Y-63254708D01*
X71004232Y-63050000D01*
X71222895Y-63050000D01*
X71150956Y-63207674D01*
X71133405Y-63704088D01*
X71307159Y-64169431D01*
X71357140Y-64244236D01*
X71554340Y-64328588D01*
X72382929Y-63500000D01*
X72368786Y-63485858D01*
X72375858Y-63478786D01*
X72390000Y-63492929D01*
X72404142Y-63478786D01*
X72411214Y-63485858D01*
X72397071Y-63500000D01*
X73225660Y-64328588D01*
X73422860Y-64244236D01*
X73629044Y-63792326D01*
X73646595Y-63295912D01*
X73554774Y-63050000D01*
X73775720Y-63050000D01*
X73691615Y-63252546D01*
X73691185Y-63745292D01*
X73879353Y-64200694D01*
X74227473Y-64549422D01*
X74682546Y-64738385D01*
X75175292Y-64738815D01*
X75630694Y-64550647D01*
X75979422Y-64202527D01*
X76168385Y-63747454D01*
X76168815Y-63254708D01*
X76084232Y-63050000D01*
X76315720Y-63050000D01*
X76231615Y-63252546D01*
X76231185Y-63745292D01*
X76419353Y-64200694D01*
X76767473Y-64549422D01*
X77222546Y-64738385D01*
X77715292Y-64738815D01*
X78170694Y-64550647D01*
X78519422Y-64202527D01*
X78708385Y-63747454D01*
X78708815Y-63254708D01*
X78624232Y-63050000D01*
X78855720Y-63050000D01*
X78771615Y-63252546D01*
X78771185Y-63745292D01*
X78959353Y-64200694D01*
X79307473Y-64549422D01*
X79762546Y-64738385D01*
X80255292Y-64738815D01*
X80710694Y-64550647D01*
X81059422Y-64202527D01*
X81248385Y-63747454D01*
X81248815Y-63254708D01*
X81164232Y-63050000D01*
X81395720Y-63050000D01*
X81311615Y-63252546D01*
X81311185Y-63745292D01*
X81499353Y-64200694D01*
X81847473Y-64549422D01*
X82302546Y-64738385D01*
X82795292Y-64738815D01*
X83250694Y-64550647D01*
X83599422Y-64202527D01*
X83788385Y-63747454D01*
X83788815Y-63254708D01*
X83704232Y-63050000D01*
X83935720Y-63050000D01*
X83851615Y-63252546D01*
X83851185Y-63745292D01*
X84039353Y-64200694D01*
X84387473Y-64549422D01*
X84842546Y-64738385D01*
X85335292Y-64738815D01*
X85790694Y-64550647D01*
X86139422Y-64202527D01*
X86328385Y-63747454D01*
X86328815Y-63254708D01*
X86244232Y-63050000D01*
X86384054Y-63050000D01*
X86384054Y-64363600D01*
X86410202Y-64502566D01*
X86492331Y-64630199D01*
X86617646Y-64715823D01*
X86766400Y-64745946D01*
X88493600Y-64745946D01*
X88632566Y-64719798D01*
X88760199Y-64637669D01*
X88845823Y-64512354D01*
X88875946Y-64363600D01*
X88875946Y-63050000D01*
X90285720Y-63050000D01*
X90201615Y-63252546D01*
X90201185Y-63745292D01*
X90389353Y-64200694D01*
X90737473Y-64549422D01*
X91192546Y-64738385D01*
X91685292Y-64738815D01*
X92140694Y-64550647D01*
X92489422Y-64202527D01*
X92678385Y-63747454D01*
X92678815Y-63254708D01*
X92594232Y-63050000D01*
X92825720Y-63050000D01*
X92741615Y-63252546D01*
X92741185Y-63745292D01*
X92929353Y-64200694D01*
X93277473Y-64549422D01*
X93732546Y-64738385D01*
X94225292Y-64738815D01*
X94680694Y-64550647D01*
X95029422Y-64202527D01*
X95218385Y-63747454D01*
X95218815Y-63254708D01*
X95134232Y-63050000D01*
X95365720Y-63050000D01*
X95281615Y-63252546D01*
X95281185Y-63745292D01*
X95469353Y-64200694D01*
X95817473Y-64549422D01*
X96272546Y-64738385D01*
X96765292Y-64738815D01*
X97220694Y-64550647D01*
X97569422Y-64202527D01*
X97758385Y-63747454D01*
X97758815Y-63254708D01*
X97674232Y-63050000D01*
X97905720Y-63050000D01*
X97821615Y-63252546D01*
X97821185Y-63745292D01*
X98009353Y-64200694D01*
X98357473Y-64549422D01*
X98812546Y-64738385D01*
X99305292Y-64738815D01*
X99760694Y-64550647D01*
X100109422Y-64202527D01*
X100298385Y-63747454D01*
X100298815Y-63254708D01*
X100214232Y-63050000D01*
X100445720Y-63050000D01*
X100361615Y-63252546D01*
X100361185Y-63745292D01*
X100549353Y-64200694D01*
X100897473Y-64549422D01*
X101352546Y-64738385D01*
X101845292Y-64738815D01*
X102300694Y-64550647D01*
X102649422Y-64202527D01*
X102838385Y-63747454D01*
X102838815Y-63254708D01*
X102754232Y-63050000D01*
X102985720Y-63050000D01*
X102901615Y-63252546D01*
X102901185Y-63745292D01*
X103089353Y-64200694D01*
X103437473Y-64549422D01*
X103892546Y-64738385D01*
X104385292Y-64738815D01*
X104840694Y-64550647D01*
X105189422Y-64202527D01*
X105378385Y-63747454D01*
X105378815Y-63254708D01*
X105294232Y-63050000D01*
X105525720Y-63050000D01*
X105441615Y-63252546D01*
X105441185Y-63745292D01*
X105629353Y-64200694D01*
X105977473Y-64549422D01*
X106432546Y-64738385D01*
X106925292Y-64738815D01*
X107380694Y-64550647D01*
X107729422Y-64202527D01*
X107918385Y-63747454D01*
X107918815Y-63254708D01*
X107834232Y-63050000D01*
X107974054Y-63050000D01*
X107974054Y-64363600D01*
X108000202Y-64502566D01*
X108082331Y-64630199D01*
X108207646Y-64715823D01*
X108356400Y-64745946D01*
X110083600Y-64745946D01*
X110222566Y-64719798D01*
X110350199Y-64637669D01*
X110435823Y-64512354D01*
X110465946Y-64363600D01*
X110465946Y-63050000D01*
X110650000Y-63050000D01*
X110650000Y-79250000D01*
X103505000Y-79250000D01*
X103456368Y-79259848D01*
X103415399Y-79287841D01*
X103388549Y-79329568D01*
X103380000Y-79375000D01*
X103380000Y-89535000D01*
X103389848Y-89583632D01*
X103417841Y-89624601D01*
X103459568Y-89651451D01*
X103505000Y-89660000D01*
X110650000Y-89660000D01*
X110650000Y-112150000D01*
X110465946Y-112150000D01*
X110465946Y-110896400D01*
X110439798Y-110757434D01*
X110357669Y-110629801D01*
X110232354Y-110544177D01*
X110083600Y-110514054D01*
X108356400Y-110514054D01*
X108217434Y-110540202D01*
X108089801Y-110622331D01*
X108004177Y-110747646D01*
X107974054Y-110896400D01*
X107974054Y-112150000D01*
X107859195Y-112150000D01*
X107918385Y-112007454D01*
X107918815Y-111514708D01*
X107730647Y-111059306D01*
X107382527Y-110710578D01*
X106927454Y-110521615D01*
X106434708Y-110521185D01*
X105979306Y-110709353D01*
X105630578Y-111057473D01*
X105441615Y-111512546D01*
X105441185Y-112005292D01*
X105500977Y-112150000D01*
X105319195Y-112150000D01*
X105378385Y-112007454D01*
X105378815Y-111514708D01*
X105190647Y-111059306D01*
X104842527Y-110710578D01*
X104387454Y-110521615D01*
X103894708Y-110521185D01*
X103439306Y-110709353D01*
X103090578Y-111057473D01*
X102901615Y-111512546D01*
X102901185Y-112005292D01*
X102960977Y-112150000D01*
X102779195Y-112150000D01*
X102838385Y-112007454D01*
X102838815Y-111514708D01*
X102650647Y-111059306D01*
X102302527Y-110710578D01*
X101847454Y-110521615D01*
X101354708Y-110521185D01*
X100899306Y-110709353D01*
X100550578Y-111057473D01*
X100361615Y-111512546D01*
X100361185Y-112005292D01*
X100420977Y-112150000D01*
X100239195Y-112150000D01*
X100298385Y-112007454D01*
X100298815Y-111514708D01*
X100110647Y-111059306D01*
X99762527Y-110710578D01*
X99307454Y-110521615D01*
X98814708Y-110521185D01*
X98359306Y-110709353D01*
X98010578Y-111057473D01*
X97821615Y-111512546D01*
X97821185Y-112005292D01*
X97880977Y-112150000D01*
X97699195Y-112150000D01*
X97758385Y-112007454D01*
X97758815Y-111514708D01*
X97570647Y-111059306D01*
X97222527Y-110710578D01*
X96767454Y-110521615D01*
X96274708Y-110521185D01*
X95819306Y-110709353D01*
X95470578Y-111057473D01*
X95281615Y-111512546D01*
X95281185Y-112005292D01*
X95340977Y-112150000D01*
X92619195Y-112150000D01*
X92678385Y-112007454D01*
X92678815Y-111514708D01*
X92490647Y-111059306D01*
X92142527Y-110710578D01*
X91687454Y-110521615D01*
X91194708Y-110521185D01*
X90739306Y-110709353D01*
X90390578Y-111057473D01*
X90201615Y-111512546D01*
X90201185Y-112005292D01*
X90260977Y-112150000D01*
X90094480Y-112150000D01*
X90139044Y-112052326D01*
X90156595Y-111555912D01*
X89982841Y-111090569D01*
X89932860Y-111015764D01*
X89735660Y-110931412D01*
X88907071Y-111760000D01*
X88921214Y-111774143D01*
X88914143Y-111781214D01*
X88900000Y-111767071D01*
X88885858Y-111781214D01*
X88878787Y-111774143D01*
X88892929Y-111760000D01*
X88064340Y-110931412D01*
X87867140Y-111015764D01*
X87660956Y-111467674D01*
X87643405Y-111964088D01*
X87712823Y-112150000D01*
X87554480Y-112150000D01*
X87599044Y-112052326D01*
X87616595Y-111555912D01*
X87442841Y-111090569D01*
X87392860Y-111015764D01*
X87195660Y-110931412D01*
X86367071Y-111760000D01*
X86381214Y-111774143D01*
X86374143Y-111781214D01*
X86360000Y-111767071D01*
X86345858Y-111781214D01*
X86338787Y-111774143D01*
X86352929Y-111760000D01*
X85524340Y-110931412D01*
X85327140Y-111015764D01*
X85120956Y-111467674D01*
X85103405Y-111964088D01*
X85172823Y-112150000D01*
X84999195Y-112150000D01*
X85058385Y-112007454D01*
X85058815Y-111514708D01*
X84870647Y-111059306D01*
X84735917Y-110924340D01*
X85531412Y-110924340D01*
X86360000Y-111752929D01*
X87188588Y-110924340D01*
X88071412Y-110924340D01*
X88900000Y-111752929D01*
X89728588Y-110924340D01*
X89644236Y-110727140D01*
X89192326Y-110520956D01*
X88695912Y-110503405D01*
X88230569Y-110677159D01*
X88155764Y-110727140D01*
X88071412Y-110924340D01*
X87188588Y-110924340D01*
X87104236Y-110727140D01*
X86652326Y-110520956D01*
X86155912Y-110503405D01*
X85690569Y-110677159D01*
X85615764Y-110727140D01*
X85531412Y-110924340D01*
X84735917Y-110924340D01*
X84522527Y-110710578D01*
X84067454Y-110521615D01*
X83574708Y-110521185D01*
X83119306Y-110709353D01*
X82770578Y-111057473D01*
X82581615Y-111512546D01*
X82581185Y-112005292D01*
X82640977Y-112150000D01*
X82459195Y-112150000D01*
X82518385Y-112007454D01*
X82518815Y-111514708D01*
X82330647Y-111059306D01*
X81982527Y-110710578D01*
X81527454Y-110521615D01*
X81034708Y-110521185D01*
X80579306Y-110709353D01*
X80230578Y-111057473D01*
X80041615Y-111512546D01*
X80041185Y-112005292D01*
X80100977Y-112150000D01*
X79919195Y-112150000D01*
X79978385Y-112007454D01*
X79978815Y-111514708D01*
X79790647Y-111059306D01*
X79442527Y-110710578D01*
X78987454Y-110521615D01*
X78494708Y-110521185D01*
X78039306Y-110709353D01*
X77690578Y-111057473D01*
X77501615Y-111512546D01*
X77501185Y-112005292D01*
X77560977Y-112150000D01*
X77379195Y-112150000D01*
X77438385Y-112007454D01*
X77438815Y-111514708D01*
X77250647Y-111059306D01*
X76902527Y-110710578D01*
X76447454Y-110521615D01*
X75954708Y-110521185D01*
X75499306Y-110709353D01*
X75150578Y-111057473D01*
X74961615Y-111512546D01*
X74961185Y-112005292D01*
X75020977Y-112150000D01*
X74905946Y-112150000D01*
X74905946Y-110896400D01*
X74879798Y-110757434D01*
X74797669Y-110629801D01*
X74672354Y-110544177D01*
X74523600Y-110514054D01*
X72796400Y-110514054D01*
X72657434Y-110540202D01*
X72529801Y-110622331D01*
X72444177Y-110747646D01*
X72414054Y-110896400D01*
X72414054Y-112150000D01*
X63150000Y-112150000D01*
X63150000Y-97596019D01*
X63172954Y-97651571D01*
X63446986Y-97926082D01*
X63805210Y-98074830D01*
X64193089Y-98075169D01*
X64551571Y-97927046D01*
X64826082Y-97653014D01*
X64974830Y-97294790D01*
X64974831Y-97293089D01*
X68024831Y-97293089D01*
X68172954Y-97651571D01*
X68446986Y-97926082D01*
X68805210Y-98074830D01*
X69193089Y-98075169D01*
X69551571Y-97927046D01*
X69750106Y-97728858D01*
X69946986Y-97926082D01*
X70305210Y-98074830D01*
X70693089Y-98075169D01*
X71051571Y-97927046D01*
X71326082Y-97653014D01*
X71474830Y-97294790D01*
X71474831Y-97293089D01*
X74524831Y-97293089D01*
X74672954Y-97651571D01*
X74946986Y-97926082D01*
X75305210Y-98074830D01*
X75693089Y-98075169D01*
X76051571Y-97927046D01*
X76250106Y-97728858D01*
X76446986Y-97926082D01*
X76805210Y-98074830D01*
X77193089Y-98075169D01*
X77551571Y-97927046D01*
X77826082Y-97653014D01*
X77974830Y-97294790D01*
X77974831Y-97293089D01*
X81024831Y-97293089D01*
X81172954Y-97651571D01*
X81446986Y-97926082D01*
X81805210Y-98074830D01*
X82193089Y-98075169D01*
X82551571Y-97927046D01*
X82750106Y-97728858D01*
X82946986Y-97926082D01*
X83305210Y-98074830D01*
X83693089Y-98075169D01*
X84051571Y-97927046D01*
X84326082Y-97653014D01*
X84474830Y-97294790D01*
X84474831Y-97293089D01*
X87524831Y-97293089D01*
X87672954Y-97651571D01*
X87946986Y-97926082D01*
X88305210Y-98074830D01*
X88693089Y-98075169D01*
X89051571Y-97927046D01*
X89250106Y-97728858D01*
X89446986Y-97926082D01*
X89805210Y-98074830D01*
X90193089Y-98075169D01*
X90551571Y-97927046D01*
X90826082Y-97653014D01*
X90974830Y-97294790D01*
X90974831Y-97293089D01*
X94024831Y-97293089D01*
X94172954Y-97651571D01*
X94446986Y-97926082D01*
X94805210Y-98074830D01*
X95193089Y-98075169D01*
X95551571Y-97927046D01*
X95750106Y-97728858D01*
X95946986Y-97926082D01*
X96305210Y-98074830D01*
X96693089Y-98075169D01*
X97051571Y-97927046D01*
X97326082Y-97653014D01*
X97474830Y-97294790D01*
X97474831Y-97293089D01*
X100524831Y-97293089D01*
X100672954Y-97651571D01*
X100946986Y-97926082D01*
X101305210Y-98074830D01*
X101693089Y-98075169D01*
X102051571Y-97927046D01*
X102250106Y-97728858D01*
X102446986Y-97926082D01*
X102805210Y-98074830D01*
X103193089Y-98075169D01*
X103551571Y-97927046D01*
X103826082Y-97653014D01*
X103974830Y-97294790D01*
X103974831Y-97293089D01*
X107024831Y-97293089D01*
X107172954Y-97651571D01*
X107446986Y-97926082D01*
X107805210Y-98074830D01*
X108193089Y-98075169D01*
X108551571Y-97927046D01*
X108826082Y-97653014D01*
X108974830Y-97294790D01*
X108975169Y-96906911D01*
X108827046Y-96548429D01*
X108553014Y-96273918D01*
X108194790Y-96125170D01*
X107806911Y-96124831D01*
X107448429Y-96272954D01*
X107173918Y-96546986D01*
X107025170Y-96905210D01*
X107024831Y-97293089D01*
X103974831Y-97293089D01*
X103975169Y-96906911D01*
X103827046Y-96548429D01*
X103553014Y-96273918D01*
X103194790Y-96125170D01*
X102806911Y-96124831D01*
X102448429Y-96272954D01*
X102249894Y-96471142D01*
X102053014Y-96273918D01*
X101694790Y-96125170D01*
X101306911Y-96124831D01*
X100948429Y-96272954D01*
X100673918Y-96546986D01*
X100525170Y-96905210D01*
X100524831Y-97293089D01*
X97474831Y-97293089D01*
X97475169Y-96906911D01*
X97327046Y-96548429D01*
X97053014Y-96273918D01*
X96694790Y-96125170D01*
X96306911Y-96124831D01*
X95948429Y-96272954D01*
X95749894Y-96471142D01*
X95553014Y-96273918D01*
X95194790Y-96125170D01*
X94806911Y-96124831D01*
X94448429Y-96272954D01*
X94173918Y-96546986D01*
X94025170Y-96905210D01*
X94024831Y-97293089D01*
X90974831Y-97293089D01*
X90975169Y-96906911D01*
X90827046Y-96548429D01*
X90553014Y-96273918D01*
X90194790Y-96125170D01*
X89806911Y-96124831D01*
X89448429Y-96272954D01*
X89249894Y-96471142D01*
X89053014Y-96273918D01*
X88694790Y-96125170D01*
X88306911Y-96124831D01*
X87948429Y-96272954D01*
X87673918Y-96546986D01*
X87525170Y-96905210D01*
X87524831Y-97293089D01*
X84474831Y-97293089D01*
X84475169Y-96906911D01*
X84327046Y-96548429D01*
X84053014Y-96273918D01*
X83694790Y-96125170D01*
X83306911Y-96124831D01*
X82948429Y-96272954D01*
X82749894Y-96471142D01*
X82553014Y-96273918D01*
X82194790Y-96125170D01*
X81806911Y-96124831D01*
X81448429Y-96272954D01*
X81173918Y-96546986D01*
X81025170Y-96905210D01*
X81024831Y-97293089D01*
X77974831Y-97293089D01*
X77975169Y-96906911D01*
X77827046Y-96548429D01*
X77553014Y-96273918D01*
X77194790Y-96125170D01*
X76806911Y-96124831D01*
X76448429Y-96272954D01*
X76249894Y-96471142D01*
X76053014Y-96273918D01*
X75694790Y-96125170D01*
X75306911Y-96124831D01*
X74948429Y-96272954D01*
X74673918Y-96546986D01*
X74525170Y-96905210D01*
X74524831Y-97293089D01*
X71474831Y-97293089D01*
X71475169Y-96906911D01*
X71327046Y-96548429D01*
X71053014Y-96273918D01*
X70694790Y-96125170D01*
X70306911Y-96124831D01*
X69948429Y-96272954D01*
X69749894Y-96471142D01*
X69553014Y-96273918D01*
X69194790Y-96125170D01*
X68806911Y-96124831D01*
X68448429Y-96272954D01*
X68173918Y-96546986D01*
X68025170Y-96905210D01*
X68024831Y-97293089D01*
X64974831Y-97293089D01*
X64975169Y-96906911D01*
X64827046Y-96548429D01*
X64553014Y-96273918D01*
X64194790Y-96125170D01*
X63806911Y-96124831D01*
X63448429Y-96272954D01*
X63173918Y-96546986D01*
X63150000Y-96604587D01*
X63150000Y-95232697D01*
X64324796Y-95232697D01*
X64503302Y-95664715D01*
X64833547Y-95995536D01*
X65265253Y-96174796D01*
X65732697Y-96175204D01*
X66164715Y-95996698D01*
X66495536Y-95666453D01*
X66499789Y-95656212D01*
X66503302Y-95664715D01*
X66833547Y-95995536D01*
X67265253Y-96174796D01*
X67732697Y-96175204D01*
X68164715Y-95996698D01*
X68495536Y-95666453D01*
X68674796Y-95234747D01*
X68674797Y-95232697D01*
X70824796Y-95232697D01*
X71003302Y-95664715D01*
X71333547Y-95995536D01*
X71765253Y-96174796D01*
X72232697Y-96175204D01*
X72664715Y-95996698D01*
X72995536Y-95666453D01*
X72999789Y-95656212D01*
X73003302Y-95664715D01*
X73333547Y-95995536D01*
X73765253Y-96174796D01*
X74232697Y-96175204D01*
X74664715Y-95996698D01*
X74995536Y-95666453D01*
X75174796Y-95234747D01*
X75174797Y-95232697D01*
X77324796Y-95232697D01*
X77503302Y-95664715D01*
X77833547Y-95995536D01*
X78265253Y-96174796D01*
X78732697Y-96175204D01*
X79164715Y-95996698D01*
X79495536Y-95666453D01*
X79499789Y-95656212D01*
X79503302Y-95664715D01*
X79833547Y-95995536D01*
X80265253Y-96174796D01*
X80732697Y-96175204D01*
X81164715Y-95996698D01*
X81495536Y-95666453D01*
X81674796Y-95234747D01*
X81674797Y-95232697D01*
X83824796Y-95232697D01*
X84003302Y-95664715D01*
X84333547Y-95995536D01*
X84765253Y-96174796D01*
X85232697Y-96175204D01*
X85664715Y-95996698D01*
X85995536Y-95666453D01*
X85999789Y-95656212D01*
X86003302Y-95664715D01*
X86333547Y-95995536D01*
X86765253Y-96174796D01*
X87232697Y-96175204D01*
X87664715Y-95996698D01*
X87995536Y-95666453D01*
X88174796Y-95234747D01*
X88174797Y-95232697D01*
X90324796Y-95232697D01*
X90503302Y-95664715D01*
X90833547Y-95995536D01*
X91265253Y-96174796D01*
X91732697Y-96175204D01*
X92164715Y-95996698D01*
X92495536Y-95666453D01*
X92499789Y-95656212D01*
X92503302Y-95664715D01*
X92833547Y-95995536D01*
X93265253Y-96174796D01*
X93732697Y-96175204D01*
X94164715Y-95996698D01*
X94495536Y-95666453D01*
X94674796Y-95234747D01*
X94674797Y-95232697D01*
X96824796Y-95232697D01*
X97003302Y-95664715D01*
X97333547Y-95995536D01*
X97765253Y-96174796D01*
X98232697Y-96175204D01*
X98664715Y-95996698D01*
X98995536Y-95666453D01*
X98999789Y-95656212D01*
X99003302Y-95664715D01*
X99333547Y-95995536D01*
X99765253Y-96174796D01*
X100232697Y-96175204D01*
X100664715Y-95996698D01*
X100995536Y-95666453D01*
X101174796Y-95234747D01*
X101174797Y-95232697D01*
X103324796Y-95232697D01*
X103503302Y-95664715D01*
X103833547Y-95995536D01*
X104265253Y-96174796D01*
X104732697Y-96175204D01*
X105164715Y-95996698D01*
X105495536Y-95666453D01*
X105499789Y-95656212D01*
X105503302Y-95664715D01*
X105833547Y-95995536D01*
X106265253Y-96174796D01*
X106732697Y-96175204D01*
X107164715Y-95996698D01*
X107495536Y-95666453D01*
X107674796Y-95234747D01*
X107675204Y-94767303D01*
X107496698Y-94335285D01*
X107166453Y-94004464D01*
X106734747Y-93825204D01*
X106267303Y-93824796D01*
X105835285Y-94003302D01*
X105504464Y-94333547D01*
X105500211Y-94343788D01*
X105496698Y-94335285D01*
X105166453Y-94004464D01*
X104734747Y-93825204D01*
X104267303Y-93824796D01*
X103835285Y-94003302D01*
X103504464Y-94333547D01*
X103325204Y-94765253D01*
X103324796Y-95232697D01*
X101174797Y-95232697D01*
X101175204Y-94767303D01*
X100996698Y-94335285D01*
X100666453Y-94004464D01*
X100234747Y-93825204D01*
X99767303Y-93824796D01*
X99335285Y-94003302D01*
X99004464Y-94333547D01*
X99000211Y-94343788D01*
X98996698Y-94335285D01*
X98666453Y-94004464D01*
X98234747Y-93825204D01*
X97767303Y-93824796D01*
X97335285Y-94003302D01*
X97004464Y-94333547D01*
X96825204Y-94765253D01*
X96824796Y-95232697D01*
X94674797Y-95232697D01*
X94675204Y-94767303D01*
X94496698Y-94335285D01*
X94166453Y-94004464D01*
X93734747Y-93825204D01*
X93267303Y-93824796D01*
X92835285Y-94003302D01*
X92504464Y-94333547D01*
X92500211Y-94343788D01*
X92496698Y-94335285D01*
X92166453Y-94004464D01*
X91734747Y-93825204D01*
X91267303Y-93824796D01*
X90835285Y-94003302D01*
X90504464Y-94333547D01*
X90325204Y-94765253D01*
X90324796Y-95232697D01*
X88174797Y-95232697D01*
X88175204Y-94767303D01*
X87996698Y-94335285D01*
X87666453Y-94004464D01*
X87234747Y-93825204D01*
X86767303Y-93824796D01*
X86335285Y-94003302D01*
X86004464Y-94333547D01*
X86000211Y-94343788D01*
X85996698Y-94335285D01*
X85666453Y-94004464D01*
X85234747Y-93825204D01*
X84767303Y-93824796D01*
X84335285Y-94003302D01*
X84004464Y-94333547D01*
X83825204Y-94765253D01*
X83824796Y-95232697D01*
X81674797Y-95232697D01*
X81675204Y-94767303D01*
X81496698Y-94335285D01*
X81166453Y-94004464D01*
X80734747Y-93825204D01*
X80267303Y-93824796D01*
X79835285Y-94003302D01*
X79504464Y-94333547D01*
X79500211Y-94343788D01*
X79496698Y-94335285D01*
X79166453Y-94004464D01*
X78734747Y-93825204D01*
X78267303Y-93824796D01*
X77835285Y-94003302D01*
X77504464Y-94333547D01*
X77325204Y-94765253D01*
X77324796Y-95232697D01*
X75174797Y-95232697D01*
X75175204Y-94767303D01*
X74996698Y-94335285D01*
X74666453Y-94004464D01*
X74234747Y-93825204D01*
X73767303Y-93824796D01*
X73335285Y-94003302D01*
X73004464Y-94333547D01*
X73000211Y-94343788D01*
X72996698Y-94335285D01*
X72666453Y-94004464D01*
X72234747Y-93825204D01*
X71767303Y-93824796D01*
X71335285Y-94003302D01*
X71004464Y-94333547D01*
X70825204Y-94765253D01*
X70824796Y-95232697D01*
X68674797Y-95232697D01*
X68675204Y-94767303D01*
X68496698Y-94335285D01*
X68166453Y-94004464D01*
X67734747Y-93825204D01*
X67267303Y-93824796D01*
X66835285Y-94003302D01*
X66504464Y-94333547D01*
X66500211Y-94343788D01*
X66496698Y-94335285D01*
X66166453Y-94004464D01*
X65734747Y-93825204D01*
X65267303Y-93824796D01*
X64835285Y-94003302D01*
X64504464Y-94333547D01*
X64325204Y-94765253D01*
X64324796Y-95232697D01*
X63150000Y-95232697D01*
X63150000Y-76120000D01*
X72081749Y-76120000D01*
X72176032Y-76593992D01*
X72444527Y-76995822D01*
X72846357Y-77264317D01*
X73320349Y-77358600D01*
X73679651Y-77358600D01*
X74153643Y-77264317D01*
X74555473Y-76995822D01*
X74823968Y-76593992D01*
X74853984Y-76443089D01*
X103624831Y-76443089D01*
X103772954Y-76801571D01*
X104046986Y-77076082D01*
X104405210Y-77224830D01*
X104793089Y-77225169D01*
X105151571Y-77077046D01*
X105426082Y-76803014D01*
X105574830Y-76444790D01*
X105575169Y-76056911D01*
X105427046Y-75698429D01*
X105153014Y-75423918D01*
X104794790Y-75275170D01*
X104406911Y-75274831D01*
X104048429Y-75422954D01*
X103773918Y-75696986D01*
X103625170Y-76055210D01*
X103624831Y-76443089D01*
X74853984Y-76443089D01*
X74918251Y-76120000D01*
X74823968Y-75646008D01*
X74555473Y-75244178D01*
X74153643Y-74975683D01*
X73679651Y-74881400D01*
X73320349Y-74881400D01*
X72846357Y-74975683D01*
X72444527Y-75244178D01*
X72176032Y-75646008D01*
X72081749Y-76120000D01*
X63150000Y-76120000D01*
X63150000Y-73580000D01*
X72081749Y-73580000D01*
X72176032Y-74053992D01*
X72444527Y-74455822D01*
X72846357Y-74724317D01*
X73320349Y-74818600D01*
X73679651Y-74818600D01*
X74153643Y-74724317D01*
X74555473Y-74455822D01*
X74823968Y-74053992D01*
X74918251Y-73580000D01*
X74823968Y-73106008D01*
X74741574Y-72982697D01*
X101324796Y-72982697D01*
X101503302Y-73414715D01*
X101833547Y-73745536D01*
X101843788Y-73749789D01*
X101835285Y-73753302D01*
X101504464Y-74083547D01*
X101325204Y-74515253D01*
X101324796Y-74982697D01*
X101503302Y-75414715D01*
X101833547Y-75745536D01*
X102265253Y-75924796D01*
X102732697Y-75925204D01*
X103164715Y-75746698D01*
X103495536Y-75416453D01*
X103674796Y-74984747D01*
X103675204Y-74517303D01*
X103496698Y-74085285D01*
X103166453Y-73754464D01*
X103156212Y-73750211D01*
X103164715Y-73746698D01*
X103495536Y-73416453D01*
X103674796Y-72984747D01*
X103675204Y-72517303D01*
X103496698Y-72085285D01*
X103166453Y-71754464D01*
X102734747Y-71575204D01*
X102267303Y-71574796D01*
X101835285Y-71753302D01*
X101504464Y-72083547D01*
X101325204Y-72515253D01*
X101324796Y-72982697D01*
X74741574Y-72982697D01*
X74555473Y-72704178D01*
X74153643Y-72435683D01*
X73679651Y-72341400D01*
X73320349Y-72341400D01*
X72846357Y-72435683D01*
X72444527Y-72704178D01*
X72176032Y-73106008D01*
X72081749Y-73580000D01*
X63150000Y-73580000D01*
X63150000Y-71040000D01*
X72081749Y-71040000D01*
X72176032Y-71513992D01*
X72444527Y-71915822D01*
X72846357Y-72184317D01*
X73320349Y-72278600D01*
X73679651Y-72278600D01*
X74153643Y-72184317D01*
X74555473Y-71915822D01*
X74823968Y-71513992D01*
X74838071Y-71443089D01*
X103624831Y-71443089D01*
X103772954Y-71801571D01*
X104046986Y-72076082D01*
X104405210Y-72224830D01*
X104793089Y-72225169D01*
X105151571Y-72077046D01*
X105426082Y-71803014D01*
X105574830Y-71444790D01*
X105575169Y-71056911D01*
X105427046Y-70698429D01*
X105153014Y-70423918D01*
X104794790Y-70275170D01*
X104406911Y-70274831D01*
X104048429Y-70422954D01*
X103773918Y-70696986D01*
X103625170Y-71055210D01*
X103624831Y-71443089D01*
X74838071Y-71443089D01*
X74918251Y-71040000D01*
X74823968Y-70566008D01*
X74555473Y-70164178D01*
X74153643Y-69895683D01*
X73679651Y-69801400D01*
X73320349Y-69801400D01*
X72846357Y-69895683D01*
X72444527Y-70164178D01*
X72176032Y-70566008D01*
X72081749Y-71040000D01*
X63150000Y-71040000D01*
X63150000Y-68601250D01*
X72099000Y-68601250D01*
X72099000Y-69440182D01*
X72157613Y-69581685D01*
X72265915Y-69689987D01*
X72407419Y-69748600D01*
X73398750Y-69748600D01*
X73495000Y-69652350D01*
X73495000Y-68505000D01*
X73505000Y-68505000D01*
X73505000Y-69652350D01*
X73601250Y-69748600D01*
X74592581Y-69748600D01*
X74734085Y-69689987D01*
X74842387Y-69581685D01*
X74901000Y-69440182D01*
X74901000Y-68601250D01*
X74804750Y-68505000D01*
X73505000Y-68505000D01*
X73495000Y-68505000D01*
X72195250Y-68505000D01*
X72099000Y-68601250D01*
X63150000Y-68601250D01*
X63150000Y-67559818D01*
X72099000Y-67559818D01*
X72099000Y-68398750D01*
X72195250Y-68495000D01*
X73495000Y-68495000D01*
X73495000Y-67347650D01*
X73505000Y-67347650D01*
X73505000Y-68495000D01*
X74804750Y-68495000D01*
X74901000Y-68398750D01*
X74901000Y-67559818D01*
X74842387Y-67418315D01*
X74734085Y-67310013D01*
X74592581Y-67251400D01*
X73601250Y-67251400D01*
X73505000Y-67347650D01*
X73495000Y-67347650D01*
X73398750Y-67251400D01*
X72407419Y-67251400D01*
X72265915Y-67310013D01*
X72157613Y-67418315D01*
X72099000Y-67559818D01*
X63150000Y-67559818D01*
X63150000Y-63050000D01*
X63615720Y-63050000D01*
X63531615Y-63252546D01*
M02*
