999
dxfrw 0.5.10
0
SECTION
2
HEADER
9
$ACADVER
1
AC1021
9
$HANDSEED
5
20000
9
$DWGCODEPAGE
3
ANSI_1252
9
$INSBASE
10
0
20
0
30
0
9
$EXTMIN
10
0
20
0
30
0
9
$EXTMAX
10
2210
20
1690
30
0
9
$LIMMIN
10
0
20
0
9
$LIMMAX
10
420
20
297
9
$ORTHOMODE
70
0
9
$LTSCALE
40
1
9
$TEXTSTYLE
7
STANDARD
9
$CLAYER
8
0
9
$DIMASZ
40
2.5
9
$DIMLFAC
40
1
9
$DIMSCALE
40
1
9
$DIMEXO
40
0.625
9
$DIMEXE
40
1.25
9
$DIMTXT
40
2.5
9
$DIMTSZ
40
0
9
$DIMAUNIT
70
0
9
$DIMADEC
70
0
9
$DIMLUNIT
70
2
9
$DIMSTYLE
2
Standard
9
$DIMGAP
40
0.625
9
$DIMTIH
70
0
9
$LUNITS
70
2
9
$LUPREC
70
4
9
$AUNITS
70
0
9
$AUPREC
70
2
9
$SPLINESEGS
70
8
9
$GRIDMODE
70
0
9
$SNAPSTYLE
70
0
9
$PINSBASE
10
0
20
0
30
0
9
$PLIMMIN
10
0
20
0
9
$PLIMMAX
10
210
20
297
9
$INSUNITS
70
4
9
$PSVPSCALE
40
1
0
ENDSEC
0
SECTION
2
CLASSES
0
ENDSEC
0
SECTION
2
TABLES
0
TABLE
2
VPORT
5
8
330
0
100
AcDbSymbolTable
70
1
0
VPORT
5
31
330
2
100
AcDbSymbolTableRecord
100
AcDbViewportTableRecord
2
*ACTIVE
70
0
10
0
20
0
11
1
21
1
12
1427.08737799
22
878.661236864
13
0
23
0
14
10
24
10
15
10
25
10
16
0
26
0
36
1
17
0
27
0
37
0
40
2032.51838684
41
1.79690522244
42
50
43
0
44
0
50
0
51
0
71
0
72
100
73
1
74
3
75
0
76
0
77
0
78
0
281
0
65
1
110
0
120
0
130
0
111
1
121
0
131
0
112
0
122
1
132
0
79
0
146
0
348
10020
60
7
61
5
292
1
282
1
141
0
142
0
63
250
421
3358443
0
ENDTAB
0
TABLE
2
LTYPE
5
5
330
0
100
AcDbSymbolTable
70
4
0
LTYPE
5
14
330
5
100
AcDbSymbolTableRecord
100
AcDbLinetypeTableRecord
2
ByBlock
70
0
3

72
65
73
0
40
0
0
LTYPE
5
15
330
5
100
AcDbSymbolTableRecord
100
AcDbLinetypeTableRecord
2
ByLayer
70
0
3

72
65
73
0
40
0
0
LTYPE
5
16
330
5
100
AcDbSymbolTableRecord
100
AcDbLinetypeTableRecord
2
Continuous
70
0
3
Solid line
72
65
73
0
40
0
0
LTYPE
5
32
330
5
100
AcDbSymbolTableRecord
100
AcDbLinetypeTableRecord
2
DOT
70
0
3
Dot . . . . . . . . . . . . . . . . . . . . . .
72
65
73
2
40
6.35
49
0
74
0
49
-6.35
74
0
0
LTYPE
5
33
330
5
100
AcDbSymbolTableRecord
100
AcDbLinetypeTableRecord
2
DOT2
70
0
3
Dot (.5x) .....................................
72
65
73
2
40
3.175
49
0
74
0
49
-3.175
74
0
0
LTYPE
5
34
330
5
100
AcDbSymbolTableRecord
100
AcDbLinetypeTableRecord
2
DOTX2
70
0
3
Dot (2x) .  .  .  .  .  .  .  .  .  .  .  .  .
72
65
73
2
40
12.7
49
0
74
0
49
-12.7
74
0
0
LTYPE
5
35
330
5
100
AcDbSymbolTableRecord
100
AcDbLinetypeTableRecord
2
DASHED
70
0
3
Dot . . . . . . . . . . . . . . . . . . . . . .
72
65
73
2
40
19.05
49
12.7
74
0
49
-6.35
74
0
0
LTYPE
5
36
330
5
100
AcDbSymbolTableRecord
100
AcDbLinetypeTableRecord
2
DASHED2
70
0
3
Dashed (.5x) _ _ _ _ _ _ _ _ _ _ _ _ _ _ _ _ _
72
65
73
2
40
9.525
49
6.35
74
0
49
-3.175
74
0
0
LTYPE
5
37
330
5
100
AcDbSymbolTableRecord
100
AcDbLinetypeTableRecord
2
DASHEDX2
70
0
3
Dashed (2x) ____  ____  ____  ____  ____  ___
72
65
73
2
40
38.1
49
25.4
74
0
49
-12.7
74
0
0
LTYPE
5
38
330
5
100
AcDbSymbolTableRecord
100
AcDbLinetypeTableRecord
2
DASHDOT
70
0
3
Dash dot __ . __ . __ . __ . __ . __ . __ . __
72
65
73
4
40
25.4
49
12.7
74
0
49
-6.35
74
0
49
0
74
0
49
-6.35
74
0
0
LTYPE
5
39
330
5
100
AcDbSymbolTableRecord
100
AcDbLinetypeTableRecord
2
DASHDOT2
70
0
3
Dash dot (.5x) _._._._._._._._._._._._._._._.
72
65
73
4
40
12.7
49
6.35
74
0
49
-3.175
74
0
49
0
74
0
49
-3.175
74
0
0
LTYPE
5
3A
330
5
100
AcDbSymbolTableRecord
100
AcDbLinetypeTableRecord
2
DASHDOTX2
70
0
3
Dash dot (2x) ____  .  ____  .  ____  .  ___
72
65
73
4
40
50.8
49
25.4
74
0
49
-12.7
74
0
49
0
74
0
49
-12.7
74
0
0
LTYPE
5
3B
330
5
100
AcDbSymbolTableRecord
100
AcDbLinetypeTableRecord
2
DIVIDE
70
0
3
Divide ____ . . ____ . . ____ . . ____ . . ____
72
65
73
6
40
31.75
49
12.7
74
0
49
-6.35
74
0
49
0
74
0
49
-6.35
74
0
49
0
74
0
49
-6.35
74
0
0
LTYPE
5
3C
330
5
100
AcDbSymbolTableRecord
100
AcDbLinetypeTableRecord
2
DIVIDE2
70
0
3
Divide (.5x) __..__..__..__..__..__..__..__.._
72
65
73
6
40
15.875
49
6.35
74
0
49
-3.175
74
0
49
0
74
0
49
-3.175
74
0
49
0
74
0
49
-3.175
74
0
0
LTYPE
5
3D
330
5
100
AcDbSymbolTableRecord
100
AcDbLinetypeTableRecord
2
DIVIDEX2
70
0
3
Divide (2x) ________  .  .  ________  .  .  _
72
65
73
6
40
63.5
49
25.4
74
0
49
-12.7
74
0
49
0
74
0
49
-12.7
74
0
49
0
74
0
49
-12.7
74
0
0
LTYPE
5
3E
330
5
100
AcDbSymbolTableRecord
100
AcDbLinetypeTableRecord
2
BORDER
70
0
3
Border __ __ . __ __ . __ __ . __ __ . __ __ .
72
65
73
6
40
44.45
49
12.7
74
0
49
-6.35
74
0
49
12.7
74
0
49
-6.35
74
0
49
0
74
0
49
-6.35
74
0
0
LTYPE
5
3F
330
5
100
AcDbSymbolTableRecord
100
AcDbLinetypeTableRecord
2
BORDER2
70
0
3
Border (.5x) __.__.__.__.__.__.__.__.__.__.__.
72
65
73
6
40
22.225
49
6.35
74
0
49
-3.175
74
0
49
6.35
74
0
49
-3.175
74
0
49
0
74
0
49
-3.175
74
0
0
LTYPE
5
40
330
5
100
AcDbSymbolTableRecord
100
AcDbLinetypeTableRecord
2
BORDERX2
70
0
3
Border (2x) ____  ____  .  ____  ____  .  ___
72
65
73
6
40
88.9
49
25.4
74
0
49
-12.7
74
0
49
25.4
74
0
49
-12.7
74
0
49
0
74
0
49
-12.7
74
0
0
LTYPE
5
41
330
5
100
AcDbSymbolTableRecord
100
AcDbLinetypeTableRecord
2
CENTER
70
0
3
Center ____ _ ____ _ ____ _ ____ _ ____ _ ____
72
65
73
4
40
50.8
49
31.75
74
0
49
-6.35
74
0
49
6.35
74
0
49
-6.35
74
0
0
LTYPE
5
42
330
5
100
AcDbSymbolTableRecord
100
AcDbLinetypeTableRecord
2
CENTER2
70
0
3
Center (.5x) ___ _ ___ _ ___ _ ___ _ ___ _ ___
72
65
73
4
40
28.575
49
19.05
74
0
49
-3.175
74
0
49
3.175
74
0
49
-3.175
74
0
0
LTYPE
5
43
330
5
100
AcDbSymbolTableRecord
100
AcDbLinetypeTableRecord
2
CENTERX2
70
0
3
Center (2x) ________  __  ________  __  _____
72
65
73
4
40
101.6
49
63.5
74
0
49
-12.7
74
0
49
12.7
74
0
49
-12.7
74
0
0
ENDTAB
0
TABLE
2
LAYER
5
2
330
0
100
AcDbSymbolTable
70
1
0
LAYER
5
10
330
2
100
AcDbSymbolTableRecord
100
AcDbLayerTableRecord
2
0
70
0
62
7
6
CONTINUOUS
370
-3
390
F
0
LAYER
5
44
330
2
100
AcDbSymbolTableRecord
100
AcDbLayerTableRecord
2
Layer_1
70
0
62
7
6
CONTINUOUS
370
-3
390
F
0
ENDTAB
0
TABLE
2
STYLE
5
3
330
0
100
AcDbSymbolTable
70
3
0
STYLE
5
45
330
2
100
AcDbSymbolTableRecord
100
AcDbTextStyleTableRecord
2
Standard
70
0
40
0
41
1
50
0
71
0
42
1
3
txt
4

0
ENDTAB
0
TABLE
2
VIEW
5
6
330
0
100
AcDbSymbolTable
70
0
0
ENDTAB
0
TABLE
2
UCS
5
7
330
0
100
AcDbSymbolTable
70
0
0
ENDTAB
0
TABLE
2
APPID
5
9
330
0
100
AcDbSymbolTable
70
1
0
APPID
5
12
330
9
100
AcDbSymbolTableRecord
100
AcDbRegAppTableRecord
2
ACAD
70
0
0
ENDTAB
0
TABLE
2
DIMSTYLE
5
A
330
0
100
AcDbSymbolTable
70
1
100
AcDbDimStyleTable
71
1
0
DIMSTYLE
105
46
330
A
100
AcDbSymbolTableRecord
100
AcDbDimStyleTableRecord
2
Standard
70
0
40
1
41
2.5
42
0.625
43
0.38
44
1.25
45
0
46
0
47
0
48
0
140
2.5
141
0.09
142
0
143
25.4
144
1
145
0
146
1
147
0.625
148
0
71
0
72
0
73
0
74
1
75
0
76
0
77
0
78
0
79
0
170
0
171
2
172
0
173
0
174
0
175
0
176
0
177
0
178
0
179
0
271
4
272
4
273
2
274
2
275
0
276
0
277
2
278
46
279
0
280
0
281
0
282
0
283
1
284
0
285
0
286
0
288
0
289
3
340
Standard
341

371
-2
372
-2
0
ENDTAB
0
TABLE
2
BLOCK_RECORD
5
1
330
0
100
AcDbSymbolTable
70
2
0
BLOCK_RECORD
5
1F
330
1
100
AcDbSymbolTableRecord
100
AcDbBlockTableRecord
2
*Model_Space
70
0
280
1
281
0
0
BLOCK_RECORD
5
1E
330
1
100
AcDbSymbolTableRecord
100
AcDbBlockTableRecord
2
*Paper_Space
70
0
280
1
281
0
0
ENDTAB
0
ENDSEC
0
SECTION
2
BLOCKS
0
BLOCK
5
20
330
1F
100
AcDbEntity
8
0
100
AcDbBlockBegin
2
*Model_Space
70
0
10
0
20
0
30
0
3
*Model_Space
1

0
ENDBLK
5
21
330
1F
100
AcDbEntity
8
0
100
AcDbBlockEnd
0
BLOCK
5
1C
330
1B
100
AcDbEntity
8
0
100
AcDbBlockBegin
2
*Paper_Space
70
0
10
0
20
0
30
0
3
*Paper_Space
1

0
ENDBLK
5
1D
330
1F
100
AcDbEntity
8
0
100
AcDbBlockEnd
0
ENDSEC
0
SECTION
2
ENTITIES
0
LWPOLYLINE
5
47
100
AcDbEntity
8
Layer_1
6
ByLayer
62
1
370
-1
100
AcDbPolyline
90
5
70
0
43
0
10
288
20
831.999977
10
368
20
831.999977
10
368
20
751.999977
10
288
20
751.999977
10
288
20
831.999977
0
LWPOLYLINE
5
48
100
AcDbEntity
8
Layer_1
6
ByLayer
62
1
370
-1
100
AcDbPolyline
90
5
70
0
43
0
10
192
20
831.999977
10
272
20
831.999977
10
272
20
751.999977
10
192
20
751.999977
10
192
20
831.999977
0
LWPOLYLINE
5
49
100
AcDbEntity
8
Layer_1
6
ByLayer
62
1
370
-1
100
AcDbPolyline
90
5
70
0
43
0
10
288
20
735.999984
10
368
20
735.999984
10
368
20
655.999984
10
288
20
655.999984
10
288
20
735.999984
0
LWPOLYLINE
5
4A
100
AcDbEntity
8
Layer_1
6
ByLayer
62
1
370
-1
100
AcDbPolyline
90
5
70
0
43
0
10
96
20
479.999984
10
176
20
479.999984
10
176
20
399.999984
10
96
20
399.999984
10
96
20
479.999984
0
LWPOLYLINE
5
4B
100
AcDbEntity
8
Layer_1
6
ByLayer
62
1
370
-1
100
AcDbPolyline
90
5
70
0
43
0
10
96
20
383.999984
10
176
20
383.999984
10
176
20
303.999984
10
96
20
303.999984
10
96
20
383.999984
0
LWPOLYLINE
5
4C
100
AcDbEntity
8
Layer_1
6
ByLayer
62
1
370
-1
100
AcDbPolyline
90
5
70
0
43
0
10
816
20
831.999982
10
896
20
831.999982
10
896
20
751.999982
10
816
20
751.999982
10
816
20
831.999982
0
LWPOLYLINE
5
4D
100
AcDbEntity
8
Layer_1
6
ByLayer
62
1
370
-1
100
AcDbPolyline
90
5
70
0
43
0
10
816
20
735.999984
10
896
20
735.999984
10
896
20
655.999984
10
816
20
655.999984
10
816
20
735.999984
0
LWPOLYLINE
5
4E
100
AcDbEntity
8
Layer_1
6
ByLayer
62
1
370
-1
100
AcDbPolyline
90
5
70
0
43
0
10
912
20
735.999984
10
992
20
735.999984
10
992
20
655.999984
10
912
20
655.999984
10
912
20
735.999984
0
LWPOLYLINE
5
4F
100
AcDbEntity
8
Layer_1
6
ByLayer
62
1
370
-1
100
AcDbPolyline
90
5
70
0
43
0
10
720
20
831.999982
10
800
20
831.999982
10
800
20
751.999982
10
720
20
751.999982
10
720
20
831.999982
0
LWPOLYLINE
5
50
100
AcDbEntity
8
Layer_1
6
ByLayer
62
1
370
-1
100
AcDbPolyline
90
5
70
0
43
0
10
2096
20
143.999984
10
2176
20
143.999984
10
2176
20
63.999984
10
2096
20
63.999984
10
2096
20
143.999984
0
LWPOLYLINE
5
51
100
AcDbEntity
8
Layer_1
6
ByLayer
62
1
370
-1
100
AcDbPolyline
90
5
70
0
43
0
10
2096
20
239.999984
10
2176
20
239.999984
10
2176
20
159.999984
10
2096
20
159.999984
10
2096
20
239.999984
0
LWPOLYLINE
5
52
100
AcDbEntity
8
Layer_1
6
ByLayer
62
1
370
-1
100
AcDbPolyline
90
5
70
0
43
0
10
2000
20
239.999984
10
2080
20
239.999984
10
2080
20
159.999984
10
2000
20
159.999984
10
2000
20
239.999984
0
LWPOLYLINE
5
53
100
AcDbEntity
8
Layer_1
6
ByLayer
62
1
370
-1
100
AcDbPolyline
90
5
70
0
43
0
10
2000
20
143.999984
10
2080
20
143.999984
10
2080
20
63.999984
10
2000
20
63.999984
10
2000
20
143.999984
0
LWPOLYLINE
5
54
100
AcDbEntity
8
Layer_1
6
ByLayer
62
1
370
-1
100
AcDbPolyline
90
5
70
0
43
0
10
1904
20
143.999984
10
1984
20
143.999984
10
1984
20
63.999984
10
1904
20
63.999984
10
1904
20
143.999984
0
LWPOLYLINE
5
55
100
AcDbEntity
8
Layer_1
6
ByLayer
62
1
370
-1
100
AcDbPolyline
90
5
70
0
43
0
10
192
20
239.999984
10
272
20
239.999984
10
272
20
159.999984
10
192
20
159.999984
10
192
20
239.999984
0
LWPOLYLINE
5
56
100
AcDbEntity
8
Layer_1
6
ByLayer
62
1
370
-1
100
AcDbPolyline
90
5
70
0
43
0
10
288
20
239.999984
10
368
20
239.999984
10
368
20
159.999984
10
288
20
159.999984
10
288
20
239.999984
0
LWPOLYLINE
5
57
100
AcDbEntity
8
Layer_1
6
ByLayer
62
1
370
-1
100
AcDbPolyline
90
5
70
0
43
0
10
288
20
143.999984
10
368
20
143.999984
10
368
20
63.999984
10
288
20
63.999984
10
288
20
143.999984
0
LWPOLYLINE
5
58
100
AcDbEntity
8
Layer_1
6
ByLayer
62
1
370
-1
100
AcDbPolyline
90
5
70
0
43
0
10
384
20
143.999984
10
464
20
143.999984
10
464
20
63.999984
10
384
20
63.999984
10
384
20
143.999984
0
LWPOLYLINE
5
59
100
AcDbEntity
8
Layer_1
6
ByLayer
62
1
370
-1
100
AcDbPolyline
90
5
70
0
43
0
10
384
20
239.999984
10
464
20
239.999984
10
464
20
159.999984
10
384
20
159.999984
10
384
20
239.999984
0
LWPOLYLINE
5
5A
100
AcDbEntity
8
Layer_1
6
ByLayer
62
1
370
-1
100
AcDbPolyline
90
5
70
0
43
0
10
480
20
239.999984
10
560
20
239.999984
10
560
20
159.999984
10
480
20
159.999984
10
480
20
239.999984
0
LWPOLYLINE
5
5B
100
AcDbEntity
8
Layer_1
6
ByLayer
62
1
370
-1
100
AcDbPolyline
90
5
70
0
43
0
10
480
20
143.999984
10
560
20
143.999984
10
560
20
63.999984
10
480
20
63.999984
10
480
20
143.999984
0
LWPOLYLINE
5
5C
100
AcDbEntity
8
Layer_1
6
ByLayer
62
1
370
-1
100
AcDbPolyline
90
5
70
0
43
0
10
576
20
143.999984
10
656
20
143.999984
10
656
20
63.999984
10
576
20
63.999984
10
576
20
143.999984
0
LWPOLYLINE
5
5D
100
AcDbEntity
8
Layer_1
6
ByLayer
62
1
370
-1
100
AcDbPolyline
90
5
70
0
43
0
10
1536
20
143.999984
10
1616
20
143.999984
10
1616
20
63.999984
10
1536
20
63.999984
10
1536
20
143.999984
0
LWPOLYLINE
5
5E
100
AcDbEntity
8
Layer_1
6
ByLayer
62
7
370
-1
100
AcDbPolyline
90
9
70
0
43
0
10
373.078872
20
542.601456
10
373.078872
20
597.161456
10
142.518872
20
597.161456
10
142.518872
20
542.601456
10
229.638872
20
542.601456
10
229.638872
20
289.161456
10
285.958872
20
289.161456
10
285.958872
20
542.601456
10
373.078872
20
542.601456
0
LWPOLYLINE
5
5F
100
AcDbEntity
8
Layer_1
6
ByLayer
62
7
370
-1
100
AcDbPolyline
90
13
70
0
43
0
10
671.701376
20
289.161456
10
671.701376
20
597.161456
10
615.381376
20
597.161456
10
615.381376
20
477.041456
10
470.181376
20
477.041456
10
470.181376
20
597.161456
10
413.861376
20
597.161456
10
413.861376
20
289.161456
10
470.181376
20
289.161456
10
470.181376
20
422.481456
10
615.381376
20
422.481456
10
615.381376
20
289.161456
10
671.701376
20
289.161456
0
SPLINE
5
60
100
AcDbEntity
8
Layer_1
6
ByLayer
62
7
370
-1
100
AcDbSpline
210
0
220
0
230
1
70
8
71
3
72
8
73
4
74
0
42
1e-07
43
1e-07
40
0
40
0
40
0
40
0
40
1
40
1
40
1
40
1
10
1220.47072
20
283.001456
30
0
10
1255.67072
20
283.001456
30
0
10
1303.6308
20
293.561472
30
0
10
1326.07072
20
306.321456
30
0
0
LWPOLYLINE
5
61
100
AcDbEntity
8
Layer_1
6
ByLayer
62
7
370
-1
100
AcDbPolyline
90
13
70
0
43
0
10
941.08448
20
289.161456
10
941.08448
20
343.721456
10
797.204496
20
343.721456
10
797.204496
20
422.481456
10
905.44448
20
422.481456
10
905.44448
20
477.041456
10
797.204496
20
477.041456
10
797.204496
20
542.601456
10
936.68448
20
542.601456
10
936.68448
20
597.161456
10
739.564496
20
597.161456
10
739.564496
20
289.161456
10
941.08448
20
289.161456
0
SPLINE
5
62
100
AcDbEntity
8
Layer_1
6
ByLayer
62
7
370
-1
100
AcDbSpline
210
0
220
0
230
1
70
8
71
3
72
8
73
4
74
0
42
1e-07
43
1e-07
40
0
40
0
40
0
40
0
40
1
40
1
40
1
40
1
10
1269.75072
20
341.961456
30
0
10
1254.7908
20
338.881464
30
0
10
1240.27072
20
337.121456
30
0
10
1227.51072
20
337.121456
30
0
0
SPLINE
5
63
100
AcDbEntity
8
Layer_1
6
ByLayer
62
7
370
-1
100
AcDbSpline
210
0
220
0
230
1
70
8
71
3
72
8
73
4
74
0
42
1e-07
43
1e-07
40
0
40
0
40
0
40
0
40
1
40
1
40
1
40
1
10
1227.51072
20
337.121456
30
0
10
1163.7108
20
337.121456
30
0
10
1131.59072
20
381.56152
30
0
10
1131.59072
20
444.481456
30
0
0
SPLINE
5
64
100
AcDbEntity
8
Layer_1
6
ByLayer
62
7
370
-1
100
AcDbSpline
210
0
220
0
230
1
70
8
71
3
72
8
73
4
74
0
42
1e-07
43
1e-07
40
0
40
0
40
0
40
0
40
1
40
1
40
1
40
1
10
1131.59072
20
444.481456
30
0
10
1131.59072
20
504.3214
30
0
10
1160.6308
20
549.201456
30
0
10
1224.87072
20
549.201456
30
0
0
SPLINE
5
65
100
AcDbEntity
8
Layer_1
6
ByLayer
62
7
370
-1
100
AcDbSpline
210
0
220
0
230
1
70
8
71
3
72
8
73
4
74
0
42
1e-07
43
1e-07
40
0
40
0
40
0
40
0
40
1
40
1
40
1
40
1
10
1224.87072
20
549.201456
30
0
10
1252.15072
20
549.201456
30
0
10
1286.0308
20
541.281448
30
0
10
1309.79072
20
531.601456
30
0
0
LWPOLYLINE
5
66
100
AcDbEntity
8
Layer_1
6
ByLayer
62
7
370
-1
100
AcDbPolyline
90
6
70
0
43
0
10
1326.07072
20
306.321456
10
1326.07072
20
443.601456
10
1235.87072
20
443.601456
10
1235.87072
20
396.961456
10
1269.75072
20
396.961456
10
1269.75072
20
341.961456
0
SPLINE
5
67
100
AcDbEntity
8
Layer_1
6
ByLayer
62
7
370
-1
100
AcDbSpline
210
0
220
0
230
1
70
8
71
3
72
8
73
4
74
0
42
1e-07
43
1e-07
40
0
40
0
40
0
40
0
40
1
40
1
40
1
40
1
10
1315.95072
20
585.281456
30
0
10
1293.5108
20
596.281448
30
0
10
1253.47072
20
603.321456
30
0
10
1223.55072
20
603.321456
30
0
0
SPLINE
5
68
100
AcDbEntity
8
Layer_1
6
ByLayer
62
7
370
-1
100
AcDbSpline
210
0
220
0
230
1
70
8
71
3
72
8
73
4
74
0
42
1e-07
43
1e-07
40
0
40
0
40
0
40
0
40
1
40
1
40
1
40
1
10
1223.55072
20
603.321456
30
0
10
1133.3508
20
603.321456
30
0
10
1069.99072
20
539.96136
30
0
10
1069.99072
20
443.601456
30
0
0
SPLINE
5
69
100
AcDbEntity
8
Layer_1
6
ByLayer
62
7
370
-1
100
AcDbSpline
210
0
220
0
230
1
70
8
71
3
72
8
73
4
74
0
42
1e-07
43
1e-07
40
0
40
0
40
0
40
0
40
1
40
1
40
1
40
1
10
1069.99072
20
443.601456
30
0
10
1069.99072
20
346.361552
30
0
10
1134.2308
20
283.001456
30
0
10
1220.47072
20
283.001456
30
0
0
LWPOLYLINE
5
6A
100
AcDbEntity
8
Layer_1
6
ByLayer
62
7
370
-1
100
AcDbPolyline
90
2
70
0
43
0
10
1309.79072
20
531.601456
10
1315.95072
20
585.281456
0
SPLINE
5
6B
100
AcDbEntity
8
Layer_1
6
ByLayer
62
7
370
-1
100
AcDbSpline
210
0
220
0
230
1
70
8
71
3
72
8
73
4
74
0
42
1e-07
43
1e-07
40
0
40
0
40
0
40
0
40
1
40
1
40
1
40
1
10
1546.97824
20
418.521456
30
0
10
1576.01824
20
436.56144
30
0
10
1599.33824
20
460.761504
30
0
10
1599.33824
20
508.281456
30
0
0
SPLINE
5
6C
100
AcDbEntity
8
Layer_1
6
ByLayer
62
7
370
-1
100
AcDbSpline
210
0
220
0
230
1
70
8
71
3
72
8
73
4
74
0
42
1e-07
43
1e-07
40
0
40
0
40
0
40
0
40
1
40
1
40
1
40
1
10
1599.33824
20
508.281456
30
0
10
1599.33824
20
575.161392
30
0
10
1552.69816
20
597.161456
30
0
10
1493.29824
20
597.161456
30
0
0
LWPOLYLINE
5
6D
100
AcDbEntity
8
Layer_1
6
ByLayer
62
7
370
-1
100
AcDbPolyline
90
2
70
0
43
0
10
1616.49824
20
289.161456
10
1546.97824
20
418.521456
0
SPLINE
5
6E
100
AcDbEntity
8
Layer_1
6
ByLayer
62
7
370
-1
100
AcDbSpline
210
0
220
0
230
1
70
8
71
3
72
8
73
4
74
0
42
1e-07
43
1e-07
40
0
40
0
40
0
40
0
40
1
40
1
40
1
40
1
10
1480.53824
20
550.081456
30
0
10
1528.93816
20
550.081456
30
0
10
1540.37824
20
532.921432
30
0
10
1540.37824
20
504.321456
30
0
0
SPLINE
5
6F
100
AcDbEntity
8
Layer_1
6
ByLayer
62
7
370
-1
100
AcDbSpline
210
0
220
0
230
1
70
8
71
3
72
8
73
4
74
0
42
1e-07
43
1e-07
40
0
40
0
40
0
40
0
40
1
40
1
40
1
40
1
10
1540.37824
20
504.321456
30
0
10
1540.37824
20
476.601488
30
0
10
1529.37816
20
456.361456
30
0
10
1478.33824
20
456.361456
30
0
0
LWPOLYLINE
5
70
100
AcDbEntity
8
Layer_1
6
ByLayer
62
7
370
-1
100
AcDbPolyline
90
8
70
0
43
0
10
1493.29824
20
597.161456
10
1380.65824
20
597.161456
10
1380.65824
20
289.161456
10
1436.97824
20
289.161456
10
1436.97824
20
403.561456
10
1494.17824
20
403.561456
10
1557.97824
20
289.161456
10
1616.49824
20
289.161456
0
LWPOLYLINE
5
71
100
AcDbEntity
8
Layer_1
6
ByLayer
62
7
370
-1
100
AcDbPolyline
90
4
70
0
43
0
10
1478.33824
20
456.361456
10
1436.97824
20
456.361456
10
1436.97824
20
550.081456
10
1480.53824
20
550.081456
0
SPLINE
5
72
100
AcDbEntity
8
Layer_1
6
ByLayer
62
7
370
-1
100
AcDbSpline
210
0
220
0
230
1
70
8
71
3
72
8
73
4
74
0
42
1e-07
43
1e-07
40
0
40
0
40
0
40
0
40
1
40
1
40
1
40
1
10
1895.5476
20
289.161456
30
0
10
1983.54752
20
289.161456
30
0
10
2047.3476
20
346.361552
30
0
10
2047.3476
20
443.161456
30
0
0
SPLINE
5
73
100
AcDbEntity
8
Layer_1
6
ByLayer
62
7
370
-1
100
AcDbSpline
210
0
220
0
230
1
70
8
71
3
72
8
73
4
74
0
42
1e-07
43
1e-07
40
0
40
0
40
0
40
0
40
1
40
1
40
1
40
1
10
2047.3476
20
443.161456
30
0
10
2047.3476
20
539.96136
30
0
10
1983.54752
20
597.161456
30
0
10
1895.5476
20
597.161456
30
0
0
LWPOLYLINE
5
74
100
AcDbEntity
8
Layer_1
6
ByLayer
62
7
370
-1
100
AcDbPolyline
90
5
70
0
43
0
10
1712.8376
20
289.161456
10
1712.8376
20
597.161456
10
1656.5176
20
597.161456
10
1656.5176
20
289.161456
10
1712.8376
20
289.161456
0
SPLINE
5
75
100
AcDbEntity
8
Layer_1
6
ByLayer
62
7
370
-1
100
AcDbSpline
210
0
220
0
230
1
70
8
71
3
72
8
73
4
74
0
42
1e-07
43
1e-07
40
0
40
0
40
0
40
0
40
1
40
1
40
1
40
1
10
1895.5476
20
543.041456
30
0
10
1955.3876
20
543.041456
30
0
10
1985.7476
20
504.761392
30
0
10
1985.7476
20
443.161456
30
0
0
SPLINE
5
76
100
AcDbEntity
8
Layer_1
6
ByLayer
62
7
370
-1
100
AcDbSpline
210
0
220
0
230
1
70
8
71
3
72
8
73
4
74
0
42
1e-07
43
1e-07
40
0
40
0
40
0
40
0
40
1
40
1
40
1
40
1
10
1985.7476
20
443.161456
30
0
10
1985.7476
20
381.56152
30
0
10
1955.3876
20
343.281456
30
0
10
1895.5476
20
343.281456
30
0
0
LWPOLYLINE
5
77
100
AcDbEntity
8
Layer_1
6
ByLayer
62
7
370
-1
100
AcDbPolyline
90
4
70
0
43
0
10
1895.5476
20
597.161456
10
1780.2676
20
597.161456
10
1780.2676
20
289.161456
10
1895.5476
20
289.161456
0
LWPOLYLINE
5
78
100
AcDbEntity
8
Layer_1
6
ByLayer
62
7
370
-1
100
AcDbPolyline
90
4
70
0
43
0
10
1895.5476
20
343.281456
10
1836.5876
20
343.281456
10
1836.5876
20
543.041456
10
1895.5476
20
543.041456
0
LWPOLYLINE
5
79
100
AcDbEntity
8
Layer_1
6
ByLayer
62
7
370
-1
100
AcDbPolyline
90
5
70
0
43
0
10
969.6
20
473.599984
10
1020.8
20
473.599984
10
1020.8
20
415.999978
10
969.6
20
415.999978
10
969.6
20
473.599984
0
LWPOLYLINE
5
7A
100
AcDbEntity
8
Layer_1
6
ByLayer
62
1
370
-1
100
AcDbPolyline
90
5
70
0
43
0
10
912
20
143.999984
10
992
20
143.999984
10
992
20
63.999984
10
912
20
63.999984
10
912
20
143.999984
0
LWPOLYLINE
5
7B
100
AcDbEntity
8
Layer_1
6
ByLayer
62
1
370
-1
100
AcDbPolyline
90
5
70
0
43
0
10
1008
20
143.999984
10
1088
20
143.999984
10
1088
20
63.999984
10
1008
20
63.999984
10
1008
20
143.999984
0
LWPOLYLINE
5
7C
100
AcDbEntity
8
Layer_1
6
ByLayer
62
1
370
-1
100
AcDbPolyline
90
5
70
0
43
0
10
1104
20
239.999984
10
1184
20
239.999984
10
1184
20
159.999984
10
1104
20
159.999984
10
1104
20
239.999984
0
LWPOLYLINE
5
7D
100
AcDbEntity
8
Layer_1
6
ByLayer
62
1
370
-1
100
AcDbPolyline
90
5
70
0
43
0
10
1104
20
143.999984
10
1184
20
143.999984
10
1184
20
63.999984
10
1104
20
63.999984
10
1104
20
143.999984
0
LWPOLYLINE
5
7E
100
AcDbEntity
8
Layer_1
6
ByLayer
62
1
370
-1
100
AcDbPolyline
90
5
70
0
43
0
10
2096
20
449.599984
10
2176
20
449.599984
10
2176
20
369.599984
10
2096
20
369.599984
10
2096
20
449.599984
0
LWPOLYLINE
5
7F
100
AcDbEntity
8
Layer_1
6
ByLayer
62
1
370
-1
100
AcDbPolyline
90
5
70
0
43
0
10
1328
20
831.999982
10
1408
20
831.999982
10
1408
20
751.999982
10
1328
20
751.999982
10
1328
20
831.999982
0
LWPOLYLINE
5
80
100
AcDbEntity
8
Layer_1
6
ByLayer
62
1
370
-1
100
AcDbPolyline
90
5
70
0
43
0
10
1424
20
831.99997
10
1504
20
831.99997
10
1504
20
751.99997
10
1424
20
751.99997
10
1424
20
831.99997
0
LWPOLYLINE
5
81
100
AcDbEntity
8
Layer_1
6
ByLayer
62
1
370
-1
100
AcDbPolyline
90
5
70
0
43
0
10
1520
20
831.99997
10
1600
20
831.99997
10
1600
20
751.99997
10
1520
20
751.99997
10
1520
20
831.99997
0
LWPOLYLINE
5
82
100
AcDbEntity
8
Layer_1
6
ByLayer
62
1
370
-1
100
AcDbPolyline
90
5
70
0
43
0
10
1616
20
831.99997
10
1696
20
831.99997
10
1696
20
751.99997
10
1616
20
751.99997
10
1616
20
831.99997
0
LWPOLYLINE
5
83
100
AcDbEntity
8
Layer_1
6
ByLayer
62
1
370
-1
100
AcDbPolyline
90
5
70
0
43
0
10
2096
20
735.999968
10
2176
20
735.999968
10
2176
20
655.999968
10
2096
20
655.999968
10
2096
20
735.999968
0
LWPOLYLINE
5
84
100
AcDbEntity
8
Layer_1
6
ByLayer
62
1
370
-1
100
AcDbPolyline
90
5
70
0
43
0
10
1424
20
735.999984
10
1504
20
735.999984
10
1504
20
655.999984
10
1424
20
655.999984
10
1424
20
735.999984
0
LWPOLYLINE
5
85
100
AcDbEntity
8
Layer_1
6
ByLayer
62
1
370
-1
100
AcDbPolyline
90
5
70
0
43
0
10
2000
20
831.999967
10
2080
20
831.999967
10
2080
20
751.999967
10
2000
20
751.999967
10
2000
20
831.999967
0
LWPOLYLINE
5
86
100
AcDbEntity
8
Layer_1
6
ByLayer
62
1
370
-1
100
AcDbPolyline
90
5
70
0
43
0
10
2000
20
735.999968
10
2080
20
735.999968
10
2080
20
655.999968
10
2000
20
655.999968
10
2000
20
735.999968
0
LWPOLYLINE
5
87
100
AcDbEntity
8
Layer_1
6
ByLayer
62
1
370
-1
100
AcDbPolyline
90
5
70
0
43
0
10
1904
20
735.999968
10
1984
20
735.999968
10
1984
20
655.999968
10
1904
20
655.999968
10
1904
20
735.999968
0
LWPOLYLINE
5
88
100
AcDbEntity
8
Layer_1
6
ByLayer
62
1
370
-1
100
AcDbPolyline
90
5
70
0
43
0
10
2096
20
639.999968
10
2176
20
639.999968
10
2176
20
559.999968
10
2096
20
559.999968
10
2096
20
639.999968
0
LWPOLYLINE
5
89
100
AcDbEntity
8
Layer_1
6
ByLayer
62
1
370
-1
100
AcDbPolyline
90
5
70
0
43
0
10
2096
20
831.999977
10
2176
20
831.999977
10
2176
20
751.999977
10
2096
20
751.999977
10
2096
20
831.999977
0
LWPOLYLINE
5
8A
100
AcDbEntity
8
Layer_1
6
ByLayer
62
1
370
-1
100
AcDbPolyline
90
5
70
0
43
0
10
2000
20
639.999968
10
2080
20
639.999968
10
2080
20
559.999968
10
2000
20
559.999968
10
2000
20
639.999968
0
LWPOLYLINE
5
8B
100
AcDbEntity
8
Layer_1
6
ByLayer
62
1
370
-1
100
AcDbPolyline
90
5
70
0
43
0
10
1904
20
831.99997
10
1984
20
831.99997
10
1984
20
751.99997
10
1904
20
751.99997
10
1904
20
831.99997
0
LWPOLYLINE
5
8C
100
AcDbEntity
8
Layer_1
6
ByLayer
62
1
370
-1
100
AcDbPolyline
90
5
70
0
43
0
10
2096
20
543.999984
10
2176
20
543.999984
10
2176
20
463.999984
10
2096
20
463.999984
10
2096
20
543.999984
0
LWPOLYLINE
5
8D
100
AcDbEntity
8
Layer_1
6
ByLayer
62
1
370
-1
100
AcDbPolyline
90
5
70
0
43
0
10
1712
20
831.999977
10
1792
20
831.999977
10
1792
20
751.999977
10
1712
20
751.999977
10
1712
20
831.999977
0
LWPOLYLINE
5
8E
100
AcDbEntity
8
Layer_1
6
ByLayer
62
1
370
-1
100
AcDbPolyline
90
5
70
0
43
0
10
1712
20
735.999968
10
1792
20
735.999968
10
1792
20
655.999968
10
1712
20
655.999968
10
1712
20
735.999968
0
LWPOLYLINE
5
8F
100
AcDbEntity
8
Layer_1
6
ByLayer
62
1
370
-1
100
AcDbPolyline
90
5
70
0
43
0
10
1616
20
735.999968
10
1696
20
735.999968
10
1696
20
655.999968
10
1616
20
655.999968
10
1616
20
735.999968
0
LWPOLYLINE
5
90
100
AcDbEntity
8
Layer_1
6
ByLayer
62
1
370
-1
100
AcDbPolyline
90
5
70
0
43
0
10
1808
20
735.999968
10
1888
20
735.999968
10
1888
20
655.999968
10
1808
20
655.999968
10
1808
20
735.999968
0
LWPOLYLINE
5
91
100
AcDbEntity
8
Layer_1
6
ByLayer
62
1
370
-1
100
AcDbPolyline
90
2
70
0
43
0
10
96
20
832
10
192
20
832
0
LWPOLYLINE
5
92
100
AcDbEntity
8
Layer_1
6
ByLayer
62
1
370
-1
100
AcDbPolyline
90
2
70
0
43
0
10
272
20
832
10
288
20
832
0
LWPOLYLINE
5
93
100
AcDbEntity
8
Layer_1
6
ByLayer
62
1
370
-1
100
AcDbPolyline
90
2
70
0
43
0
10
368
20
832
10
720
20
832
0
LWPOLYLINE
5
94
100
AcDbEntity
8
Layer_1
6
ByLayer
62
1
370
-1
100
AcDbPolyline
90
2
70
0
43
0
10
800
20
832
10
816
20
832
0
LWPOLYLINE
5
95
100
AcDbEntity
8
Layer_1
6
ByLayer
62
1
370
-1
100
AcDbPolyline
90
2
70
0
43
0
10
896
20
832
10
1328
20
832
0
LWPOLYLINE
5
96
100
AcDbEntity
8
Layer_1
6
ByLayer
62
1
370
-1
100
AcDbPolyline
90
2
70
0
43
0
10
1408
20
832
10
1424
20
832
0
LWPOLYLINE
5
97
100
AcDbEntity
8
Layer_1
6
ByLayer
62
1
370
-1
100
AcDbPolyline
90
2
70
0
43
0
10
1504
20
832
10
1520
20
832
0
LWPOLYLINE
5
98
100
AcDbEntity
8
Layer_1
6
ByLayer
62
1
370
-1
100
AcDbPolyline
90
2
70
0
43
0
10
1600
20
832
10
1616
20
832
0
LWPOLYLINE
5
99
100
AcDbEntity
8
Layer_1
6
ByLayer
62
1
370
-1
100
AcDbPolyline
90
2
70
0
43
0
10
1696
20
832
10
1712
20
832
0
LWPOLYLINE
5
9A
100
AcDbEntity
8
Layer_1
6
ByLayer
62
1
370
-1
100
AcDbPolyline
90
2
70
0
43
0
10
1792
20
832
10
1904
20
832
0
LWPOLYLINE
5
9B
100
AcDbEntity
8
Layer_1
6
ByLayer
62
1
370
-1
100
AcDbPolyline
90
2
70
0
43
0
10
1984
20
832
10
2000
20
832
0
LWPOLYLINE
5
9C
100
AcDbEntity
8
Layer_1
6
ByLayer
62
1
370
-1
100
AcDbPolyline
90
2
70
0
43
0
10
2080
20
832
10
2096
20
832
0
LWPOLYLINE
5
9D
100
AcDbEntity
8
Layer_1
6
ByLayer
62
1
370
-1
100
AcDbPolyline
90
2
70
0
43
0
10
2176
20
752
10
2176
20
736
0
LWPOLYLINE
5
9E
100
AcDbEntity
8
Layer_1
6
ByLayer
62
1
370
-1
100
AcDbPolyline
90
2
70
0
43
0
10
2176
20
656
10
2176
20
640
0
LWPOLYLINE
5
9F
100
AcDbEntity
8
Layer_1
6
ByLayer
62
1
370
-1
100
AcDbPolyline
90
2
70
0
43
0
10
2176
20
560
10
2176
20
544
0
LWPOLYLINE
5
A0
100
AcDbEntity
8
Layer_1
6
ByLayer
62
1
370
-1
100
AcDbPolyline
90
2
70
0
43
0
10
2176
20
464
10
2176
20
448
0
LWPOLYLINE
5
A1
100
AcDbEntity
8
Layer_1
6
ByLayer
62
1
370
-1
100
AcDbPolyline
90
2
70
0
43
0
10
2176
20
368
10
2176
20
240
0
LWPOLYLINE
5
A2
100
AcDbEntity
8
Layer_1
6
ByLayer
62
1
370
-1
100
AcDbPolyline
90
2
70
0
43
0
10
2176
20
160
10
2176
20
144
0
LWPOLYLINE
5
A3
100
AcDbEntity
8
Layer_1
6
ByLayer
62
1
370
-1
100
AcDbPolyline
90
2
70
0
43
0
10
1984
20
64
10
2000
20
64
0
LWPOLYLINE
5
A4
100
AcDbEntity
8
Layer_1
6
ByLayer
62
1
370
-1
100
AcDbPolyline
90
2
70
0
43
0
10
2080
20
64
10
2096
20
64
0
LWPOLYLINE
5
A5
100
AcDbEntity
8
Layer_1
6
ByLayer
62
1
370
-1
100
AcDbPolyline
90
2
70
0
43
0
10
1904
20
64
10
1616
20
64
0
LWPOLYLINE
5
A6
100
AcDbEntity
8
Layer_1
6
ByLayer
62
1
370
-1
100
AcDbPolyline
90
2
70
0
43
0
10
1536
20
64
10
1184
20
64
0
LWPOLYLINE
5
A7
100
AcDbEntity
8
Layer_1
6
ByLayer
62
1
370
-1
100
AcDbPolyline
90
2
70
0
43
0
10
992
20
64
10
1008
20
64
0
LWPOLYLINE
5
A8
100
AcDbEntity
8
Layer_1
6
ByLayer
62
1
370
-1
100
AcDbPolyline
90
2
70
0
43
0
10
1088
20
64
10
1104
20
64
0
LWPOLYLINE
5
A9
100
AcDbEntity
8
Layer_1
6
ByLayer
62
1
370
-1
100
AcDbPolyline
90
2
70
0
43
0
10
912
20
64
10
656
20
64
0
LWPOLYLINE
5
AA
100
AcDbEntity
8
Layer_1
6
ByLayer
62
1
370
-1
100
AcDbPolyline
90
2
70
0
43
0
10
576
20
64
10
560
20
64
0
LWPOLYLINE
5
AB
100
AcDbEntity
8
Layer_1
6
ByLayer
62
1
370
-1
100
AcDbPolyline
90
2
70
0
43
0
10
480
20
64
10
464
20
64
0
LWPOLYLINE
5
AC
100
AcDbEntity
8
Layer_1
6
ByLayer
62
1
370
-1
100
AcDbPolyline
90
2
70
0
43
0
10
368
20
64
10
384
20
64
0
LWPOLYLINE
5
AD
100
AcDbEntity
8
Layer_1
6
ByLayer
62
1
370
-1
100
AcDbPolyline
90
3
70
0
43
0
10
288
20
64
10
96
20
64
10
96
20
304
0
LWPOLYLINE
5
AE
100
AcDbEntity
8
Layer_1
6
ByLayer
62
1
370
-1
100
AcDbPolyline
90
2
70
0
43
0
10
96
20
400
10
96
20
384
0
LWPOLYLINE
5
AF
100
AcDbEntity
8
Layer_1
6
ByLayer
62
1
370
-1
100
AcDbPolyline
90
2
70
0
43
0
10
96
20
480
10
96
20
832
0
LWPOLYLINE
5
B0
100
AcDbEntity
8
Layer_1
6
ByLayer
62
7
370
-1
100
AcDbPolyline
90
13
70
0
43
0
10
567.257816
20
1395.601541
10
606.71094
20
1395.601541
10
606.71094
20
1276.07029
10
750.070318
20
1276.07029
10
750.070318
20
1395.601541
10
789.523442
20
1395.601541
10
789.523442
20
1103.999972
10
750.070318
20
1103.999972
10
750.070318
20
1242.867159
10
606.71094
20
1242.867159
10
606.71094
20
1103.999972
10
567.257816
20
1103.999972
10
567.257816
20
1395.601541
0
LWPOLYLINE
5
B1
100
AcDbEntity
8
Layer_1
6
ByLayer
62
7
370
-1
100
AcDbPolyline
90
4
70
0
43
0
10
925.500016
20
1356.734357
10
871.984388
20
1211.617159
10
979.210954
20
1211.617159
10
925.500016
20
1356.734357
0
LWPOLYLINE
5
B2
100
AcDbEntity
8
Layer_1
6
ByLayer
62
7
370
-1
100
AcDbPolyline
90
9
70
0
43
0
10
903.234388
20
1395.601541
10
947.960953
20
1395.601541
10
1059.093761
20
1103.999972
10
1018.078137
20
1103.999972
10
991.515638
20
1178.804667
10
860.070324
20
1178.804667
10
833.507824
20
1103.999972
10
791.90626
20
1103.999972
10
903.234388
20
1395.601541
0
SPLINE
5
B3
100
AcDbEntity
8
Layer_1
6
ByLayer
62
7
370
-1
100
AcDbSpline
210
0
220
0
230
1
70
8
71
3
72
8
73
4
74
0
42
1e-07
43
1e-07
40
0
40
0
40
0
40
0
40
1
40
1
40
1
40
1
10
1164.210955
20
1136.421853
30
0
10
1185.43475
20
1136.421815
30
0
10
1201.124837
20
1140.783796
30
0
10
1211.28127
20
1149.507787
30
0
0
SPLINE
5
B4
100
AcDbEntity
8
Layer_1
6
ByLayer
62
7
370
-1
100
AcDbSpline
210
0
220
0
230
1
70
8
71
3
72
8
73
4
74
0
42
1e-07
43
1e-07
40
0
40
0
40
0
40
0
40
1
40
1
40
1
40
1
10
1211.28127
20
1149.507787
30
0
10
1221.567525
20
1158.361903
30
0
10
1226.710747
20
1171.838448
30
0
10
1226.710956
20
1189.937471
30
0
0
SPLINE
5
B5
100
AcDbEntity
8
Layer_1
6
ByLayer
62
7
370
-1
100
AcDbSpline
210
0
220
0
230
1
70
8
71
3
72
8
73
4
74
0
42
1e-07
43
1e-07
40
0
40
0
40
0
40
0
40
1
40
1
40
1
40
1
10
1226.710956
20
1189.937471
30
0
10
1226.710747
20
1208.166542
30
0
10
1221.567525
20
1221.577988
30
0
10
1211.28127
20
1230.171854
30
0
0
SPLINE
5
B6
100
AcDbEntity
8
Layer_1
6
ByLayer
62
7
370
-1
100
AcDbSpline
210
0
220
0
230
1
70
8
71
3
72
8
73
4
74
0
42
1e-07
43
1e-07
40
0
40
0
40
0
40
0
40
1
40
1
40
1
40
1
10
1211.28127
20
1230.171854
30
0
10
1201.124837
20
1238.895675
30
0
10
1185.43475
20
1243.257647
30
0
10
1164.210955
20
1243.257789
30
0
0
LWPOLYLINE
5
B7
100
AcDbEntity
8
Layer_1
6
ByLayer
62
7
370
-1
100
AcDbPolyline
90
3
70
0
43
0
10
1100.929703
20
1243.257789
10
1100.929703
20
1136.421853
10
1164.210955
20
1136.421853
0
LWPOLYLINE
5
B8
100
AcDbEntity
8
Layer_1
6
ByLayer
62
7
370
-1
100
AcDbPolyline
90
2
70
0
43
0
10
1164.210955
20
1243.257789
10
1100.929703
20
1243.257789
0
SPLINE
5
B9
100
AcDbEntity
8
Layer_1
6
ByLayer
62
7
370
-1
100
AcDbSpline
210
0
220
0
230
1
70
8
71
3
72
8
73
4
74
0
42
1e-07
43
1e-07
40
0
40
0
40
0
40
0
40
1
40
1
40
1
40
1
10
1159.328143
20
1275.28904
30
0
10
1178.598818
20
1275.288869
30
0
10
1192.921723
20
1278.869591
30
0
10
1202.296888
20
1286.031224
30
0
0
SPLINE
5
BA
100
AcDbEntity
8
Layer_1
6
ByLayer
62
7
370
-1
100
AcDbSpline
210
0
220
0
230
1
70
8
71
3
72
8
73
4
74
0
42
1e-07
43
1e-07
40
0
40
0
40
0
40
0
40
1
40
1
40
1
40
1
10
1202.296888
20
1286.031224
30
0
10
1211.801911
20
1293.322706
30
0
10
1216.554513
20
1304.3904
30
0
10
1216.554702
20
1319.234355
30
0
0
SPLINE
5
BB
100
AcDbEntity
8
Layer_1
6
ByLayer
62
7
370
-1
100
AcDbSpline
210
0
220
0
230
1
70
8
71
3
72
8
73
4
74
0
42
1e-07
43
1e-07
40
0
40
0
40
0
40
0
40
1
40
1
40
1
40
1
10
1216.554702
20
1319.234355
30
0
10
1216.554513
20
1333.947662
30
0
10
1211.801911
20
1344.950256
30
0
10
1202.296888
20
1352.242166
30
0
0
SPLINE
5
BC
100
AcDbEntity
8
Layer_1
6
ByLayer
62
7
370
-1
100
AcDbSpline
210
0
220
0
230
1
70
8
71
3
72
8
73
4
74
0
42
1e-07
43
1e-07
40
0
40
0
40
0
40
0
40
1
40
1
40
1
40
1
10
1202.296888
20
1352.242166
30
0
10
1192.921723
20
1359.533572
30
0
10
1178.598818
20
1363.179404
30
0
10
1159.328143
20
1363.179669
30
0
0
LWPOLYLINE
5
BD
100
AcDbEntity
8
Layer_1
6
ByLayer
62
7
370
-1
100
AcDbPolyline
90
3
70
0
43
0
10
1100.929703
20
1363.179669
10
1100.929703
20
1275.28904
10
1159.328143
20
1275.28904
0
LWPOLYLINE
5
BE
100
AcDbEntity
8
Layer_1
6
ByLayer
62
7
370
-1
100
AcDbPolyline
90
2
70
0
43
0
10
1159.328143
20
1363.179669
10
1100.929703
20
1363.179669
0
SPLINE
5
BF
100
AcDbEntity
8
Layer_1
6
ByLayer
62
7
370
-1
100
AcDbSpline
210
0
220
0
230
1
70
8
71
3
72
8
73
4
74
0
42
1e-07
43
1e-07
40
0
40
0
40
0
40
0
40
1
40
1
40
1
40
1
10
1162.257834
20
1395.601541
30
0
10
1192.335783
20
1395.601246
30
0
10
1215.512842
20
1389.351254
30
0
10
1231.789078
20
1376.851544
30
0
0
SPLINE
5
C0
100
AcDbEntity
8
Layer_1
6
ByLayer
62
7
370
-1
100
AcDbSpline
210
0
220
0
230
1
70
8
71
3
72
8
73
4
74
0
42
1e-07
43
1e-07
40
0
40
0
40
0
40
0
40
1
40
1
40
1
40
1
10
1231.789078
20
1376.851544
30
0
10
1248.064895
20
1364.351284
30
0
10
1256.202908
20
1346.577857
30
0
10
1256.203146
20
1323.531226
30
0
0
SPLINE
5
C1
100
AcDbEntity
8
Layer_1
6
ByLayer
62
7
370
-1
100
AcDbSpline
210
0
220
0
230
1
70
8
71
3
72
8
73
4
74
0
42
1e-07
43
1e-07
40
0
40
0
40
0
40
0
40
1
40
1
40
1
40
1
10
1256.203146
20
1323.531226
30
0
10
1256.202908
20
1305.692481
30
0
10
1252.036247
20
1291.499786
30
0
10
1243.703142
20
1280.953102
30
0
0
SPLINE
5
C2
100
AcDbEntity
8
Layer_1
6
ByLayer
62
7
370
-1
100
AcDbSpline
210
0
220
0
230
1
70
8
71
3
72
8
73
4
74
0
42
1e-07
43
1e-07
40
0
40
0
40
0
40
0
40
1
40
1
40
1
40
1
10
1243.703142
20
1280.953102
30
0
10
1235.3696
20
1270.406057
30
0
10
1223.130025
20
1263.830545
30
0
10
1206.984389
20
1261.226535
30
0
0
SPLINE
5
C3
100
AcDbEntity
8
Layer_1
6
ByLayer
62
7
370
-1
100
AcDbSpline
210
0
220
0
230
1
70
8
71
3
72
8
73
4
74
0
42
1e-07
43
1e-07
40
0
40
0
40
0
40
0
40
1
40
1
40
1
40
1
10
1206.984389
20
1261.226535
30
0
10
1226.385227
20
1257.059722
30
0
10
1241.424282
20
1248.335768
30
0
10
1252.101584
20
1235.054666
30
0
0
SPLINE
5
C4
100
AcDbEntity
8
Layer_1
6
ByLayer
62
7
370
-1
100
AcDbSpline
210
0
220
0
230
1
70
8
71
3
72
8
73
4
74
0
42
1e-07
43
1e-07
40
0
40
0
40
0
40
0
40
1
40
1
40
1
40
1
10
1252.101584
20
1235.054666
30
0
10
1262.908631
20
1221.903508
30
0
10
1268.312273
20
1205.432162
30
0
10
1268.31252
20
1185.6406
30
0
0
SPLINE
5
C5
100
AcDbEntity
8
Layer_1
6
ByLayer
62
7
370
-1
100
AcDbSpline
210
0
220
0
230
1
70
8
71
3
72
8
73
4
74
0
42
1e-07
43
1e-07
40
0
40
0
40
0
40
0
40
1
40
1
40
1
40
1
10
1268.31252
20
1185.6406
30
0
10
1268.312273
20
1159.598874
30
0
10
1259.45811
20
1139.481706
30
0
10
1241.750021
20
1125.289039
30
0
0
SPLINE
5
C6
100
AcDbEntity
8
Layer_1
6
ByLayer
62
7
370
-1
100
AcDbSpline
210
0
220
0
230
1
70
8
71
3
72
8
73
4
74
0
42
1e-07
43
1e-07
40
0
40
0
40
0
40
0
40
1
40
1
40
1
40
1
10
1241.750021
20
1125.289039
30
0
10
1224.041485
20
1111.096324
30
0
10
1198.846196
20
1103.999972
30
0
10
1166.164075
20
1103.999972
30
0
0
LWPOLYLINE
5
C7
100
AcDbEntity
8
Layer_1
6
ByLayer
62
7
370
-1
100
AcDbPolyline
90
2
70
0
43
0
10
1061.47658
20
1395.601541
10
1162.257834
20
1395.601541
0
LWPOLYLINE
5
C8
100
AcDbEntity
8
Layer_1
6
ByLayer
62
7
370
-1
100
AcDbPolyline
90
3
70
0
43
0
10
1166.164075
20
1103.999972
10
1061.47658
20
1103.999972
10
1061.47658
20
1395.601541
0
LWPOLYLINE
5
C9
100
AcDbEntity
8
Layer_1
6
ByLayer
62
7
370
-1
100
AcDbPolyline
90
8
70
0
43
0
10
1268.351568
20
1322.749976
10
1306.437502
20
1322.749976
10
1374.796884
20
1139.156224
10
1443.156258
20
1322.749976
10
1481.242181
20
1322.749976
10
1399.210943
20
1103.999972
10
1350.382816
20
1103.999972
10
1268.351568
20
1322.749976
0
LWPOLYLINE
5
CA
100
AcDbEntity
8
Layer_1
6
ByLayer
62
7
370
-1
100
AcDbPolyline
90
5
70
0
43
0
10
1530.851558
20
1322.749976
10
1566.789032
20
1322.749976
10
1566.789032
20
1103.999972
10
1530.851558
20
1103.999972
10
1530.851558
20
1322.749976
0
LWPOLYLINE
5
CB
100
AcDbEntity
8
Layer_1
6
ByLayer
62
7
370
-1
100
AcDbPolyline
90
5
70
0
43
0
10
1530.851558
20
1407.906225
10
1566.789032
20
1407.906225
10
1566.789032
20
1362.398419
10
1530.851558
20
1362.398419
10
1530.851558
20
1407.906225
0
LWPOLYLINE
5
CC
100
AcDbEntity
8
Layer_1
6
ByLayer
62
7
370
-1
100
AcDbPolyline
90
5
70
0
43
0
10
1641.789113
20
1407.906225
10
1677.726587
20
1407.906225
10
1677.726587
20
1103.999972
10
1641.789113
20
1103.999972
10
1641.789113
20
1407.906225
0
LWPOLYLINE
5
CD
100
AcDbEntity
8
Layer_1
6
ByLayer
62
7
370
-1
100
AcDbPolyline
90
5
70
0
43
0
10
1752.726573
20
1407.906225
10
1788.664141
20
1407.906225
10
1788.664141
20
1103.999972
10
1752.726573
20
1103.999972
10
1752.726573
20
1407.906225
0
SPLINE
5
CE
100
AcDbEntity
8
Layer_1
6
ByLayer
62
7
370
-1
100
AcDbSpline
210
0
220
0
230
1
70
8
71
3
72
8
73
4
74
0
42
1e-07
43
1e-07
40
0
40
0
40
0
40
0
40
1
40
1
40
1
40
1
10
1885.539116
20
1204.781226
30
0
10
1887.10154
20
1180.041562
30
0
10
1894.52346
20
1161.161374
30
0
10
1907.804686
20
1148.140597
30
0
0
SPLINE
5
CF
100
AcDbEntity
8
Layer_1
6
ByLayer
62
7
370
-1
100
AcDbSpline
210
0
220
0
230
1
70
8
71
3
72
8
73
4
74
0
42
1e-07
43
1e-07
40
0
40
0
40
0
40
0
40
1
40
1
40
1
40
1
10
1907.804686
20
1148.140597
30
0
10
1921.216074
20
1135.249944
30
0
10
1939.835861
20
1128.804641
30
0
10
1963.664141
20
1128.80466
30
0
0
SPLINE
5
D0
100
AcDbEntity
8
Layer_1
6
ByLayer
62
7
370
-1
100
AcDbSpline
210
0
220
0
230
1
70
8
71
3
72
8
73
4
74
0
42
1e-07
43
1e-07
40
0
40
0
40
0
40
0
40
1
40
1
40
1
40
1
10
1963.664141
20
1128.80466
30
0
10
1977.466016
20
1128.804641
30
0
10
1990.812371
20
1130.497342
30
0
10
2003.703204
20
1133.882792
30
0
0
SPLINE
5
D1
100
AcDbEntity
8
Layer_1
6
ByLayer
62
7
370
-1
100
AcDbSpline
210
0
220
0
230
1
70
8
71
3
72
8
73
4
74
0
42
1e-07
43
1e-07
40
0
40
0
40
0
40
0
40
1
40
1
40
1
40
1
10
2003.703204
20
1133.882792
30
0
10
2016.72382
20
1137.268175
30
0
10
2029.614464
20
1142.346287
30
0
10
2042.37504
20
1149.117167
30
0
0
LWPOLYLINE
5
D2
100
AcDbEntity
8
Layer_1
6
ByLayer
62
7
370
-1
100
AcDbPolyline
90
3
70
0
43
0
10
2050.773511
20
1222.359352
10
2050.773511
20
1204.781226
10
1885.539116
20
1204.781226
0
SPLINE
5
D3
100
AcDbEntity
8
Layer_1
6
ByLayer
62
7
370
-1
100
AcDbSpline
210
0
220
0
230
1
70
8
71
3
72
8
73
4
74
0
42
1e-07
43
1e-07
40
0
40
0
40
0
40
0
40
1
40
1
40
1
40
1
10
2042.37504
20
1115.132786
30
0
10
2029.484206
20
1109.664034
30
0
10
2016.268109
20
1105.497372
30
0
10
2002.726653
20
1102.632791
30
0
0
SPLINE
5
D4
100
AcDbEntity
8
Layer_1
6
ByLayer
62
7
370
-1
100
AcDbSpline
210
0
220
0
230
1
70
8
71
3
72
8
73
4
74
0
42
1e-07
43
1e-07
40
0
40
0
40
0
40
0
40
1
40
1
40
1
40
1
10
2002.726653
20
1102.632791
30
0
10
1989.184818
20
1099.76821
30
0
10
1975.447786
20
1098.33592
30
0
10
1961.515653
20
1098.33591
30
0
0
SPLINE
5
D5
100
AcDbEntity
8
Layer_1
6
ByLayer
62
7
370
-1
100
AcDbSpline
210
0
220
0
230
1
70
8
71
3
72
8
73
4
74
0
42
1e-07
43
1e-07
40
0
40
0
40
0
40
0
40
1
40
1
40
1
40
1
10
1961.515653
20
1098.33591
30
0
10
1926.619764
20
1098.33592
30
0
10
1898.950504
20
1108.492154
30
0
10
1878.507873
20
1128.80466
30
0
0
SPLINE
5
D6
100
AcDbEntity
8
Layer_1
6
ByLayer
62
7
370
-1
100
AcDbSpline
210
0
220
0
230
1
70
8
71
3
72
8
73
4
74
0
42
1e-07
43
1e-07
40
0
40
0
40
0
40
0
40
1
40
1
40
1
40
1
10
1878.507873
20
1128.80466
30
0
10
1858.195309
20
1149.117119
30
0
10
1848.039122
20
1176.59105
30
0
10
1848.039122
20
1211.226538
30
0
0
SPLINE
5
D7
100
AcDbEntity
8
Layer_1
6
ByLayer
62
7
370
-1
100
AcDbSpline
210
0
220
0
230
1
70
8
71
3
72
8
73
4
74
0
42
1e-07
43
1e-07
40
0
40
0
40
0
40
0
40
1
40
1
40
1
40
1
10
1848.039122
20
1211.226538
30
0
10
1848.039122
20
1247.033688
30
0
10
1857.674469
20
1275.419079
30
0
10
1876.945353
20
1296.382787
30
0
0
SPLINE
5
D8
100
AcDbEntity
8
Layer_1
6
ByLayer
62
7
370
-1
100
AcDbSpline
210
0
220
0
230
1
70
8
71
3
72
8
73
4
74
0
42
1e-07
43
1e-07
40
0
40
0
40
0
40
0
40
1
40
1
40
1
40
1
10
1876.945353
20
1296.382787
30
0
10
1896.346305
20
1317.476326
30
0
10
1922.453045
20
1328.02319
30
0
10
1955.26567
20
1328.023418
30
0
0
SPLINE
5
D9
100
AcDbEntity
8
Layer_1
6
ByLayer
62
7
370
-1
100
AcDbSpline
210
0
220
0
230
1
70
8
71
3
72
8
73
4
74
0
42
1e-07
43
1e-07
40
0
40
0
40
0
40
0
40
1
40
1
40
1
40
1
10
1955.26567
20
1328.023418
30
0
10
1984.69255
20
1328.02319
30
0
10
2007.934767
20
1318.517996
30
0
10
2024.992224
20
1299.507788
30
0
0
SPLINE
5
DA
100
AcDbEntity
8
Layer_1
6
ByLayer
62
7
370
-1
100
AcDbSpline
210
0
220
0
230
1
70
8
71
3
72
8
73
4
74
0
42
1e-07
43
1e-07
40
0
40
0
40
0
40
0
40
1
40
1
40
1
40
1
10
2024.992224
20
1299.507788
30
0
10
2042.179558
20
1280.627401
30
0
10
2050.773226
20
1254.911281
30
0
10
2050.773511
20
1222.359352
30
0
0
SPLINE
5
DB
100
AcDbEntity
8
Layer_1
6
ByLayer
62
7
370
-1
100
AcDbSpline
210
0
220
0
230
1
70
8
71
3
72
8
73
4
74
0
42
1e-07
43
1e-07
40
0
40
0
40
0
40
0
40
1
40
1
40
1
40
1
10
2014.835942
20
1232.906226
30
0
10
2014.575332
20
1252.56754
30
0
10
2009.041575
20
1268.257626
30
0
10
1998.234386
20
1279.976541
30
0
0
SPLINE
5
DC
100
AcDbEntity
8
Layer_1
6
ByLayer
62
7
370
-1
100
AcDbSpline
210
0
220
0
230
1
70
8
71
3
72
8
73
4
74
0
42
1e-07
43
1e-07
40
0
40
0
40
0
40
0
40
1
40
1
40
1
40
1
10
1998.234386
20
1279.976541
30
0
10
1987.55717
20
1291.695105
30
0
10
1973.364522
20
1297.554468
30
0
10
1955.656252
20
1297.554667
30
0
0
SPLINE
5
DD
100
AcDbEntity
8
Layer_1
6
ByLayer
62
7
370
-1
100
AcDbSpline
210
0
220
0
230
1
70
8
71
3
72
8
73
4
74
0
42
1e-07
43
1e-07
40
0
40
0
40
0
40
0
40
1
40
1
40
1
40
1
10
1955.656252
20
1297.554667
30
0
10
1935.604108
20
1297.554468
30
0
10
1919.523392
20
1291.890415
30
0
10
1907.414104
20
1280.562472
30
0
0
SPLINE
5
DE
100
AcDbEntity
8
Layer_1
6
ByLayer
62
7
370
-1
100
AcDbSpline
210
0
220
0
230
1
70
8
71
3
72
8
73
4
74
0
42
1e-07
43
1e-07
40
0
40
0
40
0
40
0
40
1
40
1
40
1
40
1
10
1907.414104
20
1280.562472
30
0
10
1895.434882
20
1269.234187
30
0
10
1888.533802
20
1253.28368
30
0
10
1886.710958
20
1232.710915
30
0
0
LWPOLYLINE
5
DF
100
AcDbEntity
8
Layer_1
6
ByLayer
62
7
370
-1
100
AcDbPolyline
90
2
70
0
43
0
10
2042.37504
20
1149.117167
10
2042.37504
20
1115.132786
0
SPLINE
5
E0
100
AcDbEntity
8
Layer_1
6
ByLayer
62
2
370
-1
100
AcDbSpline
210
0
220
0
230
1
70
8
71
3
72
8
73
4
74
0
42
1e-07
43
1e-07
40
0
40
0
40
0
40
0
40
1
40
1
40
1
40
1
10
365.103816
20
1022.33536
30
0
10
365.657664
20
1032.06632
30
0
10
361.72364
20
1109.4988
30
0
10
361.72364
20
1109.4988
30
0
0
SPLINE
5
E1
100
AcDbEntity
8
Layer_1
6
ByLayer
62
2
370
-1
100
AcDbSpline
210
0
220
0
230
1
70
8
71
3
72
8
73
4
74
0
42
1e-07
43
1e-07
40
0
40
0
40
0
40
0
40
1
40
1
40
1
40
1
10
361.72364
20
1109.4988
30
0
10
361.72364
20
1109.4988
30
0
10
363.121456
20
1188.30136
30
0
10
344.046904
20
1202.13224
30
0
0
SPLINE
5
E2
100
AcDbEntity
8
Layer_1
6
ByLayer
62
2
370
-1
100
AcDbSpline
210
0
220
0
230
1
70
8
71
3
72
8
73
4
74
0
42
1e-07
43
1e-07
40
0
40
0
40
0
40
0
40
1
40
1
40
1
40
1
10
344.046904
20
1202.13224
30
0
10
273.604896
20
1253.20912
30
0
10
221.009408
20
1287.15192
30
0
10
227.687992
20
1395.011536
30
0
0
SPLINE
5
E3
100
AcDbEntity
8
Layer_1
6
ByLayer
62
2
370
-1
100
AcDbSpline
210
0
220
0
230
1
70
8
71
3
72
8
73
4
74
0
42
1e-07
43
1e-07
40
0
40
0
40
0
40
0
40
1
40
1
40
1
40
1
10
227.687992
20
1395.011536
30
0
10
235.204112
20
1516.394976
30
0
10
326.484784
20
1537.073616
30
0
10
367.980896
20
1539.208976
30
0
0
SPLINE
5
E4
100
AcDbEntity
8
Layer_1
6
ByLayer
62
2
370
-1
100
AcDbSpline
210
0
220
0
230
1
70
8
71
3
72
8
73
4
74
0
42
1e-07
43
1e-07
40
0
40
0
40
0
40
0
40
1
40
1
40
1
40
1
10
367.980896
20
1539.208976
30
0
10
409.867992
20
1541.364256
30
0
10
514.418952
20
1528.196976
30
0
10
523.4084
20
1389.800416
30
0
0
SPLINE
5
E5
100
AcDbEntity
8
Layer_1
6
ByLayer
62
2
370
-1
100
AcDbSpline
210
0
220
0
230
1
70
8
71
3
72
8
73
4
74
0
42
1e-07
43
1e-07
40
0
40
0
40
0
40
0
40
1
40
1
40
1
40
1
10
523.4084
20
1389.800416
30
0
10
530.252976
20
1284.426
30
0
10
445.651512
20
1245.57856
30
0
10
379.354
20
1200.72624
30
0
0
SPLINE
5
E6
100
AcDbEntity
8
Layer_1
6
ByLayer
62
2
370
-1
100
AcDbSpline
210
0
220
0
230
1
70
8
71
3
72
8
73
4
74
0
42
1e-07
43
1e-07
40
0
40
0
40
0
40
0
40
1
40
1
40
1
40
1
10
379.354
20
1200.72624
30
0
10
361.07796
20
1188.36168
30
0
10
362.115416
20
1104.94624
30
0
10
362.115416
20
1104.94624
30
0
0
LWPOLYLINE
5
E7
100
AcDbEntity
8
Layer_1
6
ByLayer
62
7
370
-1
100
AcDbPolyline
90
2
70
0
43
0
10
1886.710958
20
1232.710915
10
2014.835942
20
1232.906226
0
LWPOLYLINE
5
E8
100
AcDbEntity
8
Layer_1
6
ByLayer
62
1
370
-1
100
AcDbPolyline
90
5
70
0
43
0
10
96
20
1664
10
2176
20
1664
10
2176
20
896
10
96
20
896
10
96
20
1664
0
ENDSEC
0
SECTION
2
OBJECTS
0
DICTIONARY
5
C
330
0
100
AcDbDictionary
281
1
3
ACAD_GROUP
350
D
0
DICTIONARY
5
D
330
C
100
AcDbDictionary
281
1
0
ENDSEC
0
EOF
