999
dxfrw 0.5.10
0
SECTION
2
HEADER
9
$ACADVER
1
AC1021
9
$HANDSEED
5
20000
9
$DWGCODEPAGE
3
ANSI_1252
9
$INSBASE
10
0
20
0
30
0
9
$EXTMIN
10
148.421496
20
1231.850032
30
0
9
$EXTMAX
10
1052.973256
20
1456.086896
30
0
9
$LIMMIN
10
0
20
0
9
$LIMMAX
10
420
20
297
9
$ORTHOMODE
70
0
9
$LTSCALE
40
1
9
$TEXTSTYLE
7
STANDARD
9
$DIMASZ
40
0.0025
9
$DIMSCALE
40
1
9
$DIMEXO
40
0.000625
9
$DIMEXE
40
0.00125
9
$DIMTXT
40
0.0025
9
$DIMTSZ
40
0
9
$DIMAUNIT
70
0
9
$DIMADEC
70
0
9
$DIMLUNIT
70
2
9
$DIMSTYLE
2
Standard
9
$DIMGAP
40
0.000625
9
$DIMTIH
70
0
9
$LUNITS
70
2
9
$LUPREC
70
4
9
$AUNITS
70
0
9
$AUPREC
70
2
9
$SPLINESEGS
70
8
9
$GRIDMODE
70
0
9
$SNAPSTYLE
70
0
9
$PINSBASE
10
0
20
0
30
0
9
$PLIMMIN
10
0
20
0
9
$PLIMMAX
10
0.00021
20
0.000297
9
$INSUNITS
70
6
9
$PSVPSCALE
40
1
0
ENDSEC
0
SECTION
2
CLASSES
0
ENDSEC
0
SECTION
2
TABLES
0
TABLE
2
VPORT
5
8
330
0
100
AcDbSymbolTable
70
1
0
VPORT
5
31
330
2
100
AcDbSymbolTableRecord
100
AcDbViewportTableRecord
2
*ACTIVE
70
0
10
0
20
0
11
1
21
1
12
759.720220798
22
921.240085509
13
0
23
0
14
10
24
10
15
10
25
10
16
0
26
0
36
1
17
0
27
0
37
0
40
1040.64941406
41
1.73614190687
42
50
43
0
44
0
50
0
51
0
71
0
72
100
73
1
74
3
75
0
76
0
77
0
78
0
281
0
65
1
110
0
120
0
130
0
111
1
121
0
131
0
112
0
122
1
132
0
79
0
146
0
348
10020
60
7
61
5
292
1
282
1
141
0
142
0
63
250
421
3358443
0
ENDTAB
0
TABLE
2
LTYPE
5
5
330
0
100
AcDbSymbolTable
70
4
0
LTYPE
5
14
330
5
100
AcDbSymbolTableRecord
100
AcDbLinetypeTableRecord
2
ByBlock
70
0
3

72
65
73
0
40
0
0
LTYPE
5
15
330
5
100
AcDbSymbolTableRecord
100
AcDbLinetypeTableRecord
2
ByLayer
70
0
3

72
65
73
0
40
0
0
LTYPE
5
16
330
5
100
AcDbSymbolTableRecord
100
AcDbLinetypeTableRecord
2
Continuous
70
0
3
Solid line
72
65
73
0
40
0
0
LTYPE
5
32
330
5
100
AcDbSymbolTableRecord
100
AcDbLinetypeTableRecord
2
DOT
70
0
3
Dot . . . . . . . . . . . . . . . . . . . . . .
72
65
73
2
40
6.35
49
0
74
0
49
-6.35
74
0
0
LTYPE
5
33
330
5
100
AcDbSymbolTableRecord
100
AcDbLinetypeTableRecord
2
DOT2
70
0
3
Dot (.5x) .....................................
72
65
73
2
40
3.175
49
0
74
0
49
-3.175
74
0
0
LTYPE
5
34
330
5
100
AcDbSymbolTableRecord
100
AcDbLinetypeTableRecord
2
DOTX2
70
0
3
Dot (2x) .  .  .  .  .  .  .  .  .  .  .  .  .
72
65
73
2
40
12.7
49
0
74
0
49
-12.7
74
0
0
LTYPE
5
35
330
5
100
AcDbSymbolTableRecord
100
AcDbLinetypeTableRecord
2
DASHED
70
0
3
Dot . . . . . . . . . . . . . . . . . . . . . .
72
65
73
2
40
19.05
49
12.7
74
0
49
-6.35
74
0
0
LTYPE
5
36
330
5
100
AcDbSymbolTableRecord
100
AcDbLinetypeTableRecord
2
DASHED2
70
0
3
Dashed (.5x) _ _ _ _ _ _ _ _ _ _ _ _ _ _ _ _ _
72
65
73
2
40
9.525
49
6.35
74
0
49
-3.175
74
0
0
LTYPE
5
37
330
5
100
AcDbSymbolTableRecord
100
AcDbLinetypeTableRecord
2
DASHEDX2
70
0
3
Dashed (2x) ____  ____  ____  ____  ____  ___
72
65
73
2
40
38.1
49
25.4
74
0
49
-12.7
74
0
0
LTYPE
5
38
330
5
100
AcDbSymbolTableRecord
100
AcDbLinetypeTableRecord
2
DASHDOT
70
0
3
Dash dot __ . __ . __ . __ . __ . __ . __ . __
72
65
73
4
40
25.4
49
12.7
74
0
49
-6.35
74
0
49
0
74
0
49
-6.35
74
0
0
LTYPE
5
39
330
5
100
AcDbSymbolTableRecord
100
AcDbLinetypeTableRecord
2
DASHDOT2
70
0
3
Dash dot (.5x) _._._._._._._._._._._._._._._.
72
65
73
4
40
12.7
49
6.35
74
0
49
-3.175
74
0
49
0
74
0
49
-3.175
74
0
0
LTYPE
5
3A
330
5
100
AcDbSymbolTableRecord
100
AcDbLinetypeTableRecord
2
DASHDOTX2
70
0
3
Dash dot (2x) ____  .  ____  .  ____  .  ___
72
65
73
4
40
50.8
49
25.4
74
0
49
-12.7
74
0
49
0
74
0
49
-12.7
74
0
0
LTYPE
5
3B
330
5
100
AcDbSymbolTableRecord
100
AcDbLinetypeTableRecord
2
DIVIDE
70
0
3
Divide ____ . . ____ . . ____ . . ____ . . ____
72
65
73
6
40
31.75
49
12.7
74
0
49
-6.35
74
0
49
0
74
0
49
-6.35
74
0
49
0
74
0
49
-6.35
74
0
0
LTYPE
5
3C
330
5
100
AcDbSymbolTableRecord
100
AcDbLinetypeTableRecord
2
DIVIDE2
70
0
3
Divide (.5x) __..__..__..__..__..__..__..__.._
72
65
73
6
40
15.875
49
6.35
74
0
49
-3.175
74
0
49
0
74
0
49
-3.175
74
0
49
0
74
0
49
-3.175
74
0
0
LTYPE
5
3D
330
5
100
AcDbSymbolTableRecord
100
AcDbLinetypeTableRecord
2
DIVIDEX2
70
0
3
Divide (2x) ________  .  .  ________  .  .  _
72
65
73
6
40
63.5
49
25.4
74
0
49
-12.7
74
0
49
0
74
0
49
-12.7
74
0
49
0
74
0
49
-12.7
74
0
0
LTYPE
5
3E
330
5
100
AcDbSymbolTableRecord
100
AcDbLinetypeTableRecord
2
BORDER
70
0
3
Border __ __ . __ __ . __ __ . __ __ . __ __ .
72
65
73
6
40
44.45
49
12.7
74
0
49
-6.35
74
0
49
12.7
74
0
49
-6.35
74
0
49
0
74
0
49
-6.35
74
0
0
LTYPE
5
3F
330
5
100
AcDbSymbolTableRecord
100
AcDbLinetypeTableRecord
2
BORDER2
70
0
3
Border (.5x) __.__.__.__.__.__.__.__.__.__.__.
72
65
73
6
40
22.225
49
6.35
74
0
49
-3.175
74
0
49
6.35
74
0
49
-3.175
74
0
49
0
74
0
49
-3.175
74
0
0
LTYPE
5
40
330
5
100
AcDbSymbolTableRecord
100
AcDbLinetypeTableRecord
2
BORDERX2
70
0
3
Border (2x) ____  ____  .  ____  ____  .  ___
72
65
73
6
40
88.9
49
25.4
74
0
49
-12.7
74
0
49
25.4
74
0
49
-12.7
74
0
49
0
74
0
49
-12.7
74
0
0
LTYPE
5
41
330
5
100
AcDbSymbolTableRecord
100
AcDbLinetypeTableRecord
2
CENTER
70
0
3
Center ____ _ ____ _ ____ _ ____ _ ____ _ ____
72
65
73
4
40
50.8
49
31.75
74
0
49
-6.35
74
0
49
6.35
74
0
49
-6.35
74
0
0
LTYPE
5
42
330
5
100
AcDbSymbolTableRecord
100
AcDbLinetypeTableRecord
2
CENTER2
70
0
3
Center (.5x) ___ _ ___ _ ___ _ ___ _ ___ _ ___
72
65
73
4
40
28.575
49
19.05
74
0
49
-3.175
74
0
49
3.175
74
0
49
-3.175
74
0
0
LTYPE
5
43
330
5
100
AcDbSymbolTableRecord
100
AcDbLinetypeTableRecord
2
CENTERX2
70
0
3
Center (2x) ________  __  ________  __  _____
72
65
73
4
40
101.6
49
63.5
74
0
49
-12.7
74
0
49
12.7
74
0
49
-12.7
74
0
0
ENDTAB
0
TABLE
2
LAYER
5
2
330
0
100
AcDbSymbolTable
70
1
0
LAYER
5
10
330
2
100
AcDbSymbolTableRecord
100
AcDbLayerTableRecord
2
0
70
0
62
7
6
CONTINUOUS
370
-3
390
F
0
LAYER
5
44
330
2
100
AcDbSymbolTableRecord
100
AcDbLayerTableRecord
2
Layer_1
70
0
62
7
6
CONTINUOUS
370
-3
390
F
0
ENDTAB
0
TABLE
2
STYLE
5
3
330
0
100
AcDbSymbolTable
70
3
0
STYLE
5
45
330
2
100
AcDbSymbolTableRecord
100
AcDbTextStyleTableRecord
2
Standard
70
0
40
0
41
1
50
0
71
0
42
1
3
txt
4

0
ENDTAB
0
TABLE
2
VIEW
5
6
330
0
100
AcDbSymbolTable
70
0
0
ENDTAB
0
TABLE
2
UCS
5
7
330
0
100
AcDbSymbolTable
70
0
0
ENDTAB
0
TABLE
2
APPID
5
9
330
0
100
AcDbSymbolTable
70
1
0
APPID
5
12
330
9
100
AcDbSymbolTableRecord
100
AcDbRegAppTableRecord
2
ACAD
70
0
0
ENDTAB
0
TABLE
2
DIMSTYLE
5
A
330
0
100
AcDbSymbolTable
70
1
100
AcDbDimStyleTable
71
1
0
DIMSTYLE
105
46
330
A
100
AcDbSymbolTableRecord
100
AcDbDimStyleTableRecord
2
Standard
70
0
40
1
41
0.0025
42
0.000625
43
0.38
44
0.00125
45
0
46
0
47
0
48
0
140
0.0025
141
0.09
142
0
143
25.4
144
1
145
0
146
1
147
0.000625
148
0
71
0
72
0
73
0
74
1
75
0
76
0
77
0
78
0
79
0
170
0
171
2
172
0
173
0
174
0
175
0
176
0
177
0
178
0
179
0
271
4
272
4
273
2
274
2
275
0
276
0
277
2
278
46
279
0
280
0
281
0
282
0
283
1
284
0
285
0
286
0
288
0
289
3
340
Standard
341

371
-2
372
-2
0
ENDTAB
0
TABLE
2
BLOCK_RECORD
5
1
330
0
100
AcDbSymbolTable
70
2
0
BLOCK_RECORD
5
1F
330
1
100
AcDbSymbolTableRecord
100
AcDbBlockTableRecord
2
*Model_Space
70
0
280
1
281
0
0
BLOCK_RECORD
5
1E
330
1
100
AcDbSymbolTableRecord
100
AcDbBlockTableRecord
2
*Paper_Space
70
0
280
1
281
0
0
ENDTAB
0
ENDSEC
0
SECTION
2
BLOCKS
0
BLOCK
5
20
330
1F
100
AcDbEntity
8
0
100
AcDbBlockBegin
2
*Model_Space
70
0
10
0
20
0
30
0
3
*Model_Space
1

0
ENDBLK
5
21
330
1F
100
AcDbEntity
8
0
100
AcDbBlockEnd
0
BLOCK
5
1C
330
1B
100
AcDbEntity
8
0
100
AcDbBlockBegin
2
*Paper_Space
70
0
10
0
20
0
30
0
3
*Paper_Space
1

0
ENDBLK
5
1D
330
1F
100
AcDbEntity
8
0
100
AcDbBlockEnd
0
ENDSEC
0
SECTION
2
ENTITIES
0
SPLINE
5
47
100
AcDbEntity
8
Layer_1
6
ByLayer
62
7
370
-1
100
AcDbSpline
210
0
220
0
230
1
70
8
71
3
72
8
73
4
74
0
42
1e-07
43
1e-07
40
0
40
0
40
0
40
0
40
1
40
1
40
1
40
1
10
867.603515
20
1360.955988
30
0
10
871.385552
20
1360.980707
30
0
10
875.167589
20
1361.005426
30
0
10
878.949626
20
1360.914789
30
0
0
SPLINE
5
48
100
AcDbEntity
8
Layer_1
6
ByLayer
62
7
370
-1
100
AcDbSpline
210
0
220
0
230
1
70
8
71
3
72
8
73
4
74
0
42
1e-07
43
1e-07
40
0
40
0
40
0
40
0
40
1
40
1
40
1
40
1
10
878.949626
20
1360.914789
30
0
10
878.941386
20
1353.260078
30
0
10
878.999064
20
1345.597127
30
0
10
878.933147
20
1337.942415
30
0
0
SPLINE
5
49
100
AcDbEntity
8
Layer_1
6
ByLayer
62
7
370
-1
100
AcDbSpline
210
0
220
0
230
1
70
8
71
3
72
8
73
4
74
0
42
1e-07
43
1e-07
40
0
40
0
40
0
40
0
40
1
40
1
40
1
40
1
10
878.933147
20
1337.942415
30
0
10
884.297212
20
1337.901217
30
0
10
889.677758
20
1337.983614
30
0
10
895.041823
20
1337.703463
30
0
0
SPLINE
5
4A
100
AcDbEntity
8
Layer_1
6
ByLayer
62
7
370
-1
100
AcDbSpline
210
0
220
0
230
1
70
8
71
3
72
8
73
4
74
0
42
1e-07
43
1e-07
40
0
40
0
40
0
40
0
40
1
40
1
40
1
40
1
10
895.041823
20
1337.703463
30
0
10
894.769912
20
1334.572365
30
0
10
894.357926
20
1331.457746
30
0
10
893.91298
20
1328.343127
30
0
0
SPLINE
5
4B
100
AcDbEntity
8
Layer_1
6
ByLayer
62
7
370
-1
100
AcDbSpline
210
0
220
0
230
1
70
8
71
3
72
8
73
4
74
0
42
1e-07
43
1e-07
40
0
40
0
40
0
40
0
40
1
40
1
40
1
40
1
10
893.91298
20
1328.343127
30
0
10
888.927942
20
1328.26897
30
0
10
883.942904
20
1328.293689
30
0
10
878.966106
20
1328.301929
30
0
0
SPLINE
5
4C
100
AcDbEntity
8
Layer_1
6
ByLayer
62
7
370
-1
100
AcDbSpline
210
0
220
0
230
1
70
8
71
3
72
8
73
4
74
0
42
1e-07
43
1e-07
40
0
40
0
40
0
40
0
40
1
40
1
40
1
40
1
10
878.966106
20
1328.301929
30
0
10
878.974345
20
1312.54756
30
0
10
878.916667
20
1296.801432
30
0
10
878.999064
20
1281.047064
30
0
0
SPLINE
5
4D
100
AcDbEntity
8
Layer_1
6
ByLayer
62
7
370
-1
100
AcDbSpline
210
0
220
0
230
1
70
8
71
3
72
8
73
4
74
0
42
1e-07
43
1e-07
40
0
40
0
40
0
40
0
40
1
40
1
40
1
40
1
10
878.999064
20
1281.047064
30
0
10
878.924907
20
1276.680005
30
0
10
880.96836
20
1271.711446
30
0
10
885.475494
20
1270.36837
30
0
0
SPLINE
5
4E
100
AcDbEntity
8
Layer_1
6
ByLayer
62
7
370
-1
100
AcDbSpline
210
0
220
0
230
1
70
8
71
3
72
8
73
4
74
0
42
1e-07
43
1e-07
40
0
40
0
40
0
40
0
40
1
40
1
40
1
40
1
10
885.475494
20
1270.36837
30
0
10
890.353416
20
1269.066492
30
0
10
895.478529
20
1269.824548
30
0
10
900.455327
20
1269.890465
30
0
0
SPLINE
5
4F
100
AcDbEntity
8
Layer_1
6
ByLayer
62
7
370
-1
100
AcDbSpline
210
0
220
0
230
1
70
8
71
3
72
8
73
4
74
0
42
1e-07
43
1e-07
40
0
40
0
40
0
40
0
40
1
40
1
40
1
40
1
10
900.455327
20
1269.890465
30
0
10
900.908513
20
1267.204313
30
0
10
901.336979
20
1264.51816
30
0
10
901.633609
20
1261.815528
30
0
0
SPLINE
5
50
100
AcDbEntity
8
Layer_1
6
ByLayer
62
7
370
-1
100
AcDbSpline
210
0
220
0
230
1
70
8
71
3
72
8
73
4
74
0
42
1e-07
43
1e-07
40
0
40
0
40
0
40
0
40
1
40
1
40
1
40
1
10
901.633609
20
1261.815528
30
0
10
892.644061
20
1259.805033
30
0
10
882.294957
20
1258.840984
30
0
10
874.21178
20
1264.147372
30
0
0
SPLINE
5
51
100
AcDbEntity
8
Layer_1
6
ByLayer
62
7
370
-1
100
AcDbSpline
210
0
220
0
230
1
70
8
71
3
72
8
73
4
74
0
42
1e-07
43
1e-07
40
0
40
0
40
0
40
0
40
1
40
1
40
1
40
1
10
874.21178
20
1264.147372
30
0
10
869.366817
20
1267.105436
30
0
10
867.661193
20
1273.153399
30
0
10
867.603515
20
1278.509225
30
0
0
SPLINE
5
52
100
AcDbEntity
8
Layer_1
6
ByLayer
62
7
370
-1
100
AcDbSpline
210
0
220
0
230
1
70
8
71
3
72
8
73
4
74
0
42
1e-07
43
1e-07
40
0
40
0
40
0
40
0
40
1
40
1
40
1
40
1
10
867.603515
20
1278.509225
30
0
10
867.611754
20
1295.112287
30
0
10
867.603515
20
1311.707108
30
0
10
867.595275
20
1328.301929
30
0
0
SPLINE
5
53
100
AcDbEntity
8
Layer_1
6
ByLayer
62
7
370
-1
100
AcDbSpline
210
0
220
0
230
1
70
8
71
3
72
8
73
4
74
0
42
1e-07
43
1e-07
40
0
40
0
40
0
40
0
40
1
40
1
40
1
40
1
10
867.595275
20
1328.301929
30
0
10
864.085149
20
1328.301929
30
0
10
860.583263
20
1328.310168
30
0
10
857.073137
20
1328.326648
30
0
0
SPLINE
5
54
100
AcDbEntity
8
Layer_1
6
ByLayer
62
7
370
-1
100
AcDbSpline
210
0
220
0
230
1
70
8
71
3
72
8
73
4
74
0
42
1e-07
43
1e-07
40
0
40
0
40
0
40
0
40
1
40
1
40
1
40
1
10
857.073137
20
1328.326648
30
0
10
857.073137
20
1331.441267
30
0
10
857.064897
20
1334.555885
30
0
10
857.031938
20
1337.678744
30
0
0
SPLINE
5
55
100
AcDbEntity
8
Layer_1
6
ByLayer
62
7
370
-1
100
AcDbSpline
210
0
220
0
230
1
70
8
71
3
72
8
73
4
74
0
42
1e-07
43
1e-07
40
0
40
0
40
0
40
0
40
1
40
1
40
1
40
1
10
857.031938
20
1337.678744
30
0
10
860.550304
20
1337.942415
30
0
10
864.085149
20
1337.917696
30
0
10
867.619994
20
1337.909457
30
0
0
SPLINE
5
56
100
AcDbEntity
8
Layer_1
6
ByLayer
62
7
370
-1
100
AcDbSpline
210
0
220
0
230
1
70
8
71
3
72
8
73
4
74
0
42
1e-07
43
1e-07
40
0
40
0
40
0
40
0
40
1
40
1
40
1
40
1
10
867.619994
20
1337.909457
30
0
10
867.562316
20
1345.597127
30
0
10
867.644713
20
1353.276557
30
0
10
867.603515
20
1360.955988
30
0
0
LWPOLYLINE
5
57
100
AcDbEntity
8
Layer_1
6
ByLayer
62
1
370
-1
100
AcDbPolyline
90
5
70
0
43
0
10
148.421496
20
1456.086896
10
1052.973256
20
1456.086896
10
1052.973256
20
1231.850032
10
148.421496
20
1231.850032
10
148.421496
20
1456.086896
0
SPLINE
5
58
100
AcDbEntity
8
Layer_1
6
ByLayer
62
7
370
-1
100
AcDbSpline
210
0
220
0
230
1
70
8
71
3
72
8
73
4
74
0
42
1e-07
43
1e-07
40
0
40
0
40
0
40
0
40
1
40
1
40
1
40
1
10
452.996663
20
1359.752987
30
0
10
456.836379
20
1359.843624
30
0
10
460.684334
20
1359.851864
30
0
10
464.532289
20
1359.728268
30
0
0
SPLINE
5
59
100
AcDbEntity
8
Layer_1
6
ByLayer
62
7
370
-1
100
AcDbSpline
210
0
220
0
230
1
70
8
71
3
72
8
73
4
74
0
42
1e-07
43
1e-07
40
0
40
0
40
0
40
0
40
1
40
1
40
1
40
1
10
464.532289
20
1359.728268
30
0
10
464.50757
20
1326.975332
30
0
10
464.474611
20
1294.230635
30
0
10
464.548768
20
1261.477699
30
0
0
SPLINE
5
5A
100
AcDbEntity
8
Layer_1
6
ByLayer
62
7
370
-1
100
AcDbSpline
210
0
220
0
230
1
70
8
71
3
72
8
73
4
74
0
42
1e-07
43
1e-07
40
0
40
0
40
0
40
0
40
1
40
1
40
1
40
1
10
464.548768
20
1261.477699
30
0
10
460.692573
20
1261.378822
30
0
10
456.828139
20
1261.395301
30
0
10
452.971944
20
1261.469459
30
0
0
SPLINE
5
5B
100
AcDbEntity
8
Layer_1
6
ByLayer
62
7
370
-1
100
AcDbSpline
210
0
220
0
230
1
70
8
71
3
72
8
73
4
74
0
42
1e-07
43
1e-07
40
0
40
0
40
0
40
0
40
1
40
1
40
1
40
1
10
452.971944
20
1261.469459
30
0
10
452.988424
20
1294.230635
30
0
10
452.947225
20
1326.991811
30
0
10
452.996663
20
1359.752987
30
0
0
LWPOLYLINE
5
5C
100
AcDbEntity
8
Layer_1
6
ByLayer
62
7
370
-1
100
AcDbPolyline
90
2
70
0
43
0
10
867.603515
20
1360.955988
10
867.603515
20
1360.955988
0
SPLINE
5
5D
100
AcDbEntity
8
Layer_1
6
ByLayer
62
7
370
-1
100
AcDbSpline
210
0
220
0
230
1
70
8
71
3
72
8
73
4
74
0
42
1e-07
43
1e-07
40
0
40
0
40
0
40
0
40
1
40
1
40
1
40
1
10
590.122289
20
1337.093723
30
0
10
598.543295
20
1339.680999
30
0
10
607.92835
20
1339.598602
30
0
10
616.192802
20
1336.434544
30
0
0
SPLINE
5
5E
100
AcDbEntity
8
Layer_1
6
ByLayer
62
7
370
-1
100
AcDbSpline
210
0
220
0
230
1
70
8
71
3
72
8
73
4
74
0
42
1e-07
43
1e-07
40
0
40
0
40
0
40
0
40
1
40
1
40
1
40
1
10
616.192802
20
1336.434544
30
0
10
620.774093
20
1334.679481
30
0
10
624.226541
20
1330.839766
30
0
10
625.940405
20
1326.291434
30
0
0
SPLINE
5
5F
100
AcDbEntity
8
Layer_1
6
ByLayer
62
7
370
-1
100
AcDbSpline
210
0
220
0
230
1
70
8
71
3
72
8
73
4
74
0
42
1e-07
43
1e-07
40
0
40
0
40
0
40
0
40
1
40
1
40
1
40
1
10
625.940405
20
1326.291434
30
0
10
629.541168
20
1332.158123
30
0
10
635.531454
20
1336.409825
30
0
10
642.288034
20
1337.7941
30
0
0
SPLINE
5
60
100
AcDbEntity
8
Layer_1
6
ByLayer
62
7
370
-1
100
AcDbSpline
210
0
220
0
230
1
70
8
71
3
72
8
73
4
74
0
42
1e-07
43
1e-07
40
0
40
0
40
0
40
0
40
1
40
1
40
1
40
1
10
642.288034
20
1337.7941
30
0
10
650.791438
20
1339.549163
30
0
10
660.118815
20
1339.458526
30
0
10
668.037198
20
1335.536414
30
0
0
SPLINE
5
61
100
AcDbEntity
8
Layer_1
6
ByLayer
62
7
370
-1
100
AcDbSpline
210
0
220
0
230
1
70
8
71
3
72
8
73
4
74
0
42
1e-07
43
1e-07
40
0
40
0
40
0
40
0
40
1
40
1
40
1
40
1
10
668.037198
20
1335.536414
30
0
10
675.914382
20
1331.498945
30
0
10
679.333871
20
1322.303404
30
0
10
679.548104
20
1313.898877
30
0
0
SPLINE
5
62
100
AcDbEntity
8
Layer_1
6
ByLayer
62
7
370
-1
100
AcDbSpline
210
0
220
0
230
1
70
8
71
3
72
8
73
4
74
0
42
1e-07
43
1e-07
40
0
40
0
40
0
40
0
40
1
40
1
40
1
40
1
10
679.548104
20
1313.898877
30
0
10
679.605782
20
1296.414165
30
0
10
679.523385
20
1278.937691
30
0
10
679.581063
20
1261.452979
30
0
0
SPLINE
5
63
100
AcDbEntity
8
Layer_1
6
ByLayer
62
7
370
-1
100
AcDbSpline
210
0
220
0
230
1
70
8
71
3
72
8
73
4
74
0
42
1e-07
43
1e-07
40
0
40
0
40
0
40
0
40
1
40
1
40
1
40
1
10
679.581063
20
1261.452979
30
0
10
675.774306
20
1261.387062
30
0
10
671.97579
20
1261.477699
30
0
10
668.177273
20
1261.452979
30
0
0
SPLINE
5
64
100
AcDbEntity
8
Layer_1
6
ByLayer
62
7
370
-1
100
AcDbSpline
210
0
220
0
230
1
70
8
71
3
72
8
73
4
74
0
42
1e-07
43
1e-07
40
0
40
0
40
0
40
0
40
1
40
1
40
1
40
1
10
668.177273
20
1261.452979
30
0
10
668.185513
20
1278.954171
30
0
10
668.218472
20
1296.447123
30
0
10
668.160794
20
1313.940075
30
0
0
SPLINE
5
65
100
AcDbEntity
8
Layer_1
6
ByLayer
62
7
370
-1
100
AcDbSpline
210
0
220
0
230
1
70
8
71
3
72
8
73
4
74
0
42
1e-07
43
1e-07
40
0
40
0
40
0
40
0
40
1
40
1
40
1
40
1
10
668.160794
20
1313.940075
30
0
10
668.004239
20
1318.817997
30
0
10
667.122587
20
1324.88244
30
0
10
662.343543
20
1327.420277
30
0
0
SPLINE
5
66
100
AcDbEntity
8
Layer_1
6
ByLayer
62
7
370
-1
100
AcDbSpline
210
0
220
0
230
1
70
8
71
3
72
8
73
4
74
0
42
1e-07
43
1e-07
40
0
40
0
40
0
40
0
40
1
40
1
40
1
40
1
10
662.343543
20
1327.420277
30
0
10
656.633408
20
1329.982834
30
0
10
650.132259
20
1329.455491
30
0
10
644.051337
20
1329.002306
30
0
0
SPLINE
5
67
100
AcDbEntity
8
Layer_1
6
ByLayer
62
7
370
-1
100
AcDbSpline
210
0
220
0
230
1
70
8
71
3
72
8
73
4
74
0
42
1e-07
43
1e-07
40
0
40
0
40
0
40
0
40
1
40
1
40
1
40
1
10
644.051337
20
1329.002306
30
0
10
639.387648
20
1328.128894
30
0
10
633.825829
20
1326.843496
30
0
10
631.510464
20
1322.212766
30
0
0
SPLINE
5
68
100
AcDbEntity
8
Layer_1
6
ByLayer
62
7
370
-1
100
AcDbSpline
210
0
220
0
230
1
70
8
71
3
72
8
73
4
74
0
42
1e-07
43
1e-07
40
0
40
0
40
0
40
0
40
1
40
1
40
1
40
1
10
631.510464
20
1322.212766
30
0
10
629.030305
20
1317.409003
30
0
10
628.527681
20
1311.855423
30
0
10
628.470003
20
1306.524316
30
0
0
SPLINE
5
69
100
AcDbEntity
8
Layer_1
6
ByLayer
62
7
370
-1
100
AcDbSpline
210
0
220
0
230
1
70
8
71
3
72
8
73
4
74
0
42
1e-07
43
1e-07
40
0
40
0
40
0
40
0
40
1
40
1
40
1
40
1
10
628.470003
20
1306.524316
30
0
10
628.470003
20
1291.503284
30
0
10
628.478243
20
1276.482251
30
0
10
628.461763
20
1261.452979
30
0
0
SPLINE
5
6A
100
AcDbEntity
8
Layer_1
6
ByLayer
62
7
370
-1
100
AcDbSpline
210
0
220
0
230
1
70
8
71
3
72
8
73
4
74
0
42
1e-07
43
1e-07
40
0
40
0
40
0
40
0
40
1
40
1
40
1
40
1
10
628.461763
20
1261.452979
30
0
10
624.679726
20
1261.452979
30
0
10
620.897689
20
1261.4365
30
0
10
617.115652
20
1261.411781
30
0
0
SPLINE
5
6B
100
AcDbEntity
8
Layer_1
6
ByLayer
62
7
370
-1
100
AcDbSpline
210
0
220
0
230
1
70
8
71
3
72
8
73
4
74
0
42
1e-07
43
1e-07
40
0
40
0
40
0
40
0
40
1
40
1
40
1
40
1
10
617.115652
20
1261.411781
30
0
10
617.066214
20
1278.097239
30
0
10
617.214529
20
1294.782698
30
0
10
617.033255
20
1311.459916
30
0
0
SPLINE
5
6C
100
AcDbEntity
8
Layer_1
6
ByLayer
62
7
370
-1
100
AcDbSpline
210
0
220
0
230
1
70
8
71
3
72
8
73
4
74
0
42
1e-07
43
1e-07
40
0
40
0
40
0
40
0
40
1
40
1
40
1
40
1
10
617.033255
20
1311.459916
30
0
10
616.959097
20
1316.197762
30
0
10
616.827261
20
1321.660704
30
0
10
613.152341
20
1325.17083
30
0
0
SPLINE
5
6D
100
AcDbEntity
8
Layer_1
6
ByLayer
62
7
370
-1
100
AcDbSpline
210
0
220
0
230
1
70
8
71
3
72
8
73
4
74
0
42
1e-07
43
1e-07
40
0
40
0
40
0
40
0
40
1
40
1
40
1
40
1
10
613.152341
20
1325.17083
30
0
10
608.735844
20
1329.529649
30
0
10
602.020462
20
1329.645005
30
0
10
596.219691
20
1329.216539
30
0
0
SPLINE
5
6E
100
AcDbEntity
8
Layer_1
6
ByLayer
62
7
370
-1
100
AcDbSpline
210
0
220
0
230
1
70
8
71
3
72
8
73
4
74
0
42
1e-07
43
1e-07
40
0
40
0
40
0
40
0
40
1
40
1
40
1
40
1
10
596.219691
20
1329.216539
30
0
10
590.501317
20
1328.5656
30
0
10
584.55223
20
1326.068961
30
0
10
581.429371
20
1320.985046
30
0
0
SPLINE
5
6F
100
AcDbEntity
8
Layer_1
6
ByLayer
62
7
370
-1
100
AcDbSpline
210
0
220
0
230
1
70
8
71
3
72
8
73
4
74
0
42
1e-07
43
1e-07
40
0
40
0
40
0
40
0
40
1
40
1
40
1
40
1
10
581.429371
20
1320.985046
30
0
10
578.215876
20
1315.975289
30
0
10
577.334224
20
1309.861408
30
0
10
577.383663
20
1304.019437
30
0
0
SPLINE
5
70
100
AcDbEntity
8
Layer_1
6
ByLayer
62
7
370
-1
100
AcDbSpline
210
0
220
0
230
1
70
8
71
3
72
8
73
4
74
0
42
1e-07
43
1e-07
40
0
40
0
40
0
40
0
40
1
40
1
40
1
40
1
10
577.383663
20
1304.019437
30
0
10
577.416622
20
1289.830618
30
0
10
577.334224
20
1275.641799
30
0
10
577.408382
20
1261.452979
30
0
0
SPLINE
5
71
100
AcDbEntity
8
Layer_1
6
ByLayer
62
7
370
-1
100
AcDbSpline
210
0
220
0
230
1
70
8
71
3
72
8
73
4
74
0
42
1e-07
43
1e-07
40
0
40
0
40
0
40
0
40
1
40
1
40
1
40
1
10
577.408382
20
1261.452979
30
0
10
573.609865
20
1261.403541
30
0
10
569.819588
20
1261.42826
30
0
10
566.021072
20
1261.420021
30
0
0
SPLINE
5
72
100
AcDbEntity
8
Layer_1
6
ByLayer
62
7
370
-1
100
AcDbSpline
210
0
220
0
230
1
70
8
71
3
72
8
73
4
74
0
42
1e-07
43
1e-07
40
0
40
0
40
0
40
0
40
1
40
1
40
1
40
1
10
566.021072
20
1261.420021
30
0
10
565.996353
20
1286.831356
30
0
10
566.021072
20
1312.24269
30
0
10
566.004592
20
1337.654025
30
0
0
SPLINE
5
73
100
AcDbEntity
8
Layer_1
6
ByLayer
62
7
370
-1
100
AcDbSpline
210
0
220
0
230
1
70
8
71
3
72
8
73
4
74
0
42
1e-07
43
1e-07
40
0
40
0
40
0
40
0
40
1
40
1
40
1
40
1
10
566.004592
20
1337.654025
30
0
10
569.46528
20
1337.975374
30
0
10
572.950687
20
1338.024813
30
0
10
576.403135
20
1337.530429
30
0
0
SPLINE
5
74
100
AcDbEntity
8
Layer_1
6
ByLayer
62
7
370
-1
100
AcDbSpline
210
0
220
0
230
1
70
8
71
3
72
8
73
4
74
0
42
1e-07
43
1e-07
40
0
40
0
40
0
40
0
40
1
40
1
40
1
40
1
10
576.403135
20
1337.530429
30
0
10
576.493772
20
1333.715433
30
0
10
576.86456
20
1329.908676
30
0
10
577.111751
20
1326.10192
30
0
0
SPLINE
5
75
100
AcDbEntity
8
Layer_1
6
ByLayer
62
7
370
-1
100
AcDbSpline
210
0
220
0
230
1
70
8
71
3
72
8
73
4
74
0
42
1e-07
43
1e-07
40
0
40
0
40
0
40
0
40
1
40
1
40
1
40
1
10
577.111751
20
1326.10192
30
0
10
579.756706
20
1331.358869
30
0
10
584.494552
20
1335.363379
30
0
10
590.122289
20
1337.093723
30
0
0
LWPOLYLINE
5
76
100
AcDbEntity
8
Layer_1
6
ByLayer
62
7
370
-1
100
AcDbPolyline
90
2
70
0
43
0
10
452.996663
20
1359.752987
10
452.996663
20
1359.752987
0
SPLINE
5
77
100
AcDbEntity
8
Layer_1
6
ByLayer
62
7
370
-1
100
AcDbSpline
210
0
220
0
230
1
70
8
71
3
72
8
73
4
74
0
42
1e-07
43
1e-07
40
0
40
0
40
0
40
0
40
1
40
1
40
1
40
1
10
927.275656
20
1339.194855
30
0
10
931.024734
20
1339.219574
30
0
10
934.782052
20
1339.194855
30
0
10
938.53937
20
1339.203095
30
0
0
SPLINE
5
78
100
AcDbEntity
8
Layer_1
6
ByLayer
62
7
370
-1
100
AcDbSpline
210
0
220
0
230
1
70
8
71
3
72
8
73
4
74
0
42
1e-07
43
1e-07
40
0
40
0
40
0
40
0
40
1
40
1
40
1
40
1
10
938.53937
20
1339.203095
30
0
10
938.646487
20
1313.280897
30
0
10
938.53937
20
1287.358699
30
0
10
938.597048
20
1261.42826
30
0
0
SPLINE
5
79
100
AcDbEntity
8
Layer_1
6
ByLayer
62
7
370
-1
100
AcDbSpline
210
0
220
0
230
1
70
8
71
3
72
8
73
4
74
0
42
1e-07
43
1e-07
40
0
40
0
40
0
40
0
40
1
40
1
40
1
40
1
10
938.597048
20
1261.42826
30
0
10
934.930367
20
1260.999794
30
0
10
931.214248
20
1260.835
30
0
10
927.547567
20
1261.329383
30
0
0
SPLINE
5
7A
100
AcDbEntity
8
Layer_1
6
ByLayer
62
7
370
-1
100
AcDbSpline
210
0
220
0
230
1
70
8
71
3
72
8
73
4
74
0
42
1e-07
43
1e-07
40
0
40
0
40
0
40
0
40
1
40
1
40
1
40
1
10
927.547567
20
1261.329383
30
0
10
926.830711
20
1267.28671
30
0
10
927.234457
20
1273.293475
30
0
10
927.14382
20
1279.27552
30
0
0
SPLINE
5
7B
100
AcDbEntity
8
Layer_1
6
ByLayer
62
7
370
-1
100
AcDbSpline
210
0
220
0
230
1
70
8
71
3
72
8
73
4
74
0
42
1e-07
43
1e-07
40
0
40
0
40
0
40
0
40
1
40
1
40
1
40
1
10
927.14382
20
1279.27552
30
0
10
927.217978
20
1299.248632
30
0
10
926.979026
20
1319.221744
30
0
10
927.275656
20
1339.194855
30
0
0
LWPOLYLINE
5
7C
100
AcDbEntity
8
Layer_1
6
ByLayer
62
7
370
-1
100
AcDbPolyline
90
2
70
0
43
0
10
590.122289
20
1337.093723
10
590.122289
20
1337.093723
0
SPLINE
5
7D
100
AcDbEntity
8
Layer_1
6
ByLayer
62
7
370
-1
100
AcDbSpline
210
0
220
0
230
1
70
8
71
3
72
8
73
4
74
0
42
1e-07
43
1e-07
40
0
40
0
40
0
40
0
40
1
40
1
40
1
40
1
10
958.932708
20
1339.153656
30
0
10
962.8713
20
1339.203095
30
0
10
966.809892
20
1339.236053
30
0
10
970.756724
20
1339.194855
30
0
0
SPLINE
5
7E
100
AcDbEntity
8
Layer_1
6
ByLayer
62
7
370
-1
100
AcDbSpline
210
0
220
0
230
1
70
8
71
3
72
8
73
4
74
0
42
1e-07
43
1e-07
40
0
40
0
40
0
40
0
40
1
40
1
40
1
40
1
10
970.756724
20
1339.194855
30
0
10
970.839121
20
1329.406053
30
0
10
970.699046
20
1319.617251
30
0
10
970.822642
20
1309.828449
30
0
0
SPLINE
5
7F
100
AcDbEntity
8
Layer_1
6
ByLayer
62
7
370
-1
100
AcDbSpline
210
0
220
0
230
1
70
8
71
3
72
8
73
4
74
0
42
1e-07
43
1e-07
40
0
40
0
40
0
40
0
40
1
40
1
40
1
40
1
10
970.822642
20
1309.828449
30
0
10
971.143991
20
1303.887602
30
0
10
971.300546
20
1297.831399
30
0
10
973.212164
20
1292.145983
30
0
0
SPLINE
5
80
100
AcDbEntity
8
Layer_1
6
ByLayer
62
7
370
-1
100
AcDbSpline
210
0
220
0
230
1
70
8
71
3
72
8
73
4
74
0
42
1e-07
43
1e-07
40
0
40
0
40
0
40
0
40
1
40
1
40
1
40
1
10
973.212164
20
1292.145983
30
0
10
973.978459
20
1289.764701
30
0
10
975.931276
20
1287.902521
30
0
10
978.279599
20
1287.070308
30
0
0
SPLINE
5
81
100
AcDbEntity
8
Layer_1
6
ByLayer
62
7
370
-1
100
AcDbSpline
210
0
220
0
230
1
70
8
71
3
72
8
73
4
74
0
42
1e-07
43
1e-07
40
0
40
0
40
0
40
0
40
1
40
1
40
1
40
1
10
978.279599
20
1287.070308
30
0
10
985.64592
20
1284.384155
30
0
10
993.597262
20
1284.590149
30
0
10
1001.326131
20
1284.573669
30
0
0
SPLINE
5
82
100
AcDbEntity
8
Layer_1
6
ByLayer
62
7
370
-1
100
AcDbSpline
210
0
220
0
230
1
70
8
71
3
72
8
73
4
74
0
42
1e-07
43
1e-07
40
0
40
0
40
0
40
0
40
1
40
1
40
1
40
1
10
1001.326131
20
1284.573669
30
0
10
1001.317891
20
1296.719035
30
0
10
1001.367329
20
1308.8644
30
0
10
1001.293172
20
1321.009766
30
0
0
SPLINE
5
83
100
AcDbEntity
8
Layer_1
6
ByLayer
62
7
370
-1
100
AcDbSpline
210
0
220
0
230
1
70
8
71
3
72
8
73
4
74
0
42
1e-07
43
1e-07
40
0
40
0
40
0
40
0
40
1
40
1
40
1
40
1
10
1001.293172
20
1321.009766
30
0
10
1005.03401
20
1321.125122
30
0
10
1008.774849
20
1321.133362
30
0
10
1012.523927
20
1321.026245
30
0
0
SPLINE
5
84
100
AcDbEntity
8
Layer_1
6
ByLayer
62
7
370
-1
100
AcDbSpline
210
0
220
0
230
1
70
8
71
3
72
8
73
4
74
0
42
1e-07
43
1e-07
40
0
40
0
40
0
40
0
40
1
40
1
40
1
40
1
10
1012.523927
20
1321.026245
30
0
10
1012.42505
20
1309.119832
30
0
10
1012.392091
20
1297.213419
30
0
10
1012.532167
20
1285.307005
30
0
0
SPLINE
5
85
100
AcDbEntity
8
Layer_1
6
ByLayer
62
7
370
-1
100
AcDbSpline
210
0
220
0
230
1
70
8
71
3
72
8
73
4
74
0
42
1e-07
43
1e-07
40
0
40
0
40
0
40
0
40
1
40
1
40
1
40
1
10
1012.532167
20
1285.307005
30
0
10
1017.138177
20
1285.79315
30
0
10
1021.735948
20
1286.39465
30
0
10
1026.366677
20
1286.575924
30
0
0
SPLINE
5
86
100
AcDbEntity
8
Layer_1
6
ByLayer
62
7
370
-1
100
AcDbSpline
210
0
220
0
230
1
70
8
71
3
72
8
73
4
74
0
42
1e-07
43
1e-07
40
0
40
0
40
0
40
0
40
1
40
1
40
1
40
1
10
1026.366677
20
1286.575924
30
0
10
1026.57267
20
1283.766175
30
0
10
1026.795143
20
1280.956427
30
0
10
1026.877541
20
1278.138437
30
0
0
SPLINE
5
87
100
AcDbEntity
8
Layer_1
6
ByLayer
62
7
370
-1
100
AcDbSpline
210
0
220
0
230
1
70
8
71
3
72
8
73
4
74
0
42
1e-07
43
1e-07
40
0
40
0
40
0
40
0
40
1
40
1
40
1
40
1
10
1026.877541
20
1278.138437
30
0
10
1022.147934
20
1277.199108
30
0
10
1017.36065
20
1276.589368
30
0
10
1012.573365
20
1276.111463
30
0
0
SPLINE
5
88
100
AcDbEntity
8
Layer_1
6
ByLayer
62
7
370
-1
100
AcDbSpline
210
0
220
0
230
1
70
8
71
3
72
8
73
4
74
0
42
1e-07
43
1e-07
40
0
40
0
40
0
40
0
40
1
40
1
40
1
40
1
10
1012.573365
20
1276.111463
30
0
10
1012.383851
20
1271.208823
30
0
10
1012.449769
20
1266.297942
30
0
10
1012.507447
20
1261.387062
30
0
0
SPLINE
5
89
100
AcDbEntity
8
Layer_1
6
ByLayer
62
7
370
-1
100
AcDbSpline
210
0
220
0
230
1
70
8
71
3
72
8
73
4
74
0
42
1e-07
43
1e-07
40
0
40
0
40
0
40
0
40
1
40
1
40
1
40
1
10
1012.507447
20
1261.387062
30
0
10
1008.758369
20
1260.975075
30
0
10
1004.968092
20
1260.81028
30
0
10
1001.235494
20
1261.4365
30
0
0
SPLINE
5
8A
100
AcDbEntity
8
Layer_1
6
ByLayer
62
7
370
-1
100
AcDbSpline
210
0
220
0
230
1
70
8
71
3
72
8
73
4
74
0
42
1e-07
43
1e-07
40
0
40
0
40
0
40
0
40
1
40
1
40
1
40
1
10
1001.235494
20
1261.4365
30
0
10
1001.35085
20
1265.894195
30
0
10
1001.326131
20
1270.35189
30
0
10
1001.33437
20
1274.809586
30
0
0
SPLINE
5
8B
100
AcDbEntity
8
Layer_1
6
ByLayer
62
7
370
-1
100
AcDbSpline
210
0
220
0
230
1
70
8
71
3
72
8
73
4
74
0
42
1e-07
43
1e-07
40
0
40
0
40
0
40
0
40
1
40
1
40
1
40
1
10
1001.33437
20
1274.809586
30
0
10
990.688636
20
1274.801346
30
0
10
979.210689
20
1274.084489
30
0
10
969.578442
20
1279.456795
30
0
0
SPLINE
5
8C
100
AcDbEntity
8
Layer_1
6
ByLayer
62
7
370
-1
100
AcDbSpline
210
0
220
0
230
1
70
8
71
3
72
8
73
4
74
0
42
1e-07
43
1e-07
40
0
40
0
40
0
40
0
40
1
40
1
40
1
40
1
10
969.578442
20
1279.456795
30
0
10
964.791157
20
1281.928715
30
0
10
962.121484
20
1286.963192
30
0
10
960.71249
20
1291.964709
30
0
0
SPLINE
5
8D
100
AcDbEntity
8
Layer_1
6
ByLayer
62
7
370
-1
100
AcDbSpline
210
0
220
0
230
1
70
8
71
3
72
8
73
4
74
0
42
1e-07
43
1e-07
40
0
40
0
40
0
40
0
40
1
40
1
40
1
40
1
10
960.71249
20
1291.964709
30
0
10
958.496002
20
1299.907811
30
0
10
958.965667
20
1308.229941
30
0
10
958.940947
20
1316.379036
30
0
0
SPLINE
5
8E
100
AcDbEntity
8
Layer_1
6
ByLayer
62
7
370
-1
100
AcDbSpline
210
0
220
0
230
1
70
8
71
3
72
8
73
4
74
0
42
1e-07
43
1e-07
40
0
40
0
40
0
40
0
40
1
40
1
40
1
40
1
10
958.940947
20
1316.379036
30
0
10
958.940947
20
1323.976069
30
0
10
958.932708
20
1331.564863
30
0
10
958.932708
20
1339.153656
30
0
0
LWPOLYLINE
5
8F
100
AcDbEntity
8
Layer_1
6
ByLayer
62
7
370
-1
100
AcDbPolyline
90
2
70
0
43
0
10
927.275656
20
1339.194855
10
927.275656
20
1339.194855
0
SPLINE
5
90
100
AcDbEntity
8
Layer_1
6
ByLayer
62
7
370
-1
100
AcDbSpline
210
0
220
0
230
1
70
8
71
3
72
8
73
4
74
0
42
1e-07
43
1e-07
40
0
40
0
40
0
40
0
40
1
40
1
40
1
40
1
10
389.31177
20
1337.892977
30
0
10
399.627915
20
1339.532684
30
0
10
410.339567
20
1339.260773
30
0
10
420.47444
20
1336.665257
30
0
0
SPLINE
5
91
100
AcDbEntity
8
Layer_1
6
ByLayer
62
7
370
-1
100
AcDbSpline
210
0
220
0
230
1
70
8
71
3
72
8
73
4
74
0
42
1e-07
43
1e-07
40
0
40
0
40
0
40
0
40
1
40
1
40
1
40
1
10
420.47444
20
1336.665257
30
0
10
425.360601
20
1335.528174
30
0
10
429.966612
20
1332.454754
30
0
10
431.919428
20
1327.683949
30
0
0
SPLINE
5
92
100
AcDbEntity
8
Layer_1
6
ByLayer
62
7
370
-1
100
AcDbSpline
210
0
220
0
230
1
70
8
71
3
72
8
73
4
74
0
42
1e-07
43
1e-07
40
0
40
0
40
0
40
0
40
1
40
1
40
1
40
1
10
431.919428
20
1327.683949
30
0
10
435.816822
20
1318.653202
30
0
10
435.619068
20
1308.534811
30
0
10
435.652027
20
1298.877845
30
0
0
SPLINE
5
93
100
AcDbEntity
8
Layer_1
6
ByLayer
62
7
370
-1
100
AcDbSpline
210
0
220
0
230
1
70
8
71
3
72
8
73
4
74
0
42
1e-07
43
1e-07
40
0
40
0
40
0
40
0
40
1
40
1
40
1
40
1
10
435.652027
20
1298.877845
30
0
10
436.105212
20
1297.213419
30
0
10
433.954642
20
1297.337015
30
0
10
432.941155
20
1297.304056
30
0
0
SPLINE
5
94
100
AcDbEntity
8
Layer_1
6
ByLayer
62
7
370
-1
100
AcDbSpline
210
0
220
0
230
1
70
8
71
3
72
8
73
4
74
0
42
1e-07
43
1e-07
40
0
40
0
40
0
40
0
40
1
40
1
40
1
40
1
10
432.941155
20
1297.304056
30
0
10
415.489402
20
1297.254617
30
0
10
398.029407
20
1297.452371
30
0
10
380.577654
20
1297.205179
30
0
0
SPLINE
5
95
100
AcDbEntity
8
Layer_1
6
ByLayer
62
7
370
-1
100
AcDbSpline
210
0
220
0
230
1
70
8
71
3
72
8
73
4
74
0
42
1e-07
43
1e-07
40
0
40
0
40
0
40
0
40
1
40
1
40
1
40
1
10
380.577654
20
1297.205179
30
0
10
380.923722
20
1290.308523
30
0
10
380.651811
20
1283.115237
30
0
10
383.313245
20
1276.605847
30
0
0
SPLINE
5
96
100
AcDbEntity
8
Layer_1
6
ByLayer
62
7
370
-1
100
AcDbSpline
210
0
220
0
230
1
70
8
71
3
72
8
73
4
74
0
42
1e-07
43
1e-07
40
0
40
0
40
0
40
0
40
1
40
1
40
1
40
1
10
383.313245
20
1276.605847
30
0
10
385.3155
20
1272.106953
30
0
10
390.588928
20
1270.714439
30
0
10
395.030144
20
1270.0635
30
0
0
SPLINE
5
97
100
AcDbEntity
8
Layer_1
6
ByLayer
62
7
370
-1
100
AcDbSpline
210
0
220
0
230
1
70
8
71
3
72
8
73
4
74
0
42
1e-07
43
1e-07
40
0
40
0
40
0
40
0
40
1
40
1
40
1
40
1
10
395.030144
20
1270.0635
30
0
10
406.615208
20
1268.769862
30
0
10
418.200274
20
1270.879233
30
0
10
429.735899
20
1271.662008
30
0
0
SPLINE
5
98
100
AcDbEntity
8
Layer_1
6
ByLayer
62
7
370
-1
100
AcDbSpline
210
0
220
0
230
1
70
8
71
3
72
8
73
4
74
0
42
1e-07
43
1e-07
40
0
40
0
40
0
40
0
40
1
40
1
40
1
40
1
10
429.735899
20
1271.662008
30
0
10
429.818296
20
1268.876978
30
0
10
430.032529
20
1266.100188
30
0
10
430.345639
20
1263.339878
30
0
0
SPLINE
5
99
100
AcDbEntity
8
Layer_1
6
ByLayer
62
7
370
-1
100
AcDbSpline
210
0
220
0
230
1
70
8
71
3
72
8
73
4
74
0
42
1e-07
43
1e-07
40
0
40
0
40
0
40
0
40
1
40
1
40
1
40
1
10
430.345639
20
1263.339878
30
0
10
416.577047
20
1260.843239
30
0
10
402.314067
20
1258.832745
30
0
10
388.405399
20
1261.461219
30
0
0
SPLINE
5
9A
100
AcDbEntity
8
Layer_1
6
ByLayer
62
7
370
-1
100
AcDbSpline
210
0
220
0
230
1
70
8
71
3
72
8
73
4
74
0
42
1e-07
43
1e-07
40
0
40
0
40
0
40
0
40
1
40
1
40
1
40
1
10
388.405399
20
1261.461219
30
0
10
383.972423
20
1262.334631
30
0
10
379.44881
20
1263.867221
30
0
10
376.07052
20
1266.98184
30
0
0
SPLINE
5
9B
100
AcDbEntity
8
Layer_1
6
ByLayer
62
7
370
-1
100
AcDbSpline
210
0
220
0
230
1
70
8
71
3
72
8
73
4
74
0
42
1e-07
43
1e-07
40
0
40
0
40
0
40
0
40
1
40
1
40
1
40
1
10
376.07052
20
1266.98184
30
0
10
371.967133
20
1271.052268
30
0
10
370.805331
20
1276.976635
30
0
10
369.758885
20
1282.439579
30
0
0
SPLINE
5
9C
100
AcDbEntity
8
Layer_1
6
ByLayer
62
7
370
-1
100
AcDbSpline
210
0
220
0
230
1
70
8
71
3
72
8
73
4
74
0
42
1e-07
43
1e-07
40
0
40
0
40
0
40
0
40
1
40
1
40
1
40
1
10
369.758885
20
1282.439579
30
0
10
368.621802
20
1289.855338
30
0
10
368.415809
20
1297.394693
30
0
10
368.613562
20
1304.884609
30
0
0
SPLINE
5
9D
100
AcDbEntity
8
Layer_1
6
ByLayer
62
7
370
-1
100
AcDbSpline
210
0
220
0
230
1
70
8
71
3
72
8
73
4
74
0
42
1e-07
43
1e-07
40
0
40
0
40
0
40
0
40
1
40
1
40
1
40
1
10
368.613562
20
1304.884609
30
0
10
368.98435
20
1312.621718
30
0
10
369.59409
20
1320.622498
30
0
10
372.972381
20
1327.725147
30
0
0
SPLINE
5
9E
100
AcDbEntity
8
Layer_1
6
ByLayer
62
7
370
-1
100
AcDbSpline
210
0
220
0
230
1
70
8
71
3
72
8
73
4
74
0
42
1e-07
43
1e-07
40
0
40
0
40
0
40
0
40
1
40
1
40
1
40
1
10
372.972381
20
1327.725147
30
0
10
376.029321
20
1333.871988
30
0
10
382.84358
20
1336.87949
30
0
10
389.31177
20
1337.892977
30
0
0
LWPOLYLINE
5
9F
100
AcDbEntity
8
Layer_1
6
ByLayer
62
7
370
-1
100
AcDbPolyline
90
2
70
0
43
0
10
958.932708
20
1339.153656
10
958.932708
20
1339.153656
0
SPLINE
5
A0
100
AcDbEntity
8
Layer_1
6
ByLayer
62
7
370
-1
100
AcDbSpline
210
0
220
0
230
1
70
8
71
3
72
8
73
4
74
0
42
1e-07
43
1e-07
40
0
40
0
40
0
40
0
40
1
40
1
40
1
40
1
10
502.080749
20
1337.851778
30
0
10
511.671797
20
1339.417328
30
0
10
521.551236
20
1339.178375
30
0
10
531.076367
20
1337.299716
30
0
0
SPLINE
5
A1
100
AcDbEntity
8
Layer_1
6
ByLayer
62
7
370
-1
100
AcDbSpline
210
0
220
0
230
1
70
8
71
3
72
8
73
4
74
0
42
1e-07
43
1e-07
40
0
40
0
40
0
40
0
40
1
40
1
40
1
40
1
10
531.076367
20
1337.299716
30
0
10
536.695864
20
1336.220311
30
0
10
542.488396
20
1333.245768
30
0
10
544.812001
20
1327.708668
30
0
0
SPLINE
5
A2
100
AcDbEntity
8
Layer_1
6
ByLayer
62
7
370
-1
100
AcDbSpline
210
0
220
0
230
1
70
8
71
3
72
8
73
4
74
0
42
1e-07
43
1e-07
40
0
40
0
40
0
40
0
40
1
40
1
40
1
40
1
10
544.812001
20
1327.708668
30
0
10
548.923627
20
1318.158818
30
0
10
548.486921
20
1307.480125
30
0
10
548.585798
20
1297.295816
30
0
0
SPLINE
5
A3
100
AcDbEntity
8
Layer_1
6
ByLayer
62
7
370
-1
100
AcDbSpline
210
0
220
0
230
1
70
8
71
3
72
8
73
4
74
0
42
1e-07
43
1e-07
40
0
40
0
40
0
40
0
40
1
40
1
40
1
40
1
10
548.585798
20
1297.295816
30
0
10
530.211195
20
1297.304056
30
0
10
511.836592
20
1297.369973
30
0
10
493.461989
20
1297.262857
30
0
0
SPLINE
5
A4
100
AcDbEntity
8
Layer_1
6
ByLayer
62
7
370
-1
100
AcDbSpline
210
0
220
0
230
1
70
8
71
3
72
8
73
4
74
0
42
1e-07
43
1e-07
40
0
40
0
40
0
40
0
40
1
40
1
40
1
40
1
10
493.461989
20
1297.262857
30
0
10
493.775099
20
1290.366201
30
0
10
493.602064
20
1283.156435
30
0
10
496.21406
20
1276.647046
30
0
0
SPLINE
5
A5
100
AcDbEntity
8
Layer_1
6
ByLayer
62
7
370
-1
100
AcDbSpline
210
0
220
0
230
1
70
8
71
3
72
8
73
4
74
0
42
1e-07
43
1e-07
40
0
40
0
40
0
40
0
40
1
40
1
40
1
40
1
10
496.21406
20
1276.647046
30
0
10
498.290472
20
1271.785604
30
0
10
504.074764
20
1270.524925
30
0
10
508.804371
20
1270.014061
30
0
0
SPLINE
5
A6
100
AcDbEntity
8
Layer_1
6
ByLayer
62
7
370
-1
100
AcDbSpline
210
0
220
0
230
1
70
8
71
3
72
8
73
4
74
0
42
1e-07
43
1e-07
40
0
40
0
40
0
40
0
40
1
40
1
40
1
40
1
10
508.804371
20
1270.014061
30
0
10
519.985687
20
1269.041773
30
0
10
531.183483
20
1270.623802
30
0
10
542.290643
20
1271.769124
30
0
0
SPLINE
5
A7
100
AcDbEntity
8
Layer_1
6
ByLayer
62
7
370
-1
100
AcDbSpline
210
0
220
0
230
1
70
8
71
3
72
8
73
4
74
0
42
1e-07
43
1e-07
40
0
40
0
40
0
40
0
40
1
40
1
40
1
40
1
10
542.290643
20
1271.769124
30
0
10
542.587273
20
1268.942896
30
0
10
542.933342
20
1266.124908
30
0
10
543.180534
20
1263.29044
30
0
0
SPLINE
5
A8
100
AcDbEntity
8
Layer_1
6
ByLayer
62
7
370
-1
100
AcDbSpline
210
0
220
0
230
1
70
8
71
3
72
8
73
4
74
0
42
1e-07
43
1e-07
40
0
40
0
40
0
40
0
40
1
40
1
40
1
40
1
10
543.180534
20
1263.29044
30
0
10
529.428421
20
1260.867958
30
0
10
515.247841
20
1258.882183
30
0
10
501.347413
20
1261.387062
30
0
0
SPLINE
5
A9
100
AcDbEntity
8
Layer_1
6
ByLayer
62
7
370
-1
100
AcDbSpline
210
0
220
0
230
1
70
8
71
3
72
8
73
4
74
0
42
1e-07
43
1e-07
40
0
40
0
40
0
40
0
40
1
40
1
40
1
40
1
10
501.347413
20
1261.387062
30
0
10
495.87623
20
1262.565343
30
0
10
489.951863
20
1264.666475
30
0
10
486.787806
20
1269.610314
30
0
0
SPLINE
5
AA
100
AcDbEntity
8
Layer_1
6
ByLayer
62
7
370
-1
100
AcDbSpline
210
0
220
0
230
1
70
8
71
3
72
8
73
4
74
0
42
1e-07
43
1e-07
40
0
40
0
40
0
40
0
40
1
40
1
40
1
40
1
10
486.787806
20
1269.610314
30
0
10
483.524872
20
1274.97438
30
0
10
482.6597
20
1281.335454
30
0
10
481.975802
20
1287.465815
30
0
0
SPLINE
5
AB
100
AcDbEntity
8
Layer_1
6
ByLayer
62
7
370
-1
100
AcDbSpline
210
0
220
0
230
1
70
8
71
3
72
8
73
4
74
0
42
1e-07
43
1e-07
40
0
40
0
40
0
40
0
40
1
40
1
40
1
40
1
10
481.975802
20
1287.465815
30
0
10
481.028233
20
1298.202186
30
0
10
480.987034
20
1309.152791
30
0
10
483.178803
20
1319.749086
30
0
0
SPLINE
5
AC
100
AcDbEntity
8
Layer_1
6
ByLayer
62
7
370
-1
100
AcDbSpline
210
0
220
0
230
1
70
8
71
3
72
8
73
4
74
0
42
1e-07
43
1e-07
40
0
40
0
40
0
40
0
40
1
40
1
40
1
40
1
10
483.178803
20
1319.749086
30
0
10
484.249968
20
1324.931878
30
0
10
486.260463
20
1330.353622
30
0
10
490.726398
20
1333.550638
30
0
0
SPLINE
5
AD
100
AcDbEntity
8
Layer_1
6
ByLayer
62
7
370
-1
100
AcDbSpline
210
0
220
0
230
1
70
8
71
3
72
8
73
4
74
0
42
1e-07
43
1e-07
40
0
40
0
40
0
40
0
40
1
40
1
40
1
40
1
10
490.726398
20
1333.550638
30
0
10
494.129407
20
1335.808325
30
0
10
498.100958
20
1337.085483
30
0
10
502.080749
20
1337.851778
30
0
0
LWPOLYLINE
5
AE
100
AcDbEntity
8
Layer_1
6
ByLayer
62
7
370
-1
100
AcDbPolyline
90
2
70
0
43
0
10
389.31177
20
1337.892977
10
389.31177
20
1337.892977
0
SPLINE
5
AF
100
AcDbEntity
8
Layer_1
6
ByLayer
62
7
370
-1
100
AcDbSpline
210
0
220
0
230
1
70
8
71
3
72
8
73
4
74
0
42
1e-07
43
1e-07
40
0
40
0
40
0
40
0
40
1
40
1
40
1
40
1
10
718.027654
20
1337.868258
30
0
10
728.253162
20
1339.491485
30
0
10
738.832978
20
1339.236053
30
0
10
748.91841
20
1336.854771
30
0
0
SPLINE
5
B0
100
AcDbEntity
8
Layer_1
6
ByLayer
62
7
370
-1
100
AcDbSpline
210
0
220
0
230
1
70
8
71
3
72
8
73
4
74
0
42
1e-07
43
1e-07
40
0
40
0
40
0
40
0
40
1
40
1
40
1
40
1
10
748.91841
20
1336.854771
30
0
10
753.919928
20
1335.725927
30
0
10
758.77313
20
1332.743144
30
0
10
760.833063
20
1327.856983
30
0
0
SPLINE
5
B1
100
AcDbEntity
8
Layer_1
6
ByLayer
62
7
370
-1
100
AcDbSpline
210
0
220
0
230
1
70
8
71
3
72
8
73
4
74
0
42
1e-07
43
1e-07
40
0
40
0
40
0
40
0
40
1
40
1
40
1
40
1
10
760.833063
20
1327.856983
30
0
10
764.903491
20
1318.348332
30
0
10
764.656299
20
1307.735557
30
0
10
764.656299
20
1297.584207
30
0
0
SPLINE
5
B2
100
AcDbEntity
8
Layer_1
6
ByLayer
62
7
370
-1
100
AcDbSpline
210
0
220
0
230
1
70
8
71
3
72
8
73
4
74
0
42
1e-07
43
1e-07
40
0
40
0
40
0
40
0
40
1
40
1
40
1
40
1
10
764.656299
20
1297.584207
30
0
10
746.273456
20
1296.87559
30
0
10
727.857654
20
1297.650124
30
0
10
709.466572
20
1297.188699
30
0
0
SPLINE
5
B3
100
AcDbEntity
8
Layer_1
6
ByLayer
62
7
370
-1
100
AcDbSpline
210
0
220
0
230
1
70
8
71
3
72
8
73
4
74
0
42
1e-07
43
1e-07
40
0
40
0
40
0
40
0
40
1
40
1
40
1
40
1
10
709.466572
20
1297.188699
30
0
10
710.183429
20
1290.201406
30
0
10
709.53249
20
1282.785647
30
0
10
712.515273
20
1276.243299
30
0
0
SPLINE
5
B4
100
AcDbEntity
8
Layer_1
6
ByLayer
62
7
370
-1
100
AcDbSpline
210
0
220
0
230
1
70
8
71
3
72
8
73
4
74
0
42
1e-07
43
1e-07
40
0
40
0
40
0
40
0
40
1
40
1
40
1
40
1
10
712.515273
20
1276.243299
30
0
10
714.402172
20
1271.859761
30
0
10
719.6756
20
1270.870994
30
0
10
723.877864
20
1270.112938
30
0
0
SPLINE
5
B5
100
AcDbEntity
8
Layer_1
6
ByLayer
62
7
370
-1
100
AcDbSpline
210
0
220
0
230
1
70
8
71
3
72
8
73
4
74
0
42
1e-07
43
1e-07
40
0
40
0
40
0
40
0
40
1
40
1
40
1
40
1
10
723.877864
20
1270.112938
30
0
10
735.421729
20
1268.860499
30
0
10
747.015032
20
1270.599082
30
0
10
758.501219
20
1271.785604
30
0
0
SPLINE
5
B6
100
AcDbEntity
8
Layer_1
6
ByLayer
62
7
370
-1
100
AcDbSpline
210
0
220
0
230
1
70
8
71
3
72
8
73
4
74
0
42
1e-07
43
1e-07
40
0
40
0
40
0
40
0
40
1
40
1
40
1
40
1
10
758.501219
20
1271.785604
30
0
10
758.674253
20
1268.967615
30
0
10
758.995603
20
1266.149627
30
0
10
759.448788
20
1263.356358
30
0
0
SPLINE
5
B7
100
AcDbEntity
8
Layer_1
6
ByLayer
62
7
370
-1
100
AcDbSpline
210
0
220
0
230
1
70
8
71
3
72
8
73
4
74
0
42
1e-07
43
1e-07
40
0
40
0
40
0
40
0
40
1
40
1
40
1
40
1
10
759.448788
20
1263.356358
30
0
10
745.83675
20
1260.933876
30
0
10
731.788007
20
1258.882183
30
0
10
718.019414
20
1261.329383
30
0
0
SPLINE
5
B8
100
AcDbEntity
8
Layer_1
6
ByLayer
62
7
370
-1
100
AcDbSpline
210
0
220
0
230
1
70
8
71
3
72
8
73
4
74
0
42
1e-07
43
1e-07
40
0
40
0
40
0
40
0
40
1
40
1
40
1
40
1
10
718.019414
20
1261.329383
30
0
10
713.817151
20
1262.04624
30
0
10
709.689045
20
1263.529392
30
0
10
706.14596
20
1265.927154
30
0
0
SPLINE
5
B9
100
AcDbEntity
8
Layer_1
6
ByLayer
62
7
370
-1
100
AcDbSpline
210
0
220
0
230
1
70
8
71
3
72
8
73
4
74
0
42
1e-07
43
1e-07
40
0
40
0
40
0
40
0
40
1
40
1
40
1
40
1
10
706.14596
20
1265.927154
30
0
10
702.528717
20
1268.786341
30
0
10
700.814853
20
1273.318194
30
0
10
699.67777
20
1277.644053
30
0
0
SPLINE
5
BA
100
AcDbEntity
8
Layer_1
6
ByLayer
62
7
370
-1
100
AcDbSpline
210
0
220
0
230
1
70
8
71
3
72
8
73
4
74
0
42
1e-07
43
1e-07
40
0
40
0
40
0
40
0
40
1
40
1
40
1
40
1
10
699.67777
20
1277.644053
30
0
10
698.071022
20
1284.664306
30
0
10
697.486001
20
1291.890552
30
0
10
697.642556
20
1299.092078
30
0
0
SPLINE
5
BB
100
AcDbEntity
8
Layer_1
6
ByLayer
62
7
370
-1
100
AcDbSpline
210
0
220
0
230
1
70
8
71
3
72
8
73
4
74
0
42
1e-07
43
1e-07
40
0
40
0
40
0
40
0
40
1
40
1
40
1
40
1
10
697.642556
20
1299.092078
30
0
10
697.51896
20
1308.674886
30
0
10
697.848549
20
1318.70264
30
0
10
701.918977
20
1327.560353
30
0
0
SPLINE
5
BC
100
AcDbEntity
8
Layer_1
6
ByLayer
62
7
370
-1
100
AcDbSpline
210
0
220
0
230
1
70
8
71
3
72
8
73
4
74
0
42
1e-07
43
1e-07
40
0
40
0
40
0
40
0
40
1
40
1
40
1
40
1
10
701.918977
20
1327.560353
30
0
10
704.704007
20
1333.847269
30
0
10
711.66658
20
1336.714695
30
0
10
718.027654
20
1337.868258
30
0
0
LWPOLYLINE
5
BD
100
AcDbEntity
8
Layer_1
6
ByLayer
62
7
370
-1
100
AcDbPolyline
90
2
70
0
43
0
10
502.080749
20
1337.851778
10
502.080749
20
1337.851778
0
SPLINE
5
BE
100
AcDbEntity
8
Layer_1
6
ByLayer
62
7
370
-1
100
AcDbSpline
210
0
220
0
230
1
70
8
71
3
72
8
73
4
74
0
42
1e-07
43
1e-07
40
0
40
0
40
0
40
0
40
1
40
1
40
1
40
1
10
793.833191
20
1327.321401
30
0
10
798.340325
20
1336.401586
30
0
10
809.315648
20
1338.807587
30
0
10
818.585347
20
1338.873505
30
0
0
SPLINE
5
BF
100
AcDbEntity
8
Layer_1
6
ByLayer
62
7
370
-1
100
AcDbSpline
210
0
220
0
230
1
70
8
71
3
72
8
73
4
74
0
42
1e-07
43
1e-07
40
0
40
0
40
0
40
0
40
1
40
1
40
1
40
1
10
818.585347
20
1338.873505
30
0
10
826.553168
20
1338.71695
30
0
10
835.567435
20
1338.585115
30
0
10
841.928509
20
1333.089213
30
0
0
SPLINE
5
C0
100
AcDbEntity
8
Layer_1
6
ByLayer
62
7
370
-1
100
AcDbSpline
210
0
220
0
230
1
70
8
71
3
72
8
73
4
74
0
42
1e-07
43
1e-07
40
0
40
0
40
0
40
0
40
1
40
1
40
1
40
1
10
841.928509
20
1333.089213
30
0
10
846.674595
20
1327.626271
30
0
10
847.333773
20
1319.971559
30
0
10
847.638643
20
1313.050184
30
0
0
SPLINE
5
C1
100
AcDbEntity
8
Layer_1
6
ByLayer
62
7
370
-1
100
AcDbSpline
210
0
220
0
230
1
70
8
71
3
72
8
73
4
74
0
42
1e-07
43
1e-07
40
0
40
0
40
0
40
0
40
1
40
1
40
1
40
1
10
847.638643
20
1313.050184
30
0
10
847.696321
20
1295.845623
30
0
10
847.638643
20
1278.649301
30
0
10
847.663362
20
1261.44474
30
0
0
SPLINE
5
C2
100
AcDbEntity
8
Layer_1
6
ByLayer
62
7
370
-1
100
AcDbSpline
210
0
220
0
230
1
70
8
71
3
72
8
73
4
74
0
42
1e-07
43
1e-07
40
0
40
0
40
0
40
0
40
1
40
1
40
1
40
1
10
847.663362
20
1261.44474
30
0
10
843.864846
20
1261.395301
30
0
10
840.074569
20
1261.44474
30
0
10
836.284292
20
1261.4365
30
0
0
SPLINE
5
C3
100
AcDbEntity
8
Layer_1
6
ByLayer
62
7
370
-1
100
AcDbSpline
210
0
220
0
230
1
70
8
71
3
72
8
73
4
74
0
42
1e-07
43
1e-07
40
0
40
0
40
0
40
0
40
1
40
1
40
1
40
1
10
836.284292
20
1261.4365
30
0
10
836.243093
20
1278.649301
30
0
10
836.317251
20
1295.862102
30
0
10
836.243093
20
1313.074903
30
0
0
SPLINE
5
C4
100
AcDbEntity
8
Layer_1
6
ByLayer
62
7
370
-1
100
AcDbSpline
210
0
220
0
230
1
70
8
71
3
72
8
73
4
74
0
42
1e-07
43
1e-07
40
0
40
0
40
0
40
0
40
1
40
1
40
1
40
1
10
836.243093
20
1313.074903
30
0
10
836.111258
20
1317.425482
30
0
10
835.905264
20
1322.328123
30
0
10
832.831844
20
1325.739372
30
0
0
SPLINE
5
C5
100
AcDbEntity
8
Layer_1
6
ByLayer
62
7
370
-1
100
AcDbSpline
210
0
220
0
230
1
70
8
71
3
72
8
73
4
74
0
42
1e-07
43
1e-07
40
0
40
0
40
0
40
0
40
1
40
1
40
1
40
1
10
832.831844
20
1325.739372
30
0
10
830.318726
20
1327.95586
30
0
10
826.874518
20
1328.730395
30
0
10
823.628063
20
1329.134142
30
0
0
SPLINE
5
C6
100
AcDbEntity
8
Layer_1
6
ByLayer
62
7
370
-1
100
AcDbSpline
210
0
220
0
230
1
70
8
71
3
72
8
73
4
74
0
42
1e-07
43
1e-07
40
0
40
0
40
0
40
0
40
1
40
1
40
1
40
1
10
823.628063
20
1329.134142
30
0
10
816.756126
20
1329.620286
30
0
10
809.381566
20
1329.603806
30
0
10
803.275924
20
1325.961845
30
0
0
SPLINE
5
C7
100
AcDbEntity
8
Layer_1
6
ByLayer
62
7
370
-1
100
AcDbSpline
210
0
220
0
230
1
70
8
71
3
72
8
73
4
74
0
42
1e-07
43
1e-07
40
0
40
0
40
0
40
0
40
1
40
1
40
1
40
1
10
803.275924
20
1325.961845
30
0
10
797.780023
20
1322.624753
30
0
10
795.003233
20
1316.074166
30
0
10
794.80548
20
1309.828449
30
0
0
SPLINE
5
C8
100
AcDbEntity
8
Layer_1
6
ByLayer
62
7
370
-1
100
AcDbSpline
210
0
220
0
230
1
70
8
71
3
72
8
73
4
74
0
42
1e-07
43
1e-07
40
0
40
0
40
0
40
0
40
1
40
1
40
1
40
1
10
794.80548
20
1309.828449
30
0
10
794.607726
20
1293.695053
30
0
10
795.118589
20
1277.536937
30
0
10
794.541808
20
1261.411781
30
0
0
SPLINE
5
C9
100
AcDbEntity
8
Layer_1
6
ByLayer
62
7
370
-1
100
AcDbSpline
210
0
220
0
230
1
70
8
71
3
72
8
73
4
74
0
42
1e-07
43
1e-07
40
0
40
0
40
0
40
0
40
1
40
1
40
1
40
1
10
794.541808
20
1261.411781
30
0
10
790.825689
20
1261.411781
30
0
10
787.117809
20
1261.44474
30
0
10
783.40993
20
1261.4365
30
0
0
SPLINE
5
CA
100
AcDbEntity
8
Layer_1
6
ByLayer
62
7
370
-1
100
AcDbSpline
210
0
220
0
230
1
70
8
71
3
72
8
73
4
74
0
42
1e-07
43
1e-07
40
0
40
0
40
0
40
0
40
1
40
1
40
1
40
1
10
783.40993
20
1261.4365
30
0
10
783.344012
20
1286.930233
30
0
10
783.319293
20
1312.423964
30
0
10
783.426409
20
1337.917696
30
0
0
SPLINE
5
CB
100
AcDbEntity
8
Layer_1
6
ByLayer
62
7
370
-1
100
AcDbSpline
210
0
220
0
230
1
70
8
71
3
72
8
73
4
74
0
42
1e-07
43
1e-07
40
0
40
0
40
0
40
0
40
1
40
1
40
1
40
1
10
783.426409
20
1337.917696
30
0
10
786.648145
20
1337.958895
30
0
10
789.86988
20
1337.876498
30
0
10
793.091615
20
1337.604586
30
0
0
SPLINE
5
CC
100
AcDbEntity
8
Layer_1
6
ByLayer
62
7
370
-1
100
AcDbSpline
210
0
220
0
230
1
70
8
71
3
72
8
73
4
74
0
42
1e-07
43
1e-07
40
0
40
0
40
0
40
0
40
1
40
1
40
1
40
1
10
793.091615
20
1337.604586
30
0
10
793.182252
20
1334.168618
30
0
10
793.536561
20
1330.749129
30
0
10
793.833191
20
1327.321401
30
0
0
LWPOLYLINE
5
CD
100
AcDbEntity
8
Layer_1
6
ByLayer
62
7
370
-1
100
AcDbPolyline
90
2
70
0
43
0
10
718.027654
20
1337.868258
10
718.027654
20
1337.868258
0
SPLINE
5
CE
100
AcDbEntity
8
Layer_1
6
ByLayer
62
7
370
-1
100
AcDbSpline
210
0
220
0
230
1
70
8
71
3
72
8
73
4
74
0
42
1e-07
43
1e-07
40
0
40
0
40
0
40
0
40
1
40
1
40
1
40
1
10
384.779917
20
1325.071954
30
0
10
388.191166
20
1328.170093
30
0
10
393.019649
20
1328.86223
30
0
10
397.444386
20
1329.257738
30
0
0
SPLINE
5
CF
100
AcDbEntity
8
Layer_1
6
ByLayer
62
7
370
-1
100
AcDbSpline
210
0
220
0
230
1
70
8
71
3
72
8
73
4
74
0
42
1e-07
43
1e-07
40
0
40
0
40
0
40
0
40
1
40
1
40
1
40
1
10
397.444386
20
1329.257738
30
0
10
404.102089
20
1329.422532
30
0
10
411.048184
20
1329.78508
30
0
10
417.351581
20
1327.247243
30
0
0
SPLINE
5
D0
100
AcDbEntity
8
Layer_1
6
ByLayer
62
7
370
-1
100
AcDbSpline
210
0
220
0
230
1
70
8
71
3
72
8
73
4
74
0
42
1e-07
43
1e-07
40
0
40
0
40
0
40
0
40
1
40
1
40
1
40
1
10
417.351581
20
1327.247243
30
0
10
419.889419
20
1326.349112
30
0
10
421.487927
20
1323.967829
30
0
10
422.32014
20
1321.520629
30
0
0
SPLINE
5
D1
100
AcDbEntity
8
Layer_1
6
ByLayer
62
7
370
-1
100
AcDbSpline
210
0
220
0
230
1
70
8
71
3
72
8
73
4
74
0
42
1e-07
43
1e-07
40
0
40
0
40
0
40
0
40
1
40
1
40
1
40
1
10
422.32014
20
1321.520629
30
0
10
424.099922
20
1316.642707
30
0
10
423.786812
20
1311.361039
30
0
10
423.762093
20
1306.260645
30
0
0
SPLINE
5
D2
100
AcDbEntity
8
Layer_1
6
ByLayer
62
7
370
-1
100
AcDbSpline
210
0
220
0
230
1
70
8
71
3
72
8
73
4
74
0
42
1e-07
43
1e-07
40
0
40
0
40
0
40
0
40
1
40
1
40
1
40
1
10
423.762093
20
1306.260645
30
0
10
413.371791
20
1306.285364
30
0
10
402.989725
20
1306.260645
30
0
10
392.599423
20
1306.277124
30
0
0
SPLINE
5
D3
100
AcDbEntity
8
Layer_1
6
ByLayer
62
7
370
-1
100
AcDbSpline
210
0
220
0
230
1
70
8
71
3
72
8
73
4
74
0
42
1e-07
43
1e-07
40
0
40
0
40
0
40
0
40
1
40
1
40
1
40
1
10
392.599423
20
1306.277124
30
0
10
388.636112
20
1306.293604
30
0
10
384.648081
20
1306.079371
30
0
10
380.709489
20
1306.606713
30
0
0
SPLINE
5
D4
100
AcDbEntity
8
Layer_1
6
ByLayer
62
7
370
-1
100
AcDbSpline
210
0
220
0
230
1
70
8
71
3
72
8
73
4
74
0
42
1e-07
43
1e-07
40
0
40
0
40
0
40
0
40
1
40
1
40
1
40
1
10
380.709489
20
1306.606713
30
0
10
381.146195
20
1312.835951
30
0
10
380.824846
20
1319.823244
30
0
10
384.779917
20
1325.071954
30
0
0
LWPOLYLINE
5
D5
100
AcDbEntity
8
Layer_1
6
ByLayer
62
7
370
-1
100
AcDbPolyline
90
2
70
0
43
0
10
793.833191
20
1327.321401
10
793.833191
20
1327.321401
0
SPLINE
5
D6
100
AcDbEntity
8
Layer_1
6
ByLayer
62
7
370
-1
100
AcDbSpline
210
0
220
0
230
1
70
8
71
3
72
8
73
4
74
0
42
1e-07
43
1e-07
40
0
40
0
40
0
40
0
40
1
40
1
40
1
40
1
10
496.659005
20
1323.679439
30
0
10
499.238041
20
1327.774586
30
0
10
504.51971
20
1328.58208
30
0
10
508.936206
20
1329.150621
30
0
0
SPLINE
5
D7
100
AcDbEntity
8
Layer_1
6
ByLayer
62
7
370
-1
100
AcDbSpline
210
0
220
0
230
1
70
8
71
3
72
8
73
4
74
0
42
1e-07
43
1e-07
40
0
40
0
40
0
40
0
40
1
40
1
40
1
40
1
10
508.936206
20
1329.150621
30
0
10
515.083047
20
1329.447251
30
0
10
521.369962
20
1329.694443
30
0
10
527.401446
20
1328.236011
30
0
0
SPLINE
5
D8
100
AcDbEntity
8
Layer_1
6
ByLayer
62
7
370
-1
100
AcDbSpline
210
0
220
0
230
1
70
8
71
3
72
8
73
4
74
0
42
1e-07
43
1e-07
40
0
40
0
40
0
40
0
40
1
40
1
40
1
40
1
10
527.401446
20
1328.236011
30
0
10
529.972243
20
1327.519154
30
0
10
532.757272
20
1326.382071
30
0
10
534.05091
20
1323.877192
30
0
0
SPLINE
5
D9
100
AcDbEntity
8
Layer_1
6
ByLayer
62
7
370
-1
100
AcDbSpline
210
0
220
0
230
1
70
8
71
3
72
8
73
4
74
0
42
1e-07
43
1e-07
40
0
40
0
40
0
40
0
40
1
40
1
40
1
40
1
10
534.05091
20
1323.877192
30
0
10
537.198488
20
1318.579045
30
0
10
536.588748
20
1312.193252
30
0
10
536.621707
20
1306.285364
30
0
0
SPLINE
5
DA
100
AcDbEntity
8
Layer_1
6
ByLayer
62
7
370
-1
100
AcDbSpline
210
0
220
0
230
1
70
8
71
3
72
8
73
4
74
0
42
1e-07
43
1e-07
40
0
40
0
40
0
40
0
40
1
40
1
40
1
40
1
10
536.621707
20
1306.285364
30
0
10
524.303307
20
1306.244165
30
0
10
511.984907
20
1306.301843
30
0
10
499.666507
20
1306.252405
30
0
0
SPLINE
5
DB
100
AcDbEntity
8
Layer_1
6
ByLayer
62
7
370
-1
100
AcDbSpline
210
0
220
0
230
1
70
8
71
3
72
8
73
4
74
0
42
1e-07
43
1e-07
40
0
40
0
40
0
40
0
40
1
40
1
40
1
40
1
10
499.666507
20
1306.252405
30
0
10
497.631293
20
1306.235925
30
0
10
495.59608
20
1306.376001
30
0
10
493.569105
20
1306.606713
30
0
0
SPLINE
5
DC
100
AcDbEntity
8
Layer_1
6
ByLayer
62
7
370
-1
100
AcDbSpline
210
0
220
0
230
1
70
8
71
3
72
8
73
4
74
0
42
1e-07
43
1e-07
40
0
40
0
40
0
40
0
40
1
40
1
40
1
40
1
10
493.569105
20
1306.606713
30
0
10
494.079969
20
1312.349807
30
0
10
493.841017
20
1318.463688
30
0
10
496.659005
20
1323.679439
30
0
0
LWPOLYLINE
5
DD
100
AcDbEntity
8
Layer_1
6
ByLayer
62
7
370
-1
100
AcDbPolyline
90
2
70
0
43
0
10
384.779917
20
1325.071954
10
384.779917
20
1325.071954
0
SPLINE
5
DE
100
AcDbEntity
8
Layer_1
6
ByLayer
62
7
370
-1
100
AcDbSpline
210
0
220
0
230
1
70
8
71
3
72
8
73
4
74
0
42
1e-07
43
1e-07
40
0
40
0
40
0
40
0
40
1
40
1
40
1
40
1
10
714.047863
20
1325.327385
30
0
10
720.491334
20
1330.279464
30
0
10
729.258409
20
1329.265977
30
0
10
736.888401
20
1329.241258
30
0
0
SPLINE
5
DF
100
AcDbEntity
8
Layer_1
6
ByLayer
62
7
370
-1
100
AcDbSpline
210
0
220
0
230
1
70
8
71
3
72
8
73
4
74
0
42
1e-07
43
1e-07
40
0
40
0
40
0
40
0
40
1
40
1
40
1
40
1
10
736.888401
20
1329.241258
30
0
10
741.741603
20
1328.664477
30
0
10
748.01204
20
1328.285449
30
0
10
750.508679
20
1323.316891
30
0
0
SPLINE
5
E0
100
AcDbEntity
8
Layer_1
6
ByLayer
62
7
370
-1
100
AcDbSpline
210
0
220
0
230
1
70
8
71
3
72
8
73
4
74
0
42
1e-07
43
1e-07
40
0
40
0
40
0
40
0
40
1
40
1
40
1
40
1
10
750.508679
20
1323.316891
30
0
10
753.054756
20
1318.191777
30
0
10
752.840523
20
1312.24269
30
0
10
752.947639
20
1306.656152
30
0
0
SPLINE
5
E1
100
AcDbEntity
8
Layer_1
6
ByLayer
62
7
370
-1
100
AcDbSpline
210
0
220
0
230
1
70
8
71
3
72
8
73
4
74
0
42
1e-07
43
1e-07
40
0
40
0
40
0
40
0
40
1
40
1
40
1
40
1
10
752.947639
20
1306.656152
30
0
10
749.55287
20
1306.161768
30
0
10
746.125141
20
1306.235925
30
0
10
742.713892
20
1306.268884
30
0
0
SPLINE
5
E2
100
AcDbEntity
8
Layer_1
6
ByLayer
62
7
370
-1
100
AcDbSpline
210
0
220
0
230
1
70
8
71
3
72
8
73
4
74
0
42
1e-07
43
1e-07
40
0
40
0
40
0
40
0
40
1
40
1
40
1
40
1
10
742.713892
20
1306.268884
30
0
10
731.796246
20
1306.293604
30
0
10
720.878601
20
1306.244165
30
0
10
709.960956
20
1306.285364
30
0
0
SPLINE
5
E3
100
AcDbEntity
8
Layer_1
6
ByLayer
62
7
370
-1
100
AcDbSpline
210
0
220
0
230
1
70
8
71
3
72
8
73
4
74
0
42
1e-07
43
1e-07
40
0
40
0
40
0
40
0
40
1
40
1
40
1
40
1
10
709.960956
20
1306.285364
30
0
10
710.076312
20
1312.712355
30
0
10
709.730243
20
1320.070436
30
0
10
714.047863
20
1325.327385
30
0
0
LWPOLYLINE
5
E4
100
AcDbEntity
8
Layer_1
6
ByLayer
62
7
370
-1
100
AcDbPolyline
90
2
70
0
43
0
10
496.659005
20
1323.679439
10
496.659005
20
1323.679439
0
LWPOLYLINE
5
E5
100
AcDbEntity
8
Layer_1
6
ByLayer
62
7
370
-1
100
AcDbPolyline
90
2
70
0
43
0
10
714.047863
20
1325.327385
10
714.047863
20
1325.327385
0
SPLINE
5
E6
100
AcDbEntity
8
Layer_1
6
ByLayer
62
7
370
-1
100
AcDbSpline
210
0
220
0
230
1
70
8
71
3
72
8
73
4
74
0
42
1e-07
43
1e-07
40
0
40
0
40
0
40
0
40
1
40
1
40
1
40
1
10
205.369587
20
1425.365587
30
0
10
202.654401
20
1426.664093
30
0
10
200.092711
20
1427.632102
30
0
10
197.684516
20
1428.269619
30
0
0
SPLINE
5
E7
100
AcDbEntity
8
Layer_1
6
ByLayer
62
7
370
-1
100
AcDbSpline
210
0
220
0
230
1
70
8
71
3
72
8
73
4
74
0
42
1e-07
43
1e-07
40
0
40
0
40
0
40
0
40
1
40
1
40
1
40
1
10
197.684516
20
1428.269619
30
0
10
195.276263
20
1428.907043
30
0
10
192.950672
20
1429.225784
30
0
10
190.707744
20
1429.225827
30
0
0
SPLINE
5
E8
100
AcDbEntity
8
Layer_1
6
ByLayer
62
7
370
-1
100
AcDbSpline
210
0
220
0
230
1
70
8
71
3
72
8
73
4
74
0
42
1e-07
43
1e-07
40
0
40
0
40
0
40
0
40
1
40
1
40
1
40
1
10
190.707744
20
1429.225827
30
0
10
186.812066
20
1429.225784
30
0
10
183.801784
20
1428.470259
30
0
10
181.676899
20
1426.959262
30
0
0
SPLINE
5
E9
100
AcDbEntity
8
Layer_1
6
ByLayer
62
7
370
-1
100
AcDbSpline
210
0
220
0
230
1
70
8
71
3
72
8
73
4
74
0
42
1e-07
43
1e-07
40
0
40
0
40
0
40
0
40
1
40
1
40
1
40
1
10
181.676899
20
1426.959262
30
0
10
179.575593
20
1425.448177
30
0
10
178.524944
20
1423.299661
30
0
10
178.524959
20
1420.513715
30
0
0
SPLINE
5
EA
100
AcDbEntity
8
Layer_1
6
ByLayer
62
7
370
-1
100
AcDbSpline
210
0
220
0
230
1
70
8
71
3
72
8
73
4
74
0
42
1e-07
43
1e-07
40
0
40
0
40
0
40
0
40
1
40
1
40
1
40
1
10
178.524959
20
1420.513715
30
0
10
178.524944
20
1418.176288
30
0
10
179.221443
20
1416.405531
30
0
10
180.614449
20
1415.201452
30
0
0
SPLINE
5
EB
100
AcDbEntity
8
Layer_1
6
ByLayer
62
7
370
-1
100
AcDbSpline
210
0
220
0
230
1
70
8
71
3
72
8
73
4
74
0
42
1e-07
43
1e-07
40
0
40
0
40
0
40
0
40
1
40
1
40
1
40
1
10
180.614449
20
1415.201452
30
0
10
182.031034
20
1414.020915
30
0
10
184.698967
20
1413.064715
30
0
10
188.618254
20
1412.332836
30
0
0
LWPOLYLINE
5
EC
100
AcDbEntity
8
Layer_1
6
ByLayer
62
7
370
-1
100
AcDbPolyline
90
2
70
0
43
0
10
205.369587
20
1432.342358
10
205.369587
20
1425.365587
0
SPLINE
5
ED
100
AcDbEntity
8
Layer_1
6
ByLayer
62
7
370
-1
100
AcDbSpline
210
0
220
0
230
1
70
8
71
3
72
8
73
4
74
0
42
1e-07
43
1e-07
40
0
40
0
40
0
40
0
40
1
40
1
40
1
40
1
10
192.938893
20
1411.447453
30
0
10
198.274737
20
1410.432192
30
0
10
202.20581
20
1408.637833
30
0
10
204.73212
20
1406.064364
30
0
0
SPLINE
5
EE
100
AcDbEntity
8
Layer_1
6
ByLayer
62
7
370
-1
100
AcDbSpline
210
0
220
0
230
1
70
8
71
3
72
8
73
4
74
0
42
1e-07
43
1e-07
40
0
40
0
40
0
40
0
40
1
40
1
40
1
40
1
10
204.73212
20
1406.064364
30
0
10
207.281966
20
1403.514452
30
0
10
208.556907
20
1400.090996
30
0
10
208.556951
20
1395.793987
30
0
0
SPLINE
5
EF
100
AcDbEntity
8
Layer_1
6
ByLayer
62
7
370
-1
100
AcDbSpline
210
0
220
0
230
1
70
8
71
3
72
8
73
4
74
0
42
1e-07
43
1e-07
40
0
40
0
40
0
40
0
40
1
40
1
40
1
40
1
10
208.556951
20
1395.793987
30
0
10
208.556907
20
1390.670598
30
0
10
206.833375
20
1386.786742
30
0
10
203.386346
20
1384.142426
30
0
0
SPLINE
5
F0
100
AcDbEntity
8
Layer_1
6
ByLayer
62
7
370
-1
100
AcDbSpline
210
0
220
0
230
1
70
8
71
3
72
8
73
4
74
0
42
1e-07
43
1e-07
40
0
40
0
40
0
40
0
40
1
40
1
40
1
40
1
10
203.386346
20
1384.142426
30
0
10
199.962853
20
1381.498094
30
0
10
194.933921
20
1380.175936
30
0
10
188.29952
20
1380.175936
30
0
0
SPLINE
5
F1
100
AcDbEntity
8
Layer_1
6
ByLayer
62
7
370
-1
100
AcDbSpline
210
0
220
0
230
1
70
8
71
3
72
8
73
4
74
0
42
1e-07
43
1e-07
40
0
40
0
40
0
40
0
40
1
40
1
40
1
40
1
10
188.29952
20
1380.175936
30
0
10
185.796833
20
1380.175936
30
0
10
183.128901
20
1380.459253
30
0
10
180.295708
20
1381.025895
30
0
0
SPLINE
5
F2
100
AcDbEntity
8
Layer_1
6
ByLayer
62
7
370
-1
100
AcDbSpline
210
0
220
0
230
1
70
8
71
3
72
8
73
4
74
0
42
1e-07
43
1e-07
40
0
40
0
40
0
40
0
40
1
40
1
40
1
40
1
10
180.295708
20
1381.025895
30
0
10
177.486103
20
1381.592536
30
0
10
174.570262
20
1382.430694
30
0
10
171.548187
20
1383.540368
30
0
0
LWPOLYLINE
5
F3
100
AcDbEntity
8
Layer_1
6
ByLayer
62
7
370
-1
100
AcDbPolyline
90
2
70
0
43
0
10
188.618254
20
1412.332836
10
192.938893
20
1411.447453
0
SPLINE
5
F4
100
AcDbEntity
8
Layer_1
6
ByLayer
62
7
370
-1
100
AcDbSpline
210
0
220
0
230
1
70
8
71
3
72
8
73
4
74
0
42
1e-07
43
1e-07
40
0
40
0
40
0
40
0
40
1
40
1
40
1
40
1
10
171.548187
20
1390.906706
30
0
10
174.452212
20
1389.277607
30
0
10
177.29722
20
1388.049883
30
0
10
180.083217
20
1387.22354
30
0
0
SPLINE
5
F5
100
AcDbEntity
8
Layer_1
6
ByLayer
62
7
370
-1
100
AcDbSpline
210
0
220
0
230
1
70
8
71
3
72
8
73
4
74
0
42
1e-07
43
1e-07
40
0
40
0
40
0
40
0
40
1
40
1
40
1
40
1
10
180.083217
20
1387.22354
30
0
10
182.869192
20
1386.397183
30
0
10
185.60795
20
1385.984001
30
0
10
188.29952
20
1385.984008
30
0
0
SPLINE
5
F6
100
AcDbEntity
8
Layer_1
6
ByLayer
62
7
370
-1
100
AcDbSpline
210
0
220
0
230
1
70
8
71
3
72
8
73
4
74
0
42
1e-07
43
1e-07
40
0
40
0
40
0
40
0
40
1
40
1
40
1
40
1
10
188.29952
20
1385.984008
30
0
10
192.384031
20
1385.984001
30
0
10
195.535971
20
1386.786742
30
0
10
197.755349
20
1388.392232
30
0
0
SPLINE
5
F7
100
AcDbEntity
8
Layer_1
6
ByLayer
62
7
370
-1
100
AcDbSpline
210
0
220
0
230
1
70
8
71
3
72
8
73
4
74
0
42
1e-07
43
1e-07
40
0
40
0
40
0
40
0
40
1
40
1
40
1
40
1
10
197.755349
20
1388.392232
30
0
10
199.974661
20
1389.997708
30
0
10
201.084328
20
1392.287882
30
0
10
201.084364
20
1395.262762
30
0
0
SPLINE
5
F8
100
AcDbEntity
8
Layer_1
6
ByLayer
62
7
370
-1
100
AcDbSpline
210
0
220
0
230
1
70
8
71
3
72
8
73
4
74
0
42
1e-07
43
1e-07
40
0
40
0
40
0
40
0
40
1
40
1
40
1
40
1
10
201.084364
20
1395.262762
30
0
10
201.084328
20
1397.859854
30
0
10
200.281586
20
1399.890312
30
0
10
198.67614
20
1401.354158
30
0
0
SPLINE
5
F9
100
AcDbEntity
8
Layer_1
6
ByLayer
62
7
370
-1
100
AcDbSpline
210
0
220
0
230
1
70
8
71
3
72
8
73
4
74
0
42
1e-07
43
1e-07
40
0
40
0
40
0
40
0
40
1
40
1
40
1
40
1
10
198.67614
20
1401.354158
30
0
10
197.094237
20
1402.81796
30
0
10
194.485329
20
1403.915827
30
0
10
190.849403
20
1404.647757
30
0
0
LWPOLYLINE
5
FA
100
AcDbEntity
8
Layer_1
6
ByLayer
62
7
370
-1
100
AcDbPolyline
90
2
70
0
43
0
10
171.548187
20
1383.540368
10
171.548187
20
1390.906706
0
SPLINE
5
FB
100
AcDbEntity
8
Layer_1
6
ByLayer
62
7
370
-1
100
AcDbSpline
210
0
220
0
230
1
70
8
71
3
72
8
73
4
74
0
42
1e-07
43
1e-07
40
0
40
0
40
0
40
0
40
1
40
1
40
1
40
1
10
186.493347
20
1405.497723
30
0
10
181.15746
20
1406.560151
30
0
10
177.29722
20
1408.224658
30
0
10
174.912619
20
1410.491246
30
0
0
SPLINE
5
FC
100
AcDbEntity
8
Layer_1
6
ByLayer
62
7
370
-1
100
AcDbSpline
210
0
220
0
230
1
70
8
71
3
72
8
73
4
74
0
42
1e-07
43
1e-07
40
0
40
0
40
0
40
0
40
1
40
1
40
1
40
1
10
174.912619
20
1410.491246
30
0
10
172.527996
20
1412.757782
30
0
10
171.335688
20
1415.909722
30
0
10
171.335696
20
1419.947074
30
0
0
SPLINE
5
FD
100
AcDbEntity
8
Layer_1
6
ByLayer
62
7
370
-1
100
AcDbSpline
210
0
220
0
230
1
70
8
71
3
72
8
73
4
74
0
42
1e-07
43
1e-07
40
0
40
0
40
0
40
0
40
1
40
1
40
1
40
1
10
171.335696
20
1419.947074
30
0
10
171.335688
20
1424.621827
30
0
10
172.976588
20
1428.304992
30
0
10
176.258393
20
1430.996584
30
0
0
SPLINE
5
FE
100
AcDbEntity
8
Layer_1
6
ByLayer
62
7
370
-1
100
AcDbSpline
210
0
220
0
230
1
70
8
71
3
72
8
73
4
74
0
42
1e-07
43
1e-07
40
0
40
0
40
0
40
0
40
1
40
1
40
1
40
1
10
176.258393
20
1430.996584
30
0
10
179.563785
20
1433.688074
30
0
10
184.108717
20
1435.033849
30
0
10
189.893195
20
1435.033899
30
0
0
SPLINE
5
FF
100
AcDbEntity
8
Layer_1
6
ByLayer
62
7
370
-1
100
AcDbSpline
210
0
220
0
230
1
70
8
71
3
72
8
73
4
74
0
42
1e-07
43
1e-07
40
0
40
0
40
0
40
0
40
1
40
1
40
1
40
1
10
189.893195
20
1435.033899
30
0
10
192.37223
20
1435.033849
30
0
10
194.898504
20
1434.809557
30
0
10
197.472024
20
1434.361016
30
0
0
SPLINE
5
100
100
AcDbEntity
8
Layer_1
6
ByLayer
62
7
370
-1
100
AcDbSpline
210
0
220
0
230
1
70
8
71
3
72
8
73
4
74
0
42
1e-07
43
1e-07
40
0
40
0
40
0
40
0
40
1
40
1
40
1
40
1
10
197.472024
20
1434.361016
30
0
10
200.045486
20
1433.912374
30
0
10
202.67801
20
1433.239483
30
0
10
205.369587
20
1432.342358
30
0
0
LWPOLYLINE
5
101
100
AcDbEntity
8
Layer_1
6
ByLayer
62
7
370
-1
100
AcDbPolyline
90
2
70
0
43
0
10
190.849403
20
1404.647757
10
186.493347
20
1405.497723
0
SPLINE
5
102
100
AcDbEntity
8
Layer_1
6
ByLayer
62
7
370
-1
100
AcDbSpline
210
0
220
0
230
1
70
8
71
3
72
8
73
4
74
0
42
1e-07
43
1e-07
40
0
40
0
40
0
40
0
40
1
40
1
40
1
40
1
10
225.733267
20
1414.847302
30
0
10
227.102635
20
1417.208272
30
0
10
228.826168
20
1418.955413
30
0
10
230.903865
20
1420.08874
30
0
0
SPLINE
5
103
100
AcDbEntity
8
Layer_1
6
ByLayer
62
7
370
-1
100
AcDbSpline
210
0
220
0
230
1
70
8
71
3
72
8
73
4
74
0
42
1e-07
43
1e-07
40
0
40
0
40
0
40
0
40
1
40
1
40
1
40
1
10
230.903865
20
1420.08874
30
0
10
233.005142
20
1421.245587
30
0
10
235.507807
20
1421.824037
30
0
10
238.411868
20
1421.824073
30
0
0
SPLINE
5
104
100
AcDbEntity
8
Layer_1
6
ByLayer
62
7
370
-1
100
AcDbSpline
210
0
220
0
230
1
70
8
71
3
72
8
73
4
74
0
42
1e-07
43
1e-07
40
0
40
0
40
0
40
0
40
1
40
1
40
1
40
1
10
238.411868
20
1421.824073
30
0
10
243.228287
20
1421.824037
30
0
10
247.135745
20
1419.911621
30
0
10
250.134255
20
1416.086834
30
0
0
SPLINE
5
105
100
AcDbEntity
8
Layer_1
6
ByLayer
62
7
370
-1
100
AcDbSpline
210
0
220
0
230
1
70
8
71
3
72
8
73
4
74
0
42
1e-07
43
1e-07
40
0
40
0
40
0
40
0
40
1
40
1
40
1
40
1
10
250.134255
20
1416.086834
30
0
10
253.156308
20
1412.261974
30
0
10
254.66735
20
1407.233034
30
0
10
254.667386
20
1401.000008
30
0
0
SPLINE
5
106
100
AcDbEntity
8
Layer_1
6
ByLayer
62
7
370
-1
100
AcDbSpline
210
0
220
0
230
1
70
8
71
3
72
8
73
4
74
0
42
1e-07
43
1e-07
40
0
40
0
40
0
40
0
40
1
40
1
40
1
40
1
10
254.667386
20
1401.000008
30
0
10
254.66735
20
1394.766939
30
0
10
253.156308
20
1389.737999
30
0
10
250.134255
20
1385.913175
30
0
0
SPLINE
5
107
100
AcDbEntity
8
Layer_1
6
ByLayer
62
7
370
-1
100
AcDbSpline
210
0
220
0
230
1
70
8
71
3
72
8
73
4
74
0
42
1e-07
43
1e-07
40
0
40
0
40
0
40
0
40
1
40
1
40
1
40
1
10
250.134255
20
1385.913175
30
0
10
247.135745
20
1382.088352
30
0
10
243.228287
20
1380.175936
30
0
10
238.411868
20
1380.175936
30
0
0
SPLINE
5
108
100
AcDbEntity
8
Layer_1
6
ByLayer
62
7
370
-1
100
AcDbSpline
210
0
220
0
230
1
70
8
71
3
72
8
73
4
74
0
42
1e-07
43
1e-07
40
0
40
0
40
0
40
0
40
1
40
1
40
1
40
1
10
238.411868
20
1380.175936
30
0
10
235.507807
20
1380.175936
30
0
10
233.005142
20
1380.742577
30
0
10
230.903865
20
1381.87586
30
0
0
SPLINE
5
109
100
AcDbEntity
8
Layer_1
6
ByLayer
62
7
370
-1
100
AcDbSpline
210
0
220
0
230
1
70
8
71
3
72
8
73
4
74
0
42
1e-07
43
1e-07
40
0
40
0
40
0
40
0
40
1
40
1
40
1
40
1
10
230.903865
20
1381.87586
30
0
10
228.826168
20
1383.032751
30
0
10
227.102635
20
1384.791701
30
0
10
225.733267
20
1387.152707
30
0
0
SPLINE
5
10A
100
AcDbEntity
8
Layer_1
6
ByLayer
62
7
370
-1
100
AcDbSpline
210
0
220
0
230
1
70
8
71
3
72
8
73
4
74
0
42
1e-07
43
1e-07
40
0
40
0
40
0
40
0
40
1
40
1
40
1
40
1
10
247.903106
20
1401.000008
30
0
10
247.90307
20
1405.792819
30
0
10
246.911453
20
1409.546817
30
0
10
244.928241
20
1412.262003
30
0
0
SPLINE
5
10B
100
AcDbEntity
8
Layer_1
6
ByLayer
62
7
370
-1
100
AcDbSpline
210
0
220
0
230
1
70
8
71
3
72
8
73
4
74
0
42
1e-07
43
1e-07
40
0
40
0
40
0
40
0
40
1
40
1
40
1
40
1
10
244.928241
20
1412.262003
30
0
10
242.968579
20
1415.000732
30
0
10
240.26523
20
1416.370114
30
0
10
236.818186
20
1416.370151
30
0
0
SPLINE
5
10C
100
AcDbEntity
8
Layer_1
6
ByLayer
62
7
370
-1
100
AcDbSpline
210
0
220
0
230
1
70
8
71
3
72
8
73
4
74
0
42
1e-07
43
1e-07
40
0
40
0
40
0
40
0
40
1
40
1
40
1
40
1
10
236.818186
20
1416.370151
30
0
10
233.371099
20
1416.370114
30
0
10
230.655943
20
1415.000732
30
0
10
228.672716
20
1412.262003
30
0
0
SPLINE
5
10D
100
AcDbEntity
8
Layer_1
6
ByLayer
62
7
370
-1
100
AcDbSpline
210
0
220
0
230
1
70
8
71
3
72
8
73
4
74
0
42
1e-07
43
1e-07
40
0
40
0
40
0
40
0
40
1
40
1
40
1
40
1
10
228.672716
20
1412.262003
30
0
10
226.713069
20
1409.546817
30
0
10
225.733252
20
1405.792819
30
0
10
225.733267
20
1401.000008
30
0
0
SPLINE
5
10E
100
AcDbEntity
8
Layer_1
6
ByLayer
62
7
370
-1
100
AcDbSpline
210
0
220
0
230
1
70
8
71
3
72
8
73
4
74
0
42
1e-07
43
1e-07
40
0
40
0
40
0
40
0
40
1
40
1
40
1
40
1
10
225.733267
20
1401.000008
30
0
10
225.733252
20
1396.207147
30
0
10
226.713069
20
1392.441348
30
0
10
228.672716
20
1389.70259
30
0
0
SPLINE
5
10F
100
AcDbEntity
8
Layer_1
6
ByLayer
62
7
370
-1
100
AcDbSpline
210
0
220
0
230
1
70
8
71
3
72
8
73
4
74
0
42
1e-07
43
1e-07
40
0
40
0
40
0
40
0
40
1
40
1
40
1
40
1
10
228.672716
20
1389.70259
30
0
10
230.655943
20
1386.987433
30
0
10
233.371099
20
1385.629851
30
0
10
236.818186
20
1385.629858
30
0
0
SPLINE
5
110
100
AcDbEntity
8
Layer_1
6
ByLayer
62
7
370
-1
100
AcDbSpline
210
0
220
0
230
1
70
8
71
3
72
8
73
4
74
0
42
1e-07
43
1e-07
40
0
40
0
40
0
40
0
40
1
40
1
40
1
40
1
10
236.818186
20
1385.629858
30
0
10
240.26523
20
1385.629851
30
0
10
242.968579
20
1386.987433
30
0
10
244.928241
20
1389.70259
30
0
0
SPLINE
5
111
100
AcDbEntity
8
Layer_1
6
ByLayer
62
7
370
-1
100
AcDbSpline
210
0
220
0
230
1
70
8
71
3
72
8
73
4
74
0
42
1e-07
43
1e-07
40
0
40
0
40
0
40
0
40
1
40
1
40
1
40
1
10
244.928241
20
1389.70259
30
0
10
246.911453
20
1392.441348
30
0
10
247.90307
20
1396.207147
30
0
10
247.903106
20
1401.000008
30
0
0
SPLINE
5
112
100
AcDbEntity
8
Layer_1
6
ByLayer
62
7
370
-1
100
AcDbSpline
210
0
220
0
230
1
70
8
71
3
72
8
73
4
74
0
42
1e-07
43
1e-07
40
0
40
0
40
0
40
0
40
1
40
1
40
1
40
1
10
280.839138
20
1416.299325
30
0
10
277.344834
20
1416.299289
30
0
10
274.58246
20
1414.929906
30
0
10
272.552009
20
1412.19117
30
0
0
SPLINE
5
113
100
AcDbEntity
8
Layer_1
6
ByLayer
62
7
370
-1
100
AcDbSpline
210
0
220
0
230
1
70
8
71
3
72
8
73
4
74
0
42
1e-07
43
1e-07
40
0
40
0
40
0
40
0
40
1
40
1
40
1
40
1
10
272.552009
20
1412.19117
30
0
10
270.521529
20
1409.475984
30
0
10
269.506296
20
1405.745602
30
0
10
269.506311
20
1401.000008
30
0
0
SPLINE
5
114
100
AcDbEntity
8
Layer_1
6
ByLayer
62
7
370
-1
100
AcDbSpline
210
0
220
0
230
1
70
8
71
3
72
8
73
4
74
0
42
1e-07
43
1e-07
40
0
40
0
40
0
40
0
40
1
40
1
40
1
40
1
10
269.506311
20
1401.000008
30
0
10
269.506296
20
1396.254371
30
0
10
270.509728
20
1392.512181
30
0
10
272.516593
20
1389.773423
30
0
0
SPLINE
5
115
100
AcDbEntity
8
Layer_1
6
ByLayer
62
7
370
-1
100
AcDbSpline
210
0
220
0
230
1
70
8
71
3
72
8
73
4
74
0
42
1e-07
43
1e-07
40
0
40
0
40
0
40
0
40
1
40
1
40
1
40
1
10
272.516593
20
1389.773423
30
0
10
274.547044
20
1387.058259
30
0
10
277.321218
20
1385.700684
30
0
10
280.839138
20
1385.700691
30
0
0
SPLINE
5
116
100
AcDbEntity
8
Layer_1
6
ByLayer
62
7
370
-1
100
AcDbSpline
210
0
220
0
230
1
70
8
71
3
72
8
73
4
74
0
42
1e-07
43
1e-07
40
0
40
0
40
0
40
0
40
1
40
1
40
1
40
1
10
280.839138
20
1385.700691
30
0
10
284.30979
20
1385.700684
30
0
10
287.060356
20
1387.070067
30
0
10
289.090851
20
1389.808839
30
0
0
SPLINE
5
117
100
AcDbEntity
8
Layer_1
6
ByLayer
62
7
370
-1
100
AcDbSpline
210
0
220
0
230
1
70
8
71
3
72
8
73
4
74
0
42
1e-07
43
1e-07
40
0
40
0
40
0
40
0
40
1
40
1
40
1
40
1
10
289.090851
20
1389.808839
30
0
10
291.121287
20
1392.54759
30
0
10
292.13652
20
1396.27798
30
0
10
292.136549
20
1401.000008
30
0
0
SPLINE
5
118
100
AcDbEntity
8
Layer_1
6
ByLayer
62
7
370
-1
100
AcDbSpline
210
0
220
0
230
1
70
8
71
3
72
8
73
4
74
0
42
1e-07
43
1e-07
40
0
40
0
40
0
40
0
40
1
40
1
40
1
40
1
10
292.136549
20
1401.000008
30
0
10
292.13652
20
1405.698384
30
0
10
291.121287
20
1409.416959
30
0
10
289.090851
20
1412.155761
30
0
0
SPLINE
5
119
100
AcDbEntity
8
Layer_1
6
ByLayer
62
7
370
-1
100
AcDbSpline
210
0
220
0
230
1
70
8
71
3
72
8
73
4
74
0
42
1e-07
43
1e-07
40
0
40
0
40
0
40
0
40
1
40
1
40
1
40
1
10
289.090851
20
1412.155761
30
0
10
287.060356
20
1414.918098
30
0
10
284.30979
20
1416.299289
30
0
10
280.839138
20
1416.299325
30
0
0
SPLINE
5
11A
100
AcDbEntity
8
Layer_1
6
ByLayer
62
7
370
-1
100
AcDbSpline
210
0
220
0
230
1
70
8
71
3
72
8
73
4
74
0
42
1e-07
43
1e-07
40
0
40
0
40
0
40
0
40
1
40
1
40
1
40
1
10
280.839138
20
1421.824073
30
0
10
286.505523
20
1421.824037
30
0
10
290.956013
20
1419.982454
30
0
10
294.190623
20
1416.299325
30
0
0
SPLINE
5
11B
100
AcDbEntity
8
Layer_1
6
ByLayer
62
7
370
-1
100
AcDbSpline
210
0
220
0
230
1
70
8
71
3
72
8
73
4
74
0
42
1e-07
43
1e-07
40
0
40
0
40
0
40
0
40
1
40
1
40
1
40
1
10
294.190623
20
1416.299325
30
0
10
297.425161
20
1412.616124
30
0
10
299.042451
20
1407.516351
30
0
10
299.042495
20
1401.000008
30
0
0
SPLINE
5
11C
100
AcDbEntity
8
Layer_1
6
ByLayer
62
7
370
-1
100
AcDbSpline
210
0
220
0
230
1
70
8
71
3
72
8
73
4
74
0
42
1e-07
43
1e-07
40
0
40
0
40
0
40
0
40
1
40
1
40
1
40
1
10
299.042495
20
1401.000008
30
0
10
299.042451
20
1394.507223
30
0
10
297.425161
20
1389.407458
30
0
10
294.190623
20
1385.700691
30
0
0
SPLINE
5
11D
100
AcDbEntity
8
Layer_1
6
ByLayer
62
7
370
-1
100
AcDbSpline
210
0
220
0
230
1
70
8
71
3
72
8
73
4
74
0
42
1e-07
43
1e-07
40
0
40
0
40
0
40
0
40
1
40
1
40
1
40
1
10
294.190623
20
1385.700691
30
0
10
290.956013
20
1382.017519
30
0
10
286.505523
20
1380.175936
30
0
10
280.839138
20
1380.175936
30
0
0
SPLINE
5
11E
100
AcDbEntity
8
Layer_1
6
ByLayer
62
7
370
-1
100
AcDbSpline
210
0
220
0
230
1
70
8
71
3
72
8
73
4
74
0
42
1e-07
43
1e-07
40
0
40
0
40
0
40
0
40
1
40
1
40
1
40
1
10
280.839138
20
1380.175936
30
0
10
275.149094
20
1380.175936
30
0
10
270.686803
20
1382.017519
30
0
10
267.452237
20
1385.700691
30
0
0
SPLINE
5
11F
100
AcDbEntity
8
Layer_1
6
ByLayer
62
7
370
-1
100
AcDbSpline
210
0
220
0
230
1
70
8
71
3
72
8
73
4
74
0
42
1e-07
43
1e-07
40
0
40
0
40
0
40
0
40
1
40
1
40
1
40
1
10
267.452237
20
1385.700691
30
0
10
264.241264
20
1389.407458
30
0
10
262.635781
20
1394.507223
30
0
10
262.635781
20
1401.000008
30
0
0
SPLINE
5
120
100
AcDbEntity
8
Layer_1
6
ByLayer
62
7
370
-1
100
AcDbSpline
210
0
220
0
230
1
70
8
71
3
72
8
73
4
74
0
42
1e-07
43
1e-07
40
0
40
0
40
0
40
0
40
1
40
1
40
1
40
1
10
262.635781
20
1401.000008
30
0
10
262.635781
20
1407.516351
30
0
10
264.241264
20
1412.616124
30
0
10
267.452237
20
1416.299325
30
0
0
SPLINE
5
121
100
AcDbEntity
8
Layer_1
6
ByLayer
62
7
370
-1
100
AcDbSpline
210
0
220
0
230
1
70
8
71
3
72
8
73
4
74
0
42
1e-07
43
1e-07
40
0
40
0
40
0
40
0
40
1
40
1
40
1
40
1
10
267.452237
20
1416.299325
30
0
10
270.686803
20
1419.982454
30
0
10
275.149094
20
1421.824037
30
0
10
280.839138
20
1421.824073
30
0
0
LWPOLYLINE
5
122
100
AcDbEntity
8
Layer_1
6
ByLayer
62
7
370
-1
100
AcDbPolyline
90
6
70
0
43
0
10
225.733267
20
1387.152707
10
225.733267
20
1366.116144
10
219.181471
20
1366.116144
10
219.181471
20
1420.867865
10
225.733267
20
1420.867865
10
225.733267
20
1414.847302
0
SPLINE
5
123
100
AcDbEntity
8
Layer_1
6
ByLayer
62
7
370
-1
100
AcDbSpline
210
0
220
0
230
1
70
8
71
3
72
8
73
4
74
0
42
1e-07
43
1e-07
40
0
40
0
40
0
40
0
40
1
40
1
40
1
40
1
10
336.263743
20
1404.931081
30
0
10
336.263714
20
1408.68505
30
0
10
335.531805
20
1411.494649
30
0
10
334.06801
20
1413.359869
30
0
0
SPLINE
5
124
100
AcDbEntity
8
Layer_1
6
ByLayer
62
7
370
-1
100
AcDbSpline
210
0
220
0
230
1
70
8
71
3
72
8
73
4
74
0
42
1e-07
43
1e-07
40
0
40
0
40
0
40
0
40
1
40
1
40
1
40
1
10
334.06801
20
1413.359869
30
0
10
332.604157
20
1415.225031
30
0
10
330.408424
20
1416.15763
30
0
10
327.480805
20
1416.157659
30
0
0
SPLINE
5
125
100
AcDbEntity
8
Layer_1
6
ByLayer
62
7
370
-1
100
AcDbSpline
210
0
220
0
230
1
70
8
71
3
72
8
73
4
74
0
42
1e-07
43
1e-07
40
0
40
0
40
0
40
0
40
1
40
1
40
1
40
1
10
327.480805
20
1416.157659
30
0
10
323.962885
20
1416.15763
30
0
10
321.188703
20
1415.036148
30
0
10
319.15826
20
1412.793228
30
0
0
SPLINE
5
126
100
AcDbEntity
8
Layer_1
6
ByLayer
62
7
370
-1
100
AcDbSpline
210
0
220
0
230
1
70
8
71
3
72
8
73
4
74
0
42
1e-07
43
1e-07
40
0
40
0
40
0
40
0
40
1
40
1
40
1
40
1
10
319.15826
20
1412.793228
30
0
10
317.12778
20
1410.550242
30
0
10
316.112547
20
1407.492743
30
0
10
316.112561
20
1403.620724
30
0
0
LWPOLYLINE
5
127
100
AcDbEntity
8
Layer_1
6
ByLayer
62
7
370
-1
100
AcDbPolyline
90
4
70
0
43
0
10
342.780122
20
1405.143573
10
342.780122
20
1381.202969
10
336.263743
20
1381.202969
10
336.263743
20
1404.931081
0
SPLINE
5
128
100
AcDbEntity
8
Layer_1
6
ByLayer
62
7
370
-1
100
AcDbSpline
210
0
220
0
230
1
70
8
71
3
72
8
73
4
74
0
42
1e-07
43
1e-07
40
0
40
0
40
0
40
0
40
1
40
1
40
1
40
1
10
316.112561
20
1414.705643
30
0
10
317.670813
20
1417.090222
30
0
10
319.500587
20
1418.87278
30
0
10
321.6019
20
1420.053323
30
0
0
SPLINE
5
129
100
AcDbEntity
8
Layer_1
6
ByLayer
62
7
370
-1
100
AcDbSpline
210
0
220
0
230
1
70
8
71
3
72
8
73
4
74
0
42
1e-07
43
1e-07
40
0
40
0
40
0
40
0
40
1
40
1
40
1
40
1
10
321.6019
20
1420.053323
30
0
10
323.726785
20
1421.233787
30
0
10
326.170426
20
1421.824037
30
0
10
328.932821
20
1421.824073
30
0
0
SPLINE
5
12A
100
AcDbEntity
8
Layer_1
6
ByLayer
62
7
370
-1
100
AcDbSpline
210
0
220
0
230
1
70
8
71
3
72
8
73
4
74
0
42
1e-07
43
1e-07
40
0
40
0
40
0
40
0
40
1
40
1
40
1
40
1
10
328.932821
20
1421.824073
30
0
10
333.489532
20
1421.824037
30
0
10
336.936597
20
1420.40743
30
0
10
339.274032
20
1417.574266
30
0
0
SPLINE
5
12B
100
AcDbEntity
8
Layer_1
6
ByLayer
62
7
370
-1
100
AcDbSpline
210
0
220
0
230
1
70
8
71
3
72
8
73
4
74
0
42
1e-07
43
1e-07
40
0
40
0
40
0
40
0
40
1
40
1
40
1
40
1
10
339.274032
20
1417.574266
30
0
10
341.611387
20
1414.764632
30
0
10
342.780086
20
1410.621074
30
0
10
342.780122
20
1405.143573
30
0
0
LWPOLYLINE
5
12C
100
AcDbEntity
8
Layer_1
6
ByLayer
62
7
370
-1
100
AcDbPolyline
90
6
70
0
43
0
10
316.112561
20
1403.620724
10
316.112561
20
1381.202969
10
309.560773
20
1381.202969
10
309.560773
20
1420.867865
10
316.112561
20
1420.867865
10
316.112561
20
1414.705643
0
SPLINE
5
12D
100
AcDbEntity
8
Layer_1
6
ByLayer
62
7
370
-1
100
AcDbSpline
210
0
220
0
230
1
70
8
71
3
72
8
73
4
74
0
42
1e-07
43
1e-07
40
0
40
0
40
0
40
0
40
1
40
1
40
1
40
1
10
381.13466
20
1413.536944
30
0
10
379.293048
20
1414.481315
30
0
10
377.380633
20
1415.189615
30
0
10
375.397414
20
1415.661851
30
0
0
SPLINE
5
12E
100
AcDbEntity
8
Layer_1
6
ByLayer
62
7
370
-1
100
AcDbSpline
210
0
220
0
230
1
70
8
71
3
72
8
73
4
74
0
42
1e-07
43
1e-07
40
0
40
0
40
0
40
0
40
1
40
1
40
1
40
1
10
375.397414
20
1415.661851
30
0
10
373.414143
20
1416.134014
30
0
10
371.360077
20
1416.370114
30
0
10
369.235191
20
1416.370151
30
0
0
SPLINE
5
12F
100
AcDbEntity
8
Layer_1
6
ByLayer
62
7
370
-1
100
AcDbSpline
210
0
220
0
230
1
70
8
71
3
72
8
73
4
74
0
42
1e-07
43
1e-07
40
0
40
0
40
0
40
0
40
1
40
1
40
1
40
1
10
369.235191
20
1416.370151
30
0
10
366.000596
20
1416.370114
30
0
10
363.568763
20
1415.874306
30
0
10
361.939687
20
1414.882718
30
0
0
SPLINE
5
130
100
AcDbEntity
8
Layer_1
6
ByLayer
62
7
370
-1
100
AcDbSpline
210
0
220
0
230
1
70
8
71
3
72
8
73
4
74
0
42
1e-07
43
1e-07
40
0
40
0
40
0
40
0
40
1
40
1
40
1
40
1
10
361.939687
20
1414.882718
30
0
10
360.334189
20
1413.891065
30
0
10
359.531448
20
1412.403632
30
0
10
359.531455
20
1410.42042
30
0
0
SPLINE
5
131
100
AcDbEntity
8
Layer_1
6
ByLayer
62
7
370
-1
100
AcDbSpline
210
0
220
0
230
1
70
8
71
3
72
8
73
4
74
0
42
1e-07
43
1e-07
40
0
40
0
40
0
40
0
40
1
40
1
40
1
40
1
10
359.531455
20
1410.42042
30
0
10
359.531448
20
1408.90935
30
0
10
360.10989
20
1407.717042
30
0
10
361.266796
20
1406.843497
30
0
0
SPLINE
5
132
100
AcDbEntity
8
Layer_1
6
ByLayer
62
7
370
-1
100
AcDbSpline
210
0
220
0
230
1
70
8
71
3
72
8
73
4
74
0
42
1e-07
43
1e-07
40
0
40
0
40
0
40
0
40
1
40
1
40
1
40
1
10
361.266796
20
1406.843497
30
0
10
362.423673
20
1405.993509
30
0
10
364.749263
20
1405.17896
30
0
10
368.243567
20
1404.399856
30
0
0
LWPOLYLINE
5
133
100
AcDbEntity
8
Layer_1
6
ByLayer
62
7
370
-1
100
AcDbPolyline
90
2
70
0
43
0
10
381.13466
20
1419.699173
10
381.13466
20
1413.536944
0
SPLINE
5
134
100
AcDbEntity
8
Layer_1
6
ByLayer
62
7
370
-1
100
AcDbSpline
210
0
220
0
230
1
70
8
71
3
72
8
73
4
74
0
42
1e-07
43
1e-07
40
0
40
0
40
0
40
0
40
1
40
1
40
1
40
1
10
370.474716
20
1403.904041
30
0
10
375.102267
20
1402.912395
30
0
10
378.384058
20
1401.507603
30
0
10
380.320111
20
1399.68965
30
0
0
SPLINE
5
135
100
AcDbEntity
8
Layer_1
6
ByLayer
62
7
370
-1
100
AcDbSpline
210
0
220
0
230
1
70
8
71
3
72
8
73
4
74
0
42
1e-07
43
1e-07
40
0
40
0
40
0
40
0
40
1
40
1
40
1
40
1
10
380.320111
20
1399.68965
30
0
10
382.279715
20
1397.895263
30
0
10
383.259531
20
1395.380797
30
0
10
383.259567
20
1392.14623
30
0
0
SPLINE
5
136
100
AcDbEntity
8
Layer_1
6
ByLayer
62
7
370
-1
100
AcDbSpline
210
0
220
0
230
1
70
8
71
3
72
8
73
4
74
0
42
1e-07
43
1e-07
40
0
40
0
40
0
40
0
40
1
40
1
40
1
40
1
10
383.259567
20
1392.14623
30
0
10
383.259531
20
1388.463058
30
0
10
381.795707
20
1385.547218
30
0
10
378.868095
20
1383.398709
30
0
0
SPLINE
5
137
100
AcDbEntity
8
Layer_1
6
ByLayer
62
7
370
-1
100
AcDbSpline
210
0
220
0
230
1
70
8
71
3
72
8
73
4
74
0
42
1e-07
43
1e-07
40
0
40
0
40
0
40
0
40
1
40
1
40
1
40
1
10
378.868095
20
1383.398709
30
0
10
375.964033
20
1381.250194
30
0
10
371.962127
20
1380.175936
30
0
10
366.862377
20
1380.175936
30
0
0
SPLINE
5
138
100
AcDbEntity
8
Layer_1
6
ByLayer
62
7
370
-1
100
AcDbSpline
210
0
220
0
230
1
70
8
71
3
72
8
73
4
74
0
42
1e-07
43
1e-07
40
0
40
0
40
0
40
0
40
1
40
1
40
1
40
1
10
366.862377
20
1380.175936
30
0
10
364.737462
20
1380.175936
30
0
10
362.518114
20
1380.388428
30
0
10
360.204346
20
1380.813403
30
0
0
SPLINE
5
139
100
AcDbEntity
8
Layer_1
6
ByLayer
62
7
370
-1
100
AcDbSpline
210
0
220
0
230
1
70
8
71
3
72
8
73
4
74
0
42
1e-07
43
1e-07
40
0
40
0
40
0
40
0
40
1
40
1
40
1
40
1
10
360.204346
20
1380.813403
30
0
10
357.914157
20
1381.214777
30
0
10
355.494133
20
1381.828636
30
0
10
352.94425
20
1382.654993
30
0
0
LWPOLYLINE
5
13A
100
AcDbEntity
8
Layer_1
6
ByLayer
62
7
370
-1
100
AcDbPolyline
90
2
70
0
43
0
10
368.243567
20
1404.399856
10
370.474716
20
1403.904041
0
SPLINE
5
13B
100
AcDbEntity
8
Layer_1
6
ByLayer
62
7
370
-1
100
AcDbSpline
210
0
220
0
230
1
70
8
71
3
72
8
73
4
74
0
42
1e-07
43
1e-07
40
0
40
0
40
0
40
0
40
1
40
1
40
1
40
1
10
352.94425
20
1389.383857
30
0
10
355.352474
20
1388.132517
30
0
10
357.725282
20
1387.188117
30
0
10
360.06268
20
1386.55065
30
0
0
SPLINE
5
13C
100
AcDbEntity
8
Layer_1
6
ByLayer
62
7
370
-1
100
AcDbSpline
210
0
220
0
230
1
70
8
71
3
72
8
73
4
74
0
42
1e-07
43
1e-07
40
0
40
0
40
0
40
0
40
1
40
1
40
1
40
1
10
360.06268
20
1386.55065
30
0
10
362.400064
20
1385.936784
30
0
10
364.713847
20
1385.629851
30
0
10
367.004042
20
1385.629858
30
0
0
SPLINE
5
13D
100
AcDbEntity
8
Layer_1
6
ByLayer
62
7
370
-1
100
AcDbSpline
210
0
220
0
230
1
70
8
71
3
72
8
73
4
74
0
42
1e-07
43
1e-07
40
0
40
0
40
0
40
0
40
1
40
1
40
1
40
1
10
367.004042
20
1385.629858
30
0
10
370.073327
20
1385.629851
30
0
10
372.434327
20
1386.149275
30
0
10
374.087056
20
1387.188124
30
0
0
SPLINE
5
13E
100
AcDbEntity
8
Layer_1
6
ByLayer
62
7
370
-1
100
AcDbSpline
210
0
220
0
230
1
70
8
71
3
72
8
73
4
74
0
42
1e-07
43
1e-07
40
0
40
0
40
0
40
0
40
1
40
1
40
1
40
1
10
374.087056
20
1387.188124
30
0
10
375.739734
20
1388.250567
30
0
10
376.566084
20
1389.737999
30
0
10
376.566113
20
1391.650422
30
0
0
SPLINE
5
13F
100
AcDbEntity
8
Layer_1
6
ByLayer
62
7
370
-1
100
AcDbSpline
210
0
220
0
230
1
70
8
71
3
72
8
73
4
74
0
42
1e-07
43
1e-07
40
0
40
0
40
0
40
0
40
1
40
1
40
1
40
1
10
376.566113
20
1391.650422
30
0
10
376.566084
20
1393.421164
30
0
10
375.964033
20
1394.778739
30
0
10
374.759947
20
1395.723161
30
0
0
SPLINE
5
140
100
AcDbEntity
8
Layer_1
6
ByLayer
62
7
370
-1
100
AcDbSpline
210
0
220
0
230
1
70
8
71
3
72
8
73
4
74
0
42
1e-07
43
1e-07
40
0
40
0
40
0
40
0
40
1
40
1
40
1
40
1
10
374.759947
20
1395.723161
30
0
10
373.579418
20
1396.667546
30
0
10
370.97051
20
1397.57653
30
0
10
366.93321
20
1398.450118
30
0
0
LWPOLYLINE
5
141
100
AcDbEntity
8
Layer_1
6
ByLayer
62
7
370
-1
100
AcDbPolyline
90
2
70
0
43
0
10
352.94425
20
1382.654993
10
352.94425
20
1389.383857
0
SPLINE
5
142
100
AcDbEntity
8
Layer_1
6
ByLayer
62
7
370
-1
100
AcDbSpline
210
0
220
0
230
1
70
8
71
3
72
8
73
4
74
0
42
1e-07
43
1e-07
40
0
40
0
40
0
40
0
40
1
40
1
40
1
40
1
10
364.666644
20
1398.981343
30
0
10
360.629314
20
1399.831287
30
0
10
357.713474
20
1401.129837
30
0
10
355.919116
20
1402.877007
30
0
0
SPLINE
5
143
100
AcDbEntity
8
Layer_1
6
ByLayer
62
7
370
-1
100
AcDbSpline
210
0
220
0
230
1
70
8
71
3
72
8
73
4
74
0
42
1e-07
43
1e-07
40
0
40
0
40
0
40
0
40
1
40
1
40
1
40
1
10
355.919116
20
1402.877007
30
0
10
354.12475
20
1404.647735
30
0
10
353.227567
20
1407.067767
30
0
10
353.227575
20
1410.137096
30
0
0
SPLINE
5
144
100
AcDbEntity
8
Layer_1
6
ByLayer
62
7
370
-1
100
AcDbSpline
210
0
220
0
230
1
70
8
71
3
72
8
73
4
74
0
42
1e-07
43
1e-07
40
0
40
0
40
0
40
0
40
1
40
1
40
1
40
1
10
353.227575
20
1410.137096
30
0
10
353.227567
20
1413.867456
30
0
10
354.549733
20
1416.74788
30
0
10
357.194064
20
1418.778375
30
0
0
SPLINE
5
145
100
AcDbEntity
8
Layer_1
6
ByLayer
62
7
370
-1
100
AcDbSpline
210
0
220
0
230
1
70
8
71
3
72
8
73
4
74
0
42
1e-07
43
1e-07
40
0
40
0
40
0
40
0
40
1
40
1
40
1
40
1
10
357.194064
20
1418.778375
30
0
10
359.838381
20
1420.808804
30
0
10
363.592372
20
1421.824037
30
0
10
368.456059
20
1421.824073
30
0
0
SPLINE
5
146
100
AcDbEntity
8
Layer_1
6
ByLayer
62
7
370
-1
100
AcDbSpline
210
0
220
0
230
1
70
8
71
3
72
8
73
4
74
0
42
1e-07
43
1e-07
40
0
40
0
40
0
40
0
40
1
40
1
40
1
40
1
10
368.456059
20
1421.824073
30
0
10
370.864261
20
1421.824037
30
0
10
373.130826
20
1421.646962
30
0
10
375.255755
20
1421.292848
30
0
0
SPLINE
5
147
100
AcDbEntity
8
Layer_1
6
ByLayer
62
7
370
-1
100
AcDbSpline
210
0
220
0
230
1
70
8
71
3
72
8
73
4
74
0
42
1e-07
43
1e-07
40
0
40
0
40
0
40
0
40
1
40
1
40
1
40
1
10
375.255755
20
1421.292848
30
0
10
377.380633
20
1420.938662
30
0
10
379.340266
20
1420.40743
30
0
10
381.13466
20
1419.699173
30
0
0
SPLINE
5
148
100
AcDbEntity
8
Layer_1
6
ByLayer
62
7
370
-1
100
AcDbSpline
210
0
220
0
230
1
70
8
71
3
72
8
73
4
74
0
42
1e-07
43
1e-07
40
0
40
0
40
0
40
0
40
1
40
1
40
1
40
1
10
409.041746
20
1416.299325
30
0
10
405.547442
20
1416.299289
30
0
10
402.785068
20
1414.929906
30
0
10
400.754617
20
1412.19117
30
0
0
SPLINE
5
149
100
AcDbEntity
8
Layer_1
6
ByLayer
62
7
370
-1
100
AcDbSpline
210
0
220
0
230
1
70
8
71
3
72
8
73
4
74
0
42
1e-07
43
1e-07
40
0
40
0
40
0
40
0
40
1
40
1
40
1
40
1
10
400.754617
20
1412.19117
30
0
10
398.724144
20
1409.475984
30
0
10
397.708911
20
1405.745602
30
0
10
397.708918
20
1401.000008
30
0
0
SPLINE
5
14A
100
AcDbEntity
8
Layer_1
6
ByLayer
62
7
370
-1
100
AcDbSpline
210
0
220
0
230
1
70
8
71
3
72
8
73
4
74
0
42
1e-07
43
1e-07
40
0
40
0
40
0
40
0
40
1
40
1
40
1
40
1
10
397.708918
20
1401.000008
30
0
10
397.708911
20
1396.254371
30
0
10
398.712336
20
1392.512181
30
0
10
400.7192
20
1389.773423
30
0
0
SPLINE
5
14B
100
AcDbEntity
8
Layer_1
6
ByLayer
62
7
370
-1
100
AcDbSpline
210
0
220
0
230
1
70
8
71
3
72
8
73
4
74
0
42
1e-07
43
1e-07
40
0
40
0
40
0
40
0
40
1
40
1
40
1
40
1
10
400.7192
20
1389.773423
30
0
10
402.749651
20
1387.058259
30
0
10
405.523833
20
1385.700684
30
0
10
409.041746
20
1385.700691
30
0
0
SPLINE
5
14C
100
AcDbEntity
8
Layer_1
6
ByLayer
62
7
370
-1
100
AcDbSpline
210
0
220
0
230
1
70
8
71
3
72
8
73
4
74
0
42
1e-07
43
1e-07
40
0
40
0
40
0
40
0
40
1
40
1
40
1
40
1
10
409.041746
20
1385.700691
30
0
10
412.512398
20
1385.700684
30
0
10
415.262971
20
1387.070067
30
0
10
417.293458
20
1389.808839
30
0
0
SPLINE
5
14D
100
AcDbEntity
8
Layer_1
6
ByLayer
62
7
370
-1
100
AcDbSpline
210
0
220
0
230
1
70
8
71
3
72
8
73
4
74
0
42
1e-07
43
1e-07
40
0
40
0
40
0
40
0
40
1
40
1
40
1
40
1
10
417.293458
20
1389.808839
30
0
10
419.323895
20
1392.54759
30
0
10
420.339128
20
1396.27798
30
0
10
420.339157
20
1401.000008
30
0
0
SPLINE
5
14E
100
AcDbEntity
8
Layer_1
6
ByLayer
62
7
370
-1
100
AcDbSpline
210
0
220
0
230
1
70
8
71
3
72
8
73
4
74
0
42
1e-07
43
1e-07
40
0
40
0
40
0
40
0
40
1
40
1
40
1
40
1
10
420.339157
20
1401.000008
30
0
10
420.339128
20
1405.698384
30
0
10
419.323895
20
1409.416959
30
0
10
417.293458
20
1412.155761
30
0
0
SPLINE
5
14F
100
AcDbEntity
8
Layer_1
6
ByLayer
62
7
370
-1
100
AcDbSpline
210
0
220
0
230
1
70
8
71
3
72
8
73
4
74
0
42
1e-07
43
1e-07
40
0
40
0
40
0
40
0
40
1
40
1
40
1
40
1
10
417.293458
20
1412.155761
30
0
10
415.262971
20
1414.918098
30
0
10
412.512398
20
1416.299289
30
0
10
409.041746
20
1416.299325
30
0
0
SPLINE
5
150
100
AcDbEntity
8
Layer_1
6
ByLayer
62
7
370
-1
100
AcDbSpline
210
0
220
0
230
1
70
8
71
3
72
8
73
4
74
0
42
1e-07
43
1e-07
40
0
40
0
40
0
40
0
40
1
40
1
40
1
40
1
10
409.041746
20
1421.824073
30
0
10
414.70813
20
1421.824037
30
0
10
419.158628
20
1419.982454
30
0
10
422.393231
20
1416.299325
30
0
0
SPLINE
5
151
100
AcDbEntity
8
Layer_1
6
ByLayer
62
7
370
-1
100
AcDbSpline
210
0
220
0
230
1
70
8
71
3
72
8
73
4
74
0
42
1e-07
43
1e-07
40
0
40
0
40
0
40
0
40
1
40
1
40
1
40
1
10
422.393231
20
1416.299325
30
0
10
425.627775
20
1412.616124
30
0
10
427.245059
20
1407.516351
30
0
10
427.245102
20
1401.000008
30
0
0
SPLINE
5
152
100
AcDbEntity
8
Layer_1
6
ByLayer
62
7
370
-1
100
AcDbSpline
210
0
220
0
230
1
70
8
71
3
72
8
73
4
74
0
42
1e-07
43
1e-07
40
0
40
0
40
0
40
0
40
1
40
1
40
1
40
1
10
427.245102
20
1401.000008
30
0
10
427.245059
20
1394.507223
30
0
10
425.627775
20
1389.407458
30
0
10
422.393231
20
1385.700691
30
0
0
SPLINE
5
153
100
AcDbEntity
8
Layer_1
6
ByLayer
62
7
370
-1
100
AcDbSpline
210
0
220
0
230
1
70
8
71
3
72
8
73
4
74
0
42
1e-07
43
1e-07
40
0
40
0
40
0
40
0
40
1
40
1
40
1
40
1
10
422.393231
20
1385.700691
30
0
10
419.158628
20
1382.017519
30
0
10
414.70813
20
1380.175936
30
0
10
409.041746
20
1380.175936
30
0
0
SPLINE
5
154
100
AcDbEntity
8
Layer_1
6
ByLayer
62
7
370
-1
100
AcDbSpline
210
0
220
0
230
1
70
8
71
3
72
8
73
4
74
0
42
1e-07
43
1e-07
40
0
40
0
40
0
40
0
40
1
40
1
40
1
40
1
10
409.041746
20
1380.175936
30
0
10
403.351709
20
1380.175936
30
0
10
398.889411
20
1382.017519
30
0
10
395.654844
20
1385.700691
30
0
0
SPLINE
5
155
100
AcDbEntity
8
Layer_1
6
ByLayer
62
7
370
-1
100
AcDbSpline
210
0
220
0
230
1
70
8
71
3
72
8
73
4
74
0
42
1e-07
43
1e-07
40
0
40
0
40
0
40
0
40
1
40
1
40
1
40
1
10
395.654844
20
1385.700691
30
0
10
392.443872
20
1389.407458
30
0
10
390.838389
20
1394.507223
30
0
10
390.838396
20
1401.000008
30
0
0
SPLINE
5
156
100
AcDbEntity
8
Layer_1
6
ByLayer
62
7
370
-1
100
AcDbSpline
210
0
220
0
230
1
70
8
71
3
72
8
73
4
74
0
42
1e-07
43
1e-07
40
0
40
0
40
0
40
0
40
1
40
1
40
1
40
1
10
390.838396
20
1401.000008
30
0
10
390.838389
20
1407.516351
30
0
10
392.443872
20
1412.616124
30
0
10
395.654844
20
1416.299325
30
0
0
SPLINE
5
157
100
AcDbEntity
8
Layer_1
6
ByLayer
62
7
370
-1
100
AcDbSpline
210
0
220
0
230
1
70
8
71
3
72
8
73
4
74
0
42
1e-07
43
1e-07
40
0
40
0
40
0
40
0
40
1
40
1
40
1
40
1
10
395.654844
20
1416.299325
30
0
10
398.889411
20
1419.982454
30
0
10
403.351709
20
1421.824037
30
0
10
409.041746
20
1421.824073
30
0
0
SPLINE
5
158
100
AcDbEntity
8
Layer_1
6
ByLayer
62
7
370
-1
100
AcDbSpline
210
0
220
0
230
1
70
8
71
3
72
8
73
4
74
0
42
1e-07
43
1e-07
40
0
40
0
40
0
40
0
40
1
40
1
40
1
40
1
10
460.995676
20
1414.776476
30
0
10
460.263739
20
1415.201423
30
0
10
459.460998
20
1415.508348
30
0
10
458.587452
20
1415.697267
30
0
0
SPLINE
5
159
100
AcDbEntity
8
Layer_1
6
ByLayer
62
7
370
-1
100
AcDbSpline
210
0
220
0
230
1
70
8
71
3
72
8
73
4
74
0
42
1e-07
43
1e-07
40
0
40
0
40
0
40
0
40
1
40
1
40
1
40
1
10
458.587452
20
1415.697267
30
0
10
457.737465
20
1415.909722
30
0
10
456.793065
20
1416.015964
30
0
10
455.754246
20
1416.016001
30
0
0
SPLINE
5
15A
100
AcDbEntity
8
Layer_1
6
ByLayer
62
7
370
-1
100
AcDbSpline
210
0
220
0
230
1
70
8
71
3
72
8
73
4
74
0
42
1e-07
43
1e-07
40
0
40
0
40
0
40
0
40
1
40
1
40
1
40
1
10
455.754246
20
1416.016001
30
0
10
452.071051
20
1416.015964
30
0
10
449.237852
20
1414.811856
30
0
10
447.254625
20
1412.403661
30
0
0
SPLINE
5
15B
100
AcDbEntity
8
Layer_1
6
ByLayer
62
7
370
-1
100
AcDbSpline
210
0
220
0
230
1
70
8
71
3
72
8
73
4
74
0
42
1e-07
43
1e-07
40
0
40
0
40
0
40
0
40
1
40
1
40
1
40
1
10
447.254625
20
1412.403661
30
0
10
445.294978
20
1410.019017
30
0
10
444.315162
20
1406.583759
30
0
10
444.315169
20
1402.097874
30
0
0
LWPOLYLINE
5
15C
100
AcDbEntity
8
Layer_1
6
ByLayer
62
7
370
-1
100
AcDbPolyline
90
2
70
0
43
0
10
366.93321
20
1398.450118
10
364.666644
20
1398.981343
0
SPLINE
5
15D
100
AcDbEntity
8
Layer_1
6
ByLayer
62
7
370
-1
100
AcDbSpline
210
0
220
0
230
1
70
8
71
3
72
8
73
4
74
0
42
1e-07
43
1e-07
40
0
40
0
40
0
40
0
40
1
40
1
40
1
40
1
10
444.315169
20
1414.705643
30
0
10
445.684544
20
1417.113831
30
0
10
447.467102
20
1418.896388
30
0
10
449.662849
20
1420.053323
30
0
0
SPLINE
5
15E
100
AcDbEntity
8
Layer_1
6
ByLayer
62
7
370
-1
100
AcDbSpline
210
0
220
0
230
1
70
8
71
3
72
8
73
4
74
0
42
1e-07
43
1e-07
40
0
40
0
40
0
40
0
40
1
40
1
40
1
40
1
10
449.662849
20
1420.053323
30
0
10
451.858567
20
1421.233787
30
0
10
454.5265
20
1421.824037
30
0
10
457.666661
20
1421.824073
30
0
0
SPLINE
5
15F
100
AcDbEntity
8
Layer_1
6
ByLayer
62
7
370
-1
100
AcDbSpline
210
0
220
0
230
1
70
8
71
3
72
8
73
4
74
0
42
1e-07
43
1e-07
40
0
40
0
40
0
40
0
40
1
40
1
40
1
40
1
10
457.666661
20
1421.824073
30
0
10
458.115224
20
1421.824037
30
0
10
458.611032
20
1421.788606
30
0
10
459.154094
20
1421.717831
30
0
0
SPLINE
5
160
100
AcDbEntity
8
Layer_1
6
ByLayer
62
7
370
-1
100
AcDbSpline
210
0
220
0
230
1
70
8
71
3
72
8
73
4
74
0
42
1e-07
43
1e-07
40
0
40
0
40
0
40
0
40
1
40
1
40
1
40
1
10
459.154094
20
1421.717831
30
0
10
459.697098
20
1421.670541
30
0
10
460.299148
20
1421.587937
30
0
10
460.96026
20
1421.469923
30
0
0
LWPOLYLINE
5
161
100
AcDbEntity
8
Layer_1
6
ByLayer
62
7
370
-1
100
AcDbPolyline
90
6
70
0
43
0
10
444.315169
20
1402.097874
10
444.315169
20
1381.202969
10
437.76338
20
1381.202969
10
437.76338
20
1420.867865
10
444.315169
20
1420.867865
10
444.315169
20
1414.705643
0
LWPOLYLINE
5
162
100
AcDbEntity
8
Layer_1
6
ByLayer
62
7
370
-1
100
AcDbPolyline
90
2
70
0
43
0
10
460.96026
20
1421.469923
10
460.995655
20
1414.776476
0
SPLINE
5
163
100
AcDbEntity
8
Layer_1
6
ByLayer
62
7
370
-1
100
AcDbSpline
210
0
220
0
230
1
70
8
71
3
72
8
73
4
74
0
42
1e-07
43
1e-07
40
0
40
0
40
0
40
0
40
1
40
1
40
1
40
1
10
470.27443
20
1399.477159
30
0
10
470.55774
20
1394.991231
30
0
10
471.903514
20
1391.567774
30
0
10
474.311752
20
1389.206782
30
0
0
SPLINE
5
164
100
AcDbEntity
8
Layer_1
6
ByLayer
62
7
370
-1
100
AcDbSpline
210
0
220
0
230
1
70
8
71
3
72
8
73
4
74
0
42
1e-07
43
1e-07
40
0
40
0
40
0
40
0
40
1
40
1
40
1
40
1
10
474.311752
20
1389.206782
30
0
10
476.74357
20
1386.869383
30
0
10
480.119803
20
1385.700684
30
0
10
484.440464
20
1385.700691
30
0
0
SPLINE
5
165
100
AcDbEntity
8
Layer_1
6
ByLayer
62
7
370
-1
100
AcDbSpline
210
0
220
0
230
1
70
8
71
3
72
8
73
4
74
0
42
1e-07
43
1e-07
40
0
40
0
40
0
40
0
40
1
40
1
40
1
40
1
10
484.440464
20
1385.700691
30
0
10
486.9431
20
1385.700684
30
0
10
489.363132
20
1386.007617
30
0
10
491.70056
20
1386.621483
30
0
0
SPLINE
5
166
100
AcDbEntity
8
Layer_1
6
ByLayer
62
7
370
-1
100
AcDbSpline
210
0
220
0
230
1
70
8
71
3
72
8
73
4
74
0
42
1e-07
43
1e-07
40
0
40
0
40
0
40
0
40
1
40
1
40
1
40
1
10
491.70056
20
1386.621483
30
0
10
494.06153
20
1387.235334
30
0
10
496.398921
20
1388.156125
30
0
10
498.71274
20
1389.383857
30
0
0
LWPOLYLINE
5
167
100
AcDbEntity
8
Layer_1
6
ByLayer
62
7
370
-1
100
AcDbPolyline
90
3
70
0
43
0
10
500.235589
20
1402.664516
10
500.235589
20
1399.477159
10
470.27443
20
1399.477159
0
SPLINE
5
168
100
AcDbEntity
8
Layer_1
6
ByLayer
62
7
370
-1
100
AcDbSpline
210
0
220
0
230
1
70
8
71
3
72
8
73
4
74
0
42
1e-07
43
1e-07
40
0
40
0
40
0
40
0
40
1
40
1
40
1
40
1
10
498.71274
20
1383.221634
30
0
10
496.375313
20
1382.23001
30
0
10
493.978889
20
1381.474486
30
0
10
491.523477
20
1380.955069
30
0
0
SPLINE
5
169
100
AcDbEntity
8
Layer_1
6
ByLayer
62
7
370
-1
100
AcDbSpline
210
0
220
0
230
1
70
8
71
3
72
8
73
4
74
0
42
1e-07
43
1e-07
40
0
40
0
40
0
40
0
40
1
40
1
40
1
40
1
10
491.523477
20
1380.955069
30
0
10
489.068007
20
1380.435645
30
0
10
486.57715
20
1380.175936
30
0
10
484.050898
20
1380.175936
30
0
0
SPLINE
5
16A
100
AcDbEntity
8
Layer_1
6
ByLayer
62
7
370
-1
100
AcDbSpline
210
0
220
0
230
1
70
8
71
3
72
8
73
4
74
0
42
1e-07
43
1e-07
40
0
40
0
40
0
40
0
40
1
40
1
40
1
40
1
10
484.050898
20
1380.175936
30
0
10
477.723387
20
1380.175936
30
0
10
472.706255
20
1382.017519
30
0
10
468.999488
20
1385.700691
30
0
0
SPLINE
5
16B
100
AcDbEntity
8
Layer_1
6
ByLayer
62
7
370
-1
100
AcDbSpline
210
0
220
0
230
1
70
8
71
3
72
8
73
4
74
0
42
1e-07
43
1e-07
40
0
40
0
40
0
40
0
40
1
40
1
40
1
40
1
10
468.999488
20
1385.700691
30
0
10
465.316309
20
1389.383849
30
0
10
463.474726
20
1394.365564
30
0
10
463.474733
20
1400.645851
30
0
0
SPLINE
5
16C
100
AcDbEntity
8
Layer_1
6
ByLayer
62
7
370
-1
100
AcDbSpline
210
0
220
0
230
1
70
8
71
3
72
8
73
4
74
0
42
1e-07
43
1e-07
40
0
40
0
40
0
40
0
40
1
40
1
40
1
40
1
10
463.474733
20
1400.645851
30
0
10
463.474726
20
1407.138593
30
0
10
465.221875
20
1412.285582
30
0
10
468.716164
20
1416.086834
30
0
0
SPLINE
5
16D
100
AcDbEntity
8
Layer_1
6
ByLayer
62
7
370
-1
100
AcDbSpline
210
0
220
0
230
1
70
8
71
3
72
8
73
4
74
0
42
1e-07
43
1e-07
40
0
40
0
40
0
40
0
40
1
40
1
40
1
40
1
10
468.716164
20
1416.086834
30
0
10
472.234055
20
1419.911621
30
0
10
476.967862
20
1421.824037
30
0
10
482.917615
20
1421.824073
30
0
0
SPLINE
5
16E
100
AcDbEntity
8
Layer_1
6
ByLayer
62
7
370
-1
100
AcDbSpline
210
0
220
0
230
1
70
8
71
3
72
8
73
4
74
0
42
1e-07
43
1e-07
40
0
40
0
40
0
40
0
40
1
40
1
40
1
40
1
10
482.917615
20
1421.824073
30
0
10
488.253458
20
1421.824037
30
0
10
492.467848
20
1420.100504
30
0
10
495.5608
20
1416.653475
30
0
0
SPLINE
5
16F
100
AcDbEntity
8
Layer_1
6
ByLayer
62
7
370
-1
100
AcDbSpline
210
0
220
0
230
1
70
8
71
3
72
8
73
4
74
0
42
1e-07
43
1e-07
40
0
40
0
40
0
40
0
40
1
40
1
40
1
40
1
10
495.5608
20
1416.653475
30
0
10
498.677287
20
1413.229982
30
0
10
500.235553
20
1408.567
30
0
10
500.235589
20
1402.664516
30
0
0
SPLINE
5
170
100
AcDbEntity
8
Layer_1
6
ByLayer
62
7
370
-1
100
AcDbSpline
210
0
220
0
230
1
70
8
71
3
72
8
73
4
74
0
42
1e-07
43
1e-07
40
0
40
0
40
0
40
0
40
1
40
1
40
1
40
1
10
493.719217
20
1404.576931
30
0
10
493.671928
20
1408.142018
30
0
10
492.668539
20
1410.987032
30
0
10
490.708935
20
1413.111961
30
0
0
SPLINE
5
171
100
AcDbEntity
8
Layer_1
6
ByLayer
62
7
370
-1
100
AcDbSpline
210
0
220
0
230
1
70
8
71
3
72
8
73
4
74
0
42
1e-07
43
1e-07
40
0
40
0
40
0
40
0
40
1
40
1
40
1
40
1
10
490.708935
20
1413.111961
30
0
10
488.772882
20
1415.236839
30
0
10
486.199384
20
1416.299289
30
0
10
482.988448
20
1416.299325
30
0
0
SPLINE
5
172
100
AcDbEntity
8
Layer_1
6
ByLayer
62
7
370
-1
100
AcDbSpline
210
0
220
0
230
1
70
8
71
3
72
8
73
4
74
0
42
1e-07
43
1e-07
40
0
40
0
40
0
40
0
40
1
40
1
40
1
40
1
10
482.988448
20
1416.299325
30
0
10
479.352478
20
1416.299289
30
0
10
476.436637
20
1415.272248
30
0
10
474.240919
20
1413.21821
30
0
0
SPLINE
5
173
100
AcDbEntity
8
Layer_1
6
ByLayer
62
7
370
-1
100
AcDbSpline
210
0
220
0
230
1
70
8
71
3
72
8
73
4
74
0
42
1e-07
43
1e-07
40
0
40
0
40
0
40
0
40
1
40
1
40
1
40
1
10
474.240919
20
1413.21821
30
0
10
472.068781
20
1411.164107
30
0
10
470.817448
20
1408.271875
30
0
10
470.486921
20
1404.541515
30
0
0
LWPOLYLINE
5
174
100
AcDbEntity
8
Layer_1
6
ByLayer
62
7
370
-1
100
AcDbPolyline
90
2
70
0
43
0
10
498.71274
20
1389.383857
10
498.71274
20
1383.221634
0
LWPOLYLINE
5
175
100
AcDbEntity
8
Layer_1
6
ByLayer
62
7
370
-1
100
AcDbPolyline
90
2
70
0
43
0
10
470.486921
20
1404.541515
10
493.719217
20
1404.57691
0
SPLINE
5
176
100
AcDbEntity
8
Layer_1
6
ByLayer
62
7
370
-1
100
AcDbSpline
210
0
220
0
230
1
70
8
71
3
72
8
73
4
74
0
42
1e-07
43
1e-07
40
0
40
0
40
0
40
0
40
1
40
1
40
1
40
1
10
537.031869
20
1387.152707
30
0
10
535.66245
20
1384.791701
30
0
10
533.927117
20
1383.032751
30
0
10
531.825847
20
1381.87586
30
0
0
SPLINE
5
177
100
AcDbEntity
8
Layer_1
6
ByLayer
62
7
370
-1
100
AcDbSpline
210
0
220
0
230
1
70
8
71
3
72
8
73
4
74
0
42
1e-07
43
1e-07
40
0
40
0
40
0
40
0
40
1
40
1
40
1
40
1
10
531.825847
20
1381.87586
30
0
10
529.748136
20
1380.742577
30
0
10
527.245478
20
1380.175936
30
0
10
524.317851
20
1380.175936
30
0
0
SPLINE
5
178
100
AcDbEntity
8
Layer_1
6
ByLayer
62
7
370
-1
100
AcDbSpline
210
0
220
0
230
1
70
8
71
3
72
8
73
4
74
0
42
1e-07
43
1e-07
40
0
40
0
40
0
40
0
40
1
40
1
40
1
40
1
10
524.317851
20
1380.175936
30
0
10
519.52499
20
1380.175936
30
0
10
515.617533
20
1382.088352
30
0
10
512.595457
20
1385.913175
30
0
0
SPLINE
5
179
100
AcDbEntity
8
Layer_1
6
ByLayer
62
7
370
-1
100
AcDbSpline
210
0
220
0
230
1
70
8
71
3
72
8
73
4
74
0
42
1e-07
43
1e-07
40
0
40
0
40
0
40
0
40
1
40
1
40
1
40
1
10
512.595457
20
1385.913175
30
0
10
509.596976
20
1389.737999
30
0
10
508.097736
20
1394.766939
30
0
10
508.097743
20
1401.000008
30
0
0
SPLINE
5
17A
100
AcDbEntity
8
Layer_1
6
ByLayer
62
7
370
-1
100
AcDbSpline
210
0
220
0
230
1
70
8
71
3
72
8
73
4
74
0
42
1e-07
43
1e-07
40
0
40
0
40
0
40
0
40
1
40
1
40
1
40
1
10
508.097743
20
1401.000008
30
0
10
508.097736
20
1407.233034
30
0
10
509.596976
20
1412.261974
30
0
10
512.595457
20
1416.086834
30
0
0
SPLINE
5
17B
100
AcDbEntity
8
Layer_1
6
ByLayer
62
7
370
-1
100
AcDbSpline
210
0
220
0
230
1
70
8
71
3
72
8
73
4
74
0
42
1e-07
43
1e-07
40
0
40
0
40
0
40
0
40
1
40
1
40
1
40
1
10
512.595457
20
1416.086834
30
0
10
515.617533
20
1419.911621
30
0
10
519.52499
20
1421.824037
30
0
10
524.317851
20
1421.824073
30
0
0
SPLINE
5
17C
100
AcDbEntity
8
Layer_1
6
ByLayer
62
7
370
-1
100
AcDbSpline
210
0
220
0
230
1
70
8
71
3
72
8
73
4
74
0
42
1e-07
43
1e-07
40
0
40
0
40
0
40
0
40
1
40
1
40
1
40
1
10
524.317851
20
1421.824073
30
0
10
527.245478
20
1421.824037
30
0
10
529.748136
20
1421.245587
30
0
10
531.825847
20
1420.08874
30
0
0
SPLINE
5
17D
100
AcDbEntity
8
Layer_1
6
ByLayer
62
7
370
-1
100
AcDbSpline
210
0
220
0
230
1
70
8
71
3
72
8
73
4
74
0
42
1e-07
43
1e-07
40
0
40
0
40
0
40
0
40
1
40
1
40
1
40
1
10
531.825847
20
1420.08874
30
0
10
533.927117
20
1418.955413
30
0
10
535.66245
20
1417.208272
30
0
10
537.031869
20
1414.847302
30
0
0
SPLINE
5
17E
100
AcDbEntity
8
Layer_1
6
ByLayer
62
7
370
-1
100
AcDbSpline
210
0
220
0
230
1
70
8
71
3
72
8
73
4
74
0
42
1e-07
43
1e-07
40
0
40
0
40
0
40
0
40
1
40
1
40
1
40
1
10
514.826606
20
1401.000008
30
0
10
514.826599
20
1396.207147
30
0
10
515.806415
20
1392.441348
30
0
10
517.766063
20
1389.70259
30
0
0
SPLINE
5
17F
100
AcDbEntity
8
Layer_1
6
ByLayer
62
7
370
-1
100
AcDbSpline
210
0
220
0
230
1
70
8
71
3
72
8
73
4
74
0
42
1e-07
43
1e-07
40
0
40
0
40
0
40
0
40
1
40
1
40
1
40
1
10
517.766063
20
1389.70259
30
0
10
519.749289
20
1386.987433
30
0
10
522.464439
20
1385.629851
30
0
10
525.911526
20
1385.629858
30
0
0
SPLINE
5
180
100
AcDbEntity
8
Layer_1
6
ByLayer
62
7
370
-1
100
AcDbSpline
210
0
220
0
230
1
70
8
71
3
72
8
73
4
74
0
42
1e-07
43
1e-07
40
0
40
0
40
0
40
0
40
1
40
1
40
1
40
1
10
525.911526
20
1385.629858
30
0
10
529.358569
20
1385.629851
30
0
10
532.073726
20
1386.987433
30
0
10
534.056996
20
1389.70259
30
0
0
SPLINE
5
181
100
AcDbEntity
8
Layer_1
6
ByLayer
62
7
370
-1
100
AcDbSpline
210
0
220
0
230
1
70
8
71
3
72
8
73
4
74
0
42
1e-07
43
1e-07
40
0
40
0
40
0
40
0
40
1
40
1
40
1
40
1
10
534.056996
20
1389.70259
30
0
10
536.040209
20
1392.441348
30
0
10
537.031833
20
1396.207147
30
0
10
537.031869
20
1401.000008
30
0
0
SPLINE
5
182
100
AcDbEntity
8
Layer_1
6
ByLayer
62
7
370
-1
100
AcDbSpline
210
0
220
0
230
1
70
8
71
3
72
8
73
4
74
0
42
1e-07
43
1e-07
40
0
40
0
40
0
40
0
40
1
40
1
40
1
40
1
10
537.031869
20
1401.000008
30
0
10
537.031833
20
1405.792819
30
0
10
536.040209
20
1409.546817
30
0
10
534.056996
20
1412.262003
30
0
0
SPLINE
5
183
100
AcDbEntity
8
Layer_1
6
ByLayer
62
7
370
-1
100
AcDbSpline
210
0
220
0
230
1
70
8
71
3
72
8
73
4
74
0
42
1e-07
43
1e-07
40
0
40
0
40
0
40
0
40
1
40
1
40
1
40
1
10
534.056996
20
1412.262003
30
0
10
532.073726
20
1415.000732
30
0
10
529.358569
20
1416.370114
30
0
10
525.911526
20
1416.370151
30
0
0
SPLINE
5
184
100
AcDbEntity
8
Layer_1
6
ByLayer
62
7
370
-1
100
AcDbSpline
210
0
220
0
230
1
70
8
71
3
72
8
73
4
74
0
42
1e-07
43
1e-07
40
0
40
0
40
0
40
0
40
1
40
1
40
1
40
1
10
525.911526
20
1416.370151
30
0
10
522.464439
20
1416.370114
30
0
10
519.749289
20
1415.000732
30
0
10
517.766063
20
1412.262003
30
0
0
SPLINE
5
185
100
AcDbEntity
8
Layer_1
6
ByLayer
62
7
370
-1
100
AcDbSpline
210
0
220
0
230
1
70
8
71
3
72
8
73
4
74
0
42
1e-07
43
1e-07
40
0
40
0
40
0
40
0
40
1
40
1
40
1
40
1
10
517.766063
20
1412.262003
30
0
10
515.806415
20
1409.546817
30
0
10
514.826599
20
1405.792819
30
0
10
514.826606
20
1401.000008
30
0
0
SPLINE
5
186
100
AcDbEntity
8
Layer_1
6
ByLayer
62
7
370
-1
100
AcDbSpline
210
0
220
0
230
1
70
8
71
3
72
8
73
4
74
0
42
1e-07
43
1e-07
40
0
40
0
40
0
40
0
40
1
40
1
40
1
40
1
10
608.534923
20
1401.000008
30
0
10
608.534887
20
1405.792819
30
0
10
607.54327
20
1409.546817
30
0
10
605.560058
20
1412.262003
30
0
0
SPLINE
5
187
100
AcDbEntity
8
Layer_1
6
ByLayer
62
7
370
-1
100
AcDbSpline
210
0
220
0
230
1
70
8
71
3
72
8
73
4
74
0
42
1e-07
43
1e-07
40
0
40
0
40
0
40
0
40
1
40
1
40
1
40
1
10
605.560058
20
1412.262003
30
0
10
603.600389
20
1415.000732
30
0
10
600.89704
20
1416.370114
30
0
10
597.450004
20
1416.370151
30
0
0
SPLINE
5
188
100
AcDbEntity
8
Layer_1
6
ByLayer
62
7
370
-1
100
AcDbSpline
210
0
220
0
230
1
70
8
71
3
72
8
73
4
74
0
42
1e-07
43
1e-07
40
0
40
0
40
0
40
0
40
1
40
1
40
1
40
1
10
597.450004
20
1416.370151
30
0
10
594.00291
20
1416.370114
30
0
10
591.28776
20
1415.000732
30
0
10
589.304533
20
1412.262003
30
0
0
SPLINE
5
189
100
AcDbEntity
8
Layer_1
6
ByLayer
62
7
370
-1
100
AcDbSpline
210
0
220
0
230
1
70
8
71
3
72
8
73
4
74
0
42
1e-07
43
1e-07
40
0
40
0
40
0
40
0
40
1
40
1
40
1
40
1
10
589.304533
20
1412.262003
30
0
10
587.344886
20
1409.546817
30
0
10
586.36507
20
1405.792819
30
0
10
586.365077
20
1401.000008
30
0
0
SPLINE
5
18A
100
AcDbEntity
8
Layer_1
6
ByLayer
62
7
370
-1
100
AcDbSpline
210
0
220
0
230
1
70
8
71
3
72
8
73
4
74
0
42
1e-07
43
1e-07
40
0
40
0
40
0
40
0
40
1
40
1
40
1
40
1
10
586.365077
20
1401.000008
30
0
10
586.36507
20
1396.207147
30
0
10
587.344886
20
1392.441348
30
0
10
589.304533
20
1389.70259
30
0
0
SPLINE
5
18B
100
AcDbEntity
8
Layer_1
6
ByLayer
62
7
370
-1
100
AcDbSpline
210
0
220
0
230
1
70
8
71
3
72
8
73
4
74
0
42
1e-07
43
1e-07
40
0
40
0
40
0
40
0
40
1
40
1
40
1
40
1
10
589.304533
20
1389.70259
30
0
10
591.28776
20
1386.987433
30
0
10
594.00291
20
1385.629851
30
0
10
597.450004
20
1385.629858
30
0
0
SPLINE
5
18C
100
AcDbEntity
8
Layer_1
6
ByLayer
62
7
370
-1
100
AcDbSpline
210
0
220
0
230
1
70
8
71
3
72
8
73
4
74
0
42
1e-07
43
1e-07
40
0
40
0
40
0
40
0
40
1
40
1
40
1
40
1
10
597.450004
20
1385.629858
30
0
10
600.89704
20
1385.629851
30
0
10
603.600389
20
1386.987433
30
0
10
605.560058
20
1389.70259
30
0
0
SPLINE
5
18D
100
AcDbEntity
8
Layer_1
6
ByLayer
62
7
370
-1
100
AcDbSpline
210
0
220
0
230
1
70
8
71
3
72
8
73
4
74
0
42
1e-07
43
1e-07
40
0
40
0
40
0
40
0
40
1
40
1
40
1
40
1
10
605.560058
20
1389.70259
30
0
10
607.54327
20
1392.441348
30
0
10
608.534887
20
1396.207147
30
0
10
608.534923
20
1401.000008
30
0
0
SPLINE
5
18E
100
AcDbEntity
8
Layer_1
6
ByLayer
62
7
370
-1
100
AcDbSpline
210
0
220
0
230
1
70
8
71
3
72
8
73
4
74
0
42
1e-07
43
1e-07
40
0
40
0
40
0
40
0
40
1
40
1
40
1
40
1
10
586.365077
20
1414.847302
30
0
10
587.734445
20
1417.208272
30
0
10
589.457978
20
1418.955413
30
0
10
591.535682
20
1420.08874
30
0
0
SPLINE
5
18F
100
AcDbEntity
8
Layer_1
6
ByLayer
62
7
370
-1
100
AcDbSpline
210
0
220
0
230
1
70
8
71
3
72
8
73
4
74
0
42
1e-07
43
1e-07
40
0
40
0
40
0
40
0
40
1
40
1
40
1
40
1
10
591.535682
20
1420.08874
30
0
10
593.636959
20
1421.245587
30
0
10
596.139617
20
1421.824037
30
0
10
599.043679
20
1421.824073
30
0
0
SPLINE
5
190
100
AcDbEntity
8
Layer_1
6
ByLayer
62
7
370
-1
100
AcDbSpline
210
0
220
0
230
1
70
8
71
3
72
8
73
4
74
0
42
1e-07
43
1e-07
40
0
40
0
40
0
40
0
40
1
40
1
40
1
40
1
10
599.043679
20
1421.824073
30
0
10
603.860105
20
1421.824037
30
0
10
607.767562
20
1419.911621
30
0
10
610.766072
20
1416.086834
30
0
0
SPLINE
5
191
100
AcDbEntity
8
Layer_1
6
ByLayer
62
7
370
-1
100
AcDbSpline
210
0
220
0
230
1
70
8
71
3
72
8
73
4
74
0
42
1e-07
43
1e-07
40
0
40
0
40
0
40
0
40
1
40
1
40
1
40
1
10
610.766072
20
1416.086834
30
0
10
613.788119
20
1412.261974
30
0
10
615.29916
20
1407.233034
30
0
10
615.299203
20
1401.000008
30
0
0
SPLINE
5
192
100
AcDbEntity
8
Layer_1
6
ByLayer
62
7
370
-1
100
AcDbSpline
210
0
220
0
230
1
70
8
71
3
72
8
73
4
74
0
42
1e-07
43
1e-07
40
0
40
0
40
0
40
0
40
1
40
1
40
1
40
1
10
615.299203
20
1401.000008
30
0
10
615.29916
20
1394.766939
30
0
10
613.788119
20
1389.737999
30
0
10
610.766072
20
1385.913175
30
0
0
SPLINE
5
193
100
AcDbEntity
8
Layer_1
6
ByLayer
62
7
370
-1
100
AcDbSpline
210
0
220
0
230
1
70
8
71
3
72
8
73
4
74
0
42
1e-07
43
1e-07
40
0
40
0
40
0
40
0
40
1
40
1
40
1
40
1
10
610.766072
20
1385.913175
30
0
10
607.767562
20
1382.088352
30
0
10
603.860105
20
1380.175936
30
0
10
599.043679
20
1380.175936
30
0
0
SPLINE
5
194
100
AcDbEntity
8
Layer_1
6
ByLayer
62
7
370
-1
100
AcDbSpline
210
0
220
0
230
1
70
8
71
3
72
8
73
4
74
0
42
1e-07
43
1e-07
40
0
40
0
40
0
40
0
40
1
40
1
40
1
40
1
10
599.043679
20
1380.175936
30
0
10
596.139617
20
1380.175936
30
0
10
593.636959
20
1380.742577
30
0
10
591.535682
20
1381.87586
30
0
0
SPLINE
5
195
100
AcDbEntity
8
Layer_1
6
ByLayer
62
7
370
-1
100
AcDbSpline
210
0
220
0
230
1
70
8
71
3
72
8
73
4
74
0
42
1e-07
43
1e-07
40
0
40
0
40
0
40
0
40
1
40
1
40
1
40
1
10
591.535682
20
1381.87586
30
0
10
589.457978
20
1383.032751
30
0
10
587.734445
20
1384.791701
30
0
10
586.365077
20
1387.152707
30
0
0
LWPOLYLINE
5
196
100
AcDbEntity
8
Layer_1
6
ByLayer
62
7
370
-1
100
AcDbPolyline
90
6
70
0
43
0
10
537.031869
20
1414.847302
10
537.031869
20
1436.308848
10
543.548241
20
1436.308848
10
543.548241
20
1381.202969
10
537.031869
20
1381.202969
10
537.031869
20
1387.152707
0
SPLINE
5
197
100
AcDbEntity
8
Layer_1
6
ByLayer
62
7
370
-1
100
AcDbSpline
210
0
220
0
230
1
70
8
71
3
72
8
73
4
74
0
42
1e-07
43
1e-07
40
0
40
0
40
0
40
0
40
1
40
1
40
1
40
1
10
642.604238
20
1377.519804
30
0
10
640.762627
20
1372.797798
30
0
10
638.968268
20
1369.71669
30
0
10
637.221142
20
1368.276467
30
0
0
SPLINE
5
198
100
AcDbEntity
8
Layer_1
6
ByLayer
62
7
370
-1
100
AcDbSpline
210
0
220
0
230
1
70
8
71
3
72
8
73
4
74
0
42
1e-07
43
1e-07
40
0
40
0
40
0
40
0
40
1
40
1
40
1
40
1
10
637.221142
20
1368.276467
30
0
10
635.473979
20
1366.836266
30
0
10
633.136588
20
1366.116159
30
0
10
630.208954
20
1366.116144
30
0
0
LWPOLYLINE
5
199
100
AcDbEntity
8
Layer_1
6
ByLayer
62
7
370
-1
100
AcDbPolyline
90
6
70
0
43
0
10
586.365077
20
1387.152707
10
586.365077
20
1381.202969
10
579.813289
20
1381.202969
10
579.813289
20
1436.308848
10
586.365077
20
1436.308848
10
586.365077
20
1414.847302
0
SPLINE
5
19A
100
AcDbEntity
8
Layer_1
6
ByLayer
62
7
370
-1
100
AcDbSpline
210
0
220
0
230
1
70
8
71
3
72
8
73
4
74
0
42
1e-07
43
1e-07
40
0
40
0
40
0
40
0
40
1
40
1
40
1
40
1
10
628.82777
20
1371.570066
30
0
10
630.622122
20
1371.570081
30
0
10
632.015113
20
1371.995056
30
0
10
633.006744
20
1372.845015
30
0
0
SPLINE
5
19B
100
AcDbEntity
8
Layer_1
6
ByLayer
62
7
370
-1
100
AcDbSpline
210
0
220
0
230
1
70
8
71
3
72
8
73
4
74
0
42
1e-07
43
1e-07
40
0
40
0
40
0
40
0
40
1
40
1
40
1
40
1
10
633.006744
20
1372.845015
30
0
10
633.998354
20
1373.69498
30
0
10
635.09622
20
1375.701837
30
0
10
636.30035
20
1378.865578
30
0
0
LWPOLYLINE
5
19C
100
AcDbEntity
8
Layer_1
6
ByLayer
62
7
370
-1
100
AcDbPolyline
90
4
70
0
43
0
10
630.208954
20
1366.116144
10
625.002939
20
1366.116144
10
625.002939
20
1371.570066
10
628.82777
20
1371.570066
0
LWPOLYLINE
5
19D
100
AcDbEntity
8
Layer_1
6
ByLayer
62
7
370
-1
100
AcDbPolyline
90
8
70
0
43
0
10
636.30035
20
1378.865578
10
637.46905
20
1381.840444
10
621.426016
20
1420.867865
10
628.331955
20
1420.867865
10
640.727239
20
1389.844256
10
653.122516
20
1420.867865
10
660.028455
20
1420.867865
10
642.604238
20
1377.519804
0
ENDSEC
0
SECTION
2
OBJECTS
0
DICTIONARY
5
C
330
0
100
AcDbDictionary
281
1
3
ACAD_GROUP
350
D
0
DICTIONARY
5
D
330
C
100
AcDbDictionary
281
1
0
ENDSEC
0
EOF
