G04 #@! TF.FileFunction,Soldermask,Bot*
%FSLAX46Y46*%
G04 Gerber Fmt 4.6, Leading zero omitted, Abs format (unit mm)*
G04 Created by KiCad (PCBNEW 4.0.2-4+6225~38~ubuntu15.10.1-stable) date Tue 29 Mar 2016 00:06:07 BST*
%MOMM*%
G01*
G04 APERTURE LIST*
%ADD10C,0.100000*%
%ADD11C,1.200000*%
%ADD12C,1.600000*%
%ADD13R,2.000000X4.000000*%
%ADD14C,1.000000*%
%ADD15R,1.727200X2.032000*%
%ADD16O,1.727200X2.032000*%
%ADD17C,1.300000*%
G04 APERTURE END LIST*
D10*
D11*
X117000000Y-108600000D03*
X122000000Y-108600000D03*
D12*
X118500000Y-106500000D03*
X120500000Y-106500000D03*
D13*
X121150000Y-112750000D03*
X125350000Y-112750000D03*
D11*
X125000000Y-108600000D03*
X130000000Y-108600000D03*
D12*
X126500000Y-106500000D03*
X128500000Y-106500000D03*
D14*
X127605000Y-86440000D03*
X128621000Y-81360000D03*
X126589000Y-81360000D03*
D15*
X127100000Y-77400000D03*
D16*
X124560000Y-77400000D03*
X122020000Y-77400000D03*
X119480000Y-77400000D03*
D17*
X120400768Y-91855050D03*
X125099232Y-90144950D03*
D11*
X117000000Y-108600000D03*
X122000000Y-108600000D03*
D12*
X118500000Y-106500000D03*
X120500000Y-106500000D03*
D13*
X121150000Y-112750000D03*
X125350000Y-112750000D03*
D11*
X125000000Y-108600000D03*
X130000000Y-108600000D03*
D12*
X126500000Y-106500000D03*
X128500000Y-106500000D03*
D14*
X127605000Y-86440000D03*
X128621000Y-81360000D03*
X126589000Y-81360000D03*
D15*
X127100000Y-77400000D03*
D16*
X124560000Y-77400000D03*
X122020000Y-77400000D03*
X119480000Y-77400000D03*
D17*
X120400768Y-91855050D03*
X125099232Y-90144950D03*
D11*
X134000000Y-108600000D03*
X139000000Y-108600000D03*
D12*
X135500000Y-106500000D03*
X137500000Y-106500000D03*
D13*
X138150000Y-112750000D03*
X142350000Y-112750000D03*
D11*
X142000000Y-108600000D03*
X147000000Y-108600000D03*
D12*
X143500000Y-106500000D03*
X145500000Y-106500000D03*
D14*
X144605000Y-86440000D03*
X145621000Y-81360000D03*
X143589000Y-81360000D03*
D15*
X144100000Y-77400000D03*
D16*
X141560000Y-77400000D03*
X139020000Y-77400000D03*
X136480000Y-77400000D03*
D17*
X137400768Y-91855050D03*
X142099232Y-90144950D03*
D11*
X151000000Y-108600000D03*
X156000000Y-108600000D03*
D12*
X152500000Y-106500000D03*
X154500000Y-106500000D03*
D13*
X155150000Y-112750000D03*
X159350000Y-112750000D03*
D11*
X159000000Y-108600000D03*
X164000000Y-108600000D03*
D12*
X160500000Y-106500000D03*
X162500000Y-106500000D03*
D14*
X161605000Y-86440000D03*
X162621000Y-81360000D03*
X160589000Y-81360000D03*
D15*
X161100000Y-77400000D03*
D16*
X158560000Y-77400000D03*
X156020000Y-77400000D03*
X153480000Y-77400000D03*
D17*
X154400768Y-91855050D03*
X159099232Y-90144950D03*
M02*
