G04 #@! TF.FileFunction,Soldermask,Top*
%FSLAX46Y46*%
G04 Gerber Fmt 4.6, Leading zero omitted, Abs format (unit mm)*
G04 Created by KiCad (PCBNEW 4.0.2-4+6225~38~ubuntu15.10.1-stable) date Tue 29 Mar 2016 00:06:07 BST*
%MOMM*%
G01*
G04 APERTURE LIST*
%ADD10C,0.100000*%
%ADD11R,0.600000X1.550000*%
%ADD12C,1.200000*%
%ADD13C,1.600000*%
%ADD14R,0.950000X1.000000*%
%ADD15R,1.000000X0.950000*%
%ADD16C,0.787000*%
%ADD17C,1.000000*%
%ADD18R,1.727200X2.032000*%
%ADD19O,1.727200X2.032000*%
%ADD20C,1.300000*%
%ADD21R,6.740000X6.230000*%
%ADD22R,1.524000X2.280000*%
%ADD23R,0.600000X0.300000*%
%ADD24R,0.300000X0.600000*%
%ADD25R,2.002000X2.002000*%
%ADD26R,0.550000X0.850000*%
G04 APERTURE END LIST*
D10*
D11*
X118845000Y-100700000D03*
X120115000Y-100700000D03*
X121385000Y-100700000D03*
X122655000Y-100700000D03*
X122655000Y-95300000D03*
X121385000Y-95300000D03*
X120115000Y-95300000D03*
X118845000Y-95300000D03*
D12*
X117000000Y-108600000D03*
X122000000Y-108600000D03*
D13*
X118500000Y-106500000D03*
X120500000Y-106500000D03*
D14*
X117200000Y-93250000D03*
X118800000Y-93250000D03*
D15*
X117500000Y-85100000D03*
X117500000Y-83500000D03*
X119000000Y-85100000D03*
X119000000Y-83500000D03*
X119100000Y-87700000D03*
X119100000Y-89300000D03*
D14*
X126700000Y-89800000D03*
X128300000Y-89800000D03*
D15*
X127500000Y-101200000D03*
X127500000Y-102800000D03*
D14*
X123050000Y-93250000D03*
X121450000Y-93250000D03*
D12*
X125000000Y-108600000D03*
X130000000Y-108600000D03*
D13*
X126500000Y-106500000D03*
X128500000Y-106500000D03*
D16*
X128240000Y-85170000D03*
X126970000Y-85170000D03*
X128240000Y-83900000D03*
X126970000Y-83900000D03*
X128240000Y-82630000D03*
X126970000Y-82630000D03*
D17*
X127605000Y-86440000D03*
X128621000Y-81360000D03*
X126589000Y-81360000D03*
D18*
X127100000Y-77400000D03*
D19*
X124560000Y-77400000D03*
X122020000Y-77400000D03*
X119480000Y-77400000D03*
D15*
X117500000Y-97200000D03*
X117500000Y-98800000D03*
D20*
X120400768Y-91855050D03*
X125099232Y-90144950D03*
D21*
X127500000Y-94250000D03*
D22*
X125220000Y-101395000D03*
X129780000Y-101395000D03*
D23*
X120450000Y-84150000D03*
X120450000Y-84650000D03*
X120450000Y-85150000D03*
X120450000Y-85650000D03*
X120450000Y-86150000D03*
X120450000Y-86650000D03*
X120450000Y-87150000D03*
X120450000Y-87650000D03*
D24*
X121050000Y-88250000D03*
X121550000Y-88250000D03*
X122050000Y-88250000D03*
X122550000Y-88250000D03*
X123050000Y-88250000D03*
X123550000Y-88250000D03*
X124050000Y-88250000D03*
X124550000Y-88250000D03*
D23*
X125150000Y-87650000D03*
X125150000Y-87150000D03*
X125150000Y-86650000D03*
X125150000Y-86150000D03*
X125150000Y-85650000D03*
X125150000Y-85150000D03*
X125150000Y-84650000D03*
X125150000Y-84150000D03*
D24*
X124550000Y-83550000D03*
X124050000Y-83550000D03*
X123550000Y-83550000D03*
X123050000Y-83550000D03*
X122550000Y-83550000D03*
X122050000Y-83550000D03*
X121550000Y-83550000D03*
X121050000Y-83550000D03*
D25*
X122800000Y-85900000D03*
D26*
X122750000Y-81150000D03*
X124050000Y-81150000D03*
X123400000Y-79050000D03*
X120150000Y-81550000D03*
X121450000Y-81550000D03*
X120800000Y-79450000D03*
X117550000Y-81550000D03*
X118850000Y-81550000D03*
X118200000Y-79450000D03*
X123150000Y-89650000D03*
X121850000Y-89650000D03*
X122500000Y-91750000D03*
D15*
X117600000Y-87700000D03*
X117600000Y-89300000D03*
D17*
X117500000Y-86400000D03*
D15*
X120500000Y-103200000D03*
X120500000Y-104800000D03*
X118500000Y-102700000D03*
X118500000Y-104300000D03*
D11*
X118845000Y-100700000D03*
X120115000Y-100700000D03*
X121385000Y-100700000D03*
X122655000Y-100700000D03*
X122655000Y-95300000D03*
X121385000Y-95300000D03*
X120115000Y-95300000D03*
X118845000Y-95300000D03*
D12*
X117000000Y-108600000D03*
X122000000Y-108600000D03*
D13*
X118500000Y-106500000D03*
X120500000Y-106500000D03*
D14*
X117200000Y-93250000D03*
X118800000Y-93250000D03*
D15*
X117500000Y-85100000D03*
X117500000Y-83500000D03*
X119000000Y-85100000D03*
X119000000Y-83500000D03*
X119100000Y-87700000D03*
X119100000Y-89300000D03*
D14*
X126700000Y-89800000D03*
X128300000Y-89800000D03*
D15*
X127500000Y-101200000D03*
X127500000Y-102800000D03*
D14*
X123050000Y-93250000D03*
X121450000Y-93250000D03*
D12*
X125000000Y-108600000D03*
X130000000Y-108600000D03*
D13*
X126500000Y-106500000D03*
X128500000Y-106500000D03*
D16*
X128240000Y-85170000D03*
X126970000Y-85170000D03*
X128240000Y-83900000D03*
X126970000Y-83900000D03*
X128240000Y-82630000D03*
X126970000Y-82630000D03*
D17*
X127605000Y-86440000D03*
X128621000Y-81360000D03*
X126589000Y-81360000D03*
D18*
X127100000Y-77400000D03*
D19*
X124560000Y-77400000D03*
X122020000Y-77400000D03*
X119480000Y-77400000D03*
D15*
X117500000Y-97200000D03*
X117500000Y-98800000D03*
D20*
X120400768Y-91855050D03*
X125099232Y-90144950D03*
D21*
X127500000Y-94250000D03*
D22*
X125220000Y-101395000D03*
X129780000Y-101395000D03*
D23*
X120450000Y-84150000D03*
X120450000Y-84650000D03*
X120450000Y-85150000D03*
X120450000Y-85650000D03*
X120450000Y-86150000D03*
X120450000Y-86650000D03*
X120450000Y-87150000D03*
X120450000Y-87650000D03*
D24*
X121050000Y-88250000D03*
X121550000Y-88250000D03*
X122050000Y-88250000D03*
X122550000Y-88250000D03*
X123050000Y-88250000D03*
X123550000Y-88250000D03*
X124050000Y-88250000D03*
X124550000Y-88250000D03*
D23*
X125150000Y-87650000D03*
X125150000Y-87150000D03*
X125150000Y-86650000D03*
X125150000Y-86150000D03*
X125150000Y-85650000D03*
X125150000Y-85150000D03*
X125150000Y-84650000D03*
X125150000Y-84150000D03*
D24*
X124550000Y-83550000D03*
X124050000Y-83550000D03*
X123550000Y-83550000D03*
X123050000Y-83550000D03*
X122550000Y-83550000D03*
X122050000Y-83550000D03*
X121550000Y-83550000D03*
X121050000Y-83550000D03*
D25*
X122800000Y-85900000D03*
D26*
X122750000Y-81150000D03*
X124050000Y-81150000D03*
X123400000Y-79050000D03*
X120150000Y-81550000D03*
X121450000Y-81550000D03*
X120800000Y-79450000D03*
X117550000Y-81550000D03*
X118850000Y-81550000D03*
X118200000Y-79450000D03*
X123150000Y-89650000D03*
X121850000Y-89650000D03*
X122500000Y-91750000D03*
D15*
X117600000Y-87700000D03*
X117600000Y-89300000D03*
D17*
X117500000Y-86400000D03*
D15*
X120500000Y-103200000D03*
X120500000Y-104800000D03*
X118500000Y-102700000D03*
X118500000Y-104300000D03*
D11*
X135845000Y-100700000D03*
X137115000Y-100700000D03*
X138385000Y-100700000D03*
X139655000Y-100700000D03*
X139655000Y-95300000D03*
X138385000Y-95300000D03*
X137115000Y-95300000D03*
X135845000Y-95300000D03*
D12*
X134000000Y-108600000D03*
X139000000Y-108600000D03*
D13*
X135500000Y-106500000D03*
X137500000Y-106500000D03*
D14*
X134200000Y-93250000D03*
X135800000Y-93250000D03*
D15*
X134500000Y-85100000D03*
X134500000Y-83500000D03*
X136000000Y-85100000D03*
X136000000Y-83500000D03*
X136100000Y-87700000D03*
X136100000Y-89300000D03*
D14*
X143700000Y-89800000D03*
X145300000Y-89800000D03*
D15*
X144500000Y-101200000D03*
X144500000Y-102800000D03*
D14*
X140050000Y-93250000D03*
X138450000Y-93250000D03*
D12*
X142000000Y-108600000D03*
X147000000Y-108600000D03*
D13*
X143500000Y-106500000D03*
X145500000Y-106500000D03*
D16*
X145240000Y-85170000D03*
X143970000Y-85170000D03*
X145240000Y-83900000D03*
X143970000Y-83900000D03*
X145240000Y-82630000D03*
X143970000Y-82630000D03*
D17*
X144605000Y-86440000D03*
X145621000Y-81360000D03*
X143589000Y-81360000D03*
D18*
X144100000Y-77400000D03*
D19*
X141560000Y-77400000D03*
X139020000Y-77400000D03*
X136480000Y-77400000D03*
D15*
X134500000Y-97200000D03*
X134500000Y-98800000D03*
D20*
X137400768Y-91855050D03*
X142099232Y-90144950D03*
D21*
X144500000Y-94250000D03*
D22*
X142220000Y-101395000D03*
X146780000Y-101395000D03*
D23*
X137450000Y-84150000D03*
X137450000Y-84650000D03*
X137450000Y-85150000D03*
X137450000Y-85650000D03*
X137450000Y-86150000D03*
X137450000Y-86650000D03*
X137450000Y-87150000D03*
X137450000Y-87650000D03*
D24*
X138050000Y-88250000D03*
X138550000Y-88250000D03*
X139050000Y-88250000D03*
X139550000Y-88250000D03*
X140050000Y-88250000D03*
X140550000Y-88250000D03*
X141050000Y-88250000D03*
X141550000Y-88250000D03*
D23*
X142150000Y-87650000D03*
X142150000Y-87150000D03*
X142150000Y-86650000D03*
X142150000Y-86150000D03*
X142150000Y-85650000D03*
X142150000Y-85150000D03*
X142150000Y-84650000D03*
X142150000Y-84150000D03*
D24*
X141550000Y-83550000D03*
X141050000Y-83550000D03*
X140550000Y-83550000D03*
X140050000Y-83550000D03*
X139550000Y-83550000D03*
X139050000Y-83550000D03*
X138550000Y-83550000D03*
X138050000Y-83550000D03*
D25*
X139800000Y-85900000D03*
D26*
X139750000Y-81150000D03*
X141050000Y-81150000D03*
X140400000Y-79050000D03*
X137150000Y-81550000D03*
X138450000Y-81550000D03*
X137800000Y-79450000D03*
X134550000Y-81550000D03*
X135850000Y-81550000D03*
X135200000Y-79450000D03*
X140150000Y-89650000D03*
X138850000Y-89650000D03*
X139500000Y-91750000D03*
D15*
X134600000Y-87700000D03*
X134600000Y-89300000D03*
D17*
X134500000Y-86400000D03*
D15*
X137500000Y-103200000D03*
X137500000Y-104800000D03*
X135500000Y-102700000D03*
X135500000Y-104300000D03*
D11*
X152845000Y-100700000D03*
X154115000Y-100700000D03*
X155385000Y-100700000D03*
X156655000Y-100700000D03*
X156655000Y-95300000D03*
X155385000Y-95300000D03*
X154115000Y-95300000D03*
X152845000Y-95300000D03*
D12*
X151000000Y-108600000D03*
X156000000Y-108600000D03*
D13*
X152500000Y-106500000D03*
X154500000Y-106500000D03*
D14*
X151200000Y-93250000D03*
X152800000Y-93250000D03*
D15*
X151500000Y-85100000D03*
X151500000Y-83500000D03*
X153000000Y-85100000D03*
X153000000Y-83500000D03*
X153100000Y-87700000D03*
X153100000Y-89300000D03*
D14*
X160700000Y-89800000D03*
X162300000Y-89800000D03*
D15*
X161500000Y-101200000D03*
X161500000Y-102800000D03*
D14*
X157050000Y-93250000D03*
X155450000Y-93250000D03*
D12*
X159000000Y-108600000D03*
X164000000Y-108600000D03*
D13*
X160500000Y-106500000D03*
X162500000Y-106500000D03*
D16*
X162240000Y-85170000D03*
X160970000Y-85170000D03*
X162240000Y-83900000D03*
X160970000Y-83900000D03*
X162240000Y-82630000D03*
X160970000Y-82630000D03*
D17*
X161605000Y-86440000D03*
X162621000Y-81360000D03*
X160589000Y-81360000D03*
D18*
X161100000Y-77400000D03*
D19*
X158560000Y-77400000D03*
X156020000Y-77400000D03*
X153480000Y-77400000D03*
D15*
X151500000Y-97200000D03*
X151500000Y-98800000D03*
D20*
X154400768Y-91855050D03*
X159099232Y-90144950D03*
D21*
X161500000Y-94250000D03*
D22*
X159220000Y-101395000D03*
X163780000Y-101395000D03*
D23*
X154450000Y-84150000D03*
X154450000Y-84650000D03*
X154450000Y-85150000D03*
X154450000Y-85650000D03*
X154450000Y-86150000D03*
X154450000Y-86650000D03*
X154450000Y-87150000D03*
X154450000Y-87650000D03*
D24*
X155050000Y-88250000D03*
X155550000Y-88250000D03*
X156050000Y-88250000D03*
X156550000Y-88250000D03*
X157050000Y-88250000D03*
X157550000Y-88250000D03*
X158050000Y-88250000D03*
X158550000Y-88250000D03*
D23*
X159150000Y-87650000D03*
X159150000Y-87150000D03*
X159150000Y-86650000D03*
X159150000Y-86150000D03*
X159150000Y-85650000D03*
X159150000Y-85150000D03*
X159150000Y-84650000D03*
X159150000Y-84150000D03*
D24*
X158550000Y-83550000D03*
X158050000Y-83550000D03*
X157550000Y-83550000D03*
X157050000Y-83550000D03*
X156550000Y-83550000D03*
X156050000Y-83550000D03*
X155550000Y-83550000D03*
X155050000Y-83550000D03*
D25*
X156800000Y-85900000D03*
D26*
X156750000Y-81150000D03*
X158050000Y-81150000D03*
X157400000Y-79050000D03*
X154150000Y-81550000D03*
X155450000Y-81550000D03*
X154800000Y-79450000D03*
X151550000Y-81550000D03*
X152850000Y-81550000D03*
X152200000Y-79450000D03*
X157150000Y-89650000D03*
X155850000Y-89650000D03*
X156500000Y-91750000D03*
D15*
X151600000Y-87700000D03*
X151600000Y-89300000D03*
D17*
X151500000Y-86400000D03*
D15*
X154500000Y-103200000D03*
X154500000Y-104800000D03*
X152500000Y-102700000D03*
X152500000Y-104300000D03*
M02*
