M48
;DRILL file {KiCad 4.0.2-4+6225~38~ubuntu15.10.1-stable} date Tue 29 Mar 2016 00:06:10 BST
;FORMAT={-:-/ absolute / inch / decimal}
FMAT,2
INCH,TZ
T1C0.012
T2C0.016
T3C0.024
T4C0.028
T5C0.031
T6C0.040
T7C0.039
T8C0.047
%
G90
G05
M72
T1
X4.6063Y-3.7205
X4.6063Y-3.7205
X4.626Y-3.248
X4.626Y-3.248
X4.6299Y-3.5591
X4.6299Y-3.5591
X4.6457Y-3.6339
X4.6457Y-3.6339
X4.6535Y-3.5866
X4.6535Y-3.5866
X4.6772Y-3.5591
X4.6772Y-3.5591
X4.7283Y-3.2795
X4.7283Y-3.2795
X4.7362Y-3.6693
X4.7362Y-3.6693
X4.8031Y-3.5669
X4.8031Y-3.5669
X4.8031Y-3.8091
X4.8031Y-3.8091
X4.8031Y-4.3209
X4.8031Y-4.3209
X4.8228Y-4.0256
X4.8228Y-4.0256
X4.8622Y-4.4488
X4.8622Y-4.4488
X4.9114Y-4.065
X4.9114Y-4.065
X4.9409Y-4.065
X4.9409Y-4.065
X4.9508Y-4.3209
X4.9508Y-4.3209
X4.9705Y-4.065
X4.9705Y-4.065
X5.0098Y-4.4488
X5.0098Y-4.4488
X5.0236Y-3.2205
X5.0236Y-3.2205
X5.0512Y-3.5669
X5.0512Y-3.5669
X5.063Y-3.378
X5.063Y-3.378
X5.0669Y-3.4961
X5.0669Y-3.4961
X5.0886Y-4.1437
X5.0886Y-4.1437
X5.0984Y-3.0807
X5.0984Y-3.0807
X5.2756Y-3.7205
X5.2953Y-3.248
X5.2992Y-3.5591
X5.315Y-3.6339
X5.3228Y-3.5866
X5.3465Y-3.5591
X5.3976Y-3.2795
X5.4055Y-3.6693
X5.4724Y-3.5669
X5.4724Y-3.8091
X5.4724Y-4.3209
X5.4921Y-4.0256
X5.5315Y-4.4488
X5.5807Y-4.065
X5.6102Y-4.065
X5.6201Y-4.3209
X5.6398Y-4.065
X5.6791Y-4.4488
X5.6929Y-3.2205
X5.7205Y-3.5669
X5.7323Y-3.378
X5.7362Y-3.4961
X5.7579Y-4.1437
X5.7677Y-3.0807
X5.9449Y-3.7205
X5.9646Y-3.248
X5.9685Y-3.5591
X5.9843Y-3.6339
X5.9921Y-3.5866
X6.0157Y-3.5591
X6.0669Y-3.2795
X6.0748Y-3.6693
X6.1417Y-3.5669
X6.1417Y-3.8091
X6.1417Y-4.3209
X6.1614Y-4.0256
X6.2008Y-4.4488
X6.25Y-4.065
X6.2795Y-4.065
X6.2894Y-4.3209
X6.3091Y-4.065
X6.3484Y-4.4488
X6.3622Y-3.2205
X6.3898Y-3.5669
X6.4016Y-3.378
X6.4055Y-3.4961
X6.4272Y-4.1437
X6.437Y-3.0807
T2
X4.7854Y-3.3327
X4.7854Y-3.3327
X4.7854Y-3.4311
X4.7854Y-3.4311
X4.8839Y-3.3327
X4.8839Y-3.3327
X4.8839Y-3.4311
X4.8839Y-3.4311
X5.4547Y-3.3327
X5.4547Y-3.4311
X5.5531Y-3.3327
X5.5531Y-3.4311
X6.124Y-3.3327
X6.124Y-3.4311
X6.2224Y-3.3327
X6.2224Y-3.4311
T3
X4.6929Y-3.1654
X4.6929Y-3.1654
X4.7874Y-3.1654
X4.7874Y-3.1654
X4.8898Y-3.1535
X4.8898Y-3.1535
X5.0591Y-4.1043
X5.0591Y-4.1043
X5.0984Y-4.065
X5.0984Y-4.065
X5.3622Y-3.1654
X5.4567Y-3.1654
X5.5591Y-3.1535
X5.7283Y-4.1043
X5.7677Y-4.065
X6.0315Y-3.1654
X6.126Y-3.1654
X6.2283Y-3.1535
X6.3976Y-4.1043
X6.437Y-4.065
T4
X4.7402Y-3.6163
X4.7402Y-3.6163
X4.9252Y-3.549
X4.9252Y-3.549
X5.4095Y-3.6163
X5.5945Y-3.549
X6.0788Y-3.6163
X6.2637Y-3.549
T5
X4.6654Y-4.1929
X4.6654Y-4.1929
X4.7441Y-4.1929
X4.7441Y-4.1929
X4.9803Y-4.1929
X4.9803Y-4.1929
X5.0591Y-4.1929
X5.0591Y-4.1929
X5.3346Y-4.1929
X5.4134Y-4.1929
X5.6496Y-4.1929
X5.7283Y-4.1929
X6.0039Y-4.1929
X6.0827Y-4.1929
X6.3189Y-4.1929
X6.3976Y-4.1929
T6
X4.7039Y-3.0472
X4.7039Y-3.0472
X4.8039Y-3.0472
X4.8039Y-3.0472
X4.9039Y-3.0472
X4.9039Y-3.0472
X5.0039Y-3.0472
X5.0039Y-3.0472
X5.3732Y-3.0472
X5.4732Y-3.0472
X5.5732Y-3.0472
X5.6732Y-3.0472
X6.0425Y-3.0472
X6.1425Y-3.0472
X6.2425Y-3.0472
X6.3425Y-3.0472
T7
X4.9838Y-3.2031
X4.9838Y-3.2031
X5.0238Y-3.4031
X5.0238Y-3.4031
X5.0638Y-3.2031
X5.0638Y-3.2031
X5.6531Y-3.2031
X5.6931Y-3.4031
X5.7331Y-3.2031
X6.3224Y-3.2031
X6.3624Y-3.4031
X6.4024Y-3.2031
T8
X4.6063Y-4.2756
X4.6063Y-4.2756
X4.8031Y-4.2756
X4.8031Y-4.2756
X4.9213Y-4.2756
X4.9213Y-4.2756
X5.1181Y-4.2756
X5.1181Y-4.2756
X5.2756Y-4.2756
X5.4724Y-4.2756
X5.5906Y-4.2756
X5.7874Y-4.2756
X5.9449Y-4.2756
X6.1417Y-4.2756
X6.2598Y-4.2756
X6.4567Y-4.2756
T0
M30
