G04 #@! TF.FileFunction,Profile,NP*
%FSLAX46Y46*%
G04 Gerber Fmt 4.6, Leading zero omitted, Abs format (unit mm)*
G04 Created by KiCad (PCBNEW 4.0.2-4+6225~38~ubuntu15.10.1-stable) date Tue 29 Mar 2016 00:06:07 BST*
%MOMM*%
G01*
G04 APERTURE LIST*
%ADD10C,0.100000*%
%ADD11C,0.150000*%
G04 APERTURE END LIST*
D10*
D11*
X148000000Y-102000000D02*
X148000000Y-90000000D01*
X150000000Y-102000000D02*
X148000000Y-102000000D01*
X150000000Y-90000000D02*
X150000000Y-102000000D01*
X148000000Y-90000000D02*
X150000000Y-90000000D01*
X150000000Y-103000000D02*
X150000000Y-115000000D01*
X148000000Y-103000000D02*
X150000000Y-103000000D01*
X148000000Y-115000000D02*
X148000000Y-103000000D01*
X150000000Y-89000000D02*
X150000000Y-76000000D01*
X148000000Y-89000000D02*
X150000000Y-89000000D01*
X148000000Y-76000000D02*
X148000000Y-89000000D01*
X131000000Y-102000000D02*
X131000000Y-90000000D01*
X133000000Y-102000000D02*
X131000000Y-102000000D01*
X133000000Y-90000000D02*
X133000000Y-102000000D01*
X131000000Y-90000000D02*
X133000000Y-90000000D01*
X133000000Y-103000000D02*
X133000000Y-115000000D01*
X131000000Y-103000000D02*
X133000000Y-103000000D01*
X131000000Y-115000000D02*
X131000000Y-103000000D01*
X133000000Y-89000000D02*
X133000000Y-76000000D01*
X131000000Y-89000000D02*
X133000000Y-89000000D01*
X131000000Y-76000000D02*
X131000000Y-89000000D01*
X116000000Y-76000000D02*
X116000000Y-115000000D01*
X116000000Y-76000000D02*
X131000000Y-76000000D01*
X131000000Y-115000000D02*
X116000000Y-115000000D01*
X116000000Y-76000000D02*
X116000000Y-115000000D01*
X116000000Y-76000000D02*
X131000000Y-76000000D01*
X131000000Y-115000000D02*
X116000000Y-115000000D01*
X133000000Y-76000000D02*
X148000000Y-76000000D01*
X148000000Y-115000000D02*
X133000000Y-115000000D01*
X165000000Y-115000000D02*
X165000000Y-76000000D01*
X150000000Y-76000000D02*
X165000000Y-76000000D01*
X165000000Y-115000000D02*
X150000000Y-115000000D01*
M02*
