G04 #@! TF.FileFunction,Legend,Bot*
%FSLAX46Y46*%
G04 Gerber Fmt 4.6, Leading zero omitted, Abs format (unit mm)*
G04 Created by KiCad (PCBNEW 4.0.2-4+6225~38~ubuntu15.10.1-stable) date Mon 28 Mar 2016 22:58:05 BST*
%MOMM*%
G01*
G04 APERTURE LIST*
%ADD10C,0.100000*%
%ADD11C,0.150000*%
%ADD12C,0.300000*%
G04 APERTURE END LIST*
D10*
D11*
X124892857Y-82202381D02*
X125226191Y-81726190D01*
X125464286Y-82202381D02*
X125464286Y-81202381D01*
X125083333Y-81202381D01*
X124988095Y-81250000D01*
X124940476Y-81297619D01*
X124892857Y-81392857D01*
X124892857Y-81535714D01*
X124940476Y-81630952D01*
X124988095Y-81678571D01*
X125083333Y-81726190D01*
X125464286Y-81726190D01*
X124083333Y-82154762D02*
X124178571Y-82202381D01*
X124369048Y-82202381D01*
X124464286Y-82154762D01*
X124511905Y-82059524D01*
X124511905Y-81678571D01*
X124464286Y-81583333D01*
X124369048Y-81535714D01*
X124178571Y-81535714D01*
X124083333Y-81583333D01*
X124035714Y-81678571D01*
X124035714Y-81773810D01*
X124511905Y-81869048D01*
X123702381Y-81535714D02*
X123464286Y-82202381D01*
X123226190Y-81535714D01*
X122845238Y-82202381D02*
X122845238Y-81535714D01*
X122845238Y-81202381D02*
X122892857Y-81250000D01*
X122845238Y-81297619D01*
X122797619Y-81250000D01*
X122845238Y-81202381D01*
X122845238Y-81297619D01*
X122416667Y-82154762D02*
X122321429Y-82202381D01*
X122130953Y-82202381D01*
X122035714Y-82154762D01*
X121988095Y-82059524D01*
X121988095Y-82011905D01*
X122035714Y-81916667D01*
X122130953Y-81869048D01*
X122273810Y-81869048D01*
X122369048Y-81821429D01*
X122416667Y-81726190D01*
X122416667Y-81678571D01*
X122369048Y-81583333D01*
X122273810Y-81535714D01*
X122130953Y-81535714D01*
X122035714Y-81583333D01*
X121559524Y-82202381D02*
X121559524Y-81535714D01*
X121559524Y-81202381D02*
X121607143Y-81250000D01*
X121559524Y-81297619D01*
X121511905Y-81250000D01*
X121559524Y-81202381D01*
X121559524Y-81297619D01*
X120940477Y-82202381D02*
X121035715Y-82154762D01*
X121083334Y-82107143D01*
X121130953Y-82011905D01*
X121130953Y-81726190D01*
X121083334Y-81630952D01*
X121035715Y-81583333D01*
X120940477Y-81535714D01*
X120797619Y-81535714D01*
X120702381Y-81583333D01*
X120654762Y-81630952D01*
X120607143Y-81726190D01*
X120607143Y-82011905D01*
X120654762Y-82107143D01*
X120702381Y-82154762D01*
X120797619Y-82202381D01*
X120940477Y-82202381D01*
X120178572Y-81535714D02*
X120178572Y-82202381D01*
X120178572Y-81630952D02*
X120130953Y-81583333D01*
X120035715Y-81535714D01*
X119892857Y-81535714D01*
X119797619Y-81583333D01*
X119750000Y-81678571D01*
X119750000Y-82202381D01*
X117988095Y-82202381D02*
X118559524Y-82202381D01*
X118273810Y-82202381D02*
X118273810Y-81202381D01*
X118369048Y-81345238D01*
X118464286Y-81440476D01*
X118559524Y-81488095D01*
X130357143Y-82797619D02*
X130309524Y-82750000D01*
X130214286Y-82702381D01*
X129976190Y-82702381D01*
X129880952Y-82750000D01*
X129833333Y-82797619D01*
X129785714Y-82892857D01*
X129785714Y-82988095D01*
X129833333Y-83130952D01*
X130404762Y-83702381D01*
X129785714Y-83702381D01*
X129166667Y-82702381D02*
X129071428Y-82702381D01*
X128976190Y-82750000D01*
X128928571Y-82797619D01*
X128880952Y-82892857D01*
X128833333Y-83083333D01*
X128833333Y-83321429D01*
X128880952Y-83511905D01*
X128928571Y-83607143D01*
X128976190Y-83654762D01*
X129071428Y-83702381D01*
X129166667Y-83702381D01*
X129261905Y-83654762D01*
X129309524Y-83607143D01*
X129357143Y-83511905D01*
X129404762Y-83321429D01*
X129404762Y-83083333D01*
X129357143Y-82892857D01*
X129309524Y-82797619D01*
X129261905Y-82750000D01*
X129166667Y-82702381D01*
X127880952Y-83702381D02*
X128452381Y-83702381D01*
X128166667Y-83702381D02*
X128166667Y-82702381D01*
X128261905Y-82845238D01*
X128357143Y-82940476D01*
X128452381Y-82988095D01*
X127023809Y-82702381D02*
X127214286Y-82702381D01*
X127309524Y-82750000D01*
X127357143Y-82797619D01*
X127452381Y-82940476D01*
X127500000Y-83130952D01*
X127500000Y-83511905D01*
X127452381Y-83607143D01*
X127404762Y-83654762D01*
X127309524Y-83702381D01*
X127119047Y-83702381D01*
X127023809Y-83654762D01*
X126976190Y-83607143D01*
X126928571Y-83511905D01*
X126928571Y-83273810D01*
X126976190Y-83178571D01*
X127023809Y-83130952D01*
X127119047Y-83083333D01*
X127309524Y-83083333D01*
X127404762Y-83130952D01*
X127452381Y-83178571D01*
X127500000Y-83273810D01*
X126500000Y-83321429D02*
X125738095Y-83321429D01*
X125071429Y-82702381D02*
X124976190Y-82702381D01*
X124880952Y-82750000D01*
X124833333Y-82797619D01*
X124785714Y-82892857D01*
X124738095Y-83083333D01*
X124738095Y-83321429D01*
X124785714Y-83511905D01*
X124833333Y-83607143D01*
X124880952Y-83654762D01*
X124976190Y-83702381D01*
X125071429Y-83702381D01*
X125166667Y-83654762D01*
X125214286Y-83607143D01*
X125261905Y-83511905D01*
X125309524Y-83321429D01*
X125309524Y-83083333D01*
X125261905Y-82892857D01*
X125214286Y-82797619D01*
X125166667Y-82750000D01*
X125071429Y-82702381D01*
X124404762Y-82702381D02*
X123785714Y-82702381D01*
X124119048Y-83083333D01*
X123976190Y-83083333D01*
X123880952Y-83130952D01*
X123833333Y-83178571D01*
X123785714Y-83273810D01*
X123785714Y-83511905D01*
X123833333Y-83607143D01*
X123880952Y-83654762D01*
X123976190Y-83702381D01*
X124261905Y-83702381D01*
X124357143Y-83654762D01*
X124404762Y-83607143D01*
X123357143Y-83321429D02*
X122595238Y-83321429D01*
X122166667Y-82797619D02*
X122119048Y-82750000D01*
X122023810Y-82702381D01*
X121785714Y-82702381D01*
X121690476Y-82750000D01*
X121642857Y-82797619D01*
X121595238Y-82892857D01*
X121595238Y-82988095D01*
X121642857Y-83130952D01*
X122214286Y-83702381D01*
X121595238Y-83702381D01*
X121023810Y-83130952D02*
X121119048Y-83083333D01*
X121166667Y-83035714D01*
X121214286Y-82940476D01*
X121214286Y-82892857D01*
X121166667Y-82797619D01*
X121119048Y-82750000D01*
X121023810Y-82702381D01*
X120833333Y-82702381D01*
X120738095Y-82750000D01*
X120690476Y-82797619D01*
X120642857Y-82892857D01*
X120642857Y-82940476D01*
X120690476Y-83035714D01*
X120738095Y-83083333D01*
X120833333Y-83130952D01*
X121023810Y-83130952D01*
X121119048Y-83178571D01*
X121166667Y-83226190D01*
X121214286Y-83321429D01*
X121214286Y-83511905D01*
X121166667Y-83607143D01*
X121119048Y-83654762D01*
X121023810Y-83702381D01*
X120833333Y-83702381D01*
X120738095Y-83654762D01*
X120690476Y-83607143D01*
X120642857Y-83511905D01*
X120642857Y-83321429D01*
X120690476Y-83226190D01*
X120738095Y-83178571D01*
X120833333Y-83130952D01*
X127369048Y-101177381D02*
X127369048Y-100177381D01*
X127130953Y-100177381D01*
X126988095Y-100225000D01*
X126892857Y-100320238D01*
X126845238Y-100415476D01*
X126797619Y-100605952D01*
X126797619Y-100748810D01*
X126845238Y-100939286D01*
X126892857Y-101034524D01*
X126988095Y-101129762D01*
X127130953Y-101177381D01*
X127369048Y-101177381D01*
X126416667Y-100891667D02*
X125940476Y-100891667D01*
X126511905Y-101177381D02*
X126178572Y-100177381D01*
X125845238Y-101177381D01*
X125654762Y-100177381D02*
X125321429Y-101177381D01*
X124988095Y-100177381D01*
X124654762Y-101177381D02*
X124654762Y-100177381D01*
X124178572Y-101177381D02*
X124178572Y-100177381D01*
X123940477Y-100177381D01*
X123797619Y-100225000D01*
X123702381Y-100320238D01*
X123654762Y-100415476D01*
X123607143Y-100605952D01*
X123607143Y-100748810D01*
X123654762Y-100939286D01*
X123702381Y-101034524D01*
X123797619Y-101129762D01*
X123940477Y-101177381D01*
X124178572Y-101177381D01*
X122559524Y-100177381D02*
X121988095Y-100177381D01*
X122273810Y-101177381D02*
X122273810Y-100177381D01*
X121654762Y-100177381D02*
X121654762Y-100986905D01*
X121607143Y-101082143D01*
X121559524Y-101129762D01*
X121464286Y-101177381D01*
X121273809Y-101177381D01*
X121178571Y-101129762D01*
X121130952Y-101082143D01*
X121083333Y-100986905D01*
X121083333Y-100177381D01*
X120035714Y-101177381D02*
X120369048Y-100701190D01*
X120607143Y-101177381D02*
X120607143Y-100177381D01*
X120226190Y-100177381D01*
X120130952Y-100225000D01*
X120083333Y-100272619D01*
X120035714Y-100367857D01*
X120035714Y-100510714D01*
X120083333Y-100605952D01*
X120130952Y-100653571D01*
X120226190Y-100701190D01*
X120607143Y-100701190D01*
X119607143Y-101177381D02*
X119607143Y-100177381D01*
X119035714Y-101177381D01*
X119035714Y-100177381D01*
X118559524Y-100653571D02*
X118226190Y-100653571D01*
X118083333Y-101177381D02*
X118559524Y-101177381D01*
X118559524Y-100177381D01*
X118083333Y-100177381D01*
X117083333Y-101177381D02*
X117416667Y-100701190D01*
X117654762Y-101177381D02*
X117654762Y-100177381D01*
X117273809Y-100177381D01*
X117178571Y-100225000D01*
X117130952Y-100272619D01*
X117083333Y-100367857D01*
X117083333Y-100510714D01*
X117130952Y-100605952D01*
X117178571Y-100653571D01*
X117273809Y-100701190D01*
X117654762Y-100701190D01*
X126559524Y-102441667D02*
X126083333Y-102441667D01*
X126654762Y-102727381D02*
X126321429Y-101727381D01*
X125988095Y-102727381D01*
X125654762Y-102727381D02*
X125654762Y-101727381D01*
X125416667Y-101727381D01*
X125273809Y-101775000D01*
X125178571Y-101870238D01*
X125130952Y-101965476D01*
X125083333Y-102155952D01*
X125083333Y-102298810D01*
X125130952Y-102489286D01*
X125178571Y-102584524D01*
X125273809Y-102679762D01*
X125416667Y-102727381D01*
X125654762Y-102727381D01*
X124702381Y-102441667D02*
X124226190Y-102441667D01*
X124797619Y-102727381D02*
X124464286Y-101727381D01*
X124130952Y-102727381D01*
X123797619Y-102727381D02*
X123797619Y-101727381D01*
X123464285Y-102441667D01*
X123130952Y-101727381D01*
X123130952Y-102727381D01*
X121369047Y-101775000D02*
X121464285Y-101727381D01*
X121607142Y-101727381D01*
X121750000Y-101775000D01*
X121845238Y-101870238D01*
X121892857Y-101965476D01*
X121940476Y-102155952D01*
X121940476Y-102298810D01*
X121892857Y-102489286D01*
X121845238Y-102584524D01*
X121750000Y-102679762D01*
X121607142Y-102727381D01*
X121511904Y-102727381D01*
X121369047Y-102679762D01*
X121321428Y-102632143D01*
X121321428Y-102298810D01*
X121511904Y-102298810D01*
X120321428Y-102727381D02*
X120654762Y-102251190D01*
X120892857Y-102727381D02*
X120892857Y-101727381D01*
X120511904Y-101727381D01*
X120416666Y-101775000D01*
X120369047Y-101822619D01*
X120321428Y-101917857D01*
X120321428Y-102060714D01*
X120369047Y-102155952D01*
X120416666Y-102203571D01*
X120511904Y-102251190D01*
X120892857Y-102251190D01*
X119892857Y-102203571D02*
X119559523Y-102203571D01*
X119416666Y-102727381D02*
X119892857Y-102727381D01*
X119892857Y-101727381D01*
X119416666Y-101727381D01*
X118988095Y-102727381D02*
X118988095Y-101727381D01*
X117988095Y-101775000D02*
X118083333Y-101727381D01*
X118226190Y-101727381D01*
X118369048Y-101775000D01*
X118464286Y-101870238D01*
X118511905Y-101965476D01*
X118559524Y-102155952D01*
X118559524Y-102298810D01*
X118511905Y-102489286D01*
X118464286Y-102584524D01*
X118369048Y-102679762D01*
X118226190Y-102727381D01*
X118130952Y-102727381D01*
X117988095Y-102679762D01*
X117940476Y-102632143D01*
X117940476Y-102298810D01*
X118130952Y-102298810D01*
D12*
X127321429Y-97928571D02*
X126464286Y-97928571D01*
X126892857Y-99428571D02*
X126892857Y-97928571D01*
X125964286Y-99428571D02*
X125964286Y-97928571D01*
X125964286Y-98642857D02*
X125107143Y-98642857D01*
X125107143Y-99428571D02*
X125107143Y-97928571D01*
X124392857Y-98642857D02*
X123892857Y-98642857D01*
X123678571Y-99428571D02*
X124392857Y-99428571D01*
X124392857Y-97928571D01*
X123678571Y-97928571D01*
X122821428Y-98785714D02*
X122892857Y-98857143D01*
X122821428Y-98928571D01*
X122750000Y-98857143D01*
X122821428Y-98785714D01*
X122821428Y-98928571D01*
X121107143Y-98000000D02*
X121250000Y-97928571D01*
X121464286Y-97928571D01*
X121678571Y-98000000D01*
X121821429Y-98142857D01*
X121892857Y-98285714D01*
X121964286Y-98571429D01*
X121964286Y-98785714D01*
X121892857Y-99071429D01*
X121821429Y-99214286D01*
X121678571Y-99357143D01*
X121464286Y-99428571D01*
X121321429Y-99428571D01*
X121107143Y-99357143D01*
X121035714Y-99285714D01*
X121035714Y-98785714D01*
X121321429Y-98785714D01*
X119535714Y-99428571D02*
X120035714Y-98714286D01*
X120392857Y-99428571D02*
X120392857Y-97928571D01*
X119821429Y-97928571D01*
X119678571Y-98000000D01*
X119607143Y-98071429D01*
X119535714Y-98214286D01*
X119535714Y-98428571D01*
X119607143Y-98571429D01*
X119678571Y-98642857D01*
X119821429Y-98714286D01*
X120392857Y-98714286D01*
X118892857Y-99428571D02*
X118892857Y-97928571D01*
X118178571Y-99428571D02*
X118178571Y-97928571D01*
X117821428Y-97928571D01*
X117607143Y-98000000D01*
X117464285Y-98142857D01*
X117392857Y-98285714D01*
X117321428Y-98571429D01*
X117321428Y-98785714D01*
X117392857Y-99071429D01*
X117464285Y-99214286D01*
X117607143Y-99357143D01*
X117821428Y-99428571D01*
X118178571Y-99428571D01*
D11*
X127250000Y-111250000D02*
X127250000Y-112250000D01*
X126750000Y-111750000D02*
X127750000Y-111750000D01*
X118750000Y-111750000D02*
X119750000Y-111750000D01*
X129050000Y-91000000D02*
G75*
G03X129050000Y-91000000I-6300000J0D01*
G01*
M02*
