M48
;DRILL file {KiCad 4.0.2-4+6225~38~ubuntu15.10.1-stable} date Mon 28 Mar 2016 22:58:10 BST
;FORMAT={-:-/ absolute / inch / decimal}
FMAT,2
INCH,TZ
T1C0.016
T2C0.024
T3C0.028
T4C0.031
T5C0.040
T6C0.039
T7C0.047
%
G90
G05
M72
T1
X4.6063Y-3.7205
X4.626Y-3.248
X4.6299Y-3.5591
X4.6457Y-3.6339
X4.6535Y-3.5866
X4.6772Y-3.5591
X4.7283Y-3.2795
X4.7362Y-3.6693
X4.7854Y-3.3327
X4.7854Y-3.4311
X4.8031Y-3.5669
X4.8031Y-3.8091
X4.8031Y-4.3209
X4.8228Y-4.0256
X4.8622Y-4.4488
X4.8839Y-3.3327
X4.8839Y-3.4311
X4.9114Y-4.065
X4.9409Y-4.065
X4.9508Y-4.3209
X4.9705Y-4.065
X5.0098Y-4.4488
X5.0236Y-3.2205
X5.0512Y-3.5669
X5.063Y-3.378
X5.0669Y-3.4961
X5.0886Y-4.1437
X5.0984Y-3.0807
T2
X4.6929Y-3.1654
X4.7874Y-3.1654
X4.8898Y-3.1535
X5.0591Y-4.1043
X5.0984Y-4.065
T3
X4.7402Y-3.6163
X4.9252Y-3.549
T4
X4.6654Y-4.1929
X4.7441Y-4.1929
X4.9803Y-4.1929
X5.0591Y-4.1929
T5
X4.7039Y-3.0472
X4.8039Y-3.0472
X4.9039Y-3.0472
X5.0039Y-3.0472
T6
X4.9838Y-3.2031
X5.0238Y-3.4031
X5.0638Y-3.2031
T7
X4.6063Y-4.2756
X4.8031Y-4.2756
X4.9213Y-4.2756
X5.1181Y-4.2756
T0
M30
