G04 #@! TF.FileFunction,Soldermask,Top*
%FSLAX46Y46*%
G04 Gerber Fmt 4.6, Leading zero omitted, Abs format (unit mm)*
G04 Created by KiCad (PCBNEW 4.0.2-4+6225~38~ubuntu15.10.1-stable) date Mon 28 Mar 2016 22:58:05 BST*
%MOMM*%
G01*
G04 APERTURE LIST*
%ADD10C,0.100000*%
%ADD11R,0.600000X1.550000*%
%ADD12C,1.200000*%
%ADD13C,1.600000*%
%ADD14R,0.950000X1.000000*%
%ADD15R,1.000000X0.950000*%
%ADD16C,0.787000*%
%ADD17C,1.000000*%
%ADD18R,1.727200X2.032000*%
%ADD19O,1.727200X2.032000*%
%ADD20C,1.300000*%
%ADD21R,6.740000X6.230000*%
%ADD22R,1.524000X2.280000*%
%ADD23R,0.600000X0.300000*%
%ADD24R,0.300000X0.600000*%
%ADD25R,2.002000X2.002000*%
%ADD26R,0.550000X0.850000*%
G04 APERTURE END LIST*
D10*
D11*
X118845000Y-100700000D03*
X120115000Y-100700000D03*
X121385000Y-100700000D03*
X122655000Y-100700000D03*
X122655000Y-95300000D03*
X121385000Y-95300000D03*
X120115000Y-95300000D03*
X118845000Y-95300000D03*
D12*
X117000000Y-108600000D03*
X122000000Y-108600000D03*
D13*
X118500000Y-106500000D03*
X120500000Y-106500000D03*
D14*
X117200000Y-93250000D03*
X118800000Y-93250000D03*
D15*
X117500000Y-85100000D03*
X117500000Y-83500000D03*
X119000000Y-85100000D03*
X119000000Y-83500000D03*
X119100000Y-87700000D03*
X119100000Y-89300000D03*
D14*
X126700000Y-89800000D03*
X128300000Y-89800000D03*
D15*
X127500000Y-101200000D03*
X127500000Y-102800000D03*
D14*
X123050000Y-93250000D03*
X121450000Y-93250000D03*
D12*
X125000000Y-108600000D03*
X130000000Y-108600000D03*
D13*
X126500000Y-106500000D03*
X128500000Y-106500000D03*
D16*
X128240000Y-85170000D03*
X126970000Y-85170000D03*
X128240000Y-83900000D03*
X126970000Y-83900000D03*
X128240000Y-82630000D03*
X126970000Y-82630000D03*
D17*
X127605000Y-86440000D03*
X128621000Y-81360000D03*
X126589000Y-81360000D03*
D18*
X127100000Y-77400000D03*
D19*
X124560000Y-77400000D03*
X122020000Y-77400000D03*
X119480000Y-77400000D03*
D15*
X117500000Y-97200000D03*
X117500000Y-98800000D03*
D20*
X120400768Y-91855050D03*
X125099232Y-90144950D03*
D21*
X127500000Y-94250000D03*
D22*
X125220000Y-101395000D03*
X129780000Y-101395000D03*
D23*
X120450000Y-84150000D03*
X120450000Y-84650000D03*
X120450000Y-85150000D03*
X120450000Y-85650000D03*
X120450000Y-86150000D03*
X120450000Y-86650000D03*
X120450000Y-87150000D03*
X120450000Y-87650000D03*
D24*
X121050000Y-88250000D03*
X121550000Y-88250000D03*
X122050000Y-88250000D03*
X122550000Y-88250000D03*
X123050000Y-88250000D03*
X123550000Y-88250000D03*
X124050000Y-88250000D03*
X124550000Y-88250000D03*
D23*
X125150000Y-87650000D03*
X125150000Y-87150000D03*
X125150000Y-86650000D03*
X125150000Y-86150000D03*
X125150000Y-85650000D03*
X125150000Y-85150000D03*
X125150000Y-84650000D03*
X125150000Y-84150000D03*
D24*
X124550000Y-83550000D03*
X124050000Y-83550000D03*
X123550000Y-83550000D03*
X123050000Y-83550000D03*
X122550000Y-83550000D03*
X122050000Y-83550000D03*
X121550000Y-83550000D03*
X121050000Y-83550000D03*
D25*
X122800000Y-85900000D03*
D26*
X122750000Y-81150000D03*
X124050000Y-81150000D03*
X123400000Y-79050000D03*
X120150000Y-81550000D03*
X121450000Y-81550000D03*
X120800000Y-79450000D03*
X117550000Y-81550000D03*
X118850000Y-81550000D03*
X118200000Y-79450000D03*
X123150000Y-89650000D03*
X121850000Y-89650000D03*
X122500000Y-91750000D03*
D15*
X117600000Y-87700000D03*
X117600000Y-89300000D03*
D17*
X117500000Y-86400000D03*
D15*
X120500000Y-103200000D03*
X120500000Y-104800000D03*
X118500000Y-102700000D03*
X118500000Y-104300000D03*
M02*
