G04 #@! TF.FileFunction,Copper,L1,Top,Signal*
%FSLAX46Y46*%
G04 Gerber Fmt 4.6, Leading zero omitted, Abs format (unit mm)*
G04 Created by KiCad (PCBNEW 4.0.2-4+6225~38~ubuntu15.10.1-stable) date Mon 28 Mar 2016 22:58:05 BST*
%MOMM*%
G01*
G04 APERTURE LIST*
%ADD10C,0.100000*%
%ADD11R,0.600000X1.550000*%
%ADD12C,1.600000*%
%ADD13R,0.950000X1.000000*%
%ADD14R,1.000000X0.950000*%
%ADD15C,0.787000*%
%ADD16R,1.727200X2.032000*%
%ADD17O,1.727200X2.032000*%
%ADD18C,1.300000*%
%ADD19R,6.740000X6.230000*%
%ADD20R,1.524000X2.280000*%
%ADD21R,0.600000X0.300000*%
%ADD22R,0.300000X0.600000*%
%ADD23R,2.000000X2.000000*%
%ADD24R,1.000000X1.000000*%
%ADD25C,0.600000*%
%ADD26R,3.450000X3.450000*%
%ADD27R,0.550000X0.850000*%
%ADD28C,1.000000*%
%ADD29C,0.250000*%
%ADD30C,0.500000*%
%ADD31C,0.300000*%
G04 APERTURE END LIST*
D10*
D11*
X118845000Y-100700000D03*
X120115000Y-100700000D03*
X121385000Y-100700000D03*
X122655000Y-100700000D03*
X122655000Y-95300000D03*
X121385000Y-95300000D03*
X120115000Y-95300000D03*
X118845000Y-95300000D03*
D12*
X118500000Y-106500000D03*
X120500000Y-106500000D03*
D13*
X117200000Y-93250000D03*
X118800000Y-93250000D03*
D14*
X117500000Y-85100000D03*
X117500000Y-83500000D03*
X119000000Y-85100000D03*
X119000000Y-83500000D03*
X119100000Y-87700000D03*
X119100000Y-89300000D03*
D13*
X126700000Y-89800000D03*
X128300000Y-89800000D03*
D14*
X127500000Y-101200000D03*
X127500000Y-102800000D03*
D13*
X123050000Y-93250000D03*
X121450000Y-93250000D03*
D12*
X126500000Y-106500000D03*
X128500000Y-106500000D03*
D15*
X128240000Y-85170000D03*
X126970000Y-85170000D03*
X128240000Y-83900000D03*
X126970000Y-83900000D03*
X128240000Y-82630000D03*
X126970000Y-82630000D03*
D16*
X127100000Y-77400000D03*
D17*
X124560000Y-77400000D03*
X122020000Y-77400000D03*
X119480000Y-77400000D03*
D14*
X117500000Y-97200000D03*
X117500000Y-98800000D03*
D18*
X120400768Y-91855050D03*
X125099232Y-90144950D03*
D19*
X127500000Y-94250000D03*
D20*
X125220000Y-101395000D03*
X129780000Y-101395000D03*
D21*
X120450000Y-84150000D03*
X120450000Y-84650000D03*
X120450000Y-85150000D03*
X120450000Y-85650000D03*
X120450000Y-86150000D03*
X120450000Y-86650000D03*
X120450000Y-87150000D03*
X120450000Y-87650000D03*
D22*
X121050000Y-88250000D03*
X121550000Y-88250000D03*
X122050000Y-88250000D03*
X122550000Y-88250000D03*
X123050000Y-88250000D03*
X123550000Y-88250000D03*
X124050000Y-88250000D03*
X124550000Y-88250000D03*
D21*
X125150000Y-87650000D03*
X125150000Y-87150000D03*
X125150000Y-86650000D03*
X125150000Y-86150000D03*
X125150000Y-85650000D03*
X125150000Y-85150000D03*
X125150000Y-84650000D03*
X125150000Y-84150000D03*
D22*
X124550000Y-83550000D03*
X124050000Y-83550000D03*
X123550000Y-83550000D03*
X123050000Y-83550000D03*
X122550000Y-83550000D03*
X122050000Y-83550000D03*
X121550000Y-83550000D03*
X121050000Y-83550000D03*
D23*
X122800000Y-85900000D03*
D24*
X122800000Y-85900000D03*
D25*
X121550000Y-84650000D03*
X121550000Y-87150000D03*
X124050000Y-84650000D03*
X124050000Y-87150000D03*
D26*
X122800000Y-85900000D03*
D27*
X122750000Y-81150000D03*
X124050000Y-81150000D03*
X123400000Y-79050000D03*
X120150000Y-81550000D03*
X121450000Y-81550000D03*
X120800000Y-79450000D03*
X117550000Y-81550000D03*
X118850000Y-81550000D03*
X118200000Y-79450000D03*
X123150000Y-89650000D03*
X121850000Y-89650000D03*
X122500000Y-91750000D03*
D14*
X117600000Y-87700000D03*
X117600000Y-89300000D03*
D28*
X117500000Y-86400000D03*
D14*
X120500000Y-103200000D03*
X120500000Y-104800000D03*
X118500000Y-102700000D03*
X118500000Y-104300000D03*
D25*
X122000000Y-109750000D03*
X125750000Y-109750000D03*
X123500000Y-113000000D03*
X127250000Y-113000000D03*
D28*
X124200000Y-80100000D03*
D25*
X129500000Y-78250000D03*
X126250000Y-103250000D03*
X129250000Y-105250000D03*
X125500000Y-103250000D03*
D28*
X121600000Y-80400000D03*
X119200000Y-80400000D03*
D25*
X120100000Y-83300000D03*
X127600000Y-81800000D03*
X128300000Y-90600000D03*
X118800000Y-90400000D03*
X122000000Y-90600000D03*
X117500000Y-82500000D03*
X117600000Y-90400000D03*
X120300000Y-93200000D03*
X117000000Y-94500000D03*
X124750000Y-103250000D03*
X122000000Y-96750000D03*
X122500000Y-102250000D03*
X128700000Y-88800000D03*
X128600000Y-85800000D03*
D28*
X128500000Y-104250000D03*
X129500000Y-103250000D03*
D25*
X118200000Y-91100000D03*
X118000000Y-92300000D03*
D29*
X122000000Y-109750000D02*
X125750000Y-109750000D01*
X123500000Y-113000000D02*
X127250000Y-113000000D01*
X124200000Y-80100000D02*
X124400000Y-80100000D01*
D30*
X124050000Y-80250000D02*
X124200000Y-80100000D01*
X124050000Y-81150000D02*
X124050000Y-80250000D01*
D29*
X128750000Y-79000000D02*
X129500000Y-78250000D01*
X125500000Y-79000000D02*
X128750000Y-79000000D01*
X124400000Y-80100000D02*
X125500000Y-79000000D01*
X126250000Y-103250000D02*
X128250000Y-105250000D01*
X128250000Y-105250000D02*
X129250000Y-105250000D01*
X121550000Y-83550000D02*
X121550000Y-84650000D01*
D30*
X127500000Y-102800000D02*
X126700000Y-102800000D01*
D31*
X126250000Y-103250000D02*
X125500000Y-103250000D01*
D30*
X126700000Y-102800000D02*
X126250000Y-103250000D01*
X121450000Y-81550000D02*
X121450000Y-80550000D01*
X121450000Y-80550000D02*
X121600000Y-80400000D01*
X118850000Y-81550000D02*
X118850000Y-80750000D01*
X118850000Y-80750000D02*
X119200000Y-80400000D01*
D29*
X119000000Y-83500000D02*
X119900000Y-83500000D01*
X119900000Y-83500000D02*
X120100000Y-83300000D01*
X128240000Y-82630000D02*
X128240000Y-82440000D01*
X128240000Y-82440000D02*
X127600000Y-81800000D01*
X128300000Y-89800000D02*
X128300000Y-90600000D01*
X119100000Y-89300000D02*
X119100000Y-90100000D01*
X119100000Y-90100000D02*
X118800000Y-90400000D01*
X121850000Y-89650000D02*
X121850000Y-90450000D01*
X121850000Y-90450000D02*
X122000000Y-90600000D01*
X117500000Y-83500000D02*
X117500000Y-82500000D01*
X117600000Y-89300000D02*
X117600000Y-90400000D01*
X121450000Y-93250000D02*
X120350000Y-93250000D01*
X120350000Y-93250000D02*
X120300000Y-93200000D01*
X117200000Y-93250000D02*
X117200000Y-94300000D01*
X117200000Y-94300000D02*
X117000000Y-94500000D01*
X121385000Y-94885000D02*
X121385000Y-95300000D01*
D30*
X125220000Y-101395000D02*
X125220000Y-102970000D01*
X125220000Y-102970000D02*
X125500000Y-103250000D01*
D31*
X124750000Y-103250000D02*
X125500000Y-103250000D01*
D29*
X122655000Y-95300000D02*
X122655000Y-96595000D01*
X121385000Y-96385000D02*
X121750000Y-96750000D01*
X121750000Y-96750000D02*
X122000000Y-96750000D01*
X121385000Y-96385000D02*
X121385000Y-95300000D01*
X122500000Y-96750000D02*
X122000000Y-96750000D01*
X122655000Y-96595000D02*
X122500000Y-96750000D01*
X122655000Y-100700000D02*
X122655000Y-102095000D01*
X122655000Y-102095000D02*
X122500000Y-102250000D01*
X126700000Y-88800000D02*
X128700000Y-88800000D01*
D31*
X128600000Y-85800000D02*
X128240000Y-85440000D01*
X128240000Y-85440000D02*
X128240000Y-85170000D01*
D29*
X125600000Y-87700000D02*
X125550000Y-87650000D01*
X126700000Y-88800000D02*
X125600000Y-87700000D01*
X125550000Y-87650000D02*
X125150000Y-87650000D01*
X126700000Y-89800000D02*
X126700000Y-93450000D01*
X126700000Y-93450000D02*
X127500000Y-94250000D01*
X126700000Y-88800000D02*
X126700000Y-89800000D01*
D31*
X126700000Y-93450000D02*
X127500000Y-94250000D01*
D30*
X126800000Y-93550000D02*
X127500000Y-94250000D01*
D29*
X119100000Y-91700000D02*
X118500000Y-91700000D01*
X117900000Y-91700000D02*
X118500000Y-91700000D01*
X116700000Y-90500000D02*
X116700000Y-87700000D01*
X117600000Y-91400000D02*
X116700000Y-90500000D01*
X117600000Y-91400000D02*
X117900000Y-91700000D01*
X116700000Y-87700000D02*
X117600000Y-87700000D01*
X116800000Y-85100000D02*
X117500000Y-85100000D01*
X116700000Y-87700000D02*
X116700000Y-86800000D01*
X116700000Y-86800000D02*
X116600000Y-86700000D01*
X116600000Y-86700000D02*
X116600000Y-85300000D01*
X116600000Y-85300000D02*
X116800000Y-85100000D01*
X123050000Y-93250000D02*
X122300000Y-92500000D01*
X122300000Y-92500000D02*
X122100000Y-92500000D01*
X122100000Y-92500000D02*
X121500000Y-91900000D01*
X121500000Y-91900000D02*
X121500000Y-91400000D01*
X121500000Y-91400000D02*
X120900000Y-90800000D01*
X120900000Y-90800000D02*
X120000000Y-90800000D01*
X119400000Y-91400000D02*
X119100000Y-91700000D01*
X119100000Y-91700000D02*
X118800000Y-92000000D01*
X120000000Y-90800000D02*
X119400000Y-91400000D01*
X118800000Y-92000000D02*
X118800000Y-93250000D01*
X119100000Y-87700000D02*
X117600000Y-87700000D01*
X119000000Y-85100000D02*
X117500000Y-85100000D01*
X120450000Y-84150000D02*
X120050000Y-84150000D01*
X120050000Y-84150000D02*
X119100000Y-85100000D01*
X119100000Y-85100000D02*
X119000000Y-85100000D01*
X120450000Y-86150000D02*
X119950000Y-86150000D01*
X119800000Y-87000000D02*
X119100000Y-87700000D01*
X119800000Y-86300000D02*
X119800000Y-87000000D01*
X119950000Y-86150000D02*
X119800000Y-86300000D01*
X123050000Y-93250000D02*
X126500000Y-93250000D01*
X126500000Y-93250000D02*
X127500000Y-94250000D01*
X118800000Y-93250000D02*
X118845000Y-93295000D01*
X118845000Y-93295000D02*
X118845000Y-95300000D01*
X125200000Y-91950000D02*
X127500000Y-94250000D01*
X117500000Y-97200000D02*
X117500000Y-96000000D01*
X118200000Y-95300000D02*
X118845000Y-95300000D01*
X117500000Y-96000000D02*
X118200000Y-95300000D01*
D30*
X127500000Y-94250000D02*
X126250000Y-94250000D01*
X126750000Y-93500000D02*
X127500000Y-94250000D01*
D29*
X118745000Y-95200000D02*
X118845000Y-95300000D01*
D30*
X127500000Y-101200000D02*
X129585000Y-101200000D01*
X129585000Y-101200000D02*
X129780000Y-101395000D01*
X129500000Y-103250000D02*
X128500000Y-104250000D01*
X129780000Y-101395000D02*
X129780000Y-102970000D01*
X129780000Y-102970000D02*
X129500000Y-103250000D01*
D29*
X120400768Y-91855050D02*
X120400768Y-91899232D01*
X120400768Y-91899232D02*
X119600000Y-92700000D01*
X119600000Y-92700000D02*
X119600000Y-93800000D01*
X119600000Y-93800000D02*
X120000000Y-94200000D01*
X120000000Y-94200000D02*
X123200000Y-94200000D01*
X123200000Y-94200000D02*
X123700000Y-94700000D01*
X123700000Y-94700000D02*
X123700000Y-98400000D01*
X123700000Y-98400000D02*
X124600000Y-99300000D01*
X124600000Y-99300000D02*
X129100000Y-99300000D01*
X129100000Y-99300000D02*
X129780000Y-99980000D01*
X129780000Y-99980000D02*
X129780000Y-101395000D01*
D31*
X129225000Y-101950000D02*
X129780000Y-101395000D01*
D29*
X119700000Y-90500000D02*
X121050000Y-89150000D01*
X121050000Y-89150000D02*
X121050000Y-88250000D01*
X118200000Y-91100000D02*
X119100000Y-91100000D01*
X118000000Y-92300000D02*
X118000000Y-92500000D01*
X118000000Y-94750000D02*
X118000000Y-92500000D01*
X117300000Y-98800000D02*
X116500000Y-98000000D01*
X116500000Y-96250000D02*
X117500000Y-95250000D01*
X116500000Y-98000000D02*
X116500000Y-96250000D01*
X117500000Y-95250000D02*
X118000000Y-94750000D01*
X119100000Y-91100000D02*
X119700000Y-90500000D01*
X119700000Y-90500000D02*
X119682844Y-90517156D01*
X117500000Y-98800000D02*
X117300000Y-98800000D01*
X117500000Y-98800000D02*
X117500000Y-100250000D01*
X117950000Y-100700000D02*
X118845000Y-100700000D01*
X117500000Y-100250000D02*
X117950000Y-100700000D01*
X118500000Y-102700000D02*
X118845000Y-102355000D01*
X118845000Y-102355000D02*
X118845000Y-100700000D01*
X118500000Y-106500000D02*
X120000000Y-108000000D01*
X122000000Y-107000000D02*
X126000000Y-107000000D01*
X121000000Y-108000000D02*
X122000000Y-107000000D01*
X120000000Y-108000000D02*
X121000000Y-108000000D01*
X126000000Y-107000000D02*
X126500000Y-106500000D01*
X118500000Y-106500000D02*
X117500000Y-105500000D01*
X119500000Y-102000000D02*
X120115000Y-101385000D01*
X119500000Y-103250000D02*
X119500000Y-102000000D01*
X119250000Y-103500000D02*
X119500000Y-103250000D01*
X117750000Y-103500000D02*
X119250000Y-103500000D01*
X117500000Y-103750000D02*
X117750000Y-103500000D01*
X117500000Y-105500000D02*
X117500000Y-103750000D01*
X120115000Y-101385000D02*
X120115000Y-100700000D01*
X118500000Y-106500000D02*
X118500000Y-106250000D01*
X120500000Y-106500000D02*
X124250000Y-106500000D01*
X127250000Y-105250000D02*
X128500000Y-106500000D01*
X125500000Y-105250000D02*
X127250000Y-105250000D01*
X124250000Y-106500000D02*
X125500000Y-105250000D01*
X120500000Y-104800000D02*
X120500000Y-106500000D01*
X125150000Y-84650000D02*
X125850000Y-84650000D01*
X126370000Y-85170000D02*
X126970000Y-85170000D01*
X125850000Y-84650000D02*
X126370000Y-85170000D01*
X125150000Y-84150000D02*
X126720000Y-84150000D01*
X126720000Y-84150000D02*
X126970000Y-83900000D01*
D30*
X123400000Y-79050000D02*
X123400000Y-78560000D01*
X123400000Y-78560000D02*
X124560000Y-77400000D01*
X120800000Y-79450000D02*
X120800000Y-78620000D01*
X120800000Y-78620000D02*
X122020000Y-77400000D01*
X118200000Y-79450000D02*
X118200000Y-78680000D01*
X118200000Y-78680000D02*
X119480000Y-77400000D01*
D29*
X122500000Y-91800000D02*
X122700000Y-91800000D01*
X122700000Y-91800000D02*
X124355050Y-90144950D01*
X124355050Y-90144950D02*
X125099232Y-90144950D01*
X121550000Y-88250000D02*
X121550000Y-88850000D01*
X122400000Y-88900000D02*
X123150000Y-89650000D01*
X121600000Y-88900000D02*
X122400000Y-88900000D01*
X121550000Y-88850000D02*
X121600000Y-88900000D01*
X124200000Y-81900000D02*
X123000000Y-81900000D01*
X124800000Y-81799998D02*
X124699998Y-81900000D01*
X124699998Y-81900000D02*
X124200000Y-81900000D01*
X126900000Y-79500000D02*
X126000000Y-79500000D01*
X130500000Y-80600000D02*
X129400000Y-79500000D01*
X129400000Y-79500000D02*
X126900000Y-79500000D01*
X125150000Y-87150000D02*
X125750000Y-87150000D01*
X130500000Y-86200000D02*
X130500000Y-82000000D01*
X128400000Y-88300000D02*
X130500000Y-86200000D01*
X126900000Y-88300000D02*
X128400000Y-88300000D01*
X125750000Y-87150000D02*
X126900000Y-88300000D01*
X130500000Y-82000000D02*
X130500000Y-80600000D01*
X124800000Y-80700000D02*
X124800000Y-81500000D01*
X126000000Y-79500000D02*
X124800000Y-80700000D01*
X124800000Y-81500000D02*
X124800000Y-81799998D01*
X122750000Y-81650000D02*
X122750000Y-81150000D01*
X123000000Y-81900000D02*
X122750000Y-81650000D01*
X124300000Y-82400000D02*
X120900000Y-82400000D01*
X125300000Y-82200000D02*
X125100000Y-82400000D01*
X125100000Y-82400000D02*
X124300000Y-82400000D01*
X126600000Y-80000000D02*
X126100000Y-80000000D01*
X130000000Y-80800000D02*
X129200000Y-80000000D01*
X129200000Y-80000000D02*
X126600000Y-80000000D01*
X125150000Y-86650000D02*
X125950000Y-86650000D01*
X130000000Y-86000000D02*
X130000000Y-81300000D01*
X128200000Y-87800000D02*
X130000000Y-86000000D01*
X127100000Y-87800000D02*
X128200000Y-87800000D01*
X125950000Y-86650000D02*
X127100000Y-87800000D01*
X130000000Y-81300000D02*
X130000000Y-80800000D01*
X125300000Y-80800000D02*
X125300000Y-81500000D01*
X126100000Y-80000000D02*
X125300000Y-80800000D01*
X125300000Y-81500000D02*
X125300000Y-82200000D01*
X120900000Y-82400000D02*
X120150000Y-81650000D01*
X120150000Y-81650000D02*
X120150000Y-81550000D01*
X118600000Y-82700000D02*
X118400000Y-82700000D01*
X120700000Y-82900000D02*
X120500000Y-82700000D01*
X120500000Y-82700000D02*
X118600000Y-82700000D01*
X125800000Y-81600000D02*
X125800000Y-82400000D01*
X129500000Y-85800000D02*
X129500000Y-81000000D01*
X126150000Y-86150000D02*
X127300000Y-87300000D01*
X127300000Y-87300000D02*
X128000000Y-87300000D01*
X128000000Y-87300000D02*
X129500000Y-85800000D01*
X125150000Y-86150000D02*
X126150000Y-86150000D01*
X126300000Y-80500000D02*
X125800000Y-81000000D01*
X129000000Y-80500000D02*
X126300000Y-80500000D01*
X129500000Y-81000000D02*
X129000000Y-80500000D01*
X125800000Y-81600000D02*
X125800000Y-81000000D01*
X125300000Y-82900000D02*
X124000000Y-82900000D01*
X125800000Y-82400000D02*
X125300000Y-82900000D01*
X124000000Y-82900000D02*
X120700000Y-82900000D01*
X118100000Y-82100000D02*
X117550000Y-81550000D01*
X118100000Y-82400000D02*
X118100000Y-82100000D01*
X118400000Y-82700000D02*
X118100000Y-82400000D01*
X120450000Y-85650000D02*
X119850000Y-85650000D01*
X119100000Y-86400000D02*
X117500000Y-86400000D01*
X119850000Y-85650000D02*
X119100000Y-86400000D01*
X120500000Y-103200000D02*
X120500000Y-102750000D01*
X120500000Y-102750000D02*
X121385000Y-101865000D01*
X121385000Y-101865000D02*
X121385000Y-100700000D01*
X118500000Y-104300000D02*
X119200000Y-104300000D01*
X119200000Y-104300000D02*
X120300000Y-103200000D01*
X120300000Y-103200000D02*
X120500000Y-103200000D01*
M02*
