G04 #@! TF.FileFunction,Legend,Top*
%FSLAX46Y46*%
G04 Gerber Fmt 4.6, Leading zero omitted, Abs format (unit mm)*
G04 Created by KiCad (PCBNEW 4.0.2-4+6225~38~ubuntu15.10.1-stable) date Mon 28 Mar 2016 22:58:05 BST*
%MOMM*%
G01*
G04 APERTURE LIST*
%ADD10C,0.100000*%
%ADD11C,0.150000*%
G04 APERTURE END LIST*
D10*
D11*
X118845000Y-98825000D02*
X118845000Y-96575000D01*
X118845000Y-96575000D02*
X122655000Y-96575000D01*
X122655000Y-96575000D02*
X122655000Y-99425000D01*
X122655000Y-99425000D02*
X119445000Y-99425000D01*
X119445000Y-99425000D02*
X118845000Y-98825000D01*
X122500000Y-114700000D02*
X116500000Y-114700000D01*
X116500000Y-114700000D02*
X116500000Y-103000000D01*
X116500000Y-103000000D02*
X117500000Y-103000000D01*
X117500000Y-103000000D02*
X117500000Y-107000000D01*
X122500000Y-114700000D02*
X122500000Y-103000000D01*
X122500000Y-103000000D02*
X121500000Y-103000000D01*
X121500000Y-103000000D02*
X121500000Y-107000000D01*
X117875000Y-92925000D02*
X118125000Y-92925000D01*
X118125000Y-92925000D02*
X118125000Y-93575000D01*
X118125000Y-93575000D02*
X117875000Y-93575000D01*
X117875000Y-93575000D02*
X117875000Y-92925000D01*
X117175000Y-84425000D02*
X117175000Y-84175000D01*
X117175000Y-84175000D02*
X117825000Y-84175000D01*
X117825000Y-84175000D02*
X117825000Y-84425000D01*
X117825000Y-84425000D02*
X117175000Y-84425000D01*
X118675000Y-84425000D02*
X118675000Y-84175000D01*
X118675000Y-84175000D02*
X119325000Y-84175000D01*
X119325000Y-84175000D02*
X119325000Y-84425000D01*
X119325000Y-84425000D02*
X118675000Y-84425000D01*
X119425000Y-88375000D02*
X119425000Y-88625000D01*
X119425000Y-88625000D02*
X118775000Y-88625000D01*
X118775000Y-88625000D02*
X118775000Y-88375000D01*
X118775000Y-88375000D02*
X119425000Y-88375000D01*
X127375000Y-89475000D02*
X127625000Y-89475000D01*
X127625000Y-89475000D02*
X127625000Y-90125000D01*
X127625000Y-90125000D02*
X127375000Y-90125000D01*
X127375000Y-90125000D02*
X127375000Y-89475000D01*
X127825000Y-101875000D02*
X127825000Y-102125000D01*
X127825000Y-102125000D02*
X127175000Y-102125000D01*
X127175000Y-102125000D02*
X127175000Y-101875000D01*
X127175000Y-101875000D02*
X127825000Y-101875000D01*
X122375000Y-93575000D02*
X122125000Y-93575000D01*
X122125000Y-93575000D02*
X122125000Y-92925000D01*
X122125000Y-92925000D02*
X122375000Y-92925000D01*
X122375000Y-92925000D02*
X122375000Y-93575000D01*
X130500000Y-114700000D02*
X124500000Y-114700000D01*
X124500000Y-114700000D02*
X124500000Y-103000000D01*
X124500000Y-103000000D02*
X125500000Y-103000000D01*
X125500000Y-103000000D02*
X125500000Y-107000000D01*
X130500000Y-114700000D02*
X130500000Y-103000000D01*
X130500000Y-103000000D02*
X129500000Y-103000000D01*
X129500000Y-103000000D02*
X129500000Y-107000000D01*
X125830000Y-76130000D02*
X118210000Y-76130000D01*
X125830000Y-78670000D02*
X118210000Y-78670000D01*
X128650000Y-78950000D02*
X127100000Y-78950000D01*
X118210000Y-76130000D02*
X118210000Y-78670000D01*
X125830000Y-78670000D02*
X125830000Y-76130000D01*
X127100000Y-75850000D02*
X128650000Y-75850000D01*
X128650000Y-75850000D02*
X128650000Y-78950000D01*
X117825000Y-97875000D02*
X117825000Y-98125000D01*
X117825000Y-98125000D02*
X117175000Y-98125000D01*
X117175000Y-98125000D02*
X117175000Y-97875000D01*
X117175000Y-97875000D02*
X117825000Y-97875000D01*
X120250000Y-83750000D02*
X120650000Y-83350000D01*
X124950000Y-83350000D02*
X125350000Y-83350000D01*
X125350000Y-83350000D02*
X125350000Y-83750000D01*
X124950000Y-88450000D02*
X125350000Y-88450000D01*
X125350000Y-88450000D02*
X125350000Y-88050000D01*
X120650000Y-88450000D02*
X120250000Y-88450000D01*
X120250000Y-88450000D02*
X120250000Y-88050000D01*
X122750000Y-79975000D02*
X122750000Y-79975000D01*
X122750000Y-79975000D02*
X124050000Y-79975000D01*
X124050000Y-79975000D02*
X124050000Y-80225000D01*
X124050000Y-80225000D02*
X123000000Y-80225000D01*
X123000000Y-80225000D02*
X122750000Y-79975000D01*
X120150000Y-80375000D02*
X120150000Y-80375000D01*
X120150000Y-80375000D02*
X121450000Y-80375000D01*
X121450000Y-80375000D02*
X121450000Y-80625000D01*
X121450000Y-80625000D02*
X120400000Y-80625000D01*
X120400000Y-80625000D02*
X120150000Y-80375000D01*
X117550000Y-80375000D02*
X117550000Y-80375000D01*
X117550000Y-80375000D02*
X118850000Y-80375000D01*
X118850000Y-80375000D02*
X118850000Y-80625000D01*
X118850000Y-80625000D02*
X117800000Y-80625000D01*
X117800000Y-80625000D02*
X117550000Y-80375000D01*
X123150000Y-90825000D02*
X123150000Y-90825000D01*
X123150000Y-90825000D02*
X121850000Y-90825000D01*
X121850000Y-90825000D02*
X121850000Y-90575000D01*
X121850000Y-90575000D02*
X122900000Y-90575000D01*
X122900000Y-90575000D02*
X123150000Y-90825000D01*
X117925000Y-88375000D02*
X117925000Y-88625000D01*
X117925000Y-88625000D02*
X117275000Y-88625000D01*
X117275000Y-88625000D02*
X117275000Y-88375000D01*
X117275000Y-88375000D02*
X117925000Y-88375000D01*
X120825000Y-103875000D02*
X120825000Y-104125000D01*
X120825000Y-104125000D02*
X120175000Y-104125000D01*
X120175000Y-104125000D02*
X120175000Y-103875000D01*
X120175000Y-103875000D02*
X120825000Y-103875000D01*
X118825000Y-103375000D02*
X118825000Y-103625000D01*
X118825000Y-103625000D02*
X118175000Y-103625000D01*
X118175000Y-103625000D02*
X118175000Y-103375000D01*
X118175000Y-103375000D02*
X118825000Y-103375000D01*
M02*
