M48
;DRILL file {KiCad 4.0.2-4+6225~38~ubuntu15.10.1-stable} date Mon 28 Mar 2016 00:38:41 BST
;FORMAT={-:-/ absolute / inch / decimal}
FMAT,2
INCH,TZ
T1C0.016
T2C0.024
T3C0.028
T4C0.031
T5C0.040
T6C0.039
T7C0.047
%
G90
G05
M72
T1
X4.6063Y-2.9488
X4.6339Y-3.2835
X4.6457Y-3.7559
X4.6654Y-2.9449
X4.6772Y-3.2795
X4.7638Y-3.0079
X4.7638Y-3.0906
X4.7638Y-3.189
X4.7874Y-3.3583
X4.7953Y-3.7598
X4.8228Y-3.8386
X4.8327Y-3.6024
X4.8504Y-4.3228
X4.8622Y-3.0906
X4.8622Y-3.189
X4.8622Y-3.5197
X4.8622Y-3.5866
X4.9016Y-3.9567
X4.9094Y-4.0945
X4.9134Y-4.4409
X4.9173Y-3.0354
X4.9252Y-3.2913
X4.9311Y-3.9567
X4.9488Y-3.0276
X4.9488Y-3.1378
X4.9626Y-3.9587
X4.9724Y-3.1614
X4.9843Y-3.0236
X4.9961Y-3.185
X5.0118Y-4.3189
X5.063Y-4.4409
X5.0748Y-3.9882
X5.0748Y-4.0945
X5.1299Y-3.9606
X5.1417Y-3.1024
X5.1969Y-3.8878
X5.2126Y-4.0433
T2
X4.7717Y-2.9094
X4.878Y-2.9094
X4.9843Y-2.9094
T3
X4.7146Y-3.4154
X4.9114Y-3.4154
T4
X4.7008Y-4.185
X4.7795Y-4.185
X5.0236Y-4.185
X5.1024Y-4.185
T5
X4.7524Y-2.6772
X4.8524Y-2.6772
X4.9524Y-2.6772
X5.0524Y-2.6772
T6
X5.0342Y-3.0496
X5.0742Y-3.2496
X5.1142Y-3.0496
T7
X4.6417Y-4.2677
X4.8386Y-4.2677
X4.9646Y-4.2677
X5.1614Y-4.2677
T0
M30
