G04 #@! TF.FileFunction,Paste,Top*
%FSLAX46Y46*%
G04 Gerber Fmt 4.6, Leading zero omitted, Abs format (unit mm)*
G04 Created by KiCad (PCBNEW 4.0.2-4+6225~38~ubuntu15.10.1-stable) date Mon 28 Mar 2016 00:38:38 BST*
%MOMM*%
G01*
G04 APERTURE LIST*
%ADD10C,0.100000*%
%ADD11R,1.000000X0.950000*%
%ADD12R,0.950000X1.000000*%
%ADD13R,0.600000X1.550000*%
%ADD14R,6.740000X6.230000*%
%ADD15R,1.524000X2.280000*%
%ADD16R,0.600000X0.300000*%
%ADD17R,0.300000X0.600000*%
%ADD18R,1.002000X1.002000*%
%ADD19R,0.550000X0.850000*%
G04 APERTURE END LIST*
D10*
D11*
X117000000Y-95300000D03*
X117000000Y-93700000D03*
X117000000Y-77550000D03*
X117000000Y-75950000D03*
X118500000Y-77550000D03*
X118500000Y-75950000D03*
X118800000Y-80500000D03*
X118800000Y-82100000D03*
X126100000Y-82100000D03*
X126100000Y-83700000D03*
X127500000Y-98950000D03*
X127500000Y-100550000D03*
D12*
X119950000Y-91500000D03*
X121550000Y-91500000D03*
D13*
X118845000Y-98950000D03*
X120115000Y-98950000D03*
X121385000Y-98950000D03*
X122655000Y-98950000D03*
X122655000Y-93550000D03*
X121385000Y-93550000D03*
X120115000Y-93550000D03*
X118845000Y-93550000D03*
D11*
X117000000Y-97200000D03*
X117000000Y-98800000D03*
D14*
X127530000Y-91750000D03*
D15*
X125250000Y-98895000D03*
X129810000Y-98895000D03*
D16*
X119900000Y-78000000D03*
X119900000Y-78500000D03*
X119900000Y-79000000D03*
X119900000Y-79500000D03*
X119900000Y-80000000D03*
X119900000Y-80500000D03*
X119900000Y-81000000D03*
X119900000Y-81500000D03*
D17*
X120500000Y-82100000D03*
X121000000Y-82100000D03*
X121500000Y-82100000D03*
X122000000Y-82100000D03*
X122500000Y-82100000D03*
X123000000Y-82100000D03*
X123500000Y-82100000D03*
X124000000Y-82100000D03*
D16*
X124600000Y-81500000D03*
X124600000Y-81000000D03*
X124600000Y-80500000D03*
X124600000Y-80000000D03*
X124600000Y-79500000D03*
X124600000Y-79000000D03*
X124600000Y-78500000D03*
X124600000Y-78000000D03*
D17*
X124000000Y-77400000D03*
X123500000Y-77400000D03*
X123000000Y-77400000D03*
X122500000Y-77400000D03*
X122000000Y-77400000D03*
X121500000Y-77400000D03*
X121000000Y-77400000D03*
X120500000Y-77400000D03*
D18*
X122250000Y-79750000D03*
D19*
X125350000Y-72800000D03*
X126650000Y-72800000D03*
X126000000Y-70700000D03*
X122600000Y-72800000D03*
X123900000Y-72800000D03*
X123250000Y-70700000D03*
X119850000Y-72800000D03*
X121150000Y-72800000D03*
X120500000Y-70700000D03*
X122850000Y-84350000D03*
X121550000Y-84350000D03*
X122200000Y-86450000D03*
D11*
X117500000Y-80500000D03*
X117500000Y-82100000D03*
D12*
X121300000Y-101300000D03*
X122900000Y-101300000D03*
X118200000Y-101300000D03*
X119800000Y-101300000D03*
M02*
