G04 #@! TF.FileFunction,Copper,L2,Bot,Signal*
%FSLAX46Y46*%
G04 Gerber Fmt 4.6, Leading zero omitted, Abs format (unit mm)*
G04 Created by KiCad (PCBNEW 4.0.2-4+6225~38~ubuntu15.10.1-stable) date Sun 27 Mar 2016 21:57:15 BST*
%MOMM*%
G01*
G04 APERTURE LIST*
%ADD10C,0.100000*%
%ADD11R,2.000000X4.000000*%
%ADD12C,1.600000*%
%ADD13R,1.727200X2.032000*%
%ADD14O,1.727200X2.032000*%
%ADD15C,1.300000*%
%ADD16C,0.600000*%
%ADD17C,1.000000*%
%ADD18C,0.250000*%
%ADD19C,1.500000*%
%ADD20C,0.400000*%
G04 APERTURE END LIST*
D10*
D11*
X122650000Y-112500000D03*
X126850000Y-112500000D03*
D12*
X119400000Y-106300000D03*
X121400000Y-106300000D03*
X127600000Y-106300000D03*
X129600000Y-106300000D03*
D13*
X128330000Y-68000000D03*
D14*
X125790000Y-68000000D03*
X123250000Y-68000000D03*
X120710000Y-68000000D03*
D15*
X124750000Y-86750000D03*
X119750000Y-86750000D03*
D16*
X121000000Y-78500000D03*
X121000000Y-81000000D03*
X123500000Y-78500000D03*
X123500000Y-81000000D03*
X124800000Y-112800000D03*
X128600000Y-112800000D03*
X123200000Y-109800000D03*
X127300000Y-109700000D03*
X128900000Y-101300000D03*
X128900000Y-104000000D03*
X130300000Y-100600000D03*
X132400000Y-102700000D03*
X124700000Y-104000000D03*
X118000000Y-95400000D03*
X121800000Y-95500000D03*
X121000000Y-76400000D03*
D17*
X126600000Y-73900000D03*
X123900000Y-73900000D03*
X121200000Y-73900000D03*
D16*
X118800000Y-83300000D03*
X117700000Y-83400000D03*
X118500000Y-74800000D03*
X117000000Y-74900000D03*
X130600000Y-78800000D03*
X125100000Y-83600000D03*
X121600000Y-85300000D03*
X122750000Y-91500000D03*
X124500000Y-100500000D03*
X125250000Y-100500000D03*
X126050000Y-100550000D03*
X122500000Y-97500000D03*
X132000000Y-98750000D03*
X123500000Y-89400000D03*
X123500000Y-91100000D03*
X126600000Y-76800000D03*
X126900000Y-80900000D03*
X125700000Y-76900000D03*
X126300000Y-80300000D03*
X125700000Y-79700000D03*
X124900000Y-77100000D03*
D18*
X129600000Y-100600000D02*
X128900000Y-101300000D01*
X130300000Y-100600000D02*
X129600000Y-100600000D01*
X117700000Y-83400000D02*
X117700000Y-83300000D01*
X118500000Y-74800000D02*
X118500000Y-74900000D01*
D19*
X122650000Y-112500000D02*
X122650000Y-111750000D01*
X128100000Y-102750000D02*
X128050000Y-102750000D01*
X124500000Y-109000000D02*
X126800000Y-111300000D01*
X124500000Y-106300000D02*
X124500000Y-109000000D01*
X128050000Y-102750000D02*
X124500000Y-106300000D01*
X126800000Y-111300000D02*
X126800000Y-112500000D01*
X126800000Y-112500000D02*
X126850000Y-112500000D01*
X132000000Y-101250000D02*
X132000000Y-98750000D01*
X130500000Y-102750000D02*
X132000000Y-101250000D01*
X128250000Y-102750000D02*
X128100000Y-102750000D01*
X128100000Y-102750000D02*
X128200000Y-102750000D01*
X128200000Y-102750000D02*
X130500000Y-102750000D01*
X132000000Y-98750000D02*
X132000000Y-86750000D01*
X132000000Y-86750000D02*
X132000000Y-69750000D01*
D20*
X124750000Y-86750000D02*
X132000000Y-86750000D01*
D19*
X132000000Y-69750000D02*
X130250000Y-68000000D01*
X130250000Y-68000000D02*
X128330000Y-68000000D01*
D18*
X123500000Y-91100000D02*
X123500000Y-89400000D01*
X126900000Y-80600000D02*
X127000000Y-80500000D01*
X127000000Y-80500000D02*
X127000000Y-77200000D01*
X127000000Y-77200000D02*
X126600000Y-76800000D01*
X126900000Y-80900000D02*
X126900000Y-80600000D01*
X126300000Y-80100000D02*
X126400000Y-80000000D01*
X126400000Y-80000000D02*
X126400000Y-77600000D01*
X126400000Y-77600000D02*
X125700000Y-76900000D01*
X126300000Y-80300000D02*
X126300000Y-80100000D01*
X125700000Y-79700000D02*
X125700000Y-77900000D01*
X125700000Y-77900000D02*
X124900000Y-77100000D01*
G36*
X132550000Y-114550000D02*
X128222221Y-114550000D01*
X128232346Y-114500000D01*
X128232346Y-110500000D01*
X128206198Y-110361034D01*
X128124069Y-110233401D01*
X127998754Y-110147777D01*
X127850000Y-110117654D01*
X127208644Y-110117654D01*
X126415556Y-109324566D01*
X126651571Y-109227046D01*
X126926082Y-108953014D01*
X127074830Y-108594790D01*
X127074831Y-108593089D01*
X130124831Y-108593089D01*
X130272954Y-108951571D01*
X130546986Y-109226082D01*
X130905210Y-109374830D01*
X131293089Y-109375169D01*
X131651571Y-109227046D01*
X131926082Y-108953014D01*
X132074830Y-108594790D01*
X132075169Y-108206911D01*
X131927046Y-107848429D01*
X131653014Y-107573918D01*
X131294790Y-107425170D01*
X130906911Y-107424831D01*
X130548429Y-107572954D01*
X130273918Y-107846986D01*
X130125170Y-108205210D01*
X130124831Y-108593089D01*
X127074831Y-108593089D01*
X127075169Y-108206911D01*
X126927046Y-107848429D01*
X126653014Y-107573918D01*
X126294790Y-107425170D01*
X125906911Y-107424831D01*
X125625000Y-107541315D01*
X125625000Y-106765990D01*
X126495835Y-105895155D01*
X126425204Y-106065253D01*
X126424796Y-106532697D01*
X126603302Y-106964715D01*
X126933547Y-107295536D01*
X127365253Y-107474796D01*
X127832697Y-107475204D01*
X128264715Y-107296698D01*
X128595536Y-106966453D01*
X128599789Y-106956212D01*
X128603302Y-106964715D01*
X128933547Y-107295536D01*
X129365253Y-107474796D01*
X129832697Y-107475204D01*
X130264715Y-107296698D01*
X130595536Y-106966453D01*
X130774796Y-106534747D01*
X130775204Y-106067303D01*
X130596698Y-105635285D01*
X130266453Y-105304464D01*
X129834747Y-105125204D01*
X129367303Y-105124796D01*
X128935285Y-105303302D01*
X128604464Y-105633547D01*
X128600211Y-105643788D01*
X128596698Y-105635285D01*
X128266453Y-105304464D01*
X127834747Y-105125204D01*
X127367303Y-105124796D01*
X127195000Y-105195990D01*
X128515990Y-103875000D01*
X130500000Y-103875000D01*
X130930519Y-103789364D01*
X131295495Y-103545495D01*
X132550000Y-102290990D01*
X132550000Y-114550000D01*
X132550000Y-114550000D01*
G37*
X132550000Y-114550000D02*
X128222221Y-114550000D01*
X128232346Y-114500000D01*
X128232346Y-110500000D01*
X128206198Y-110361034D01*
X128124069Y-110233401D01*
X127998754Y-110147777D01*
X127850000Y-110117654D01*
X127208644Y-110117654D01*
X126415556Y-109324566D01*
X126651571Y-109227046D01*
X126926082Y-108953014D01*
X127074830Y-108594790D01*
X127074831Y-108593089D01*
X130124831Y-108593089D01*
X130272954Y-108951571D01*
X130546986Y-109226082D01*
X130905210Y-109374830D01*
X131293089Y-109375169D01*
X131651571Y-109227046D01*
X131926082Y-108953014D01*
X132074830Y-108594790D01*
X132075169Y-108206911D01*
X131927046Y-107848429D01*
X131653014Y-107573918D01*
X131294790Y-107425170D01*
X130906911Y-107424831D01*
X130548429Y-107572954D01*
X130273918Y-107846986D01*
X130125170Y-108205210D01*
X130124831Y-108593089D01*
X127074831Y-108593089D01*
X127075169Y-108206911D01*
X126927046Y-107848429D01*
X126653014Y-107573918D01*
X126294790Y-107425170D01*
X125906911Y-107424831D01*
X125625000Y-107541315D01*
X125625000Y-106765990D01*
X126495835Y-105895155D01*
X126425204Y-106065253D01*
X126424796Y-106532697D01*
X126603302Y-106964715D01*
X126933547Y-107295536D01*
X127365253Y-107474796D01*
X127832697Y-107475204D01*
X128264715Y-107296698D01*
X128595536Y-106966453D01*
X128599789Y-106956212D01*
X128603302Y-106964715D01*
X128933547Y-107295536D01*
X129365253Y-107474796D01*
X129832697Y-107475204D01*
X130264715Y-107296698D01*
X130595536Y-106966453D01*
X130774796Y-106534747D01*
X130775204Y-106067303D01*
X130596698Y-105635285D01*
X130266453Y-105304464D01*
X129834747Y-105125204D01*
X129367303Y-105124796D01*
X128935285Y-105303302D01*
X128604464Y-105633547D01*
X128600211Y-105643788D01*
X128596698Y-105635285D01*
X128266453Y-105304464D01*
X127834747Y-105125204D01*
X127367303Y-105124796D01*
X127195000Y-105195990D01*
X128515990Y-103875000D01*
X130500000Y-103875000D01*
X130930519Y-103789364D01*
X131295495Y-103545495D01*
X132550000Y-102290990D01*
X132550000Y-114550000D01*
G36*
X132550000Y-68709010D02*
X131045495Y-67204505D01*
X130680519Y-66960636D01*
X130250000Y-66875000D01*
X129555436Y-66875000D01*
X129549798Y-66845034D01*
X129467669Y-66717401D01*
X129342354Y-66631777D01*
X129193600Y-66601654D01*
X127466400Y-66601654D01*
X127327434Y-66627802D01*
X127199801Y-66709931D01*
X127114177Y-66835246D01*
X127084054Y-66984000D01*
X127084054Y-69016000D01*
X127110202Y-69154966D01*
X127192331Y-69282599D01*
X127317646Y-69368223D01*
X127466400Y-69398346D01*
X129193600Y-69398346D01*
X129332566Y-69372198D01*
X129460199Y-69290069D01*
X129545823Y-69164754D01*
X129553873Y-69125000D01*
X129784010Y-69125000D01*
X130875000Y-70215990D01*
X130875000Y-86175000D01*
X125621466Y-86175000D01*
X125619459Y-86170143D01*
X125331374Y-85881554D01*
X124954780Y-85725178D01*
X124547009Y-85724822D01*
X124170143Y-85880541D01*
X123881554Y-86168626D01*
X123725178Y-86545220D01*
X123724822Y-86952991D01*
X123880541Y-87329857D01*
X124168626Y-87618446D01*
X124545220Y-87774822D01*
X124952991Y-87775178D01*
X125329857Y-87619459D01*
X125618446Y-87331374D01*
X125621093Y-87325000D01*
X130875000Y-87325000D01*
X130875000Y-100784010D01*
X130034010Y-101625000D01*
X128050000Y-101625000D01*
X127619481Y-101710636D01*
X127254505Y-101954505D01*
X123704505Y-105504505D01*
X123460636Y-105869481D01*
X123375000Y-106300000D01*
X123375000Y-107541524D01*
X123094790Y-107425170D01*
X122706911Y-107424831D01*
X122348429Y-107572954D01*
X122073918Y-107846986D01*
X121925170Y-108205210D01*
X121924831Y-108593089D01*
X122072954Y-108951571D01*
X122346986Y-109226082D01*
X122705210Y-109374830D01*
X123093089Y-109375169D01*
X123422548Y-109239038D01*
X123460636Y-109430519D01*
X123704505Y-109795495D01*
X125467654Y-111558644D01*
X125467654Y-114500000D01*
X125477062Y-114550000D01*
X124035000Y-114550000D01*
X124035000Y-112601250D01*
X123938750Y-112505000D01*
X122655000Y-112505000D01*
X122655000Y-112525000D01*
X122645000Y-112525000D01*
X122645000Y-112505000D01*
X121361250Y-112505000D01*
X121265000Y-112601250D01*
X121265000Y-114550000D01*
X116450000Y-114550000D01*
X116450000Y-110423418D01*
X121265000Y-110423418D01*
X121265000Y-112398750D01*
X121361250Y-112495000D01*
X122645000Y-112495000D01*
X122645000Y-110211250D01*
X122655000Y-110211250D01*
X122655000Y-112495000D01*
X123938750Y-112495000D01*
X124035000Y-112398750D01*
X124035000Y-110423418D01*
X123976387Y-110281915D01*
X123868085Y-110173613D01*
X123726581Y-110115000D01*
X122751250Y-110115000D01*
X122655000Y-110211250D01*
X122645000Y-110211250D01*
X122548750Y-110115000D01*
X121573419Y-110115000D01*
X121431915Y-110173613D01*
X121323613Y-110281915D01*
X121265000Y-110423418D01*
X116450000Y-110423418D01*
X116450000Y-108593089D01*
X116924831Y-108593089D01*
X117072954Y-108951571D01*
X117346986Y-109226082D01*
X117705210Y-109374830D01*
X118093089Y-109375169D01*
X118451571Y-109227046D01*
X118726082Y-108953014D01*
X118874830Y-108594790D01*
X118875169Y-108206911D01*
X118727046Y-107848429D01*
X118453014Y-107573918D01*
X118094790Y-107425170D01*
X117706911Y-107424831D01*
X117348429Y-107572954D01*
X117073918Y-107846986D01*
X116925170Y-108205210D01*
X116924831Y-108593089D01*
X116450000Y-108593089D01*
X116450000Y-106532697D01*
X118224796Y-106532697D01*
X118403302Y-106964715D01*
X118733547Y-107295536D01*
X119165253Y-107474796D01*
X119632697Y-107475204D01*
X120064715Y-107296698D01*
X120395536Y-106966453D01*
X120399789Y-106956212D01*
X120403302Y-106964715D01*
X120733547Y-107295536D01*
X121165253Y-107474796D01*
X121632697Y-107475204D01*
X122064715Y-107296698D01*
X122395536Y-106966453D01*
X122574796Y-106534747D01*
X122575204Y-106067303D01*
X122396698Y-105635285D01*
X122066453Y-105304464D01*
X121634747Y-105125204D01*
X121167303Y-105124796D01*
X120735285Y-105303302D01*
X120404464Y-105633547D01*
X120400211Y-105643788D01*
X120396698Y-105635285D01*
X120066453Y-105304464D01*
X119634747Y-105125204D01*
X119167303Y-105124796D01*
X118735285Y-105303302D01*
X118404464Y-105633547D01*
X118225204Y-106065253D01*
X118224796Y-106532697D01*
X116450000Y-106532697D01*
X116450000Y-89533677D01*
X122824883Y-89533677D01*
X122927429Y-89781857D01*
X123000000Y-89854555D01*
X123000000Y-90645366D01*
X122928097Y-90717144D01*
X122825117Y-90965145D01*
X122824883Y-91233677D01*
X122927429Y-91481857D01*
X123117144Y-91671903D01*
X123365145Y-91774883D01*
X123633677Y-91775117D01*
X123881857Y-91672571D01*
X124071903Y-91482856D01*
X124174883Y-91234855D01*
X124175117Y-90966323D01*
X124072571Y-90718143D01*
X124000000Y-90645445D01*
X124000000Y-89854634D01*
X124071903Y-89782856D01*
X124174883Y-89534855D01*
X124175117Y-89266323D01*
X124072571Y-89018143D01*
X123882856Y-88828097D01*
X123634855Y-88725117D01*
X123366323Y-88724883D01*
X123118143Y-88827429D01*
X122928097Y-89017144D01*
X122825117Y-89265145D01*
X122824883Y-89533677D01*
X116450000Y-89533677D01*
X116450000Y-86952991D01*
X118724822Y-86952991D01*
X118880541Y-87329857D01*
X119168626Y-87618446D01*
X119545220Y-87774822D01*
X119952991Y-87775178D01*
X120329857Y-87619459D01*
X120618446Y-87331374D01*
X120774822Y-86954780D01*
X120775178Y-86547009D01*
X120619459Y-86170143D01*
X120331374Y-85881554D01*
X119954780Y-85725178D01*
X119547009Y-85724822D01*
X119170143Y-85880541D01*
X118881554Y-86168626D01*
X118725178Y-86545220D01*
X118724822Y-86952991D01*
X116450000Y-86952991D01*
X116450000Y-82713285D01*
X128009849Y-82713285D01*
X128142779Y-83035000D01*
X128388705Y-83281356D01*
X128710188Y-83414848D01*
X129058285Y-83415151D01*
X129380000Y-83282221D01*
X129626356Y-83036295D01*
X129759848Y-82714812D01*
X129760151Y-82366715D01*
X129627221Y-82045000D01*
X129381295Y-81798644D01*
X129059812Y-81665152D01*
X128711715Y-81664849D01*
X128390000Y-81797779D01*
X128143644Y-82043705D01*
X128010152Y-82365188D01*
X128009849Y-82713285D01*
X116450000Y-82713285D01*
X116450000Y-77233677D01*
X124224883Y-77233677D01*
X124327429Y-77481857D01*
X124517144Y-77671903D01*
X124765145Y-77774883D01*
X124867867Y-77774973D01*
X125200000Y-78107106D01*
X125200000Y-79245366D01*
X125128097Y-79317144D01*
X125025117Y-79565145D01*
X125024883Y-79833677D01*
X125127429Y-80081857D01*
X125317144Y-80271903D01*
X125565145Y-80374883D01*
X125624934Y-80374935D01*
X125624883Y-80433677D01*
X125727429Y-80681857D01*
X125917144Y-80871903D01*
X126165145Y-80974883D01*
X126224934Y-80974935D01*
X126224883Y-81033677D01*
X126327429Y-81281857D01*
X126517144Y-81471903D01*
X126765145Y-81574883D01*
X127033677Y-81575117D01*
X127281857Y-81472571D01*
X127471903Y-81282856D01*
X127574883Y-81034855D01*
X127575117Y-80766323D01*
X127488650Y-80557058D01*
X127500000Y-80500000D01*
X127500000Y-78254214D01*
X127694188Y-78334848D01*
X128042285Y-78335151D01*
X128364000Y-78202221D01*
X128610356Y-77956295D01*
X128743848Y-77634812D01*
X128743849Y-77633285D01*
X129025849Y-77633285D01*
X129158779Y-77955000D01*
X129404705Y-78201356D01*
X129726188Y-78334848D01*
X130074285Y-78335151D01*
X130396000Y-78202221D01*
X130642356Y-77956295D01*
X130775848Y-77634812D01*
X130776151Y-77286715D01*
X130643221Y-76965000D01*
X130397295Y-76718644D01*
X130075812Y-76585152D01*
X129727715Y-76584849D01*
X129406000Y-76717779D01*
X129159644Y-76963705D01*
X129026152Y-77285188D01*
X129025849Y-77633285D01*
X128743849Y-77633285D01*
X128744151Y-77286715D01*
X128611221Y-76965000D01*
X128365295Y-76718644D01*
X128043812Y-76585152D01*
X127695715Y-76584849D01*
X127374000Y-76717779D01*
X127299378Y-76792271D01*
X127275028Y-76767922D01*
X127275117Y-76666323D01*
X127172571Y-76418143D01*
X126982856Y-76228097D01*
X126734855Y-76125117D01*
X126466323Y-76124883D01*
X126218143Y-76227429D01*
X126100048Y-76345319D01*
X126082856Y-76328097D01*
X125834855Y-76225117D01*
X125566323Y-76224883D01*
X125318143Y-76327429D01*
X125165811Y-76479495D01*
X125034855Y-76425117D01*
X124766323Y-76424883D01*
X124518143Y-76527429D01*
X124328097Y-76717144D01*
X124225117Y-76965145D01*
X124224883Y-77233677D01*
X116450000Y-77233677D01*
X116450000Y-67820349D01*
X119471400Y-67820349D01*
X119471400Y-68179651D01*
X119565683Y-68653643D01*
X119834178Y-69055473D01*
X120236008Y-69323968D01*
X120710000Y-69418251D01*
X121183992Y-69323968D01*
X121585822Y-69055473D01*
X121854317Y-68653643D01*
X121948600Y-68179651D01*
X121948600Y-67820349D01*
X122011400Y-67820349D01*
X122011400Y-68179651D01*
X122105683Y-68653643D01*
X122374178Y-69055473D01*
X122776008Y-69323968D01*
X123250000Y-69418251D01*
X123723992Y-69323968D01*
X124125822Y-69055473D01*
X124394317Y-68653643D01*
X124488600Y-68179651D01*
X124488600Y-67820349D01*
X124551400Y-67820349D01*
X124551400Y-68179651D01*
X124645683Y-68653643D01*
X124914178Y-69055473D01*
X125316008Y-69323968D01*
X125790000Y-69418251D01*
X126263992Y-69323968D01*
X126665822Y-69055473D01*
X126934317Y-68653643D01*
X127028600Y-68179651D01*
X127028600Y-67820349D01*
X126934317Y-67346357D01*
X126665822Y-66944527D01*
X126263992Y-66676032D01*
X125790000Y-66581749D01*
X125316008Y-66676032D01*
X124914178Y-66944527D01*
X124645683Y-67346357D01*
X124551400Y-67820349D01*
X124488600Y-67820349D01*
X124394317Y-67346357D01*
X124125822Y-66944527D01*
X123723992Y-66676032D01*
X123250000Y-66581749D01*
X122776008Y-66676032D01*
X122374178Y-66944527D01*
X122105683Y-67346357D01*
X122011400Y-67820349D01*
X121948600Y-67820349D01*
X121854317Y-67346357D01*
X121585822Y-66944527D01*
X121183992Y-66676032D01*
X120710000Y-66581749D01*
X120236008Y-66676032D01*
X119834178Y-66944527D01*
X119565683Y-67346357D01*
X119471400Y-67820349D01*
X116450000Y-67820349D01*
X116450000Y-66450000D01*
X132550000Y-66450000D01*
X132550000Y-68709010D01*
X132550000Y-68709010D01*
G37*
X132550000Y-68709010D02*
X131045495Y-67204505D01*
X130680519Y-66960636D01*
X130250000Y-66875000D01*
X129555436Y-66875000D01*
X129549798Y-66845034D01*
X129467669Y-66717401D01*
X129342354Y-66631777D01*
X129193600Y-66601654D01*
X127466400Y-66601654D01*
X127327434Y-66627802D01*
X127199801Y-66709931D01*
X127114177Y-66835246D01*
X127084054Y-66984000D01*
X127084054Y-69016000D01*
X127110202Y-69154966D01*
X127192331Y-69282599D01*
X127317646Y-69368223D01*
X127466400Y-69398346D01*
X129193600Y-69398346D01*
X129332566Y-69372198D01*
X129460199Y-69290069D01*
X129545823Y-69164754D01*
X129553873Y-69125000D01*
X129784010Y-69125000D01*
X130875000Y-70215990D01*
X130875000Y-86175000D01*
X125621466Y-86175000D01*
X125619459Y-86170143D01*
X125331374Y-85881554D01*
X124954780Y-85725178D01*
X124547009Y-85724822D01*
X124170143Y-85880541D01*
X123881554Y-86168626D01*
X123725178Y-86545220D01*
X123724822Y-86952991D01*
X123880541Y-87329857D01*
X124168626Y-87618446D01*
X124545220Y-87774822D01*
X124952991Y-87775178D01*
X125329857Y-87619459D01*
X125618446Y-87331374D01*
X125621093Y-87325000D01*
X130875000Y-87325000D01*
X130875000Y-100784010D01*
X130034010Y-101625000D01*
X128050000Y-101625000D01*
X127619481Y-101710636D01*
X127254505Y-101954505D01*
X123704505Y-105504505D01*
X123460636Y-105869481D01*
X123375000Y-106300000D01*
X123375000Y-107541524D01*
X123094790Y-107425170D01*
X122706911Y-107424831D01*
X122348429Y-107572954D01*
X122073918Y-107846986D01*
X121925170Y-108205210D01*
X121924831Y-108593089D01*
X122072954Y-108951571D01*
X122346986Y-109226082D01*
X122705210Y-109374830D01*
X123093089Y-109375169D01*
X123422548Y-109239038D01*
X123460636Y-109430519D01*
X123704505Y-109795495D01*
X125467654Y-111558644D01*
X125467654Y-114500000D01*
X125477062Y-114550000D01*
X124035000Y-114550000D01*
X124035000Y-112601250D01*
X123938750Y-112505000D01*
X122655000Y-112505000D01*
X122655000Y-112525000D01*
X122645000Y-112525000D01*
X122645000Y-112505000D01*
X121361250Y-112505000D01*
X121265000Y-112601250D01*
X121265000Y-114550000D01*
X116450000Y-114550000D01*
X116450000Y-110423418D01*
X121265000Y-110423418D01*
X121265000Y-112398750D01*
X121361250Y-112495000D01*
X122645000Y-112495000D01*
X122645000Y-110211250D01*
X122655000Y-110211250D01*
X122655000Y-112495000D01*
X123938750Y-112495000D01*
X124035000Y-112398750D01*
X124035000Y-110423418D01*
X123976387Y-110281915D01*
X123868085Y-110173613D01*
X123726581Y-110115000D01*
X122751250Y-110115000D01*
X122655000Y-110211250D01*
X122645000Y-110211250D01*
X122548750Y-110115000D01*
X121573419Y-110115000D01*
X121431915Y-110173613D01*
X121323613Y-110281915D01*
X121265000Y-110423418D01*
X116450000Y-110423418D01*
X116450000Y-108593089D01*
X116924831Y-108593089D01*
X117072954Y-108951571D01*
X117346986Y-109226082D01*
X117705210Y-109374830D01*
X118093089Y-109375169D01*
X118451571Y-109227046D01*
X118726082Y-108953014D01*
X118874830Y-108594790D01*
X118875169Y-108206911D01*
X118727046Y-107848429D01*
X118453014Y-107573918D01*
X118094790Y-107425170D01*
X117706911Y-107424831D01*
X117348429Y-107572954D01*
X117073918Y-107846986D01*
X116925170Y-108205210D01*
X116924831Y-108593089D01*
X116450000Y-108593089D01*
X116450000Y-106532697D01*
X118224796Y-106532697D01*
X118403302Y-106964715D01*
X118733547Y-107295536D01*
X119165253Y-107474796D01*
X119632697Y-107475204D01*
X120064715Y-107296698D01*
X120395536Y-106966453D01*
X120399789Y-106956212D01*
X120403302Y-106964715D01*
X120733547Y-107295536D01*
X121165253Y-107474796D01*
X121632697Y-107475204D01*
X122064715Y-107296698D01*
X122395536Y-106966453D01*
X122574796Y-106534747D01*
X122575204Y-106067303D01*
X122396698Y-105635285D01*
X122066453Y-105304464D01*
X121634747Y-105125204D01*
X121167303Y-105124796D01*
X120735285Y-105303302D01*
X120404464Y-105633547D01*
X120400211Y-105643788D01*
X120396698Y-105635285D01*
X120066453Y-105304464D01*
X119634747Y-105125204D01*
X119167303Y-105124796D01*
X118735285Y-105303302D01*
X118404464Y-105633547D01*
X118225204Y-106065253D01*
X118224796Y-106532697D01*
X116450000Y-106532697D01*
X116450000Y-89533677D01*
X122824883Y-89533677D01*
X122927429Y-89781857D01*
X123000000Y-89854555D01*
X123000000Y-90645366D01*
X122928097Y-90717144D01*
X122825117Y-90965145D01*
X122824883Y-91233677D01*
X122927429Y-91481857D01*
X123117144Y-91671903D01*
X123365145Y-91774883D01*
X123633677Y-91775117D01*
X123881857Y-91672571D01*
X124071903Y-91482856D01*
X124174883Y-91234855D01*
X124175117Y-90966323D01*
X124072571Y-90718143D01*
X124000000Y-90645445D01*
X124000000Y-89854634D01*
X124071903Y-89782856D01*
X124174883Y-89534855D01*
X124175117Y-89266323D01*
X124072571Y-89018143D01*
X123882856Y-88828097D01*
X123634855Y-88725117D01*
X123366323Y-88724883D01*
X123118143Y-88827429D01*
X122928097Y-89017144D01*
X122825117Y-89265145D01*
X122824883Y-89533677D01*
X116450000Y-89533677D01*
X116450000Y-86952991D01*
X118724822Y-86952991D01*
X118880541Y-87329857D01*
X119168626Y-87618446D01*
X119545220Y-87774822D01*
X119952991Y-87775178D01*
X120329857Y-87619459D01*
X120618446Y-87331374D01*
X120774822Y-86954780D01*
X120775178Y-86547009D01*
X120619459Y-86170143D01*
X120331374Y-85881554D01*
X119954780Y-85725178D01*
X119547009Y-85724822D01*
X119170143Y-85880541D01*
X118881554Y-86168626D01*
X118725178Y-86545220D01*
X118724822Y-86952991D01*
X116450000Y-86952991D01*
X116450000Y-82713285D01*
X128009849Y-82713285D01*
X128142779Y-83035000D01*
X128388705Y-83281356D01*
X128710188Y-83414848D01*
X129058285Y-83415151D01*
X129380000Y-83282221D01*
X129626356Y-83036295D01*
X129759848Y-82714812D01*
X129760151Y-82366715D01*
X129627221Y-82045000D01*
X129381295Y-81798644D01*
X129059812Y-81665152D01*
X128711715Y-81664849D01*
X128390000Y-81797779D01*
X128143644Y-82043705D01*
X128010152Y-82365188D01*
X128009849Y-82713285D01*
X116450000Y-82713285D01*
X116450000Y-77233677D01*
X124224883Y-77233677D01*
X124327429Y-77481857D01*
X124517144Y-77671903D01*
X124765145Y-77774883D01*
X124867867Y-77774973D01*
X125200000Y-78107106D01*
X125200000Y-79245366D01*
X125128097Y-79317144D01*
X125025117Y-79565145D01*
X125024883Y-79833677D01*
X125127429Y-80081857D01*
X125317144Y-80271903D01*
X125565145Y-80374883D01*
X125624934Y-80374935D01*
X125624883Y-80433677D01*
X125727429Y-80681857D01*
X125917144Y-80871903D01*
X126165145Y-80974883D01*
X126224934Y-80974935D01*
X126224883Y-81033677D01*
X126327429Y-81281857D01*
X126517144Y-81471903D01*
X126765145Y-81574883D01*
X127033677Y-81575117D01*
X127281857Y-81472571D01*
X127471903Y-81282856D01*
X127574883Y-81034855D01*
X127575117Y-80766323D01*
X127488650Y-80557058D01*
X127500000Y-80500000D01*
X127500000Y-78254214D01*
X127694188Y-78334848D01*
X128042285Y-78335151D01*
X128364000Y-78202221D01*
X128610356Y-77956295D01*
X128743848Y-77634812D01*
X128743849Y-77633285D01*
X129025849Y-77633285D01*
X129158779Y-77955000D01*
X129404705Y-78201356D01*
X129726188Y-78334848D01*
X130074285Y-78335151D01*
X130396000Y-78202221D01*
X130642356Y-77956295D01*
X130775848Y-77634812D01*
X130776151Y-77286715D01*
X130643221Y-76965000D01*
X130397295Y-76718644D01*
X130075812Y-76585152D01*
X129727715Y-76584849D01*
X129406000Y-76717779D01*
X129159644Y-76963705D01*
X129026152Y-77285188D01*
X129025849Y-77633285D01*
X128743849Y-77633285D01*
X128744151Y-77286715D01*
X128611221Y-76965000D01*
X128365295Y-76718644D01*
X128043812Y-76585152D01*
X127695715Y-76584849D01*
X127374000Y-76717779D01*
X127299378Y-76792271D01*
X127275028Y-76767922D01*
X127275117Y-76666323D01*
X127172571Y-76418143D01*
X126982856Y-76228097D01*
X126734855Y-76125117D01*
X126466323Y-76124883D01*
X126218143Y-76227429D01*
X126100048Y-76345319D01*
X126082856Y-76328097D01*
X125834855Y-76225117D01*
X125566323Y-76224883D01*
X125318143Y-76327429D01*
X125165811Y-76479495D01*
X125034855Y-76425117D01*
X124766323Y-76424883D01*
X124518143Y-76527429D01*
X124328097Y-76717144D01*
X124225117Y-76965145D01*
X124224883Y-77233677D01*
X116450000Y-77233677D01*
X116450000Y-67820349D01*
X119471400Y-67820349D01*
X119471400Y-68179651D01*
X119565683Y-68653643D01*
X119834178Y-69055473D01*
X120236008Y-69323968D01*
X120710000Y-69418251D01*
X121183992Y-69323968D01*
X121585822Y-69055473D01*
X121854317Y-68653643D01*
X121948600Y-68179651D01*
X121948600Y-67820349D01*
X122011400Y-67820349D01*
X122011400Y-68179651D01*
X122105683Y-68653643D01*
X122374178Y-69055473D01*
X122776008Y-69323968D01*
X123250000Y-69418251D01*
X123723992Y-69323968D01*
X124125822Y-69055473D01*
X124394317Y-68653643D01*
X124488600Y-68179651D01*
X124488600Y-67820349D01*
X124551400Y-67820349D01*
X124551400Y-68179651D01*
X124645683Y-68653643D01*
X124914178Y-69055473D01*
X125316008Y-69323968D01*
X125790000Y-69418251D01*
X126263992Y-69323968D01*
X126665822Y-69055473D01*
X126934317Y-68653643D01*
X127028600Y-68179651D01*
X127028600Y-67820349D01*
X126934317Y-67346357D01*
X126665822Y-66944527D01*
X126263992Y-66676032D01*
X125790000Y-66581749D01*
X125316008Y-66676032D01*
X124914178Y-66944527D01*
X124645683Y-67346357D01*
X124551400Y-67820349D01*
X124488600Y-67820349D01*
X124394317Y-67346357D01*
X124125822Y-66944527D01*
X123723992Y-66676032D01*
X123250000Y-66581749D01*
X122776008Y-66676032D01*
X122374178Y-66944527D01*
X122105683Y-67346357D01*
X122011400Y-67820349D01*
X121948600Y-67820349D01*
X121854317Y-67346357D01*
X121585822Y-66944527D01*
X121183992Y-66676032D01*
X120710000Y-66581749D01*
X120236008Y-66676032D01*
X119834178Y-66944527D01*
X119565683Y-67346357D01*
X119471400Y-67820349D01*
X116450000Y-67820349D01*
X116450000Y-66450000D01*
X132550000Y-66450000D01*
X132550000Y-68709010D01*
M02*
