%FSLAX46Y46*%
G04 Gerber Fmt 4.6, Leading zero omitted, Abs format (unit mm)*
G04 Created by KiCad (PCBNEW (2014-jan-25)-product) date Mon 14 Jul 2014 13:54:19 BST*
%MOMM*%
G01*
G04 APERTURE LIST*
%ADD10C,0.100000*%
%ADD11C,0.750000*%
%ADD12C,0.300000*%
%ADD13C,0.381000*%
%ADD14C,0.203200*%
%ADD15C,0.076200*%
%ADD16C,0.254000*%
%ADD17C,0.152400*%
%ADD18C,0.304800*%
%ADD19C,0.150000*%
%ADD20C,0.285750*%
%ADD21C,0.088900*%
%ADD22R,1.397000X1.397000*%
%ADD23C,1.397000*%
%ADD24C,1.778000*%
%ADD25R,1.778000X1.778000*%
%ADD26C,1.676400*%
%ADD27R,5.000000X7.000000*%
%ADD28O,5.000000X7.000000*%
%ADD29C,5.000000*%
%ADD30R,3.000000X3.000000*%
%ADD31C,3.000000*%
G04 APERTURE END LIST*
D10*
D11*
X128865000Y-37350334D02*
X129103095Y-37017000D01*
X129103095Y-36517000D01*
X128865000Y-36017000D01*
X128388810Y-35683667D01*
X127912619Y-35517000D01*
X126960238Y-35350334D01*
X126245952Y-35350334D01*
X125293571Y-35517000D01*
X124817381Y-35683667D01*
X124341190Y-36017000D01*
X124103095Y-36517000D01*
X124103095Y-36850334D01*
X124341190Y-37350334D01*
X124579286Y-37517000D01*
X126245952Y-37517000D01*
X126245952Y-36850334D01*
X124103095Y-41017000D02*
X126484048Y-39850334D01*
X124103095Y-39017000D02*
X129103095Y-39017000D01*
X129103095Y-40350334D01*
X128865000Y-40683667D01*
X128626905Y-40850334D01*
X128150714Y-41017000D01*
X127436429Y-41017000D01*
X126960238Y-40850334D01*
X126722143Y-40683667D01*
X126484048Y-40350334D01*
X126484048Y-39017000D01*
X124103095Y-42517000D02*
X129103095Y-42517000D01*
X124103095Y-44183667D02*
X129103095Y-44183667D01*
X129103095Y-45017001D01*
X128865000Y-45517001D01*
X128388810Y-45850334D01*
X127912619Y-46017001D01*
X126960238Y-46183667D01*
X126245952Y-46183667D01*
X125293571Y-46017001D01*
X124817381Y-45850334D01*
X124341190Y-45517001D01*
X124103095Y-45017001D01*
X124103095Y-44183667D01*
D12*
X163838001Y-111192571D02*
X164838001Y-111192571D01*
X164195144Y-112692571D01*
X168433715Y-105096571D02*
X168148001Y-105096571D01*
X168005144Y-105168000D01*
X167933715Y-105239429D01*
X167790858Y-105453714D01*
X167719429Y-105739429D01*
X167719429Y-106310857D01*
X167790858Y-106453714D01*
X167862286Y-106525143D01*
X168005144Y-106596571D01*
X168290858Y-106596571D01*
X168433715Y-106525143D01*
X168505144Y-106453714D01*
X168576572Y-106310857D01*
X168576572Y-105953714D01*
X168505144Y-105810857D01*
X168433715Y-105739429D01*
X168290858Y-105668000D01*
X168005144Y-105668000D01*
X167862286Y-105739429D01*
X167790858Y-105810857D01*
X167719429Y-105953714D01*
X168505144Y-90618571D02*
X167790858Y-90618571D01*
X167719429Y-91332857D01*
X167790858Y-91261429D01*
X167933715Y-91190000D01*
X168290858Y-91190000D01*
X168433715Y-91261429D01*
X168505144Y-91332857D01*
X168576572Y-91475714D01*
X168576572Y-91832857D01*
X168505144Y-91975714D01*
X168433715Y-92047143D01*
X168290858Y-92118571D01*
X167933715Y-92118571D01*
X167790858Y-92047143D01*
X167719429Y-91975714D01*
X168433715Y-76386571D02*
X168433715Y-77386571D01*
X168076572Y-75815143D02*
X167719429Y-76886571D01*
X168648001Y-76886571D01*
X167902001Y-61408571D02*
X168830572Y-61408571D01*
X168330572Y-61980000D01*
X168544858Y-61980000D01*
X168687715Y-62051429D01*
X168759144Y-62122857D01*
X168830572Y-62265714D01*
X168830572Y-62622857D01*
X168759144Y-62765714D01*
X168687715Y-62837143D01*
X168544858Y-62908571D01*
X168116286Y-62908571D01*
X167973429Y-62837143D01*
X167902001Y-62765714D01*
X166036572Y-33444571D02*
X165179429Y-33444571D01*
X165608001Y-33444571D02*
X165608001Y-31944571D01*
X165465144Y-32158857D01*
X165322286Y-32301714D01*
X165179429Y-32373143D01*
X168227429Y-47073429D02*
X168298858Y-47002000D01*
X168441715Y-46930571D01*
X168798858Y-46930571D01*
X168941715Y-47002000D01*
X169013144Y-47073429D01*
X169084572Y-47216286D01*
X169084572Y-47359143D01*
X169013144Y-47573429D01*
X168156001Y-48430571D01*
X169084572Y-48430571D01*
X166902000Y-19498571D02*
X167187714Y-19498571D01*
X167330572Y-19570000D01*
X167473429Y-19712857D01*
X167544857Y-19998571D01*
X167544857Y-20498571D01*
X167473429Y-20784286D01*
X167330572Y-20927143D01*
X167187714Y-20998571D01*
X166902000Y-20998571D01*
X166759143Y-20927143D01*
X166616286Y-20784286D01*
X166544857Y-20498571D01*
X166544857Y-19998571D01*
X166616286Y-19712857D01*
X166759143Y-19570000D01*
X166902000Y-19498571D01*
X168187715Y-19498571D02*
X168187715Y-20712857D01*
X168259143Y-20855714D01*
X168330572Y-20927143D01*
X168473429Y-20998571D01*
X168759143Y-20998571D01*
X168902001Y-20927143D01*
X168973429Y-20855714D01*
X169044858Y-20712857D01*
X169044858Y-19498571D01*
X169544858Y-19498571D02*
X170402001Y-19498571D01*
X169973430Y-20998571D02*
X169973430Y-19498571D01*
X122404286Y-20998571D02*
X122404286Y-19498571D01*
X123118572Y-20998571D02*
X123118572Y-19498571D01*
X123975715Y-20998571D01*
X123975715Y-19498571D01*
D11*
X135707095Y-36350333D02*
X135707095Y-38350333D01*
X130707095Y-37350333D02*
X135707095Y-37350333D01*
X130707095Y-39517000D02*
X135707095Y-39517000D01*
X133326143Y-39517000D02*
X133326143Y-41517000D01*
X130707095Y-41517000D02*
X135707095Y-41517000D01*
X133326143Y-43183667D02*
X133326143Y-44350334D01*
X130707095Y-44850334D02*
X130707095Y-43183667D01*
X135707095Y-43183667D01*
X135707095Y-44850334D01*
D13*
X131445000Y-52070000D02*
X131445000Y-52070000D01*
X131445000Y-52070000D02*
X131445000Y-53340000D01*
X131445000Y-53340000D02*
X128905000Y-53340000D01*
X128905000Y-53340000D02*
X128905000Y-52070000D01*
X132715000Y-52070000D02*
X132715000Y-74930000D01*
X132715000Y-74930000D02*
X127635000Y-74930000D01*
X127635000Y-74930000D02*
X127635000Y-52070000D01*
X127635000Y-52070000D02*
X132715000Y-52070000D01*
X123317000Y-84836000D02*
X122682000Y-84836000D01*
X122682000Y-84836000D02*
X122682000Y-74676000D01*
X122682000Y-74676000D02*
X123317000Y-74676000D01*
X127127000Y-84836000D02*
X123317000Y-84836000D01*
X123317000Y-84836000D02*
X123317000Y-74676000D01*
X123317000Y-74676000D02*
X127127000Y-74676000D01*
X127127000Y-74676000D02*
X127127000Y-84836000D01*
D14*
X164134800Y-36703000D02*
X164134800Y-32893000D01*
D15*
X163340051Y-34798000D02*
G75*
G03X163340051Y-34798000I-1796051J0D01*
G74*
G01*
D16*
X164081997Y-32890332D02*
G75*
G03X164084000Y-36703000I-2537997J-1907668D01*
G74*
G01*
D17*
X161544000Y-33655000D02*
G75*
G03X160401000Y-34798000I0J-1143000D01*
G74*
G01*
X161544000Y-35941000D02*
G75*
G03X162687000Y-34798000I0J1143000D01*
G74*
G01*
X161544000Y-33147000D02*
G75*
G03X159893000Y-34798000I0J-1651000D01*
G74*
G01*
X161544000Y-36449000D02*
G75*
G03X163195000Y-34798000I0J1651000D01*
G74*
G01*
X161544000Y-32639000D02*
G75*
G03X159385000Y-34798000I0J-2159000D01*
G74*
G01*
X161544000Y-36957000D02*
G75*
G03X163703000Y-34798000I0J2159000D01*
G74*
G01*
D14*
X163880800Y-49911000D02*
X163880800Y-46101000D01*
D15*
X163086051Y-48006000D02*
G75*
G03X163086051Y-48006000I-1796051J0D01*
G74*
G01*
D16*
X163827997Y-46098332D02*
G75*
G03X163830000Y-49911000I-2537997J-1907668D01*
G74*
G01*
D17*
X161290000Y-46863000D02*
G75*
G03X160147000Y-48006000I0J-1143000D01*
G74*
G01*
X161290000Y-49149000D02*
G75*
G03X162433000Y-48006000I0J1143000D01*
G74*
G01*
X161290000Y-46355000D02*
G75*
G03X159639000Y-48006000I0J-1651000D01*
G74*
G01*
X161290000Y-49657000D02*
G75*
G03X162941000Y-48006000I0J1651000D01*
G74*
G01*
X161290000Y-45847000D02*
G75*
G03X159131000Y-48006000I0J-2159000D01*
G74*
G01*
X161290000Y-50165000D02*
G75*
G03X163449000Y-48006000I0J2159000D01*
G74*
G01*
D14*
X164642800Y-63881000D02*
X164642800Y-60071000D01*
D15*
X163848051Y-61976000D02*
G75*
G03X163848051Y-61976000I-1796051J0D01*
G74*
G01*
D16*
X164589997Y-60068332D02*
G75*
G03X164592000Y-63881000I-2537997J-1907668D01*
G74*
G01*
D17*
X162052000Y-60833000D02*
G75*
G03X160909000Y-61976000I0J-1143000D01*
G74*
G01*
X162052000Y-63119000D02*
G75*
G03X163195000Y-61976000I0J1143000D01*
G74*
G01*
X162052000Y-60325000D02*
G75*
G03X160401000Y-61976000I0J-1651000D01*
G74*
G01*
X162052000Y-63627000D02*
G75*
G03X163703000Y-61976000I0J1651000D01*
G74*
G01*
X162052000Y-59817000D02*
G75*
G03X159893000Y-61976000I0J-2159000D01*
G74*
G01*
X162052000Y-64135000D02*
G75*
G03X164211000Y-61976000I0J2159000D01*
G74*
G01*
D14*
X164134800Y-77089000D02*
X164134800Y-73279000D01*
D15*
X163340051Y-75184000D02*
G75*
G03X163340051Y-75184000I-1796051J0D01*
G74*
G01*
D16*
X164081997Y-73276332D02*
G75*
G03X164084000Y-77089000I-2537997J-1907668D01*
G74*
G01*
D17*
X161544000Y-74041000D02*
G75*
G03X160401000Y-75184000I0J-1143000D01*
G74*
G01*
X161544000Y-76327000D02*
G75*
G03X162687000Y-75184000I0J1143000D01*
G74*
G01*
X161544000Y-73533000D02*
G75*
G03X159893000Y-75184000I0J-1651000D01*
G74*
G01*
X161544000Y-76835000D02*
G75*
G03X163195000Y-75184000I0J1651000D01*
G74*
G01*
X161544000Y-73025000D02*
G75*
G03X159385000Y-75184000I0J-2159000D01*
G74*
G01*
X161544000Y-77343000D02*
G75*
G03X163703000Y-75184000I0J2159000D01*
G74*
G01*
D14*
X163880800Y-90805000D02*
X163880800Y-86995000D01*
D15*
X163086051Y-88900000D02*
G75*
G03X163086051Y-88900000I-1796051J0D01*
G74*
G01*
D16*
X163827997Y-86992332D02*
G75*
G03X163830000Y-90805000I-2537997J-1907668D01*
G74*
G01*
D17*
X161290000Y-87757000D02*
G75*
G03X160147000Y-88900000I0J-1143000D01*
G74*
G01*
X161290000Y-90043000D02*
G75*
G03X162433000Y-88900000I0J1143000D01*
G74*
G01*
X161290000Y-87249000D02*
G75*
G03X159639000Y-88900000I0J-1651000D01*
G74*
G01*
X161290000Y-90551000D02*
G75*
G03X162941000Y-88900000I0J1651000D01*
G74*
G01*
X161290000Y-86741000D02*
G75*
G03X159131000Y-88900000I0J-2159000D01*
G74*
G01*
X161290000Y-91059000D02*
G75*
G03X163449000Y-88900000I0J2159000D01*
G74*
G01*
D14*
X163880800Y-104267000D02*
X163880800Y-100457000D01*
D15*
X163086051Y-102362000D02*
G75*
G03X163086051Y-102362000I-1796051J0D01*
G74*
G01*
D16*
X163827997Y-100454332D02*
G75*
G03X163830000Y-104267000I-2537997J-1907668D01*
G74*
G01*
D17*
X161290000Y-101219000D02*
G75*
G03X160147000Y-102362000I0J-1143000D01*
G74*
G01*
X161290000Y-103505000D02*
G75*
G03X162433000Y-102362000I0J1143000D01*
G74*
G01*
X161290000Y-100711000D02*
G75*
G03X159639000Y-102362000I0J-1651000D01*
G74*
G01*
X161290000Y-104013000D02*
G75*
G03X162941000Y-102362000I0J1651000D01*
G74*
G01*
X161290000Y-100203000D02*
G75*
G03X159131000Y-102362000I0J-2159000D01*
G74*
G01*
X161290000Y-104521000D02*
G75*
G03X163449000Y-102362000I0J2159000D01*
G74*
G01*
D14*
X163880800Y-116967000D02*
X163880800Y-113157000D01*
D15*
X163086051Y-115062000D02*
G75*
G03X163086051Y-115062000I-1796051J0D01*
G74*
G01*
D16*
X163827997Y-113154332D02*
G75*
G03X163830000Y-116967000I-2537997J-1907668D01*
G74*
G01*
D17*
X161290000Y-113919000D02*
G75*
G03X160147000Y-115062000I0J-1143000D01*
G74*
G01*
X161290000Y-116205000D02*
G75*
G03X162433000Y-115062000I0J1143000D01*
G74*
G01*
X161290000Y-113411000D02*
G75*
G03X159639000Y-115062000I0J-1651000D01*
G74*
G01*
X161290000Y-116713000D02*
G75*
G03X162941000Y-115062000I0J1651000D01*
G74*
G01*
X161290000Y-112903000D02*
G75*
G03X159131000Y-115062000I0J-2159000D01*
G74*
G01*
X161290000Y-117221000D02*
G75*
G03X163449000Y-115062000I0J2159000D01*
G74*
G01*
D18*
X128016000Y-86563200D02*
X128016000Y-81534000D01*
X128016000Y-81534000D02*
X130556000Y-81534000D01*
X130556000Y-81534000D02*
X130556000Y-86614000D01*
X130556000Y-86614000D02*
X128016000Y-86614000D01*
X128651000Y-86614000D02*
X128016000Y-85979000D01*
X130556000Y-75742800D02*
X130556000Y-80772000D01*
X130556000Y-80772000D02*
X128016000Y-80772000D01*
X128016000Y-80772000D02*
X128016000Y-75692000D01*
X128016000Y-75692000D02*
X130556000Y-75692000D01*
X129921000Y-75692000D02*
X130556000Y-76327000D01*
X127685800Y-48260000D02*
X132715000Y-48260000D01*
X132715000Y-48260000D02*
X132715000Y-50800000D01*
X132715000Y-50800000D02*
X127635000Y-50800000D01*
X127635000Y-50800000D02*
X127635000Y-48260000D01*
X127635000Y-48895000D02*
X128270000Y-48260000D01*
D19*
X121920000Y-101600000D02*
X121920000Y-117348000D01*
X121920000Y-117348000D02*
X137160000Y-117348000D01*
X137160000Y-117348000D02*
X137160000Y-101600000D01*
X137160000Y-101600000D02*
X121920000Y-101600000D01*
D18*
X122555000Y-31750000D02*
X122555000Y-31750000D01*
X125095000Y-31750000D02*
X122555000Y-31750000D01*
X122555000Y-31750000D02*
X122555000Y-31750000D01*
X122555000Y-31750000D02*
X122555000Y-21590000D01*
X122555000Y-21590000D02*
X125095000Y-21590000D01*
X125095000Y-21590000D02*
X125095000Y-31750000D01*
X125095000Y-29210000D02*
X122555000Y-29210000D01*
X167640000Y-31750000D02*
X167640000Y-31750000D01*
X170180000Y-31750000D02*
X167640000Y-31750000D01*
X167640000Y-31750000D02*
X167640000Y-31750000D01*
X167640000Y-31750000D02*
X167640000Y-21590000D01*
X167640000Y-21590000D02*
X170180000Y-21590000D01*
X170180000Y-21590000D02*
X170180000Y-31750000D01*
X170180000Y-29210000D02*
X167640000Y-29210000D01*
D19*
X137574000Y-32162000D02*
X139574000Y-32162000D01*
X139574000Y-32162000D02*
X139574000Y-28162000D01*
X139574000Y-28162000D02*
X155574000Y-28162000D01*
X155574000Y-28162000D02*
X155574000Y-32162000D01*
X155574000Y-32162000D02*
X157574000Y-32162000D01*
X147574000Y-22162000D02*
X137574000Y-22162000D01*
X137574000Y-22162000D02*
X137574000Y-32162000D01*
X157574000Y-32162000D02*
X157574000Y-22162000D01*
X157574000Y-22162000D02*
X147574000Y-22162000D01*
D13*
X142494000Y-24257000D02*
X142494000Y-23622000D01*
X142494000Y-23622000D02*
X152654000Y-23622000D01*
X152654000Y-23622000D02*
X152654000Y-24257000D01*
X142494000Y-28067000D02*
X142494000Y-24257000D01*
X142494000Y-24257000D02*
X152654000Y-24257000D01*
X152654000Y-24257000D02*
X152654000Y-28067000D01*
X152654000Y-28067000D02*
X142494000Y-28067000D01*
D19*
X137574000Y-46132000D02*
X139574000Y-46132000D01*
X139574000Y-46132000D02*
X139574000Y-42132000D01*
X139574000Y-42132000D02*
X155574000Y-42132000D01*
X155574000Y-42132000D02*
X155574000Y-46132000D01*
X155574000Y-46132000D02*
X157574000Y-46132000D01*
X147574000Y-36132000D02*
X137574000Y-36132000D01*
X137574000Y-36132000D02*
X137574000Y-46132000D01*
X157574000Y-46132000D02*
X157574000Y-36132000D01*
X157574000Y-36132000D02*
X147574000Y-36132000D01*
D13*
X142494000Y-38227000D02*
X142494000Y-37592000D01*
X142494000Y-37592000D02*
X152654000Y-37592000D01*
X152654000Y-37592000D02*
X152654000Y-38227000D01*
X142494000Y-42037000D02*
X142494000Y-38227000D01*
X142494000Y-38227000D02*
X152654000Y-38227000D01*
X152654000Y-38227000D02*
X152654000Y-42037000D01*
X152654000Y-42037000D02*
X142494000Y-42037000D01*
D19*
X137574000Y-60102000D02*
X139574000Y-60102000D01*
X139574000Y-60102000D02*
X139574000Y-56102000D01*
X139574000Y-56102000D02*
X155574000Y-56102000D01*
X155574000Y-56102000D02*
X155574000Y-60102000D01*
X155574000Y-60102000D02*
X157574000Y-60102000D01*
X147574000Y-50102000D02*
X137574000Y-50102000D01*
X137574000Y-50102000D02*
X137574000Y-60102000D01*
X157574000Y-60102000D02*
X157574000Y-50102000D01*
X157574000Y-50102000D02*
X147574000Y-50102000D01*
D13*
X142494000Y-52197000D02*
X142494000Y-51562000D01*
X142494000Y-51562000D02*
X152654000Y-51562000D01*
X152654000Y-51562000D02*
X152654000Y-52197000D01*
X142494000Y-56007000D02*
X142494000Y-52197000D01*
X142494000Y-52197000D02*
X152654000Y-52197000D01*
X152654000Y-52197000D02*
X152654000Y-56007000D01*
X152654000Y-56007000D02*
X142494000Y-56007000D01*
D19*
X137574000Y-74072000D02*
X139574000Y-74072000D01*
X139574000Y-74072000D02*
X139574000Y-70072000D01*
X139574000Y-70072000D02*
X155574000Y-70072000D01*
X155574000Y-70072000D02*
X155574000Y-74072000D01*
X155574000Y-74072000D02*
X157574000Y-74072000D01*
X147574000Y-64072000D02*
X137574000Y-64072000D01*
X137574000Y-64072000D02*
X137574000Y-74072000D01*
X157574000Y-74072000D02*
X157574000Y-64072000D01*
X157574000Y-64072000D02*
X147574000Y-64072000D01*
D13*
X142494000Y-66167000D02*
X142494000Y-65532000D01*
X142494000Y-65532000D02*
X152654000Y-65532000D01*
X152654000Y-65532000D02*
X152654000Y-66167000D01*
X142494000Y-69977000D02*
X142494000Y-66167000D01*
X142494000Y-66167000D02*
X152654000Y-66167000D01*
X152654000Y-66167000D02*
X152654000Y-69977000D01*
X152654000Y-69977000D02*
X142494000Y-69977000D01*
D19*
X137574000Y-88042000D02*
X139574000Y-88042000D01*
X139574000Y-88042000D02*
X139574000Y-84042000D01*
X139574000Y-84042000D02*
X155574000Y-84042000D01*
X155574000Y-84042000D02*
X155574000Y-88042000D01*
X155574000Y-88042000D02*
X157574000Y-88042000D01*
X147574000Y-78042000D02*
X137574000Y-78042000D01*
X137574000Y-78042000D02*
X137574000Y-88042000D01*
X157574000Y-88042000D02*
X157574000Y-78042000D01*
X157574000Y-78042000D02*
X147574000Y-78042000D01*
D13*
X142494000Y-80137000D02*
X142494000Y-79502000D01*
X142494000Y-79502000D02*
X152654000Y-79502000D01*
X152654000Y-79502000D02*
X152654000Y-80137000D01*
X142494000Y-83947000D02*
X142494000Y-80137000D01*
X142494000Y-80137000D02*
X152654000Y-80137000D01*
X152654000Y-80137000D02*
X152654000Y-83947000D01*
X152654000Y-83947000D02*
X142494000Y-83947000D01*
D19*
X137574000Y-102012000D02*
X139574000Y-102012000D01*
X139574000Y-102012000D02*
X139574000Y-98012000D01*
X139574000Y-98012000D02*
X155574000Y-98012000D01*
X155574000Y-98012000D02*
X155574000Y-102012000D01*
X155574000Y-102012000D02*
X157574000Y-102012000D01*
X147574000Y-92012000D02*
X137574000Y-92012000D01*
X137574000Y-92012000D02*
X137574000Y-102012000D01*
X157574000Y-102012000D02*
X157574000Y-92012000D01*
X157574000Y-92012000D02*
X147574000Y-92012000D01*
D13*
X142494000Y-94107000D02*
X142494000Y-93472000D01*
X142494000Y-93472000D02*
X152654000Y-93472000D01*
X152654000Y-93472000D02*
X152654000Y-94107000D01*
X142494000Y-97917000D02*
X142494000Y-94107000D01*
X142494000Y-94107000D02*
X152654000Y-94107000D01*
X152654000Y-94107000D02*
X152654000Y-97917000D01*
X152654000Y-97917000D02*
X142494000Y-97917000D01*
D19*
X137574000Y-115474000D02*
X139574000Y-115474000D01*
X139574000Y-115474000D02*
X139574000Y-111474000D01*
X139574000Y-111474000D02*
X155574000Y-111474000D01*
X155574000Y-111474000D02*
X155574000Y-115474000D01*
X155574000Y-115474000D02*
X157574000Y-115474000D01*
X147574000Y-105474000D02*
X137574000Y-105474000D01*
X137574000Y-105474000D02*
X137574000Y-115474000D01*
X157574000Y-115474000D02*
X157574000Y-105474000D01*
X157574000Y-105474000D02*
X147574000Y-105474000D01*
D13*
X142494000Y-107569000D02*
X142494000Y-106934000D01*
X142494000Y-106934000D02*
X152654000Y-106934000D01*
X152654000Y-106934000D02*
X152654000Y-107569000D01*
X142494000Y-111379000D02*
X142494000Y-107569000D01*
X142494000Y-107569000D02*
X152654000Y-107569000D01*
X152654000Y-107569000D02*
X152654000Y-111379000D01*
X152654000Y-111379000D02*
X142494000Y-111379000D01*
D14*
X143256000Y-30480000D02*
X143764000Y-30480000D01*
X150876000Y-30480000D02*
X150368000Y-30480000D01*
X150368000Y-30480000D02*
X150368000Y-29464000D01*
X150368000Y-29464000D02*
X143764000Y-29464000D01*
X143764000Y-29464000D02*
X143764000Y-31496000D01*
X143764000Y-31496000D02*
X150368000Y-31496000D01*
X150368000Y-31496000D02*
X150368000Y-30480000D01*
X143764000Y-29972000D02*
X144272000Y-29464000D01*
X144018000Y-34036000D02*
X143510000Y-34036000D01*
X136398000Y-34036000D02*
X136906000Y-34036000D01*
X136906000Y-34036000D02*
X136906000Y-35052000D01*
X136906000Y-35052000D02*
X143510000Y-35052000D01*
X143510000Y-35052000D02*
X143510000Y-33020000D01*
X143510000Y-33020000D02*
X136906000Y-33020000D01*
X136906000Y-33020000D02*
X136906000Y-34036000D01*
X143510000Y-34544000D02*
X143002000Y-35052000D01*
X144780000Y-44450000D02*
X145288000Y-44450000D01*
X152400000Y-44450000D02*
X151892000Y-44450000D01*
X151892000Y-44450000D02*
X151892000Y-43434000D01*
X151892000Y-43434000D02*
X145288000Y-43434000D01*
X145288000Y-43434000D02*
X145288000Y-45466000D01*
X145288000Y-45466000D02*
X151892000Y-45466000D01*
X151892000Y-45466000D02*
X151892000Y-44450000D01*
X145288000Y-43942000D02*
X145796000Y-43434000D01*
X144526000Y-48006000D02*
X144018000Y-48006000D01*
X136906000Y-48006000D02*
X137414000Y-48006000D01*
X137414000Y-48006000D02*
X137414000Y-49022000D01*
X137414000Y-49022000D02*
X144018000Y-49022000D01*
X144018000Y-49022000D02*
X144018000Y-46990000D01*
X144018000Y-46990000D02*
X137414000Y-46990000D01*
X137414000Y-46990000D02*
X137414000Y-48006000D01*
X144018000Y-48514000D02*
X143510000Y-49022000D01*
X145034000Y-58547000D02*
X145542000Y-58547000D01*
X152654000Y-58547000D02*
X152146000Y-58547000D01*
X152146000Y-58547000D02*
X152146000Y-57531000D01*
X152146000Y-57531000D02*
X145542000Y-57531000D01*
X145542000Y-57531000D02*
X145542000Y-59563000D01*
X145542000Y-59563000D02*
X152146000Y-59563000D01*
X152146000Y-59563000D02*
X152146000Y-58547000D01*
X145542000Y-58039000D02*
X146050000Y-57531000D01*
X146304000Y-61976000D02*
X145796000Y-61976000D01*
X138684000Y-61976000D02*
X139192000Y-61976000D01*
X139192000Y-61976000D02*
X139192000Y-62992000D01*
X139192000Y-62992000D02*
X145796000Y-62992000D01*
X145796000Y-62992000D02*
X145796000Y-60960000D01*
X145796000Y-60960000D02*
X139192000Y-60960000D01*
X139192000Y-60960000D02*
X139192000Y-61976000D01*
X145796000Y-62484000D02*
X145288000Y-62992000D01*
X145034000Y-72517000D02*
X145542000Y-72517000D01*
X152654000Y-72517000D02*
X152146000Y-72517000D01*
X152146000Y-72517000D02*
X152146000Y-71501000D01*
X152146000Y-71501000D02*
X145542000Y-71501000D01*
X145542000Y-71501000D02*
X145542000Y-73533000D01*
X145542000Y-73533000D02*
X152146000Y-73533000D01*
X152146000Y-73533000D02*
X152146000Y-72517000D01*
X145542000Y-72009000D02*
X146050000Y-71501000D01*
X145542000Y-75946000D02*
X145034000Y-75946000D01*
X137922000Y-75946000D02*
X138430000Y-75946000D01*
X138430000Y-75946000D02*
X138430000Y-76962000D01*
X138430000Y-76962000D02*
X145034000Y-76962000D01*
X145034000Y-76962000D02*
X145034000Y-74930000D01*
X145034000Y-74930000D02*
X138430000Y-74930000D01*
X138430000Y-74930000D02*
X138430000Y-75946000D01*
X145034000Y-76454000D02*
X144526000Y-76962000D01*
X145034000Y-100457000D02*
X145542000Y-100457000D01*
X152654000Y-100457000D02*
X152146000Y-100457000D01*
X152146000Y-100457000D02*
X152146000Y-99441000D01*
X152146000Y-99441000D02*
X145542000Y-99441000D01*
X145542000Y-99441000D02*
X145542000Y-101473000D01*
X145542000Y-101473000D02*
X152146000Y-101473000D01*
X152146000Y-101473000D02*
X152146000Y-100457000D01*
X145542000Y-99949000D02*
X146050000Y-99441000D01*
X146685000Y-103505000D02*
X146177000Y-103505000D01*
X139065000Y-103505000D02*
X139573000Y-103505000D01*
X139573000Y-103505000D02*
X139573000Y-104521000D01*
X139573000Y-104521000D02*
X146177000Y-104521000D01*
X146177000Y-104521000D02*
X146177000Y-102489000D01*
X146177000Y-102489000D02*
X139573000Y-102489000D01*
X139573000Y-102489000D02*
X139573000Y-103505000D01*
X146177000Y-104013000D02*
X145669000Y-104521000D01*
X145034000Y-113792000D02*
X145542000Y-113792000D01*
X152654000Y-113792000D02*
X152146000Y-113792000D01*
X152146000Y-113792000D02*
X152146000Y-112776000D01*
X152146000Y-112776000D02*
X145542000Y-112776000D01*
X145542000Y-112776000D02*
X145542000Y-114808000D01*
X145542000Y-114808000D02*
X152146000Y-114808000D01*
X152146000Y-114808000D02*
X152146000Y-113792000D01*
X145542000Y-113284000D02*
X146050000Y-112776000D01*
X146304000Y-117094000D02*
X145796000Y-117094000D01*
X138684000Y-117094000D02*
X139192000Y-117094000D01*
X139192000Y-117094000D02*
X139192000Y-118110000D01*
X139192000Y-118110000D02*
X145796000Y-118110000D01*
X145796000Y-118110000D02*
X145796000Y-116078000D01*
X145796000Y-116078000D02*
X139192000Y-116078000D01*
X139192000Y-116078000D02*
X139192000Y-117094000D01*
X145796000Y-117602000D02*
X145288000Y-118110000D01*
X144145000Y-86360000D02*
X144653000Y-86360000D01*
X151765000Y-86360000D02*
X151257000Y-86360000D01*
X151257000Y-86360000D02*
X151257000Y-85344000D01*
X151257000Y-85344000D02*
X144653000Y-85344000D01*
X144653000Y-85344000D02*
X144653000Y-87376000D01*
X144653000Y-87376000D02*
X151257000Y-87376000D01*
X151257000Y-87376000D02*
X151257000Y-86360000D01*
X144653000Y-85852000D02*
X145161000Y-85344000D01*
X145288000Y-89916000D02*
X144780000Y-89916000D01*
X137668000Y-89916000D02*
X138176000Y-89916000D01*
X138176000Y-89916000D02*
X138176000Y-90932000D01*
X138176000Y-90932000D02*
X144780000Y-90932000D01*
X144780000Y-90932000D02*
X144780000Y-88900000D01*
X144780000Y-88900000D02*
X138176000Y-88900000D01*
X138176000Y-88900000D02*
X138176000Y-89916000D01*
X144780000Y-90424000D02*
X144272000Y-90932000D01*
X155194000Y-34036000D02*
X154686000Y-34036000D01*
X147574000Y-34036000D02*
X148082000Y-34036000D01*
X148082000Y-34036000D02*
X148082000Y-35052000D01*
X148082000Y-35052000D02*
X154686000Y-35052000D01*
X154686000Y-35052000D02*
X154686000Y-33020000D01*
X154686000Y-33020000D02*
X148082000Y-33020000D01*
X148082000Y-33020000D02*
X148082000Y-34036000D01*
X154686000Y-34544000D02*
X154178000Y-35052000D01*
X155702000Y-48006000D02*
X155194000Y-48006000D01*
X148082000Y-48006000D02*
X148590000Y-48006000D01*
X148590000Y-48006000D02*
X148590000Y-49022000D01*
X148590000Y-49022000D02*
X155194000Y-49022000D01*
X155194000Y-49022000D02*
X155194000Y-46990000D01*
X155194000Y-46990000D02*
X148590000Y-46990000D01*
X148590000Y-46990000D02*
X148590000Y-48006000D01*
X155194000Y-48514000D02*
X154686000Y-49022000D01*
X157226000Y-61976000D02*
X156718000Y-61976000D01*
X149606000Y-61976000D02*
X150114000Y-61976000D01*
X150114000Y-61976000D02*
X150114000Y-62992000D01*
X150114000Y-62992000D02*
X156718000Y-62992000D01*
X156718000Y-62992000D02*
X156718000Y-60960000D01*
X156718000Y-60960000D02*
X150114000Y-60960000D01*
X150114000Y-60960000D02*
X150114000Y-61976000D01*
X156718000Y-62484000D02*
X156210000Y-62992000D01*
X156718000Y-75946000D02*
X156210000Y-75946000D01*
X149098000Y-75946000D02*
X149606000Y-75946000D01*
X149606000Y-75946000D02*
X149606000Y-76962000D01*
X149606000Y-76962000D02*
X156210000Y-76962000D01*
X156210000Y-76962000D02*
X156210000Y-74930000D01*
X156210000Y-74930000D02*
X149606000Y-74930000D01*
X149606000Y-74930000D02*
X149606000Y-75946000D01*
X156210000Y-76454000D02*
X155702000Y-76962000D01*
X156464000Y-89916000D02*
X155956000Y-89916000D01*
X148844000Y-89916000D02*
X149352000Y-89916000D01*
X149352000Y-89916000D02*
X149352000Y-90932000D01*
X149352000Y-90932000D02*
X155956000Y-90932000D01*
X155956000Y-90932000D02*
X155956000Y-88900000D01*
X155956000Y-88900000D02*
X149352000Y-88900000D01*
X149352000Y-88900000D02*
X149352000Y-89916000D01*
X155956000Y-90424000D02*
X155448000Y-90932000D01*
X156718000Y-103886000D02*
X156210000Y-103886000D01*
X149098000Y-103886000D02*
X149606000Y-103886000D01*
X149606000Y-103886000D02*
X149606000Y-104902000D01*
X149606000Y-104902000D02*
X156210000Y-104902000D01*
X156210000Y-104902000D02*
X156210000Y-102870000D01*
X156210000Y-102870000D02*
X149606000Y-102870000D01*
X149606000Y-102870000D02*
X149606000Y-103886000D01*
X156210000Y-104394000D02*
X155702000Y-104902000D01*
X156718000Y-117094000D02*
X156210000Y-117094000D01*
X149098000Y-117094000D02*
X149606000Y-117094000D01*
X149606000Y-117094000D02*
X149606000Y-118110000D01*
X149606000Y-118110000D02*
X156210000Y-118110000D01*
X156210000Y-118110000D02*
X156210000Y-116078000D01*
X156210000Y-116078000D02*
X149606000Y-116078000D01*
X149606000Y-116078000D02*
X149606000Y-117094000D01*
X156210000Y-117602000D02*
X155702000Y-118110000D01*
D19*
X160528000Y-21844000D02*
X160528000Y-21082000D01*
X160528000Y-21082000D02*
X164592000Y-21082000D01*
X164592000Y-21082000D02*
X164592000Y-21844000D01*
X159766000Y-21844000D02*
X159766000Y-31496000D01*
X165354000Y-31496000D02*
X165354000Y-21844000D01*
X159766000Y-21844000D02*
X165354000Y-21844000D01*
X159766000Y-31496000D02*
X165354000Y-31496000D01*
X166370000Y-36830000D02*
X166370000Y-36068000D01*
X166370000Y-36068000D02*
X170434000Y-36068000D01*
X170434000Y-36068000D02*
X170434000Y-36830000D01*
X165608000Y-36830000D02*
X165608000Y-46482000D01*
X171196000Y-46482000D02*
X171196000Y-36830000D01*
X165608000Y-36830000D02*
X171196000Y-36830000D01*
X165608000Y-46482000D02*
X171196000Y-46482000D01*
X166243000Y-51054000D02*
X166243000Y-50292000D01*
X166243000Y-50292000D02*
X170307000Y-50292000D01*
X170307000Y-50292000D02*
X170307000Y-51054000D01*
X165481000Y-51054000D02*
X165481000Y-60706000D01*
X171069000Y-60706000D02*
X171069000Y-51054000D01*
X165481000Y-51054000D02*
X171069000Y-51054000D01*
X165481000Y-60706000D02*
X171069000Y-60706000D01*
X166243000Y-65659000D02*
X166243000Y-64897000D01*
X166243000Y-64897000D02*
X170307000Y-64897000D01*
X170307000Y-64897000D02*
X170307000Y-65659000D01*
X165481000Y-65659000D02*
X165481000Y-75311000D01*
X171069000Y-75311000D02*
X171069000Y-65659000D01*
X165481000Y-65659000D02*
X171069000Y-65659000D01*
X165481000Y-75311000D02*
X171069000Y-75311000D01*
X166243000Y-80264000D02*
X166243000Y-79502000D01*
X166243000Y-79502000D02*
X170307000Y-79502000D01*
X170307000Y-79502000D02*
X170307000Y-80264000D01*
X165481000Y-80264000D02*
X165481000Y-89916000D01*
X171069000Y-89916000D02*
X171069000Y-80264000D01*
X165481000Y-80264000D02*
X171069000Y-80264000D01*
X165481000Y-89916000D02*
X171069000Y-89916000D01*
X166243000Y-94869000D02*
X166243000Y-94107000D01*
X166243000Y-94107000D02*
X170307000Y-94107000D01*
X170307000Y-94107000D02*
X170307000Y-94869000D01*
X165481000Y-94869000D02*
X165481000Y-104521000D01*
X171069000Y-104521000D02*
X171069000Y-94869000D01*
X165481000Y-94869000D02*
X171069000Y-94869000D01*
X165481000Y-104521000D02*
X171069000Y-104521000D01*
X166370000Y-108966000D02*
X166370000Y-108204000D01*
X166370000Y-108204000D02*
X170434000Y-108204000D01*
X170434000Y-108204000D02*
X170434000Y-108966000D01*
X165608000Y-108966000D02*
X165608000Y-118618000D01*
X171196000Y-118618000D02*
X171196000Y-108966000D01*
X165608000Y-108966000D02*
X171196000Y-108966000D01*
X165608000Y-118618000D02*
X171196000Y-118618000D01*
D20*
X129467429Y-61830857D02*
X130701143Y-61830857D01*
X130846286Y-61776429D01*
X130918857Y-61722000D01*
X130991429Y-61613143D01*
X130991429Y-61395429D01*
X130918857Y-61286571D01*
X130846286Y-61232143D01*
X130701143Y-61177714D01*
X129467429Y-61177714D01*
X129612571Y-60687857D02*
X129540000Y-60633428D01*
X129467429Y-60524571D01*
X129467429Y-60252428D01*
X129540000Y-60143571D01*
X129612571Y-60089142D01*
X129757714Y-60034714D01*
X129902857Y-60034714D01*
X130120571Y-60089142D01*
X130991429Y-60742285D01*
X130991429Y-60034714D01*
D18*
D14*
X124387429Y-73545095D02*
X125621143Y-73545095D01*
X125766286Y-73496714D01*
X125838857Y-73448333D01*
X125911429Y-73351571D01*
X125911429Y-73158048D01*
X125838857Y-73061286D01*
X125766286Y-73012905D01*
X125621143Y-72964524D01*
X124387429Y-72964524D01*
X125911429Y-71948524D02*
X125911429Y-72529095D01*
X125911429Y-72238809D02*
X124387429Y-72238809D01*
X124605143Y-72335571D01*
X124750286Y-72432333D01*
X124822857Y-72529095D01*
D21*
X164791572Y-35396714D02*
X164791572Y-34634714D01*
X164973000Y-34634714D01*
X165081857Y-34671000D01*
X165154429Y-34743571D01*
X165190714Y-34816143D01*
X165227000Y-34961286D01*
X165227000Y-35070143D01*
X165190714Y-35215286D01*
X165154429Y-35287857D01*
X165081857Y-35360429D01*
X164973000Y-35396714D01*
X164791572Y-35396714D01*
X165952714Y-35396714D02*
X165517286Y-35396714D01*
X165735000Y-35396714D02*
X165735000Y-34634714D01*
X165662429Y-34743571D01*
X165589857Y-34816143D01*
X165517286Y-34852429D01*
X160473572Y-44540714D02*
X160473572Y-43778714D01*
X160655000Y-43778714D01*
X160763857Y-43815000D01*
X160836429Y-43887571D01*
X160872714Y-43960143D01*
X160909000Y-44105286D01*
X160909000Y-44214143D01*
X160872714Y-44359286D01*
X160836429Y-44431857D01*
X160763857Y-44504429D01*
X160655000Y-44540714D01*
X160473572Y-44540714D01*
X161199286Y-43851286D02*
X161235572Y-43815000D01*
X161308143Y-43778714D01*
X161489572Y-43778714D01*
X161562143Y-43815000D01*
X161598429Y-43851286D01*
X161634714Y-43923857D01*
X161634714Y-43996429D01*
X161598429Y-44105286D01*
X161163000Y-44540714D01*
X161634714Y-44540714D01*
X161235572Y-58510714D02*
X161235572Y-57748714D01*
X161417000Y-57748714D01*
X161525857Y-57785000D01*
X161598429Y-57857571D01*
X161634714Y-57930143D01*
X161671000Y-58075286D01*
X161671000Y-58184143D01*
X161634714Y-58329286D01*
X161598429Y-58401857D01*
X161525857Y-58474429D01*
X161417000Y-58510714D01*
X161235572Y-58510714D01*
X161925000Y-57748714D02*
X162396714Y-57748714D01*
X162142714Y-58039000D01*
X162251572Y-58039000D01*
X162324143Y-58075286D01*
X162360429Y-58111571D01*
X162396714Y-58184143D01*
X162396714Y-58365571D01*
X162360429Y-58438143D01*
X162324143Y-58474429D01*
X162251572Y-58510714D01*
X162033857Y-58510714D01*
X161961286Y-58474429D01*
X161925000Y-58438143D01*
X160727572Y-71718714D02*
X160727572Y-70956714D01*
X160909000Y-70956714D01*
X161017857Y-70993000D01*
X161090429Y-71065571D01*
X161126714Y-71138143D01*
X161163000Y-71283286D01*
X161163000Y-71392143D01*
X161126714Y-71537286D01*
X161090429Y-71609857D01*
X161017857Y-71682429D01*
X160909000Y-71718714D01*
X160727572Y-71718714D01*
X161816143Y-71210714D02*
X161816143Y-71718714D01*
X161634714Y-70920429D02*
X161453286Y-71464714D01*
X161925000Y-71464714D01*
X160473572Y-85434714D02*
X160473572Y-84672714D01*
X160655000Y-84672714D01*
X160763857Y-84709000D01*
X160836429Y-84781571D01*
X160872714Y-84854143D01*
X160909000Y-84999286D01*
X160909000Y-85108143D01*
X160872714Y-85253286D01*
X160836429Y-85325857D01*
X160763857Y-85398429D01*
X160655000Y-85434714D01*
X160473572Y-85434714D01*
X161598429Y-84672714D02*
X161235572Y-84672714D01*
X161199286Y-85035571D01*
X161235572Y-84999286D01*
X161308143Y-84963000D01*
X161489572Y-84963000D01*
X161562143Y-84999286D01*
X161598429Y-85035571D01*
X161634714Y-85108143D01*
X161634714Y-85289571D01*
X161598429Y-85362143D01*
X161562143Y-85398429D01*
X161489572Y-85434714D01*
X161308143Y-85434714D01*
X161235572Y-85398429D01*
X161199286Y-85362143D01*
X160473572Y-98896714D02*
X160473572Y-98134714D01*
X160655000Y-98134714D01*
X160763857Y-98171000D01*
X160836429Y-98243571D01*
X160872714Y-98316143D01*
X160909000Y-98461286D01*
X160909000Y-98570143D01*
X160872714Y-98715286D01*
X160836429Y-98787857D01*
X160763857Y-98860429D01*
X160655000Y-98896714D01*
X160473572Y-98896714D01*
X161562143Y-98134714D02*
X161417000Y-98134714D01*
X161344429Y-98171000D01*
X161308143Y-98207286D01*
X161235572Y-98316143D01*
X161199286Y-98461286D01*
X161199286Y-98751571D01*
X161235572Y-98824143D01*
X161271857Y-98860429D01*
X161344429Y-98896714D01*
X161489572Y-98896714D01*
X161562143Y-98860429D01*
X161598429Y-98824143D01*
X161634714Y-98751571D01*
X161634714Y-98570143D01*
X161598429Y-98497571D01*
X161562143Y-98461286D01*
X161489572Y-98425000D01*
X161344429Y-98425000D01*
X161271857Y-98461286D01*
X161235572Y-98497571D01*
X161199286Y-98570143D01*
X160473572Y-111596714D02*
X160473572Y-110834714D01*
X160655000Y-110834714D01*
X160763857Y-110871000D01*
X160836429Y-110943571D01*
X160872714Y-111016143D01*
X160909000Y-111161286D01*
X160909000Y-111270143D01*
X160872714Y-111415286D01*
X160836429Y-111487857D01*
X160763857Y-111560429D01*
X160655000Y-111596714D01*
X160473572Y-111596714D01*
X161163000Y-110834714D02*
X161671000Y-110834714D01*
X161344429Y-111596714D01*
D14*
X129902857Y-88307333D02*
X129951238Y-88355714D01*
X129999619Y-88500857D01*
X129999619Y-88597619D01*
X129951238Y-88742761D01*
X129854476Y-88839523D01*
X129757714Y-88887904D01*
X129564190Y-88936285D01*
X129419048Y-88936285D01*
X129225524Y-88887904D01*
X129128762Y-88839523D01*
X129032000Y-88742761D01*
X128983619Y-88597619D01*
X128983619Y-88500857D01*
X129032000Y-88355714D01*
X129080381Y-88307333D01*
X129999619Y-87339714D02*
X129999619Y-87920285D01*
X129999619Y-87629999D02*
X128983619Y-87629999D01*
X129128762Y-87726761D01*
X129225524Y-87823523D01*
X129273905Y-87920285D01*
X132188857Y-78401333D02*
X132237238Y-78449714D01*
X132285619Y-78594857D01*
X132285619Y-78691619D01*
X132237238Y-78836761D01*
X132140476Y-78933523D01*
X132043714Y-78981904D01*
X131850190Y-79030285D01*
X131705048Y-79030285D01*
X131511524Y-78981904D01*
X131414762Y-78933523D01*
X131318000Y-78836761D01*
X131269619Y-78691619D01*
X131269619Y-78594857D01*
X131318000Y-78449714D01*
X131366381Y-78401333D01*
X131366381Y-78014285D02*
X131318000Y-77965904D01*
X131269619Y-77869142D01*
X131269619Y-77627238D01*
X131318000Y-77530476D01*
X131366381Y-77482095D01*
X131463143Y-77433714D01*
X131559905Y-77433714D01*
X131705048Y-77482095D01*
X132285619Y-78062666D01*
X132285619Y-77433714D01*
X132418667Y-47606857D02*
X132370286Y-47655238D01*
X132225143Y-47703619D01*
X132128381Y-47703619D01*
X131983239Y-47655238D01*
X131886477Y-47558476D01*
X131838096Y-47461714D01*
X131789715Y-47268190D01*
X131789715Y-47123048D01*
X131838096Y-46929524D01*
X131886477Y-46832762D01*
X131983239Y-46736000D01*
X132128381Y-46687619D01*
X132225143Y-46687619D01*
X132370286Y-46736000D01*
X132418667Y-46784381D01*
X132757334Y-46687619D02*
X133386286Y-46687619D01*
X133047620Y-47074667D01*
X133192762Y-47074667D01*
X133289524Y-47123048D01*
X133337905Y-47171429D01*
X133386286Y-47268190D01*
X133386286Y-47510095D01*
X133337905Y-47606857D01*
X133289524Y-47655238D01*
X133192762Y-47703619D01*
X132902477Y-47703619D01*
X132805715Y-47655238D01*
X132757334Y-47606857D01*
D19*
X128651048Y-110307429D02*
X129412953Y-110307429D01*
X129032001Y-110688381D02*
X129032001Y-109926476D01*
X122555048Y-110307429D02*
X123316953Y-110307429D01*
X122936001Y-110688381D02*
X122936001Y-109926476D01*
X128651048Y-102687429D02*
X129412953Y-102687429D01*
X129032001Y-103068381D02*
X129032001Y-102306476D01*
X122555048Y-102687429D02*
X123316953Y-102687429D01*
X122936001Y-103068381D02*
X122936001Y-102306476D01*
D14*
X154208238Y-26869571D02*
X154111476Y-26797000D01*
X154014714Y-26651857D01*
X153869571Y-26434143D01*
X153772810Y-26361571D01*
X153676048Y-26361571D01*
X153724429Y-26724429D02*
X153627667Y-26651857D01*
X153530905Y-26506714D01*
X153482524Y-26216429D01*
X153482524Y-25708429D01*
X153530905Y-25418143D01*
X153627667Y-25273000D01*
X153724429Y-25200429D01*
X153917952Y-25200429D01*
X154014714Y-25273000D01*
X154111476Y-25418143D01*
X154159857Y-25708429D01*
X154159857Y-26216429D01*
X154111476Y-26506714D01*
X154014714Y-26651857D01*
X153917952Y-26724429D01*
X153724429Y-26724429D01*
X155127476Y-26724429D02*
X154546905Y-26724429D01*
X154837191Y-26724429D02*
X154837191Y-25200429D01*
X154740429Y-25418143D01*
X154643667Y-25563286D01*
X154546905Y-25635857D01*
X154208238Y-40839571D02*
X154111476Y-40767000D01*
X154014714Y-40621857D01*
X153869571Y-40404143D01*
X153772810Y-40331571D01*
X153676048Y-40331571D01*
X153724429Y-40694429D02*
X153627667Y-40621857D01*
X153530905Y-40476714D01*
X153482524Y-40186429D01*
X153482524Y-39678429D01*
X153530905Y-39388143D01*
X153627667Y-39243000D01*
X153724429Y-39170429D01*
X153917952Y-39170429D01*
X154014714Y-39243000D01*
X154111476Y-39388143D01*
X154159857Y-39678429D01*
X154159857Y-40186429D01*
X154111476Y-40476714D01*
X154014714Y-40621857D01*
X153917952Y-40694429D01*
X153724429Y-40694429D01*
X154546905Y-39315571D02*
X154595286Y-39243000D01*
X154692048Y-39170429D01*
X154933952Y-39170429D01*
X155030714Y-39243000D01*
X155079095Y-39315571D01*
X155127476Y-39460714D01*
X155127476Y-39605857D01*
X155079095Y-39823571D01*
X154498524Y-40694429D01*
X155127476Y-40694429D01*
X154208238Y-54809571D02*
X154111476Y-54737000D01*
X154014714Y-54591857D01*
X153869571Y-54374143D01*
X153772810Y-54301571D01*
X153676048Y-54301571D01*
X153724429Y-54664429D02*
X153627667Y-54591857D01*
X153530905Y-54446714D01*
X153482524Y-54156429D01*
X153482524Y-53648429D01*
X153530905Y-53358143D01*
X153627667Y-53213000D01*
X153724429Y-53140429D01*
X153917952Y-53140429D01*
X154014714Y-53213000D01*
X154111476Y-53358143D01*
X154159857Y-53648429D01*
X154159857Y-54156429D01*
X154111476Y-54446714D01*
X154014714Y-54591857D01*
X153917952Y-54664429D01*
X153724429Y-54664429D01*
X154498524Y-53140429D02*
X155127476Y-53140429D01*
X154788810Y-53721000D01*
X154933952Y-53721000D01*
X155030714Y-53793571D01*
X155079095Y-53866143D01*
X155127476Y-54011286D01*
X155127476Y-54374143D01*
X155079095Y-54519286D01*
X155030714Y-54591857D01*
X154933952Y-54664429D01*
X154643667Y-54664429D01*
X154546905Y-54591857D01*
X154498524Y-54519286D01*
X154208238Y-68779571D02*
X154111476Y-68707000D01*
X154014714Y-68561857D01*
X153869571Y-68344143D01*
X153772810Y-68271571D01*
X153676048Y-68271571D01*
X153724429Y-68634429D02*
X153627667Y-68561857D01*
X153530905Y-68416714D01*
X153482524Y-68126429D01*
X153482524Y-67618429D01*
X153530905Y-67328143D01*
X153627667Y-67183000D01*
X153724429Y-67110429D01*
X153917952Y-67110429D01*
X154014714Y-67183000D01*
X154111476Y-67328143D01*
X154159857Y-67618429D01*
X154159857Y-68126429D01*
X154111476Y-68416714D01*
X154014714Y-68561857D01*
X153917952Y-68634429D01*
X153724429Y-68634429D01*
X155030714Y-67618429D02*
X155030714Y-68634429D01*
X154788810Y-67037857D02*
X154546905Y-68126429D01*
X155175857Y-68126429D01*
X154208238Y-82749571D02*
X154111476Y-82677000D01*
X154014714Y-82531857D01*
X153869571Y-82314143D01*
X153772810Y-82241571D01*
X153676048Y-82241571D01*
X153724429Y-82604429D02*
X153627667Y-82531857D01*
X153530905Y-82386714D01*
X153482524Y-82096429D01*
X153482524Y-81588429D01*
X153530905Y-81298143D01*
X153627667Y-81153000D01*
X153724429Y-81080429D01*
X153917952Y-81080429D01*
X154014714Y-81153000D01*
X154111476Y-81298143D01*
X154159857Y-81588429D01*
X154159857Y-82096429D01*
X154111476Y-82386714D01*
X154014714Y-82531857D01*
X153917952Y-82604429D01*
X153724429Y-82604429D01*
X155079095Y-81080429D02*
X154595286Y-81080429D01*
X154546905Y-81806143D01*
X154595286Y-81733571D01*
X154692048Y-81661000D01*
X154933952Y-81661000D01*
X155030714Y-81733571D01*
X155079095Y-81806143D01*
X155127476Y-81951286D01*
X155127476Y-82314143D01*
X155079095Y-82459286D01*
X155030714Y-82531857D01*
X154933952Y-82604429D01*
X154692048Y-82604429D01*
X154595286Y-82531857D01*
X154546905Y-82459286D01*
X154208238Y-96719571D02*
X154111476Y-96647000D01*
X154014714Y-96501857D01*
X153869571Y-96284143D01*
X153772810Y-96211571D01*
X153676048Y-96211571D01*
X153724429Y-96574429D02*
X153627667Y-96501857D01*
X153530905Y-96356714D01*
X153482524Y-96066429D01*
X153482524Y-95558429D01*
X153530905Y-95268143D01*
X153627667Y-95123000D01*
X153724429Y-95050429D01*
X153917952Y-95050429D01*
X154014714Y-95123000D01*
X154111476Y-95268143D01*
X154159857Y-95558429D01*
X154159857Y-96066429D01*
X154111476Y-96356714D01*
X154014714Y-96501857D01*
X153917952Y-96574429D01*
X153724429Y-96574429D01*
X155030714Y-95050429D02*
X154837191Y-95050429D01*
X154740429Y-95123000D01*
X154692048Y-95195571D01*
X154595286Y-95413286D01*
X154546905Y-95703571D01*
X154546905Y-96284143D01*
X154595286Y-96429286D01*
X154643667Y-96501857D01*
X154740429Y-96574429D01*
X154933952Y-96574429D01*
X155030714Y-96501857D01*
X155079095Y-96429286D01*
X155127476Y-96284143D01*
X155127476Y-95921286D01*
X155079095Y-95776143D01*
X155030714Y-95703571D01*
X154933952Y-95631000D01*
X154740429Y-95631000D01*
X154643667Y-95703571D01*
X154595286Y-95776143D01*
X154546905Y-95921286D01*
X154208238Y-109546571D02*
X154111476Y-109474000D01*
X154014714Y-109328857D01*
X153869571Y-109111143D01*
X153772810Y-109038571D01*
X153676048Y-109038571D01*
X153724429Y-109401429D02*
X153627667Y-109328857D01*
X153530905Y-109183714D01*
X153482524Y-108893429D01*
X153482524Y-108385429D01*
X153530905Y-108095143D01*
X153627667Y-107950000D01*
X153724429Y-107877429D01*
X153917952Y-107877429D01*
X154014714Y-107950000D01*
X154111476Y-108095143D01*
X154159857Y-108385429D01*
X154159857Y-108893429D01*
X154111476Y-109183714D01*
X154014714Y-109328857D01*
X153917952Y-109401429D01*
X153724429Y-109401429D01*
X154498524Y-107877429D02*
X155175857Y-107877429D01*
X154740429Y-109401429D01*
X146310048Y-31238976D02*
X145584334Y-31238976D01*
X145947191Y-31238976D02*
X145947191Y-29841976D01*
X145826239Y-30041548D01*
X145705286Y-30174595D01*
X145584334Y-30241119D01*
X147096239Y-29841976D02*
X147217191Y-29841976D01*
X147338143Y-29908500D01*
X147398620Y-29975024D01*
X147459096Y-30108071D01*
X147519572Y-30374167D01*
X147519572Y-30706786D01*
X147459096Y-30972881D01*
X147398620Y-31105929D01*
X147338143Y-31172452D01*
X147217191Y-31238976D01*
X147096239Y-31238976D01*
X146975286Y-31172452D01*
X146914810Y-31105929D01*
X146854334Y-30972881D01*
X146793858Y-30706786D01*
X146793858Y-30374167D01*
X146854334Y-30108071D01*
X146914810Y-29975024D01*
X146975286Y-29908500D01*
X147096239Y-29841976D01*
X148063858Y-31238976D02*
X148063858Y-29841976D01*
X148184810Y-30706786D02*
X148547667Y-31238976D01*
X148547667Y-30307643D02*
X148063858Y-30839833D01*
X139361333Y-34540976D02*
X138635619Y-34540976D01*
X138998476Y-34540976D02*
X138998476Y-33143976D01*
X138877524Y-33343548D01*
X138756571Y-33476595D01*
X138635619Y-33543119D01*
X140147524Y-33143976D02*
X140268476Y-33143976D01*
X140389428Y-33210500D01*
X140449905Y-33277024D01*
X140510381Y-33410071D01*
X140570857Y-33676167D01*
X140570857Y-34008786D01*
X140510381Y-34274881D01*
X140449905Y-34407929D01*
X140389428Y-34474452D01*
X140268476Y-34540976D01*
X140147524Y-34540976D01*
X140026571Y-34474452D01*
X139966095Y-34407929D01*
X139905619Y-34274881D01*
X139845143Y-34008786D01*
X139845143Y-33676167D01*
X139905619Y-33410071D01*
X139966095Y-33277024D01*
X140026571Y-33210500D01*
X140147524Y-33143976D01*
X141357048Y-33143976D02*
X141478000Y-33143976D01*
X141598952Y-33210500D01*
X141659429Y-33277024D01*
X141719905Y-33410071D01*
X141780381Y-33676167D01*
X141780381Y-34008786D01*
X141719905Y-34274881D01*
X141659429Y-34407929D01*
X141598952Y-34474452D01*
X141478000Y-34540976D01*
X141357048Y-34540976D01*
X141236095Y-34474452D01*
X141175619Y-34407929D01*
X141115143Y-34274881D01*
X141054667Y-34008786D01*
X141054667Y-33676167D01*
X141115143Y-33410071D01*
X141175619Y-33277024D01*
X141236095Y-33210500D01*
X141357048Y-33143976D01*
X147834048Y-45208976D02*
X147108334Y-45208976D01*
X147471191Y-45208976D02*
X147471191Y-43811976D01*
X147350239Y-44011548D01*
X147229286Y-44144595D01*
X147108334Y-44211119D01*
X148620239Y-43811976D02*
X148741191Y-43811976D01*
X148862143Y-43878500D01*
X148922620Y-43945024D01*
X148983096Y-44078071D01*
X149043572Y-44344167D01*
X149043572Y-44676786D01*
X148983096Y-44942881D01*
X148922620Y-45075929D01*
X148862143Y-45142452D01*
X148741191Y-45208976D01*
X148620239Y-45208976D01*
X148499286Y-45142452D01*
X148438810Y-45075929D01*
X148378334Y-44942881D01*
X148317858Y-44676786D01*
X148317858Y-44344167D01*
X148378334Y-44078071D01*
X148438810Y-43945024D01*
X148499286Y-43878500D01*
X148620239Y-43811976D01*
X149587858Y-45208976D02*
X149587858Y-43811976D01*
X149708810Y-44676786D02*
X150071667Y-45208976D01*
X150071667Y-44277643D02*
X149587858Y-44809833D01*
X139869333Y-48510976D02*
X139143619Y-48510976D01*
X139506476Y-48510976D02*
X139506476Y-47113976D01*
X139385524Y-47313548D01*
X139264571Y-47446595D01*
X139143619Y-47513119D01*
X140655524Y-47113976D02*
X140776476Y-47113976D01*
X140897428Y-47180500D01*
X140957905Y-47247024D01*
X141018381Y-47380071D01*
X141078857Y-47646167D01*
X141078857Y-47978786D01*
X141018381Y-48244881D01*
X140957905Y-48377929D01*
X140897428Y-48444452D01*
X140776476Y-48510976D01*
X140655524Y-48510976D01*
X140534571Y-48444452D01*
X140474095Y-48377929D01*
X140413619Y-48244881D01*
X140353143Y-47978786D01*
X140353143Y-47646167D01*
X140413619Y-47380071D01*
X140474095Y-47247024D01*
X140534571Y-47180500D01*
X140655524Y-47113976D01*
X141865048Y-47113976D02*
X141986000Y-47113976D01*
X142106952Y-47180500D01*
X142167429Y-47247024D01*
X142227905Y-47380071D01*
X142288381Y-47646167D01*
X142288381Y-47978786D01*
X142227905Y-48244881D01*
X142167429Y-48377929D01*
X142106952Y-48444452D01*
X141986000Y-48510976D01*
X141865048Y-48510976D01*
X141744095Y-48444452D01*
X141683619Y-48377929D01*
X141623143Y-48244881D01*
X141562667Y-47978786D01*
X141562667Y-47646167D01*
X141623143Y-47380071D01*
X141683619Y-47247024D01*
X141744095Y-47180500D01*
X141865048Y-47113976D01*
X148088048Y-59305976D02*
X147362334Y-59305976D01*
X147725191Y-59305976D02*
X147725191Y-57908976D01*
X147604239Y-58108548D01*
X147483286Y-58241595D01*
X147362334Y-58308119D01*
X148874239Y-57908976D02*
X148995191Y-57908976D01*
X149116143Y-57975500D01*
X149176620Y-58042024D01*
X149237096Y-58175071D01*
X149297572Y-58441167D01*
X149297572Y-58773786D01*
X149237096Y-59039881D01*
X149176620Y-59172929D01*
X149116143Y-59239452D01*
X148995191Y-59305976D01*
X148874239Y-59305976D01*
X148753286Y-59239452D01*
X148692810Y-59172929D01*
X148632334Y-59039881D01*
X148571858Y-58773786D01*
X148571858Y-58441167D01*
X148632334Y-58175071D01*
X148692810Y-58042024D01*
X148753286Y-57975500D01*
X148874239Y-57908976D01*
X149841858Y-59305976D02*
X149841858Y-57908976D01*
X149962810Y-58773786D02*
X150325667Y-59305976D01*
X150325667Y-58374643D02*
X149841858Y-58906833D01*
X141647333Y-62480976D02*
X140921619Y-62480976D01*
X141284476Y-62480976D02*
X141284476Y-61083976D01*
X141163524Y-61283548D01*
X141042571Y-61416595D01*
X140921619Y-61483119D01*
X142433524Y-61083976D02*
X142554476Y-61083976D01*
X142675428Y-61150500D01*
X142735905Y-61217024D01*
X142796381Y-61350071D01*
X142856857Y-61616167D01*
X142856857Y-61948786D01*
X142796381Y-62214881D01*
X142735905Y-62347929D01*
X142675428Y-62414452D01*
X142554476Y-62480976D01*
X142433524Y-62480976D01*
X142312571Y-62414452D01*
X142252095Y-62347929D01*
X142191619Y-62214881D01*
X142131143Y-61948786D01*
X142131143Y-61616167D01*
X142191619Y-61350071D01*
X142252095Y-61217024D01*
X142312571Y-61150500D01*
X142433524Y-61083976D01*
X143643048Y-61083976D02*
X143764000Y-61083976D01*
X143884952Y-61150500D01*
X143945429Y-61217024D01*
X144005905Y-61350071D01*
X144066381Y-61616167D01*
X144066381Y-61948786D01*
X144005905Y-62214881D01*
X143945429Y-62347929D01*
X143884952Y-62414452D01*
X143764000Y-62480976D01*
X143643048Y-62480976D01*
X143522095Y-62414452D01*
X143461619Y-62347929D01*
X143401143Y-62214881D01*
X143340667Y-61948786D01*
X143340667Y-61616167D01*
X143401143Y-61350071D01*
X143461619Y-61217024D01*
X143522095Y-61150500D01*
X143643048Y-61083976D01*
X148088048Y-73275976D02*
X147362334Y-73275976D01*
X147725191Y-73275976D02*
X147725191Y-71878976D01*
X147604239Y-72078548D01*
X147483286Y-72211595D01*
X147362334Y-72278119D01*
X148874239Y-71878976D02*
X148995191Y-71878976D01*
X149116143Y-71945500D01*
X149176620Y-72012024D01*
X149237096Y-72145071D01*
X149297572Y-72411167D01*
X149297572Y-72743786D01*
X149237096Y-73009881D01*
X149176620Y-73142929D01*
X149116143Y-73209452D01*
X148995191Y-73275976D01*
X148874239Y-73275976D01*
X148753286Y-73209452D01*
X148692810Y-73142929D01*
X148632334Y-73009881D01*
X148571858Y-72743786D01*
X148571858Y-72411167D01*
X148632334Y-72145071D01*
X148692810Y-72012024D01*
X148753286Y-71945500D01*
X148874239Y-71878976D01*
X149841858Y-73275976D02*
X149841858Y-71878976D01*
X149962810Y-72743786D02*
X150325667Y-73275976D01*
X150325667Y-72344643D02*
X149841858Y-72876833D01*
X140885333Y-76450976D02*
X140159619Y-76450976D01*
X140522476Y-76450976D02*
X140522476Y-75053976D01*
X140401524Y-75253548D01*
X140280571Y-75386595D01*
X140159619Y-75453119D01*
X141671524Y-75053976D02*
X141792476Y-75053976D01*
X141913428Y-75120500D01*
X141973905Y-75187024D01*
X142034381Y-75320071D01*
X142094857Y-75586167D01*
X142094857Y-75918786D01*
X142034381Y-76184881D01*
X141973905Y-76317929D01*
X141913428Y-76384452D01*
X141792476Y-76450976D01*
X141671524Y-76450976D01*
X141550571Y-76384452D01*
X141490095Y-76317929D01*
X141429619Y-76184881D01*
X141369143Y-75918786D01*
X141369143Y-75586167D01*
X141429619Y-75320071D01*
X141490095Y-75187024D01*
X141550571Y-75120500D01*
X141671524Y-75053976D01*
X142881048Y-75053976D02*
X143002000Y-75053976D01*
X143122952Y-75120500D01*
X143183429Y-75187024D01*
X143243905Y-75320071D01*
X143304381Y-75586167D01*
X143304381Y-75918786D01*
X143243905Y-76184881D01*
X143183429Y-76317929D01*
X143122952Y-76384452D01*
X143002000Y-76450976D01*
X142881048Y-76450976D01*
X142760095Y-76384452D01*
X142699619Y-76317929D01*
X142639143Y-76184881D01*
X142578667Y-75918786D01*
X142578667Y-75586167D01*
X142639143Y-75320071D01*
X142699619Y-75187024D01*
X142760095Y-75120500D01*
X142881048Y-75053976D01*
X148088048Y-101215976D02*
X147362334Y-101215976D01*
X147725191Y-101215976D02*
X147725191Y-99818976D01*
X147604239Y-100018548D01*
X147483286Y-100151595D01*
X147362334Y-100218119D01*
X148874239Y-99818976D02*
X148995191Y-99818976D01*
X149116143Y-99885500D01*
X149176620Y-99952024D01*
X149237096Y-100085071D01*
X149297572Y-100351167D01*
X149297572Y-100683786D01*
X149237096Y-100949881D01*
X149176620Y-101082929D01*
X149116143Y-101149452D01*
X148995191Y-101215976D01*
X148874239Y-101215976D01*
X148753286Y-101149452D01*
X148692810Y-101082929D01*
X148632334Y-100949881D01*
X148571858Y-100683786D01*
X148571858Y-100351167D01*
X148632334Y-100085071D01*
X148692810Y-99952024D01*
X148753286Y-99885500D01*
X148874239Y-99818976D01*
X149841858Y-101215976D02*
X149841858Y-99818976D01*
X149962810Y-100683786D02*
X150325667Y-101215976D01*
X150325667Y-100284643D02*
X149841858Y-100816833D01*
X142028333Y-104009976D02*
X141302619Y-104009976D01*
X141665476Y-104009976D02*
X141665476Y-102612976D01*
X141544524Y-102812548D01*
X141423571Y-102945595D01*
X141302619Y-103012119D01*
X142814524Y-102612976D02*
X142935476Y-102612976D01*
X143056428Y-102679500D01*
X143116905Y-102746024D01*
X143177381Y-102879071D01*
X143237857Y-103145167D01*
X143237857Y-103477786D01*
X143177381Y-103743881D01*
X143116905Y-103876929D01*
X143056428Y-103943452D01*
X142935476Y-104009976D01*
X142814524Y-104009976D01*
X142693571Y-103943452D01*
X142633095Y-103876929D01*
X142572619Y-103743881D01*
X142512143Y-103477786D01*
X142512143Y-103145167D01*
X142572619Y-102879071D01*
X142633095Y-102746024D01*
X142693571Y-102679500D01*
X142814524Y-102612976D01*
X144024048Y-102612976D02*
X144145000Y-102612976D01*
X144265952Y-102679500D01*
X144326429Y-102746024D01*
X144386905Y-102879071D01*
X144447381Y-103145167D01*
X144447381Y-103477786D01*
X144386905Y-103743881D01*
X144326429Y-103876929D01*
X144265952Y-103943452D01*
X144145000Y-104009976D01*
X144024048Y-104009976D01*
X143903095Y-103943452D01*
X143842619Y-103876929D01*
X143782143Y-103743881D01*
X143721667Y-103477786D01*
X143721667Y-103145167D01*
X143782143Y-102879071D01*
X143842619Y-102746024D01*
X143903095Y-102679500D01*
X144024048Y-102612976D01*
X148088048Y-114550976D02*
X147362334Y-114550976D01*
X147725191Y-114550976D02*
X147725191Y-113153976D01*
X147604239Y-113353548D01*
X147483286Y-113486595D01*
X147362334Y-113553119D01*
X148874239Y-113153976D02*
X148995191Y-113153976D01*
X149116143Y-113220500D01*
X149176620Y-113287024D01*
X149237096Y-113420071D01*
X149297572Y-113686167D01*
X149297572Y-114018786D01*
X149237096Y-114284881D01*
X149176620Y-114417929D01*
X149116143Y-114484452D01*
X148995191Y-114550976D01*
X148874239Y-114550976D01*
X148753286Y-114484452D01*
X148692810Y-114417929D01*
X148632334Y-114284881D01*
X148571858Y-114018786D01*
X148571858Y-113686167D01*
X148632334Y-113420071D01*
X148692810Y-113287024D01*
X148753286Y-113220500D01*
X148874239Y-113153976D01*
X149841858Y-114550976D02*
X149841858Y-113153976D01*
X149962810Y-114018786D02*
X150325667Y-114550976D01*
X150325667Y-113619643D02*
X149841858Y-114151833D01*
X141647333Y-117598976D02*
X140921619Y-117598976D01*
X141284476Y-117598976D02*
X141284476Y-116201976D01*
X141163524Y-116401548D01*
X141042571Y-116534595D01*
X140921619Y-116601119D01*
X142433524Y-116201976D02*
X142554476Y-116201976D01*
X142675428Y-116268500D01*
X142735905Y-116335024D01*
X142796381Y-116468071D01*
X142856857Y-116734167D01*
X142856857Y-117066786D01*
X142796381Y-117332881D01*
X142735905Y-117465929D01*
X142675428Y-117532452D01*
X142554476Y-117598976D01*
X142433524Y-117598976D01*
X142312571Y-117532452D01*
X142252095Y-117465929D01*
X142191619Y-117332881D01*
X142131143Y-117066786D01*
X142131143Y-116734167D01*
X142191619Y-116468071D01*
X142252095Y-116335024D01*
X142312571Y-116268500D01*
X142433524Y-116201976D01*
X143643048Y-116201976D02*
X143764000Y-116201976D01*
X143884952Y-116268500D01*
X143945429Y-116335024D01*
X144005905Y-116468071D01*
X144066381Y-116734167D01*
X144066381Y-117066786D01*
X144005905Y-117332881D01*
X143945429Y-117465929D01*
X143884952Y-117532452D01*
X143764000Y-117598976D01*
X143643048Y-117598976D01*
X143522095Y-117532452D01*
X143461619Y-117465929D01*
X143401143Y-117332881D01*
X143340667Y-117066786D01*
X143340667Y-116734167D01*
X143401143Y-116468071D01*
X143461619Y-116335024D01*
X143522095Y-116268500D01*
X143643048Y-116201976D01*
X147199048Y-87118976D02*
X146473334Y-87118976D01*
X146836191Y-87118976D02*
X146836191Y-85721976D01*
X146715239Y-85921548D01*
X146594286Y-86054595D01*
X146473334Y-86121119D01*
X147985239Y-85721976D02*
X148106191Y-85721976D01*
X148227143Y-85788500D01*
X148287620Y-85855024D01*
X148348096Y-85988071D01*
X148408572Y-86254167D01*
X148408572Y-86586786D01*
X148348096Y-86852881D01*
X148287620Y-86985929D01*
X148227143Y-87052452D01*
X148106191Y-87118976D01*
X147985239Y-87118976D01*
X147864286Y-87052452D01*
X147803810Y-86985929D01*
X147743334Y-86852881D01*
X147682858Y-86586786D01*
X147682858Y-86254167D01*
X147743334Y-85988071D01*
X147803810Y-85855024D01*
X147864286Y-85788500D01*
X147985239Y-85721976D01*
X148952858Y-87118976D02*
X148952858Y-85721976D01*
X149073810Y-86586786D02*
X149436667Y-87118976D01*
X149436667Y-86187643D02*
X148952858Y-86719833D01*
X140631333Y-90420976D02*
X139905619Y-90420976D01*
X140268476Y-90420976D02*
X140268476Y-89023976D01*
X140147524Y-89223548D01*
X140026571Y-89356595D01*
X139905619Y-89423119D01*
X141417524Y-89023976D02*
X141538476Y-89023976D01*
X141659428Y-89090500D01*
X141719905Y-89157024D01*
X141780381Y-89290071D01*
X141840857Y-89556167D01*
X141840857Y-89888786D01*
X141780381Y-90154881D01*
X141719905Y-90287929D01*
X141659428Y-90354452D01*
X141538476Y-90420976D01*
X141417524Y-90420976D01*
X141296571Y-90354452D01*
X141236095Y-90287929D01*
X141175619Y-90154881D01*
X141115143Y-89888786D01*
X141115143Y-89556167D01*
X141175619Y-89290071D01*
X141236095Y-89157024D01*
X141296571Y-89090500D01*
X141417524Y-89023976D01*
X142627048Y-89023976D02*
X142748000Y-89023976D01*
X142868952Y-89090500D01*
X142929429Y-89157024D01*
X142989905Y-89290071D01*
X143050381Y-89556167D01*
X143050381Y-89888786D01*
X142989905Y-90154881D01*
X142929429Y-90287929D01*
X142868952Y-90354452D01*
X142748000Y-90420976D01*
X142627048Y-90420976D01*
X142506095Y-90354452D01*
X142445619Y-90287929D01*
X142385143Y-90154881D01*
X142324667Y-89888786D01*
X142324667Y-89556167D01*
X142385143Y-89290071D01*
X142445619Y-89157024D01*
X142506095Y-89090500D01*
X142627048Y-89023976D01*
X150416381Y-33143976D02*
X150174476Y-33143976D01*
X150053524Y-33210500D01*
X149993047Y-33277024D01*
X149872095Y-33476595D01*
X149811619Y-33742690D01*
X149811619Y-34274881D01*
X149872095Y-34407929D01*
X149932571Y-34474452D01*
X150053524Y-34540976D01*
X150295428Y-34540976D01*
X150416381Y-34474452D01*
X150476857Y-34407929D01*
X150537333Y-34274881D01*
X150537333Y-33942262D01*
X150476857Y-33809214D01*
X150416381Y-33742690D01*
X150295428Y-33676167D01*
X150053524Y-33676167D01*
X149932571Y-33742690D01*
X149872095Y-33809214D01*
X149811619Y-33942262D01*
X151263048Y-33742690D02*
X151142095Y-33676167D01*
X151081619Y-33609643D01*
X151021143Y-33476595D01*
X151021143Y-33410071D01*
X151081619Y-33277024D01*
X151142095Y-33210500D01*
X151263048Y-33143976D01*
X151504952Y-33143976D01*
X151625905Y-33210500D01*
X151686381Y-33277024D01*
X151746857Y-33410071D01*
X151746857Y-33476595D01*
X151686381Y-33609643D01*
X151625905Y-33676167D01*
X151504952Y-33742690D01*
X151263048Y-33742690D01*
X151142095Y-33809214D01*
X151081619Y-33875738D01*
X151021143Y-34008786D01*
X151021143Y-34274881D01*
X151081619Y-34407929D01*
X151142095Y-34474452D01*
X151263048Y-34540976D01*
X151504952Y-34540976D01*
X151625905Y-34474452D01*
X151686381Y-34407929D01*
X151746857Y-34274881D01*
X151746857Y-34008786D01*
X151686381Y-33875738D01*
X151625905Y-33809214D01*
X151504952Y-33742690D01*
X152533048Y-33143976D02*
X152654000Y-33143976D01*
X152774952Y-33210500D01*
X152835429Y-33277024D01*
X152895905Y-33410071D01*
X152956381Y-33676167D01*
X152956381Y-34008786D01*
X152895905Y-34274881D01*
X152835429Y-34407929D01*
X152774952Y-34474452D01*
X152654000Y-34540976D01*
X152533048Y-34540976D01*
X152412095Y-34474452D01*
X152351619Y-34407929D01*
X152291143Y-34274881D01*
X152230667Y-34008786D01*
X152230667Y-33676167D01*
X152291143Y-33410071D01*
X152351619Y-33277024D01*
X152412095Y-33210500D01*
X152533048Y-33143976D01*
X150924381Y-47113976D02*
X150682476Y-47113976D01*
X150561524Y-47180500D01*
X150501047Y-47247024D01*
X150380095Y-47446595D01*
X150319619Y-47712690D01*
X150319619Y-48244881D01*
X150380095Y-48377929D01*
X150440571Y-48444452D01*
X150561524Y-48510976D01*
X150803428Y-48510976D01*
X150924381Y-48444452D01*
X150984857Y-48377929D01*
X151045333Y-48244881D01*
X151045333Y-47912262D01*
X150984857Y-47779214D01*
X150924381Y-47712690D01*
X150803428Y-47646167D01*
X150561524Y-47646167D01*
X150440571Y-47712690D01*
X150380095Y-47779214D01*
X150319619Y-47912262D01*
X151771048Y-47712690D02*
X151650095Y-47646167D01*
X151589619Y-47579643D01*
X151529143Y-47446595D01*
X151529143Y-47380071D01*
X151589619Y-47247024D01*
X151650095Y-47180500D01*
X151771048Y-47113976D01*
X152012952Y-47113976D01*
X152133905Y-47180500D01*
X152194381Y-47247024D01*
X152254857Y-47380071D01*
X152254857Y-47446595D01*
X152194381Y-47579643D01*
X152133905Y-47646167D01*
X152012952Y-47712690D01*
X151771048Y-47712690D01*
X151650095Y-47779214D01*
X151589619Y-47845738D01*
X151529143Y-47978786D01*
X151529143Y-48244881D01*
X151589619Y-48377929D01*
X151650095Y-48444452D01*
X151771048Y-48510976D01*
X152012952Y-48510976D01*
X152133905Y-48444452D01*
X152194381Y-48377929D01*
X152254857Y-48244881D01*
X152254857Y-47978786D01*
X152194381Y-47845738D01*
X152133905Y-47779214D01*
X152012952Y-47712690D01*
X153041048Y-47113976D02*
X153162000Y-47113976D01*
X153282952Y-47180500D01*
X153343429Y-47247024D01*
X153403905Y-47380071D01*
X153464381Y-47646167D01*
X153464381Y-47978786D01*
X153403905Y-48244881D01*
X153343429Y-48377929D01*
X153282952Y-48444452D01*
X153162000Y-48510976D01*
X153041048Y-48510976D01*
X152920095Y-48444452D01*
X152859619Y-48377929D01*
X152799143Y-48244881D01*
X152738667Y-47978786D01*
X152738667Y-47646167D01*
X152799143Y-47380071D01*
X152859619Y-47247024D01*
X152920095Y-47180500D01*
X153041048Y-47113976D01*
X152448381Y-61083976D02*
X152206476Y-61083976D01*
X152085524Y-61150500D01*
X152025047Y-61217024D01*
X151904095Y-61416595D01*
X151843619Y-61682690D01*
X151843619Y-62214881D01*
X151904095Y-62347929D01*
X151964571Y-62414452D01*
X152085524Y-62480976D01*
X152327428Y-62480976D01*
X152448381Y-62414452D01*
X152508857Y-62347929D01*
X152569333Y-62214881D01*
X152569333Y-61882262D01*
X152508857Y-61749214D01*
X152448381Y-61682690D01*
X152327428Y-61616167D01*
X152085524Y-61616167D01*
X151964571Y-61682690D01*
X151904095Y-61749214D01*
X151843619Y-61882262D01*
X153295048Y-61682690D02*
X153174095Y-61616167D01*
X153113619Y-61549643D01*
X153053143Y-61416595D01*
X153053143Y-61350071D01*
X153113619Y-61217024D01*
X153174095Y-61150500D01*
X153295048Y-61083976D01*
X153536952Y-61083976D01*
X153657905Y-61150500D01*
X153718381Y-61217024D01*
X153778857Y-61350071D01*
X153778857Y-61416595D01*
X153718381Y-61549643D01*
X153657905Y-61616167D01*
X153536952Y-61682690D01*
X153295048Y-61682690D01*
X153174095Y-61749214D01*
X153113619Y-61815738D01*
X153053143Y-61948786D01*
X153053143Y-62214881D01*
X153113619Y-62347929D01*
X153174095Y-62414452D01*
X153295048Y-62480976D01*
X153536952Y-62480976D01*
X153657905Y-62414452D01*
X153718381Y-62347929D01*
X153778857Y-62214881D01*
X153778857Y-61948786D01*
X153718381Y-61815738D01*
X153657905Y-61749214D01*
X153536952Y-61682690D01*
X154565048Y-61083976D02*
X154686000Y-61083976D01*
X154806952Y-61150500D01*
X154867429Y-61217024D01*
X154927905Y-61350071D01*
X154988381Y-61616167D01*
X154988381Y-61948786D01*
X154927905Y-62214881D01*
X154867429Y-62347929D01*
X154806952Y-62414452D01*
X154686000Y-62480976D01*
X154565048Y-62480976D01*
X154444095Y-62414452D01*
X154383619Y-62347929D01*
X154323143Y-62214881D01*
X154262667Y-61948786D01*
X154262667Y-61616167D01*
X154323143Y-61350071D01*
X154383619Y-61217024D01*
X154444095Y-61150500D01*
X154565048Y-61083976D01*
X151940381Y-75053976D02*
X151698476Y-75053976D01*
X151577524Y-75120500D01*
X151517047Y-75187024D01*
X151396095Y-75386595D01*
X151335619Y-75652690D01*
X151335619Y-76184881D01*
X151396095Y-76317929D01*
X151456571Y-76384452D01*
X151577524Y-76450976D01*
X151819428Y-76450976D01*
X151940381Y-76384452D01*
X152000857Y-76317929D01*
X152061333Y-76184881D01*
X152061333Y-75852262D01*
X152000857Y-75719214D01*
X151940381Y-75652690D01*
X151819428Y-75586167D01*
X151577524Y-75586167D01*
X151456571Y-75652690D01*
X151396095Y-75719214D01*
X151335619Y-75852262D01*
X152787048Y-75652690D02*
X152666095Y-75586167D01*
X152605619Y-75519643D01*
X152545143Y-75386595D01*
X152545143Y-75320071D01*
X152605619Y-75187024D01*
X152666095Y-75120500D01*
X152787048Y-75053976D01*
X153028952Y-75053976D01*
X153149905Y-75120500D01*
X153210381Y-75187024D01*
X153270857Y-75320071D01*
X153270857Y-75386595D01*
X153210381Y-75519643D01*
X153149905Y-75586167D01*
X153028952Y-75652690D01*
X152787048Y-75652690D01*
X152666095Y-75719214D01*
X152605619Y-75785738D01*
X152545143Y-75918786D01*
X152545143Y-76184881D01*
X152605619Y-76317929D01*
X152666095Y-76384452D01*
X152787048Y-76450976D01*
X153028952Y-76450976D01*
X153149905Y-76384452D01*
X153210381Y-76317929D01*
X153270857Y-76184881D01*
X153270857Y-75918786D01*
X153210381Y-75785738D01*
X153149905Y-75719214D01*
X153028952Y-75652690D01*
X154057048Y-75053976D02*
X154178000Y-75053976D01*
X154298952Y-75120500D01*
X154359429Y-75187024D01*
X154419905Y-75320071D01*
X154480381Y-75586167D01*
X154480381Y-75918786D01*
X154419905Y-76184881D01*
X154359429Y-76317929D01*
X154298952Y-76384452D01*
X154178000Y-76450976D01*
X154057048Y-76450976D01*
X153936095Y-76384452D01*
X153875619Y-76317929D01*
X153815143Y-76184881D01*
X153754667Y-75918786D01*
X153754667Y-75586167D01*
X153815143Y-75320071D01*
X153875619Y-75187024D01*
X153936095Y-75120500D01*
X154057048Y-75053976D01*
X151686381Y-89023976D02*
X151444476Y-89023976D01*
X151323524Y-89090500D01*
X151263047Y-89157024D01*
X151142095Y-89356595D01*
X151081619Y-89622690D01*
X151081619Y-90154881D01*
X151142095Y-90287929D01*
X151202571Y-90354452D01*
X151323524Y-90420976D01*
X151565428Y-90420976D01*
X151686381Y-90354452D01*
X151746857Y-90287929D01*
X151807333Y-90154881D01*
X151807333Y-89822262D01*
X151746857Y-89689214D01*
X151686381Y-89622690D01*
X151565428Y-89556167D01*
X151323524Y-89556167D01*
X151202571Y-89622690D01*
X151142095Y-89689214D01*
X151081619Y-89822262D01*
X152533048Y-89622690D02*
X152412095Y-89556167D01*
X152351619Y-89489643D01*
X152291143Y-89356595D01*
X152291143Y-89290071D01*
X152351619Y-89157024D01*
X152412095Y-89090500D01*
X152533048Y-89023976D01*
X152774952Y-89023976D01*
X152895905Y-89090500D01*
X152956381Y-89157024D01*
X153016857Y-89290071D01*
X153016857Y-89356595D01*
X152956381Y-89489643D01*
X152895905Y-89556167D01*
X152774952Y-89622690D01*
X152533048Y-89622690D01*
X152412095Y-89689214D01*
X152351619Y-89755738D01*
X152291143Y-89888786D01*
X152291143Y-90154881D01*
X152351619Y-90287929D01*
X152412095Y-90354452D01*
X152533048Y-90420976D01*
X152774952Y-90420976D01*
X152895905Y-90354452D01*
X152956381Y-90287929D01*
X153016857Y-90154881D01*
X153016857Y-89888786D01*
X152956381Y-89755738D01*
X152895905Y-89689214D01*
X152774952Y-89622690D01*
X153803048Y-89023976D02*
X153924000Y-89023976D01*
X154044952Y-89090500D01*
X154105429Y-89157024D01*
X154165905Y-89290071D01*
X154226381Y-89556167D01*
X154226381Y-89888786D01*
X154165905Y-90154881D01*
X154105429Y-90287929D01*
X154044952Y-90354452D01*
X153924000Y-90420976D01*
X153803048Y-90420976D01*
X153682095Y-90354452D01*
X153621619Y-90287929D01*
X153561143Y-90154881D01*
X153500667Y-89888786D01*
X153500667Y-89556167D01*
X153561143Y-89290071D01*
X153621619Y-89157024D01*
X153682095Y-89090500D01*
X153803048Y-89023976D01*
X151940381Y-102993976D02*
X151698476Y-102993976D01*
X151577524Y-103060500D01*
X151517047Y-103127024D01*
X151396095Y-103326595D01*
X151335619Y-103592690D01*
X151335619Y-104124881D01*
X151396095Y-104257929D01*
X151456571Y-104324452D01*
X151577524Y-104390976D01*
X151819428Y-104390976D01*
X151940381Y-104324452D01*
X152000857Y-104257929D01*
X152061333Y-104124881D01*
X152061333Y-103792262D01*
X152000857Y-103659214D01*
X151940381Y-103592690D01*
X151819428Y-103526167D01*
X151577524Y-103526167D01*
X151456571Y-103592690D01*
X151396095Y-103659214D01*
X151335619Y-103792262D01*
X152787048Y-103592690D02*
X152666095Y-103526167D01*
X152605619Y-103459643D01*
X152545143Y-103326595D01*
X152545143Y-103260071D01*
X152605619Y-103127024D01*
X152666095Y-103060500D01*
X152787048Y-102993976D01*
X153028952Y-102993976D01*
X153149905Y-103060500D01*
X153210381Y-103127024D01*
X153270857Y-103260071D01*
X153270857Y-103326595D01*
X153210381Y-103459643D01*
X153149905Y-103526167D01*
X153028952Y-103592690D01*
X152787048Y-103592690D01*
X152666095Y-103659214D01*
X152605619Y-103725738D01*
X152545143Y-103858786D01*
X152545143Y-104124881D01*
X152605619Y-104257929D01*
X152666095Y-104324452D01*
X152787048Y-104390976D01*
X153028952Y-104390976D01*
X153149905Y-104324452D01*
X153210381Y-104257929D01*
X153270857Y-104124881D01*
X153270857Y-103858786D01*
X153210381Y-103725738D01*
X153149905Y-103659214D01*
X153028952Y-103592690D01*
X154057048Y-102993976D02*
X154178000Y-102993976D01*
X154298952Y-103060500D01*
X154359429Y-103127024D01*
X154419905Y-103260071D01*
X154480381Y-103526167D01*
X154480381Y-103858786D01*
X154419905Y-104124881D01*
X154359429Y-104257929D01*
X154298952Y-104324452D01*
X154178000Y-104390976D01*
X154057048Y-104390976D01*
X153936095Y-104324452D01*
X153875619Y-104257929D01*
X153815143Y-104124881D01*
X153754667Y-103858786D01*
X153754667Y-103526167D01*
X153815143Y-103260071D01*
X153875619Y-103127024D01*
X153936095Y-103060500D01*
X154057048Y-102993976D01*
X151940381Y-116201976D02*
X151698476Y-116201976D01*
X151577524Y-116268500D01*
X151517047Y-116335024D01*
X151396095Y-116534595D01*
X151335619Y-116800690D01*
X151335619Y-117332881D01*
X151396095Y-117465929D01*
X151456571Y-117532452D01*
X151577524Y-117598976D01*
X151819428Y-117598976D01*
X151940381Y-117532452D01*
X152000857Y-117465929D01*
X152061333Y-117332881D01*
X152061333Y-117000262D01*
X152000857Y-116867214D01*
X151940381Y-116800690D01*
X151819428Y-116734167D01*
X151577524Y-116734167D01*
X151456571Y-116800690D01*
X151396095Y-116867214D01*
X151335619Y-117000262D01*
X152787048Y-116800690D02*
X152666095Y-116734167D01*
X152605619Y-116667643D01*
X152545143Y-116534595D01*
X152545143Y-116468071D01*
X152605619Y-116335024D01*
X152666095Y-116268500D01*
X152787048Y-116201976D01*
X153028952Y-116201976D01*
X153149905Y-116268500D01*
X153210381Y-116335024D01*
X153270857Y-116468071D01*
X153270857Y-116534595D01*
X153210381Y-116667643D01*
X153149905Y-116734167D01*
X153028952Y-116800690D01*
X152787048Y-116800690D01*
X152666095Y-116867214D01*
X152605619Y-116933738D01*
X152545143Y-117066786D01*
X152545143Y-117332881D01*
X152605619Y-117465929D01*
X152666095Y-117532452D01*
X152787048Y-117598976D01*
X153028952Y-117598976D01*
X153149905Y-117532452D01*
X153210381Y-117465929D01*
X153270857Y-117332881D01*
X153270857Y-117066786D01*
X153210381Y-116933738D01*
X153149905Y-116867214D01*
X153028952Y-116800690D01*
X154057048Y-116201976D02*
X154178000Y-116201976D01*
X154298952Y-116268500D01*
X154359429Y-116335024D01*
X154419905Y-116468071D01*
X154480381Y-116734167D01*
X154480381Y-117066786D01*
X154419905Y-117332881D01*
X154359429Y-117465929D01*
X154298952Y-117532452D01*
X154178000Y-117598976D01*
X154057048Y-117598976D01*
X153936095Y-117532452D01*
X153875619Y-117465929D01*
X153815143Y-117332881D01*
X153754667Y-117066786D01*
X153754667Y-116734167D01*
X153815143Y-116468071D01*
X153875619Y-116335024D01*
X153936095Y-116268500D01*
X154057048Y-116201976D01*
%LPC*%
D22*
X126365000Y-54610000D03*
D23*
X126365000Y-57150000D03*
X126365000Y-59690000D03*
X126365000Y-62230000D03*
X126365000Y-64770000D03*
X126365000Y-67310000D03*
X126365000Y-69850000D03*
X126365000Y-72390000D03*
X133985000Y-72390000D03*
X133985000Y-69850000D03*
X133985000Y-67310000D03*
X133985000Y-64770000D03*
X133985000Y-62230000D03*
X133985000Y-59690000D03*
X133985000Y-57150000D03*
X133985000Y-54610000D03*
D24*
X125222000Y-82296000D03*
X125222000Y-79756000D03*
D25*
X125222000Y-77216000D03*
D26*
X160020000Y-34798000D03*
X162560000Y-34798000D03*
X159766000Y-48006000D03*
X162306000Y-48006000D03*
X160528000Y-61976000D03*
X163068000Y-61976000D03*
X160020000Y-75184000D03*
X162560000Y-75184000D03*
X159766000Y-88900000D03*
X162306000Y-88900000D03*
X159766000Y-102362000D03*
X162306000Y-102362000D03*
X159766000Y-115062000D03*
X162306000Y-115062000D03*
D23*
X129286000Y-85344000D03*
X129286000Y-82804000D03*
X129286000Y-76962000D03*
X129286000Y-79502000D03*
X128905000Y-49530000D03*
X131445000Y-49530000D03*
D27*
X133096000Y-106172000D03*
D28*
X125984000Y-106172000D03*
D29*
X133604000Y-113792000D03*
X125476000Y-113792000D03*
D22*
X123825000Y-30480000D03*
D23*
X123825000Y-27940000D03*
X123825000Y-25400000D03*
X123825000Y-22860000D03*
D22*
X168910000Y-30480000D03*
D23*
X168910000Y-27940000D03*
X168910000Y-25400000D03*
X168910000Y-22860000D03*
D24*
X145034000Y-26162000D03*
X147574000Y-26162000D03*
D25*
X150114000Y-26162000D03*
D24*
X145034000Y-40132000D03*
X147574000Y-40132000D03*
D25*
X150114000Y-40132000D03*
D24*
X145034000Y-54102000D03*
X147574000Y-54102000D03*
D25*
X150114000Y-54102000D03*
D24*
X145034000Y-68072000D03*
X147574000Y-68072000D03*
D25*
X150114000Y-68072000D03*
D24*
X145034000Y-82042000D03*
X147574000Y-82042000D03*
D25*
X150114000Y-82042000D03*
D24*
X145034000Y-96012000D03*
X147574000Y-96012000D03*
D25*
X150114000Y-96012000D03*
D24*
X145034000Y-109474000D03*
X147574000Y-109474000D03*
D25*
X150114000Y-109474000D03*
D23*
X143256000Y-30480000D03*
X150876000Y-30480000D03*
X144018000Y-34036000D03*
X136398000Y-34036000D03*
X144780000Y-44450000D03*
X152400000Y-44450000D03*
X144526000Y-48006000D03*
X136906000Y-48006000D03*
X145034000Y-58547000D03*
X152654000Y-58547000D03*
X146304000Y-61976000D03*
X138684000Y-61976000D03*
X145034000Y-72517000D03*
X152654000Y-72517000D03*
X145542000Y-75946000D03*
X137922000Y-75946000D03*
X145034000Y-100457000D03*
X152654000Y-100457000D03*
X146685000Y-103505000D03*
X139065000Y-103505000D03*
X145034000Y-113792000D03*
X152654000Y-113792000D03*
X146304000Y-117094000D03*
X138684000Y-117094000D03*
X144145000Y-86360000D03*
X151765000Y-86360000D03*
X145288000Y-89916000D03*
X137668000Y-89916000D03*
X155194000Y-34036000D03*
X147574000Y-34036000D03*
X155702000Y-48006000D03*
X148082000Y-48006000D03*
X157226000Y-61976000D03*
X149606000Y-61976000D03*
X156718000Y-75946000D03*
X149098000Y-75946000D03*
X156464000Y-89916000D03*
X148844000Y-89916000D03*
X156718000Y-103886000D03*
X149098000Y-103886000D03*
X156718000Y-117094000D03*
X149098000Y-117094000D03*
D30*
X162560000Y-28770000D03*
D31*
X162560000Y-24570000D03*
D30*
X168402000Y-43756000D03*
D31*
X168402000Y-39556000D03*
D30*
X168275000Y-57980000D03*
D31*
X168275000Y-53780000D03*
D30*
X168275000Y-72585000D03*
D31*
X168275000Y-68385000D03*
D30*
X168275000Y-87190000D03*
D31*
X168275000Y-82990000D03*
D30*
X168275000Y-101795000D03*
D31*
X168275000Y-97595000D03*
D30*
X168402000Y-115892000D03*
D31*
X168402000Y-111692000D03*
M02*
