M48
;DRILL file {kicad (2014-jan-25)-product} date Mon 14 Jul 2014 13:54:36 BST
;FORMAT={-:-/ absolute / inch / decimal}
FMAT,2
INCH,TZ
T1C0.025
T2C0.032
T3C0.040
T4C0.059
T5C0.118
T6C0.118
T7C0.197
%
G90
G05
M72
T1
X4.9Y-2.08
X4.95Y-1.96
X5.Y-1.33
X5.03Y-1.16
X5.06Y-0.92
X5.07Y-1.27
X5.1Y-1.12
X5.13Y-2.615
X5.185Y-2.265
X5.25Y-2.95
X5.36Y-2.55
X5.41Y-3.76
X5.41Y-3.83
X5.41Y-3.89
X5.43Y-2.59
X5.46Y-2.68
X5.47Y-3.76
X5.47Y-3.83
X5.48Y-3.89
X5.53Y-3.78
X5.53Y-3.84
X5.565Y-4.12
X5.57Y-3.905
X5.62Y-3.96
T2
X4.875Y-0.9
X4.875Y-1.
X4.875Y-1.1
X4.875Y-1.2
X4.975Y-2.15
X4.975Y-2.25
X4.975Y-2.35
X4.975Y-2.45
X4.975Y-2.55
X4.975Y-2.65
X4.975Y-2.75
X4.975Y-2.85
X5.075Y-1.95
X5.09Y-3.03
X5.09Y-3.13
X5.09Y-3.26
X5.09Y-3.36
X5.175Y-1.95
X5.275Y-2.15
X5.275Y-2.25
X5.275Y-2.35
X5.275Y-2.45
X5.275Y-2.55
X5.275Y-2.65
X5.275Y-2.75
X5.275Y-2.85
X5.37Y-1.34
X5.39Y-1.89
X5.42Y-3.54
X5.43Y-2.99
X5.46Y-2.44
X5.46Y-4.61
X5.475Y-4.075
X5.64Y-1.2
X5.67Y-1.34
X5.675Y-3.4
X5.69Y-1.89
X5.7Y-1.75
X5.71Y-2.305
X5.71Y-2.855
X5.71Y-3.955
X5.71Y-4.48
X5.72Y-3.54
X5.73Y-2.99
X5.76Y-2.44
X5.76Y-4.61
X5.775Y-4.075
X5.81Y-1.34
X5.83Y-1.89
X5.86Y-3.54
X5.87Y-2.99
X5.87Y-4.09
X5.87Y-4.61
X5.89Y-2.44
X5.94Y-1.2
X5.975Y-3.4
X6.Y-1.75
X6.01Y-2.305
X6.01Y-2.855
X6.01Y-3.955
X6.01Y-4.48
X6.11Y-1.34
X6.13Y-1.89
X6.16Y-3.54
X6.17Y-2.99
X6.17Y-4.09
X6.17Y-4.61
X6.19Y-2.44
X6.29Y-1.89
X6.29Y-3.5
X6.29Y-4.03
X6.29Y-4.53
X6.3Y-1.37
X6.3Y-2.96
X6.32Y-2.44
X6.39Y-1.89
X6.39Y-3.5
X6.39Y-4.03
X6.39Y-4.53
X6.4Y-1.37
X6.4Y-2.96
X6.42Y-2.44
X6.65Y-0.9
X6.65Y-1.
X6.65Y-1.1
X6.65Y-1.2
T3
X4.93Y-3.04
X4.93Y-3.14
X4.93Y-3.24
X5.71Y-1.03
X5.71Y-1.58
X5.71Y-2.13
X5.71Y-2.68
X5.71Y-3.23
X5.71Y-3.78
X5.71Y-4.31
X5.81Y-1.03
X5.81Y-1.58
X5.81Y-2.13
X5.81Y-2.68
X5.81Y-3.23
X5.81Y-3.78
X5.81Y-4.31
X5.91Y-1.03
X5.91Y-1.58
X5.91Y-2.13
X5.91Y-2.68
X5.91Y-3.23
X5.91Y-3.78
X5.91Y-4.31
T4
X6.4Y-0.9673
X6.4Y-1.1327
X6.625Y-2.1173
X6.625Y-2.2827
X6.625Y-2.6923
X6.625Y-2.8577
X6.625Y-3.2673
X6.625Y-3.4327
X6.625Y-3.8423
X6.625Y-4.0077
X6.63Y-1.5573
X6.63Y-1.7227
X6.63Y-4.3973
X6.63Y-4.5627
T5
X4.94Y-3.76
X5.27Y-1.17
X6.34Y-4.28
X6.36Y-1.63
T6
X4.96Y-4.18
X5.24Y-4.18
T7
X4.94Y-4.48
X5.26Y-4.48
T0
M30
