%FSLAX46Y46*%
G04 Gerber Fmt 4.6, Leading zero omitted, Abs format (unit mm)*
G04 Created by KiCad (PCBNEW (2014-jan-25)-product) date Mon 14 Jul 2014 13:54:19 BST*
%MOMM*%
G01*
G04 APERTURE LIST*
%ADD10C,0.100000*%
%ADD11C,0.300000*%
%ADD12C,0.400000*%
%ADD13R,1.397000X1.397000*%
%ADD14C,1.397000*%
%ADD15C,1.778000*%
%ADD16R,1.778000X1.778000*%
%ADD17C,1.676400*%
%ADD18R,5.000000X7.000000*%
%ADD19O,5.000000X7.000000*%
%ADD20C,5.000000*%
%ADD21R,3.000000X3.000000*%
%ADD22C,3.000000*%
G04 APERTURE END LIST*
D10*
D11*
X136512286Y-45208000D02*
X135798000Y-45208000D01*
X136655143Y-45636571D02*
X136155143Y-44136571D01*
X135655143Y-45636571D01*
X135155143Y-45636571D02*
X135155143Y-44136571D01*
X134798000Y-44136571D01*
X134583715Y-44208000D01*
X134440857Y-44350857D01*
X134369429Y-44493714D01*
X134298000Y-44779429D01*
X134298000Y-44993714D01*
X134369429Y-45279429D01*
X134440857Y-45422286D01*
X134583715Y-45565143D01*
X134798000Y-45636571D01*
X135155143Y-45636571D01*
X133726572Y-45208000D02*
X133012286Y-45208000D01*
X133869429Y-45636571D02*
X133369429Y-44136571D01*
X132869429Y-45636571D01*
X132369429Y-45636571D02*
X132369429Y-44136571D01*
X131869429Y-45208000D01*
X131369429Y-44136571D01*
X131369429Y-45636571D01*
X128726572Y-44208000D02*
X128869429Y-44136571D01*
X129083715Y-44136571D01*
X129298000Y-44208000D01*
X129440858Y-44350857D01*
X129512286Y-44493714D01*
X129583715Y-44779429D01*
X129583715Y-44993714D01*
X129512286Y-45279429D01*
X129440858Y-45422286D01*
X129298000Y-45565143D01*
X129083715Y-45636571D01*
X128940858Y-45636571D01*
X128726572Y-45565143D01*
X128655143Y-45493714D01*
X128655143Y-44993714D01*
X128940858Y-44993714D01*
X127155143Y-45636571D02*
X127655143Y-44922286D01*
X128012286Y-45636571D02*
X128012286Y-44136571D01*
X127440858Y-44136571D01*
X127298000Y-44208000D01*
X127226572Y-44279429D01*
X127155143Y-44422286D01*
X127155143Y-44636571D01*
X127226572Y-44779429D01*
X127298000Y-44850857D01*
X127440858Y-44922286D01*
X128012286Y-44922286D01*
X126512286Y-44850857D02*
X126012286Y-44850857D01*
X125798000Y-45636571D02*
X126512286Y-45636571D01*
X126512286Y-44136571D01*
X125798000Y-44136571D01*
X125155143Y-45636571D02*
X125155143Y-44136571D01*
X123655143Y-44208000D02*
X123798000Y-44136571D01*
X124012286Y-44136571D01*
X124226571Y-44208000D01*
X124369429Y-44350857D01*
X124440857Y-44493714D01*
X124512286Y-44779429D01*
X124512286Y-44993714D01*
X124440857Y-45279429D01*
X124369429Y-45422286D01*
X124226571Y-45565143D01*
X124012286Y-45636571D01*
X123869429Y-45636571D01*
X123655143Y-45565143D01*
X123583714Y-45493714D01*
X123583714Y-44993714D01*
X123869429Y-44993714D01*
X137726571Y-43096571D02*
X137726571Y-41596571D01*
X137369428Y-41596571D01*
X137155143Y-41668000D01*
X137012285Y-41810857D01*
X136940857Y-41953714D01*
X136869428Y-42239429D01*
X136869428Y-42453714D01*
X136940857Y-42739429D01*
X137012285Y-42882286D01*
X137155143Y-43025143D01*
X137369428Y-43096571D01*
X137726571Y-43096571D01*
X136298000Y-42668000D02*
X135583714Y-42668000D01*
X136440857Y-43096571D02*
X135940857Y-41596571D01*
X135440857Y-43096571D01*
X135155143Y-41596571D02*
X134655143Y-43096571D01*
X134155143Y-41596571D01*
X133655143Y-43096571D02*
X133655143Y-41596571D01*
X132940857Y-43096571D02*
X132940857Y-41596571D01*
X132583714Y-41596571D01*
X132369429Y-41668000D01*
X132226571Y-41810857D01*
X132155143Y-41953714D01*
X132083714Y-42239429D01*
X132083714Y-42453714D01*
X132155143Y-42739429D01*
X132226571Y-42882286D01*
X132369429Y-43025143D01*
X132583714Y-43096571D01*
X132940857Y-43096571D01*
X130512286Y-41596571D02*
X129655143Y-41596571D01*
X130083714Y-43096571D02*
X130083714Y-41596571D01*
X129155143Y-41596571D02*
X129155143Y-42810857D01*
X129083715Y-42953714D01*
X129012286Y-43025143D01*
X128869429Y-43096571D01*
X128583715Y-43096571D01*
X128440857Y-43025143D01*
X128369429Y-42953714D01*
X128298000Y-42810857D01*
X128298000Y-41596571D01*
X126726571Y-43096571D02*
X127226571Y-42382286D01*
X127583714Y-43096571D02*
X127583714Y-41596571D01*
X127012286Y-41596571D01*
X126869428Y-41668000D01*
X126798000Y-41739429D01*
X126726571Y-41882286D01*
X126726571Y-42096571D01*
X126798000Y-42239429D01*
X126869428Y-42310857D01*
X127012286Y-42382286D01*
X127583714Y-42382286D01*
X126083714Y-43096571D02*
X126083714Y-41596571D01*
X125226571Y-43096571D01*
X125226571Y-41596571D01*
X124512285Y-42310857D02*
X124012285Y-42310857D01*
X123797999Y-43096571D02*
X124512285Y-43096571D01*
X124512285Y-41596571D01*
X123797999Y-41596571D01*
X122297999Y-43096571D02*
X122797999Y-42382286D01*
X123155142Y-43096571D02*
X123155142Y-41596571D01*
X122583714Y-41596571D01*
X122440856Y-41668000D01*
X122369428Y-41739429D01*
X122297999Y-41882286D01*
X122297999Y-42096571D01*
X122369428Y-42239429D01*
X122440856Y-42310857D01*
X122583714Y-42382286D01*
X123155142Y-42382286D01*
D12*
X136809905Y-37746952D02*
X135667048Y-37746952D01*
X136238476Y-40246952D02*
X136238476Y-37746952D01*
X135000381Y-40246952D02*
X135000381Y-37746952D01*
X135000381Y-38937429D02*
X133857523Y-38937429D01*
X133857523Y-40246952D02*
X133857523Y-37746952D01*
X132905143Y-38937429D02*
X132238476Y-38937429D01*
X131952762Y-40246952D02*
X132905143Y-40246952D01*
X132905143Y-37746952D01*
X131952762Y-37746952D01*
X130809904Y-39175524D02*
X130905142Y-39294571D01*
X130809904Y-39413619D01*
X130714666Y-39294571D01*
X130809904Y-39175524D01*
X130809904Y-39413619D01*
X128524189Y-37866000D02*
X128714666Y-37746952D01*
X129000380Y-37746952D01*
X129286094Y-37866000D01*
X129476570Y-38104095D01*
X129571809Y-38342190D01*
X129667047Y-38818381D01*
X129667047Y-39175524D01*
X129571809Y-39651714D01*
X129476570Y-39889810D01*
X129286094Y-40127905D01*
X129000380Y-40246952D01*
X128809904Y-40246952D01*
X128524189Y-40127905D01*
X128428951Y-40008857D01*
X128428951Y-39175524D01*
X128809904Y-39175524D01*
X126428951Y-40246952D02*
X127095618Y-39056476D01*
X127571809Y-40246952D02*
X127571809Y-37746952D01*
X126809904Y-37746952D01*
X126619428Y-37866000D01*
X126524189Y-37985048D01*
X126428951Y-38223143D01*
X126428951Y-38580286D01*
X126524189Y-38818381D01*
X126619428Y-38937429D01*
X126809904Y-39056476D01*
X127571809Y-39056476D01*
X125571809Y-40246952D02*
X125571809Y-37746952D01*
X124619428Y-40246952D02*
X124619428Y-37746952D01*
X124143237Y-37746952D01*
X123857523Y-37866000D01*
X123667047Y-38104095D01*
X123571808Y-38342190D01*
X123476570Y-38818381D01*
X123476570Y-39175524D01*
X123571808Y-39651714D01*
X123667047Y-39889810D01*
X123857523Y-40127905D01*
X124143237Y-40246952D01*
X124619428Y-40246952D01*
D11*
X158848856Y-21732571D02*
X158848856Y-22732571D01*
X159205999Y-21161143D02*
X159563142Y-22232571D01*
X158634570Y-22232571D01*
X156920285Y-22732571D02*
X156920285Y-21232571D01*
X156563142Y-21232571D01*
X156348857Y-21304000D01*
X156205999Y-21446857D01*
X156134571Y-21589714D01*
X156063142Y-21875429D01*
X156063142Y-22089714D01*
X156134571Y-22375429D01*
X156205999Y-22518286D01*
X156348857Y-22661143D01*
X156563142Y-22732571D01*
X156920285Y-22732571D01*
X155491714Y-22304000D02*
X154777428Y-22304000D01*
X155634571Y-22732571D02*
X155134571Y-21232571D01*
X154634571Y-22732571D01*
X154348857Y-21232571D02*
X153491714Y-21232571D01*
X153920285Y-22732571D02*
X153920285Y-21232571D01*
X153063143Y-22304000D02*
X152348857Y-22304000D01*
X153206000Y-22732571D02*
X152706000Y-21232571D01*
X152206000Y-22732571D01*
X159991713Y-23632571D02*
X159063142Y-23632571D01*
X159563142Y-24204000D01*
X159348856Y-24204000D01*
X159205999Y-24275429D01*
X159134570Y-24346857D01*
X159063142Y-24489714D01*
X159063142Y-24846857D01*
X159134570Y-24989714D01*
X159205999Y-25061143D01*
X159348856Y-25132571D01*
X159777428Y-25132571D01*
X159920285Y-25061143D01*
X159991713Y-24989714D01*
X157348857Y-25061143D02*
X157134571Y-25132571D01*
X156777428Y-25132571D01*
X156634571Y-25061143D01*
X156563142Y-24989714D01*
X156491714Y-24846857D01*
X156491714Y-24704000D01*
X156563142Y-24561143D01*
X156634571Y-24489714D01*
X156777428Y-24418286D01*
X157063142Y-24346857D01*
X157206000Y-24275429D01*
X157277428Y-24204000D01*
X157348857Y-24061143D01*
X157348857Y-23918286D01*
X157277428Y-23775429D01*
X157206000Y-23704000D01*
X157063142Y-23632571D01*
X156706000Y-23632571D01*
X156491714Y-23704000D01*
X154991714Y-25132571D02*
X155491714Y-24418286D01*
X155848857Y-25132571D02*
X155848857Y-23632571D01*
X155277429Y-23632571D01*
X155134571Y-23704000D01*
X155063143Y-23775429D01*
X154991714Y-23918286D01*
X154991714Y-24132571D01*
X155063143Y-24275429D01*
X155134571Y-24346857D01*
X155277429Y-24418286D01*
X155848857Y-24418286D01*
X153491714Y-24989714D02*
X153563143Y-25061143D01*
X153777429Y-25132571D01*
X153920286Y-25132571D01*
X154134571Y-25061143D01*
X154277429Y-24918286D01*
X154348857Y-24775429D01*
X154420286Y-24489714D01*
X154420286Y-24275429D01*
X154348857Y-23989714D01*
X154277429Y-23846857D01*
X154134571Y-23704000D01*
X153920286Y-23632571D01*
X153777429Y-23632571D01*
X153563143Y-23704000D01*
X153491714Y-23775429D01*
X152848857Y-25132571D02*
X152848857Y-23632571D01*
X151991714Y-25132571D02*
X152634571Y-24275429D01*
X151991714Y-23632571D02*
X152848857Y-24489714D01*
X159206000Y-26175429D02*
X159134571Y-26104000D01*
X158991714Y-26032571D01*
X158634571Y-26032571D01*
X158491714Y-26104000D01*
X158420285Y-26175429D01*
X158348857Y-26318286D01*
X158348857Y-26461143D01*
X158420285Y-26675429D01*
X159277428Y-27532571D01*
X158348857Y-27532571D01*
X155706000Y-27532571D02*
X156206000Y-26818286D01*
X156563143Y-27532571D02*
X156563143Y-26032571D01*
X155991715Y-26032571D01*
X155848857Y-26104000D01*
X155777429Y-26175429D01*
X155706000Y-26318286D01*
X155706000Y-26532571D01*
X155777429Y-26675429D01*
X155848857Y-26746857D01*
X155991715Y-26818286D01*
X156563143Y-26818286D01*
X154206000Y-27389714D02*
X154277429Y-27461143D01*
X154491715Y-27532571D01*
X154634572Y-27532571D01*
X154848857Y-27461143D01*
X154991715Y-27318286D01*
X155063143Y-27175429D01*
X155134572Y-26889714D01*
X155134572Y-26675429D01*
X155063143Y-26389714D01*
X154991715Y-26246857D01*
X154848857Y-26104000D01*
X154634572Y-26032571D01*
X154491715Y-26032571D01*
X154277429Y-26104000D01*
X154206000Y-26175429D01*
X153563143Y-27532571D02*
X153563143Y-26032571D01*
X152706000Y-27532571D02*
X153348857Y-26675429D01*
X152706000Y-26032571D02*
X153563143Y-26889714D01*
X158384571Y-29932571D02*
X159241714Y-29932571D01*
X158813142Y-29932571D02*
X158813142Y-28432571D01*
X158955999Y-28646857D01*
X159098857Y-28789714D01*
X159241714Y-28861143D01*
X155813143Y-28504000D02*
X155956000Y-28432571D01*
X156170286Y-28432571D01*
X156384571Y-28504000D01*
X156527429Y-28646857D01*
X156598857Y-28789714D01*
X156670286Y-29075429D01*
X156670286Y-29289714D01*
X156598857Y-29575429D01*
X156527429Y-29718286D01*
X156384571Y-29861143D01*
X156170286Y-29932571D01*
X156027429Y-29932571D01*
X155813143Y-29861143D01*
X155741714Y-29789714D01*
X155741714Y-29289714D01*
X156027429Y-29289714D01*
X155098857Y-29932571D02*
X155098857Y-28432571D01*
X154241714Y-29932571D01*
X154241714Y-28432571D01*
X153527428Y-29932571D02*
X153527428Y-28432571D01*
X153170285Y-28432571D01*
X152956000Y-28504000D01*
X152813142Y-28646857D01*
X152741714Y-28789714D01*
X152670285Y-29075429D01*
X152670285Y-29289714D01*
X152741714Y-29575429D01*
X152813142Y-29718286D01*
X152956000Y-29861143D01*
X153170285Y-29932571D01*
X153527428Y-29932571D01*
%LPC*%
D13*
X126365000Y-54610000D03*
D14*
X126365000Y-57150000D03*
X126365000Y-59690000D03*
X126365000Y-62230000D03*
X126365000Y-64770000D03*
X126365000Y-67310000D03*
X126365000Y-69850000D03*
X126365000Y-72390000D03*
X133985000Y-72390000D03*
X133985000Y-69850000D03*
X133985000Y-67310000D03*
X133985000Y-64770000D03*
X133985000Y-62230000D03*
X133985000Y-59690000D03*
X133985000Y-57150000D03*
X133985000Y-54610000D03*
D15*
X125222000Y-82296000D03*
X125222000Y-79756000D03*
D16*
X125222000Y-77216000D03*
D17*
X160020000Y-34798000D03*
X162560000Y-34798000D03*
X159766000Y-48006000D03*
X162306000Y-48006000D03*
X160528000Y-61976000D03*
X163068000Y-61976000D03*
X160020000Y-75184000D03*
X162560000Y-75184000D03*
X159766000Y-88900000D03*
X162306000Y-88900000D03*
X159766000Y-102362000D03*
X162306000Y-102362000D03*
X159766000Y-115062000D03*
X162306000Y-115062000D03*
D14*
X129286000Y-85344000D03*
X129286000Y-82804000D03*
X129286000Y-76962000D03*
X129286000Y-79502000D03*
X128905000Y-49530000D03*
X131445000Y-49530000D03*
D18*
X133096000Y-106172000D03*
D19*
X125984000Y-106172000D03*
D20*
X133604000Y-113792000D03*
X125476000Y-113792000D03*
D13*
X123825000Y-30480000D03*
D14*
X123825000Y-27940000D03*
X123825000Y-25400000D03*
X123825000Y-22860000D03*
D13*
X168910000Y-30480000D03*
D14*
X168910000Y-27940000D03*
X168910000Y-25400000D03*
X168910000Y-22860000D03*
D15*
X145034000Y-26162000D03*
X147574000Y-26162000D03*
D16*
X150114000Y-26162000D03*
D15*
X145034000Y-40132000D03*
X147574000Y-40132000D03*
D16*
X150114000Y-40132000D03*
D15*
X145034000Y-54102000D03*
X147574000Y-54102000D03*
D16*
X150114000Y-54102000D03*
D15*
X145034000Y-68072000D03*
X147574000Y-68072000D03*
D16*
X150114000Y-68072000D03*
D15*
X145034000Y-82042000D03*
X147574000Y-82042000D03*
D16*
X150114000Y-82042000D03*
D15*
X145034000Y-96012000D03*
X147574000Y-96012000D03*
D16*
X150114000Y-96012000D03*
D15*
X145034000Y-109474000D03*
X147574000Y-109474000D03*
D16*
X150114000Y-109474000D03*
D14*
X143256000Y-30480000D03*
X150876000Y-30480000D03*
X144018000Y-34036000D03*
X136398000Y-34036000D03*
X144780000Y-44450000D03*
X152400000Y-44450000D03*
X144526000Y-48006000D03*
X136906000Y-48006000D03*
X145034000Y-58547000D03*
X152654000Y-58547000D03*
X146304000Y-61976000D03*
X138684000Y-61976000D03*
X145034000Y-72517000D03*
X152654000Y-72517000D03*
X145542000Y-75946000D03*
X137922000Y-75946000D03*
X145034000Y-100457000D03*
X152654000Y-100457000D03*
X146685000Y-103505000D03*
X139065000Y-103505000D03*
X145034000Y-113792000D03*
X152654000Y-113792000D03*
X146304000Y-117094000D03*
X138684000Y-117094000D03*
X144145000Y-86360000D03*
X151765000Y-86360000D03*
X145288000Y-89916000D03*
X137668000Y-89916000D03*
X155194000Y-34036000D03*
X147574000Y-34036000D03*
X155702000Y-48006000D03*
X148082000Y-48006000D03*
X157226000Y-61976000D03*
X149606000Y-61976000D03*
X156718000Y-75946000D03*
X149098000Y-75946000D03*
X156464000Y-89916000D03*
X148844000Y-89916000D03*
X156718000Y-103886000D03*
X149098000Y-103886000D03*
X156718000Y-117094000D03*
X149098000Y-117094000D03*
D21*
X162560000Y-28770000D03*
D22*
X162560000Y-24570000D03*
D21*
X168402000Y-43756000D03*
D22*
X168402000Y-39556000D03*
D21*
X168275000Y-57980000D03*
D22*
X168275000Y-53780000D03*
D21*
X168275000Y-72585000D03*
D22*
X168275000Y-68385000D03*
D21*
X168275000Y-87190000D03*
D22*
X168275000Y-82990000D03*
D21*
X168275000Y-101795000D03*
D22*
X168275000Y-97595000D03*
D21*
X168402000Y-115892000D03*
D22*
X168402000Y-111692000D03*
M02*
