%FSLAX46Y46*%
G04 Gerber Fmt 4.6, Leading zero omitted, Abs format (unit mm)*
G04 Created by KiCad (PCBNEW (2014-jan-25)-product) date Mon 14 Jul 2014 13:54:19 BST*
%MOMM*%
G01*
G04 APERTURE LIST*
%ADD10C,0.100000*%
%ADD11R,1.397000X1.397000*%
%ADD12C,1.397000*%
%ADD13C,1.778000*%
%ADD14R,1.778000X1.778000*%
%ADD15C,1.676400*%
%ADD16R,5.000000X7.000000*%
%ADD17O,5.000000X7.000000*%
%ADD18R,3.000000X3.000000*%
%ADD19C,3.000000*%
%ADD20C,0.889000*%
%ADD21C,1.270000*%
%ADD22C,2.000000*%
%ADD23C,1.500000*%
%ADD24C,0.254000*%
%ADD25C,3.000000*%
%ADD26C,0.500000*%
G04 APERTURE END LIST*
D10*
D11*
X126365000Y-54610000D03*
D12*
X126365000Y-57150000D03*
X126365000Y-59690000D03*
X126365000Y-62230000D03*
X126365000Y-64770000D03*
X126365000Y-67310000D03*
X126365000Y-69850000D03*
X126365000Y-72390000D03*
X133985000Y-72390000D03*
X133985000Y-69850000D03*
X133985000Y-67310000D03*
X133985000Y-64770000D03*
X133985000Y-62230000D03*
X133985000Y-59690000D03*
X133985000Y-57150000D03*
X133985000Y-54610000D03*
D13*
X125222000Y-82296000D03*
X125222000Y-79756000D03*
D14*
X125222000Y-77216000D03*
D15*
X160020000Y-34798000D03*
X162560000Y-34798000D03*
X159766000Y-48006000D03*
X162306000Y-48006000D03*
X160528000Y-61976000D03*
X163068000Y-61976000D03*
X160020000Y-75184000D03*
X162560000Y-75184000D03*
X159766000Y-88900000D03*
X162306000Y-88900000D03*
X159766000Y-102362000D03*
X162306000Y-102362000D03*
X159766000Y-115062000D03*
X162306000Y-115062000D03*
D12*
X129286000Y-85344000D03*
X129286000Y-82804000D03*
X129286000Y-76962000D03*
X129286000Y-79502000D03*
X128905000Y-49530000D03*
X131445000Y-49530000D03*
D16*
X133096000Y-106172000D03*
D17*
X125984000Y-106172000D03*
D11*
X123825000Y-30480000D03*
D12*
X123825000Y-27940000D03*
X123825000Y-25400000D03*
X123825000Y-22860000D03*
D11*
X168910000Y-30480000D03*
D12*
X168910000Y-27940000D03*
X168910000Y-25400000D03*
X168910000Y-22860000D03*
D13*
X145034000Y-26162000D03*
X147574000Y-26162000D03*
D14*
X150114000Y-26162000D03*
D13*
X145034000Y-40132000D03*
X147574000Y-40132000D03*
D14*
X150114000Y-40132000D03*
D13*
X145034000Y-54102000D03*
X147574000Y-54102000D03*
D14*
X150114000Y-54102000D03*
D13*
X145034000Y-68072000D03*
X147574000Y-68072000D03*
D14*
X150114000Y-68072000D03*
D13*
X145034000Y-82042000D03*
X147574000Y-82042000D03*
D14*
X150114000Y-82042000D03*
D13*
X145034000Y-96012000D03*
X147574000Y-96012000D03*
D14*
X150114000Y-96012000D03*
D13*
X145034000Y-109474000D03*
X147574000Y-109474000D03*
D14*
X150114000Y-109474000D03*
D12*
X143256000Y-30480000D03*
X150876000Y-30480000D03*
X144018000Y-34036000D03*
X136398000Y-34036000D03*
X144780000Y-44450000D03*
X152400000Y-44450000D03*
X144526000Y-48006000D03*
X136906000Y-48006000D03*
X145034000Y-58547000D03*
X152654000Y-58547000D03*
X146304000Y-61976000D03*
X138684000Y-61976000D03*
X145034000Y-72517000D03*
X152654000Y-72517000D03*
X145542000Y-75946000D03*
X137922000Y-75946000D03*
X145034000Y-100457000D03*
X152654000Y-100457000D03*
X146685000Y-103505000D03*
X139065000Y-103505000D03*
X145034000Y-113792000D03*
X152654000Y-113792000D03*
X146304000Y-117094000D03*
X138684000Y-117094000D03*
X144145000Y-86360000D03*
X151765000Y-86360000D03*
X145288000Y-89916000D03*
X137668000Y-89916000D03*
X155194000Y-34036000D03*
X147574000Y-34036000D03*
X155702000Y-48006000D03*
X148082000Y-48006000D03*
X157226000Y-61976000D03*
X149606000Y-61976000D03*
X156718000Y-75946000D03*
X149098000Y-75946000D03*
X156464000Y-89916000D03*
X148844000Y-89916000D03*
X156718000Y-103886000D03*
X149098000Y-103886000D03*
X156718000Y-117094000D03*
X149098000Y-117094000D03*
D18*
X162560000Y-28770000D03*
D19*
X162560000Y-24570000D03*
D18*
X168402000Y-43756000D03*
D19*
X168402000Y-39556000D03*
D18*
X168275000Y-57980000D03*
D19*
X168275000Y-53780000D03*
D18*
X168275000Y-72585000D03*
D19*
X168275000Y-68385000D03*
D18*
X168275000Y-87190000D03*
D19*
X168275000Y-82990000D03*
D18*
X168275000Y-101795000D03*
D19*
X168275000Y-97595000D03*
D18*
X168402000Y-115892000D03*
D19*
X168402000Y-111692000D03*
D20*
X137414000Y-95504000D03*
X139192000Y-98806000D03*
X137414000Y-98806000D03*
X137414000Y-97282000D03*
X138938000Y-97282000D03*
X140462000Y-97536000D03*
X140462000Y-96012000D03*
X138938000Y-95504000D03*
D21*
X133350000Y-74930000D03*
X138684000Y-68072000D03*
X127000000Y-33782000D03*
X131699000Y-57531000D03*
X137922000Y-65786000D03*
X142748000Y-100584000D03*
X141351000Y-104648000D03*
X136144000Y-64770000D03*
X141478000Y-99187000D03*
X128778000Y-32258000D03*
X124460000Y-52832000D03*
X127762000Y-29464000D03*
X128524000Y-23368000D03*
X129540000Y-28448000D03*
X125730000Y-49784000D03*
X130302000Y-66421000D03*
D22*
X168402000Y-111692000D02*
X167073000Y-111692000D01*
X167073000Y-111692000D02*
X166116000Y-112649000D01*
X168275000Y-97595000D02*
X166819000Y-97595000D01*
X166819000Y-97595000D02*
X165989000Y-98425000D01*
X168275000Y-82990000D02*
X166819000Y-82990000D01*
X166819000Y-82990000D02*
X166116000Y-83693000D01*
X168275000Y-68385000D02*
X166692000Y-68385000D01*
X166692000Y-68385000D02*
X165862000Y-69215000D01*
X168275000Y-53780000D02*
X166692000Y-53780000D01*
X166692000Y-53780000D02*
X165989000Y-54483000D01*
X168402000Y-39556000D02*
X167073000Y-39556000D01*
X167073000Y-39556000D02*
X165862000Y-40767000D01*
X162560000Y-24570000D02*
X162755000Y-24570000D01*
X162755000Y-24570000D02*
X164846000Y-22479000D01*
X162560000Y-24570000D02*
X162492000Y-24570000D01*
X162492000Y-24570000D02*
X160147000Y-22225000D01*
X168402000Y-39556000D02*
X168402000Y-39497000D01*
X168402000Y-39497000D02*
X165989000Y-37084000D01*
X168275000Y-53780000D02*
X168275000Y-53721000D01*
X168275000Y-53721000D02*
X166116000Y-51562000D01*
X168275000Y-68385000D02*
X168275000Y-68326000D01*
X168275000Y-68326000D02*
X165989000Y-66040000D01*
X168275000Y-82990000D02*
X168275000Y-82931000D01*
X168275000Y-82931000D02*
X165989000Y-80645000D01*
X168275000Y-97595000D02*
X168275000Y-97536000D01*
X168275000Y-97536000D02*
X165862000Y-95123000D01*
X168402000Y-111692000D02*
X168334000Y-111692000D01*
X168334000Y-111692000D02*
X165989000Y-109347000D01*
D23*
X133096000Y-102235000D02*
X133096000Y-106172000D01*
X129794000Y-106172000D02*
X133096000Y-106172000D01*
X139192000Y-98806000D02*
X139192000Y-98933000D01*
D24*
X137414000Y-98806000D02*
X139192000Y-98806000D01*
X138938000Y-97282000D02*
X137414000Y-97282000D01*
X140462000Y-96012000D02*
X140462000Y-97536000D01*
X137414000Y-95504000D02*
X138938000Y-95504000D01*
D23*
X139192000Y-98933000D02*
X133096000Y-105029000D01*
X133096000Y-105029000D02*
X133096000Y-106172000D01*
D25*
X133096000Y-106172000D02*
X133096000Y-107315000D01*
X133096000Y-107315000D02*
X129540000Y-110871000D01*
X133096000Y-106172000D02*
X135636000Y-106172000D01*
X135636000Y-106172000D02*
X138811000Y-109347000D01*
X140970000Y-79375000D02*
X141605000Y-78740000D01*
X140970000Y-91440000D02*
X140970000Y-79375000D01*
D23*
X141605000Y-78740000D02*
X147955000Y-78740000D01*
X150114000Y-80899000D02*
X150114000Y-82042000D01*
X147955000Y-78740000D02*
X150114000Y-80899000D01*
X141605000Y-64770000D02*
X149225000Y-64770000D01*
X149860000Y-65405000D02*
X149860000Y-67310000D01*
X149225000Y-64770000D02*
X149860000Y-65405000D01*
X149860000Y-67310000D02*
X150114000Y-68072000D01*
X140970000Y-51435000D02*
X148590000Y-51435000D01*
X150114000Y-52959000D02*
X150114000Y-54102000D01*
X148590000Y-51435000D02*
X150114000Y-52959000D01*
X140970000Y-37465000D02*
X148590000Y-37465000D01*
X150114000Y-38989000D02*
X150114000Y-40132000D01*
X148590000Y-37465000D02*
X150114000Y-38989000D01*
X142240000Y-23495000D02*
X148590000Y-23495000D01*
D25*
X139700000Y-26035000D02*
X142240000Y-23495000D01*
X140970000Y-46355000D02*
X140970000Y-37465000D01*
X140970000Y-37465000D02*
X140970000Y-33020000D01*
X142240000Y-60325000D02*
X140970000Y-59055000D01*
X140970000Y-59055000D02*
X140970000Y-51435000D01*
X140970000Y-51435000D02*
X140970000Y-46355000D01*
X141605000Y-78740000D02*
X141605000Y-64770000D01*
X141605000Y-64770000D02*
X141605000Y-64135000D01*
X141605000Y-64135000D02*
X142240000Y-63500000D01*
X142240000Y-63500000D02*
X142240000Y-60325000D01*
X140970000Y-33020000D02*
X139700000Y-31750000D01*
X139700000Y-31750000D02*
X139700000Y-26035000D01*
D23*
X150114000Y-25019000D02*
X150114000Y-26162000D01*
X148590000Y-23495000D02*
X150114000Y-25019000D01*
D25*
X125984000Y-102870000D02*
X125984000Y-106172000D01*
X129540000Y-99314000D02*
X125984000Y-102870000D01*
X134620000Y-93726000D02*
X135636000Y-92710000D01*
X135636000Y-92710000D02*
X140970000Y-92710000D01*
D23*
X147955000Y-92710000D02*
X150114000Y-94869000D01*
X150114000Y-96012000D02*
X150114000Y-94869000D01*
X140970000Y-92710000D02*
X147955000Y-92710000D01*
D25*
X134620000Y-99314000D02*
X134620000Y-93726000D01*
X134620000Y-99314000D02*
X129540000Y-99314000D01*
D26*
X133350000Y-74930000D02*
X134366000Y-75946000D01*
X137922000Y-75946000D02*
X135128000Y-75946000D01*
X134366000Y-75946000D02*
X135128000Y-75946000D01*
X133985000Y-67310000D02*
X137922000Y-67310000D01*
X137922000Y-67310000D02*
X138684000Y-68072000D01*
X125476000Y-32258000D02*
X127000000Y-33782000D01*
X125476000Y-29210000D02*
X125476000Y-32258000D01*
X133985000Y-69850000D02*
X132080000Y-67945000D01*
X132080000Y-58166000D02*
X132080000Y-67945000D01*
X125476000Y-29210000D02*
X124206000Y-27940000D01*
X132080000Y-57912000D02*
X132080000Y-58166000D01*
X131699000Y-57531000D02*
X132080000Y-57912000D01*
X123825000Y-27940000D02*
X124206000Y-27940000D01*
X142748000Y-100838000D02*
X142748000Y-100584000D01*
X137668000Y-66040000D02*
X137922000Y-65786000D01*
X134112000Y-64770000D02*
X135382000Y-66040000D01*
X140081000Y-103505000D02*
X139065000Y-103505000D01*
X142748000Y-100838000D02*
X140081000Y-103505000D01*
X135382000Y-66040000D02*
X137668000Y-66040000D01*
X133985000Y-64770000D02*
X134112000Y-64770000D01*
X141478000Y-99187000D02*
X137668000Y-102997000D01*
X133985000Y-62611000D02*
X136144000Y-64770000D01*
X141097000Y-104902000D02*
X141351000Y-104648000D01*
X138303000Y-104902000D02*
X141097000Y-104902000D01*
X137668000Y-104267000D02*
X138303000Y-104902000D01*
X137668000Y-102997000D02*
X137668000Y-104267000D01*
X133985000Y-62611000D02*
X133985000Y-62230000D01*
X126492000Y-28067000D02*
X123825000Y-25400000D01*
X128016000Y-32258000D02*
X128778000Y-32258000D01*
X126492000Y-30734000D02*
X128016000Y-32258000D01*
X126492000Y-28448000D02*
X126492000Y-30734000D01*
X126492000Y-28448000D02*
X126492000Y-28067000D01*
X123825000Y-22860000D02*
X127000000Y-26035000D01*
X124460000Y-55880000D02*
X125730000Y-57150000D01*
X124460000Y-52832000D02*
X124460000Y-55880000D01*
X127762000Y-27432000D02*
X127762000Y-29464000D01*
X127000000Y-26670000D02*
X127762000Y-27432000D01*
X127000000Y-26670000D02*
X127000000Y-26035000D01*
X125730000Y-57150000D02*
X126365000Y-57150000D01*
X130302000Y-66040000D02*
X130302000Y-66421000D01*
X130302000Y-54356000D02*
X130302000Y-66040000D01*
X125730000Y-49784000D02*
X130302000Y-54356000D01*
X129540000Y-24384000D02*
X129540000Y-28448000D01*
X128524000Y-23368000D02*
X129540000Y-24384000D01*
D24*
G36*
X170511000Y-114202921D02*
X170440327Y-114032302D01*
X170261699Y-113853673D01*
X170028310Y-113757000D01*
X169775691Y-113757000D01*
X169015853Y-113757000D01*
X169576582Y-113524739D01*
X169736365Y-113205970D01*
X168402000Y-111871605D01*
X168222395Y-112051210D01*
X168222395Y-111692000D01*
X166888030Y-110357635D01*
X166569261Y-110517418D01*
X166259277Y-111308187D01*
X166275503Y-112157387D01*
X166569261Y-112866582D01*
X166888030Y-113026365D01*
X168222395Y-111692000D01*
X168222395Y-112051210D01*
X167067635Y-113205970D01*
X167227418Y-113524739D01*
X167819915Y-113757000D01*
X166775691Y-113757000D01*
X166542302Y-113853673D01*
X166363673Y-114032301D01*
X166267000Y-114265690D01*
X166267000Y-114518309D01*
X166267000Y-117518309D01*
X166363673Y-117751698D01*
X166542301Y-117930327D01*
X166548754Y-117933000D01*
X164702723Y-117933000D01*
X164702723Y-24953813D01*
X164686497Y-24104613D01*
X164392739Y-23395418D01*
X164073970Y-23235635D01*
X163894365Y-23415240D01*
X163894365Y-23056030D01*
X163734582Y-22737261D01*
X162943813Y-22427277D01*
X162094613Y-22443503D01*
X161385418Y-22737261D01*
X161225635Y-23056030D01*
X162560000Y-24390395D01*
X163894365Y-23056030D01*
X163894365Y-23415240D01*
X162739605Y-24570000D01*
X164073970Y-25904365D01*
X164392739Y-25744582D01*
X164702723Y-24953813D01*
X164702723Y-117933000D01*
X164695000Y-117933000D01*
X164695000Y-30396310D01*
X164695000Y-30143691D01*
X164695000Y-27143691D01*
X164598327Y-26910302D01*
X164419699Y-26731673D01*
X164186310Y-26635000D01*
X163933691Y-26635000D01*
X163173853Y-26635000D01*
X163734582Y-26402739D01*
X163894365Y-26083970D01*
X162560000Y-24749605D01*
X162380395Y-24929210D01*
X162380395Y-24570000D01*
X161046030Y-23235635D01*
X160727261Y-23395418D01*
X160417277Y-24186187D01*
X160433503Y-25035387D01*
X160727261Y-25744582D01*
X161046030Y-25904365D01*
X162380395Y-24570000D01*
X162380395Y-24929210D01*
X161225635Y-26083970D01*
X161385418Y-26402739D01*
X161977915Y-26635000D01*
X160933691Y-26635000D01*
X160700302Y-26731673D01*
X160521673Y-26910301D01*
X160425000Y-27143690D01*
X160425000Y-27396309D01*
X160425000Y-30396309D01*
X160521673Y-30629698D01*
X160700301Y-30808327D01*
X160933690Y-30905000D01*
X161186309Y-30905000D01*
X164186309Y-30905000D01*
X164419698Y-30808327D01*
X164598327Y-30629699D01*
X164695000Y-30396310D01*
X164695000Y-117933000D01*
X164552977Y-117933000D01*
X164552977Y-62201903D01*
X164526389Y-61616431D01*
X164353490Y-61199017D01*
X164103413Y-61120192D01*
X164044977Y-61178628D01*
X164044977Y-35023903D01*
X164018389Y-34438431D01*
X163845490Y-34021017D01*
X163595413Y-33942192D01*
X163415808Y-34121797D01*
X163415808Y-33762587D01*
X163336983Y-33512510D01*
X162785903Y-33313023D01*
X162200431Y-33339611D01*
X161783017Y-33512510D01*
X161704192Y-33762587D01*
X162560000Y-34618395D01*
X163415808Y-33762587D01*
X163415808Y-34121797D01*
X162739605Y-34798000D01*
X163595413Y-35653808D01*
X163845490Y-35574983D01*
X164044977Y-35023903D01*
X164044977Y-61178628D01*
X163923808Y-61299797D01*
X163923808Y-60940587D01*
X163844983Y-60690510D01*
X163790977Y-60670960D01*
X163790977Y-48231903D01*
X163764389Y-47646431D01*
X163679240Y-47440863D01*
X163679240Y-40979211D01*
X163415808Y-40341657D01*
X163415808Y-35833413D01*
X162560000Y-34977605D01*
X162380395Y-35157210D01*
X162380395Y-34798000D01*
X161524587Y-33942192D01*
X161290836Y-34015870D01*
X161269647Y-33964589D01*
X160855591Y-33549810D01*
X160314323Y-33325056D01*
X159728248Y-33324545D01*
X159186589Y-33548353D01*
X158771810Y-33962409D01*
X158547056Y-34503677D01*
X158546545Y-35089752D01*
X158770353Y-35631411D01*
X159184409Y-36046190D01*
X159725677Y-36270944D01*
X160311752Y-36271455D01*
X160853411Y-36047647D01*
X161268190Y-35633591D01*
X161290441Y-35580004D01*
X161524587Y-35653808D01*
X162380395Y-34798000D01*
X162380395Y-35157210D01*
X161704192Y-35833413D01*
X161783017Y-36083490D01*
X162334097Y-36282977D01*
X162919569Y-36256389D01*
X163336983Y-36083490D01*
X163415808Y-35833413D01*
X163415808Y-40341657D01*
X163354910Y-40194273D01*
X162754886Y-39593200D01*
X161970515Y-39267501D01*
X161121211Y-39266760D01*
X160336273Y-39591090D01*
X159735200Y-40191114D01*
X159409501Y-40975485D01*
X159408760Y-41824789D01*
X159733090Y-42609727D01*
X160333114Y-43210800D01*
X161117485Y-43536499D01*
X161966789Y-43537240D01*
X162751727Y-43212910D01*
X163352800Y-42612886D01*
X163678499Y-41828515D01*
X163679240Y-40979211D01*
X163679240Y-47440863D01*
X163591490Y-47229017D01*
X163341413Y-47150192D01*
X163161808Y-47329797D01*
X163161808Y-46970587D01*
X163082983Y-46720510D01*
X162531903Y-46521023D01*
X161946431Y-46547611D01*
X161529017Y-46720510D01*
X161450192Y-46970587D01*
X162306000Y-47826395D01*
X163161808Y-46970587D01*
X163161808Y-47329797D01*
X162485605Y-48006000D01*
X163341413Y-48861808D01*
X163591490Y-48782983D01*
X163790977Y-48231903D01*
X163790977Y-60670960D01*
X163293903Y-60491023D01*
X163161808Y-60497021D01*
X163161808Y-49041413D01*
X162306000Y-48185605D01*
X162126395Y-48365210D01*
X162126395Y-48006000D01*
X161270587Y-47150192D01*
X161036836Y-47223870D01*
X161015647Y-47172589D01*
X160601591Y-46757810D01*
X160060323Y-46533056D01*
X159474248Y-46532545D01*
X158932589Y-46756353D01*
X158517810Y-47170409D01*
X158293056Y-47711677D01*
X158292545Y-48297752D01*
X158516353Y-48839411D01*
X158930409Y-49254190D01*
X159471677Y-49478944D01*
X160057752Y-49479455D01*
X160599411Y-49255647D01*
X161014190Y-48841591D01*
X161036441Y-48788004D01*
X161270587Y-48861808D01*
X162126395Y-48006000D01*
X162126395Y-48365210D01*
X161450192Y-49041413D01*
X161529017Y-49291490D01*
X162080097Y-49490977D01*
X162665569Y-49464389D01*
X163082983Y-49291490D01*
X163161808Y-49041413D01*
X163161808Y-60497021D01*
X162708431Y-60517611D01*
X162291017Y-60690510D01*
X162212192Y-60940587D01*
X163068000Y-61796395D01*
X163923808Y-60940587D01*
X163923808Y-61299797D01*
X163247605Y-61976000D01*
X164103413Y-62831808D01*
X164353490Y-62752983D01*
X164552977Y-62201903D01*
X164552977Y-117933000D01*
X164044977Y-117933000D01*
X164044977Y-75409903D01*
X164018389Y-74824431D01*
X163923808Y-74596092D01*
X163923808Y-63011413D01*
X163068000Y-62155605D01*
X162888395Y-62335210D01*
X162888395Y-61976000D01*
X162032587Y-61120192D01*
X161798836Y-61193870D01*
X161777647Y-61142589D01*
X161363591Y-60727810D01*
X160822323Y-60503056D01*
X160236248Y-60502545D01*
X159694589Y-60726353D01*
X159279810Y-61140409D01*
X159055056Y-61681677D01*
X159054545Y-62267752D01*
X159278353Y-62809411D01*
X159692409Y-63224190D01*
X160233677Y-63448944D01*
X160819752Y-63449455D01*
X161361411Y-63225647D01*
X161776190Y-62811591D01*
X161798441Y-62758004D01*
X162032587Y-62831808D01*
X162888395Y-61976000D01*
X162888395Y-62335210D01*
X162212192Y-63011413D01*
X162291017Y-63261490D01*
X162842097Y-63460977D01*
X163427569Y-63434389D01*
X163844983Y-63261490D01*
X163923808Y-63011413D01*
X163923808Y-74596092D01*
X163845490Y-74407017D01*
X163595413Y-74328192D01*
X163415808Y-74507797D01*
X163415808Y-74148587D01*
X163336983Y-73898510D01*
X162785903Y-73699023D01*
X162200431Y-73725611D01*
X161783017Y-73898510D01*
X161704192Y-74148587D01*
X162560000Y-75004395D01*
X163415808Y-74148587D01*
X163415808Y-74507797D01*
X162739605Y-75184000D01*
X163595413Y-76039808D01*
X163845490Y-75960983D01*
X164044977Y-75409903D01*
X164044977Y-117933000D01*
X163790977Y-117933000D01*
X163790977Y-115287903D01*
X163790977Y-102587903D01*
X163790977Y-89125903D01*
X163764389Y-88540431D01*
X163591490Y-88123017D01*
X163415808Y-88067641D01*
X163415808Y-76219413D01*
X162560000Y-75363605D01*
X162380395Y-75543210D01*
X162380395Y-75184000D01*
X161524587Y-74328192D01*
X161290836Y-74401870D01*
X161269647Y-74350589D01*
X160855591Y-73935810D01*
X160314323Y-73711056D01*
X159728248Y-73710545D01*
X159186589Y-73934353D01*
X158771810Y-74348409D01*
X158559731Y-74859152D01*
X158559731Y-61711914D01*
X158357146Y-61221620D01*
X157982353Y-60846173D01*
X157492413Y-60642732D01*
X157035731Y-60642333D01*
X157035731Y-47741914D01*
X156833146Y-47251620D01*
X156527731Y-46945672D01*
X156527731Y-33771914D01*
X156325146Y-33281620D01*
X155950353Y-32906173D01*
X155460413Y-32702732D01*
X154929914Y-32702269D01*
X154439620Y-32904854D01*
X154064173Y-33279647D01*
X153860732Y-33769587D01*
X153860269Y-34300086D01*
X154062854Y-34790380D01*
X154437647Y-35165827D01*
X154927587Y-35369268D01*
X155458086Y-35369731D01*
X155948380Y-35167146D01*
X156323827Y-34792353D01*
X156527268Y-34302413D01*
X156527731Y-33771914D01*
X156527731Y-46945672D01*
X156458353Y-46876173D01*
X155968413Y-46672732D01*
X155437914Y-46672269D01*
X154947620Y-46874854D01*
X154572173Y-47249647D01*
X154368732Y-47739587D01*
X154368269Y-48270086D01*
X154570854Y-48760380D01*
X154945647Y-49135827D01*
X155435587Y-49339268D01*
X155966086Y-49339731D01*
X156456380Y-49137146D01*
X156831827Y-48762353D01*
X157035268Y-48272413D01*
X157035731Y-47741914D01*
X157035731Y-60642333D01*
X156961914Y-60642269D01*
X156471620Y-60844854D01*
X156096173Y-61219647D01*
X155892732Y-61709587D01*
X155892269Y-62240086D01*
X156094854Y-62730380D01*
X156469647Y-63105827D01*
X156959587Y-63309268D01*
X157490086Y-63309731D01*
X157980380Y-63107146D01*
X158355827Y-62732353D01*
X158559268Y-62242413D01*
X158559731Y-61711914D01*
X158559731Y-74859152D01*
X158547056Y-74889677D01*
X158546545Y-75475752D01*
X158770353Y-76017411D01*
X159184409Y-76432190D01*
X159725677Y-76656944D01*
X160311752Y-76657455D01*
X160853411Y-76433647D01*
X161268190Y-76019591D01*
X161290441Y-75966004D01*
X161524587Y-76039808D01*
X162380395Y-75184000D01*
X162380395Y-75543210D01*
X161704192Y-76219413D01*
X161783017Y-76469490D01*
X162334097Y-76668977D01*
X162919569Y-76642389D01*
X163336983Y-76469490D01*
X163415808Y-76219413D01*
X163415808Y-88067641D01*
X163341413Y-88044192D01*
X163161808Y-88223797D01*
X163161808Y-87864587D01*
X163082983Y-87614510D01*
X162531903Y-87415023D01*
X161946431Y-87441611D01*
X161529017Y-87614510D01*
X161450192Y-87864587D01*
X162306000Y-88720395D01*
X163161808Y-87864587D01*
X163161808Y-88223797D01*
X162485605Y-88900000D01*
X163341413Y-89755808D01*
X163591490Y-89676983D01*
X163790977Y-89125903D01*
X163790977Y-102587903D01*
X163764389Y-102002431D01*
X163591490Y-101585017D01*
X163341413Y-101506192D01*
X163161808Y-101685797D01*
X163161808Y-101326587D01*
X163161808Y-89935413D01*
X162306000Y-89079605D01*
X162126395Y-89259210D01*
X162126395Y-88900000D01*
X161270587Y-88044192D01*
X161036836Y-88117870D01*
X161015647Y-88066589D01*
X160601591Y-87651810D01*
X160060323Y-87427056D01*
X159474248Y-87426545D01*
X158932589Y-87650353D01*
X158517810Y-88064409D01*
X158293056Y-88605677D01*
X158292545Y-89191752D01*
X158516353Y-89733411D01*
X158930409Y-90148190D01*
X159471677Y-90372944D01*
X160057752Y-90373455D01*
X160599411Y-90149647D01*
X161014190Y-89735591D01*
X161036441Y-89682004D01*
X161270587Y-89755808D01*
X162126395Y-88900000D01*
X162126395Y-89259210D01*
X161450192Y-89935413D01*
X161529017Y-90185490D01*
X162080097Y-90384977D01*
X162665569Y-90358389D01*
X163082983Y-90185490D01*
X163161808Y-89935413D01*
X163161808Y-101326587D01*
X163082983Y-101076510D01*
X162531903Y-100877023D01*
X161946431Y-100903611D01*
X161529017Y-101076510D01*
X161450192Y-101326587D01*
X162306000Y-102182395D01*
X163161808Y-101326587D01*
X163161808Y-101685797D01*
X162485605Y-102362000D01*
X163341413Y-103217808D01*
X163591490Y-103138983D01*
X163790977Y-102587903D01*
X163790977Y-115287903D01*
X163764389Y-114702431D01*
X163591490Y-114285017D01*
X163341413Y-114206192D01*
X163171240Y-114376365D01*
X163171240Y-108289211D01*
X163161808Y-108266383D01*
X163161808Y-103397413D01*
X162306000Y-102541605D01*
X162126395Y-102721210D01*
X162126395Y-102362000D01*
X161270587Y-101506192D01*
X161036836Y-101579870D01*
X161015647Y-101528589D01*
X160601591Y-101113810D01*
X160060323Y-100889056D01*
X159474248Y-100888545D01*
X158932589Y-101112353D01*
X158517810Y-101526409D01*
X158293056Y-102067677D01*
X158292545Y-102653752D01*
X158516353Y-103195411D01*
X158930409Y-103610190D01*
X159471677Y-103834944D01*
X160057752Y-103835455D01*
X160599411Y-103611647D01*
X161014190Y-103197591D01*
X161036441Y-103144004D01*
X161270587Y-103217808D01*
X162126395Y-102362000D01*
X162126395Y-102721210D01*
X161450192Y-103397413D01*
X161529017Y-103647490D01*
X162080097Y-103846977D01*
X162665569Y-103820389D01*
X163082983Y-103647490D01*
X163161808Y-103397413D01*
X163161808Y-108266383D01*
X162846910Y-107504273D01*
X162246886Y-106903200D01*
X161462515Y-106577501D01*
X160613211Y-106576760D01*
X159828273Y-106901090D01*
X159227200Y-107501114D01*
X158901501Y-108285485D01*
X158900760Y-109134789D01*
X159225090Y-109919727D01*
X159825114Y-110520800D01*
X160609485Y-110846499D01*
X161458789Y-110847240D01*
X162243727Y-110522910D01*
X162844800Y-109922886D01*
X163170499Y-109138515D01*
X163171240Y-108289211D01*
X163171240Y-114376365D01*
X163161808Y-114385797D01*
X163161808Y-114026587D01*
X163082983Y-113776510D01*
X162531903Y-113577023D01*
X161946431Y-113603611D01*
X161529017Y-113776510D01*
X161450192Y-114026587D01*
X162306000Y-114882395D01*
X163161808Y-114026587D01*
X163161808Y-114385797D01*
X162485605Y-115062000D01*
X163341413Y-115917808D01*
X163591490Y-115838983D01*
X163790977Y-115287903D01*
X163790977Y-117933000D01*
X163161808Y-117933000D01*
X163161808Y-116097413D01*
X162306000Y-115241605D01*
X162126395Y-115421210D01*
X162126395Y-115062000D01*
X161270587Y-114206192D01*
X161036836Y-114279870D01*
X161015647Y-114228589D01*
X160601591Y-113813810D01*
X160060323Y-113589056D01*
X159474248Y-113588545D01*
X158932589Y-113812353D01*
X158517810Y-114226409D01*
X158293056Y-114767677D01*
X158292545Y-115353752D01*
X158516353Y-115895411D01*
X158930409Y-116310190D01*
X159471677Y-116534944D01*
X160057752Y-116535455D01*
X160599411Y-116311647D01*
X161014190Y-115897591D01*
X161036441Y-115844004D01*
X161270587Y-115917808D01*
X162126395Y-115062000D01*
X162126395Y-115421210D01*
X161450192Y-116097413D01*
X161529017Y-116347490D01*
X162080097Y-116546977D01*
X162665569Y-116520389D01*
X163082983Y-116347490D01*
X163161808Y-116097413D01*
X163161808Y-117933000D01*
X157765035Y-117933000D01*
X157847827Y-117850353D01*
X158051268Y-117360413D01*
X158051731Y-116829914D01*
X158051731Y-103621914D01*
X158051731Y-75681914D01*
X157849146Y-75191620D01*
X157474353Y-74816173D01*
X156984413Y-74612732D01*
X156453914Y-74612269D01*
X155963620Y-74814854D01*
X155588173Y-75189647D01*
X155384732Y-75679587D01*
X155384269Y-76210086D01*
X155586854Y-76700380D01*
X155961647Y-77075827D01*
X156451587Y-77279268D01*
X156982086Y-77279731D01*
X157472380Y-77077146D01*
X157847827Y-76702353D01*
X158051268Y-76212413D01*
X158051731Y-75681914D01*
X158051731Y-103621914D01*
X157849146Y-103131620D01*
X157797731Y-103080115D01*
X157797731Y-89651914D01*
X157595146Y-89161620D01*
X157220353Y-88786173D01*
X156730413Y-88582732D01*
X156199914Y-88582269D01*
X155709620Y-88784854D01*
X155334173Y-89159647D01*
X155130732Y-89649587D01*
X155130269Y-90180086D01*
X155332854Y-90670380D01*
X155707647Y-91045827D01*
X156197587Y-91249268D01*
X156728086Y-91249731D01*
X157218380Y-91047146D01*
X157593827Y-90672353D01*
X157797268Y-90182413D01*
X157797731Y-89651914D01*
X157797731Y-103080115D01*
X157474353Y-102756173D01*
X156984413Y-102552732D01*
X156453914Y-102552269D01*
X155963620Y-102754854D01*
X155588173Y-103129647D01*
X155384732Y-103619587D01*
X155384269Y-104150086D01*
X155586854Y-104640380D01*
X155961647Y-105015827D01*
X156451587Y-105219268D01*
X156982086Y-105219731D01*
X157472380Y-105017146D01*
X157847827Y-104642353D01*
X158051268Y-104152413D01*
X158051731Y-103621914D01*
X158051731Y-116829914D01*
X157849146Y-116339620D01*
X157474353Y-115964173D01*
X156984413Y-115760732D01*
X156453914Y-115760269D01*
X155963620Y-115962854D01*
X155588173Y-116337647D01*
X155384732Y-116827587D01*
X155384269Y-117358086D01*
X155586854Y-117848380D01*
X155671326Y-117933000D01*
X153987731Y-117933000D01*
X153987731Y-113527914D01*
X153987731Y-100192914D01*
X153987731Y-72252914D01*
X153987731Y-58282914D01*
X153785146Y-57792620D01*
X153733731Y-57741115D01*
X153733731Y-44185914D01*
X153531146Y-43695620D01*
X153156353Y-43320173D01*
X152666413Y-43116732D01*
X152209731Y-43116333D01*
X152209731Y-30215914D01*
X152007146Y-29725620D01*
X151632353Y-29350173D01*
X151142413Y-29146732D01*
X150611914Y-29146269D01*
X150121620Y-29348854D01*
X149746173Y-29723647D01*
X149542732Y-30213587D01*
X149542269Y-30744086D01*
X149744854Y-31234380D01*
X150119647Y-31609827D01*
X150609587Y-31813268D01*
X151140086Y-31813731D01*
X151630380Y-31611146D01*
X152005827Y-31236353D01*
X152209268Y-30746413D01*
X152209731Y-30215914D01*
X152209731Y-43116333D01*
X152135914Y-43116269D01*
X151645620Y-43318854D01*
X151270173Y-43693647D01*
X151066732Y-44183587D01*
X151066269Y-44714086D01*
X151268854Y-45204380D01*
X151643647Y-45579827D01*
X152133587Y-45783268D01*
X152664086Y-45783731D01*
X153154380Y-45581146D01*
X153529827Y-45206353D01*
X153733268Y-44716413D01*
X153733731Y-44185914D01*
X153733731Y-57741115D01*
X153410353Y-57417173D01*
X152920413Y-57213732D01*
X152389914Y-57213269D01*
X151899620Y-57415854D01*
X151524173Y-57790647D01*
X151320732Y-58280587D01*
X151320269Y-58811086D01*
X151522854Y-59301380D01*
X151897647Y-59676827D01*
X152387587Y-59880268D01*
X152918086Y-59880731D01*
X153408380Y-59678146D01*
X153783827Y-59303353D01*
X153987268Y-58813413D01*
X153987731Y-58282914D01*
X153987731Y-72252914D01*
X153785146Y-71762620D01*
X153410353Y-71387173D01*
X152920413Y-71183732D01*
X152389914Y-71183269D01*
X151899620Y-71385854D01*
X151524173Y-71760647D01*
X151320732Y-72250587D01*
X151320269Y-72781086D01*
X151522854Y-73271380D01*
X151897647Y-73646827D01*
X152387587Y-73850268D01*
X152918086Y-73850731D01*
X153408380Y-73648146D01*
X153783827Y-73273353D01*
X153987268Y-72783413D01*
X153987731Y-72252914D01*
X153987731Y-100192914D01*
X153785146Y-99702620D01*
X153410353Y-99327173D01*
X153098731Y-99197776D01*
X153098731Y-86095914D01*
X152896146Y-85605620D01*
X152521353Y-85230173D01*
X152031413Y-85026732D01*
X151500914Y-85026269D01*
X151010620Y-85228854D01*
X150635173Y-85603647D01*
X150431732Y-86093587D01*
X150431269Y-86624086D01*
X150633854Y-87114380D01*
X151008647Y-87489827D01*
X151498587Y-87693268D01*
X152029086Y-87693731D01*
X152519380Y-87491146D01*
X152894827Y-87116353D01*
X153098268Y-86626413D01*
X153098731Y-86095914D01*
X153098731Y-99197776D01*
X152920413Y-99123732D01*
X152389914Y-99123269D01*
X151899620Y-99325854D01*
X151638000Y-99587018D01*
X151638000Y-97027310D01*
X151638000Y-96774691D01*
X151638000Y-94996691D01*
X151541327Y-94763302D01*
X151462244Y-94684219D01*
X151393573Y-94338984D01*
X151393573Y-94338983D01*
X151093343Y-93889657D01*
X150177731Y-92974045D01*
X150177731Y-89651914D01*
X149975146Y-89161620D01*
X149600353Y-88786173D01*
X149110413Y-88582732D01*
X148579914Y-88582269D01*
X148089620Y-88784854D01*
X147714173Y-89159647D01*
X147510732Y-89649587D01*
X147510269Y-90180086D01*
X147712854Y-90670380D01*
X148087647Y-91045827D01*
X148577587Y-91249268D01*
X149108086Y-91249731D01*
X149598380Y-91047146D01*
X149973827Y-90672353D01*
X150177268Y-90182413D01*
X150177731Y-89651914D01*
X150177731Y-92974045D01*
X148934343Y-91730657D01*
X148485017Y-91430427D01*
X147955000Y-91325000D01*
X146621731Y-91325000D01*
X146621731Y-89651914D01*
X146419146Y-89161620D01*
X146044353Y-88786173D01*
X145554413Y-88582732D01*
X145023914Y-88582269D01*
X144533620Y-88784854D01*
X144158173Y-89159647D01*
X143954732Y-89649587D01*
X143954269Y-90180086D01*
X144156854Y-90670380D01*
X144531647Y-91045827D01*
X145021587Y-91249268D01*
X145552086Y-91249731D01*
X146042380Y-91047146D01*
X146417827Y-90672353D01*
X146621268Y-90182413D01*
X146621731Y-89651914D01*
X146621731Y-91325000D01*
X143105000Y-91325000D01*
X143105000Y-87205685D01*
X143388647Y-87489827D01*
X143878587Y-87693268D01*
X144409086Y-87693731D01*
X144899380Y-87491146D01*
X145274827Y-87116353D01*
X145478268Y-86626413D01*
X145478731Y-86095914D01*
X145276146Y-85605620D01*
X144901353Y-85230173D01*
X144411413Y-85026732D01*
X143880914Y-85026269D01*
X143390620Y-85228854D01*
X143105000Y-85513976D01*
X143105000Y-80259346D01*
X143114673Y-80249673D01*
X143197976Y-80125000D01*
X147381314Y-80125000D01*
X147774488Y-80518174D01*
X147272188Y-80517736D01*
X146711851Y-80749262D01*
X146303664Y-81156737D01*
X145898404Y-80750769D01*
X145338472Y-80518265D01*
X144732188Y-80517736D01*
X144171851Y-80749262D01*
X143742769Y-81177596D01*
X143510265Y-81737528D01*
X143509736Y-82343812D01*
X143741262Y-82904149D01*
X144169596Y-83333231D01*
X144729528Y-83565735D01*
X145335812Y-83566264D01*
X145896149Y-83334738D01*
X146304335Y-82927262D01*
X146709596Y-83333231D01*
X147269528Y-83565735D01*
X147875812Y-83566264D01*
X148436149Y-83334738D01*
X148626292Y-83144926D01*
X148686673Y-83290698D01*
X148865301Y-83469327D01*
X149098690Y-83566000D01*
X149351309Y-83566000D01*
X151129309Y-83566000D01*
X151362698Y-83469327D01*
X151541327Y-83290699D01*
X151638000Y-83057310D01*
X151638000Y-82804691D01*
X151638000Y-81026691D01*
X151541327Y-80793302D01*
X151462244Y-80714219D01*
X151393573Y-80368984D01*
X151393573Y-80368983D01*
X151093343Y-79919657D01*
X150431731Y-79258045D01*
X150431731Y-75681914D01*
X150229146Y-75191620D01*
X149854353Y-74816173D01*
X149364413Y-74612732D01*
X148833914Y-74612269D01*
X148343620Y-74814854D01*
X147968173Y-75189647D01*
X147764732Y-75679587D01*
X147764269Y-76210086D01*
X147966854Y-76700380D01*
X148341647Y-77075827D01*
X148831587Y-77279268D01*
X149362086Y-77279731D01*
X149852380Y-77077146D01*
X150227827Y-76702353D01*
X150431268Y-76212413D01*
X150431731Y-75681914D01*
X150431731Y-79258045D01*
X148934343Y-77760657D01*
X148485017Y-77460427D01*
X147955000Y-77355000D01*
X146875731Y-77355000D01*
X146875731Y-75681914D01*
X146673146Y-75191620D01*
X146298353Y-74816173D01*
X145808413Y-74612732D01*
X145277914Y-74612269D01*
X144787620Y-74814854D01*
X144412173Y-75189647D01*
X144208732Y-75679587D01*
X144208269Y-76210086D01*
X144410854Y-76700380D01*
X144785647Y-77075827D01*
X145275587Y-77279268D01*
X145806086Y-77279731D01*
X146296380Y-77077146D01*
X146671827Y-76702353D01*
X146875268Y-76212413D01*
X146875731Y-75681914D01*
X146875731Y-77355000D01*
X143740000Y-77355000D01*
X143740000Y-72877242D01*
X143902854Y-73271380D01*
X144277647Y-73646827D01*
X144767587Y-73850268D01*
X145298086Y-73850731D01*
X145788380Y-73648146D01*
X146163827Y-73273353D01*
X146367268Y-72783413D01*
X146367731Y-72252914D01*
X146165146Y-71762620D01*
X145790353Y-71387173D01*
X145300413Y-71183732D01*
X144769914Y-71183269D01*
X144279620Y-71385854D01*
X143904173Y-71760647D01*
X143740000Y-72156019D01*
X143740000Y-68931094D01*
X143741262Y-68934149D01*
X144169596Y-69363231D01*
X144729528Y-69595735D01*
X145335812Y-69596264D01*
X145896149Y-69364738D01*
X146304335Y-68957262D01*
X146709596Y-69363231D01*
X147269528Y-69595735D01*
X147875812Y-69596264D01*
X148436149Y-69364738D01*
X148626292Y-69174926D01*
X148686673Y-69320698D01*
X148865301Y-69499327D01*
X149098690Y-69596000D01*
X149351309Y-69596000D01*
X151129309Y-69596000D01*
X151362698Y-69499327D01*
X151541327Y-69320699D01*
X151638000Y-69087310D01*
X151638000Y-68834691D01*
X151638000Y-67056691D01*
X151541327Y-66823302D01*
X151362699Y-66644673D01*
X151245000Y-66595920D01*
X151245000Y-65405000D01*
X151139574Y-64874984D01*
X151139573Y-64874983D01*
X150939731Y-64575898D01*
X150939731Y-61711914D01*
X150737146Y-61221620D01*
X150362353Y-60846173D01*
X149872413Y-60642732D01*
X149341914Y-60642269D01*
X148851620Y-60844854D01*
X148476173Y-61219647D01*
X148272732Y-61709587D01*
X148272269Y-62240086D01*
X148474854Y-62730380D01*
X148849647Y-63105827D01*
X149339587Y-63309268D01*
X149870086Y-63309731D01*
X150360380Y-63107146D01*
X150735827Y-62732353D01*
X150939268Y-62242413D01*
X150939731Y-61711914D01*
X150939731Y-64575898D01*
X150839343Y-64425657D01*
X150204343Y-63790657D01*
X149755017Y-63490427D01*
X149225000Y-63385000D01*
X147637731Y-63385000D01*
X147637731Y-61711914D01*
X147435146Y-61221620D01*
X147060353Y-60846173D01*
X146570413Y-60642732D01*
X146039914Y-60642269D01*
X145549620Y-60844854D01*
X145174173Y-61219647D01*
X144970732Y-61709587D01*
X144970269Y-62240086D01*
X145172854Y-62730380D01*
X145547647Y-63105827D01*
X146037587Y-63309268D01*
X146568086Y-63309731D01*
X147058380Y-63107146D01*
X147433827Y-62732353D01*
X147637268Y-62242413D01*
X147637731Y-61711914D01*
X147637731Y-63385000D01*
X144375000Y-63385000D01*
X144375000Y-60325000D01*
X144238213Y-59637324D01*
X144277647Y-59676827D01*
X144767587Y-59880268D01*
X145298086Y-59880731D01*
X145788380Y-59678146D01*
X146163827Y-59303353D01*
X146367268Y-58813413D01*
X146367731Y-58282914D01*
X146165146Y-57792620D01*
X145790353Y-57417173D01*
X145300413Y-57213732D01*
X144769914Y-57213269D01*
X144279620Y-57415854D01*
X143904173Y-57790647D01*
X143700732Y-58280587D01*
X143700308Y-58765962D01*
X143105000Y-58170654D01*
X143105000Y-52820000D01*
X144161094Y-52820000D01*
X143742769Y-53237596D01*
X143510265Y-53797528D01*
X143509736Y-54403812D01*
X143741262Y-54964149D01*
X144169596Y-55393231D01*
X144729528Y-55625735D01*
X145335812Y-55626264D01*
X145896149Y-55394738D01*
X146304335Y-54987262D01*
X146709596Y-55393231D01*
X147269528Y-55625735D01*
X147875812Y-55626264D01*
X148436149Y-55394738D01*
X148626292Y-55204926D01*
X148686673Y-55350698D01*
X148865301Y-55529327D01*
X149098690Y-55626000D01*
X149351309Y-55626000D01*
X151129309Y-55626000D01*
X151362698Y-55529327D01*
X151541327Y-55350699D01*
X151638000Y-55117310D01*
X151638000Y-54864691D01*
X151638000Y-53086691D01*
X151541327Y-52853302D01*
X151462244Y-52774219D01*
X151393573Y-52428984D01*
X151393573Y-52428983D01*
X151093343Y-51979657D01*
X149569343Y-50455657D01*
X149415731Y-50353016D01*
X149415731Y-47741914D01*
X149213146Y-47251620D01*
X148838353Y-46876173D01*
X148348413Y-46672732D01*
X147817914Y-46672269D01*
X147327620Y-46874854D01*
X146952173Y-47249647D01*
X146748732Y-47739587D01*
X146748269Y-48270086D01*
X146950854Y-48760380D01*
X147325647Y-49135827D01*
X147815587Y-49339268D01*
X148346086Y-49339731D01*
X148836380Y-49137146D01*
X149211827Y-48762353D01*
X149415268Y-48272413D01*
X149415731Y-47741914D01*
X149415731Y-50353016D01*
X149120017Y-50155427D01*
X148590000Y-50050000D01*
X146113731Y-50050000D01*
X146113731Y-44185914D01*
X145911146Y-43695620D01*
X145536353Y-43320173D01*
X145046413Y-43116732D01*
X144515914Y-43116269D01*
X144025620Y-43318854D01*
X143650173Y-43693647D01*
X143446732Y-44183587D01*
X143446269Y-44714086D01*
X143648854Y-45204380D01*
X144023647Y-45579827D01*
X144513587Y-45783268D01*
X145044086Y-45783731D01*
X145534380Y-45581146D01*
X145909827Y-45206353D01*
X146113268Y-44716413D01*
X146113731Y-44185914D01*
X146113731Y-50050000D01*
X145859731Y-50050000D01*
X145859731Y-47741914D01*
X145657146Y-47251620D01*
X145282353Y-46876173D01*
X144792413Y-46672732D01*
X144261914Y-46672269D01*
X143771620Y-46874854D01*
X143396173Y-47249647D01*
X143192732Y-47739587D01*
X143192269Y-48270086D01*
X143394854Y-48760380D01*
X143769647Y-49135827D01*
X144259587Y-49339268D01*
X144790086Y-49339731D01*
X145280380Y-49137146D01*
X145655827Y-48762353D01*
X145859268Y-48272413D01*
X145859731Y-47741914D01*
X145859731Y-50050000D01*
X143105000Y-50050000D01*
X143105000Y-46355000D01*
X143105000Y-38850000D01*
X144161094Y-38850000D01*
X143742769Y-39267596D01*
X143510265Y-39827528D01*
X143509736Y-40433812D01*
X143741262Y-40994149D01*
X144169596Y-41423231D01*
X144729528Y-41655735D01*
X145335812Y-41656264D01*
X145896149Y-41424738D01*
X146304335Y-41017262D01*
X146709596Y-41423231D01*
X147269528Y-41655735D01*
X147875812Y-41656264D01*
X148436149Y-41424738D01*
X148626292Y-41234926D01*
X148686673Y-41380698D01*
X148865301Y-41559327D01*
X149098690Y-41656000D01*
X149351309Y-41656000D01*
X151129309Y-41656000D01*
X151362698Y-41559327D01*
X151541327Y-41380699D01*
X151638000Y-41147310D01*
X151638000Y-40894691D01*
X151638000Y-39116691D01*
X151541327Y-38883302D01*
X151462244Y-38804219D01*
X151393573Y-38458984D01*
X151393573Y-38458983D01*
X151093343Y-38009657D01*
X149569343Y-36485657D01*
X149120017Y-36185427D01*
X148907731Y-36143200D01*
X148907731Y-33771914D01*
X148705146Y-33281620D01*
X148330353Y-32906173D01*
X147840413Y-32702732D01*
X147309914Y-32702269D01*
X146819620Y-32904854D01*
X146444173Y-33279647D01*
X146240732Y-33769587D01*
X146240269Y-34300086D01*
X146442854Y-34790380D01*
X146817647Y-35165827D01*
X147307587Y-35369268D01*
X147838086Y-35369731D01*
X148328380Y-35167146D01*
X148703827Y-34792353D01*
X148907268Y-34302413D01*
X148907731Y-33771914D01*
X148907731Y-36143200D01*
X148590000Y-36080000D01*
X143105000Y-36080000D01*
X143105000Y-35008906D01*
X143261647Y-35165827D01*
X143751587Y-35369268D01*
X144282086Y-35369731D01*
X144772380Y-35167146D01*
X145147827Y-34792353D01*
X145351268Y-34302413D01*
X145351731Y-33771914D01*
X145149146Y-33281620D01*
X144774353Y-32906173D01*
X144284413Y-32702732D01*
X143753914Y-32702269D01*
X143263620Y-32904854D01*
X143105000Y-33063197D01*
X143105000Y-33020000D01*
X142942483Y-32202971D01*
X142942483Y-32202970D01*
X142564016Y-31636555D01*
X142989587Y-31813268D01*
X143520086Y-31813731D01*
X144010380Y-31611146D01*
X144385827Y-31236353D01*
X144589268Y-30746413D01*
X144589731Y-30215914D01*
X144387146Y-29725620D01*
X144012353Y-29350173D01*
X143522413Y-29146732D01*
X142991914Y-29146269D01*
X142501620Y-29348854D01*
X142126173Y-29723647D01*
X141922732Y-30213587D01*
X141922269Y-30744086D01*
X142069317Y-31099971D01*
X141835000Y-30865654D01*
X141835000Y-26919346D01*
X143749673Y-25004673D01*
X143832976Y-24880000D01*
X144161094Y-24880000D01*
X143742769Y-25297596D01*
X143510265Y-25857528D01*
X143509736Y-26463812D01*
X143741262Y-27024149D01*
X144169596Y-27453231D01*
X144729528Y-27685735D01*
X145335812Y-27686264D01*
X145896149Y-27454738D01*
X146304335Y-27047262D01*
X146709596Y-27453231D01*
X147269528Y-27685735D01*
X147875812Y-27686264D01*
X148436149Y-27454738D01*
X148626292Y-27264926D01*
X148686673Y-27410698D01*
X148865301Y-27589327D01*
X149098690Y-27686000D01*
X149351309Y-27686000D01*
X151129309Y-27686000D01*
X151362698Y-27589327D01*
X151541327Y-27410699D01*
X151638000Y-27177310D01*
X151638000Y-26924691D01*
X151638000Y-25146691D01*
X151541327Y-24913302D01*
X151462244Y-24834219D01*
X151393573Y-24488984D01*
X151393573Y-24488983D01*
X151093343Y-24039657D01*
X149569343Y-22515657D01*
X149120017Y-22215427D01*
X148590000Y-22110000D01*
X143832976Y-22110000D01*
X143749673Y-21985327D01*
X143057029Y-21522517D01*
X142240000Y-21360000D01*
X141422970Y-21522517D01*
X140730327Y-21985327D01*
X138190327Y-24525327D01*
X137727517Y-25217971D01*
X137565000Y-26035000D01*
X137565000Y-31750000D01*
X137727517Y-32567029D01*
X138190327Y-33259673D01*
X138835000Y-33904346D01*
X138835000Y-37465000D01*
X138835000Y-46355000D01*
X138835000Y-51435000D01*
X138835000Y-59055000D01*
X138997517Y-59872029D01*
X139460327Y-60564673D01*
X140105000Y-61209346D01*
X140105000Y-62615654D01*
X140095327Y-62625327D01*
X140017731Y-62741457D01*
X140017731Y-61711914D01*
X139815146Y-61221620D01*
X139440353Y-60846173D01*
X138950413Y-60642732D01*
X138419914Y-60642269D01*
X138239731Y-60716718D01*
X138239731Y-47741914D01*
X138037146Y-47251620D01*
X137731731Y-46945672D01*
X137731731Y-33771914D01*
X137529146Y-33281620D01*
X137154353Y-32906173D01*
X136664413Y-32702732D01*
X136133914Y-32702269D01*
X135993240Y-32760394D01*
X135993240Y-29295211D01*
X135668910Y-28510273D01*
X135068886Y-27909200D01*
X134284515Y-27583501D01*
X133435211Y-27582760D01*
X132650273Y-27907090D01*
X132049200Y-28507114D01*
X131723501Y-29291485D01*
X131722760Y-30140789D01*
X132047090Y-30925727D01*
X132647114Y-31526800D01*
X133431485Y-31852499D01*
X134280789Y-31853240D01*
X135065727Y-31528910D01*
X135666800Y-30928886D01*
X135992499Y-30144515D01*
X135993240Y-29295211D01*
X135993240Y-32760394D01*
X135643620Y-32904854D01*
X135268173Y-33279647D01*
X135064732Y-33769587D01*
X135064269Y-34300086D01*
X135266854Y-34790380D01*
X135641647Y-35165827D01*
X136131587Y-35369268D01*
X136662086Y-35369731D01*
X137152380Y-35167146D01*
X137527827Y-34792353D01*
X137731268Y-34302413D01*
X137731731Y-33771914D01*
X137731731Y-46945672D01*
X137662353Y-46876173D01*
X137172413Y-46672732D01*
X136641914Y-46672269D01*
X136151620Y-46874854D01*
X135776173Y-47249647D01*
X135572732Y-47739587D01*
X135572269Y-48270086D01*
X135774854Y-48760380D01*
X136149647Y-49135827D01*
X136639587Y-49339268D01*
X137170086Y-49339731D01*
X137660380Y-49137146D01*
X138035827Y-48762353D01*
X138239268Y-48272413D01*
X138239731Y-47741914D01*
X138239731Y-60716718D01*
X137929620Y-60844854D01*
X137554173Y-61219647D01*
X137350732Y-61709587D01*
X137350269Y-62240086D01*
X137552854Y-62730380D01*
X137927647Y-63105827D01*
X138417587Y-63309268D01*
X138948086Y-63309731D01*
X139438380Y-63107146D01*
X139813827Y-62732353D01*
X140017268Y-62242413D01*
X140017731Y-61711914D01*
X140017731Y-62741457D01*
X139632517Y-63317971D01*
X139470000Y-64135000D01*
X139470000Y-64770000D01*
X139470000Y-67061751D01*
X139404337Y-66995974D01*
X138937727Y-66802221D01*
X138701831Y-66802015D01*
X138998026Y-66506337D01*
X139191779Y-66039727D01*
X139192220Y-65534490D01*
X138999282Y-65067542D01*
X138642337Y-64709974D01*
X138175727Y-64516221D01*
X137670490Y-64515780D01*
X137414129Y-64621705D01*
X137414220Y-64518490D01*
X137221282Y-64051542D01*
X136864337Y-63693974D01*
X136397727Y-63500221D01*
X136125562Y-63499983D01*
X135330927Y-62705348D01*
X135330927Y-54802520D01*
X135302148Y-54272801D01*
X135154800Y-53917071D01*
X134919188Y-53855417D01*
X134739583Y-54035022D01*
X134739583Y-53675812D01*
X134677929Y-53440200D01*
X134177520Y-53264073D01*
X133647801Y-53292852D01*
X133292071Y-53440200D01*
X133230417Y-53675812D01*
X133985000Y-54430395D01*
X134739583Y-53675812D01*
X134739583Y-54035022D01*
X134164605Y-54610000D01*
X134919188Y-55364583D01*
X135154800Y-55302929D01*
X135330927Y-54802520D01*
X135330927Y-62705348D01*
X135260679Y-62635100D01*
X135318268Y-62496413D01*
X135318731Y-61965914D01*
X135116146Y-61475620D01*
X134741353Y-61100173D01*
X134403553Y-60959906D01*
X134739380Y-60821146D01*
X135114827Y-60446353D01*
X135318268Y-59956413D01*
X135318731Y-59425914D01*
X135116146Y-58935620D01*
X134741353Y-58560173D01*
X134403553Y-58419906D01*
X134739380Y-58281146D01*
X135114827Y-57906353D01*
X135318268Y-57416413D01*
X135318731Y-56885914D01*
X135116146Y-56395620D01*
X134741353Y-56020173D01*
X134419881Y-55886686D01*
X134677929Y-55779800D01*
X134739583Y-55544188D01*
X133985000Y-54789605D01*
X133805395Y-54969210D01*
X133805395Y-54610000D01*
X133050812Y-53855417D01*
X132815200Y-53917071D01*
X132790927Y-53986035D01*
X132790927Y-49722520D01*
X132762148Y-49192801D01*
X132614800Y-48837071D01*
X132379188Y-48775417D01*
X132199583Y-48955022D01*
X132199583Y-48595812D01*
X132137929Y-48360200D01*
X131637520Y-48184073D01*
X131107801Y-48212852D01*
X130810220Y-48336113D01*
X130810220Y-28196490D01*
X130617282Y-27729542D01*
X130425000Y-27536924D01*
X130425000Y-24384005D01*
X130425000Y-24384000D01*
X130425001Y-24384000D01*
X130368810Y-24101515D01*
X130357633Y-24045326D01*
X130357633Y-24045325D01*
X130165790Y-23758211D01*
X130165790Y-23758210D01*
X130165786Y-23758207D01*
X129793984Y-23386405D01*
X129794220Y-23116490D01*
X129601282Y-22649542D01*
X129244337Y-22291974D01*
X128777727Y-22098221D01*
X128272490Y-22097780D01*
X127805542Y-22290718D01*
X127447974Y-22647663D01*
X127254221Y-23114273D01*
X127253780Y-23619510D01*
X127446718Y-24086458D01*
X127803663Y-24444026D01*
X128270273Y-24637779D01*
X128542437Y-24638016D01*
X128655000Y-24750579D01*
X128655000Y-27536969D01*
X128647000Y-27544955D01*
X128647000Y-27432005D01*
X128647000Y-27432000D01*
X128647001Y-27432000D01*
X128590810Y-27149515D01*
X128579633Y-27093326D01*
X128579633Y-27093325D01*
X128387790Y-26806211D01*
X128387790Y-26806210D01*
X128387786Y-26806207D01*
X127885000Y-26303420D01*
X127885000Y-26035005D01*
X127885000Y-26035000D01*
X127885001Y-26035000D01*
X127828810Y-25752515D01*
X127817633Y-25696326D01*
X127817633Y-25696325D01*
X127625790Y-25409210D01*
X127625786Y-25409207D01*
X125158429Y-22941849D01*
X125158731Y-22595914D01*
X124956146Y-22105620D01*
X124581353Y-21730173D01*
X124091413Y-21526732D01*
X123560914Y-21526269D01*
X123070620Y-21728854D01*
X122695173Y-22103647D01*
X122491732Y-22593587D01*
X122491269Y-23124086D01*
X122693854Y-23614380D01*
X123068647Y-23989827D01*
X123406446Y-24130093D01*
X123070620Y-24268854D01*
X122695173Y-24643647D01*
X122491732Y-25133587D01*
X122491269Y-25664086D01*
X122693854Y-26154380D01*
X123068647Y-26529827D01*
X123406446Y-26670093D01*
X123070620Y-26808854D01*
X122695173Y-27183647D01*
X122491732Y-27673587D01*
X122491269Y-28204086D01*
X122693854Y-28694380D01*
X123068647Y-29069827D01*
X123253295Y-29146500D01*
X123252809Y-29146500D01*
X123000190Y-29146500D01*
X122766801Y-29243173D01*
X122588173Y-29421802D01*
X122491500Y-29655191D01*
X122491500Y-30194250D01*
X122650250Y-30353000D01*
X123698000Y-30353000D01*
X123698000Y-30333000D01*
X123952000Y-30333000D01*
X123952000Y-30353000D01*
X123972000Y-30353000D01*
X123972000Y-30607000D01*
X123952000Y-30607000D01*
X123952000Y-31654750D01*
X124110750Y-31813500D01*
X124397191Y-31813500D01*
X124591000Y-31813500D01*
X124591000Y-32257994D01*
X124590999Y-32258000D01*
X124647189Y-32540484D01*
X124658367Y-32596675D01*
X124850210Y-32883790D01*
X125730015Y-33763595D01*
X125729780Y-34033510D01*
X125922718Y-34500458D01*
X126279663Y-34858026D01*
X126746273Y-35051779D01*
X127251510Y-35052220D01*
X127718458Y-34859282D01*
X128076026Y-34502337D01*
X128269779Y-34035727D01*
X128270220Y-33530490D01*
X128216252Y-33399877D01*
X128524273Y-33527779D01*
X129029510Y-33528220D01*
X129496458Y-33335282D01*
X129854026Y-32978337D01*
X130047779Y-32511727D01*
X130048220Y-32006490D01*
X129855282Y-31539542D01*
X129498337Y-31181974D01*
X129031727Y-30988221D01*
X128526490Y-30987780D01*
X128152066Y-31142487D01*
X127743563Y-30733984D01*
X128013510Y-30734220D01*
X128480458Y-30541282D01*
X128838026Y-30184337D01*
X129031779Y-29717727D01*
X129031871Y-29612142D01*
X129286273Y-29717779D01*
X129791510Y-29718220D01*
X130258458Y-29525282D01*
X130616026Y-29168337D01*
X130809779Y-28701727D01*
X130810220Y-28196490D01*
X130810220Y-48336113D01*
X130752071Y-48360200D01*
X130690417Y-48595812D01*
X131445000Y-49350395D01*
X132199583Y-48595812D01*
X132199583Y-48955022D01*
X131624605Y-49530000D01*
X132379188Y-50284583D01*
X132614800Y-50222929D01*
X132790927Y-49722520D01*
X132790927Y-53986035D01*
X132639073Y-54417480D01*
X132667852Y-54947199D01*
X132815200Y-55302929D01*
X133050812Y-55364583D01*
X133805395Y-54610000D01*
X133805395Y-54969210D01*
X133230417Y-55544188D01*
X133292071Y-55779800D01*
X133571311Y-55878083D01*
X133230620Y-56018854D01*
X132855173Y-56393647D01*
X132709154Y-56745297D01*
X132419337Y-56454974D01*
X132199583Y-56363724D01*
X132199583Y-50464188D01*
X131445000Y-49709605D01*
X131265395Y-49889210D01*
X131265395Y-49530000D01*
X130510812Y-48775417D01*
X130275200Y-48837071D01*
X130176916Y-49116311D01*
X130036146Y-48775620D01*
X129661353Y-48400173D01*
X129171413Y-48196732D01*
X128640914Y-48196269D01*
X128150620Y-48398854D01*
X127775173Y-48773647D01*
X127571732Y-49263587D01*
X127571269Y-49794086D01*
X127773854Y-50284380D01*
X128148647Y-50659827D01*
X128638587Y-50863268D01*
X129169086Y-50863731D01*
X129659380Y-50661146D01*
X130034827Y-50286353D01*
X130168313Y-49964881D01*
X130275200Y-50222929D01*
X130510812Y-50284583D01*
X131265395Y-49530000D01*
X131265395Y-49889210D01*
X130690417Y-50464188D01*
X130752071Y-50699800D01*
X131252480Y-50875927D01*
X131782199Y-50847148D01*
X132137929Y-50699800D01*
X132199583Y-50464188D01*
X132199583Y-56363724D01*
X131952727Y-56261221D01*
X131447490Y-56260780D01*
X131187000Y-56368411D01*
X131187000Y-54356000D01*
X131119633Y-54017325D01*
X130927790Y-53730210D01*
X130927786Y-53730207D01*
X126999984Y-49802404D01*
X127000220Y-49532490D01*
X126807282Y-49065542D01*
X126450337Y-48707974D01*
X125983727Y-48514221D01*
X125478490Y-48513780D01*
X125011542Y-48706718D01*
X124653974Y-49063663D01*
X124460221Y-49530273D01*
X124459780Y-50035510D01*
X124652718Y-50502458D01*
X125009663Y-50860026D01*
X125476273Y-51053779D01*
X125748436Y-51054016D01*
X129417000Y-54722579D01*
X129417000Y-65509969D01*
X129225974Y-65700663D01*
X129032221Y-66167273D01*
X129031780Y-66672510D01*
X129224718Y-67139458D01*
X129581663Y-67497026D01*
X130048273Y-67690779D01*
X130553510Y-67691220D01*
X131020458Y-67498282D01*
X131195000Y-67324044D01*
X131195000Y-67944994D01*
X131194999Y-67945000D01*
X131251189Y-68227484D01*
X131262367Y-68283675D01*
X131454210Y-68570790D01*
X132651570Y-69768150D01*
X132651269Y-70114086D01*
X132853854Y-70604380D01*
X133228647Y-70979827D01*
X133566446Y-71120093D01*
X133230620Y-71258854D01*
X132855173Y-71633647D01*
X132651732Y-72123587D01*
X132651269Y-72654086D01*
X132853854Y-73144380D01*
X133228647Y-73519827D01*
X133566675Y-73660188D01*
X133098490Y-73659780D01*
X132631542Y-73852718D01*
X132273974Y-74209663D01*
X132080221Y-74676273D01*
X132079780Y-75181510D01*
X132272718Y-75648458D01*
X132629663Y-76006026D01*
X133096273Y-76199779D01*
X133368437Y-76200016D01*
X133740207Y-76571786D01*
X133740210Y-76571790D01*
X133740211Y-76571790D01*
X134027325Y-76763633D01*
X134027326Y-76763633D01*
X134083515Y-76774810D01*
X134366000Y-76831001D01*
X134366000Y-76831000D01*
X134366005Y-76831000D01*
X135128000Y-76831000D01*
X136921246Y-76831000D01*
X137165647Y-77075827D01*
X137655587Y-77279268D01*
X138186086Y-77279731D01*
X138676380Y-77077146D01*
X139051827Y-76702353D01*
X139255268Y-76212413D01*
X139255731Y-75681914D01*
X139053146Y-75191620D01*
X138678353Y-74816173D01*
X138188413Y-74612732D01*
X137657914Y-74612269D01*
X137167620Y-74814854D01*
X136921044Y-75061000D01*
X135128000Y-75061000D01*
X134732579Y-75061000D01*
X134619984Y-74948405D01*
X134620220Y-74678490D01*
X134427282Y-74211542D01*
X134070337Y-73853974D01*
X133755639Y-73723300D01*
X134249086Y-73723731D01*
X134739380Y-73521146D01*
X135114827Y-73146353D01*
X135318268Y-72656413D01*
X135318731Y-72125914D01*
X135116146Y-71635620D01*
X134741353Y-71260173D01*
X134403553Y-71119906D01*
X134739380Y-70981146D01*
X135114827Y-70606353D01*
X135318268Y-70116413D01*
X135318731Y-69585914D01*
X135116146Y-69095620D01*
X134741353Y-68720173D01*
X134403553Y-68579906D01*
X134739380Y-68441146D01*
X134985955Y-68195000D01*
X137413892Y-68195000D01*
X137413780Y-68323510D01*
X137606718Y-68790458D01*
X137963663Y-69148026D01*
X138430273Y-69341779D01*
X138935510Y-69342220D01*
X139402458Y-69149282D01*
X139470000Y-69081857D01*
X139470000Y-77855654D01*
X139460327Y-77865327D01*
X138997517Y-78557971D01*
X138835000Y-79375000D01*
X138835000Y-89248393D01*
X138799146Y-89161620D01*
X138424353Y-88786173D01*
X137934413Y-88582732D01*
X137403914Y-88582269D01*
X136913620Y-88784854D01*
X136538173Y-89159647D01*
X136334732Y-89649587D01*
X136334269Y-90180086D01*
X136497443Y-90575000D01*
X135636000Y-90575000D01*
X134818971Y-90737517D01*
X134126327Y-91200327D01*
X133110327Y-92216327D01*
X132647517Y-92908971D01*
X132485000Y-93726000D01*
X132485000Y-97179000D01*
X130631927Y-97179000D01*
X130631927Y-82996520D01*
X130631927Y-79694520D01*
X130619731Y-79470035D01*
X130619731Y-76697914D01*
X130417146Y-76207620D01*
X130042353Y-75832173D01*
X129552413Y-75628732D01*
X129021914Y-75628269D01*
X128531620Y-75830854D01*
X128156173Y-76205647D01*
X127952732Y-76695587D01*
X127952269Y-77226086D01*
X128154854Y-77716380D01*
X128529647Y-78091827D01*
X128851118Y-78225313D01*
X128593071Y-78332200D01*
X128531417Y-78567812D01*
X129286000Y-79322395D01*
X130040583Y-78567812D01*
X129978929Y-78332200D01*
X129699688Y-78233916D01*
X130040380Y-78093146D01*
X130415827Y-77718353D01*
X130619268Y-77228413D01*
X130619731Y-76697914D01*
X130619731Y-79470035D01*
X130603148Y-79164801D01*
X130455800Y-78809071D01*
X130220188Y-78747417D01*
X129465605Y-79502000D01*
X130220188Y-80256583D01*
X130455800Y-80194929D01*
X130631927Y-79694520D01*
X130631927Y-82996520D01*
X130603148Y-82466801D01*
X130455800Y-82111071D01*
X130220188Y-82049417D01*
X130040583Y-82229022D01*
X130040583Y-81869812D01*
X130040583Y-80436188D01*
X129286000Y-79681605D01*
X129106395Y-79861210D01*
X129106395Y-79502000D01*
X128351812Y-78747417D01*
X128116200Y-78809071D01*
X127940073Y-79309480D01*
X127968852Y-79839199D01*
X128116200Y-80194929D01*
X128351812Y-80256583D01*
X129106395Y-79502000D01*
X129106395Y-79861210D01*
X128531417Y-80436188D01*
X128593071Y-80671800D01*
X129093480Y-80847927D01*
X129623199Y-80819148D01*
X129978929Y-80671800D01*
X130040583Y-80436188D01*
X130040583Y-81869812D01*
X129978929Y-81634200D01*
X129478520Y-81458073D01*
X128948801Y-81486852D01*
X128593071Y-81634200D01*
X128531417Y-81869812D01*
X129286000Y-82624395D01*
X130040583Y-81869812D01*
X130040583Y-82229022D01*
X129465605Y-82804000D01*
X130220188Y-83558583D01*
X130455800Y-83496929D01*
X130631927Y-82996520D01*
X130631927Y-97179000D01*
X130619731Y-97179000D01*
X130619731Y-85079914D01*
X130417146Y-84589620D01*
X130042353Y-84214173D01*
X129720881Y-84080686D01*
X129978929Y-83973800D01*
X130040583Y-83738188D01*
X129286000Y-82983605D01*
X129106395Y-83163210D01*
X129106395Y-82804000D01*
X128351812Y-82049417D01*
X128116200Y-82111071D01*
X127940073Y-82611480D01*
X127968852Y-83141199D01*
X128116200Y-83496929D01*
X128351812Y-83558583D01*
X129106395Y-82804000D01*
X129106395Y-83163210D01*
X128531417Y-83738188D01*
X128593071Y-83973800D01*
X128872311Y-84072083D01*
X128531620Y-84212854D01*
X128156173Y-84587647D01*
X127952732Y-85077587D01*
X127952269Y-85608086D01*
X128154854Y-86098380D01*
X128529647Y-86473827D01*
X129019587Y-86677268D01*
X129550086Y-86677731D01*
X130040380Y-86475146D01*
X130415827Y-86100353D01*
X130619268Y-85610413D01*
X130619731Y-85079914D01*
X130619731Y-97179000D01*
X129540000Y-97179000D01*
X128722970Y-97341517D01*
X128030327Y-97804327D01*
X127710927Y-98123727D01*
X127710927Y-72582520D01*
X127698731Y-72358035D01*
X127698731Y-69585914D01*
X127496146Y-69095620D01*
X127121353Y-68720173D01*
X126783553Y-68579906D01*
X127119380Y-68441146D01*
X127494827Y-68066353D01*
X127698268Y-67576413D01*
X127698731Y-67045914D01*
X127496146Y-66555620D01*
X127121353Y-66180173D01*
X126783553Y-66039906D01*
X127119380Y-65901146D01*
X127494827Y-65526353D01*
X127698268Y-65036413D01*
X127698731Y-64505914D01*
X127496146Y-64015620D01*
X127121353Y-63640173D01*
X126783553Y-63499906D01*
X127119380Y-63361146D01*
X127494827Y-62986353D01*
X127698268Y-62496413D01*
X127698731Y-61965914D01*
X127496146Y-61475620D01*
X127121353Y-61100173D01*
X126783553Y-60959906D01*
X127119380Y-60821146D01*
X127494827Y-60446353D01*
X127698268Y-59956413D01*
X127698731Y-59425914D01*
X127496146Y-58935620D01*
X127121353Y-58560173D01*
X126783553Y-58419906D01*
X127119380Y-58281146D01*
X127494827Y-57906353D01*
X127698268Y-57416413D01*
X127698731Y-56885914D01*
X127496146Y-56395620D01*
X127121353Y-56020173D01*
X126936704Y-55943500D01*
X127189809Y-55943500D01*
X127423198Y-55846827D01*
X127601827Y-55668199D01*
X127698500Y-55434810D01*
X127698500Y-55182191D01*
X127698500Y-53785191D01*
X127601827Y-53551802D01*
X127423199Y-53373173D01*
X127189810Y-53276500D01*
X126937191Y-53276500D01*
X125650563Y-53276500D01*
X125729779Y-53085727D01*
X125730220Y-52580490D01*
X125537282Y-52113542D01*
X125180337Y-51755974D01*
X124713727Y-51562221D01*
X124208490Y-51561780D01*
X123741542Y-51754718D01*
X123698000Y-51798184D01*
X123698000Y-31654750D01*
X123698000Y-30607000D01*
X122650250Y-30607000D01*
X122491500Y-30765750D01*
X122491500Y-31304809D01*
X122588173Y-31538198D01*
X122766801Y-31716827D01*
X123000190Y-31813500D01*
X123252809Y-31813500D01*
X123539250Y-31813500D01*
X123698000Y-31654750D01*
X123698000Y-51798184D01*
X123383974Y-52111663D01*
X123190221Y-52578273D01*
X123189780Y-53083510D01*
X123382718Y-53550458D01*
X123575000Y-53743075D01*
X123575000Y-55879994D01*
X123574999Y-55880000D01*
X123631189Y-56162484D01*
X123642367Y-56218675D01*
X123834210Y-56505790D01*
X125104207Y-57775786D01*
X125104210Y-57775790D01*
X125209901Y-57846410D01*
X125233854Y-57904380D01*
X125608647Y-58279827D01*
X125946446Y-58420093D01*
X125610620Y-58558854D01*
X125235173Y-58933647D01*
X125031732Y-59423587D01*
X125031269Y-59954086D01*
X125233854Y-60444380D01*
X125608647Y-60819827D01*
X125946446Y-60960093D01*
X125610620Y-61098854D01*
X125235173Y-61473647D01*
X125031732Y-61963587D01*
X125031269Y-62494086D01*
X125233854Y-62984380D01*
X125608647Y-63359827D01*
X125946446Y-63500093D01*
X125610620Y-63638854D01*
X125235173Y-64013647D01*
X125031732Y-64503587D01*
X125031269Y-65034086D01*
X125233854Y-65524380D01*
X125608647Y-65899827D01*
X125946446Y-66040093D01*
X125610620Y-66178854D01*
X125235173Y-66553647D01*
X125031732Y-67043587D01*
X125031269Y-67574086D01*
X125233854Y-68064380D01*
X125608647Y-68439827D01*
X125946446Y-68580093D01*
X125610620Y-68718854D01*
X125235173Y-69093647D01*
X125031732Y-69583587D01*
X125031269Y-70114086D01*
X125233854Y-70604380D01*
X125608647Y-70979827D01*
X125930118Y-71113313D01*
X125672071Y-71220200D01*
X125610417Y-71455812D01*
X126365000Y-72210395D01*
X127119583Y-71455812D01*
X127057929Y-71220200D01*
X126778688Y-71121916D01*
X127119380Y-70981146D01*
X127494827Y-70606353D01*
X127698268Y-70116413D01*
X127698731Y-69585914D01*
X127698731Y-72358035D01*
X127682148Y-72052801D01*
X127534800Y-71697071D01*
X127299188Y-71635417D01*
X126544605Y-72390000D01*
X127299188Y-73144583D01*
X127534800Y-73082929D01*
X127710927Y-72582520D01*
X127710927Y-98123727D01*
X127611240Y-98223414D01*
X127611240Y-95081211D01*
X127286910Y-94296273D01*
X127119583Y-94128653D01*
X127119583Y-73324188D01*
X126365000Y-72569605D01*
X126185395Y-72749210D01*
X126185395Y-72390000D01*
X125430812Y-71635417D01*
X125195200Y-71697071D01*
X125019073Y-72197480D01*
X125047852Y-72727199D01*
X125195200Y-73082929D01*
X125430812Y-73144583D01*
X126185395Y-72390000D01*
X126185395Y-72749210D01*
X125610417Y-73324188D01*
X125672071Y-73559800D01*
X126172480Y-73735927D01*
X126702199Y-73707148D01*
X127057929Y-73559800D01*
X127119583Y-73324188D01*
X127119583Y-94128653D01*
X126757516Y-93765953D01*
X126757516Y-79994035D01*
X126746000Y-79723587D01*
X126731723Y-79388300D01*
X126549539Y-78948467D01*
X126294198Y-78863409D01*
X126408788Y-78748820D01*
X126352326Y-78692358D01*
X126470698Y-78643327D01*
X126649327Y-78464699D01*
X126746000Y-78231310D01*
X126746000Y-77978691D01*
X126746000Y-76200691D01*
X126649327Y-75967302D01*
X126470699Y-75788673D01*
X126237310Y-75692000D01*
X125984691Y-75692000D01*
X124206691Y-75692000D01*
X123973302Y-75788673D01*
X123794673Y-75967301D01*
X123698000Y-76200690D01*
X123698000Y-76453309D01*
X123698000Y-78231309D01*
X123794673Y-78464698D01*
X123973301Y-78643327D01*
X124091673Y-78692358D01*
X124035212Y-78748820D01*
X124149801Y-78863409D01*
X123894461Y-78948467D01*
X123686484Y-79517965D01*
X123712277Y-80123700D01*
X123894461Y-80563533D01*
X124149804Y-80648591D01*
X125042395Y-79756000D01*
X125028252Y-79741857D01*
X125207857Y-79562252D01*
X125222000Y-79576395D01*
X125236142Y-79562252D01*
X125415747Y-79741857D01*
X125401605Y-79756000D01*
X126294196Y-80648591D01*
X126549539Y-80563533D01*
X126757516Y-79994035D01*
X126757516Y-93765953D01*
X126746264Y-93754681D01*
X126746264Y-81994188D01*
X126514738Y-81433851D01*
X126086404Y-81004769D01*
X126059494Y-80993595D01*
X126114591Y-80828196D01*
X125222000Y-79935605D01*
X125042395Y-80115210D01*
X124329409Y-80828196D01*
X124384353Y-80993137D01*
X124359851Y-81003262D01*
X123930769Y-81431596D01*
X123698265Y-81991528D01*
X123697736Y-82597812D01*
X123929262Y-83158149D01*
X124357596Y-83587231D01*
X124917528Y-83819735D01*
X125523812Y-83820264D01*
X126084149Y-83588738D01*
X126513231Y-83160404D01*
X126745735Y-82600472D01*
X126746264Y-81994188D01*
X126746264Y-93754681D01*
X126686886Y-93695200D01*
X125902515Y-93369501D01*
X125053211Y-93368760D01*
X124268273Y-93693090D01*
X123667200Y-94293114D01*
X123341501Y-95077485D01*
X123340760Y-95926789D01*
X123665090Y-96711727D01*
X124265114Y-97312800D01*
X125049485Y-97638499D01*
X125898789Y-97639240D01*
X126683727Y-97314910D01*
X127284800Y-96714886D01*
X127610499Y-95930515D01*
X127611240Y-95081211D01*
X127611240Y-98223414D01*
X124474327Y-101360327D01*
X124011517Y-102052971D01*
X123860569Y-102811837D01*
X123767220Y-102874211D01*
X123087638Y-103891278D01*
X122849000Y-105090991D01*
X122849000Y-107253009D01*
X123087638Y-108452722D01*
X123767220Y-109469789D01*
X124784287Y-110149371D01*
X125984000Y-110388009D01*
X127183713Y-110149371D01*
X128200780Y-109469789D01*
X128880362Y-108452722D01*
X129119000Y-107253009D01*
X129119000Y-105090991D01*
X128880362Y-103891278D01*
X128520556Y-103352789D01*
X130424346Y-101449000D01*
X134620000Y-101449000D01*
X135437029Y-101286483D01*
X136129673Y-100823673D01*
X136592483Y-100131029D01*
X136755000Y-99314000D01*
X136755000Y-94845000D01*
X140970000Y-94845000D01*
X141787029Y-94682483D01*
X142479673Y-94219673D01*
X142562976Y-94095000D01*
X147381314Y-94095000D01*
X147774488Y-94488174D01*
X147272188Y-94487736D01*
X146711851Y-94719262D01*
X146303664Y-95126737D01*
X145898404Y-94720769D01*
X145338472Y-94488265D01*
X144732188Y-94487736D01*
X144171851Y-94719262D01*
X143742769Y-95147596D01*
X143510265Y-95707528D01*
X143509736Y-96313812D01*
X143741262Y-96874149D01*
X144169596Y-97303231D01*
X144729528Y-97535735D01*
X145335812Y-97536264D01*
X145896149Y-97304738D01*
X146304335Y-96897262D01*
X146709596Y-97303231D01*
X147269528Y-97535735D01*
X147875812Y-97536264D01*
X148436149Y-97304738D01*
X148626292Y-97114926D01*
X148686673Y-97260698D01*
X148865301Y-97439327D01*
X149098690Y-97536000D01*
X149351309Y-97536000D01*
X151129309Y-97536000D01*
X151362698Y-97439327D01*
X151541327Y-97260699D01*
X151638000Y-97027310D01*
X151638000Y-99587018D01*
X151524173Y-99700647D01*
X151320732Y-100190587D01*
X151320269Y-100721086D01*
X151522854Y-101211380D01*
X151897647Y-101586827D01*
X152387587Y-101790268D01*
X152918086Y-101790731D01*
X153408380Y-101588146D01*
X153783827Y-101213353D01*
X153987268Y-100723413D01*
X153987731Y-100192914D01*
X153987731Y-113527914D01*
X153785146Y-113037620D01*
X153410353Y-112662173D01*
X152920413Y-112458732D01*
X152389914Y-112458269D01*
X151899620Y-112660854D01*
X151638000Y-112922018D01*
X151638000Y-110489310D01*
X151638000Y-110236691D01*
X151638000Y-108458691D01*
X151541327Y-108225302D01*
X151362699Y-108046673D01*
X151129310Y-107950000D01*
X150876691Y-107950000D01*
X150431731Y-107950000D01*
X150431731Y-103621914D01*
X150229146Y-103131620D01*
X149854353Y-102756173D01*
X149364413Y-102552732D01*
X148833914Y-102552269D01*
X148343620Y-102754854D01*
X147971418Y-103126407D01*
X147816146Y-102750620D01*
X147441353Y-102375173D01*
X146951413Y-102171732D01*
X146420914Y-102171269D01*
X146367731Y-102193243D01*
X146367731Y-100192914D01*
X146165146Y-99702620D01*
X145790353Y-99327173D01*
X145300413Y-99123732D01*
X144769914Y-99123269D01*
X144279620Y-99325854D01*
X143904173Y-99700647D01*
X143830479Y-99878120D01*
X143825282Y-99865542D01*
X143468337Y-99507974D01*
X143001727Y-99314221D01*
X142747889Y-99313999D01*
X142748220Y-98935490D01*
X142555282Y-98468542D01*
X142198337Y-98110974D01*
X141731727Y-97917221D01*
X141226490Y-97916780D01*
X140759542Y-98109718D01*
X140401974Y-98466663D01*
X140208221Y-98933273D01*
X140207983Y-99205437D01*
X137042210Y-102371210D01*
X136850367Y-102658325D01*
X136839189Y-102714515D01*
X136782999Y-102997000D01*
X136783000Y-102997005D01*
X136783000Y-104266994D01*
X136782999Y-104267000D01*
X136839189Y-104549484D01*
X136850367Y-104605675D01*
X137042210Y-104892790D01*
X137677207Y-105527786D01*
X137677210Y-105527790D01*
X137677211Y-105527790D01*
X137869054Y-105655975D01*
X137964325Y-105719633D01*
X137964326Y-105719634D01*
X138303000Y-105787001D01*
X138303000Y-105787000D01*
X138303005Y-105787000D01*
X140782321Y-105787000D01*
X141097273Y-105917779D01*
X141602510Y-105918220D01*
X142069458Y-105725282D01*
X142427026Y-105368337D01*
X142620779Y-104901727D01*
X142621220Y-104396490D01*
X142428282Y-103929542D01*
X142071337Y-103571974D01*
X141604727Y-103378221D01*
X141459485Y-103378094D01*
X142983373Y-101854205D01*
X142999510Y-101854220D01*
X143466458Y-101661282D01*
X143824026Y-101304337D01*
X143882789Y-101162819D01*
X143902854Y-101211380D01*
X144277647Y-101586827D01*
X144767587Y-101790268D01*
X145298086Y-101790731D01*
X145788380Y-101588146D01*
X146163827Y-101213353D01*
X146367268Y-100723413D01*
X146367731Y-100192914D01*
X146367731Y-102193243D01*
X145930620Y-102373854D01*
X145555173Y-102748647D01*
X145351732Y-103238587D01*
X145351269Y-103769086D01*
X145553854Y-104259380D01*
X145928647Y-104634827D01*
X146418587Y-104838268D01*
X146949086Y-104838731D01*
X147439380Y-104636146D01*
X147811581Y-104264592D01*
X147966854Y-104640380D01*
X148341647Y-105015827D01*
X148831587Y-105219268D01*
X149362086Y-105219731D01*
X149852380Y-105017146D01*
X150227827Y-104642353D01*
X150431268Y-104152413D01*
X150431731Y-103621914D01*
X150431731Y-107950000D01*
X149098691Y-107950000D01*
X148865302Y-108046673D01*
X148686673Y-108225301D01*
X148626317Y-108371011D01*
X148438404Y-108182769D01*
X147878472Y-107950265D01*
X147272188Y-107949736D01*
X146711851Y-108181262D01*
X146303664Y-108588737D01*
X145898404Y-108182769D01*
X145338472Y-107950265D01*
X144732188Y-107949736D01*
X144171851Y-108181262D01*
X143742769Y-108609596D01*
X143510265Y-109169528D01*
X143509736Y-109775812D01*
X143741262Y-110336149D01*
X144169596Y-110765231D01*
X144729528Y-110997735D01*
X145335812Y-110998264D01*
X145896149Y-110766738D01*
X146304335Y-110359262D01*
X146709596Y-110765231D01*
X147269528Y-110997735D01*
X147875812Y-110998264D01*
X148436149Y-110766738D01*
X148626292Y-110576926D01*
X148686673Y-110722698D01*
X148865301Y-110901327D01*
X149098690Y-110998000D01*
X149351309Y-110998000D01*
X151129309Y-110998000D01*
X151362698Y-110901327D01*
X151541327Y-110722699D01*
X151638000Y-110489310D01*
X151638000Y-112922018D01*
X151524173Y-113035647D01*
X151320732Y-113525587D01*
X151320269Y-114056086D01*
X151522854Y-114546380D01*
X151897647Y-114921827D01*
X152387587Y-115125268D01*
X152918086Y-115125731D01*
X153408380Y-114923146D01*
X153783827Y-114548353D01*
X153987268Y-114058413D01*
X153987731Y-113527914D01*
X153987731Y-117933000D01*
X150145035Y-117933000D01*
X150227827Y-117850353D01*
X150431268Y-117360413D01*
X150431731Y-116829914D01*
X150229146Y-116339620D01*
X149854353Y-115964173D01*
X149364413Y-115760732D01*
X148833914Y-115760269D01*
X148343620Y-115962854D01*
X147968173Y-116337647D01*
X147764732Y-116827587D01*
X147764269Y-117358086D01*
X147966854Y-117848380D01*
X148051326Y-117933000D01*
X147351035Y-117933000D01*
X147433827Y-117850353D01*
X147637268Y-117360413D01*
X147637731Y-116829914D01*
X147435146Y-116339620D01*
X147060353Y-115964173D01*
X146570413Y-115760732D01*
X146367731Y-115760555D01*
X146367731Y-113527914D01*
X146165146Y-113037620D01*
X145790353Y-112662173D01*
X145300413Y-112458732D01*
X144769914Y-112458269D01*
X144279620Y-112660854D01*
X143904173Y-113035647D01*
X143700732Y-113525587D01*
X143700269Y-114056086D01*
X143902854Y-114546380D01*
X144277647Y-114921827D01*
X144767587Y-115125268D01*
X145298086Y-115125731D01*
X145788380Y-114923146D01*
X146163827Y-114548353D01*
X146367268Y-114058413D01*
X146367731Y-113527914D01*
X146367731Y-115760555D01*
X146039914Y-115760269D01*
X145549620Y-115962854D01*
X145174173Y-116337647D01*
X144970732Y-116827587D01*
X144970269Y-117358086D01*
X145172854Y-117848380D01*
X145257326Y-117933000D01*
X139731035Y-117933000D01*
X139813827Y-117850353D01*
X140017268Y-117360413D01*
X140017731Y-116829914D01*
X139815146Y-116339620D01*
X139440353Y-115964173D01*
X138950413Y-115760732D01*
X138419914Y-115760269D01*
X137929620Y-115962854D01*
X137554173Y-116337647D01*
X137350732Y-116827587D01*
X137350269Y-117358086D01*
X137552854Y-117848380D01*
X137637326Y-117933000D01*
X136739543Y-117933000D01*
X136739543Y-113171146D01*
X136263273Y-112018485D01*
X136231000Y-111986155D01*
X136231000Y-109798310D01*
X136231000Y-109545691D01*
X136231000Y-106457750D01*
X136231000Y-105886250D01*
X136231000Y-102798309D01*
X136231000Y-102545690D01*
X136134327Y-102312301D01*
X135955698Y-102133673D01*
X135722309Y-102037000D01*
X133381750Y-102037000D01*
X133223000Y-102195750D01*
X133223000Y-106045000D01*
X136072250Y-106045000D01*
X136231000Y-105886250D01*
X136231000Y-106457750D01*
X136072250Y-106299000D01*
X133223000Y-106299000D01*
X133223000Y-110148250D01*
X133381750Y-110307000D01*
X135722309Y-110307000D01*
X135955698Y-110210327D01*
X136134327Y-110031699D01*
X136231000Y-109798310D01*
X136231000Y-111986155D01*
X135382153Y-111135826D01*
X134230326Y-110657546D01*
X132983146Y-110656457D01*
X132969000Y-110662302D01*
X132969000Y-110148250D01*
X132969000Y-106299000D01*
X132969000Y-106045000D01*
X132969000Y-102195750D01*
X132810250Y-102037000D01*
X130469691Y-102037000D01*
X130236302Y-102133673D01*
X130057673Y-102312301D01*
X129961000Y-102545690D01*
X129961000Y-102798309D01*
X129961000Y-105886250D01*
X130119750Y-106045000D01*
X132969000Y-106045000D01*
X132969000Y-106299000D01*
X130119750Y-106299000D01*
X129961000Y-106457750D01*
X129961000Y-109545691D01*
X129961000Y-109798310D01*
X130057673Y-110031699D01*
X130236302Y-110210327D01*
X130469691Y-110307000D01*
X132810250Y-110307000D01*
X132969000Y-110148250D01*
X132969000Y-110662302D01*
X131830485Y-111132727D01*
X130947826Y-112013847D01*
X130469546Y-113165674D01*
X130468457Y-114412854D01*
X130944727Y-115565515D01*
X131825847Y-116448174D01*
X132977674Y-116926454D01*
X134224854Y-116927543D01*
X135377515Y-116451273D01*
X136260174Y-115570153D01*
X136738454Y-114418326D01*
X136739543Y-113171146D01*
X136739543Y-117933000D01*
X128611543Y-117933000D01*
X128611543Y-113171146D01*
X128135273Y-112018485D01*
X127254153Y-111135826D01*
X126102326Y-110657546D01*
X124855146Y-110656457D01*
X123702485Y-111132727D01*
X122819826Y-112013847D01*
X122341546Y-113165674D01*
X122340457Y-114412854D01*
X122816727Y-115565515D01*
X123697847Y-116448174D01*
X124849674Y-116926454D01*
X126096854Y-116927543D01*
X127249515Y-116451273D01*
X128132174Y-115570153D01*
X128610454Y-114418326D01*
X128611543Y-113171146D01*
X128611543Y-117933000D01*
X122097000Y-117933000D01*
X122097000Y-19481000D01*
X170511000Y-19481000D01*
X170511000Y-39048371D01*
X170243731Y-38403126D01*
X170243731Y-27675914D01*
X170041146Y-27185620D01*
X169666353Y-26810173D01*
X169328553Y-26669906D01*
X169664380Y-26531146D01*
X170039827Y-26156353D01*
X170243268Y-25666413D01*
X170243731Y-25135914D01*
X170041146Y-24645620D01*
X169666353Y-24270173D01*
X169328553Y-24129906D01*
X169664380Y-23991146D01*
X170039827Y-23616353D01*
X170243268Y-23126413D01*
X170243731Y-22595914D01*
X170041146Y-22105620D01*
X169666353Y-21730173D01*
X169176413Y-21526732D01*
X168645914Y-21526269D01*
X168155620Y-21728854D01*
X167780173Y-22103647D01*
X167576732Y-22593587D01*
X167576269Y-23124086D01*
X167778854Y-23614380D01*
X168153647Y-23989827D01*
X168491446Y-24130093D01*
X168155620Y-24268854D01*
X167780173Y-24643647D01*
X167576732Y-25133587D01*
X167576269Y-25664086D01*
X167778854Y-26154380D01*
X168153647Y-26529827D01*
X168491446Y-26670093D01*
X168155620Y-26808854D01*
X167780173Y-27183647D01*
X167576732Y-27673587D01*
X167576269Y-28204086D01*
X167778854Y-28694380D01*
X168153647Y-29069827D01*
X168338295Y-29146500D01*
X168337809Y-29146500D01*
X168085190Y-29146500D01*
X167851801Y-29243173D01*
X167673173Y-29421802D01*
X167576500Y-29655191D01*
X167576500Y-30194250D01*
X167735250Y-30353000D01*
X168783000Y-30353000D01*
X168783000Y-30333000D01*
X169037000Y-30333000D01*
X169037000Y-30353000D01*
X170084750Y-30353000D01*
X170243500Y-30194250D01*
X170243500Y-29655191D01*
X170146827Y-29421802D01*
X169968199Y-29243173D01*
X169734810Y-29146500D01*
X169482191Y-29146500D01*
X169482009Y-29146500D01*
X169664380Y-29071146D01*
X170039827Y-28696353D01*
X170243268Y-28206413D01*
X170243731Y-27675914D01*
X170243731Y-38403126D01*
X170243500Y-38402568D01*
X170243500Y-31304809D01*
X170243500Y-30765750D01*
X170084750Y-30607000D01*
X169037000Y-30607000D01*
X169037000Y-31654750D01*
X169195750Y-31813500D01*
X169482191Y-31813500D01*
X169734810Y-31813500D01*
X169968199Y-31716827D01*
X170146827Y-31538198D01*
X170243500Y-31304809D01*
X170243500Y-38402568D01*
X170234739Y-38381418D01*
X169915970Y-38221635D01*
X169736365Y-38401240D01*
X169736365Y-38042030D01*
X169576582Y-37723261D01*
X168785813Y-37413277D01*
X168783000Y-37413330D01*
X168783000Y-31654750D01*
X168783000Y-30607000D01*
X167735250Y-30607000D01*
X167576500Y-30765750D01*
X167576500Y-31304809D01*
X167673173Y-31538198D01*
X167851801Y-31716827D01*
X168085190Y-31813500D01*
X168337809Y-31813500D01*
X168624250Y-31813500D01*
X168783000Y-31654750D01*
X168783000Y-37413330D01*
X167936613Y-37429503D01*
X167227418Y-37723261D01*
X167067635Y-38042030D01*
X168402000Y-39376395D01*
X169736365Y-38042030D01*
X169736365Y-38401240D01*
X168581605Y-39556000D01*
X169915970Y-40890365D01*
X170234739Y-40730582D01*
X170511000Y-40025840D01*
X170511000Y-42066921D01*
X170440327Y-41896302D01*
X170261699Y-41717673D01*
X170028310Y-41621000D01*
X169775691Y-41621000D01*
X169015853Y-41621000D01*
X169576582Y-41388739D01*
X169736365Y-41069970D01*
X168402000Y-39735605D01*
X168222395Y-39915210D01*
X168222395Y-39556000D01*
X166888030Y-38221635D01*
X166569261Y-38381418D01*
X166259277Y-39172187D01*
X166275503Y-40021387D01*
X166569261Y-40730582D01*
X166888030Y-40890365D01*
X168222395Y-39556000D01*
X168222395Y-39915210D01*
X167067635Y-41069970D01*
X167227418Y-41388739D01*
X167819915Y-41621000D01*
X166775691Y-41621000D01*
X166542302Y-41717673D01*
X166363673Y-41896301D01*
X166267000Y-42129690D01*
X166267000Y-42382309D01*
X166267000Y-45382309D01*
X166363673Y-45615698D01*
X166542301Y-45794327D01*
X166775690Y-45891000D01*
X167028309Y-45891000D01*
X170028309Y-45891000D01*
X170261698Y-45794327D01*
X170440327Y-45615699D01*
X170511000Y-45445079D01*
X170511000Y-111184371D01*
X170417723Y-110959180D01*
X170417723Y-97978813D01*
X170417723Y-83373813D01*
X170417723Y-68768813D01*
X170417723Y-54163813D01*
X170401497Y-53314613D01*
X170107739Y-52605418D01*
X169788970Y-52445635D01*
X169609365Y-52625240D01*
X169609365Y-52266030D01*
X169449582Y-51947261D01*
X168658813Y-51637277D01*
X167809613Y-51653503D01*
X167100418Y-51947261D01*
X166940635Y-52266030D01*
X168275000Y-53600395D01*
X169609365Y-52266030D01*
X169609365Y-52625240D01*
X168454605Y-53780000D01*
X169788970Y-55114365D01*
X170107739Y-54954582D01*
X170417723Y-54163813D01*
X170417723Y-68768813D01*
X170410000Y-68364623D01*
X170410000Y-59606310D01*
X170410000Y-59353691D01*
X170410000Y-56353691D01*
X170313327Y-56120302D01*
X170134699Y-55941673D01*
X169901310Y-55845000D01*
X169648691Y-55845000D01*
X168888853Y-55845000D01*
X169449582Y-55612739D01*
X169609365Y-55293970D01*
X168275000Y-53959605D01*
X168095395Y-54139210D01*
X168095395Y-53780000D01*
X166761030Y-52445635D01*
X166442261Y-52605418D01*
X166132277Y-53396187D01*
X166148503Y-54245387D01*
X166442261Y-54954582D01*
X166761030Y-55114365D01*
X168095395Y-53780000D01*
X168095395Y-54139210D01*
X166940635Y-55293970D01*
X167100418Y-55612739D01*
X167692915Y-55845000D01*
X166648691Y-55845000D01*
X166415302Y-55941673D01*
X166236673Y-56120301D01*
X166140000Y-56353690D01*
X166140000Y-56606309D01*
X166140000Y-59606309D01*
X166236673Y-59839698D01*
X166415301Y-60018327D01*
X166648690Y-60115000D01*
X166901309Y-60115000D01*
X169901309Y-60115000D01*
X170134698Y-60018327D01*
X170313327Y-59839699D01*
X170410000Y-59606310D01*
X170410000Y-68364623D01*
X170401497Y-67919613D01*
X170107739Y-67210418D01*
X169788970Y-67050635D01*
X169609365Y-67230240D01*
X169609365Y-66871030D01*
X169449582Y-66552261D01*
X168658813Y-66242277D01*
X167809613Y-66258503D01*
X167100418Y-66552261D01*
X166940635Y-66871030D01*
X168275000Y-68205395D01*
X169609365Y-66871030D01*
X169609365Y-67230240D01*
X168454605Y-68385000D01*
X169788970Y-69719365D01*
X170107739Y-69559582D01*
X170417723Y-68768813D01*
X170417723Y-83373813D01*
X170410000Y-82969623D01*
X170410000Y-74211310D01*
X170410000Y-73958691D01*
X170410000Y-70958691D01*
X170313327Y-70725302D01*
X170134699Y-70546673D01*
X169901310Y-70450000D01*
X169648691Y-70450000D01*
X168888853Y-70450000D01*
X169449582Y-70217739D01*
X169609365Y-69898970D01*
X168275000Y-68564605D01*
X168095395Y-68744210D01*
X168095395Y-68385000D01*
X166761030Y-67050635D01*
X166442261Y-67210418D01*
X166132277Y-68001187D01*
X166148503Y-68850387D01*
X166442261Y-69559582D01*
X166761030Y-69719365D01*
X168095395Y-68385000D01*
X168095395Y-68744210D01*
X166940635Y-69898970D01*
X167100418Y-70217739D01*
X167692915Y-70450000D01*
X166648691Y-70450000D01*
X166415302Y-70546673D01*
X166236673Y-70725301D01*
X166140000Y-70958690D01*
X166140000Y-71211309D01*
X166140000Y-74211309D01*
X166236673Y-74444698D01*
X166415301Y-74623327D01*
X166648690Y-74720000D01*
X166901309Y-74720000D01*
X169901309Y-74720000D01*
X170134698Y-74623327D01*
X170313327Y-74444699D01*
X170410000Y-74211310D01*
X170410000Y-82969623D01*
X170401497Y-82524613D01*
X170107739Y-81815418D01*
X169788970Y-81655635D01*
X169609365Y-81835240D01*
X169609365Y-81476030D01*
X169449582Y-81157261D01*
X168658813Y-80847277D01*
X167809613Y-80863503D01*
X167100418Y-81157261D01*
X166940635Y-81476030D01*
X168275000Y-82810395D01*
X169609365Y-81476030D01*
X169609365Y-81835240D01*
X168454605Y-82990000D01*
X169788970Y-84324365D01*
X170107739Y-84164582D01*
X170417723Y-83373813D01*
X170417723Y-97978813D01*
X170410000Y-97574623D01*
X170410000Y-88816310D01*
X170410000Y-88563691D01*
X170410000Y-85563691D01*
X170313327Y-85330302D01*
X170134699Y-85151673D01*
X169901310Y-85055000D01*
X169648691Y-85055000D01*
X168888853Y-85055000D01*
X169449582Y-84822739D01*
X169609365Y-84503970D01*
X168275000Y-83169605D01*
X168095395Y-83349210D01*
X168095395Y-82990000D01*
X166761030Y-81655635D01*
X166442261Y-81815418D01*
X166132277Y-82606187D01*
X166148503Y-83455387D01*
X166442261Y-84164582D01*
X166761030Y-84324365D01*
X168095395Y-82990000D01*
X168095395Y-83349210D01*
X166940635Y-84503970D01*
X167100418Y-84822739D01*
X167692915Y-85055000D01*
X166648691Y-85055000D01*
X166415302Y-85151673D01*
X166236673Y-85330301D01*
X166140000Y-85563690D01*
X166140000Y-85816309D01*
X166140000Y-88816309D01*
X166236673Y-89049698D01*
X166415301Y-89228327D01*
X166648690Y-89325000D01*
X166901309Y-89325000D01*
X169901309Y-89325000D01*
X170134698Y-89228327D01*
X170313327Y-89049699D01*
X170410000Y-88816310D01*
X170410000Y-97574623D01*
X170401497Y-97129613D01*
X170107739Y-96420418D01*
X169788970Y-96260635D01*
X169609365Y-96440240D01*
X169609365Y-96081030D01*
X169449582Y-95762261D01*
X168658813Y-95452277D01*
X167809613Y-95468503D01*
X167100418Y-95762261D01*
X166940635Y-96081030D01*
X168275000Y-97415395D01*
X169609365Y-96081030D01*
X169609365Y-96440240D01*
X168454605Y-97595000D01*
X169788970Y-98929365D01*
X170107739Y-98769582D01*
X170417723Y-97978813D01*
X170417723Y-110959180D01*
X170410000Y-110940535D01*
X170410000Y-103421310D01*
X170410000Y-103168691D01*
X170410000Y-100168691D01*
X170313327Y-99935302D01*
X170134699Y-99756673D01*
X169901310Y-99660000D01*
X169648691Y-99660000D01*
X168888853Y-99660000D01*
X169449582Y-99427739D01*
X169609365Y-99108970D01*
X168275000Y-97774605D01*
X168095395Y-97954210D01*
X168095395Y-97595000D01*
X166761030Y-96260635D01*
X166442261Y-96420418D01*
X166132277Y-97211187D01*
X166148503Y-98060387D01*
X166442261Y-98769582D01*
X166761030Y-98929365D01*
X168095395Y-97595000D01*
X168095395Y-97954210D01*
X166940635Y-99108970D01*
X167100418Y-99427739D01*
X167692915Y-99660000D01*
X166648691Y-99660000D01*
X166415302Y-99756673D01*
X166236673Y-99935301D01*
X166140000Y-100168690D01*
X166140000Y-100421309D01*
X166140000Y-103421309D01*
X166236673Y-103654698D01*
X166415301Y-103833327D01*
X166648690Y-103930000D01*
X166901309Y-103930000D01*
X169901309Y-103930000D01*
X170134698Y-103833327D01*
X170313327Y-103654699D01*
X170410000Y-103421310D01*
X170410000Y-110940535D01*
X170234739Y-110517418D01*
X169915970Y-110357635D01*
X169736365Y-110537240D01*
X169736365Y-110178030D01*
X169576582Y-109859261D01*
X168785813Y-109549277D01*
X167936613Y-109565503D01*
X167227418Y-109859261D01*
X167067635Y-110178030D01*
X168402000Y-111512395D01*
X169736365Y-110178030D01*
X169736365Y-110537240D01*
X168581605Y-111692000D01*
X169915970Y-113026365D01*
X170234739Y-112866582D01*
X170511000Y-112161840D01*
X170511000Y-114202921D01*
X170511000Y-114202921D01*
G37*
X170511000Y-114202921D02*
X170440327Y-114032302D01*
X170261699Y-113853673D01*
X170028310Y-113757000D01*
X169775691Y-113757000D01*
X169015853Y-113757000D01*
X169576582Y-113524739D01*
X169736365Y-113205970D01*
X168402000Y-111871605D01*
X168222395Y-112051210D01*
X168222395Y-111692000D01*
X166888030Y-110357635D01*
X166569261Y-110517418D01*
X166259277Y-111308187D01*
X166275503Y-112157387D01*
X166569261Y-112866582D01*
X166888030Y-113026365D01*
X168222395Y-111692000D01*
X168222395Y-112051210D01*
X167067635Y-113205970D01*
X167227418Y-113524739D01*
X167819915Y-113757000D01*
X166775691Y-113757000D01*
X166542302Y-113853673D01*
X166363673Y-114032301D01*
X166267000Y-114265690D01*
X166267000Y-114518309D01*
X166267000Y-117518309D01*
X166363673Y-117751698D01*
X166542301Y-117930327D01*
X166548754Y-117933000D01*
X164702723Y-117933000D01*
X164702723Y-24953813D01*
X164686497Y-24104613D01*
X164392739Y-23395418D01*
X164073970Y-23235635D01*
X163894365Y-23415240D01*
X163894365Y-23056030D01*
X163734582Y-22737261D01*
X162943813Y-22427277D01*
X162094613Y-22443503D01*
X161385418Y-22737261D01*
X161225635Y-23056030D01*
X162560000Y-24390395D01*
X163894365Y-23056030D01*
X163894365Y-23415240D01*
X162739605Y-24570000D01*
X164073970Y-25904365D01*
X164392739Y-25744582D01*
X164702723Y-24953813D01*
X164702723Y-117933000D01*
X164695000Y-117933000D01*
X164695000Y-30396310D01*
X164695000Y-30143691D01*
X164695000Y-27143691D01*
X164598327Y-26910302D01*
X164419699Y-26731673D01*
X164186310Y-26635000D01*
X163933691Y-26635000D01*
X163173853Y-26635000D01*
X163734582Y-26402739D01*
X163894365Y-26083970D01*
X162560000Y-24749605D01*
X162380395Y-24929210D01*
X162380395Y-24570000D01*
X161046030Y-23235635D01*
X160727261Y-23395418D01*
X160417277Y-24186187D01*
X160433503Y-25035387D01*
X160727261Y-25744582D01*
X161046030Y-25904365D01*
X162380395Y-24570000D01*
X162380395Y-24929210D01*
X161225635Y-26083970D01*
X161385418Y-26402739D01*
X161977915Y-26635000D01*
X160933691Y-26635000D01*
X160700302Y-26731673D01*
X160521673Y-26910301D01*
X160425000Y-27143690D01*
X160425000Y-27396309D01*
X160425000Y-30396309D01*
X160521673Y-30629698D01*
X160700301Y-30808327D01*
X160933690Y-30905000D01*
X161186309Y-30905000D01*
X164186309Y-30905000D01*
X164419698Y-30808327D01*
X164598327Y-30629699D01*
X164695000Y-30396310D01*
X164695000Y-117933000D01*
X164552977Y-117933000D01*
X164552977Y-62201903D01*
X164526389Y-61616431D01*
X164353490Y-61199017D01*
X164103413Y-61120192D01*
X164044977Y-61178628D01*
X164044977Y-35023903D01*
X164018389Y-34438431D01*
X163845490Y-34021017D01*
X163595413Y-33942192D01*
X163415808Y-34121797D01*
X163415808Y-33762587D01*
X163336983Y-33512510D01*
X162785903Y-33313023D01*
X162200431Y-33339611D01*
X161783017Y-33512510D01*
X161704192Y-33762587D01*
X162560000Y-34618395D01*
X163415808Y-33762587D01*
X163415808Y-34121797D01*
X162739605Y-34798000D01*
X163595413Y-35653808D01*
X163845490Y-35574983D01*
X164044977Y-35023903D01*
X164044977Y-61178628D01*
X163923808Y-61299797D01*
X163923808Y-60940587D01*
X163844983Y-60690510D01*
X163790977Y-60670960D01*
X163790977Y-48231903D01*
X163764389Y-47646431D01*
X163679240Y-47440863D01*
X163679240Y-40979211D01*
X163415808Y-40341657D01*
X163415808Y-35833413D01*
X162560000Y-34977605D01*
X162380395Y-35157210D01*
X162380395Y-34798000D01*
X161524587Y-33942192D01*
X161290836Y-34015870D01*
X161269647Y-33964589D01*
X160855591Y-33549810D01*
X160314323Y-33325056D01*
X159728248Y-33324545D01*
X159186589Y-33548353D01*
X158771810Y-33962409D01*
X158547056Y-34503677D01*
X158546545Y-35089752D01*
X158770353Y-35631411D01*
X159184409Y-36046190D01*
X159725677Y-36270944D01*
X160311752Y-36271455D01*
X160853411Y-36047647D01*
X161268190Y-35633591D01*
X161290441Y-35580004D01*
X161524587Y-35653808D01*
X162380395Y-34798000D01*
X162380395Y-35157210D01*
X161704192Y-35833413D01*
X161783017Y-36083490D01*
X162334097Y-36282977D01*
X162919569Y-36256389D01*
X163336983Y-36083490D01*
X163415808Y-35833413D01*
X163415808Y-40341657D01*
X163354910Y-40194273D01*
X162754886Y-39593200D01*
X161970515Y-39267501D01*
X161121211Y-39266760D01*
X160336273Y-39591090D01*
X159735200Y-40191114D01*
X159409501Y-40975485D01*
X159408760Y-41824789D01*
X159733090Y-42609727D01*
X160333114Y-43210800D01*
X161117485Y-43536499D01*
X161966789Y-43537240D01*
X162751727Y-43212910D01*
X163352800Y-42612886D01*
X163678499Y-41828515D01*
X163679240Y-40979211D01*
X163679240Y-47440863D01*
X163591490Y-47229017D01*
X163341413Y-47150192D01*
X163161808Y-47329797D01*
X163161808Y-46970587D01*
X163082983Y-46720510D01*
X162531903Y-46521023D01*
X161946431Y-46547611D01*
X161529017Y-46720510D01*
X161450192Y-46970587D01*
X162306000Y-47826395D01*
X163161808Y-46970587D01*
X163161808Y-47329797D01*
X162485605Y-48006000D01*
X163341413Y-48861808D01*
X163591490Y-48782983D01*
X163790977Y-48231903D01*
X163790977Y-60670960D01*
X163293903Y-60491023D01*
X163161808Y-60497021D01*
X163161808Y-49041413D01*
X162306000Y-48185605D01*
X162126395Y-48365210D01*
X162126395Y-48006000D01*
X161270587Y-47150192D01*
X161036836Y-47223870D01*
X161015647Y-47172589D01*
X160601591Y-46757810D01*
X160060323Y-46533056D01*
X159474248Y-46532545D01*
X158932589Y-46756353D01*
X158517810Y-47170409D01*
X158293056Y-47711677D01*
X158292545Y-48297752D01*
X158516353Y-48839411D01*
X158930409Y-49254190D01*
X159471677Y-49478944D01*
X160057752Y-49479455D01*
X160599411Y-49255647D01*
X161014190Y-48841591D01*
X161036441Y-48788004D01*
X161270587Y-48861808D01*
X162126395Y-48006000D01*
X162126395Y-48365210D01*
X161450192Y-49041413D01*
X161529017Y-49291490D01*
X162080097Y-49490977D01*
X162665569Y-49464389D01*
X163082983Y-49291490D01*
X163161808Y-49041413D01*
X163161808Y-60497021D01*
X162708431Y-60517611D01*
X162291017Y-60690510D01*
X162212192Y-60940587D01*
X163068000Y-61796395D01*
X163923808Y-60940587D01*
X163923808Y-61299797D01*
X163247605Y-61976000D01*
X164103413Y-62831808D01*
X164353490Y-62752983D01*
X164552977Y-62201903D01*
X164552977Y-117933000D01*
X164044977Y-117933000D01*
X164044977Y-75409903D01*
X164018389Y-74824431D01*
X163923808Y-74596092D01*
X163923808Y-63011413D01*
X163068000Y-62155605D01*
X162888395Y-62335210D01*
X162888395Y-61976000D01*
X162032587Y-61120192D01*
X161798836Y-61193870D01*
X161777647Y-61142589D01*
X161363591Y-60727810D01*
X160822323Y-60503056D01*
X160236248Y-60502545D01*
X159694589Y-60726353D01*
X159279810Y-61140409D01*
X159055056Y-61681677D01*
X159054545Y-62267752D01*
X159278353Y-62809411D01*
X159692409Y-63224190D01*
X160233677Y-63448944D01*
X160819752Y-63449455D01*
X161361411Y-63225647D01*
X161776190Y-62811591D01*
X161798441Y-62758004D01*
X162032587Y-62831808D01*
X162888395Y-61976000D01*
X162888395Y-62335210D01*
X162212192Y-63011413D01*
X162291017Y-63261490D01*
X162842097Y-63460977D01*
X163427569Y-63434389D01*
X163844983Y-63261490D01*
X163923808Y-63011413D01*
X163923808Y-74596092D01*
X163845490Y-74407017D01*
X163595413Y-74328192D01*
X163415808Y-74507797D01*
X163415808Y-74148587D01*
X163336983Y-73898510D01*
X162785903Y-73699023D01*
X162200431Y-73725611D01*
X161783017Y-73898510D01*
X161704192Y-74148587D01*
X162560000Y-75004395D01*
X163415808Y-74148587D01*
X163415808Y-74507797D01*
X162739605Y-75184000D01*
X163595413Y-76039808D01*
X163845490Y-75960983D01*
X164044977Y-75409903D01*
X164044977Y-117933000D01*
X163790977Y-117933000D01*
X163790977Y-115287903D01*
X163790977Y-102587903D01*
X163790977Y-89125903D01*
X163764389Y-88540431D01*
X163591490Y-88123017D01*
X163415808Y-88067641D01*
X163415808Y-76219413D01*
X162560000Y-75363605D01*
X162380395Y-75543210D01*
X162380395Y-75184000D01*
X161524587Y-74328192D01*
X161290836Y-74401870D01*
X161269647Y-74350589D01*
X160855591Y-73935810D01*
X160314323Y-73711056D01*
X159728248Y-73710545D01*
X159186589Y-73934353D01*
X158771810Y-74348409D01*
X158559731Y-74859152D01*
X158559731Y-61711914D01*
X158357146Y-61221620D01*
X157982353Y-60846173D01*
X157492413Y-60642732D01*
X157035731Y-60642333D01*
X157035731Y-47741914D01*
X156833146Y-47251620D01*
X156527731Y-46945672D01*
X156527731Y-33771914D01*
X156325146Y-33281620D01*
X155950353Y-32906173D01*
X155460413Y-32702732D01*
X154929914Y-32702269D01*
X154439620Y-32904854D01*
X154064173Y-33279647D01*
X153860732Y-33769587D01*
X153860269Y-34300086D01*
X154062854Y-34790380D01*
X154437647Y-35165827D01*
X154927587Y-35369268D01*
X155458086Y-35369731D01*
X155948380Y-35167146D01*
X156323827Y-34792353D01*
X156527268Y-34302413D01*
X156527731Y-33771914D01*
X156527731Y-46945672D01*
X156458353Y-46876173D01*
X155968413Y-46672732D01*
X155437914Y-46672269D01*
X154947620Y-46874854D01*
X154572173Y-47249647D01*
X154368732Y-47739587D01*
X154368269Y-48270086D01*
X154570854Y-48760380D01*
X154945647Y-49135827D01*
X155435587Y-49339268D01*
X155966086Y-49339731D01*
X156456380Y-49137146D01*
X156831827Y-48762353D01*
X157035268Y-48272413D01*
X157035731Y-47741914D01*
X157035731Y-60642333D01*
X156961914Y-60642269D01*
X156471620Y-60844854D01*
X156096173Y-61219647D01*
X155892732Y-61709587D01*
X155892269Y-62240086D01*
X156094854Y-62730380D01*
X156469647Y-63105827D01*
X156959587Y-63309268D01*
X157490086Y-63309731D01*
X157980380Y-63107146D01*
X158355827Y-62732353D01*
X158559268Y-62242413D01*
X158559731Y-61711914D01*
X158559731Y-74859152D01*
X158547056Y-74889677D01*
X158546545Y-75475752D01*
X158770353Y-76017411D01*
X159184409Y-76432190D01*
X159725677Y-76656944D01*
X160311752Y-76657455D01*
X160853411Y-76433647D01*
X161268190Y-76019591D01*
X161290441Y-75966004D01*
X161524587Y-76039808D01*
X162380395Y-75184000D01*
X162380395Y-75543210D01*
X161704192Y-76219413D01*
X161783017Y-76469490D01*
X162334097Y-76668977D01*
X162919569Y-76642389D01*
X163336983Y-76469490D01*
X163415808Y-76219413D01*
X163415808Y-88067641D01*
X163341413Y-88044192D01*
X163161808Y-88223797D01*
X163161808Y-87864587D01*
X163082983Y-87614510D01*
X162531903Y-87415023D01*
X161946431Y-87441611D01*
X161529017Y-87614510D01*
X161450192Y-87864587D01*
X162306000Y-88720395D01*
X163161808Y-87864587D01*
X163161808Y-88223797D01*
X162485605Y-88900000D01*
X163341413Y-89755808D01*
X163591490Y-89676983D01*
X163790977Y-89125903D01*
X163790977Y-102587903D01*
X163764389Y-102002431D01*
X163591490Y-101585017D01*
X163341413Y-101506192D01*
X163161808Y-101685797D01*
X163161808Y-101326587D01*
X163161808Y-89935413D01*
X162306000Y-89079605D01*
X162126395Y-89259210D01*
X162126395Y-88900000D01*
X161270587Y-88044192D01*
X161036836Y-88117870D01*
X161015647Y-88066589D01*
X160601591Y-87651810D01*
X160060323Y-87427056D01*
X159474248Y-87426545D01*
X158932589Y-87650353D01*
X158517810Y-88064409D01*
X158293056Y-88605677D01*
X158292545Y-89191752D01*
X158516353Y-89733411D01*
X158930409Y-90148190D01*
X159471677Y-90372944D01*
X160057752Y-90373455D01*
X160599411Y-90149647D01*
X161014190Y-89735591D01*
X161036441Y-89682004D01*
X161270587Y-89755808D01*
X162126395Y-88900000D01*
X162126395Y-89259210D01*
X161450192Y-89935413D01*
X161529017Y-90185490D01*
X162080097Y-90384977D01*
X162665569Y-90358389D01*
X163082983Y-90185490D01*
X163161808Y-89935413D01*
X163161808Y-101326587D01*
X163082983Y-101076510D01*
X162531903Y-100877023D01*
X161946431Y-100903611D01*
X161529017Y-101076510D01*
X161450192Y-101326587D01*
X162306000Y-102182395D01*
X163161808Y-101326587D01*
X163161808Y-101685797D01*
X162485605Y-102362000D01*
X163341413Y-103217808D01*
X163591490Y-103138983D01*
X163790977Y-102587903D01*
X163790977Y-115287903D01*
X163764389Y-114702431D01*
X163591490Y-114285017D01*
X163341413Y-114206192D01*
X163171240Y-114376365D01*
X163171240Y-108289211D01*
X163161808Y-108266383D01*
X163161808Y-103397413D01*
X162306000Y-102541605D01*
X162126395Y-102721210D01*
X162126395Y-102362000D01*
X161270587Y-101506192D01*
X161036836Y-101579870D01*
X161015647Y-101528589D01*
X160601591Y-101113810D01*
X160060323Y-100889056D01*
X159474248Y-100888545D01*
X158932589Y-101112353D01*
X158517810Y-101526409D01*
X158293056Y-102067677D01*
X158292545Y-102653752D01*
X158516353Y-103195411D01*
X158930409Y-103610190D01*
X159471677Y-103834944D01*
X160057752Y-103835455D01*
X160599411Y-103611647D01*
X161014190Y-103197591D01*
X161036441Y-103144004D01*
X161270587Y-103217808D01*
X162126395Y-102362000D01*
X162126395Y-102721210D01*
X161450192Y-103397413D01*
X161529017Y-103647490D01*
X162080097Y-103846977D01*
X162665569Y-103820389D01*
X163082983Y-103647490D01*
X163161808Y-103397413D01*
X163161808Y-108266383D01*
X162846910Y-107504273D01*
X162246886Y-106903200D01*
X161462515Y-106577501D01*
X160613211Y-106576760D01*
X159828273Y-106901090D01*
X159227200Y-107501114D01*
X158901501Y-108285485D01*
X158900760Y-109134789D01*
X159225090Y-109919727D01*
X159825114Y-110520800D01*
X160609485Y-110846499D01*
X161458789Y-110847240D01*
X162243727Y-110522910D01*
X162844800Y-109922886D01*
X163170499Y-109138515D01*
X163171240Y-108289211D01*
X163171240Y-114376365D01*
X163161808Y-114385797D01*
X163161808Y-114026587D01*
X163082983Y-113776510D01*
X162531903Y-113577023D01*
X161946431Y-113603611D01*
X161529017Y-113776510D01*
X161450192Y-114026587D01*
X162306000Y-114882395D01*
X163161808Y-114026587D01*
X163161808Y-114385797D01*
X162485605Y-115062000D01*
X163341413Y-115917808D01*
X163591490Y-115838983D01*
X163790977Y-115287903D01*
X163790977Y-117933000D01*
X163161808Y-117933000D01*
X163161808Y-116097413D01*
X162306000Y-115241605D01*
X162126395Y-115421210D01*
X162126395Y-115062000D01*
X161270587Y-114206192D01*
X161036836Y-114279870D01*
X161015647Y-114228589D01*
X160601591Y-113813810D01*
X160060323Y-113589056D01*
X159474248Y-113588545D01*
X158932589Y-113812353D01*
X158517810Y-114226409D01*
X158293056Y-114767677D01*
X158292545Y-115353752D01*
X158516353Y-115895411D01*
X158930409Y-116310190D01*
X159471677Y-116534944D01*
X160057752Y-116535455D01*
X160599411Y-116311647D01*
X161014190Y-115897591D01*
X161036441Y-115844004D01*
X161270587Y-115917808D01*
X162126395Y-115062000D01*
X162126395Y-115421210D01*
X161450192Y-116097413D01*
X161529017Y-116347490D01*
X162080097Y-116546977D01*
X162665569Y-116520389D01*
X163082983Y-116347490D01*
X163161808Y-116097413D01*
X163161808Y-117933000D01*
X157765035Y-117933000D01*
X157847827Y-117850353D01*
X158051268Y-117360413D01*
X158051731Y-116829914D01*
X158051731Y-103621914D01*
X158051731Y-75681914D01*
X157849146Y-75191620D01*
X157474353Y-74816173D01*
X156984413Y-74612732D01*
X156453914Y-74612269D01*
X155963620Y-74814854D01*
X155588173Y-75189647D01*
X155384732Y-75679587D01*
X155384269Y-76210086D01*
X155586854Y-76700380D01*
X155961647Y-77075827D01*
X156451587Y-77279268D01*
X156982086Y-77279731D01*
X157472380Y-77077146D01*
X157847827Y-76702353D01*
X158051268Y-76212413D01*
X158051731Y-75681914D01*
X158051731Y-103621914D01*
X157849146Y-103131620D01*
X157797731Y-103080115D01*
X157797731Y-89651914D01*
X157595146Y-89161620D01*
X157220353Y-88786173D01*
X156730413Y-88582732D01*
X156199914Y-88582269D01*
X155709620Y-88784854D01*
X155334173Y-89159647D01*
X155130732Y-89649587D01*
X155130269Y-90180086D01*
X155332854Y-90670380D01*
X155707647Y-91045827D01*
X156197587Y-91249268D01*
X156728086Y-91249731D01*
X157218380Y-91047146D01*
X157593827Y-90672353D01*
X157797268Y-90182413D01*
X157797731Y-89651914D01*
X157797731Y-103080115D01*
X157474353Y-102756173D01*
X156984413Y-102552732D01*
X156453914Y-102552269D01*
X155963620Y-102754854D01*
X155588173Y-103129647D01*
X155384732Y-103619587D01*
X155384269Y-104150086D01*
X155586854Y-104640380D01*
X155961647Y-105015827D01*
X156451587Y-105219268D01*
X156982086Y-105219731D01*
X157472380Y-105017146D01*
X157847827Y-104642353D01*
X158051268Y-104152413D01*
X158051731Y-103621914D01*
X158051731Y-116829914D01*
X157849146Y-116339620D01*
X157474353Y-115964173D01*
X156984413Y-115760732D01*
X156453914Y-115760269D01*
X155963620Y-115962854D01*
X155588173Y-116337647D01*
X155384732Y-116827587D01*
X155384269Y-117358086D01*
X155586854Y-117848380D01*
X155671326Y-117933000D01*
X153987731Y-117933000D01*
X153987731Y-113527914D01*
X153987731Y-100192914D01*
X153987731Y-72252914D01*
X153987731Y-58282914D01*
X153785146Y-57792620D01*
X153733731Y-57741115D01*
X153733731Y-44185914D01*
X153531146Y-43695620D01*
X153156353Y-43320173D01*
X152666413Y-43116732D01*
X152209731Y-43116333D01*
X152209731Y-30215914D01*
X152007146Y-29725620D01*
X151632353Y-29350173D01*
X151142413Y-29146732D01*
X150611914Y-29146269D01*
X150121620Y-29348854D01*
X149746173Y-29723647D01*
X149542732Y-30213587D01*
X149542269Y-30744086D01*
X149744854Y-31234380D01*
X150119647Y-31609827D01*
X150609587Y-31813268D01*
X151140086Y-31813731D01*
X151630380Y-31611146D01*
X152005827Y-31236353D01*
X152209268Y-30746413D01*
X152209731Y-30215914D01*
X152209731Y-43116333D01*
X152135914Y-43116269D01*
X151645620Y-43318854D01*
X151270173Y-43693647D01*
X151066732Y-44183587D01*
X151066269Y-44714086D01*
X151268854Y-45204380D01*
X151643647Y-45579827D01*
X152133587Y-45783268D01*
X152664086Y-45783731D01*
X153154380Y-45581146D01*
X153529827Y-45206353D01*
X153733268Y-44716413D01*
X153733731Y-44185914D01*
X153733731Y-57741115D01*
X153410353Y-57417173D01*
X152920413Y-57213732D01*
X152389914Y-57213269D01*
X151899620Y-57415854D01*
X151524173Y-57790647D01*
X151320732Y-58280587D01*
X151320269Y-58811086D01*
X151522854Y-59301380D01*
X151897647Y-59676827D01*
X152387587Y-59880268D01*
X152918086Y-59880731D01*
X153408380Y-59678146D01*
X153783827Y-59303353D01*
X153987268Y-58813413D01*
X153987731Y-58282914D01*
X153987731Y-72252914D01*
X153785146Y-71762620D01*
X153410353Y-71387173D01*
X152920413Y-71183732D01*
X152389914Y-71183269D01*
X151899620Y-71385854D01*
X151524173Y-71760647D01*
X151320732Y-72250587D01*
X151320269Y-72781086D01*
X151522854Y-73271380D01*
X151897647Y-73646827D01*
X152387587Y-73850268D01*
X152918086Y-73850731D01*
X153408380Y-73648146D01*
X153783827Y-73273353D01*
X153987268Y-72783413D01*
X153987731Y-72252914D01*
X153987731Y-100192914D01*
X153785146Y-99702620D01*
X153410353Y-99327173D01*
X153098731Y-99197776D01*
X153098731Y-86095914D01*
X152896146Y-85605620D01*
X152521353Y-85230173D01*
X152031413Y-85026732D01*
X151500914Y-85026269D01*
X151010620Y-85228854D01*
X150635173Y-85603647D01*
X150431732Y-86093587D01*
X150431269Y-86624086D01*
X150633854Y-87114380D01*
X151008647Y-87489827D01*
X151498587Y-87693268D01*
X152029086Y-87693731D01*
X152519380Y-87491146D01*
X152894827Y-87116353D01*
X153098268Y-86626413D01*
X153098731Y-86095914D01*
X153098731Y-99197776D01*
X152920413Y-99123732D01*
X152389914Y-99123269D01*
X151899620Y-99325854D01*
X151638000Y-99587018D01*
X151638000Y-97027310D01*
X151638000Y-96774691D01*
X151638000Y-94996691D01*
X151541327Y-94763302D01*
X151462244Y-94684219D01*
X151393573Y-94338984D01*
X151393573Y-94338983D01*
X151093343Y-93889657D01*
X150177731Y-92974045D01*
X150177731Y-89651914D01*
X149975146Y-89161620D01*
X149600353Y-88786173D01*
X149110413Y-88582732D01*
X148579914Y-88582269D01*
X148089620Y-88784854D01*
X147714173Y-89159647D01*
X147510732Y-89649587D01*
X147510269Y-90180086D01*
X147712854Y-90670380D01*
X148087647Y-91045827D01*
X148577587Y-91249268D01*
X149108086Y-91249731D01*
X149598380Y-91047146D01*
X149973827Y-90672353D01*
X150177268Y-90182413D01*
X150177731Y-89651914D01*
X150177731Y-92974045D01*
X148934343Y-91730657D01*
X148485017Y-91430427D01*
X147955000Y-91325000D01*
X146621731Y-91325000D01*
X146621731Y-89651914D01*
X146419146Y-89161620D01*
X146044353Y-88786173D01*
X145554413Y-88582732D01*
X145023914Y-88582269D01*
X144533620Y-88784854D01*
X144158173Y-89159647D01*
X143954732Y-89649587D01*
X143954269Y-90180086D01*
X144156854Y-90670380D01*
X144531647Y-91045827D01*
X145021587Y-91249268D01*
X145552086Y-91249731D01*
X146042380Y-91047146D01*
X146417827Y-90672353D01*
X146621268Y-90182413D01*
X146621731Y-89651914D01*
X146621731Y-91325000D01*
X143105000Y-91325000D01*
X143105000Y-87205685D01*
X143388647Y-87489827D01*
X143878587Y-87693268D01*
X144409086Y-87693731D01*
X144899380Y-87491146D01*
X145274827Y-87116353D01*
X145478268Y-86626413D01*
X145478731Y-86095914D01*
X145276146Y-85605620D01*
X144901353Y-85230173D01*
X144411413Y-85026732D01*
X143880914Y-85026269D01*
X143390620Y-85228854D01*
X143105000Y-85513976D01*
X143105000Y-80259346D01*
X143114673Y-80249673D01*
X143197976Y-80125000D01*
X147381314Y-80125000D01*
X147774488Y-80518174D01*
X147272188Y-80517736D01*
X146711851Y-80749262D01*
X146303664Y-81156737D01*
X145898404Y-80750769D01*
X145338472Y-80518265D01*
X144732188Y-80517736D01*
X144171851Y-80749262D01*
X143742769Y-81177596D01*
X143510265Y-81737528D01*
X143509736Y-82343812D01*
X143741262Y-82904149D01*
X144169596Y-83333231D01*
X144729528Y-83565735D01*
X145335812Y-83566264D01*
X145896149Y-83334738D01*
X146304335Y-82927262D01*
X146709596Y-83333231D01*
X147269528Y-83565735D01*
X147875812Y-83566264D01*
X148436149Y-83334738D01*
X148626292Y-83144926D01*
X148686673Y-83290698D01*
X148865301Y-83469327D01*
X149098690Y-83566000D01*
X149351309Y-83566000D01*
X151129309Y-83566000D01*
X151362698Y-83469327D01*
X151541327Y-83290699D01*
X151638000Y-83057310D01*
X151638000Y-82804691D01*
X151638000Y-81026691D01*
X151541327Y-80793302D01*
X151462244Y-80714219D01*
X151393573Y-80368984D01*
X151393573Y-80368983D01*
X151093343Y-79919657D01*
X150431731Y-79258045D01*
X150431731Y-75681914D01*
X150229146Y-75191620D01*
X149854353Y-74816173D01*
X149364413Y-74612732D01*
X148833914Y-74612269D01*
X148343620Y-74814854D01*
X147968173Y-75189647D01*
X147764732Y-75679587D01*
X147764269Y-76210086D01*
X147966854Y-76700380D01*
X148341647Y-77075827D01*
X148831587Y-77279268D01*
X149362086Y-77279731D01*
X149852380Y-77077146D01*
X150227827Y-76702353D01*
X150431268Y-76212413D01*
X150431731Y-75681914D01*
X150431731Y-79258045D01*
X148934343Y-77760657D01*
X148485017Y-77460427D01*
X147955000Y-77355000D01*
X146875731Y-77355000D01*
X146875731Y-75681914D01*
X146673146Y-75191620D01*
X146298353Y-74816173D01*
X145808413Y-74612732D01*
X145277914Y-74612269D01*
X144787620Y-74814854D01*
X144412173Y-75189647D01*
X144208732Y-75679587D01*
X144208269Y-76210086D01*
X144410854Y-76700380D01*
X144785647Y-77075827D01*
X145275587Y-77279268D01*
X145806086Y-77279731D01*
X146296380Y-77077146D01*
X146671827Y-76702353D01*
X146875268Y-76212413D01*
X146875731Y-75681914D01*
X146875731Y-77355000D01*
X143740000Y-77355000D01*
X143740000Y-72877242D01*
X143902854Y-73271380D01*
X144277647Y-73646827D01*
X144767587Y-73850268D01*
X145298086Y-73850731D01*
X145788380Y-73648146D01*
X146163827Y-73273353D01*
X146367268Y-72783413D01*
X146367731Y-72252914D01*
X146165146Y-71762620D01*
X145790353Y-71387173D01*
X145300413Y-71183732D01*
X144769914Y-71183269D01*
X144279620Y-71385854D01*
X143904173Y-71760647D01*
X143740000Y-72156019D01*
X143740000Y-68931094D01*
X143741262Y-68934149D01*
X144169596Y-69363231D01*
X144729528Y-69595735D01*
X145335812Y-69596264D01*
X145896149Y-69364738D01*
X146304335Y-68957262D01*
X146709596Y-69363231D01*
X147269528Y-69595735D01*
X147875812Y-69596264D01*
X148436149Y-69364738D01*
X148626292Y-69174926D01*
X148686673Y-69320698D01*
X148865301Y-69499327D01*
X149098690Y-69596000D01*
X149351309Y-69596000D01*
X151129309Y-69596000D01*
X151362698Y-69499327D01*
X151541327Y-69320699D01*
X151638000Y-69087310D01*
X151638000Y-68834691D01*
X151638000Y-67056691D01*
X151541327Y-66823302D01*
X151362699Y-66644673D01*
X151245000Y-66595920D01*
X151245000Y-65405000D01*
X151139574Y-64874984D01*
X151139573Y-64874983D01*
X150939731Y-64575898D01*
X150939731Y-61711914D01*
X150737146Y-61221620D01*
X150362353Y-60846173D01*
X149872413Y-60642732D01*
X149341914Y-60642269D01*
X148851620Y-60844854D01*
X148476173Y-61219647D01*
X148272732Y-61709587D01*
X148272269Y-62240086D01*
X148474854Y-62730380D01*
X148849647Y-63105827D01*
X149339587Y-63309268D01*
X149870086Y-63309731D01*
X150360380Y-63107146D01*
X150735827Y-62732353D01*
X150939268Y-62242413D01*
X150939731Y-61711914D01*
X150939731Y-64575898D01*
X150839343Y-64425657D01*
X150204343Y-63790657D01*
X149755017Y-63490427D01*
X149225000Y-63385000D01*
X147637731Y-63385000D01*
X147637731Y-61711914D01*
X147435146Y-61221620D01*
X147060353Y-60846173D01*
X146570413Y-60642732D01*
X146039914Y-60642269D01*
X145549620Y-60844854D01*
X145174173Y-61219647D01*
X144970732Y-61709587D01*
X144970269Y-62240086D01*
X145172854Y-62730380D01*
X145547647Y-63105827D01*
X146037587Y-63309268D01*
X146568086Y-63309731D01*
X147058380Y-63107146D01*
X147433827Y-62732353D01*
X147637268Y-62242413D01*
X147637731Y-61711914D01*
X147637731Y-63385000D01*
X144375000Y-63385000D01*
X144375000Y-60325000D01*
X144238213Y-59637324D01*
X144277647Y-59676827D01*
X144767587Y-59880268D01*
X145298086Y-59880731D01*
X145788380Y-59678146D01*
X146163827Y-59303353D01*
X146367268Y-58813413D01*
X146367731Y-58282914D01*
X146165146Y-57792620D01*
X145790353Y-57417173D01*
X145300413Y-57213732D01*
X144769914Y-57213269D01*
X144279620Y-57415854D01*
X143904173Y-57790647D01*
X143700732Y-58280587D01*
X143700308Y-58765962D01*
X143105000Y-58170654D01*
X143105000Y-52820000D01*
X144161094Y-52820000D01*
X143742769Y-53237596D01*
X143510265Y-53797528D01*
X143509736Y-54403812D01*
X143741262Y-54964149D01*
X144169596Y-55393231D01*
X144729528Y-55625735D01*
X145335812Y-55626264D01*
X145896149Y-55394738D01*
X146304335Y-54987262D01*
X146709596Y-55393231D01*
X147269528Y-55625735D01*
X147875812Y-55626264D01*
X148436149Y-55394738D01*
X148626292Y-55204926D01*
X148686673Y-55350698D01*
X148865301Y-55529327D01*
X149098690Y-55626000D01*
X149351309Y-55626000D01*
X151129309Y-55626000D01*
X151362698Y-55529327D01*
X151541327Y-55350699D01*
X151638000Y-55117310D01*
X151638000Y-54864691D01*
X151638000Y-53086691D01*
X151541327Y-52853302D01*
X151462244Y-52774219D01*
X151393573Y-52428984D01*
X151393573Y-52428983D01*
X151093343Y-51979657D01*
X149569343Y-50455657D01*
X149415731Y-50353016D01*
X149415731Y-47741914D01*
X149213146Y-47251620D01*
X148838353Y-46876173D01*
X148348413Y-46672732D01*
X147817914Y-46672269D01*
X147327620Y-46874854D01*
X146952173Y-47249647D01*
X146748732Y-47739587D01*
X146748269Y-48270086D01*
X146950854Y-48760380D01*
X147325647Y-49135827D01*
X147815587Y-49339268D01*
X148346086Y-49339731D01*
X148836380Y-49137146D01*
X149211827Y-48762353D01*
X149415268Y-48272413D01*
X149415731Y-47741914D01*
X149415731Y-50353016D01*
X149120017Y-50155427D01*
X148590000Y-50050000D01*
X146113731Y-50050000D01*
X146113731Y-44185914D01*
X145911146Y-43695620D01*
X145536353Y-43320173D01*
X145046413Y-43116732D01*
X144515914Y-43116269D01*
X144025620Y-43318854D01*
X143650173Y-43693647D01*
X143446732Y-44183587D01*
X143446269Y-44714086D01*
X143648854Y-45204380D01*
X144023647Y-45579827D01*
X144513587Y-45783268D01*
X145044086Y-45783731D01*
X145534380Y-45581146D01*
X145909827Y-45206353D01*
X146113268Y-44716413D01*
X146113731Y-44185914D01*
X146113731Y-50050000D01*
X145859731Y-50050000D01*
X145859731Y-47741914D01*
X145657146Y-47251620D01*
X145282353Y-46876173D01*
X144792413Y-46672732D01*
X144261914Y-46672269D01*
X143771620Y-46874854D01*
X143396173Y-47249647D01*
X143192732Y-47739587D01*
X143192269Y-48270086D01*
X143394854Y-48760380D01*
X143769647Y-49135827D01*
X144259587Y-49339268D01*
X144790086Y-49339731D01*
X145280380Y-49137146D01*
X145655827Y-48762353D01*
X145859268Y-48272413D01*
X145859731Y-47741914D01*
X145859731Y-50050000D01*
X143105000Y-50050000D01*
X143105000Y-46355000D01*
X143105000Y-38850000D01*
X144161094Y-38850000D01*
X143742769Y-39267596D01*
X143510265Y-39827528D01*
X143509736Y-40433812D01*
X143741262Y-40994149D01*
X144169596Y-41423231D01*
X144729528Y-41655735D01*
X145335812Y-41656264D01*
X145896149Y-41424738D01*
X146304335Y-41017262D01*
X146709596Y-41423231D01*
X147269528Y-41655735D01*
X147875812Y-41656264D01*
X148436149Y-41424738D01*
X148626292Y-41234926D01*
X148686673Y-41380698D01*
X148865301Y-41559327D01*
X149098690Y-41656000D01*
X149351309Y-41656000D01*
X151129309Y-41656000D01*
X151362698Y-41559327D01*
X151541327Y-41380699D01*
X151638000Y-41147310D01*
X151638000Y-40894691D01*
X151638000Y-39116691D01*
X151541327Y-38883302D01*
X151462244Y-38804219D01*
X151393573Y-38458984D01*
X151393573Y-38458983D01*
X151093343Y-38009657D01*
X149569343Y-36485657D01*
X149120017Y-36185427D01*
X148907731Y-36143200D01*
X148907731Y-33771914D01*
X148705146Y-33281620D01*
X148330353Y-32906173D01*
X147840413Y-32702732D01*
X147309914Y-32702269D01*
X146819620Y-32904854D01*
X146444173Y-33279647D01*
X146240732Y-33769587D01*
X146240269Y-34300086D01*
X146442854Y-34790380D01*
X146817647Y-35165827D01*
X147307587Y-35369268D01*
X147838086Y-35369731D01*
X148328380Y-35167146D01*
X148703827Y-34792353D01*
X148907268Y-34302413D01*
X148907731Y-33771914D01*
X148907731Y-36143200D01*
X148590000Y-36080000D01*
X143105000Y-36080000D01*
X143105000Y-35008906D01*
X143261647Y-35165827D01*
X143751587Y-35369268D01*
X144282086Y-35369731D01*
X144772380Y-35167146D01*
X145147827Y-34792353D01*
X145351268Y-34302413D01*
X145351731Y-33771914D01*
X145149146Y-33281620D01*
X144774353Y-32906173D01*
X144284413Y-32702732D01*
X143753914Y-32702269D01*
X143263620Y-32904854D01*
X143105000Y-33063197D01*
X143105000Y-33020000D01*
X142942483Y-32202971D01*
X142942483Y-32202970D01*
X142564016Y-31636555D01*
X142989587Y-31813268D01*
X143520086Y-31813731D01*
X144010380Y-31611146D01*
X144385827Y-31236353D01*
X144589268Y-30746413D01*
X144589731Y-30215914D01*
X144387146Y-29725620D01*
X144012353Y-29350173D01*
X143522413Y-29146732D01*
X142991914Y-29146269D01*
X142501620Y-29348854D01*
X142126173Y-29723647D01*
X141922732Y-30213587D01*
X141922269Y-30744086D01*
X142069317Y-31099971D01*
X141835000Y-30865654D01*
X141835000Y-26919346D01*
X143749673Y-25004673D01*
X143832976Y-24880000D01*
X144161094Y-24880000D01*
X143742769Y-25297596D01*
X143510265Y-25857528D01*
X143509736Y-26463812D01*
X143741262Y-27024149D01*
X144169596Y-27453231D01*
X144729528Y-27685735D01*
X145335812Y-27686264D01*
X145896149Y-27454738D01*
X146304335Y-27047262D01*
X146709596Y-27453231D01*
X147269528Y-27685735D01*
X147875812Y-27686264D01*
X148436149Y-27454738D01*
X148626292Y-27264926D01*
X148686673Y-27410698D01*
X148865301Y-27589327D01*
X149098690Y-27686000D01*
X149351309Y-27686000D01*
X151129309Y-27686000D01*
X151362698Y-27589327D01*
X151541327Y-27410699D01*
X151638000Y-27177310D01*
X151638000Y-26924691D01*
X151638000Y-25146691D01*
X151541327Y-24913302D01*
X151462244Y-24834219D01*
X151393573Y-24488984D01*
X151393573Y-24488983D01*
X151093343Y-24039657D01*
X149569343Y-22515657D01*
X149120017Y-22215427D01*
X148590000Y-22110000D01*
X143832976Y-22110000D01*
X143749673Y-21985327D01*
X143057029Y-21522517D01*
X142240000Y-21360000D01*
X141422970Y-21522517D01*
X140730327Y-21985327D01*
X138190327Y-24525327D01*
X137727517Y-25217971D01*
X137565000Y-26035000D01*
X137565000Y-31750000D01*
X137727517Y-32567029D01*
X138190327Y-33259673D01*
X138835000Y-33904346D01*
X138835000Y-37465000D01*
X138835000Y-46355000D01*
X138835000Y-51435000D01*
X138835000Y-59055000D01*
X138997517Y-59872029D01*
X139460327Y-60564673D01*
X140105000Y-61209346D01*
X140105000Y-62615654D01*
X140095327Y-62625327D01*
X140017731Y-62741457D01*
X140017731Y-61711914D01*
X139815146Y-61221620D01*
X139440353Y-60846173D01*
X138950413Y-60642732D01*
X138419914Y-60642269D01*
X138239731Y-60716718D01*
X138239731Y-47741914D01*
X138037146Y-47251620D01*
X137731731Y-46945672D01*
X137731731Y-33771914D01*
X137529146Y-33281620D01*
X137154353Y-32906173D01*
X136664413Y-32702732D01*
X136133914Y-32702269D01*
X135993240Y-32760394D01*
X135993240Y-29295211D01*
X135668910Y-28510273D01*
X135068886Y-27909200D01*
X134284515Y-27583501D01*
X133435211Y-27582760D01*
X132650273Y-27907090D01*
X132049200Y-28507114D01*
X131723501Y-29291485D01*
X131722760Y-30140789D01*
X132047090Y-30925727D01*
X132647114Y-31526800D01*
X133431485Y-31852499D01*
X134280789Y-31853240D01*
X135065727Y-31528910D01*
X135666800Y-30928886D01*
X135992499Y-30144515D01*
X135993240Y-29295211D01*
X135993240Y-32760394D01*
X135643620Y-32904854D01*
X135268173Y-33279647D01*
X135064732Y-33769587D01*
X135064269Y-34300086D01*
X135266854Y-34790380D01*
X135641647Y-35165827D01*
X136131587Y-35369268D01*
X136662086Y-35369731D01*
X137152380Y-35167146D01*
X137527827Y-34792353D01*
X137731268Y-34302413D01*
X137731731Y-33771914D01*
X137731731Y-46945672D01*
X137662353Y-46876173D01*
X137172413Y-46672732D01*
X136641914Y-46672269D01*
X136151620Y-46874854D01*
X135776173Y-47249647D01*
X135572732Y-47739587D01*
X135572269Y-48270086D01*
X135774854Y-48760380D01*
X136149647Y-49135827D01*
X136639587Y-49339268D01*
X137170086Y-49339731D01*
X137660380Y-49137146D01*
X138035827Y-48762353D01*
X138239268Y-48272413D01*
X138239731Y-47741914D01*
X138239731Y-60716718D01*
X137929620Y-60844854D01*
X137554173Y-61219647D01*
X137350732Y-61709587D01*
X137350269Y-62240086D01*
X137552854Y-62730380D01*
X137927647Y-63105827D01*
X138417587Y-63309268D01*
X138948086Y-63309731D01*
X139438380Y-63107146D01*
X139813827Y-62732353D01*
X140017268Y-62242413D01*
X140017731Y-61711914D01*
X140017731Y-62741457D01*
X139632517Y-63317971D01*
X139470000Y-64135000D01*
X139470000Y-64770000D01*
X139470000Y-67061751D01*
X139404337Y-66995974D01*
X138937727Y-66802221D01*
X138701831Y-66802015D01*
X138998026Y-66506337D01*
X139191779Y-66039727D01*
X139192220Y-65534490D01*
X138999282Y-65067542D01*
X138642337Y-64709974D01*
X138175727Y-64516221D01*
X137670490Y-64515780D01*
X137414129Y-64621705D01*
X137414220Y-64518490D01*
X137221282Y-64051542D01*
X136864337Y-63693974D01*
X136397727Y-63500221D01*
X136125562Y-63499983D01*
X135330927Y-62705348D01*
X135330927Y-54802520D01*
X135302148Y-54272801D01*
X135154800Y-53917071D01*
X134919188Y-53855417D01*
X134739583Y-54035022D01*
X134739583Y-53675812D01*
X134677929Y-53440200D01*
X134177520Y-53264073D01*
X133647801Y-53292852D01*
X133292071Y-53440200D01*
X133230417Y-53675812D01*
X133985000Y-54430395D01*
X134739583Y-53675812D01*
X134739583Y-54035022D01*
X134164605Y-54610000D01*
X134919188Y-55364583D01*
X135154800Y-55302929D01*
X135330927Y-54802520D01*
X135330927Y-62705348D01*
X135260679Y-62635100D01*
X135318268Y-62496413D01*
X135318731Y-61965914D01*
X135116146Y-61475620D01*
X134741353Y-61100173D01*
X134403553Y-60959906D01*
X134739380Y-60821146D01*
X135114827Y-60446353D01*
X135318268Y-59956413D01*
X135318731Y-59425914D01*
X135116146Y-58935620D01*
X134741353Y-58560173D01*
X134403553Y-58419906D01*
X134739380Y-58281146D01*
X135114827Y-57906353D01*
X135318268Y-57416413D01*
X135318731Y-56885914D01*
X135116146Y-56395620D01*
X134741353Y-56020173D01*
X134419881Y-55886686D01*
X134677929Y-55779800D01*
X134739583Y-55544188D01*
X133985000Y-54789605D01*
X133805395Y-54969210D01*
X133805395Y-54610000D01*
X133050812Y-53855417D01*
X132815200Y-53917071D01*
X132790927Y-53986035D01*
X132790927Y-49722520D01*
X132762148Y-49192801D01*
X132614800Y-48837071D01*
X132379188Y-48775417D01*
X132199583Y-48955022D01*
X132199583Y-48595812D01*
X132137929Y-48360200D01*
X131637520Y-48184073D01*
X131107801Y-48212852D01*
X130810220Y-48336113D01*
X130810220Y-28196490D01*
X130617282Y-27729542D01*
X130425000Y-27536924D01*
X130425000Y-24384005D01*
X130425000Y-24384000D01*
X130425001Y-24384000D01*
X130368810Y-24101515D01*
X130357633Y-24045326D01*
X130357633Y-24045325D01*
X130165790Y-23758211D01*
X130165790Y-23758210D01*
X130165786Y-23758207D01*
X129793984Y-23386405D01*
X129794220Y-23116490D01*
X129601282Y-22649542D01*
X129244337Y-22291974D01*
X128777727Y-22098221D01*
X128272490Y-22097780D01*
X127805542Y-22290718D01*
X127447974Y-22647663D01*
X127254221Y-23114273D01*
X127253780Y-23619510D01*
X127446718Y-24086458D01*
X127803663Y-24444026D01*
X128270273Y-24637779D01*
X128542437Y-24638016D01*
X128655000Y-24750579D01*
X128655000Y-27536969D01*
X128647000Y-27544955D01*
X128647000Y-27432005D01*
X128647000Y-27432000D01*
X128647001Y-27432000D01*
X128590810Y-27149515D01*
X128579633Y-27093326D01*
X128579633Y-27093325D01*
X128387790Y-26806211D01*
X128387790Y-26806210D01*
X128387786Y-26806207D01*
X127885000Y-26303420D01*
X127885000Y-26035005D01*
X127885000Y-26035000D01*
X127885001Y-26035000D01*
X127828810Y-25752515D01*
X127817633Y-25696326D01*
X127817633Y-25696325D01*
X127625790Y-25409210D01*
X127625786Y-25409207D01*
X125158429Y-22941849D01*
X125158731Y-22595914D01*
X124956146Y-22105620D01*
X124581353Y-21730173D01*
X124091413Y-21526732D01*
X123560914Y-21526269D01*
X123070620Y-21728854D01*
X122695173Y-22103647D01*
X122491732Y-22593587D01*
X122491269Y-23124086D01*
X122693854Y-23614380D01*
X123068647Y-23989827D01*
X123406446Y-24130093D01*
X123070620Y-24268854D01*
X122695173Y-24643647D01*
X122491732Y-25133587D01*
X122491269Y-25664086D01*
X122693854Y-26154380D01*
X123068647Y-26529827D01*
X123406446Y-26670093D01*
X123070620Y-26808854D01*
X122695173Y-27183647D01*
X122491732Y-27673587D01*
X122491269Y-28204086D01*
X122693854Y-28694380D01*
X123068647Y-29069827D01*
X123253295Y-29146500D01*
X123252809Y-29146500D01*
X123000190Y-29146500D01*
X122766801Y-29243173D01*
X122588173Y-29421802D01*
X122491500Y-29655191D01*
X122491500Y-30194250D01*
X122650250Y-30353000D01*
X123698000Y-30353000D01*
X123698000Y-30333000D01*
X123952000Y-30333000D01*
X123952000Y-30353000D01*
X123972000Y-30353000D01*
X123972000Y-30607000D01*
X123952000Y-30607000D01*
X123952000Y-31654750D01*
X124110750Y-31813500D01*
X124397191Y-31813500D01*
X124591000Y-31813500D01*
X124591000Y-32257994D01*
X124590999Y-32258000D01*
X124647189Y-32540484D01*
X124658367Y-32596675D01*
X124850210Y-32883790D01*
X125730015Y-33763595D01*
X125729780Y-34033510D01*
X125922718Y-34500458D01*
X126279663Y-34858026D01*
X126746273Y-35051779D01*
X127251510Y-35052220D01*
X127718458Y-34859282D01*
X128076026Y-34502337D01*
X128269779Y-34035727D01*
X128270220Y-33530490D01*
X128216252Y-33399877D01*
X128524273Y-33527779D01*
X129029510Y-33528220D01*
X129496458Y-33335282D01*
X129854026Y-32978337D01*
X130047779Y-32511727D01*
X130048220Y-32006490D01*
X129855282Y-31539542D01*
X129498337Y-31181974D01*
X129031727Y-30988221D01*
X128526490Y-30987780D01*
X128152066Y-31142487D01*
X127743563Y-30733984D01*
X128013510Y-30734220D01*
X128480458Y-30541282D01*
X128838026Y-30184337D01*
X129031779Y-29717727D01*
X129031871Y-29612142D01*
X129286273Y-29717779D01*
X129791510Y-29718220D01*
X130258458Y-29525282D01*
X130616026Y-29168337D01*
X130809779Y-28701727D01*
X130810220Y-28196490D01*
X130810220Y-48336113D01*
X130752071Y-48360200D01*
X130690417Y-48595812D01*
X131445000Y-49350395D01*
X132199583Y-48595812D01*
X132199583Y-48955022D01*
X131624605Y-49530000D01*
X132379188Y-50284583D01*
X132614800Y-50222929D01*
X132790927Y-49722520D01*
X132790927Y-53986035D01*
X132639073Y-54417480D01*
X132667852Y-54947199D01*
X132815200Y-55302929D01*
X133050812Y-55364583D01*
X133805395Y-54610000D01*
X133805395Y-54969210D01*
X133230417Y-55544188D01*
X133292071Y-55779800D01*
X133571311Y-55878083D01*
X133230620Y-56018854D01*
X132855173Y-56393647D01*
X132709154Y-56745297D01*
X132419337Y-56454974D01*
X132199583Y-56363724D01*
X132199583Y-50464188D01*
X131445000Y-49709605D01*
X131265395Y-49889210D01*
X131265395Y-49530000D01*
X130510812Y-48775417D01*
X130275200Y-48837071D01*
X130176916Y-49116311D01*
X130036146Y-48775620D01*
X129661353Y-48400173D01*
X129171413Y-48196732D01*
X128640914Y-48196269D01*
X128150620Y-48398854D01*
X127775173Y-48773647D01*
X127571732Y-49263587D01*
X127571269Y-49794086D01*
X127773854Y-50284380D01*
X128148647Y-50659827D01*
X128638587Y-50863268D01*
X129169086Y-50863731D01*
X129659380Y-50661146D01*
X130034827Y-50286353D01*
X130168313Y-49964881D01*
X130275200Y-50222929D01*
X130510812Y-50284583D01*
X131265395Y-49530000D01*
X131265395Y-49889210D01*
X130690417Y-50464188D01*
X130752071Y-50699800D01*
X131252480Y-50875927D01*
X131782199Y-50847148D01*
X132137929Y-50699800D01*
X132199583Y-50464188D01*
X132199583Y-56363724D01*
X131952727Y-56261221D01*
X131447490Y-56260780D01*
X131187000Y-56368411D01*
X131187000Y-54356000D01*
X131119633Y-54017325D01*
X130927790Y-53730210D01*
X130927786Y-53730207D01*
X126999984Y-49802404D01*
X127000220Y-49532490D01*
X126807282Y-49065542D01*
X126450337Y-48707974D01*
X125983727Y-48514221D01*
X125478490Y-48513780D01*
X125011542Y-48706718D01*
X124653974Y-49063663D01*
X124460221Y-49530273D01*
X124459780Y-50035510D01*
X124652718Y-50502458D01*
X125009663Y-50860026D01*
X125476273Y-51053779D01*
X125748436Y-51054016D01*
X129417000Y-54722579D01*
X129417000Y-65509969D01*
X129225974Y-65700663D01*
X129032221Y-66167273D01*
X129031780Y-66672510D01*
X129224718Y-67139458D01*
X129581663Y-67497026D01*
X130048273Y-67690779D01*
X130553510Y-67691220D01*
X131020458Y-67498282D01*
X131195000Y-67324044D01*
X131195000Y-67944994D01*
X131194999Y-67945000D01*
X131251189Y-68227484D01*
X131262367Y-68283675D01*
X131454210Y-68570790D01*
X132651570Y-69768150D01*
X132651269Y-70114086D01*
X132853854Y-70604380D01*
X133228647Y-70979827D01*
X133566446Y-71120093D01*
X133230620Y-71258854D01*
X132855173Y-71633647D01*
X132651732Y-72123587D01*
X132651269Y-72654086D01*
X132853854Y-73144380D01*
X133228647Y-73519827D01*
X133566675Y-73660188D01*
X133098490Y-73659780D01*
X132631542Y-73852718D01*
X132273974Y-74209663D01*
X132080221Y-74676273D01*
X132079780Y-75181510D01*
X132272718Y-75648458D01*
X132629663Y-76006026D01*
X133096273Y-76199779D01*
X133368437Y-76200016D01*
X133740207Y-76571786D01*
X133740210Y-76571790D01*
X133740211Y-76571790D01*
X134027325Y-76763633D01*
X134027326Y-76763633D01*
X134083515Y-76774810D01*
X134366000Y-76831001D01*
X134366000Y-76831000D01*
X134366005Y-76831000D01*
X135128000Y-76831000D01*
X136921246Y-76831000D01*
X137165647Y-77075827D01*
X137655587Y-77279268D01*
X138186086Y-77279731D01*
X138676380Y-77077146D01*
X139051827Y-76702353D01*
X139255268Y-76212413D01*
X139255731Y-75681914D01*
X139053146Y-75191620D01*
X138678353Y-74816173D01*
X138188413Y-74612732D01*
X137657914Y-74612269D01*
X137167620Y-74814854D01*
X136921044Y-75061000D01*
X135128000Y-75061000D01*
X134732579Y-75061000D01*
X134619984Y-74948405D01*
X134620220Y-74678490D01*
X134427282Y-74211542D01*
X134070337Y-73853974D01*
X133755639Y-73723300D01*
X134249086Y-73723731D01*
X134739380Y-73521146D01*
X135114827Y-73146353D01*
X135318268Y-72656413D01*
X135318731Y-72125914D01*
X135116146Y-71635620D01*
X134741353Y-71260173D01*
X134403553Y-71119906D01*
X134739380Y-70981146D01*
X135114827Y-70606353D01*
X135318268Y-70116413D01*
X135318731Y-69585914D01*
X135116146Y-69095620D01*
X134741353Y-68720173D01*
X134403553Y-68579906D01*
X134739380Y-68441146D01*
X134985955Y-68195000D01*
X137413892Y-68195000D01*
X137413780Y-68323510D01*
X137606718Y-68790458D01*
X137963663Y-69148026D01*
X138430273Y-69341779D01*
X138935510Y-69342220D01*
X139402458Y-69149282D01*
X139470000Y-69081857D01*
X139470000Y-77855654D01*
X139460327Y-77865327D01*
X138997517Y-78557971D01*
X138835000Y-79375000D01*
X138835000Y-89248393D01*
X138799146Y-89161620D01*
X138424353Y-88786173D01*
X137934413Y-88582732D01*
X137403914Y-88582269D01*
X136913620Y-88784854D01*
X136538173Y-89159647D01*
X136334732Y-89649587D01*
X136334269Y-90180086D01*
X136497443Y-90575000D01*
X135636000Y-90575000D01*
X134818971Y-90737517D01*
X134126327Y-91200327D01*
X133110327Y-92216327D01*
X132647517Y-92908971D01*
X132485000Y-93726000D01*
X132485000Y-97179000D01*
X130631927Y-97179000D01*
X130631927Y-82996520D01*
X130631927Y-79694520D01*
X130619731Y-79470035D01*
X130619731Y-76697914D01*
X130417146Y-76207620D01*
X130042353Y-75832173D01*
X129552413Y-75628732D01*
X129021914Y-75628269D01*
X128531620Y-75830854D01*
X128156173Y-76205647D01*
X127952732Y-76695587D01*
X127952269Y-77226086D01*
X128154854Y-77716380D01*
X128529647Y-78091827D01*
X128851118Y-78225313D01*
X128593071Y-78332200D01*
X128531417Y-78567812D01*
X129286000Y-79322395D01*
X130040583Y-78567812D01*
X129978929Y-78332200D01*
X129699688Y-78233916D01*
X130040380Y-78093146D01*
X130415827Y-77718353D01*
X130619268Y-77228413D01*
X130619731Y-76697914D01*
X130619731Y-79470035D01*
X130603148Y-79164801D01*
X130455800Y-78809071D01*
X130220188Y-78747417D01*
X129465605Y-79502000D01*
X130220188Y-80256583D01*
X130455800Y-80194929D01*
X130631927Y-79694520D01*
X130631927Y-82996520D01*
X130603148Y-82466801D01*
X130455800Y-82111071D01*
X130220188Y-82049417D01*
X130040583Y-82229022D01*
X130040583Y-81869812D01*
X130040583Y-80436188D01*
X129286000Y-79681605D01*
X129106395Y-79861210D01*
X129106395Y-79502000D01*
X128351812Y-78747417D01*
X128116200Y-78809071D01*
X127940073Y-79309480D01*
X127968852Y-79839199D01*
X128116200Y-80194929D01*
X128351812Y-80256583D01*
X129106395Y-79502000D01*
X129106395Y-79861210D01*
X128531417Y-80436188D01*
X128593071Y-80671800D01*
X129093480Y-80847927D01*
X129623199Y-80819148D01*
X129978929Y-80671800D01*
X130040583Y-80436188D01*
X130040583Y-81869812D01*
X129978929Y-81634200D01*
X129478520Y-81458073D01*
X128948801Y-81486852D01*
X128593071Y-81634200D01*
X128531417Y-81869812D01*
X129286000Y-82624395D01*
X130040583Y-81869812D01*
X130040583Y-82229022D01*
X129465605Y-82804000D01*
X130220188Y-83558583D01*
X130455800Y-83496929D01*
X130631927Y-82996520D01*
X130631927Y-97179000D01*
X130619731Y-97179000D01*
X130619731Y-85079914D01*
X130417146Y-84589620D01*
X130042353Y-84214173D01*
X129720881Y-84080686D01*
X129978929Y-83973800D01*
X130040583Y-83738188D01*
X129286000Y-82983605D01*
X129106395Y-83163210D01*
X129106395Y-82804000D01*
X128351812Y-82049417D01*
X128116200Y-82111071D01*
X127940073Y-82611480D01*
X127968852Y-83141199D01*
X128116200Y-83496929D01*
X128351812Y-83558583D01*
X129106395Y-82804000D01*
X129106395Y-83163210D01*
X128531417Y-83738188D01*
X128593071Y-83973800D01*
X128872311Y-84072083D01*
X128531620Y-84212854D01*
X128156173Y-84587647D01*
X127952732Y-85077587D01*
X127952269Y-85608086D01*
X128154854Y-86098380D01*
X128529647Y-86473827D01*
X129019587Y-86677268D01*
X129550086Y-86677731D01*
X130040380Y-86475146D01*
X130415827Y-86100353D01*
X130619268Y-85610413D01*
X130619731Y-85079914D01*
X130619731Y-97179000D01*
X129540000Y-97179000D01*
X128722970Y-97341517D01*
X128030327Y-97804327D01*
X127710927Y-98123727D01*
X127710927Y-72582520D01*
X127698731Y-72358035D01*
X127698731Y-69585914D01*
X127496146Y-69095620D01*
X127121353Y-68720173D01*
X126783553Y-68579906D01*
X127119380Y-68441146D01*
X127494827Y-68066353D01*
X127698268Y-67576413D01*
X127698731Y-67045914D01*
X127496146Y-66555620D01*
X127121353Y-66180173D01*
X126783553Y-66039906D01*
X127119380Y-65901146D01*
X127494827Y-65526353D01*
X127698268Y-65036413D01*
X127698731Y-64505914D01*
X127496146Y-64015620D01*
X127121353Y-63640173D01*
X126783553Y-63499906D01*
X127119380Y-63361146D01*
X127494827Y-62986353D01*
X127698268Y-62496413D01*
X127698731Y-61965914D01*
X127496146Y-61475620D01*
X127121353Y-61100173D01*
X126783553Y-60959906D01*
X127119380Y-60821146D01*
X127494827Y-60446353D01*
X127698268Y-59956413D01*
X127698731Y-59425914D01*
X127496146Y-58935620D01*
X127121353Y-58560173D01*
X126783553Y-58419906D01*
X127119380Y-58281146D01*
X127494827Y-57906353D01*
X127698268Y-57416413D01*
X127698731Y-56885914D01*
X127496146Y-56395620D01*
X127121353Y-56020173D01*
X126936704Y-55943500D01*
X127189809Y-55943500D01*
X127423198Y-55846827D01*
X127601827Y-55668199D01*
X127698500Y-55434810D01*
X127698500Y-55182191D01*
X127698500Y-53785191D01*
X127601827Y-53551802D01*
X127423199Y-53373173D01*
X127189810Y-53276500D01*
X126937191Y-53276500D01*
X125650563Y-53276500D01*
X125729779Y-53085727D01*
X125730220Y-52580490D01*
X125537282Y-52113542D01*
X125180337Y-51755974D01*
X124713727Y-51562221D01*
X124208490Y-51561780D01*
X123741542Y-51754718D01*
X123698000Y-51798184D01*
X123698000Y-31654750D01*
X123698000Y-30607000D01*
X122650250Y-30607000D01*
X122491500Y-30765750D01*
X122491500Y-31304809D01*
X122588173Y-31538198D01*
X122766801Y-31716827D01*
X123000190Y-31813500D01*
X123252809Y-31813500D01*
X123539250Y-31813500D01*
X123698000Y-31654750D01*
X123698000Y-51798184D01*
X123383974Y-52111663D01*
X123190221Y-52578273D01*
X123189780Y-53083510D01*
X123382718Y-53550458D01*
X123575000Y-53743075D01*
X123575000Y-55879994D01*
X123574999Y-55880000D01*
X123631189Y-56162484D01*
X123642367Y-56218675D01*
X123834210Y-56505790D01*
X125104207Y-57775786D01*
X125104210Y-57775790D01*
X125209901Y-57846410D01*
X125233854Y-57904380D01*
X125608647Y-58279827D01*
X125946446Y-58420093D01*
X125610620Y-58558854D01*
X125235173Y-58933647D01*
X125031732Y-59423587D01*
X125031269Y-59954086D01*
X125233854Y-60444380D01*
X125608647Y-60819827D01*
X125946446Y-60960093D01*
X125610620Y-61098854D01*
X125235173Y-61473647D01*
X125031732Y-61963587D01*
X125031269Y-62494086D01*
X125233854Y-62984380D01*
X125608647Y-63359827D01*
X125946446Y-63500093D01*
X125610620Y-63638854D01*
X125235173Y-64013647D01*
X125031732Y-64503587D01*
X125031269Y-65034086D01*
X125233854Y-65524380D01*
X125608647Y-65899827D01*
X125946446Y-66040093D01*
X125610620Y-66178854D01*
X125235173Y-66553647D01*
X125031732Y-67043587D01*
X125031269Y-67574086D01*
X125233854Y-68064380D01*
X125608647Y-68439827D01*
X125946446Y-68580093D01*
X125610620Y-68718854D01*
X125235173Y-69093647D01*
X125031732Y-69583587D01*
X125031269Y-70114086D01*
X125233854Y-70604380D01*
X125608647Y-70979827D01*
X125930118Y-71113313D01*
X125672071Y-71220200D01*
X125610417Y-71455812D01*
X126365000Y-72210395D01*
X127119583Y-71455812D01*
X127057929Y-71220200D01*
X126778688Y-71121916D01*
X127119380Y-70981146D01*
X127494827Y-70606353D01*
X127698268Y-70116413D01*
X127698731Y-69585914D01*
X127698731Y-72358035D01*
X127682148Y-72052801D01*
X127534800Y-71697071D01*
X127299188Y-71635417D01*
X126544605Y-72390000D01*
X127299188Y-73144583D01*
X127534800Y-73082929D01*
X127710927Y-72582520D01*
X127710927Y-98123727D01*
X127611240Y-98223414D01*
X127611240Y-95081211D01*
X127286910Y-94296273D01*
X127119583Y-94128653D01*
X127119583Y-73324188D01*
X126365000Y-72569605D01*
X126185395Y-72749210D01*
X126185395Y-72390000D01*
X125430812Y-71635417D01*
X125195200Y-71697071D01*
X125019073Y-72197480D01*
X125047852Y-72727199D01*
X125195200Y-73082929D01*
X125430812Y-73144583D01*
X126185395Y-72390000D01*
X126185395Y-72749210D01*
X125610417Y-73324188D01*
X125672071Y-73559800D01*
X126172480Y-73735927D01*
X126702199Y-73707148D01*
X127057929Y-73559800D01*
X127119583Y-73324188D01*
X127119583Y-94128653D01*
X126757516Y-93765953D01*
X126757516Y-79994035D01*
X126746000Y-79723587D01*
X126731723Y-79388300D01*
X126549539Y-78948467D01*
X126294198Y-78863409D01*
X126408788Y-78748820D01*
X126352326Y-78692358D01*
X126470698Y-78643327D01*
X126649327Y-78464699D01*
X126746000Y-78231310D01*
X126746000Y-77978691D01*
X126746000Y-76200691D01*
X126649327Y-75967302D01*
X126470699Y-75788673D01*
X126237310Y-75692000D01*
X125984691Y-75692000D01*
X124206691Y-75692000D01*
X123973302Y-75788673D01*
X123794673Y-75967301D01*
X123698000Y-76200690D01*
X123698000Y-76453309D01*
X123698000Y-78231309D01*
X123794673Y-78464698D01*
X123973301Y-78643327D01*
X124091673Y-78692358D01*
X124035212Y-78748820D01*
X124149801Y-78863409D01*
X123894461Y-78948467D01*
X123686484Y-79517965D01*
X123712277Y-80123700D01*
X123894461Y-80563533D01*
X124149804Y-80648591D01*
X125042395Y-79756000D01*
X125028252Y-79741857D01*
X125207857Y-79562252D01*
X125222000Y-79576395D01*
X125236142Y-79562252D01*
X125415747Y-79741857D01*
X125401605Y-79756000D01*
X126294196Y-80648591D01*
X126549539Y-80563533D01*
X126757516Y-79994035D01*
X126757516Y-93765953D01*
X126746264Y-93754681D01*
X126746264Y-81994188D01*
X126514738Y-81433851D01*
X126086404Y-81004769D01*
X126059494Y-80993595D01*
X126114591Y-80828196D01*
X125222000Y-79935605D01*
X125042395Y-80115210D01*
X124329409Y-80828196D01*
X124384353Y-80993137D01*
X124359851Y-81003262D01*
X123930769Y-81431596D01*
X123698265Y-81991528D01*
X123697736Y-82597812D01*
X123929262Y-83158149D01*
X124357596Y-83587231D01*
X124917528Y-83819735D01*
X125523812Y-83820264D01*
X126084149Y-83588738D01*
X126513231Y-83160404D01*
X126745735Y-82600472D01*
X126746264Y-81994188D01*
X126746264Y-93754681D01*
X126686886Y-93695200D01*
X125902515Y-93369501D01*
X125053211Y-93368760D01*
X124268273Y-93693090D01*
X123667200Y-94293114D01*
X123341501Y-95077485D01*
X123340760Y-95926789D01*
X123665090Y-96711727D01*
X124265114Y-97312800D01*
X125049485Y-97638499D01*
X125898789Y-97639240D01*
X126683727Y-97314910D01*
X127284800Y-96714886D01*
X127610499Y-95930515D01*
X127611240Y-95081211D01*
X127611240Y-98223414D01*
X124474327Y-101360327D01*
X124011517Y-102052971D01*
X123860569Y-102811837D01*
X123767220Y-102874211D01*
X123087638Y-103891278D01*
X122849000Y-105090991D01*
X122849000Y-107253009D01*
X123087638Y-108452722D01*
X123767220Y-109469789D01*
X124784287Y-110149371D01*
X125984000Y-110388009D01*
X127183713Y-110149371D01*
X128200780Y-109469789D01*
X128880362Y-108452722D01*
X129119000Y-107253009D01*
X129119000Y-105090991D01*
X128880362Y-103891278D01*
X128520556Y-103352789D01*
X130424346Y-101449000D01*
X134620000Y-101449000D01*
X135437029Y-101286483D01*
X136129673Y-100823673D01*
X136592483Y-100131029D01*
X136755000Y-99314000D01*
X136755000Y-94845000D01*
X140970000Y-94845000D01*
X141787029Y-94682483D01*
X142479673Y-94219673D01*
X142562976Y-94095000D01*
X147381314Y-94095000D01*
X147774488Y-94488174D01*
X147272188Y-94487736D01*
X146711851Y-94719262D01*
X146303664Y-95126737D01*
X145898404Y-94720769D01*
X145338472Y-94488265D01*
X144732188Y-94487736D01*
X144171851Y-94719262D01*
X143742769Y-95147596D01*
X143510265Y-95707528D01*
X143509736Y-96313812D01*
X143741262Y-96874149D01*
X144169596Y-97303231D01*
X144729528Y-97535735D01*
X145335812Y-97536264D01*
X145896149Y-97304738D01*
X146304335Y-96897262D01*
X146709596Y-97303231D01*
X147269528Y-97535735D01*
X147875812Y-97536264D01*
X148436149Y-97304738D01*
X148626292Y-97114926D01*
X148686673Y-97260698D01*
X148865301Y-97439327D01*
X149098690Y-97536000D01*
X149351309Y-97536000D01*
X151129309Y-97536000D01*
X151362698Y-97439327D01*
X151541327Y-97260699D01*
X151638000Y-97027310D01*
X151638000Y-99587018D01*
X151524173Y-99700647D01*
X151320732Y-100190587D01*
X151320269Y-100721086D01*
X151522854Y-101211380D01*
X151897647Y-101586827D01*
X152387587Y-101790268D01*
X152918086Y-101790731D01*
X153408380Y-101588146D01*
X153783827Y-101213353D01*
X153987268Y-100723413D01*
X153987731Y-100192914D01*
X153987731Y-113527914D01*
X153785146Y-113037620D01*
X153410353Y-112662173D01*
X152920413Y-112458732D01*
X152389914Y-112458269D01*
X151899620Y-112660854D01*
X151638000Y-112922018D01*
X151638000Y-110489310D01*
X151638000Y-110236691D01*
X151638000Y-108458691D01*
X151541327Y-108225302D01*
X151362699Y-108046673D01*
X151129310Y-107950000D01*
X150876691Y-107950000D01*
X150431731Y-107950000D01*
X150431731Y-103621914D01*
X150229146Y-103131620D01*
X149854353Y-102756173D01*
X149364413Y-102552732D01*
X148833914Y-102552269D01*
X148343620Y-102754854D01*
X147971418Y-103126407D01*
X147816146Y-102750620D01*
X147441353Y-102375173D01*
X146951413Y-102171732D01*
X146420914Y-102171269D01*
X146367731Y-102193243D01*
X146367731Y-100192914D01*
X146165146Y-99702620D01*
X145790353Y-99327173D01*
X145300413Y-99123732D01*
X144769914Y-99123269D01*
X144279620Y-99325854D01*
X143904173Y-99700647D01*
X143830479Y-99878120D01*
X143825282Y-99865542D01*
X143468337Y-99507974D01*
X143001727Y-99314221D01*
X142747889Y-99313999D01*
X142748220Y-98935490D01*
X142555282Y-98468542D01*
X142198337Y-98110974D01*
X141731727Y-97917221D01*
X141226490Y-97916780D01*
X140759542Y-98109718D01*
X140401974Y-98466663D01*
X140208221Y-98933273D01*
X140207983Y-99205437D01*
X137042210Y-102371210D01*
X136850367Y-102658325D01*
X136839189Y-102714515D01*
X136782999Y-102997000D01*
X136783000Y-102997005D01*
X136783000Y-104266994D01*
X136782999Y-104267000D01*
X136839189Y-104549484D01*
X136850367Y-104605675D01*
X137042210Y-104892790D01*
X137677207Y-105527786D01*
X137677210Y-105527790D01*
X137677211Y-105527790D01*
X137869054Y-105655975D01*
X137964325Y-105719633D01*
X137964326Y-105719634D01*
X138303000Y-105787001D01*
X138303000Y-105787000D01*
X138303005Y-105787000D01*
X140782321Y-105787000D01*
X141097273Y-105917779D01*
X141602510Y-105918220D01*
X142069458Y-105725282D01*
X142427026Y-105368337D01*
X142620779Y-104901727D01*
X142621220Y-104396490D01*
X142428282Y-103929542D01*
X142071337Y-103571974D01*
X141604727Y-103378221D01*
X141459485Y-103378094D01*
X142983373Y-101854205D01*
X142999510Y-101854220D01*
X143466458Y-101661282D01*
X143824026Y-101304337D01*
X143882789Y-101162819D01*
X143902854Y-101211380D01*
X144277647Y-101586827D01*
X144767587Y-101790268D01*
X145298086Y-101790731D01*
X145788380Y-101588146D01*
X146163827Y-101213353D01*
X146367268Y-100723413D01*
X146367731Y-100192914D01*
X146367731Y-102193243D01*
X145930620Y-102373854D01*
X145555173Y-102748647D01*
X145351732Y-103238587D01*
X145351269Y-103769086D01*
X145553854Y-104259380D01*
X145928647Y-104634827D01*
X146418587Y-104838268D01*
X146949086Y-104838731D01*
X147439380Y-104636146D01*
X147811581Y-104264592D01*
X147966854Y-104640380D01*
X148341647Y-105015827D01*
X148831587Y-105219268D01*
X149362086Y-105219731D01*
X149852380Y-105017146D01*
X150227827Y-104642353D01*
X150431268Y-104152413D01*
X150431731Y-103621914D01*
X150431731Y-107950000D01*
X149098691Y-107950000D01*
X148865302Y-108046673D01*
X148686673Y-108225301D01*
X148626317Y-108371011D01*
X148438404Y-108182769D01*
X147878472Y-107950265D01*
X147272188Y-107949736D01*
X146711851Y-108181262D01*
X146303664Y-108588737D01*
X145898404Y-108182769D01*
X145338472Y-107950265D01*
X144732188Y-107949736D01*
X144171851Y-108181262D01*
X143742769Y-108609596D01*
X143510265Y-109169528D01*
X143509736Y-109775812D01*
X143741262Y-110336149D01*
X144169596Y-110765231D01*
X144729528Y-110997735D01*
X145335812Y-110998264D01*
X145896149Y-110766738D01*
X146304335Y-110359262D01*
X146709596Y-110765231D01*
X147269528Y-110997735D01*
X147875812Y-110998264D01*
X148436149Y-110766738D01*
X148626292Y-110576926D01*
X148686673Y-110722698D01*
X148865301Y-110901327D01*
X149098690Y-110998000D01*
X149351309Y-110998000D01*
X151129309Y-110998000D01*
X151362698Y-110901327D01*
X151541327Y-110722699D01*
X151638000Y-110489310D01*
X151638000Y-112922018D01*
X151524173Y-113035647D01*
X151320732Y-113525587D01*
X151320269Y-114056086D01*
X151522854Y-114546380D01*
X151897647Y-114921827D01*
X152387587Y-115125268D01*
X152918086Y-115125731D01*
X153408380Y-114923146D01*
X153783827Y-114548353D01*
X153987268Y-114058413D01*
X153987731Y-113527914D01*
X153987731Y-117933000D01*
X150145035Y-117933000D01*
X150227827Y-117850353D01*
X150431268Y-117360413D01*
X150431731Y-116829914D01*
X150229146Y-116339620D01*
X149854353Y-115964173D01*
X149364413Y-115760732D01*
X148833914Y-115760269D01*
X148343620Y-115962854D01*
X147968173Y-116337647D01*
X147764732Y-116827587D01*
X147764269Y-117358086D01*
X147966854Y-117848380D01*
X148051326Y-117933000D01*
X147351035Y-117933000D01*
X147433827Y-117850353D01*
X147637268Y-117360413D01*
X147637731Y-116829914D01*
X147435146Y-116339620D01*
X147060353Y-115964173D01*
X146570413Y-115760732D01*
X146367731Y-115760555D01*
X146367731Y-113527914D01*
X146165146Y-113037620D01*
X145790353Y-112662173D01*
X145300413Y-112458732D01*
X144769914Y-112458269D01*
X144279620Y-112660854D01*
X143904173Y-113035647D01*
X143700732Y-113525587D01*
X143700269Y-114056086D01*
X143902854Y-114546380D01*
X144277647Y-114921827D01*
X144767587Y-115125268D01*
X145298086Y-115125731D01*
X145788380Y-114923146D01*
X146163827Y-114548353D01*
X146367268Y-114058413D01*
X146367731Y-113527914D01*
X146367731Y-115760555D01*
X146039914Y-115760269D01*
X145549620Y-115962854D01*
X145174173Y-116337647D01*
X144970732Y-116827587D01*
X144970269Y-117358086D01*
X145172854Y-117848380D01*
X145257326Y-117933000D01*
X139731035Y-117933000D01*
X139813827Y-117850353D01*
X140017268Y-117360413D01*
X140017731Y-116829914D01*
X139815146Y-116339620D01*
X139440353Y-115964173D01*
X138950413Y-115760732D01*
X138419914Y-115760269D01*
X137929620Y-115962854D01*
X137554173Y-116337647D01*
X137350732Y-116827587D01*
X137350269Y-117358086D01*
X137552854Y-117848380D01*
X137637326Y-117933000D01*
X136739543Y-117933000D01*
X136739543Y-113171146D01*
X136263273Y-112018485D01*
X136231000Y-111986155D01*
X136231000Y-109798310D01*
X136231000Y-109545691D01*
X136231000Y-106457750D01*
X136231000Y-105886250D01*
X136231000Y-102798309D01*
X136231000Y-102545690D01*
X136134327Y-102312301D01*
X135955698Y-102133673D01*
X135722309Y-102037000D01*
X133381750Y-102037000D01*
X133223000Y-102195750D01*
X133223000Y-106045000D01*
X136072250Y-106045000D01*
X136231000Y-105886250D01*
X136231000Y-106457750D01*
X136072250Y-106299000D01*
X133223000Y-106299000D01*
X133223000Y-110148250D01*
X133381750Y-110307000D01*
X135722309Y-110307000D01*
X135955698Y-110210327D01*
X136134327Y-110031699D01*
X136231000Y-109798310D01*
X136231000Y-111986155D01*
X135382153Y-111135826D01*
X134230326Y-110657546D01*
X132983146Y-110656457D01*
X132969000Y-110662302D01*
X132969000Y-110148250D01*
X132969000Y-106299000D01*
X132969000Y-106045000D01*
X132969000Y-102195750D01*
X132810250Y-102037000D01*
X130469691Y-102037000D01*
X130236302Y-102133673D01*
X130057673Y-102312301D01*
X129961000Y-102545690D01*
X129961000Y-102798309D01*
X129961000Y-105886250D01*
X130119750Y-106045000D01*
X132969000Y-106045000D01*
X132969000Y-106299000D01*
X130119750Y-106299000D01*
X129961000Y-106457750D01*
X129961000Y-109545691D01*
X129961000Y-109798310D01*
X130057673Y-110031699D01*
X130236302Y-110210327D01*
X130469691Y-110307000D01*
X132810250Y-110307000D01*
X132969000Y-110148250D01*
X132969000Y-110662302D01*
X131830485Y-111132727D01*
X130947826Y-112013847D01*
X130469546Y-113165674D01*
X130468457Y-114412854D01*
X130944727Y-115565515D01*
X131825847Y-116448174D01*
X132977674Y-116926454D01*
X134224854Y-116927543D01*
X135377515Y-116451273D01*
X136260174Y-115570153D01*
X136738454Y-114418326D01*
X136739543Y-113171146D01*
X136739543Y-117933000D01*
X128611543Y-117933000D01*
X128611543Y-113171146D01*
X128135273Y-112018485D01*
X127254153Y-111135826D01*
X126102326Y-110657546D01*
X124855146Y-110656457D01*
X123702485Y-111132727D01*
X122819826Y-112013847D01*
X122341546Y-113165674D01*
X122340457Y-114412854D01*
X122816727Y-115565515D01*
X123697847Y-116448174D01*
X124849674Y-116926454D01*
X126096854Y-116927543D01*
X127249515Y-116451273D01*
X128132174Y-115570153D01*
X128610454Y-114418326D01*
X128611543Y-113171146D01*
X128611543Y-117933000D01*
X122097000Y-117933000D01*
X122097000Y-19481000D01*
X170511000Y-19481000D01*
X170511000Y-39048371D01*
X170243731Y-38403126D01*
X170243731Y-27675914D01*
X170041146Y-27185620D01*
X169666353Y-26810173D01*
X169328553Y-26669906D01*
X169664380Y-26531146D01*
X170039827Y-26156353D01*
X170243268Y-25666413D01*
X170243731Y-25135914D01*
X170041146Y-24645620D01*
X169666353Y-24270173D01*
X169328553Y-24129906D01*
X169664380Y-23991146D01*
X170039827Y-23616353D01*
X170243268Y-23126413D01*
X170243731Y-22595914D01*
X170041146Y-22105620D01*
X169666353Y-21730173D01*
X169176413Y-21526732D01*
X168645914Y-21526269D01*
X168155620Y-21728854D01*
X167780173Y-22103647D01*
X167576732Y-22593587D01*
X167576269Y-23124086D01*
X167778854Y-23614380D01*
X168153647Y-23989827D01*
X168491446Y-24130093D01*
X168155620Y-24268854D01*
X167780173Y-24643647D01*
X167576732Y-25133587D01*
X167576269Y-25664086D01*
X167778854Y-26154380D01*
X168153647Y-26529827D01*
X168491446Y-26670093D01*
X168155620Y-26808854D01*
X167780173Y-27183647D01*
X167576732Y-27673587D01*
X167576269Y-28204086D01*
X167778854Y-28694380D01*
X168153647Y-29069827D01*
X168338295Y-29146500D01*
X168337809Y-29146500D01*
X168085190Y-29146500D01*
X167851801Y-29243173D01*
X167673173Y-29421802D01*
X167576500Y-29655191D01*
X167576500Y-30194250D01*
X167735250Y-30353000D01*
X168783000Y-30353000D01*
X168783000Y-30333000D01*
X169037000Y-30333000D01*
X169037000Y-30353000D01*
X170084750Y-30353000D01*
X170243500Y-30194250D01*
X170243500Y-29655191D01*
X170146827Y-29421802D01*
X169968199Y-29243173D01*
X169734810Y-29146500D01*
X169482191Y-29146500D01*
X169482009Y-29146500D01*
X169664380Y-29071146D01*
X170039827Y-28696353D01*
X170243268Y-28206413D01*
X170243731Y-27675914D01*
X170243731Y-38403126D01*
X170243500Y-38402568D01*
X170243500Y-31304809D01*
X170243500Y-30765750D01*
X170084750Y-30607000D01*
X169037000Y-30607000D01*
X169037000Y-31654750D01*
X169195750Y-31813500D01*
X169482191Y-31813500D01*
X169734810Y-31813500D01*
X169968199Y-31716827D01*
X170146827Y-31538198D01*
X170243500Y-31304809D01*
X170243500Y-38402568D01*
X170234739Y-38381418D01*
X169915970Y-38221635D01*
X169736365Y-38401240D01*
X169736365Y-38042030D01*
X169576582Y-37723261D01*
X168785813Y-37413277D01*
X168783000Y-37413330D01*
X168783000Y-31654750D01*
X168783000Y-30607000D01*
X167735250Y-30607000D01*
X167576500Y-30765750D01*
X167576500Y-31304809D01*
X167673173Y-31538198D01*
X167851801Y-31716827D01*
X168085190Y-31813500D01*
X168337809Y-31813500D01*
X168624250Y-31813500D01*
X168783000Y-31654750D01*
X168783000Y-37413330D01*
X167936613Y-37429503D01*
X167227418Y-37723261D01*
X167067635Y-38042030D01*
X168402000Y-39376395D01*
X169736365Y-38042030D01*
X169736365Y-38401240D01*
X168581605Y-39556000D01*
X169915970Y-40890365D01*
X170234739Y-40730582D01*
X170511000Y-40025840D01*
X170511000Y-42066921D01*
X170440327Y-41896302D01*
X170261699Y-41717673D01*
X170028310Y-41621000D01*
X169775691Y-41621000D01*
X169015853Y-41621000D01*
X169576582Y-41388739D01*
X169736365Y-41069970D01*
X168402000Y-39735605D01*
X168222395Y-39915210D01*
X168222395Y-39556000D01*
X166888030Y-38221635D01*
X166569261Y-38381418D01*
X166259277Y-39172187D01*
X166275503Y-40021387D01*
X166569261Y-40730582D01*
X166888030Y-40890365D01*
X168222395Y-39556000D01*
X168222395Y-39915210D01*
X167067635Y-41069970D01*
X167227418Y-41388739D01*
X167819915Y-41621000D01*
X166775691Y-41621000D01*
X166542302Y-41717673D01*
X166363673Y-41896301D01*
X166267000Y-42129690D01*
X166267000Y-42382309D01*
X166267000Y-45382309D01*
X166363673Y-45615698D01*
X166542301Y-45794327D01*
X166775690Y-45891000D01*
X167028309Y-45891000D01*
X170028309Y-45891000D01*
X170261698Y-45794327D01*
X170440327Y-45615699D01*
X170511000Y-45445079D01*
X170511000Y-111184371D01*
X170417723Y-110959180D01*
X170417723Y-97978813D01*
X170417723Y-83373813D01*
X170417723Y-68768813D01*
X170417723Y-54163813D01*
X170401497Y-53314613D01*
X170107739Y-52605418D01*
X169788970Y-52445635D01*
X169609365Y-52625240D01*
X169609365Y-52266030D01*
X169449582Y-51947261D01*
X168658813Y-51637277D01*
X167809613Y-51653503D01*
X167100418Y-51947261D01*
X166940635Y-52266030D01*
X168275000Y-53600395D01*
X169609365Y-52266030D01*
X169609365Y-52625240D01*
X168454605Y-53780000D01*
X169788970Y-55114365D01*
X170107739Y-54954582D01*
X170417723Y-54163813D01*
X170417723Y-68768813D01*
X170410000Y-68364623D01*
X170410000Y-59606310D01*
X170410000Y-59353691D01*
X170410000Y-56353691D01*
X170313327Y-56120302D01*
X170134699Y-55941673D01*
X169901310Y-55845000D01*
X169648691Y-55845000D01*
X168888853Y-55845000D01*
X169449582Y-55612739D01*
X169609365Y-55293970D01*
X168275000Y-53959605D01*
X168095395Y-54139210D01*
X168095395Y-53780000D01*
X166761030Y-52445635D01*
X166442261Y-52605418D01*
X166132277Y-53396187D01*
X166148503Y-54245387D01*
X166442261Y-54954582D01*
X166761030Y-55114365D01*
X168095395Y-53780000D01*
X168095395Y-54139210D01*
X166940635Y-55293970D01*
X167100418Y-55612739D01*
X167692915Y-55845000D01*
X166648691Y-55845000D01*
X166415302Y-55941673D01*
X166236673Y-56120301D01*
X166140000Y-56353690D01*
X166140000Y-56606309D01*
X166140000Y-59606309D01*
X166236673Y-59839698D01*
X166415301Y-60018327D01*
X166648690Y-60115000D01*
X166901309Y-60115000D01*
X169901309Y-60115000D01*
X170134698Y-60018327D01*
X170313327Y-59839699D01*
X170410000Y-59606310D01*
X170410000Y-68364623D01*
X170401497Y-67919613D01*
X170107739Y-67210418D01*
X169788970Y-67050635D01*
X169609365Y-67230240D01*
X169609365Y-66871030D01*
X169449582Y-66552261D01*
X168658813Y-66242277D01*
X167809613Y-66258503D01*
X167100418Y-66552261D01*
X166940635Y-66871030D01*
X168275000Y-68205395D01*
X169609365Y-66871030D01*
X169609365Y-67230240D01*
X168454605Y-68385000D01*
X169788970Y-69719365D01*
X170107739Y-69559582D01*
X170417723Y-68768813D01*
X170417723Y-83373813D01*
X170410000Y-82969623D01*
X170410000Y-74211310D01*
X170410000Y-73958691D01*
X170410000Y-70958691D01*
X170313327Y-70725302D01*
X170134699Y-70546673D01*
X169901310Y-70450000D01*
X169648691Y-70450000D01*
X168888853Y-70450000D01*
X169449582Y-70217739D01*
X169609365Y-69898970D01*
X168275000Y-68564605D01*
X168095395Y-68744210D01*
X168095395Y-68385000D01*
X166761030Y-67050635D01*
X166442261Y-67210418D01*
X166132277Y-68001187D01*
X166148503Y-68850387D01*
X166442261Y-69559582D01*
X166761030Y-69719365D01*
X168095395Y-68385000D01*
X168095395Y-68744210D01*
X166940635Y-69898970D01*
X167100418Y-70217739D01*
X167692915Y-70450000D01*
X166648691Y-70450000D01*
X166415302Y-70546673D01*
X166236673Y-70725301D01*
X166140000Y-70958690D01*
X166140000Y-71211309D01*
X166140000Y-74211309D01*
X166236673Y-74444698D01*
X166415301Y-74623327D01*
X166648690Y-74720000D01*
X166901309Y-74720000D01*
X169901309Y-74720000D01*
X170134698Y-74623327D01*
X170313327Y-74444699D01*
X170410000Y-74211310D01*
X170410000Y-82969623D01*
X170401497Y-82524613D01*
X170107739Y-81815418D01*
X169788970Y-81655635D01*
X169609365Y-81835240D01*
X169609365Y-81476030D01*
X169449582Y-81157261D01*
X168658813Y-80847277D01*
X167809613Y-80863503D01*
X167100418Y-81157261D01*
X166940635Y-81476030D01*
X168275000Y-82810395D01*
X169609365Y-81476030D01*
X169609365Y-81835240D01*
X168454605Y-82990000D01*
X169788970Y-84324365D01*
X170107739Y-84164582D01*
X170417723Y-83373813D01*
X170417723Y-97978813D01*
X170410000Y-97574623D01*
X170410000Y-88816310D01*
X170410000Y-88563691D01*
X170410000Y-85563691D01*
X170313327Y-85330302D01*
X170134699Y-85151673D01*
X169901310Y-85055000D01*
X169648691Y-85055000D01*
X168888853Y-85055000D01*
X169449582Y-84822739D01*
X169609365Y-84503970D01*
X168275000Y-83169605D01*
X168095395Y-83349210D01*
X168095395Y-82990000D01*
X166761030Y-81655635D01*
X166442261Y-81815418D01*
X166132277Y-82606187D01*
X166148503Y-83455387D01*
X166442261Y-84164582D01*
X166761030Y-84324365D01*
X168095395Y-82990000D01*
X168095395Y-83349210D01*
X166940635Y-84503970D01*
X167100418Y-84822739D01*
X167692915Y-85055000D01*
X166648691Y-85055000D01*
X166415302Y-85151673D01*
X166236673Y-85330301D01*
X166140000Y-85563690D01*
X166140000Y-85816309D01*
X166140000Y-88816309D01*
X166236673Y-89049698D01*
X166415301Y-89228327D01*
X166648690Y-89325000D01*
X166901309Y-89325000D01*
X169901309Y-89325000D01*
X170134698Y-89228327D01*
X170313327Y-89049699D01*
X170410000Y-88816310D01*
X170410000Y-97574623D01*
X170401497Y-97129613D01*
X170107739Y-96420418D01*
X169788970Y-96260635D01*
X169609365Y-96440240D01*
X169609365Y-96081030D01*
X169449582Y-95762261D01*
X168658813Y-95452277D01*
X167809613Y-95468503D01*
X167100418Y-95762261D01*
X166940635Y-96081030D01*
X168275000Y-97415395D01*
X169609365Y-96081030D01*
X169609365Y-96440240D01*
X168454605Y-97595000D01*
X169788970Y-98929365D01*
X170107739Y-98769582D01*
X170417723Y-97978813D01*
X170417723Y-110959180D01*
X170410000Y-110940535D01*
X170410000Y-103421310D01*
X170410000Y-103168691D01*
X170410000Y-100168691D01*
X170313327Y-99935302D01*
X170134699Y-99756673D01*
X169901310Y-99660000D01*
X169648691Y-99660000D01*
X168888853Y-99660000D01*
X169449582Y-99427739D01*
X169609365Y-99108970D01*
X168275000Y-97774605D01*
X168095395Y-97954210D01*
X168095395Y-97595000D01*
X166761030Y-96260635D01*
X166442261Y-96420418D01*
X166132277Y-97211187D01*
X166148503Y-98060387D01*
X166442261Y-98769582D01*
X166761030Y-98929365D01*
X168095395Y-97595000D01*
X168095395Y-97954210D01*
X166940635Y-99108970D01*
X167100418Y-99427739D01*
X167692915Y-99660000D01*
X166648691Y-99660000D01*
X166415302Y-99756673D01*
X166236673Y-99935301D01*
X166140000Y-100168690D01*
X166140000Y-100421309D01*
X166140000Y-103421309D01*
X166236673Y-103654698D01*
X166415301Y-103833327D01*
X166648690Y-103930000D01*
X166901309Y-103930000D01*
X169901309Y-103930000D01*
X170134698Y-103833327D01*
X170313327Y-103654699D01*
X170410000Y-103421310D01*
X170410000Y-110940535D01*
X170234739Y-110517418D01*
X169915970Y-110357635D01*
X169736365Y-110537240D01*
X169736365Y-110178030D01*
X169576582Y-109859261D01*
X168785813Y-109549277D01*
X167936613Y-109565503D01*
X167227418Y-109859261D01*
X167067635Y-110178030D01*
X168402000Y-111512395D01*
X169736365Y-110178030D01*
X169736365Y-110537240D01*
X168581605Y-111692000D01*
X169915970Y-113026365D01*
X170234739Y-112866582D01*
X170511000Y-112161840D01*
X170511000Y-114202921D01*
M02*
