%FSLAX46Y46*%
G04 Gerber Fmt 4.6, Leading zero omitted, Abs format (unit mm)*
G04 Created by KiCad (PCBNEW (2014-jan-25)-product) date Mon 14 Jul 2014 01:36:15 BST*
%MOMM*%
G01*
G04 APERTURE LIST*
%ADD10C,0.100000*%
%ADD11R,1.397000X1.397000*%
%ADD12C,1.397000*%
%ADD13C,1.778000*%
%ADD14R,1.778000X1.778000*%
%ADD15C,1.676400*%
%ADD16R,5.000000X7.000000*%
%ADD17O,5.000000X7.000000*%
%ADD18R,3.000000X3.000000*%
%ADD19C,3.000000*%
%ADD20C,0.889000*%
%ADD21C,0.500000*%
%ADD22C,0.254000*%
%ADD23C,0.750000*%
%ADD24C,1.500000*%
G04 APERTURE END LIST*
D10*
D11*
X126365000Y-54610000D03*
D12*
X126365000Y-57150000D03*
X126365000Y-59690000D03*
X126365000Y-62230000D03*
X126365000Y-64770000D03*
X126365000Y-67310000D03*
X126365000Y-69850000D03*
X126365000Y-72390000D03*
X133985000Y-72390000D03*
X133985000Y-69850000D03*
X133985000Y-67310000D03*
X133985000Y-64770000D03*
X133985000Y-62230000D03*
X133985000Y-59690000D03*
X133985000Y-57150000D03*
X133985000Y-54610000D03*
D13*
X125222000Y-82296000D03*
X125222000Y-79756000D03*
D14*
X125222000Y-77216000D03*
D15*
X160020000Y-34798000D03*
X162560000Y-34798000D03*
X159766000Y-48006000D03*
X162306000Y-48006000D03*
X160528000Y-61976000D03*
X163068000Y-61976000D03*
X160020000Y-75184000D03*
X162560000Y-75184000D03*
X159766000Y-88900000D03*
X162306000Y-88900000D03*
X159766000Y-102362000D03*
X162306000Y-102362000D03*
X159766000Y-115062000D03*
X162306000Y-115062000D03*
D12*
X129286000Y-85344000D03*
X129286000Y-82804000D03*
X129286000Y-76962000D03*
X129286000Y-79502000D03*
X128905000Y-49530000D03*
X131445000Y-49530000D03*
D16*
X133096000Y-106172000D03*
D17*
X125984000Y-106172000D03*
D11*
X123825000Y-30480000D03*
D12*
X123825000Y-27940000D03*
X123825000Y-25400000D03*
X123825000Y-22860000D03*
D11*
X168910000Y-30480000D03*
D12*
X168910000Y-27940000D03*
X168910000Y-25400000D03*
X168910000Y-22860000D03*
D13*
X145034000Y-26162000D03*
X147574000Y-26162000D03*
D14*
X150114000Y-26162000D03*
D13*
X145034000Y-40132000D03*
X147574000Y-40132000D03*
D14*
X150114000Y-40132000D03*
D13*
X145034000Y-54102000D03*
X147574000Y-54102000D03*
D14*
X150114000Y-54102000D03*
D13*
X145034000Y-68072000D03*
X147574000Y-68072000D03*
D14*
X150114000Y-68072000D03*
D13*
X145034000Y-82042000D03*
X147574000Y-82042000D03*
D14*
X150114000Y-82042000D03*
D13*
X145034000Y-96012000D03*
X147574000Y-96012000D03*
D14*
X150114000Y-96012000D03*
D13*
X145034000Y-109474000D03*
X147574000Y-109474000D03*
D14*
X150114000Y-109474000D03*
D12*
X143256000Y-30480000D03*
X150876000Y-30480000D03*
X144018000Y-34036000D03*
X136398000Y-34036000D03*
X144780000Y-44450000D03*
X152400000Y-44450000D03*
X144526000Y-48006000D03*
X136906000Y-48006000D03*
X145034000Y-58547000D03*
X152654000Y-58547000D03*
X146304000Y-61976000D03*
X138684000Y-61976000D03*
X145034000Y-72517000D03*
X152654000Y-72517000D03*
X145542000Y-75946000D03*
X137922000Y-75946000D03*
X145034000Y-100457000D03*
X152654000Y-100457000D03*
X146685000Y-103505000D03*
X139065000Y-103505000D03*
X145034000Y-113792000D03*
X152654000Y-113792000D03*
X146304000Y-117094000D03*
X138684000Y-117094000D03*
X144145000Y-86360000D03*
X151765000Y-86360000D03*
X145288000Y-89916000D03*
X137668000Y-89916000D03*
X155194000Y-34036000D03*
X147574000Y-34036000D03*
X155702000Y-48006000D03*
X148082000Y-48006000D03*
X157226000Y-61976000D03*
X149606000Y-61976000D03*
X156718000Y-75946000D03*
X149098000Y-75946000D03*
X156464000Y-89916000D03*
X148844000Y-89916000D03*
X156718000Y-103886000D03*
X149098000Y-103886000D03*
X156718000Y-117094000D03*
X149098000Y-117094000D03*
D18*
X162560000Y-28770000D03*
D19*
X162560000Y-24570000D03*
D18*
X168402000Y-43756000D03*
D19*
X168402000Y-39556000D03*
D18*
X168275000Y-57980000D03*
D19*
X168275000Y-53780000D03*
D18*
X168275000Y-72585000D03*
D19*
X168275000Y-68385000D03*
D18*
X168275000Y-87190000D03*
D19*
X168275000Y-82990000D03*
D18*
X168275000Y-101795000D03*
D19*
X168275000Y-97595000D03*
D18*
X168402000Y-115892000D03*
D19*
X168402000Y-111692000D03*
D20*
X138938000Y-95504000D03*
X140462000Y-96012000D03*
X140462000Y-97536000D03*
X138938000Y-97282000D03*
X137414000Y-97282000D03*
X137414000Y-98806000D03*
X139192000Y-98806000D03*
X137414000Y-95504000D03*
X133350000Y-74930000D03*
X138684000Y-68072000D03*
X127000000Y-33782000D03*
X131826000Y-57912000D03*
X137922000Y-66040000D03*
X142748000Y-100838000D03*
X141478000Y-99568000D03*
X135890000Y-61976000D03*
X136144000Y-64770000D03*
X137160000Y-104394000D03*
X128778000Y-32258000D03*
X124460000Y-52832000D03*
X127762000Y-29464000D03*
X129540000Y-28448000D03*
X128524000Y-23368000D03*
X130302000Y-66040000D03*
X125730000Y-49784000D03*
D21*
X159258000Y-34036000D02*
X160020000Y-34798000D01*
X155194000Y-34036000D02*
X158496000Y-34036000D01*
X158496000Y-34036000D02*
X159258000Y-34036000D01*
D22*
X129286000Y-82804000D02*
X129794000Y-82804000D01*
X138938000Y-95504000D02*
X139192000Y-95758000D01*
X139192000Y-95758000D02*
X140462000Y-96012000D01*
X140462000Y-97536000D02*
X140208000Y-97282000D01*
X140208000Y-97282000D02*
X138938000Y-97282000D01*
X137414000Y-97282000D02*
X137414000Y-98806000D01*
X129794000Y-82804000D02*
X134112000Y-87122000D01*
X134112000Y-87122000D02*
X134112000Y-92202000D01*
X134112000Y-92202000D02*
X137414000Y-95504000D01*
D23*
X129032000Y-79756000D02*
X129286000Y-79502000D01*
X125222000Y-79756000D02*
X129032000Y-79756000D01*
X129286000Y-79502000D02*
X129286000Y-82804000D01*
D21*
X155702000Y-48006000D02*
X159766000Y-48006000D01*
X157226000Y-61976000D02*
X160528000Y-61976000D01*
X156718000Y-75946000D02*
X159258000Y-75946000D01*
X159258000Y-75946000D02*
X160020000Y-75184000D01*
X156464000Y-89916000D02*
X158750000Y-89916000D01*
X158750000Y-89916000D02*
X159766000Y-88900000D01*
X156718000Y-103886000D02*
X158242000Y-103886000D01*
X158242000Y-103886000D02*
X159766000Y-102362000D01*
X156845000Y-117475000D02*
X157353000Y-117475000D01*
X157353000Y-117475000D02*
X159766000Y-115062000D01*
X147574000Y-34036000D02*
X149225000Y-32385000D01*
X149098000Y-32766000D02*
X149098000Y-32258000D01*
X149225000Y-32639000D02*
X149098000Y-32766000D01*
X149225000Y-32385000D02*
X149225000Y-32639000D01*
D24*
X147574000Y-26162000D02*
X147574000Y-30734000D01*
X156650000Y-28770000D02*
X162560000Y-28770000D01*
X152400000Y-33020000D02*
X156650000Y-28770000D01*
X149860000Y-33020000D02*
X152400000Y-33020000D01*
X147574000Y-30734000D02*
X148590000Y-31750000D01*
X148590000Y-31750000D02*
X149098000Y-32258000D01*
X149098000Y-32258000D02*
X149860000Y-33020000D01*
D21*
X148082000Y-48006000D02*
X150114000Y-45974000D01*
X149860000Y-46228000D02*
X149860000Y-45720000D01*
X150114000Y-45974000D02*
X149860000Y-46228000D01*
D24*
X147574000Y-40132000D02*
X147574000Y-43434000D01*
X147574000Y-43434000D02*
X149860000Y-45720000D01*
X153924000Y-46990000D02*
X155194000Y-45720000D01*
X155194000Y-45720000D02*
X166438000Y-45720000D01*
X166438000Y-45720000D02*
X168402000Y-43756000D01*
X150177500Y-46037500D02*
X151130000Y-46990000D01*
X149860000Y-45720000D02*
X150177500Y-46037500D01*
X151130000Y-46990000D02*
X153670000Y-46990000D01*
X153670000Y-46990000D02*
X153924000Y-46990000D01*
D21*
X149098000Y-75946000D02*
X150939500Y-74104500D01*
X150622000Y-74168000D02*
X150622000Y-73787000D01*
X150685500Y-74104500D02*
X150622000Y-74168000D01*
X150939500Y-74104500D02*
X150685500Y-74104500D01*
D24*
X147574000Y-68072000D02*
X147574000Y-70739000D01*
X156845000Y-72390000D02*
X168080000Y-72390000D01*
X154305000Y-74930000D02*
X156845000Y-72390000D01*
X151765000Y-74930000D02*
X154305000Y-74930000D01*
X147574000Y-70739000D02*
X150622000Y-73787000D01*
X150622000Y-73787000D02*
X151130000Y-74295000D01*
X151130000Y-74295000D02*
X151765000Y-74930000D01*
X168080000Y-72390000D02*
X168275000Y-72585000D01*
D21*
X149098000Y-103886000D02*
X149098000Y-101727000D01*
X149098000Y-101727000D02*
X149860000Y-100965000D01*
D24*
X147574000Y-96012000D02*
X147574000Y-98679000D01*
X166565000Y-101795000D02*
X168275000Y-101795000D01*
X164465000Y-99695000D02*
X166565000Y-101795000D01*
X157480000Y-99695000D02*
X164465000Y-99695000D01*
X154305000Y-102870000D02*
X157480000Y-99695000D01*
X151765000Y-102870000D02*
X154305000Y-102870000D01*
X147574000Y-98679000D02*
X149860000Y-100965000D01*
X149860000Y-100965000D02*
X151765000Y-102870000D01*
D21*
X150812500Y-115887500D02*
X150368000Y-116332000D01*
X150368000Y-116332000D02*
X150368000Y-115443000D01*
D24*
X147574000Y-109982000D02*
X147574000Y-112649000D01*
X147574000Y-112649000D02*
X150368000Y-115443000D01*
X150368000Y-115443000D02*
X150812500Y-115887500D01*
X167835000Y-116400000D02*
X168275000Y-116400000D01*
D21*
X149606000Y-117094000D02*
X150812500Y-115887500D01*
X149098000Y-117094000D02*
X149606000Y-117094000D01*
D24*
X166946000Y-115892000D02*
X168402000Y-115892000D01*
X163449000Y-112395000D02*
X166946000Y-115892000D01*
X158115000Y-112395000D02*
X163195000Y-112395000D01*
X153670000Y-116840000D02*
X158115000Y-112395000D01*
X151765000Y-116840000D02*
X153670000Y-116840000D01*
X150812500Y-115887500D02*
X151765000Y-116840000D01*
X163195000Y-112395000D02*
X163449000Y-112395000D01*
X143510000Y-105410000D02*
X144526000Y-106426000D01*
X140335000Y-100965000D02*
X143510000Y-104140000D01*
X143510000Y-104140000D02*
X143510000Y-105410000D01*
X137414000Y-100965000D02*
X140335000Y-100965000D01*
X150114000Y-107696000D02*
X150114000Y-109474000D01*
X148844000Y-106426000D02*
X150114000Y-107696000D01*
X144526000Y-106426000D02*
X148844000Y-106426000D01*
D21*
X150114000Y-96012000D02*
X150114000Y-97917000D01*
X150114000Y-97917000D02*
X152654000Y-100457000D01*
X150114000Y-82042000D02*
X150114000Y-84709000D01*
X150114000Y-84709000D02*
X151765000Y-86360000D01*
X150114000Y-68072000D02*
X150114000Y-69977000D01*
X150114000Y-69977000D02*
X152654000Y-72517000D01*
X150114000Y-54102000D02*
X150114000Y-56007000D01*
X150114000Y-56007000D02*
X152654000Y-58547000D01*
X150114000Y-40132000D02*
X150114000Y-42164000D01*
X150114000Y-42164000D02*
X152400000Y-44450000D01*
X150114000Y-26162000D02*
X150114000Y-29718000D01*
X150114000Y-29718000D02*
X150876000Y-30480000D01*
D24*
X137414000Y-100965000D02*
X137287000Y-100965000D01*
X125730000Y-103886000D02*
X125730000Y-107442000D01*
X132334000Y-100965000D02*
X130556000Y-100965000D01*
X137414000Y-100965000D02*
X132334000Y-100965000D01*
X125222000Y-86360000D02*
X125222000Y-82296000D01*
X125349000Y-86233000D02*
X125222000Y-86360000D01*
X126238000Y-85344000D02*
X125349000Y-86233000D01*
X129286000Y-85344000D02*
X126238000Y-85344000D01*
X125349000Y-87503000D02*
X130810000Y-92964000D01*
X130810000Y-92964000D02*
X130810000Y-100965000D01*
X130810000Y-100965000D02*
X130683000Y-101092000D01*
X130683000Y-101092000D02*
X130556000Y-101092000D01*
X130556000Y-101092000D02*
X130556000Y-100965000D01*
X125349000Y-86233000D02*
X125349000Y-87503000D01*
D21*
X150114000Y-111252000D02*
X152654000Y-113792000D01*
X150114000Y-109474000D02*
X150114000Y-111252000D01*
D24*
X125984000Y-103632000D02*
X125984000Y-106172000D01*
X128651000Y-100965000D02*
X125984000Y-103632000D01*
X130556000Y-100965000D02*
X128651000Y-100965000D01*
D21*
X136398000Y-34036000D02*
X136398000Y-45466000D01*
X131572000Y-59690000D02*
X126365000Y-59690000D01*
X132842000Y-58420000D02*
X131572000Y-59690000D01*
X134620000Y-58420000D02*
X132842000Y-58420000D01*
X135636000Y-57404000D02*
X134620000Y-58420000D01*
X135636000Y-53848000D02*
X135636000Y-57404000D01*
X135128000Y-53340000D02*
X135636000Y-53848000D01*
X135128000Y-46736000D02*
X135128000Y-53340000D01*
X136398000Y-45466000D02*
X135128000Y-46736000D01*
X126365000Y-67310000D02*
X126492000Y-67310000D01*
X129286000Y-70104000D02*
X129286000Y-70866000D01*
X129286000Y-70104000D02*
X129286000Y-68072000D01*
X129286000Y-68072000D02*
X128524000Y-67310000D01*
X128524000Y-67310000D02*
X126365000Y-67310000D01*
X129286000Y-70866000D02*
X133350000Y-74930000D01*
X138684000Y-74168000D02*
X139700000Y-75184000D01*
X139700000Y-75184000D02*
X139700000Y-76708000D01*
X139700000Y-76708000D02*
X137160000Y-79248000D01*
X137160000Y-79248000D02*
X137160000Y-89408000D01*
X137160000Y-89408000D02*
X137668000Y-89916000D01*
X138684000Y-68072000D02*
X138684000Y-74168000D01*
X126365000Y-69850000D02*
X124206000Y-69850000D01*
D23*
X126365000Y-54610000D02*
X126365000Y-51435000D01*
X126365000Y-51435000D02*
X128270000Y-49530000D01*
X128270000Y-49530000D02*
X128905000Y-49530000D01*
X124206000Y-56642000D02*
X124206000Y-69850000D01*
X126238000Y-54610000D02*
X124206000Y-56642000D01*
X126365000Y-54610000D02*
X126238000Y-54610000D01*
X124206000Y-74422000D02*
X125222000Y-75438000D01*
X125222000Y-75438000D02*
X125222000Y-77216000D01*
X124206000Y-69850000D02*
X124206000Y-73152000D01*
X124206000Y-73152000D02*
X124206000Y-74422000D01*
X129032000Y-77216000D02*
X129286000Y-76962000D01*
X125222000Y-77216000D02*
X129032000Y-77216000D01*
D21*
X143256000Y-30480000D02*
X144018000Y-31242000D01*
X144018000Y-31242000D02*
X144018000Y-34036000D01*
X145034000Y-26162000D02*
X145034000Y-28702000D01*
X145034000Y-28702000D02*
X143256000Y-30480000D01*
X144780000Y-44450000D02*
X144780000Y-40386000D01*
X144780000Y-40386000D02*
X145034000Y-40132000D01*
X144526000Y-48006000D02*
X144526000Y-44704000D01*
X144526000Y-44704000D02*
X144780000Y-44450000D01*
X145034000Y-58547000D02*
X145034000Y-60706000D01*
X145034000Y-60706000D02*
X146304000Y-61976000D01*
X145034000Y-54102000D02*
X145034000Y-58547000D01*
X145034000Y-72517000D02*
X145034000Y-75438000D01*
X145034000Y-75438000D02*
X145542000Y-75946000D01*
X145034000Y-68072000D02*
X145034000Y-72517000D01*
X144145000Y-86360000D02*
X144145000Y-82931000D01*
X144145000Y-82931000D02*
X145034000Y-82042000D01*
X144145000Y-86360000D02*
X144145000Y-88773000D01*
X144145000Y-88773000D02*
X145288000Y-89916000D01*
X145034000Y-96012000D02*
X145034000Y-100457000D01*
X145034000Y-100457000D02*
X145034000Y-101854000D01*
X145034000Y-101854000D02*
X146685000Y-103505000D01*
X145034000Y-109474000D02*
X145034000Y-113792000D01*
X145034000Y-115824000D02*
X146304000Y-117094000D01*
X145034000Y-113792000D02*
X145034000Y-115824000D01*
X132334000Y-51562000D02*
X132080000Y-51562000D01*
X125984000Y-34798000D02*
X125984000Y-46228000D01*
X125984000Y-46228000D02*
X127254000Y-47498000D01*
X127254000Y-47498000D02*
X132842000Y-47498000D01*
X132842000Y-47498000D02*
X133350000Y-48006000D01*
X133350000Y-48006000D02*
X133350000Y-50546000D01*
X133350000Y-50546000D02*
X132334000Y-51562000D01*
X127000000Y-33782000D02*
X125984000Y-34798000D01*
X131064000Y-57150000D02*
X131826000Y-57912000D01*
X131064000Y-52578000D02*
X131064000Y-57150000D01*
X132080000Y-51562000D02*
X131064000Y-52578000D01*
D23*
X131064000Y-25400000D02*
X129540000Y-26924000D01*
X132588000Y-23876000D02*
X131064000Y-25400000D01*
X129540000Y-26924000D02*
X128524000Y-26924000D01*
X128524000Y-26924000D02*
X127508000Y-27940000D01*
X163576000Y-21844000D02*
X161544000Y-21844000D01*
X168148000Y-27940000D02*
X165608000Y-25400000D01*
X165608000Y-25400000D02*
X165608000Y-23876000D01*
X165608000Y-23876000D02*
X163576000Y-21844000D01*
X168148000Y-27940000D02*
X168910000Y-27940000D01*
X159512000Y-23876000D02*
X142240000Y-23876000D01*
X161544000Y-21844000D02*
X159512000Y-23876000D01*
X142240000Y-23876000D02*
X132588000Y-23876000D01*
X123825000Y-27940000D02*
X127508000Y-27940000D01*
D21*
X149606000Y-61976000D02*
X149606000Y-61849000D01*
X149606000Y-61849000D02*
X151130000Y-60325000D01*
D24*
X147574000Y-54102000D02*
X147574000Y-56769000D01*
X157920000Y-57980000D02*
X168275000Y-57980000D01*
X154940000Y-60960000D02*
X157920000Y-57980000D01*
X151765000Y-60960000D02*
X154940000Y-60960000D01*
X147574000Y-56769000D02*
X151130000Y-60325000D01*
X151130000Y-60325000D02*
X151765000Y-60960000D01*
D21*
X148844000Y-89916000D02*
X148844000Y-89281000D01*
X148844000Y-89281000D02*
X150177500Y-87947500D01*
D24*
X147574000Y-82042000D02*
X147574000Y-85344000D01*
X156210000Y-86360000D02*
X167445000Y-86360000D01*
X153670000Y-88900000D02*
X156210000Y-86360000D01*
X151130000Y-88900000D02*
X153670000Y-88900000D01*
X147574000Y-85344000D02*
X150177500Y-87947500D01*
X150177500Y-87947500D02*
X151130000Y-88900000D01*
X167445000Y-86360000D02*
X168275000Y-87190000D01*
D21*
X126365000Y-62230000D02*
X131064000Y-62230000D01*
X136398000Y-48514000D02*
X136906000Y-48006000D01*
X136398000Y-59436000D02*
X136398000Y-48514000D01*
X134874000Y-60960000D02*
X136398000Y-59436000D01*
X132334000Y-60960000D02*
X134874000Y-60960000D01*
X131064000Y-62230000D02*
X132334000Y-60960000D01*
X126365000Y-64770000D02*
X129794000Y-64770000D01*
X137160000Y-63500000D02*
X138684000Y-61976000D01*
X131064000Y-63500000D02*
X137160000Y-63500000D01*
X129794000Y-64770000D02*
X131064000Y-63500000D01*
X136144000Y-90678000D02*
X136906000Y-91440000D01*
X136906000Y-91440000D02*
X139446000Y-91440000D01*
X139446000Y-91440000D02*
X139700000Y-91694000D01*
X136398000Y-73660000D02*
X136144000Y-73914000D01*
X137414000Y-72644000D02*
X136398000Y-73660000D01*
X137414000Y-66548000D02*
X137414000Y-72644000D01*
X137922000Y-66040000D02*
X137414000Y-66548000D01*
X143002000Y-100584000D02*
X142748000Y-100838000D01*
X143002000Y-94996000D02*
X143002000Y-100584000D01*
X139700000Y-91694000D02*
X143002000Y-94996000D01*
X136144000Y-73914000D02*
X136144000Y-90678000D01*
X141478000Y-117094000D02*
X138684000Y-117094000D01*
X141224000Y-105410000D02*
X138176000Y-105410000D01*
X135128000Y-73660000D02*
X135128000Y-90932000D01*
X135128000Y-90932000D02*
X135382000Y-91186000D01*
X135382000Y-91186000D02*
X136398000Y-92202000D01*
X136398000Y-92202000D02*
X138938000Y-92202000D01*
X138938000Y-92202000D02*
X141986000Y-95250000D01*
X141986000Y-95250000D02*
X141986000Y-99060000D01*
X141986000Y-99060000D02*
X141478000Y-99568000D01*
X135636000Y-62230000D02*
X135890000Y-61976000D01*
X136144000Y-64770000D02*
X136398000Y-65024000D01*
X136398000Y-65024000D02*
X136398000Y-72390000D01*
X136398000Y-72390000D02*
X135382000Y-73406000D01*
X133985000Y-62230000D02*
X135636000Y-62230000D01*
X135382000Y-73406000D02*
X135128000Y-73660000D01*
X141224000Y-105410000D02*
X143002000Y-107188000D01*
X143002000Y-107188000D02*
X143002000Y-115570000D01*
X138176000Y-105410000D02*
X137160000Y-104394000D01*
X143002000Y-115570000D02*
X141478000Y-117094000D01*
X133350000Y-57150000D02*
X133985000Y-57150000D01*
X127254000Y-46228000D02*
X127000000Y-45974000D01*
X127000000Y-45974000D02*
X127000000Y-35814000D01*
X127000000Y-35814000D02*
X128778000Y-34036000D01*
X133121160Y-52806840D02*
X132080000Y-53848000D01*
X132080000Y-53848000D02*
X132080000Y-55880000D01*
X132080000Y-55880000D02*
X133350000Y-57150000D01*
X128778000Y-32258000D02*
X128778000Y-34036000D01*
X134112000Y-50850320D02*
X133121160Y-51841160D01*
X134112000Y-47498000D02*
X134112000Y-50850320D01*
X133357998Y-46743998D02*
X134112000Y-47498000D01*
X127769998Y-46743998D02*
X133357998Y-46743998D01*
X133121160Y-51841160D02*
X133121160Y-52806840D01*
X127769998Y-46743998D02*
X127254000Y-46228000D01*
D23*
X131445000Y-22860000D02*
X130810000Y-23495000D01*
X164084000Y-20828000D02*
X161036000Y-20828000D01*
X167640000Y-25400000D02*
X166624000Y-24384000D01*
X166624000Y-24384000D02*
X166624000Y-23368000D01*
X166624000Y-23368000D02*
X164084000Y-20828000D01*
X167640000Y-25400000D02*
X168910000Y-25400000D01*
X159004000Y-22860000D02*
X149860000Y-22860000D01*
X161036000Y-20828000D02*
X159004000Y-22860000D01*
X149860000Y-22860000D02*
X131445000Y-22860000D01*
X128905000Y-25400000D02*
X130810000Y-23495000D01*
X123825000Y-25400000D02*
X128905000Y-25400000D01*
D21*
X124206000Y-52578000D02*
X124460000Y-52832000D01*
X124206000Y-33020000D02*
X124206000Y-52578000D01*
X127762000Y-29464000D02*
X124206000Y-33020000D01*
X167640000Y-22860000D02*
X164592000Y-19812000D01*
X164592000Y-19812000D02*
X160528000Y-19812000D01*
X160528000Y-19812000D02*
X158496000Y-21844000D01*
X158496000Y-21844000D02*
X130048000Y-21844000D01*
X130048000Y-21844000D02*
X128524000Y-23368000D01*
X168910000Y-22860000D02*
X167640000Y-22860000D01*
X133096000Y-72390000D02*
X133985000Y-72390000D01*
X130302000Y-69596000D02*
X133096000Y-72390000D01*
X130302000Y-68326000D02*
X130302000Y-69596000D01*
X130302000Y-66040000D02*
X130302000Y-68326000D01*
X125114002Y-49168002D02*
X125730000Y-49784000D01*
X125114002Y-33889998D02*
X125114002Y-49168002D01*
X129540000Y-29464000D02*
X125114002Y-33889998D01*
X129540000Y-28448000D02*
X129540000Y-29464000D01*
D22*
G36*
X132465000Y-48797871D02*
X132379188Y-48775417D01*
X131624605Y-49530000D01*
X131638747Y-49544142D01*
X131459142Y-49723747D01*
X131445000Y-49709605D01*
X130690417Y-50464188D01*
X130752071Y-50699800D01*
X131252480Y-50875927D01*
X131570269Y-50858661D01*
X131454210Y-50936210D01*
X131454207Y-50936213D01*
X130438210Y-51952210D01*
X130246367Y-52239325D01*
X130235189Y-52295515D01*
X130178999Y-52578000D01*
X130179000Y-52578005D01*
X130179000Y-57149994D01*
X130178999Y-57150000D01*
X130235189Y-57432484D01*
X130246367Y-57488675D01*
X130438210Y-57775790D01*
X130746349Y-58083929D01*
X130746313Y-58125784D01*
X130910311Y-58522689D01*
X131192129Y-58805000D01*
X127365753Y-58805000D01*
X127121353Y-58560173D01*
X126783553Y-58419906D01*
X127119380Y-58281146D01*
X127494827Y-57906353D01*
X127698268Y-57416413D01*
X127698731Y-56885914D01*
X127496146Y-56395620D01*
X127121353Y-56020173D01*
X126936704Y-55943500D01*
X127189809Y-55943500D01*
X127423198Y-55846827D01*
X127601827Y-55668199D01*
X127698500Y-55434810D01*
X127698500Y-55182191D01*
X127698500Y-53785191D01*
X127601827Y-53551802D01*
X127423199Y-53373173D01*
X127375000Y-53353208D01*
X127375000Y-51853356D01*
X128445333Y-50783022D01*
X128638587Y-50863268D01*
X129169086Y-50863731D01*
X129659380Y-50661146D01*
X130034827Y-50286353D01*
X130168313Y-49964881D01*
X130275200Y-50222929D01*
X130510812Y-50284583D01*
X131265395Y-49530000D01*
X130510812Y-48775417D01*
X130275200Y-48837071D01*
X130176916Y-49116311D01*
X130036146Y-48775620D01*
X129661353Y-48400173D01*
X129619995Y-48383000D01*
X130746104Y-48383000D01*
X130690417Y-48595812D01*
X131445000Y-49350395D01*
X132199583Y-48595812D01*
X132143895Y-48383000D01*
X132465000Y-48383000D01*
X132465000Y-48797871D01*
X132465000Y-48797871D01*
G37*
X132465000Y-48797871D02*
X132379188Y-48775417D01*
X131624605Y-49530000D01*
X131638747Y-49544142D01*
X131459142Y-49723747D01*
X131445000Y-49709605D01*
X130690417Y-50464188D01*
X130752071Y-50699800D01*
X131252480Y-50875927D01*
X131570269Y-50858661D01*
X131454210Y-50936210D01*
X131454207Y-50936213D01*
X130438210Y-51952210D01*
X130246367Y-52239325D01*
X130235189Y-52295515D01*
X130178999Y-52578000D01*
X130179000Y-52578005D01*
X130179000Y-57149994D01*
X130178999Y-57150000D01*
X130235189Y-57432484D01*
X130246367Y-57488675D01*
X130438210Y-57775790D01*
X130746349Y-58083929D01*
X130746313Y-58125784D01*
X130910311Y-58522689D01*
X131192129Y-58805000D01*
X127365753Y-58805000D01*
X127121353Y-58560173D01*
X126783553Y-58419906D01*
X127119380Y-58281146D01*
X127494827Y-57906353D01*
X127698268Y-57416413D01*
X127698731Y-56885914D01*
X127496146Y-56395620D01*
X127121353Y-56020173D01*
X126936704Y-55943500D01*
X127189809Y-55943500D01*
X127423198Y-55846827D01*
X127601827Y-55668199D01*
X127698500Y-55434810D01*
X127698500Y-55182191D01*
X127698500Y-53785191D01*
X127601827Y-53551802D01*
X127423199Y-53373173D01*
X127375000Y-53353208D01*
X127375000Y-51853356D01*
X128445333Y-50783022D01*
X128638587Y-50863268D01*
X129169086Y-50863731D01*
X129659380Y-50661146D01*
X130034827Y-50286353D01*
X130168313Y-49964881D01*
X130275200Y-50222929D01*
X130510812Y-50284583D01*
X131265395Y-49530000D01*
X130510812Y-48775417D01*
X130275200Y-48837071D01*
X130176916Y-49116311D01*
X130036146Y-48775620D01*
X129661353Y-48400173D01*
X129619995Y-48383000D01*
X130746104Y-48383000D01*
X130690417Y-48595812D01*
X131445000Y-49350395D01*
X132199583Y-48595812D01*
X132143895Y-48383000D01*
X132465000Y-48383000D01*
X132465000Y-48797871D01*
G36*
X134178747Y-54624142D02*
X133999142Y-54803747D01*
X133985000Y-54789605D01*
X133230417Y-55544188D01*
X133292071Y-55779800D01*
X133571311Y-55878083D01*
X133400316Y-55948736D01*
X132965000Y-55513420D01*
X132965000Y-55342128D01*
X133050812Y-55364583D01*
X133805395Y-54610000D01*
X133791252Y-54595857D01*
X133970857Y-54416252D01*
X133985000Y-54430395D01*
X133999142Y-54416252D01*
X134178747Y-54595857D01*
X134164605Y-54610000D01*
X134178747Y-54624142D01*
X134178747Y-54624142D01*
G37*
X134178747Y-54624142D02*
X133999142Y-54803747D01*
X133985000Y-54789605D01*
X133230417Y-55544188D01*
X133292071Y-55779800D01*
X133571311Y-55878083D01*
X133400316Y-55948736D01*
X132965000Y-55513420D01*
X132965000Y-55342128D01*
X133050812Y-55364583D01*
X133805395Y-54610000D01*
X133791252Y-54595857D01*
X133970857Y-54416252D01*
X133985000Y-54430395D01*
X133999142Y-54416252D01*
X134178747Y-54595857D01*
X134164605Y-54610000D01*
X134178747Y-54624142D01*
G36*
X159607420Y-19481000D02*
X158129420Y-20959000D01*
X130048000Y-20959000D01*
X129709325Y-21026367D01*
X129422210Y-21218210D01*
X129422207Y-21218213D01*
X128352070Y-22288349D01*
X128310216Y-22288313D01*
X127913311Y-22452311D01*
X127609378Y-22755714D01*
X127444687Y-23152332D01*
X127444313Y-23581784D01*
X127608311Y-23978689D01*
X127911714Y-24282622D01*
X128170307Y-24390000D01*
X124700971Y-24390000D01*
X124581353Y-24270173D01*
X124243553Y-24129906D01*
X124579380Y-23991146D01*
X124954827Y-23616353D01*
X125158268Y-23126413D01*
X125158731Y-22595914D01*
X124956146Y-22105620D01*
X124581353Y-21730173D01*
X124091413Y-21526732D01*
X123560914Y-21526269D01*
X123070620Y-21728854D01*
X122695173Y-22103647D01*
X122491732Y-22593587D01*
X122491269Y-23124086D01*
X122693854Y-23614380D01*
X123068647Y-23989827D01*
X123406446Y-24130093D01*
X123070620Y-24268854D01*
X122695173Y-24643647D01*
X122491732Y-25133587D01*
X122491269Y-25664086D01*
X122693854Y-26154380D01*
X123068647Y-26529827D01*
X123406446Y-26670093D01*
X123070620Y-26808854D01*
X122695173Y-27183647D01*
X122491732Y-27673587D01*
X122491269Y-28204086D01*
X122693854Y-28694380D01*
X123068647Y-29069827D01*
X123253295Y-29146500D01*
X123252809Y-29146500D01*
X123000190Y-29146500D01*
X122766801Y-29243173D01*
X122588173Y-29421802D01*
X122491500Y-29655191D01*
X122491500Y-30194250D01*
X122650250Y-30353000D01*
X123698000Y-30353000D01*
X123698000Y-30333000D01*
X123952000Y-30333000D01*
X123952000Y-30353000D01*
X124999750Y-30353000D01*
X125158500Y-30194250D01*
X125158500Y-29655191D01*
X125061827Y-29421802D01*
X124883199Y-29243173D01*
X124649810Y-29146500D01*
X124397191Y-29146500D01*
X124397009Y-29146500D01*
X124579380Y-29071146D01*
X124700737Y-28950000D01*
X126806565Y-28950000D01*
X126682687Y-29248332D01*
X126682649Y-29291771D01*
X125158500Y-30815920D01*
X125158500Y-30765750D01*
X124999750Y-30607000D01*
X123952000Y-30607000D01*
X123952000Y-31654750D01*
X124110750Y-31813500D01*
X124160920Y-31813500D01*
X123698000Y-32276420D01*
X123698000Y-31654750D01*
X123698000Y-30607000D01*
X122650250Y-30607000D01*
X122491500Y-30765750D01*
X122491500Y-31304809D01*
X122588173Y-31538198D01*
X122766801Y-31716827D01*
X123000190Y-31813500D01*
X123252809Y-31813500D01*
X123539250Y-31813500D01*
X123698000Y-31654750D01*
X123698000Y-32276420D01*
X123580210Y-32394210D01*
X123388367Y-32681325D01*
X123377189Y-32737515D01*
X123320999Y-33020000D01*
X123321000Y-33020005D01*
X123321000Y-52577994D01*
X123320999Y-52578000D01*
X123377189Y-52860484D01*
X123380460Y-52876924D01*
X123380313Y-53045784D01*
X123544311Y-53442689D01*
X123847714Y-53746622D01*
X124244332Y-53911313D01*
X124673784Y-53911687D01*
X125042148Y-53759481D01*
X125031500Y-53785190D01*
X125031500Y-54037809D01*
X125031500Y-54388144D01*
X123491822Y-55927822D01*
X123272882Y-56255490D01*
X123196000Y-56642000D01*
X123196000Y-69850000D01*
X123196000Y-73152000D01*
X123196000Y-74422000D01*
X123272882Y-74808510D01*
X123491822Y-75136178D01*
X124094227Y-75738583D01*
X123973302Y-75788673D01*
X123794673Y-75967301D01*
X123698000Y-76200690D01*
X123698000Y-76453309D01*
X123698000Y-78231309D01*
X123794673Y-78464698D01*
X123973301Y-78643327D01*
X124091673Y-78692358D01*
X124035212Y-78748820D01*
X124149801Y-78863409D01*
X123894461Y-78948467D01*
X123686484Y-79517965D01*
X123712277Y-80123700D01*
X123894461Y-80563533D01*
X124149804Y-80648591D01*
X125042395Y-79756000D01*
X125028252Y-79741857D01*
X125207857Y-79562252D01*
X125222000Y-79576395D01*
X125236142Y-79562252D01*
X125415747Y-79741857D01*
X125401605Y-79756000D01*
X126294196Y-80648591D01*
X126549539Y-80563533D01*
X126757516Y-79994035D01*
X126731723Y-79388300D01*
X126549539Y-78948467D01*
X126294198Y-78863409D01*
X126408788Y-78748820D01*
X126352326Y-78692358D01*
X126470698Y-78643327D01*
X126649327Y-78464699D01*
X126746000Y-78231310D01*
X126746000Y-78226000D01*
X128849460Y-78226000D01*
X128593071Y-78332200D01*
X128531417Y-78567812D01*
X129286000Y-79322395D01*
X130040583Y-78567812D01*
X129978929Y-78332200D01*
X129699688Y-78233916D01*
X130040380Y-78093146D01*
X130415827Y-77718353D01*
X130619268Y-77228413D01*
X130619731Y-76697914D01*
X130417146Y-76207620D01*
X130042353Y-75832173D01*
X129552413Y-75628732D01*
X129021914Y-75628269D01*
X128531620Y-75830854D01*
X128156173Y-76205647D01*
X128156026Y-76206000D01*
X127710927Y-76206000D01*
X127710927Y-72582520D01*
X127682148Y-72052801D01*
X127534800Y-71697071D01*
X127299188Y-71635417D01*
X126544605Y-72390000D01*
X127299188Y-73144583D01*
X127534800Y-73082929D01*
X127710927Y-72582520D01*
X127710927Y-76206000D01*
X127119583Y-76206000D01*
X127119583Y-73324188D01*
X126365000Y-72569605D01*
X125610417Y-73324188D01*
X125672071Y-73559800D01*
X126172480Y-73735927D01*
X126702199Y-73707148D01*
X127057929Y-73559800D01*
X127119583Y-73324188D01*
X127119583Y-76206000D01*
X126746000Y-76206000D01*
X126746000Y-76200691D01*
X126649327Y-75967302D01*
X126470699Y-75788673D01*
X126237310Y-75692000D01*
X126232000Y-75692000D01*
X126232000Y-75438000D01*
X126155118Y-75051490D01*
X125936178Y-74723822D01*
X125216000Y-74003644D01*
X125216000Y-73152000D01*
X125216000Y-73088371D01*
X125430812Y-73144583D01*
X126185395Y-72390000D01*
X125430812Y-71635417D01*
X125216000Y-71691628D01*
X125216000Y-70735000D01*
X125364246Y-70735000D01*
X125608647Y-70979827D01*
X125930118Y-71113313D01*
X125672071Y-71220200D01*
X125610417Y-71455812D01*
X126365000Y-72210395D01*
X127119583Y-71455812D01*
X127057929Y-71220200D01*
X126778688Y-71121916D01*
X127119380Y-70981146D01*
X127494827Y-70606353D01*
X127698268Y-70116413D01*
X127698731Y-69585914D01*
X127496146Y-69095620D01*
X127121353Y-68720173D01*
X126783553Y-68579906D01*
X127119380Y-68441146D01*
X127365955Y-68195000D01*
X128157420Y-68195000D01*
X128401000Y-68438579D01*
X128401000Y-70104000D01*
X128401000Y-70865994D01*
X128400999Y-70866000D01*
X128457189Y-71148484D01*
X128468367Y-71204675D01*
X128660210Y-71491790D01*
X132270349Y-75101928D01*
X132270313Y-75143784D01*
X132434311Y-75540689D01*
X132737714Y-75844622D01*
X133134332Y-76009313D01*
X133563784Y-76009687D01*
X133960689Y-75845689D01*
X134243000Y-75563870D01*
X134243000Y-90931994D01*
X134242999Y-90932000D01*
X134299189Y-91214484D01*
X134310367Y-91270675D01*
X134502210Y-91557790D01*
X134756207Y-91811786D01*
X134756210Y-91811790D01*
X135772207Y-92827786D01*
X135772210Y-92827790D01*
X135772211Y-92827790D01*
X136059325Y-93019633D01*
X136059326Y-93019633D01*
X136115515Y-93030810D01*
X136398000Y-93087001D01*
X136398000Y-93087000D01*
X136398005Y-93087000D01*
X138571420Y-93087000D01*
X141101000Y-95616579D01*
X141101000Y-98555752D01*
X140867311Y-98652311D01*
X140563378Y-98955714D01*
X140398687Y-99352332D01*
X140398477Y-99592626D01*
X140335000Y-99580000D01*
X137414000Y-99580000D01*
X137287000Y-99580000D01*
X132334000Y-99580000D01*
X132195000Y-99580000D01*
X132195000Y-92964000D01*
X132089573Y-92433984D01*
X132089573Y-92433983D01*
X131789343Y-91984657D01*
X126734000Y-86929314D01*
X126734000Y-86806686D01*
X126811686Y-86729000D01*
X129286000Y-86729000D01*
X129543774Y-86677725D01*
X129550086Y-86677731D01*
X129555970Y-86675299D01*
X129816017Y-86623573D01*
X130034546Y-86477556D01*
X130040380Y-86475146D01*
X130044886Y-86470647D01*
X130265343Y-86323343D01*
X130411361Y-86104810D01*
X130415827Y-86100353D01*
X130418267Y-86094474D01*
X130565573Y-85874017D01*
X130616847Y-85616241D01*
X130619268Y-85610413D01*
X130619273Y-85604046D01*
X130671000Y-85344000D01*
X130631927Y-85147568D01*
X130631927Y-82996520D01*
X130631927Y-79694520D01*
X130603148Y-79164801D01*
X130455800Y-78809071D01*
X130220188Y-78747417D01*
X129465605Y-79502000D01*
X130220188Y-80256583D01*
X130455800Y-80194929D01*
X130631927Y-79694520D01*
X130631927Y-82996520D01*
X130603148Y-82466801D01*
X130455800Y-82111071D01*
X130220188Y-82049417D01*
X130040583Y-82229022D01*
X130040583Y-81869812D01*
X130040583Y-80436188D01*
X129286000Y-79681605D01*
X129106395Y-79861210D01*
X129106395Y-79502000D01*
X128351812Y-78747417D01*
X128116200Y-78809071D01*
X127940073Y-79309480D01*
X127968852Y-79839199D01*
X128116200Y-80194929D01*
X128351812Y-80256583D01*
X129106395Y-79502000D01*
X129106395Y-79861210D01*
X128531417Y-80436188D01*
X128593071Y-80671800D01*
X129093480Y-80847927D01*
X129623199Y-80819148D01*
X129978929Y-80671800D01*
X130040583Y-80436188D01*
X130040583Y-81869812D01*
X129978929Y-81634200D01*
X129478520Y-81458073D01*
X128948801Y-81486852D01*
X128593071Y-81634200D01*
X128531417Y-81869812D01*
X129286000Y-82624395D01*
X130040583Y-81869812D01*
X130040583Y-82229022D01*
X129465605Y-82804000D01*
X130220188Y-83558583D01*
X130455800Y-83496929D01*
X130631927Y-82996520D01*
X130631927Y-85147568D01*
X130619725Y-85086225D01*
X130619731Y-85079914D01*
X130617299Y-85074029D01*
X130565573Y-84813983D01*
X130419556Y-84595453D01*
X130417146Y-84589620D01*
X130412647Y-84585113D01*
X130265343Y-84364657D01*
X130046810Y-84218638D01*
X130042353Y-84214173D01*
X130036474Y-84211732D01*
X129816017Y-84064427D01*
X129778264Y-84056917D01*
X129978929Y-83973800D01*
X130040583Y-83738188D01*
X129286000Y-82983605D01*
X129106395Y-83163210D01*
X129106395Y-82804000D01*
X128351812Y-82049417D01*
X128116200Y-82111071D01*
X127940073Y-82611480D01*
X127968852Y-83141199D01*
X128116200Y-83496929D01*
X128351812Y-83558583D01*
X129106395Y-82804000D01*
X129106395Y-83163210D01*
X128531417Y-83738188D01*
X128589198Y-83959000D01*
X126757516Y-83959000D01*
X126607000Y-83959000D01*
X126607000Y-82934583D01*
X126745735Y-82600472D01*
X126746264Y-81994188D01*
X126514738Y-81433851D01*
X126086404Y-81004769D01*
X126059494Y-80993595D01*
X126114591Y-80828196D01*
X125222000Y-79935605D01*
X125042395Y-80115210D01*
X124329409Y-80828196D01*
X124384353Y-80993137D01*
X124359851Y-81003262D01*
X123930769Y-81431596D01*
X123698265Y-81991528D01*
X123697736Y-82597812D01*
X123837000Y-82934857D01*
X123837000Y-86360000D01*
X123942427Y-86890017D01*
X123964000Y-86922303D01*
X123964000Y-87503000D01*
X124069427Y-88033017D01*
X124369657Y-88482343D01*
X129425000Y-93537686D01*
X129425000Y-99580000D01*
X128651000Y-99580000D01*
X128120984Y-99685426D01*
X127671657Y-99985657D01*
X127611240Y-100046073D01*
X127611240Y-95081211D01*
X127286910Y-94296273D01*
X126686886Y-93695200D01*
X125902515Y-93369501D01*
X125053211Y-93368760D01*
X124268273Y-93693090D01*
X123667200Y-94293114D01*
X123341501Y-95077485D01*
X123340760Y-95926789D01*
X123665090Y-96711727D01*
X124265114Y-97312800D01*
X125049485Y-97638499D01*
X125898789Y-97639240D01*
X126683727Y-97314910D01*
X127284800Y-96714886D01*
X127610499Y-95930515D01*
X127611240Y-95081211D01*
X127611240Y-100046073D01*
X125631133Y-102026180D01*
X124784287Y-102194629D01*
X123767220Y-102874211D01*
X123087638Y-103891278D01*
X122849000Y-105090991D01*
X122849000Y-107253009D01*
X123087638Y-108452722D01*
X123767220Y-109469789D01*
X124784287Y-110149371D01*
X125984000Y-110388009D01*
X127183713Y-110149371D01*
X128200780Y-109469789D01*
X128880362Y-108452722D01*
X129119000Y-107253009D01*
X129119000Y-105090991D01*
X128880362Y-103891278D01*
X128400929Y-103173756D01*
X129224686Y-102350000D01*
X129993696Y-102350000D01*
X130025983Y-102371573D01*
X130032578Y-102372884D01*
X129961000Y-102545690D01*
X129961000Y-102798309D01*
X129961000Y-105886250D01*
X130119750Y-106045000D01*
X132969000Y-106045000D01*
X132969000Y-106025000D01*
X133223000Y-106025000D01*
X133223000Y-106045000D01*
X136072250Y-106045000D01*
X136231000Y-105886250D01*
X136231000Y-104972473D01*
X136244311Y-105004689D01*
X136547714Y-105308622D01*
X136944332Y-105473313D01*
X136987771Y-105473350D01*
X137550207Y-106035786D01*
X137550210Y-106035790D01*
X137550211Y-106035790D01*
X137837325Y-106227633D01*
X137837326Y-106227633D01*
X137893515Y-106238810D01*
X138176000Y-106295001D01*
X138176000Y-106295000D01*
X138176005Y-106295000D01*
X140857420Y-106295000D01*
X142117000Y-107554579D01*
X142117000Y-115203420D01*
X141111420Y-116209000D01*
X139684753Y-116209000D01*
X139440353Y-115964173D01*
X138950413Y-115760732D01*
X138419914Y-115760269D01*
X137929620Y-115962854D01*
X137554173Y-116337647D01*
X137350732Y-116827587D01*
X137350269Y-117358086D01*
X137552854Y-117848380D01*
X137637326Y-117933000D01*
X136739543Y-117933000D01*
X136739543Y-113171146D01*
X136263273Y-112018485D01*
X136231000Y-111986155D01*
X136231000Y-109798310D01*
X136231000Y-109545691D01*
X136231000Y-106457750D01*
X136072250Y-106299000D01*
X133223000Y-106299000D01*
X133223000Y-110148250D01*
X133381750Y-110307000D01*
X135722309Y-110307000D01*
X135955698Y-110210327D01*
X136134327Y-110031699D01*
X136231000Y-109798310D01*
X136231000Y-111986155D01*
X135382153Y-111135826D01*
X134230326Y-110657546D01*
X132983146Y-110656457D01*
X132969000Y-110662302D01*
X132969000Y-110148250D01*
X132969000Y-106299000D01*
X130119750Y-106299000D01*
X129961000Y-106457750D01*
X129961000Y-109545691D01*
X129961000Y-109798310D01*
X130057673Y-110031699D01*
X130236302Y-110210327D01*
X130469691Y-110307000D01*
X132810250Y-110307000D01*
X132969000Y-110148250D01*
X132969000Y-110662302D01*
X131830485Y-111132727D01*
X130947826Y-112013847D01*
X130469546Y-113165674D01*
X130468457Y-114412854D01*
X130944727Y-115565515D01*
X131825847Y-116448174D01*
X132977674Y-116926454D01*
X134224854Y-116927543D01*
X135377515Y-116451273D01*
X136260174Y-115570153D01*
X136738454Y-114418326D01*
X136739543Y-113171146D01*
X136739543Y-117933000D01*
X128611543Y-117933000D01*
X128611543Y-113171146D01*
X128135273Y-112018485D01*
X127254153Y-111135826D01*
X126102326Y-110657546D01*
X124855146Y-110656457D01*
X123702485Y-111132727D01*
X122819826Y-112013847D01*
X122341546Y-113165674D01*
X122340457Y-114412854D01*
X122816727Y-115565515D01*
X123697847Y-116448174D01*
X124849674Y-116926454D01*
X126096854Y-116927543D01*
X127249515Y-116451273D01*
X128132174Y-115570153D01*
X128610454Y-114418326D01*
X128611543Y-113171146D01*
X128611543Y-117933000D01*
X122097000Y-117933000D01*
X122097000Y-19481000D01*
X159607420Y-19481000D01*
X159607420Y-19481000D01*
G37*
X159607420Y-19481000D02*
X158129420Y-20959000D01*
X130048000Y-20959000D01*
X129709325Y-21026367D01*
X129422210Y-21218210D01*
X129422207Y-21218213D01*
X128352070Y-22288349D01*
X128310216Y-22288313D01*
X127913311Y-22452311D01*
X127609378Y-22755714D01*
X127444687Y-23152332D01*
X127444313Y-23581784D01*
X127608311Y-23978689D01*
X127911714Y-24282622D01*
X128170307Y-24390000D01*
X124700971Y-24390000D01*
X124581353Y-24270173D01*
X124243553Y-24129906D01*
X124579380Y-23991146D01*
X124954827Y-23616353D01*
X125158268Y-23126413D01*
X125158731Y-22595914D01*
X124956146Y-22105620D01*
X124581353Y-21730173D01*
X124091413Y-21526732D01*
X123560914Y-21526269D01*
X123070620Y-21728854D01*
X122695173Y-22103647D01*
X122491732Y-22593587D01*
X122491269Y-23124086D01*
X122693854Y-23614380D01*
X123068647Y-23989827D01*
X123406446Y-24130093D01*
X123070620Y-24268854D01*
X122695173Y-24643647D01*
X122491732Y-25133587D01*
X122491269Y-25664086D01*
X122693854Y-26154380D01*
X123068647Y-26529827D01*
X123406446Y-26670093D01*
X123070620Y-26808854D01*
X122695173Y-27183647D01*
X122491732Y-27673587D01*
X122491269Y-28204086D01*
X122693854Y-28694380D01*
X123068647Y-29069827D01*
X123253295Y-29146500D01*
X123252809Y-29146500D01*
X123000190Y-29146500D01*
X122766801Y-29243173D01*
X122588173Y-29421802D01*
X122491500Y-29655191D01*
X122491500Y-30194250D01*
X122650250Y-30353000D01*
X123698000Y-30353000D01*
X123698000Y-30333000D01*
X123952000Y-30333000D01*
X123952000Y-30353000D01*
X124999750Y-30353000D01*
X125158500Y-30194250D01*
X125158500Y-29655191D01*
X125061827Y-29421802D01*
X124883199Y-29243173D01*
X124649810Y-29146500D01*
X124397191Y-29146500D01*
X124397009Y-29146500D01*
X124579380Y-29071146D01*
X124700737Y-28950000D01*
X126806565Y-28950000D01*
X126682687Y-29248332D01*
X126682649Y-29291771D01*
X125158500Y-30815920D01*
X125158500Y-30765750D01*
X124999750Y-30607000D01*
X123952000Y-30607000D01*
X123952000Y-31654750D01*
X124110750Y-31813500D01*
X124160920Y-31813500D01*
X123698000Y-32276420D01*
X123698000Y-31654750D01*
X123698000Y-30607000D01*
X122650250Y-30607000D01*
X122491500Y-30765750D01*
X122491500Y-31304809D01*
X122588173Y-31538198D01*
X122766801Y-31716827D01*
X123000190Y-31813500D01*
X123252809Y-31813500D01*
X123539250Y-31813500D01*
X123698000Y-31654750D01*
X123698000Y-32276420D01*
X123580210Y-32394210D01*
X123388367Y-32681325D01*
X123377189Y-32737515D01*
X123320999Y-33020000D01*
X123321000Y-33020005D01*
X123321000Y-52577994D01*
X123320999Y-52578000D01*
X123377189Y-52860484D01*
X123380460Y-52876924D01*
X123380313Y-53045784D01*
X123544311Y-53442689D01*
X123847714Y-53746622D01*
X124244332Y-53911313D01*
X124673784Y-53911687D01*
X125042148Y-53759481D01*
X125031500Y-53785190D01*
X125031500Y-54037809D01*
X125031500Y-54388144D01*
X123491822Y-55927822D01*
X123272882Y-56255490D01*
X123196000Y-56642000D01*
X123196000Y-69850000D01*
X123196000Y-73152000D01*
X123196000Y-74422000D01*
X123272882Y-74808510D01*
X123491822Y-75136178D01*
X124094227Y-75738583D01*
X123973302Y-75788673D01*
X123794673Y-75967301D01*
X123698000Y-76200690D01*
X123698000Y-76453309D01*
X123698000Y-78231309D01*
X123794673Y-78464698D01*
X123973301Y-78643327D01*
X124091673Y-78692358D01*
X124035212Y-78748820D01*
X124149801Y-78863409D01*
X123894461Y-78948467D01*
X123686484Y-79517965D01*
X123712277Y-80123700D01*
X123894461Y-80563533D01*
X124149804Y-80648591D01*
X125042395Y-79756000D01*
X125028252Y-79741857D01*
X125207857Y-79562252D01*
X125222000Y-79576395D01*
X125236142Y-79562252D01*
X125415747Y-79741857D01*
X125401605Y-79756000D01*
X126294196Y-80648591D01*
X126549539Y-80563533D01*
X126757516Y-79994035D01*
X126731723Y-79388300D01*
X126549539Y-78948467D01*
X126294198Y-78863409D01*
X126408788Y-78748820D01*
X126352326Y-78692358D01*
X126470698Y-78643327D01*
X126649327Y-78464699D01*
X126746000Y-78231310D01*
X126746000Y-78226000D01*
X128849460Y-78226000D01*
X128593071Y-78332200D01*
X128531417Y-78567812D01*
X129286000Y-79322395D01*
X130040583Y-78567812D01*
X129978929Y-78332200D01*
X129699688Y-78233916D01*
X130040380Y-78093146D01*
X130415827Y-77718353D01*
X130619268Y-77228413D01*
X130619731Y-76697914D01*
X130417146Y-76207620D01*
X130042353Y-75832173D01*
X129552413Y-75628732D01*
X129021914Y-75628269D01*
X128531620Y-75830854D01*
X128156173Y-76205647D01*
X128156026Y-76206000D01*
X127710927Y-76206000D01*
X127710927Y-72582520D01*
X127682148Y-72052801D01*
X127534800Y-71697071D01*
X127299188Y-71635417D01*
X126544605Y-72390000D01*
X127299188Y-73144583D01*
X127534800Y-73082929D01*
X127710927Y-72582520D01*
X127710927Y-76206000D01*
X127119583Y-76206000D01*
X127119583Y-73324188D01*
X126365000Y-72569605D01*
X125610417Y-73324188D01*
X125672071Y-73559800D01*
X126172480Y-73735927D01*
X126702199Y-73707148D01*
X127057929Y-73559800D01*
X127119583Y-73324188D01*
X127119583Y-76206000D01*
X126746000Y-76206000D01*
X126746000Y-76200691D01*
X126649327Y-75967302D01*
X126470699Y-75788673D01*
X126237310Y-75692000D01*
X126232000Y-75692000D01*
X126232000Y-75438000D01*
X126155118Y-75051490D01*
X125936178Y-74723822D01*
X125216000Y-74003644D01*
X125216000Y-73152000D01*
X125216000Y-73088371D01*
X125430812Y-73144583D01*
X126185395Y-72390000D01*
X125430812Y-71635417D01*
X125216000Y-71691628D01*
X125216000Y-70735000D01*
X125364246Y-70735000D01*
X125608647Y-70979827D01*
X125930118Y-71113313D01*
X125672071Y-71220200D01*
X125610417Y-71455812D01*
X126365000Y-72210395D01*
X127119583Y-71455812D01*
X127057929Y-71220200D01*
X126778688Y-71121916D01*
X127119380Y-70981146D01*
X127494827Y-70606353D01*
X127698268Y-70116413D01*
X127698731Y-69585914D01*
X127496146Y-69095620D01*
X127121353Y-68720173D01*
X126783553Y-68579906D01*
X127119380Y-68441146D01*
X127365955Y-68195000D01*
X128157420Y-68195000D01*
X128401000Y-68438579D01*
X128401000Y-70104000D01*
X128401000Y-70865994D01*
X128400999Y-70866000D01*
X128457189Y-71148484D01*
X128468367Y-71204675D01*
X128660210Y-71491790D01*
X132270349Y-75101928D01*
X132270313Y-75143784D01*
X132434311Y-75540689D01*
X132737714Y-75844622D01*
X133134332Y-76009313D01*
X133563784Y-76009687D01*
X133960689Y-75845689D01*
X134243000Y-75563870D01*
X134243000Y-90931994D01*
X134242999Y-90932000D01*
X134299189Y-91214484D01*
X134310367Y-91270675D01*
X134502210Y-91557790D01*
X134756207Y-91811786D01*
X134756210Y-91811790D01*
X135772207Y-92827786D01*
X135772210Y-92827790D01*
X135772211Y-92827790D01*
X136059325Y-93019633D01*
X136059326Y-93019633D01*
X136115515Y-93030810D01*
X136398000Y-93087001D01*
X136398000Y-93087000D01*
X136398005Y-93087000D01*
X138571420Y-93087000D01*
X141101000Y-95616579D01*
X141101000Y-98555752D01*
X140867311Y-98652311D01*
X140563378Y-98955714D01*
X140398687Y-99352332D01*
X140398477Y-99592626D01*
X140335000Y-99580000D01*
X137414000Y-99580000D01*
X137287000Y-99580000D01*
X132334000Y-99580000D01*
X132195000Y-99580000D01*
X132195000Y-92964000D01*
X132089573Y-92433984D01*
X132089573Y-92433983D01*
X131789343Y-91984657D01*
X126734000Y-86929314D01*
X126734000Y-86806686D01*
X126811686Y-86729000D01*
X129286000Y-86729000D01*
X129543774Y-86677725D01*
X129550086Y-86677731D01*
X129555970Y-86675299D01*
X129816017Y-86623573D01*
X130034546Y-86477556D01*
X130040380Y-86475146D01*
X130044886Y-86470647D01*
X130265343Y-86323343D01*
X130411361Y-86104810D01*
X130415827Y-86100353D01*
X130418267Y-86094474D01*
X130565573Y-85874017D01*
X130616847Y-85616241D01*
X130619268Y-85610413D01*
X130619273Y-85604046D01*
X130671000Y-85344000D01*
X130631927Y-85147568D01*
X130631927Y-82996520D01*
X130631927Y-79694520D01*
X130603148Y-79164801D01*
X130455800Y-78809071D01*
X130220188Y-78747417D01*
X129465605Y-79502000D01*
X130220188Y-80256583D01*
X130455800Y-80194929D01*
X130631927Y-79694520D01*
X130631927Y-82996520D01*
X130603148Y-82466801D01*
X130455800Y-82111071D01*
X130220188Y-82049417D01*
X130040583Y-82229022D01*
X130040583Y-81869812D01*
X130040583Y-80436188D01*
X129286000Y-79681605D01*
X129106395Y-79861210D01*
X129106395Y-79502000D01*
X128351812Y-78747417D01*
X128116200Y-78809071D01*
X127940073Y-79309480D01*
X127968852Y-79839199D01*
X128116200Y-80194929D01*
X128351812Y-80256583D01*
X129106395Y-79502000D01*
X129106395Y-79861210D01*
X128531417Y-80436188D01*
X128593071Y-80671800D01*
X129093480Y-80847927D01*
X129623199Y-80819148D01*
X129978929Y-80671800D01*
X130040583Y-80436188D01*
X130040583Y-81869812D01*
X129978929Y-81634200D01*
X129478520Y-81458073D01*
X128948801Y-81486852D01*
X128593071Y-81634200D01*
X128531417Y-81869812D01*
X129286000Y-82624395D01*
X130040583Y-81869812D01*
X130040583Y-82229022D01*
X129465605Y-82804000D01*
X130220188Y-83558583D01*
X130455800Y-83496929D01*
X130631927Y-82996520D01*
X130631927Y-85147568D01*
X130619725Y-85086225D01*
X130619731Y-85079914D01*
X130617299Y-85074029D01*
X130565573Y-84813983D01*
X130419556Y-84595453D01*
X130417146Y-84589620D01*
X130412647Y-84585113D01*
X130265343Y-84364657D01*
X130046810Y-84218638D01*
X130042353Y-84214173D01*
X130036474Y-84211732D01*
X129816017Y-84064427D01*
X129778264Y-84056917D01*
X129978929Y-83973800D01*
X130040583Y-83738188D01*
X129286000Y-82983605D01*
X129106395Y-83163210D01*
X129106395Y-82804000D01*
X128351812Y-82049417D01*
X128116200Y-82111071D01*
X127940073Y-82611480D01*
X127968852Y-83141199D01*
X128116200Y-83496929D01*
X128351812Y-83558583D01*
X129106395Y-82804000D01*
X129106395Y-83163210D01*
X128531417Y-83738188D01*
X128589198Y-83959000D01*
X126757516Y-83959000D01*
X126607000Y-83959000D01*
X126607000Y-82934583D01*
X126745735Y-82600472D01*
X126746264Y-81994188D01*
X126514738Y-81433851D01*
X126086404Y-81004769D01*
X126059494Y-80993595D01*
X126114591Y-80828196D01*
X125222000Y-79935605D01*
X125042395Y-80115210D01*
X124329409Y-80828196D01*
X124384353Y-80993137D01*
X124359851Y-81003262D01*
X123930769Y-81431596D01*
X123698265Y-81991528D01*
X123697736Y-82597812D01*
X123837000Y-82934857D01*
X123837000Y-86360000D01*
X123942427Y-86890017D01*
X123964000Y-86922303D01*
X123964000Y-87503000D01*
X124069427Y-88033017D01*
X124369657Y-88482343D01*
X129425000Y-93537686D01*
X129425000Y-99580000D01*
X128651000Y-99580000D01*
X128120984Y-99685426D01*
X127671657Y-99985657D01*
X127611240Y-100046073D01*
X127611240Y-95081211D01*
X127286910Y-94296273D01*
X126686886Y-93695200D01*
X125902515Y-93369501D01*
X125053211Y-93368760D01*
X124268273Y-93693090D01*
X123667200Y-94293114D01*
X123341501Y-95077485D01*
X123340760Y-95926789D01*
X123665090Y-96711727D01*
X124265114Y-97312800D01*
X125049485Y-97638499D01*
X125898789Y-97639240D01*
X126683727Y-97314910D01*
X127284800Y-96714886D01*
X127610499Y-95930515D01*
X127611240Y-95081211D01*
X127611240Y-100046073D01*
X125631133Y-102026180D01*
X124784287Y-102194629D01*
X123767220Y-102874211D01*
X123087638Y-103891278D01*
X122849000Y-105090991D01*
X122849000Y-107253009D01*
X123087638Y-108452722D01*
X123767220Y-109469789D01*
X124784287Y-110149371D01*
X125984000Y-110388009D01*
X127183713Y-110149371D01*
X128200780Y-109469789D01*
X128880362Y-108452722D01*
X129119000Y-107253009D01*
X129119000Y-105090991D01*
X128880362Y-103891278D01*
X128400929Y-103173756D01*
X129224686Y-102350000D01*
X129993696Y-102350000D01*
X130025983Y-102371573D01*
X130032578Y-102372884D01*
X129961000Y-102545690D01*
X129961000Y-102798309D01*
X129961000Y-105886250D01*
X130119750Y-106045000D01*
X132969000Y-106045000D01*
X132969000Y-106025000D01*
X133223000Y-106025000D01*
X133223000Y-106045000D01*
X136072250Y-106045000D01*
X136231000Y-105886250D01*
X136231000Y-104972473D01*
X136244311Y-105004689D01*
X136547714Y-105308622D01*
X136944332Y-105473313D01*
X136987771Y-105473350D01*
X137550207Y-106035786D01*
X137550210Y-106035790D01*
X137550211Y-106035790D01*
X137837325Y-106227633D01*
X137837326Y-106227633D01*
X137893515Y-106238810D01*
X138176000Y-106295001D01*
X138176000Y-106295000D01*
X138176005Y-106295000D01*
X140857420Y-106295000D01*
X142117000Y-107554579D01*
X142117000Y-115203420D01*
X141111420Y-116209000D01*
X139684753Y-116209000D01*
X139440353Y-115964173D01*
X138950413Y-115760732D01*
X138419914Y-115760269D01*
X137929620Y-115962854D01*
X137554173Y-116337647D01*
X137350732Y-116827587D01*
X137350269Y-117358086D01*
X137552854Y-117848380D01*
X137637326Y-117933000D01*
X136739543Y-117933000D01*
X136739543Y-113171146D01*
X136263273Y-112018485D01*
X136231000Y-111986155D01*
X136231000Y-109798310D01*
X136231000Y-109545691D01*
X136231000Y-106457750D01*
X136072250Y-106299000D01*
X133223000Y-106299000D01*
X133223000Y-110148250D01*
X133381750Y-110307000D01*
X135722309Y-110307000D01*
X135955698Y-110210327D01*
X136134327Y-110031699D01*
X136231000Y-109798310D01*
X136231000Y-111986155D01*
X135382153Y-111135826D01*
X134230326Y-110657546D01*
X132983146Y-110656457D01*
X132969000Y-110662302D01*
X132969000Y-110148250D01*
X132969000Y-106299000D01*
X130119750Y-106299000D01*
X129961000Y-106457750D01*
X129961000Y-109545691D01*
X129961000Y-109798310D01*
X130057673Y-110031699D01*
X130236302Y-110210327D01*
X130469691Y-110307000D01*
X132810250Y-110307000D01*
X132969000Y-110148250D01*
X132969000Y-110662302D01*
X131830485Y-111132727D01*
X130947826Y-112013847D01*
X130469546Y-113165674D01*
X130468457Y-114412854D01*
X130944727Y-115565515D01*
X131825847Y-116448174D01*
X132977674Y-116926454D01*
X134224854Y-116927543D01*
X135377515Y-116451273D01*
X136260174Y-115570153D01*
X136738454Y-114418326D01*
X136739543Y-113171146D01*
X136739543Y-117933000D01*
X128611543Y-117933000D01*
X128611543Y-113171146D01*
X128135273Y-112018485D01*
X127254153Y-111135826D01*
X126102326Y-110657546D01*
X124855146Y-110656457D01*
X123702485Y-111132727D01*
X122819826Y-112013847D01*
X122341546Y-113165674D01*
X122340457Y-114412854D01*
X122816727Y-115565515D01*
X123697847Y-116448174D01*
X124849674Y-116926454D01*
X126096854Y-116927543D01*
X127249515Y-116451273D01*
X128132174Y-115570153D01*
X128610454Y-114418326D01*
X128611543Y-113171146D01*
X128611543Y-117933000D01*
X122097000Y-117933000D01*
X122097000Y-19481000D01*
X159607420Y-19481000D01*
G36*
X166548754Y-117933000D02*
X163161808Y-117933000D01*
X163161808Y-116097413D01*
X162306000Y-115241605D01*
X161450192Y-116097413D01*
X161529017Y-116347490D01*
X162080097Y-116546977D01*
X162665569Y-116520389D01*
X163082983Y-116347490D01*
X163161808Y-116097413D01*
X163161808Y-117933000D01*
X158146579Y-117933000D01*
X159544571Y-116535007D01*
X160057752Y-116535455D01*
X160599411Y-116311647D01*
X161014190Y-115897591D01*
X161036441Y-115844004D01*
X161270587Y-115917808D01*
X162126395Y-115062000D01*
X161270587Y-114206192D01*
X161036836Y-114279870D01*
X161015647Y-114228589D01*
X160601591Y-113813810D01*
X160520167Y-113780000D01*
X161527916Y-113780000D01*
X161450192Y-114026587D01*
X162306000Y-114882395D01*
X162320142Y-114868252D01*
X162499747Y-115047857D01*
X162485605Y-115062000D01*
X163341413Y-115917808D01*
X163591490Y-115838983D01*
X163790977Y-115287903D01*
X163764389Y-114702431D01*
X163740802Y-114645488D01*
X165966657Y-116871343D01*
X166267000Y-117072025D01*
X166267000Y-117518309D01*
X166363673Y-117751698D01*
X166542301Y-117930327D01*
X166548754Y-117933000D01*
X166548754Y-117933000D01*
G37*
X166548754Y-117933000D02*
X163161808Y-117933000D01*
X163161808Y-116097413D01*
X162306000Y-115241605D01*
X161450192Y-116097413D01*
X161529017Y-116347490D01*
X162080097Y-116546977D01*
X162665569Y-116520389D01*
X163082983Y-116347490D01*
X163161808Y-116097413D01*
X163161808Y-117933000D01*
X158146579Y-117933000D01*
X159544571Y-116535007D01*
X160057752Y-116535455D01*
X160599411Y-116311647D01*
X161014190Y-115897591D01*
X161036441Y-115844004D01*
X161270587Y-115917808D01*
X162126395Y-115062000D01*
X161270587Y-114206192D01*
X161036836Y-114279870D01*
X161015647Y-114228589D01*
X160601591Y-113813810D01*
X160520167Y-113780000D01*
X161527916Y-113780000D01*
X161450192Y-114026587D01*
X162306000Y-114882395D01*
X162320142Y-114868252D01*
X162499747Y-115047857D01*
X162485605Y-115062000D01*
X163341413Y-115917808D01*
X163591490Y-115838983D01*
X163790977Y-115287903D01*
X163764389Y-114702431D01*
X163740802Y-114645488D01*
X165966657Y-116871343D01*
X166267000Y-117072025D01*
X166267000Y-117518309D01*
X166363673Y-117751698D01*
X166542301Y-117930327D01*
X166548754Y-117933000D01*
G36*
X170511000Y-114202921D02*
X170440327Y-114032302D01*
X170261699Y-113853673D01*
X170028310Y-113757000D01*
X169775691Y-113757000D01*
X169015853Y-113757000D01*
X169576582Y-113524739D01*
X169736365Y-113205970D01*
X168402000Y-111871605D01*
X168222395Y-112051210D01*
X168222395Y-111692000D01*
X166888030Y-110357635D01*
X166569261Y-110517418D01*
X166259277Y-111308187D01*
X166275503Y-112157387D01*
X166569261Y-112866582D01*
X166888030Y-113026365D01*
X168222395Y-111692000D01*
X168222395Y-112051210D01*
X167067635Y-113205970D01*
X167227418Y-113524739D01*
X167819915Y-113757000D01*
X166775691Y-113757000D01*
X166771444Y-113758758D01*
X164428343Y-111415657D01*
X163979017Y-111115427D01*
X163790977Y-111078023D01*
X163790977Y-102587903D01*
X163764389Y-102002431D01*
X163591490Y-101585017D01*
X163341413Y-101506192D01*
X162485605Y-102362000D01*
X163341413Y-103217808D01*
X163591490Y-103138983D01*
X163790977Y-102587903D01*
X163790977Y-111078023D01*
X163449000Y-111010000D01*
X163195000Y-111010000D01*
X163171240Y-111010000D01*
X163171240Y-108289211D01*
X163161808Y-108266383D01*
X163161808Y-103397413D01*
X162306000Y-102541605D01*
X161450192Y-103397413D01*
X161529017Y-103647490D01*
X162080097Y-103846977D01*
X162665569Y-103820389D01*
X163082983Y-103647490D01*
X163161808Y-103397413D01*
X163161808Y-108266383D01*
X162846910Y-107504273D01*
X162246886Y-106903200D01*
X161462515Y-106577501D01*
X160613211Y-106576760D01*
X159828273Y-106901090D01*
X159227200Y-107501114D01*
X158901501Y-108285485D01*
X158900760Y-109134789D01*
X159225090Y-109919727D01*
X159825114Y-110520800D01*
X160609485Y-110846499D01*
X161458789Y-110847240D01*
X162243727Y-110522910D01*
X162844800Y-109922886D01*
X163170499Y-109138515D01*
X163171240Y-108289211D01*
X163171240Y-111010000D01*
X158115000Y-111010000D01*
X157584983Y-111115427D01*
X157135657Y-111415657D01*
X153096313Y-115455000D01*
X152338686Y-115455000D01*
X151791843Y-114908157D01*
X151347343Y-114463657D01*
X148959000Y-112075314D01*
X148959000Y-110940138D01*
X149098690Y-110998000D01*
X149229000Y-110998000D01*
X149229000Y-111251994D01*
X149228999Y-111252000D01*
X149285189Y-111534484D01*
X149296367Y-111590675D01*
X149488210Y-111877790D01*
X151320570Y-113710150D01*
X151320269Y-114056086D01*
X151522854Y-114546380D01*
X151897647Y-114921827D01*
X152387587Y-115125268D01*
X152918086Y-115125731D01*
X153408380Y-114923146D01*
X153783827Y-114548353D01*
X153987268Y-114058413D01*
X153987731Y-113527914D01*
X153785146Y-113037620D01*
X153410353Y-112662173D01*
X152920413Y-112458732D01*
X152572007Y-112458427D01*
X151111579Y-110998000D01*
X151129309Y-110998000D01*
X151362698Y-110901327D01*
X151541327Y-110722699D01*
X151638000Y-110489310D01*
X151638000Y-110236691D01*
X151638000Y-108458691D01*
X151541327Y-108225302D01*
X151499000Y-108182974D01*
X151499000Y-107696000D01*
X151393573Y-107165984D01*
X151393573Y-107165983D01*
X151093343Y-106716657D01*
X149823343Y-105446657D01*
X149437246Y-105188675D01*
X149852380Y-105017146D01*
X150227827Y-104642353D01*
X150431268Y-104152413D01*
X150431731Y-103621914D01*
X150342660Y-103406346D01*
X150785657Y-103849343D01*
X151234983Y-104149573D01*
X151234984Y-104149573D01*
X151765000Y-104255000D01*
X154305000Y-104255000D01*
X154835016Y-104149573D01*
X154835017Y-104149573D01*
X155284343Y-103849343D01*
X155384618Y-103749067D01*
X155384269Y-104150086D01*
X155586854Y-104640380D01*
X155961647Y-105015827D01*
X156451587Y-105219268D01*
X156982086Y-105219731D01*
X157472380Y-105017146D01*
X157718955Y-104771000D01*
X158241994Y-104771000D01*
X158242000Y-104771001D01*
X158242000Y-104771000D01*
X158524484Y-104714810D01*
X158580674Y-104703633D01*
X158580675Y-104703633D01*
X158867790Y-104511790D01*
X159544571Y-103835007D01*
X160057752Y-103835455D01*
X160599411Y-103611647D01*
X161014190Y-103197591D01*
X161036441Y-103144004D01*
X161270587Y-103217808D01*
X162126395Y-102362000D01*
X161270587Y-101506192D01*
X161036836Y-101579870D01*
X161015647Y-101528589D01*
X160601591Y-101113810D01*
X160520167Y-101080000D01*
X161527916Y-101080000D01*
X161450192Y-101326587D01*
X162306000Y-102182395D01*
X163161808Y-101326587D01*
X163084083Y-101080000D01*
X163891314Y-101080000D01*
X165585657Y-102774343D01*
X166034983Y-103074573D01*
X166034984Y-103074573D01*
X166140000Y-103095462D01*
X166140000Y-103421309D01*
X166236673Y-103654698D01*
X166415301Y-103833327D01*
X166648690Y-103930000D01*
X166901309Y-103930000D01*
X169901309Y-103930000D01*
X170134698Y-103833327D01*
X170313327Y-103654699D01*
X170410000Y-103421310D01*
X170410000Y-103168691D01*
X170410000Y-100168691D01*
X170313327Y-99935302D01*
X170134699Y-99756673D01*
X169901310Y-99660000D01*
X169648691Y-99660000D01*
X168888853Y-99660000D01*
X169449582Y-99427739D01*
X169609365Y-99108970D01*
X168275000Y-97774605D01*
X168095395Y-97954210D01*
X168095395Y-97595000D01*
X166761030Y-96260635D01*
X166442261Y-96420418D01*
X166132277Y-97211187D01*
X166148503Y-98060387D01*
X166442261Y-98769582D01*
X166761030Y-98929365D01*
X168095395Y-97595000D01*
X168095395Y-97954210D01*
X166940635Y-99108970D01*
X167100418Y-99427739D01*
X167692915Y-99660000D01*
X166648691Y-99660000D01*
X166464839Y-99736153D01*
X165444343Y-98715657D01*
X164995017Y-98415427D01*
X164465000Y-98310000D01*
X163790977Y-98310000D01*
X163790977Y-89125903D01*
X163764389Y-88540431D01*
X163591490Y-88123017D01*
X163341413Y-88044192D01*
X162485605Y-88900000D01*
X163341413Y-89755808D01*
X163591490Y-89676983D01*
X163790977Y-89125903D01*
X163790977Y-98310000D01*
X163161808Y-98310000D01*
X163161808Y-89935413D01*
X162306000Y-89079605D01*
X161450192Y-89935413D01*
X161529017Y-90185490D01*
X162080097Y-90384977D01*
X162665569Y-90358389D01*
X163082983Y-90185490D01*
X163161808Y-89935413D01*
X163161808Y-98310000D01*
X157480000Y-98310000D01*
X156949983Y-98415427D01*
X156500657Y-98715657D01*
X153731314Y-101485000D01*
X153511705Y-101485000D01*
X153783827Y-101213353D01*
X153987268Y-100723413D01*
X153987731Y-100192914D01*
X153785146Y-99702620D01*
X153410353Y-99327173D01*
X152920413Y-99123732D01*
X152572007Y-99123427D01*
X150999000Y-97550420D01*
X150999000Y-97536000D01*
X151129309Y-97536000D01*
X151362698Y-97439327D01*
X151541327Y-97260699D01*
X151638000Y-97027310D01*
X151638000Y-96774691D01*
X151638000Y-94996691D01*
X151541327Y-94763302D01*
X151362699Y-94584673D01*
X151129310Y-94488000D01*
X150876691Y-94488000D01*
X149098691Y-94488000D01*
X148865302Y-94584673D01*
X148686673Y-94763301D01*
X148626317Y-94909011D01*
X148438404Y-94720769D01*
X147878472Y-94488265D01*
X147272188Y-94487736D01*
X146711851Y-94719262D01*
X146303664Y-95126737D01*
X145898404Y-94720769D01*
X145338472Y-94488265D01*
X144732188Y-94487736D01*
X144171851Y-94719262D01*
X143887000Y-95003616D01*
X143887000Y-94996005D01*
X143887000Y-94996000D01*
X143887001Y-94996000D01*
X143819633Y-94657325D01*
X143627790Y-94370210D01*
X143627786Y-94370207D01*
X140325790Y-91068210D01*
X140325786Y-91068207D01*
X140071790Y-90814210D01*
X139784675Y-90622367D01*
X139728484Y-90611189D01*
X139446000Y-90554999D01*
X139445994Y-90555000D01*
X138846556Y-90555000D01*
X139001268Y-90182413D01*
X139001731Y-89651914D01*
X138799146Y-89161620D01*
X138424353Y-88786173D01*
X138045000Y-88628651D01*
X138045000Y-79614579D01*
X140325786Y-77333792D01*
X140325789Y-77333790D01*
X140325790Y-77333790D01*
X140517633Y-77046675D01*
X140585000Y-76708000D01*
X140585000Y-75184005D01*
X140585000Y-75184000D01*
X140585001Y-75184000D01*
X140528810Y-74901515D01*
X140517633Y-74845326D01*
X140517633Y-74845325D01*
X140325790Y-74558211D01*
X140325790Y-74558210D01*
X140325786Y-74558207D01*
X139569000Y-73801420D01*
X139569000Y-68713856D01*
X139598622Y-68684286D01*
X139763313Y-68287668D01*
X139763687Y-67858216D01*
X139599689Y-67461311D01*
X139296286Y-67157378D01*
X138899668Y-66992687D01*
X138470216Y-66992313D01*
X138299000Y-67063058D01*
X138299000Y-67052247D01*
X138532689Y-66955689D01*
X138836622Y-66652286D01*
X139001313Y-66255668D01*
X139001687Y-65826216D01*
X138837689Y-65429311D01*
X138534286Y-65125378D01*
X138137668Y-64960687D01*
X137708216Y-64960313D01*
X137311311Y-65124311D01*
X137283000Y-65152572D01*
X137283000Y-65024005D01*
X137283000Y-65024000D01*
X137283001Y-65024000D01*
X137223539Y-64725075D01*
X137223687Y-64556216D01*
X137152941Y-64385000D01*
X137159994Y-64385000D01*
X137160000Y-64385001D01*
X137160000Y-64385000D01*
X137442484Y-64328810D01*
X137498674Y-64317633D01*
X137498675Y-64317633D01*
X137785790Y-64125790D01*
X138602150Y-63309429D01*
X138948086Y-63309731D01*
X139438380Y-63107146D01*
X139813827Y-62732353D01*
X140017268Y-62242413D01*
X140017731Y-61711914D01*
X139815146Y-61221620D01*
X139440353Y-60846173D01*
X138950413Y-60642732D01*
X138419914Y-60642269D01*
X137929620Y-60844854D01*
X137554173Y-61219647D01*
X137350732Y-61709587D01*
X137350427Y-62057992D01*
X136793420Y-62615000D01*
X136777861Y-62615000D01*
X136804622Y-62588286D01*
X136969313Y-62191668D01*
X136969687Y-61762216D01*
X136805689Y-61365311D01*
X136502286Y-61061378D01*
X136164474Y-60921105D01*
X137023786Y-60061792D01*
X137023789Y-60061790D01*
X137023790Y-60061790D01*
X137215633Y-59774675D01*
X137283000Y-59436000D01*
X137283000Y-49293075D01*
X137660380Y-49137146D01*
X138035827Y-48762353D01*
X138239268Y-48272413D01*
X138239731Y-47741914D01*
X138037146Y-47251620D01*
X137662353Y-46876173D01*
X137172413Y-46672732D01*
X136641914Y-46672269D01*
X136303467Y-46812111D01*
X137023786Y-46091792D01*
X137023789Y-46091790D01*
X137023790Y-46091790D01*
X137215633Y-45804675D01*
X137283000Y-45466000D01*
X137283001Y-45466000D01*
X137283000Y-45465994D01*
X137283000Y-35036753D01*
X137527827Y-34792353D01*
X137731268Y-34302413D01*
X137731731Y-33771914D01*
X137529146Y-33281620D01*
X137154353Y-32906173D01*
X136664413Y-32702732D01*
X136133914Y-32702269D01*
X135993240Y-32760394D01*
X135993240Y-29295211D01*
X135668910Y-28510273D01*
X135068886Y-27909200D01*
X134284515Y-27583501D01*
X133435211Y-27582760D01*
X132650273Y-27907090D01*
X132049200Y-28507114D01*
X131723501Y-29291485D01*
X131722760Y-30140789D01*
X132047090Y-30925727D01*
X132647114Y-31526800D01*
X133431485Y-31852499D01*
X134280789Y-31853240D01*
X135065727Y-31528910D01*
X135666800Y-30928886D01*
X135992499Y-30144515D01*
X135993240Y-29295211D01*
X135993240Y-32760394D01*
X135643620Y-32904854D01*
X135268173Y-33279647D01*
X135064732Y-33769587D01*
X135064269Y-34300086D01*
X135266854Y-34790380D01*
X135513000Y-35036955D01*
X135513000Y-45099420D01*
X134502210Y-46110210D01*
X134310367Y-46397325D01*
X134302492Y-46436912D01*
X133983788Y-46118208D01*
X133696673Y-45926365D01*
X133640482Y-45915187D01*
X133357998Y-45858997D01*
X133357992Y-45858998D01*
X128136577Y-45858998D01*
X127885000Y-45607420D01*
X127885000Y-36180579D01*
X129403786Y-34661792D01*
X129403790Y-34661790D01*
X129403790Y-34661789D01*
X129595633Y-34374675D01*
X129595633Y-34374674D01*
X129606810Y-34318484D01*
X129663000Y-34036000D01*
X129663001Y-34036000D01*
X129663000Y-34035994D01*
X129663000Y-32899856D01*
X129692622Y-32870286D01*
X129857313Y-32473668D01*
X129857687Y-32044216D01*
X129693689Y-31647311D01*
X129390286Y-31343378D01*
X129052473Y-31203105D01*
X130165786Y-30089792D01*
X130165789Y-30089790D01*
X130165790Y-30089790D01*
X130357633Y-29802675D01*
X130425000Y-29464000D01*
X130425000Y-29089856D01*
X130454622Y-29060286D01*
X130619313Y-28663668D01*
X130619687Y-28234216D01*
X130455689Y-27837311D01*
X130255541Y-27636814D01*
X131778178Y-26114178D01*
X133006356Y-24886000D01*
X142240000Y-24886000D01*
X144155083Y-24886000D01*
X143742769Y-25297596D01*
X143510265Y-25857528D01*
X143509736Y-26463812D01*
X143741262Y-27024149D01*
X144149000Y-27432599D01*
X144149000Y-28335420D01*
X143337849Y-29146570D01*
X142991914Y-29146269D01*
X142501620Y-29348854D01*
X142126173Y-29723647D01*
X141922732Y-30213587D01*
X141922269Y-30744086D01*
X142124854Y-31234380D01*
X142499647Y-31609827D01*
X142989587Y-31813268D01*
X143133000Y-31813393D01*
X143133000Y-33035246D01*
X142888173Y-33279647D01*
X142684732Y-33769587D01*
X142684269Y-34300086D01*
X142886854Y-34790380D01*
X143261647Y-35165827D01*
X143751587Y-35369268D01*
X144282086Y-35369731D01*
X144772380Y-35167146D01*
X145147827Y-34792353D01*
X145351268Y-34302413D01*
X145351731Y-33771914D01*
X145149146Y-33281620D01*
X144903000Y-33035044D01*
X144903000Y-31242005D01*
X144903000Y-31242000D01*
X144903001Y-31242000D01*
X144846810Y-30959515D01*
X144835633Y-30903326D01*
X144835633Y-30903325D01*
X144643790Y-30616211D01*
X144643790Y-30616210D01*
X144643786Y-30616207D01*
X144589429Y-30561850D01*
X144589572Y-30398007D01*
X145659786Y-29327792D01*
X145659790Y-29327790D01*
X145659790Y-29327789D01*
X145851633Y-29040675D01*
X145851633Y-29040674D01*
X145862810Y-28984484D01*
X145919000Y-28702000D01*
X145919001Y-28702000D01*
X145919000Y-28701994D01*
X145919000Y-27431926D01*
X146189000Y-27162397D01*
X146189000Y-30734000D01*
X146294427Y-31264017D01*
X146594657Y-31713343D01*
X147583822Y-32702508D01*
X147309914Y-32702269D01*
X146819620Y-32904854D01*
X146444173Y-33279647D01*
X146240732Y-33769587D01*
X146240269Y-34300086D01*
X146442854Y-34790380D01*
X146817647Y-35165827D01*
X147307587Y-35369268D01*
X147838086Y-35369731D01*
X148328380Y-35167146D01*
X148703827Y-34792353D01*
X148907268Y-34302413D01*
X148907516Y-34017290D01*
X149329983Y-34299573D01*
X149329984Y-34299574D01*
X149860000Y-34405000D01*
X152400000Y-34405000D01*
X152930016Y-34299573D01*
X152930017Y-34299573D01*
X153379343Y-33999343D01*
X154039414Y-33339271D01*
X153860732Y-33769587D01*
X153860269Y-34300086D01*
X154062854Y-34790380D01*
X154437647Y-35165827D01*
X154927587Y-35369268D01*
X155458086Y-35369731D01*
X155948380Y-35167146D01*
X156194955Y-34921000D01*
X158496000Y-34921000D01*
X158546692Y-34921000D01*
X158546545Y-35089752D01*
X158770353Y-35631411D01*
X159184409Y-36046190D01*
X159725677Y-36270944D01*
X160311752Y-36271455D01*
X160853411Y-36047647D01*
X161268190Y-35633591D01*
X161290441Y-35580004D01*
X161524587Y-35653808D01*
X162380395Y-34798000D01*
X161524587Y-33942192D01*
X161290836Y-34015870D01*
X161269647Y-33964589D01*
X160855591Y-33549810D01*
X160314323Y-33325056D01*
X159755618Y-33324568D01*
X159755617Y-33324568D01*
X159596675Y-33218367D01*
X159540484Y-33207189D01*
X159258000Y-33150999D01*
X159257994Y-33151000D01*
X158496000Y-33151000D01*
X156194753Y-33151000D01*
X155950353Y-32906173D01*
X155460413Y-32702732D01*
X154929914Y-32702269D01*
X154497921Y-32880764D01*
X157223686Y-30155000D01*
X160425000Y-30155000D01*
X160425000Y-30396309D01*
X160521673Y-30629698D01*
X160700301Y-30808327D01*
X160933690Y-30905000D01*
X161186309Y-30905000D01*
X164186309Y-30905000D01*
X164419698Y-30808327D01*
X164598327Y-30629699D01*
X164695000Y-30396310D01*
X164695000Y-30143691D01*
X164695000Y-27143691D01*
X164598327Y-26910302D01*
X164419699Y-26731673D01*
X164186310Y-26635000D01*
X163933691Y-26635000D01*
X163173853Y-26635000D01*
X163734582Y-26402739D01*
X163894365Y-26083970D01*
X162560000Y-24749605D01*
X161225635Y-26083970D01*
X161385418Y-26402739D01*
X161977915Y-26635000D01*
X160933691Y-26635000D01*
X160700302Y-26731673D01*
X160521673Y-26910301D01*
X160425000Y-27143690D01*
X160425000Y-27385000D01*
X156650000Y-27385000D01*
X156119984Y-27490426D01*
X155670657Y-27790657D01*
X151826314Y-31635000D01*
X151572648Y-31635000D01*
X151630380Y-31611146D01*
X152005827Y-31236353D01*
X152209268Y-30746413D01*
X152209731Y-30215914D01*
X152007146Y-29725620D01*
X151632353Y-29350173D01*
X151142413Y-29146732D01*
X150999000Y-29146606D01*
X150999000Y-27686000D01*
X151129309Y-27686000D01*
X151362698Y-27589327D01*
X151541327Y-27410699D01*
X151638000Y-27177310D01*
X151638000Y-26924691D01*
X151638000Y-25146691D01*
X151541327Y-24913302D01*
X151514025Y-24886000D01*
X159512000Y-24886000D01*
X159898510Y-24809118D01*
X160226178Y-24590178D01*
X160421268Y-24395087D01*
X160433503Y-25035387D01*
X160727261Y-25744582D01*
X161046030Y-25904365D01*
X162380395Y-24570000D01*
X162366252Y-24555857D01*
X162545857Y-24376252D01*
X162560000Y-24390395D01*
X162574142Y-24376252D01*
X162753747Y-24555857D01*
X162739605Y-24570000D01*
X164073970Y-25904365D01*
X164392739Y-25744582D01*
X164598000Y-25220961D01*
X164598000Y-25400000D01*
X164674882Y-25786510D01*
X164893822Y-26114178D01*
X167433822Y-28654178D01*
X167761489Y-28873118D01*
X167761490Y-28873118D01*
X168005790Y-28921712D01*
X168153647Y-29069827D01*
X168338295Y-29146500D01*
X168337809Y-29146500D01*
X168085190Y-29146500D01*
X167851801Y-29243173D01*
X167673173Y-29421802D01*
X167576500Y-29655191D01*
X167576500Y-30194250D01*
X167735250Y-30353000D01*
X168783000Y-30353000D01*
X168783000Y-30333000D01*
X169037000Y-30333000D01*
X169037000Y-30353000D01*
X170084750Y-30353000D01*
X170243500Y-30194250D01*
X170243500Y-29655191D01*
X170146827Y-29421802D01*
X169968199Y-29243173D01*
X169734810Y-29146500D01*
X169482191Y-29146500D01*
X169482009Y-29146500D01*
X169664380Y-29071146D01*
X170039827Y-28696353D01*
X170243268Y-28206413D01*
X170243731Y-27675914D01*
X170041146Y-27185620D01*
X169666353Y-26810173D01*
X169328553Y-26669906D01*
X169664380Y-26531146D01*
X170039827Y-26156353D01*
X170243268Y-25666413D01*
X170243731Y-25135914D01*
X170041146Y-24645620D01*
X169666353Y-24270173D01*
X169328553Y-24129906D01*
X169664380Y-23991146D01*
X170039827Y-23616353D01*
X170243268Y-23126413D01*
X170243731Y-22595914D01*
X170041146Y-22105620D01*
X169666353Y-21730173D01*
X169176413Y-21526732D01*
X168645914Y-21526269D01*
X168155620Y-21728854D01*
X167957854Y-21926275D01*
X165512579Y-19481000D01*
X170511000Y-19481000D01*
X170511000Y-39048371D01*
X170243500Y-38402568D01*
X170243500Y-31304809D01*
X170243500Y-30765750D01*
X170084750Y-30607000D01*
X169037000Y-30607000D01*
X169037000Y-31654750D01*
X169195750Y-31813500D01*
X169482191Y-31813500D01*
X169734810Y-31813500D01*
X169968199Y-31716827D01*
X170146827Y-31538198D01*
X170243500Y-31304809D01*
X170243500Y-38402568D01*
X170234739Y-38381418D01*
X169915970Y-38221635D01*
X169736365Y-38401240D01*
X169736365Y-38042030D01*
X169576582Y-37723261D01*
X168785813Y-37413277D01*
X168783000Y-37413330D01*
X168783000Y-31654750D01*
X168783000Y-30607000D01*
X167735250Y-30607000D01*
X167576500Y-30765750D01*
X167576500Y-31304809D01*
X167673173Y-31538198D01*
X167851801Y-31716827D01*
X168085190Y-31813500D01*
X168337809Y-31813500D01*
X168624250Y-31813500D01*
X168783000Y-31654750D01*
X168783000Y-37413330D01*
X167936613Y-37429503D01*
X167227418Y-37723261D01*
X167067635Y-38042030D01*
X168402000Y-39376395D01*
X169736365Y-38042030D01*
X169736365Y-38401240D01*
X168581605Y-39556000D01*
X169915970Y-40890365D01*
X170234739Y-40730582D01*
X170511000Y-40025840D01*
X170511000Y-42066921D01*
X170440327Y-41896302D01*
X170261699Y-41717673D01*
X170028310Y-41621000D01*
X169775691Y-41621000D01*
X169015853Y-41621000D01*
X169576582Y-41388739D01*
X169736365Y-41069970D01*
X168402000Y-39735605D01*
X168222395Y-39915210D01*
X168222395Y-39556000D01*
X166888030Y-38221635D01*
X166569261Y-38381418D01*
X166259277Y-39172187D01*
X166275503Y-40021387D01*
X166569261Y-40730582D01*
X166888030Y-40890365D01*
X168222395Y-39556000D01*
X168222395Y-39915210D01*
X167067635Y-41069970D01*
X167227418Y-41388739D01*
X167819915Y-41621000D01*
X166775691Y-41621000D01*
X166542302Y-41717673D01*
X166363673Y-41896301D01*
X166267000Y-42129690D01*
X166267000Y-42382309D01*
X166267000Y-43932314D01*
X165864314Y-44335000D01*
X164044977Y-44335000D01*
X164044977Y-35023903D01*
X164018389Y-34438431D01*
X163845490Y-34021017D01*
X163595413Y-33942192D01*
X163415808Y-34121797D01*
X163415808Y-33762587D01*
X163336983Y-33512510D01*
X162785903Y-33313023D01*
X162200431Y-33339611D01*
X161783017Y-33512510D01*
X161704192Y-33762587D01*
X162560000Y-34618395D01*
X163415808Y-33762587D01*
X163415808Y-34121797D01*
X162739605Y-34798000D01*
X163595413Y-35653808D01*
X163845490Y-35574983D01*
X164044977Y-35023903D01*
X164044977Y-44335000D01*
X163679240Y-44335000D01*
X163679240Y-40979211D01*
X163415808Y-40341657D01*
X163415808Y-35833413D01*
X162560000Y-34977605D01*
X161704192Y-35833413D01*
X161783017Y-36083490D01*
X162334097Y-36282977D01*
X162919569Y-36256389D01*
X163336983Y-36083490D01*
X163415808Y-35833413D01*
X163415808Y-40341657D01*
X163354910Y-40194273D01*
X162754886Y-39593200D01*
X161970515Y-39267501D01*
X161121211Y-39266760D01*
X160336273Y-39591090D01*
X159735200Y-40191114D01*
X159409501Y-40975485D01*
X159408760Y-41824789D01*
X159733090Y-42609727D01*
X160333114Y-43210800D01*
X161117485Y-43536499D01*
X161966789Y-43537240D01*
X162751727Y-43212910D01*
X163352800Y-42612886D01*
X163678499Y-41828515D01*
X163679240Y-40979211D01*
X163679240Y-44335000D01*
X155194000Y-44335000D01*
X154663983Y-44440427D01*
X154214657Y-44740657D01*
X153350314Y-45605000D01*
X153096648Y-45605000D01*
X153154380Y-45581146D01*
X153529827Y-45206353D01*
X153733268Y-44716413D01*
X153733731Y-44185914D01*
X153531146Y-43695620D01*
X153156353Y-43320173D01*
X152666413Y-43116732D01*
X152318007Y-43116427D01*
X150999000Y-41797420D01*
X150999000Y-41656000D01*
X151129309Y-41656000D01*
X151362698Y-41559327D01*
X151541327Y-41380699D01*
X151638000Y-41147310D01*
X151638000Y-40894691D01*
X151638000Y-39116691D01*
X151541327Y-38883302D01*
X151362699Y-38704673D01*
X151129310Y-38608000D01*
X150876691Y-38608000D01*
X149098691Y-38608000D01*
X148865302Y-38704673D01*
X148686673Y-38883301D01*
X148626317Y-39029011D01*
X148438404Y-38840769D01*
X147878472Y-38608265D01*
X147272188Y-38607736D01*
X146711851Y-38839262D01*
X146303664Y-39246737D01*
X145898404Y-38840769D01*
X145338472Y-38608265D01*
X144732188Y-38607736D01*
X144171851Y-38839262D01*
X143742769Y-39267596D01*
X143510265Y-39827528D01*
X143509736Y-40433812D01*
X143741262Y-40994149D01*
X143895000Y-41148155D01*
X143895000Y-43449246D01*
X143650173Y-43693647D01*
X143446732Y-44183587D01*
X143446269Y-44714086D01*
X143641000Y-45185371D01*
X143641000Y-47005246D01*
X143396173Y-47249647D01*
X143192732Y-47739587D01*
X143192269Y-48270086D01*
X143394854Y-48760380D01*
X143769647Y-49135827D01*
X144259587Y-49339268D01*
X144790086Y-49339731D01*
X145280380Y-49137146D01*
X145655827Y-48762353D01*
X145859268Y-48272413D01*
X145859731Y-47741914D01*
X145657146Y-47251620D01*
X145411000Y-47005044D01*
X145411000Y-45632125D01*
X145534380Y-45581146D01*
X145909827Y-45206353D01*
X146113268Y-44716413D01*
X146113731Y-44185914D01*
X145911146Y-43695620D01*
X145665000Y-43449044D01*
X145665000Y-41520246D01*
X145896149Y-41424738D01*
X146189000Y-41132397D01*
X146189000Y-43434000D01*
X146294427Y-43964017D01*
X146594657Y-44413343D01*
X148508867Y-46327553D01*
X148163849Y-46672570D01*
X147817914Y-46672269D01*
X147327620Y-46874854D01*
X146952173Y-47249647D01*
X146748732Y-47739587D01*
X146748269Y-48270086D01*
X146950854Y-48760380D01*
X147325647Y-49135827D01*
X147815587Y-49339268D01*
X148346086Y-49339731D01*
X148836380Y-49137146D01*
X149211827Y-48762353D01*
X149415268Y-48272413D01*
X149415572Y-47924007D01*
X149760446Y-47579132D01*
X150150657Y-47969343D01*
X150599983Y-48269573D01*
X150599984Y-48269573D01*
X151130000Y-48375000D01*
X153670000Y-48375000D01*
X153924000Y-48375000D01*
X154374585Y-48285372D01*
X154570854Y-48760380D01*
X154945647Y-49135827D01*
X155435587Y-49339268D01*
X155966086Y-49339731D01*
X156456380Y-49137146D01*
X156702955Y-48891000D01*
X158567852Y-48891000D01*
X158930409Y-49254190D01*
X159471677Y-49478944D01*
X160057752Y-49479455D01*
X160599411Y-49255647D01*
X161014190Y-48841591D01*
X161036441Y-48788004D01*
X161270587Y-48861808D01*
X162126395Y-48006000D01*
X162112252Y-47991857D01*
X162291857Y-47812252D01*
X162306000Y-47826395D01*
X162320142Y-47812252D01*
X162499747Y-47991857D01*
X162485605Y-48006000D01*
X163341413Y-48861808D01*
X163591490Y-48782983D01*
X163790977Y-48231903D01*
X163764389Y-47646431D01*
X163591490Y-47229017D01*
X163341415Y-47150192D01*
X163386607Y-47105000D01*
X166438000Y-47105000D01*
X166968016Y-46999573D01*
X166968017Y-46999573D01*
X167417343Y-46699343D01*
X168225686Y-45891000D01*
X170028309Y-45891000D01*
X170261698Y-45794327D01*
X170440327Y-45615699D01*
X170511000Y-45445079D01*
X170511000Y-111184371D01*
X170417723Y-110959180D01*
X170417723Y-97978813D01*
X170417723Y-83373813D01*
X170417723Y-68768813D01*
X170417723Y-54163813D01*
X170401497Y-53314613D01*
X170107739Y-52605418D01*
X169788970Y-52445635D01*
X169609365Y-52625240D01*
X169609365Y-52266030D01*
X169449582Y-51947261D01*
X168658813Y-51637277D01*
X167809613Y-51653503D01*
X167100418Y-51947261D01*
X166940635Y-52266030D01*
X168275000Y-53600395D01*
X169609365Y-52266030D01*
X169609365Y-52625240D01*
X168454605Y-53780000D01*
X169788970Y-55114365D01*
X170107739Y-54954582D01*
X170417723Y-54163813D01*
X170417723Y-68768813D01*
X170410000Y-68364623D01*
X170410000Y-59606310D01*
X170410000Y-59353691D01*
X170410000Y-56353691D01*
X170313327Y-56120302D01*
X170134699Y-55941673D01*
X169901310Y-55845000D01*
X169648691Y-55845000D01*
X168888853Y-55845000D01*
X169449582Y-55612739D01*
X169609365Y-55293970D01*
X168275000Y-53959605D01*
X168095395Y-54139210D01*
X168095395Y-53780000D01*
X166761030Y-52445635D01*
X166442261Y-52605418D01*
X166132277Y-53396187D01*
X166148503Y-54245387D01*
X166442261Y-54954582D01*
X166761030Y-55114365D01*
X168095395Y-53780000D01*
X168095395Y-54139210D01*
X166940635Y-55293970D01*
X167100418Y-55612739D01*
X167692915Y-55845000D01*
X166648691Y-55845000D01*
X166415302Y-55941673D01*
X166236673Y-56120301D01*
X166140000Y-56353690D01*
X166140000Y-56595000D01*
X163790977Y-56595000D01*
X163161808Y-56595000D01*
X163161808Y-49041413D01*
X162306000Y-48185605D01*
X161450192Y-49041413D01*
X161529017Y-49291490D01*
X162080097Y-49490977D01*
X162665569Y-49464389D01*
X163082983Y-49291490D01*
X163161808Y-49041413D01*
X163161808Y-56595000D01*
X157920000Y-56595000D01*
X157389983Y-56700427D01*
X156940657Y-57000657D01*
X154366314Y-59575000D01*
X153511705Y-59575000D01*
X153783827Y-59303353D01*
X153987268Y-58813413D01*
X153987731Y-58282914D01*
X153785146Y-57792620D01*
X153410353Y-57417173D01*
X152920413Y-57213732D01*
X152572007Y-57213427D01*
X150999000Y-55640420D01*
X150999000Y-55626000D01*
X151129309Y-55626000D01*
X151362698Y-55529327D01*
X151541327Y-55350699D01*
X151638000Y-55117310D01*
X151638000Y-54864691D01*
X151638000Y-53086691D01*
X151541327Y-52853302D01*
X151362699Y-52674673D01*
X151129310Y-52578000D01*
X150876691Y-52578000D01*
X149098691Y-52578000D01*
X148865302Y-52674673D01*
X148686673Y-52853301D01*
X148626317Y-52999011D01*
X148438404Y-52810769D01*
X147878472Y-52578265D01*
X147272188Y-52577736D01*
X146711851Y-52809262D01*
X146303664Y-53216737D01*
X145898404Y-52810769D01*
X145338472Y-52578265D01*
X144732188Y-52577736D01*
X144171851Y-52809262D01*
X143742769Y-53237596D01*
X143510265Y-53797528D01*
X143509736Y-54403812D01*
X143741262Y-54964149D01*
X144149000Y-55372599D01*
X144149000Y-57546246D01*
X143904173Y-57790647D01*
X143700732Y-58280587D01*
X143700269Y-58811086D01*
X143902854Y-59301380D01*
X144149000Y-59547955D01*
X144149000Y-60705994D01*
X144148999Y-60706000D01*
X144205189Y-60988484D01*
X144216367Y-61044675D01*
X144408210Y-61331790D01*
X144970570Y-61894150D01*
X144970269Y-62240086D01*
X145172854Y-62730380D01*
X145547647Y-63105827D01*
X146037587Y-63309268D01*
X146568086Y-63309731D01*
X147058380Y-63107146D01*
X147433827Y-62732353D01*
X147637268Y-62242413D01*
X147637731Y-61711914D01*
X147435146Y-61221620D01*
X147060353Y-60846173D01*
X146570413Y-60642732D01*
X146222007Y-60642427D01*
X145919000Y-60339420D01*
X145919000Y-59547753D01*
X146163827Y-59303353D01*
X146367268Y-58813413D01*
X146367731Y-58282914D01*
X146165146Y-57792620D01*
X145919000Y-57546044D01*
X145919000Y-55371926D01*
X146189000Y-55102397D01*
X146189000Y-56769000D01*
X146294427Y-57299017D01*
X146594657Y-57748343D01*
X149488711Y-60642397D01*
X149341914Y-60642269D01*
X148851620Y-60844854D01*
X148476173Y-61219647D01*
X148272732Y-61709587D01*
X148272269Y-62240086D01*
X148474854Y-62730380D01*
X148849647Y-63105827D01*
X149339587Y-63309268D01*
X149870086Y-63309731D01*
X150360380Y-63107146D01*
X150735827Y-62732353D01*
X150939268Y-62242413D01*
X150939442Y-62042099D01*
X151234983Y-62239573D01*
X151234984Y-62239574D01*
X151765000Y-62345000D01*
X154940000Y-62345000D01*
X155470016Y-62239573D01*
X155470017Y-62239573D01*
X155892515Y-61957268D01*
X155892269Y-62240086D01*
X156094854Y-62730380D01*
X156469647Y-63105827D01*
X156959587Y-63309268D01*
X157490086Y-63309731D01*
X157980380Y-63107146D01*
X158226955Y-62861000D01*
X159329852Y-62861000D01*
X159692409Y-63224190D01*
X160233677Y-63448944D01*
X160819752Y-63449455D01*
X161361411Y-63225647D01*
X161776190Y-62811591D01*
X161798441Y-62758004D01*
X162032587Y-62831808D01*
X162888395Y-61976000D01*
X162032587Y-61120192D01*
X161798836Y-61193870D01*
X161777647Y-61142589D01*
X161363591Y-60727810D01*
X160822323Y-60503056D01*
X160236248Y-60502545D01*
X159694589Y-60726353D01*
X159329305Y-61091000D01*
X158226753Y-61091000D01*
X157982353Y-60846173D01*
X157492413Y-60642732D01*
X157216195Y-60642490D01*
X158493685Y-59365000D01*
X166140000Y-59365000D01*
X166140000Y-59606309D01*
X166236673Y-59839698D01*
X166415301Y-60018327D01*
X166648690Y-60115000D01*
X166901309Y-60115000D01*
X169901309Y-60115000D01*
X170134698Y-60018327D01*
X170313327Y-59839699D01*
X170410000Y-59606310D01*
X170410000Y-68364623D01*
X170401497Y-67919613D01*
X170107739Y-67210418D01*
X169788970Y-67050635D01*
X169609365Y-67230240D01*
X169609365Y-66871030D01*
X169449582Y-66552261D01*
X168658813Y-66242277D01*
X167809613Y-66258503D01*
X167100418Y-66552261D01*
X166940635Y-66871030D01*
X168275000Y-68205395D01*
X169609365Y-66871030D01*
X169609365Y-67230240D01*
X168454605Y-68385000D01*
X169788970Y-69719365D01*
X170107739Y-69559582D01*
X170417723Y-68768813D01*
X170417723Y-83373813D01*
X170410000Y-82969623D01*
X170410000Y-74211310D01*
X170410000Y-73958691D01*
X170410000Y-70958691D01*
X170313327Y-70725302D01*
X170134699Y-70546673D01*
X169901310Y-70450000D01*
X169648691Y-70450000D01*
X168888853Y-70450000D01*
X169449582Y-70217739D01*
X169609365Y-69898970D01*
X168275000Y-68564605D01*
X168095395Y-68744210D01*
X168095395Y-68385000D01*
X166761030Y-67050635D01*
X166442261Y-67210418D01*
X166132277Y-68001187D01*
X166148503Y-68850387D01*
X166442261Y-69559582D01*
X166761030Y-69719365D01*
X168095395Y-68385000D01*
X168095395Y-68744210D01*
X166940635Y-69898970D01*
X167100418Y-70217739D01*
X167692915Y-70450000D01*
X166648691Y-70450000D01*
X166415302Y-70546673D01*
X166236673Y-70725301D01*
X166140000Y-70958690D01*
X166140000Y-71005000D01*
X164552977Y-71005000D01*
X164552977Y-62201903D01*
X164526389Y-61616431D01*
X164353490Y-61199017D01*
X164103413Y-61120192D01*
X163923808Y-61299797D01*
X163923808Y-60940587D01*
X163844983Y-60690510D01*
X163293903Y-60491023D01*
X162708431Y-60517611D01*
X162291017Y-60690510D01*
X162212192Y-60940587D01*
X163068000Y-61796395D01*
X163923808Y-60940587D01*
X163923808Y-61299797D01*
X163247605Y-61976000D01*
X164103413Y-62831808D01*
X164353490Y-62752983D01*
X164552977Y-62201903D01*
X164552977Y-71005000D01*
X163923808Y-71005000D01*
X163923808Y-63011413D01*
X163068000Y-62155605D01*
X162212192Y-63011413D01*
X162291017Y-63261490D01*
X162842097Y-63460977D01*
X163427569Y-63434389D01*
X163844983Y-63261490D01*
X163923808Y-63011413D01*
X163923808Y-71005000D01*
X156845000Y-71005000D01*
X156314983Y-71110427D01*
X155865657Y-71410657D01*
X153731314Y-73545000D01*
X153511705Y-73545000D01*
X153783827Y-73273353D01*
X153987268Y-72783413D01*
X153987731Y-72252914D01*
X153785146Y-71762620D01*
X153410353Y-71387173D01*
X152920413Y-71183732D01*
X152572007Y-71183427D01*
X150999000Y-69610420D01*
X150999000Y-69596000D01*
X151129309Y-69596000D01*
X151362698Y-69499327D01*
X151541327Y-69320699D01*
X151638000Y-69087310D01*
X151638000Y-68834691D01*
X151638000Y-67056691D01*
X151541327Y-66823302D01*
X151362699Y-66644673D01*
X151129310Y-66548000D01*
X150876691Y-66548000D01*
X149098691Y-66548000D01*
X148865302Y-66644673D01*
X148686673Y-66823301D01*
X148626317Y-66969011D01*
X148438404Y-66780769D01*
X147878472Y-66548265D01*
X147272188Y-66547736D01*
X146711851Y-66779262D01*
X146303664Y-67186737D01*
X145898404Y-66780769D01*
X145338472Y-66548265D01*
X144732188Y-66547736D01*
X144171851Y-66779262D01*
X143742769Y-67207596D01*
X143510265Y-67767528D01*
X143509736Y-68373812D01*
X143741262Y-68934149D01*
X144149000Y-69342599D01*
X144149000Y-71516246D01*
X143904173Y-71760647D01*
X143700732Y-72250587D01*
X143700269Y-72781086D01*
X143902854Y-73271380D01*
X144149000Y-73517955D01*
X144149000Y-75437994D01*
X144148999Y-75438000D01*
X144205189Y-75720484D01*
X144208680Y-75738034D01*
X144208680Y-75738035D01*
X144208269Y-76210086D01*
X144410854Y-76700380D01*
X144785647Y-77075827D01*
X145275587Y-77279268D01*
X145806086Y-77279731D01*
X146296380Y-77077146D01*
X146671827Y-76702353D01*
X146875268Y-76212413D01*
X146875731Y-75681914D01*
X146673146Y-75191620D01*
X146298353Y-74816173D01*
X145919000Y-74658651D01*
X145919000Y-73517753D01*
X146163827Y-73273353D01*
X146367268Y-72783413D01*
X146367731Y-72252914D01*
X146165146Y-71762620D01*
X145919000Y-71516044D01*
X145919000Y-69341926D01*
X146189000Y-69072397D01*
X146189000Y-70739000D01*
X146294427Y-71269017D01*
X146594657Y-71718343D01*
X149334367Y-74458053D01*
X149179849Y-74612570D01*
X148833914Y-74612269D01*
X148343620Y-74814854D01*
X147968173Y-75189647D01*
X147764732Y-75679587D01*
X147764269Y-76210086D01*
X147966854Y-76700380D01*
X148341647Y-77075827D01*
X148831587Y-77279268D01*
X149362086Y-77279731D01*
X149852380Y-77077146D01*
X150227827Y-76702353D01*
X150431268Y-76212413D01*
X150431572Y-75864007D01*
X150585946Y-75709632D01*
X150785657Y-75909343D01*
X151234983Y-76209573D01*
X151234984Y-76209574D01*
X151765000Y-76315000D01*
X154305000Y-76315000D01*
X154835016Y-76209573D01*
X154835017Y-76209573D01*
X155284343Y-75909343D01*
X155384618Y-75809067D01*
X155384269Y-76210086D01*
X155586854Y-76700380D01*
X155961647Y-77075827D01*
X156451587Y-77279268D01*
X156982086Y-77279731D01*
X157472380Y-77077146D01*
X157718955Y-76831000D01*
X159257994Y-76831000D01*
X159258000Y-76831001D01*
X159258000Y-76831000D01*
X159540484Y-76774810D01*
X159596674Y-76763633D01*
X159596675Y-76763633D01*
X159756306Y-76656970D01*
X159756307Y-76656970D01*
X160311752Y-76657455D01*
X160853411Y-76433647D01*
X161268190Y-76019591D01*
X161290441Y-75966004D01*
X161524587Y-76039808D01*
X162380395Y-75184000D01*
X161524587Y-74328192D01*
X161290836Y-74401870D01*
X161269647Y-74350589D01*
X160855591Y-73935810D01*
X160468317Y-73775000D01*
X162081195Y-73775000D01*
X161783017Y-73898510D01*
X161704192Y-74148587D01*
X162560000Y-75004395D01*
X163415808Y-74148587D01*
X163336983Y-73898510D01*
X162995788Y-73775000D01*
X166140000Y-73775000D01*
X166140000Y-74211309D01*
X166236673Y-74444698D01*
X166415301Y-74623327D01*
X166648690Y-74720000D01*
X166901309Y-74720000D01*
X169901309Y-74720000D01*
X170134698Y-74623327D01*
X170313327Y-74444699D01*
X170410000Y-74211310D01*
X170410000Y-82969623D01*
X170401497Y-82524613D01*
X170107739Y-81815418D01*
X169788970Y-81655635D01*
X169609365Y-81835240D01*
X169609365Y-81476030D01*
X169449582Y-81157261D01*
X168658813Y-80847277D01*
X167809613Y-80863503D01*
X167100418Y-81157261D01*
X166940635Y-81476030D01*
X168275000Y-82810395D01*
X169609365Y-81476030D01*
X169609365Y-81835240D01*
X168454605Y-82990000D01*
X169788970Y-84324365D01*
X170107739Y-84164582D01*
X170417723Y-83373813D01*
X170417723Y-97978813D01*
X170410000Y-97574623D01*
X170410000Y-88816310D01*
X170410000Y-88563691D01*
X170410000Y-85563691D01*
X170313327Y-85330302D01*
X170134699Y-85151673D01*
X169901310Y-85055000D01*
X169648691Y-85055000D01*
X168888853Y-85055000D01*
X169449582Y-84822739D01*
X169609365Y-84503970D01*
X168275000Y-83169605D01*
X168095395Y-83349210D01*
X168095395Y-82990000D01*
X166761030Y-81655635D01*
X166442261Y-81815418D01*
X166132277Y-82606187D01*
X166148503Y-83455387D01*
X166442261Y-84164582D01*
X166761030Y-84324365D01*
X168095395Y-82990000D01*
X168095395Y-83349210D01*
X166940635Y-84503970D01*
X167100418Y-84822739D01*
X167533993Y-84992701D01*
X167445000Y-84975000D01*
X164044977Y-84975000D01*
X164044977Y-75409903D01*
X164018389Y-74824431D01*
X163845490Y-74407017D01*
X163595413Y-74328192D01*
X162739605Y-75184000D01*
X163595413Y-76039808D01*
X163845490Y-75960983D01*
X164044977Y-75409903D01*
X164044977Y-84975000D01*
X163415808Y-84975000D01*
X163415808Y-76219413D01*
X162560000Y-75363605D01*
X161704192Y-76219413D01*
X161783017Y-76469490D01*
X162334097Y-76668977D01*
X162919569Y-76642389D01*
X163336983Y-76469490D01*
X163415808Y-76219413D01*
X163415808Y-84975000D01*
X156210000Y-84975000D01*
X155679983Y-85080427D01*
X155230657Y-85380657D01*
X153096314Y-87515000D01*
X152461648Y-87515000D01*
X152519380Y-87491146D01*
X152894827Y-87116353D01*
X153098268Y-86626413D01*
X153098731Y-86095914D01*
X152896146Y-85605620D01*
X152521353Y-85230173D01*
X152031413Y-85026732D01*
X151683007Y-85026427D01*
X150999000Y-84342420D01*
X150999000Y-83566000D01*
X151129309Y-83566000D01*
X151362698Y-83469327D01*
X151541327Y-83290699D01*
X151638000Y-83057310D01*
X151638000Y-82804691D01*
X151638000Y-81026691D01*
X151541327Y-80793302D01*
X151362699Y-80614673D01*
X151129310Y-80518000D01*
X150876691Y-80518000D01*
X149098691Y-80518000D01*
X148865302Y-80614673D01*
X148686673Y-80793301D01*
X148626317Y-80939011D01*
X148438404Y-80750769D01*
X147878472Y-80518265D01*
X147272188Y-80517736D01*
X146711851Y-80749262D01*
X146303664Y-81156737D01*
X145898404Y-80750769D01*
X145338472Y-80518265D01*
X144732188Y-80517736D01*
X144171851Y-80749262D01*
X143742769Y-81177596D01*
X143510265Y-81737528D01*
X143509757Y-82319356D01*
X143509757Y-82319357D01*
X143327367Y-82592325D01*
X143316189Y-82648515D01*
X143259999Y-82931000D01*
X143260000Y-82931005D01*
X143260000Y-85359246D01*
X143015173Y-85603647D01*
X142811732Y-86093587D01*
X142811269Y-86624086D01*
X143013854Y-87114380D01*
X143260000Y-87360955D01*
X143260000Y-88772994D01*
X143259999Y-88773000D01*
X143316189Y-89055484D01*
X143327367Y-89111675D01*
X143519210Y-89398790D01*
X143954570Y-89834150D01*
X143954269Y-90180086D01*
X144156854Y-90670380D01*
X144531647Y-91045827D01*
X145021587Y-91249268D01*
X145552086Y-91249731D01*
X146042380Y-91047146D01*
X146417827Y-90672353D01*
X146621268Y-90182413D01*
X146621731Y-89651914D01*
X146419146Y-89161620D01*
X146044353Y-88786173D01*
X145554413Y-88582732D01*
X145206007Y-88582427D01*
X145030000Y-88406420D01*
X145030000Y-87360753D01*
X145274827Y-87116353D01*
X145478268Y-86626413D01*
X145478731Y-86095914D01*
X145276146Y-85605620D01*
X145030000Y-85359044D01*
X145030000Y-83565997D01*
X145335812Y-83566264D01*
X145896149Y-83334738D01*
X146189000Y-83042397D01*
X146189000Y-85344000D01*
X146294427Y-85874017D01*
X146594657Y-86323343D01*
X148572367Y-88301053D01*
X148218210Y-88655210D01*
X148147589Y-88760901D01*
X148089620Y-88784854D01*
X147714173Y-89159647D01*
X147510732Y-89649587D01*
X147510269Y-90180086D01*
X147712854Y-90670380D01*
X148087647Y-91045827D01*
X148577587Y-91249268D01*
X149108086Y-91249731D01*
X149598380Y-91047146D01*
X149973827Y-90672353D01*
X150177268Y-90182413D01*
X150177516Y-89897290D01*
X150599983Y-90179573D01*
X150599984Y-90179573D01*
X151130000Y-90285000D01*
X153670000Y-90285000D01*
X154200016Y-90179573D01*
X154200017Y-90179573D01*
X154649343Y-89879343D01*
X155309414Y-89219271D01*
X155130732Y-89649587D01*
X155130269Y-90180086D01*
X155332854Y-90670380D01*
X155707647Y-91045827D01*
X156197587Y-91249268D01*
X156728086Y-91249731D01*
X157218380Y-91047146D01*
X157464955Y-90801000D01*
X158749994Y-90801000D01*
X158750000Y-90801001D01*
X158750000Y-90801000D01*
X159032484Y-90744810D01*
X159088674Y-90733633D01*
X159088675Y-90733633D01*
X159375790Y-90541790D01*
X159544572Y-90373007D01*
X160057752Y-90373455D01*
X160599411Y-90149647D01*
X161014190Y-89735591D01*
X161036441Y-89682004D01*
X161270587Y-89755808D01*
X162126395Y-88900000D01*
X161270587Y-88044192D01*
X161036836Y-88117870D01*
X161015647Y-88066589D01*
X160694618Y-87745000D01*
X161487886Y-87745000D01*
X161450192Y-87864587D01*
X162306000Y-88720395D01*
X163161808Y-87864587D01*
X163124113Y-87745000D01*
X166140000Y-87745000D01*
X166140000Y-88816309D01*
X166236673Y-89049698D01*
X166415301Y-89228327D01*
X166648690Y-89325000D01*
X166901309Y-89325000D01*
X169901309Y-89325000D01*
X170134698Y-89228327D01*
X170313327Y-89049699D01*
X170410000Y-88816310D01*
X170410000Y-97574623D01*
X170401497Y-97129613D01*
X170107739Y-96420418D01*
X169788970Y-96260635D01*
X169609365Y-96440240D01*
X169609365Y-96081030D01*
X169449582Y-95762261D01*
X168658813Y-95452277D01*
X167809613Y-95468503D01*
X167100418Y-95762261D01*
X166940635Y-96081030D01*
X168275000Y-97415395D01*
X169609365Y-96081030D01*
X169609365Y-96440240D01*
X168454605Y-97595000D01*
X169788970Y-98929365D01*
X170107739Y-98769582D01*
X170417723Y-97978813D01*
X170417723Y-110959180D01*
X170234739Y-110517418D01*
X169915970Y-110357635D01*
X169736365Y-110537240D01*
X169736365Y-110178030D01*
X169576582Y-109859261D01*
X168785813Y-109549277D01*
X167936613Y-109565503D01*
X167227418Y-109859261D01*
X167067635Y-110178030D01*
X168402000Y-111512395D01*
X169736365Y-110178030D01*
X169736365Y-110537240D01*
X168581605Y-111692000D01*
X169915970Y-113026365D01*
X170234739Y-112866582D01*
X170511000Y-112161840D01*
X170511000Y-114202921D01*
X170511000Y-114202921D01*
G37*
X170511000Y-114202921D02*
X170440327Y-114032302D01*
X170261699Y-113853673D01*
X170028310Y-113757000D01*
X169775691Y-113757000D01*
X169015853Y-113757000D01*
X169576582Y-113524739D01*
X169736365Y-113205970D01*
X168402000Y-111871605D01*
X168222395Y-112051210D01*
X168222395Y-111692000D01*
X166888030Y-110357635D01*
X166569261Y-110517418D01*
X166259277Y-111308187D01*
X166275503Y-112157387D01*
X166569261Y-112866582D01*
X166888030Y-113026365D01*
X168222395Y-111692000D01*
X168222395Y-112051210D01*
X167067635Y-113205970D01*
X167227418Y-113524739D01*
X167819915Y-113757000D01*
X166775691Y-113757000D01*
X166771444Y-113758758D01*
X164428343Y-111415657D01*
X163979017Y-111115427D01*
X163790977Y-111078023D01*
X163790977Y-102587903D01*
X163764389Y-102002431D01*
X163591490Y-101585017D01*
X163341413Y-101506192D01*
X162485605Y-102362000D01*
X163341413Y-103217808D01*
X163591490Y-103138983D01*
X163790977Y-102587903D01*
X163790977Y-111078023D01*
X163449000Y-111010000D01*
X163195000Y-111010000D01*
X163171240Y-111010000D01*
X163171240Y-108289211D01*
X163161808Y-108266383D01*
X163161808Y-103397413D01*
X162306000Y-102541605D01*
X161450192Y-103397413D01*
X161529017Y-103647490D01*
X162080097Y-103846977D01*
X162665569Y-103820389D01*
X163082983Y-103647490D01*
X163161808Y-103397413D01*
X163161808Y-108266383D01*
X162846910Y-107504273D01*
X162246886Y-106903200D01*
X161462515Y-106577501D01*
X160613211Y-106576760D01*
X159828273Y-106901090D01*
X159227200Y-107501114D01*
X158901501Y-108285485D01*
X158900760Y-109134789D01*
X159225090Y-109919727D01*
X159825114Y-110520800D01*
X160609485Y-110846499D01*
X161458789Y-110847240D01*
X162243727Y-110522910D01*
X162844800Y-109922886D01*
X163170499Y-109138515D01*
X163171240Y-108289211D01*
X163171240Y-111010000D01*
X158115000Y-111010000D01*
X157584983Y-111115427D01*
X157135657Y-111415657D01*
X153096313Y-115455000D01*
X152338686Y-115455000D01*
X151791843Y-114908157D01*
X151347343Y-114463657D01*
X148959000Y-112075314D01*
X148959000Y-110940138D01*
X149098690Y-110998000D01*
X149229000Y-110998000D01*
X149229000Y-111251994D01*
X149228999Y-111252000D01*
X149285189Y-111534484D01*
X149296367Y-111590675D01*
X149488210Y-111877790D01*
X151320570Y-113710150D01*
X151320269Y-114056086D01*
X151522854Y-114546380D01*
X151897647Y-114921827D01*
X152387587Y-115125268D01*
X152918086Y-115125731D01*
X153408380Y-114923146D01*
X153783827Y-114548353D01*
X153987268Y-114058413D01*
X153987731Y-113527914D01*
X153785146Y-113037620D01*
X153410353Y-112662173D01*
X152920413Y-112458732D01*
X152572007Y-112458427D01*
X151111579Y-110998000D01*
X151129309Y-110998000D01*
X151362698Y-110901327D01*
X151541327Y-110722699D01*
X151638000Y-110489310D01*
X151638000Y-110236691D01*
X151638000Y-108458691D01*
X151541327Y-108225302D01*
X151499000Y-108182974D01*
X151499000Y-107696000D01*
X151393573Y-107165984D01*
X151393573Y-107165983D01*
X151093343Y-106716657D01*
X149823343Y-105446657D01*
X149437246Y-105188675D01*
X149852380Y-105017146D01*
X150227827Y-104642353D01*
X150431268Y-104152413D01*
X150431731Y-103621914D01*
X150342660Y-103406346D01*
X150785657Y-103849343D01*
X151234983Y-104149573D01*
X151234984Y-104149573D01*
X151765000Y-104255000D01*
X154305000Y-104255000D01*
X154835016Y-104149573D01*
X154835017Y-104149573D01*
X155284343Y-103849343D01*
X155384618Y-103749067D01*
X155384269Y-104150086D01*
X155586854Y-104640380D01*
X155961647Y-105015827D01*
X156451587Y-105219268D01*
X156982086Y-105219731D01*
X157472380Y-105017146D01*
X157718955Y-104771000D01*
X158241994Y-104771000D01*
X158242000Y-104771001D01*
X158242000Y-104771000D01*
X158524484Y-104714810D01*
X158580674Y-104703633D01*
X158580675Y-104703633D01*
X158867790Y-104511790D01*
X159544571Y-103835007D01*
X160057752Y-103835455D01*
X160599411Y-103611647D01*
X161014190Y-103197591D01*
X161036441Y-103144004D01*
X161270587Y-103217808D01*
X162126395Y-102362000D01*
X161270587Y-101506192D01*
X161036836Y-101579870D01*
X161015647Y-101528589D01*
X160601591Y-101113810D01*
X160520167Y-101080000D01*
X161527916Y-101080000D01*
X161450192Y-101326587D01*
X162306000Y-102182395D01*
X163161808Y-101326587D01*
X163084083Y-101080000D01*
X163891314Y-101080000D01*
X165585657Y-102774343D01*
X166034983Y-103074573D01*
X166034984Y-103074573D01*
X166140000Y-103095462D01*
X166140000Y-103421309D01*
X166236673Y-103654698D01*
X166415301Y-103833327D01*
X166648690Y-103930000D01*
X166901309Y-103930000D01*
X169901309Y-103930000D01*
X170134698Y-103833327D01*
X170313327Y-103654699D01*
X170410000Y-103421310D01*
X170410000Y-103168691D01*
X170410000Y-100168691D01*
X170313327Y-99935302D01*
X170134699Y-99756673D01*
X169901310Y-99660000D01*
X169648691Y-99660000D01*
X168888853Y-99660000D01*
X169449582Y-99427739D01*
X169609365Y-99108970D01*
X168275000Y-97774605D01*
X168095395Y-97954210D01*
X168095395Y-97595000D01*
X166761030Y-96260635D01*
X166442261Y-96420418D01*
X166132277Y-97211187D01*
X166148503Y-98060387D01*
X166442261Y-98769582D01*
X166761030Y-98929365D01*
X168095395Y-97595000D01*
X168095395Y-97954210D01*
X166940635Y-99108970D01*
X167100418Y-99427739D01*
X167692915Y-99660000D01*
X166648691Y-99660000D01*
X166464839Y-99736153D01*
X165444343Y-98715657D01*
X164995017Y-98415427D01*
X164465000Y-98310000D01*
X163790977Y-98310000D01*
X163790977Y-89125903D01*
X163764389Y-88540431D01*
X163591490Y-88123017D01*
X163341413Y-88044192D01*
X162485605Y-88900000D01*
X163341413Y-89755808D01*
X163591490Y-89676983D01*
X163790977Y-89125903D01*
X163790977Y-98310000D01*
X163161808Y-98310000D01*
X163161808Y-89935413D01*
X162306000Y-89079605D01*
X161450192Y-89935413D01*
X161529017Y-90185490D01*
X162080097Y-90384977D01*
X162665569Y-90358389D01*
X163082983Y-90185490D01*
X163161808Y-89935413D01*
X163161808Y-98310000D01*
X157480000Y-98310000D01*
X156949983Y-98415427D01*
X156500657Y-98715657D01*
X153731314Y-101485000D01*
X153511705Y-101485000D01*
X153783827Y-101213353D01*
X153987268Y-100723413D01*
X153987731Y-100192914D01*
X153785146Y-99702620D01*
X153410353Y-99327173D01*
X152920413Y-99123732D01*
X152572007Y-99123427D01*
X150999000Y-97550420D01*
X150999000Y-97536000D01*
X151129309Y-97536000D01*
X151362698Y-97439327D01*
X151541327Y-97260699D01*
X151638000Y-97027310D01*
X151638000Y-96774691D01*
X151638000Y-94996691D01*
X151541327Y-94763302D01*
X151362699Y-94584673D01*
X151129310Y-94488000D01*
X150876691Y-94488000D01*
X149098691Y-94488000D01*
X148865302Y-94584673D01*
X148686673Y-94763301D01*
X148626317Y-94909011D01*
X148438404Y-94720769D01*
X147878472Y-94488265D01*
X147272188Y-94487736D01*
X146711851Y-94719262D01*
X146303664Y-95126737D01*
X145898404Y-94720769D01*
X145338472Y-94488265D01*
X144732188Y-94487736D01*
X144171851Y-94719262D01*
X143887000Y-95003616D01*
X143887000Y-94996005D01*
X143887000Y-94996000D01*
X143887001Y-94996000D01*
X143819633Y-94657325D01*
X143627790Y-94370210D01*
X143627786Y-94370207D01*
X140325790Y-91068210D01*
X140325786Y-91068207D01*
X140071790Y-90814210D01*
X139784675Y-90622367D01*
X139728484Y-90611189D01*
X139446000Y-90554999D01*
X139445994Y-90555000D01*
X138846556Y-90555000D01*
X139001268Y-90182413D01*
X139001731Y-89651914D01*
X138799146Y-89161620D01*
X138424353Y-88786173D01*
X138045000Y-88628651D01*
X138045000Y-79614579D01*
X140325786Y-77333792D01*
X140325789Y-77333790D01*
X140325790Y-77333790D01*
X140517633Y-77046675D01*
X140585000Y-76708000D01*
X140585000Y-75184005D01*
X140585000Y-75184000D01*
X140585001Y-75184000D01*
X140528810Y-74901515D01*
X140517633Y-74845326D01*
X140517633Y-74845325D01*
X140325790Y-74558211D01*
X140325790Y-74558210D01*
X140325786Y-74558207D01*
X139569000Y-73801420D01*
X139569000Y-68713856D01*
X139598622Y-68684286D01*
X139763313Y-68287668D01*
X139763687Y-67858216D01*
X139599689Y-67461311D01*
X139296286Y-67157378D01*
X138899668Y-66992687D01*
X138470216Y-66992313D01*
X138299000Y-67063058D01*
X138299000Y-67052247D01*
X138532689Y-66955689D01*
X138836622Y-66652286D01*
X139001313Y-66255668D01*
X139001687Y-65826216D01*
X138837689Y-65429311D01*
X138534286Y-65125378D01*
X138137668Y-64960687D01*
X137708216Y-64960313D01*
X137311311Y-65124311D01*
X137283000Y-65152572D01*
X137283000Y-65024005D01*
X137283000Y-65024000D01*
X137283001Y-65024000D01*
X137223539Y-64725075D01*
X137223687Y-64556216D01*
X137152941Y-64385000D01*
X137159994Y-64385000D01*
X137160000Y-64385001D01*
X137160000Y-64385000D01*
X137442484Y-64328810D01*
X137498674Y-64317633D01*
X137498675Y-64317633D01*
X137785790Y-64125790D01*
X138602150Y-63309429D01*
X138948086Y-63309731D01*
X139438380Y-63107146D01*
X139813827Y-62732353D01*
X140017268Y-62242413D01*
X140017731Y-61711914D01*
X139815146Y-61221620D01*
X139440353Y-60846173D01*
X138950413Y-60642732D01*
X138419914Y-60642269D01*
X137929620Y-60844854D01*
X137554173Y-61219647D01*
X137350732Y-61709587D01*
X137350427Y-62057992D01*
X136793420Y-62615000D01*
X136777861Y-62615000D01*
X136804622Y-62588286D01*
X136969313Y-62191668D01*
X136969687Y-61762216D01*
X136805689Y-61365311D01*
X136502286Y-61061378D01*
X136164474Y-60921105D01*
X137023786Y-60061792D01*
X137023789Y-60061790D01*
X137023790Y-60061790D01*
X137215633Y-59774675D01*
X137283000Y-59436000D01*
X137283000Y-49293075D01*
X137660380Y-49137146D01*
X138035827Y-48762353D01*
X138239268Y-48272413D01*
X138239731Y-47741914D01*
X138037146Y-47251620D01*
X137662353Y-46876173D01*
X137172413Y-46672732D01*
X136641914Y-46672269D01*
X136303467Y-46812111D01*
X137023786Y-46091792D01*
X137023789Y-46091790D01*
X137023790Y-46091790D01*
X137215633Y-45804675D01*
X137283000Y-45466000D01*
X137283001Y-45466000D01*
X137283000Y-45465994D01*
X137283000Y-35036753D01*
X137527827Y-34792353D01*
X137731268Y-34302413D01*
X137731731Y-33771914D01*
X137529146Y-33281620D01*
X137154353Y-32906173D01*
X136664413Y-32702732D01*
X136133914Y-32702269D01*
X135993240Y-32760394D01*
X135993240Y-29295211D01*
X135668910Y-28510273D01*
X135068886Y-27909200D01*
X134284515Y-27583501D01*
X133435211Y-27582760D01*
X132650273Y-27907090D01*
X132049200Y-28507114D01*
X131723501Y-29291485D01*
X131722760Y-30140789D01*
X132047090Y-30925727D01*
X132647114Y-31526800D01*
X133431485Y-31852499D01*
X134280789Y-31853240D01*
X135065727Y-31528910D01*
X135666800Y-30928886D01*
X135992499Y-30144515D01*
X135993240Y-29295211D01*
X135993240Y-32760394D01*
X135643620Y-32904854D01*
X135268173Y-33279647D01*
X135064732Y-33769587D01*
X135064269Y-34300086D01*
X135266854Y-34790380D01*
X135513000Y-35036955D01*
X135513000Y-45099420D01*
X134502210Y-46110210D01*
X134310367Y-46397325D01*
X134302492Y-46436912D01*
X133983788Y-46118208D01*
X133696673Y-45926365D01*
X133640482Y-45915187D01*
X133357998Y-45858997D01*
X133357992Y-45858998D01*
X128136577Y-45858998D01*
X127885000Y-45607420D01*
X127885000Y-36180579D01*
X129403786Y-34661792D01*
X129403790Y-34661790D01*
X129403790Y-34661789D01*
X129595633Y-34374675D01*
X129595633Y-34374674D01*
X129606810Y-34318484D01*
X129663000Y-34036000D01*
X129663001Y-34036000D01*
X129663000Y-34035994D01*
X129663000Y-32899856D01*
X129692622Y-32870286D01*
X129857313Y-32473668D01*
X129857687Y-32044216D01*
X129693689Y-31647311D01*
X129390286Y-31343378D01*
X129052473Y-31203105D01*
X130165786Y-30089792D01*
X130165789Y-30089790D01*
X130165790Y-30089790D01*
X130357633Y-29802675D01*
X130425000Y-29464000D01*
X130425000Y-29089856D01*
X130454622Y-29060286D01*
X130619313Y-28663668D01*
X130619687Y-28234216D01*
X130455689Y-27837311D01*
X130255541Y-27636814D01*
X131778178Y-26114178D01*
X133006356Y-24886000D01*
X142240000Y-24886000D01*
X144155083Y-24886000D01*
X143742769Y-25297596D01*
X143510265Y-25857528D01*
X143509736Y-26463812D01*
X143741262Y-27024149D01*
X144149000Y-27432599D01*
X144149000Y-28335420D01*
X143337849Y-29146570D01*
X142991914Y-29146269D01*
X142501620Y-29348854D01*
X142126173Y-29723647D01*
X141922732Y-30213587D01*
X141922269Y-30744086D01*
X142124854Y-31234380D01*
X142499647Y-31609827D01*
X142989587Y-31813268D01*
X143133000Y-31813393D01*
X143133000Y-33035246D01*
X142888173Y-33279647D01*
X142684732Y-33769587D01*
X142684269Y-34300086D01*
X142886854Y-34790380D01*
X143261647Y-35165827D01*
X143751587Y-35369268D01*
X144282086Y-35369731D01*
X144772380Y-35167146D01*
X145147827Y-34792353D01*
X145351268Y-34302413D01*
X145351731Y-33771914D01*
X145149146Y-33281620D01*
X144903000Y-33035044D01*
X144903000Y-31242005D01*
X144903000Y-31242000D01*
X144903001Y-31242000D01*
X144846810Y-30959515D01*
X144835633Y-30903326D01*
X144835633Y-30903325D01*
X144643790Y-30616211D01*
X144643790Y-30616210D01*
X144643786Y-30616207D01*
X144589429Y-30561850D01*
X144589572Y-30398007D01*
X145659786Y-29327792D01*
X145659790Y-29327790D01*
X145659790Y-29327789D01*
X145851633Y-29040675D01*
X145851633Y-29040674D01*
X145862810Y-28984484D01*
X145919000Y-28702000D01*
X145919001Y-28702000D01*
X145919000Y-28701994D01*
X145919000Y-27431926D01*
X146189000Y-27162397D01*
X146189000Y-30734000D01*
X146294427Y-31264017D01*
X146594657Y-31713343D01*
X147583822Y-32702508D01*
X147309914Y-32702269D01*
X146819620Y-32904854D01*
X146444173Y-33279647D01*
X146240732Y-33769587D01*
X146240269Y-34300086D01*
X146442854Y-34790380D01*
X146817647Y-35165827D01*
X147307587Y-35369268D01*
X147838086Y-35369731D01*
X148328380Y-35167146D01*
X148703827Y-34792353D01*
X148907268Y-34302413D01*
X148907516Y-34017290D01*
X149329983Y-34299573D01*
X149329984Y-34299574D01*
X149860000Y-34405000D01*
X152400000Y-34405000D01*
X152930016Y-34299573D01*
X152930017Y-34299573D01*
X153379343Y-33999343D01*
X154039414Y-33339271D01*
X153860732Y-33769587D01*
X153860269Y-34300086D01*
X154062854Y-34790380D01*
X154437647Y-35165827D01*
X154927587Y-35369268D01*
X155458086Y-35369731D01*
X155948380Y-35167146D01*
X156194955Y-34921000D01*
X158496000Y-34921000D01*
X158546692Y-34921000D01*
X158546545Y-35089752D01*
X158770353Y-35631411D01*
X159184409Y-36046190D01*
X159725677Y-36270944D01*
X160311752Y-36271455D01*
X160853411Y-36047647D01*
X161268190Y-35633591D01*
X161290441Y-35580004D01*
X161524587Y-35653808D01*
X162380395Y-34798000D01*
X161524587Y-33942192D01*
X161290836Y-34015870D01*
X161269647Y-33964589D01*
X160855591Y-33549810D01*
X160314323Y-33325056D01*
X159755618Y-33324568D01*
X159755617Y-33324568D01*
X159596675Y-33218367D01*
X159540484Y-33207189D01*
X159258000Y-33150999D01*
X159257994Y-33151000D01*
X158496000Y-33151000D01*
X156194753Y-33151000D01*
X155950353Y-32906173D01*
X155460413Y-32702732D01*
X154929914Y-32702269D01*
X154497921Y-32880764D01*
X157223686Y-30155000D01*
X160425000Y-30155000D01*
X160425000Y-30396309D01*
X160521673Y-30629698D01*
X160700301Y-30808327D01*
X160933690Y-30905000D01*
X161186309Y-30905000D01*
X164186309Y-30905000D01*
X164419698Y-30808327D01*
X164598327Y-30629699D01*
X164695000Y-30396310D01*
X164695000Y-30143691D01*
X164695000Y-27143691D01*
X164598327Y-26910302D01*
X164419699Y-26731673D01*
X164186310Y-26635000D01*
X163933691Y-26635000D01*
X163173853Y-26635000D01*
X163734582Y-26402739D01*
X163894365Y-26083970D01*
X162560000Y-24749605D01*
X161225635Y-26083970D01*
X161385418Y-26402739D01*
X161977915Y-26635000D01*
X160933691Y-26635000D01*
X160700302Y-26731673D01*
X160521673Y-26910301D01*
X160425000Y-27143690D01*
X160425000Y-27385000D01*
X156650000Y-27385000D01*
X156119984Y-27490426D01*
X155670657Y-27790657D01*
X151826314Y-31635000D01*
X151572648Y-31635000D01*
X151630380Y-31611146D01*
X152005827Y-31236353D01*
X152209268Y-30746413D01*
X152209731Y-30215914D01*
X152007146Y-29725620D01*
X151632353Y-29350173D01*
X151142413Y-29146732D01*
X150999000Y-29146606D01*
X150999000Y-27686000D01*
X151129309Y-27686000D01*
X151362698Y-27589327D01*
X151541327Y-27410699D01*
X151638000Y-27177310D01*
X151638000Y-26924691D01*
X151638000Y-25146691D01*
X151541327Y-24913302D01*
X151514025Y-24886000D01*
X159512000Y-24886000D01*
X159898510Y-24809118D01*
X160226178Y-24590178D01*
X160421268Y-24395087D01*
X160433503Y-25035387D01*
X160727261Y-25744582D01*
X161046030Y-25904365D01*
X162380395Y-24570000D01*
X162366252Y-24555857D01*
X162545857Y-24376252D01*
X162560000Y-24390395D01*
X162574142Y-24376252D01*
X162753747Y-24555857D01*
X162739605Y-24570000D01*
X164073970Y-25904365D01*
X164392739Y-25744582D01*
X164598000Y-25220961D01*
X164598000Y-25400000D01*
X164674882Y-25786510D01*
X164893822Y-26114178D01*
X167433822Y-28654178D01*
X167761489Y-28873118D01*
X167761490Y-28873118D01*
X168005790Y-28921712D01*
X168153647Y-29069827D01*
X168338295Y-29146500D01*
X168337809Y-29146500D01*
X168085190Y-29146500D01*
X167851801Y-29243173D01*
X167673173Y-29421802D01*
X167576500Y-29655191D01*
X167576500Y-30194250D01*
X167735250Y-30353000D01*
X168783000Y-30353000D01*
X168783000Y-30333000D01*
X169037000Y-30333000D01*
X169037000Y-30353000D01*
X170084750Y-30353000D01*
X170243500Y-30194250D01*
X170243500Y-29655191D01*
X170146827Y-29421802D01*
X169968199Y-29243173D01*
X169734810Y-29146500D01*
X169482191Y-29146500D01*
X169482009Y-29146500D01*
X169664380Y-29071146D01*
X170039827Y-28696353D01*
X170243268Y-28206413D01*
X170243731Y-27675914D01*
X170041146Y-27185620D01*
X169666353Y-26810173D01*
X169328553Y-26669906D01*
X169664380Y-26531146D01*
X170039827Y-26156353D01*
X170243268Y-25666413D01*
X170243731Y-25135914D01*
X170041146Y-24645620D01*
X169666353Y-24270173D01*
X169328553Y-24129906D01*
X169664380Y-23991146D01*
X170039827Y-23616353D01*
X170243268Y-23126413D01*
X170243731Y-22595914D01*
X170041146Y-22105620D01*
X169666353Y-21730173D01*
X169176413Y-21526732D01*
X168645914Y-21526269D01*
X168155620Y-21728854D01*
X167957854Y-21926275D01*
X165512579Y-19481000D01*
X170511000Y-19481000D01*
X170511000Y-39048371D01*
X170243500Y-38402568D01*
X170243500Y-31304809D01*
X170243500Y-30765750D01*
X170084750Y-30607000D01*
X169037000Y-30607000D01*
X169037000Y-31654750D01*
X169195750Y-31813500D01*
X169482191Y-31813500D01*
X169734810Y-31813500D01*
X169968199Y-31716827D01*
X170146827Y-31538198D01*
X170243500Y-31304809D01*
X170243500Y-38402568D01*
X170234739Y-38381418D01*
X169915970Y-38221635D01*
X169736365Y-38401240D01*
X169736365Y-38042030D01*
X169576582Y-37723261D01*
X168785813Y-37413277D01*
X168783000Y-37413330D01*
X168783000Y-31654750D01*
X168783000Y-30607000D01*
X167735250Y-30607000D01*
X167576500Y-30765750D01*
X167576500Y-31304809D01*
X167673173Y-31538198D01*
X167851801Y-31716827D01*
X168085190Y-31813500D01*
X168337809Y-31813500D01*
X168624250Y-31813500D01*
X168783000Y-31654750D01*
X168783000Y-37413330D01*
X167936613Y-37429503D01*
X167227418Y-37723261D01*
X167067635Y-38042030D01*
X168402000Y-39376395D01*
X169736365Y-38042030D01*
X169736365Y-38401240D01*
X168581605Y-39556000D01*
X169915970Y-40890365D01*
X170234739Y-40730582D01*
X170511000Y-40025840D01*
X170511000Y-42066921D01*
X170440327Y-41896302D01*
X170261699Y-41717673D01*
X170028310Y-41621000D01*
X169775691Y-41621000D01*
X169015853Y-41621000D01*
X169576582Y-41388739D01*
X169736365Y-41069970D01*
X168402000Y-39735605D01*
X168222395Y-39915210D01*
X168222395Y-39556000D01*
X166888030Y-38221635D01*
X166569261Y-38381418D01*
X166259277Y-39172187D01*
X166275503Y-40021387D01*
X166569261Y-40730582D01*
X166888030Y-40890365D01*
X168222395Y-39556000D01*
X168222395Y-39915210D01*
X167067635Y-41069970D01*
X167227418Y-41388739D01*
X167819915Y-41621000D01*
X166775691Y-41621000D01*
X166542302Y-41717673D01*
X166363673Y-41896301D01*
X166267000Y-42129690D01*
X166267000Y-42382309D01*
X166267000Y-43932314D01*
X165864314Y-44335000D01*
X164044977Y-44335000D01*
X164044977Y-35023903D01*
X164018389Y-34438431D01*
X163845490Y-34021017D01*
X163595413Y-33942192D01*
X163415808Y-34121797D01*
X163415808Y-33762587D01*
X163336983Y-33512510D01*
X162785903Y-33313023D01*
X162200431Y-33339611D01*
X161783017Y-33512510D01*
X161704192Y-33762587D01*
X162560000Y-34618395D01*
X163415808Y-33762587D01*
X163415808Y-34121797D01*
X162739605Y-34798000D01*
X163595413Y-35653808D01*
X163845490Y-35574983D01*
X164044977Y-35023903D01*
X164044977Y-44335000D01*
X163679240Y-44335000D01*
X163679240Y-40979211D01*
X163415808Y-40341657D01*
X163415808Y-35833413D01*
X162560000Y-34977605D01*
X161704192Y-35833413D01*
X161783017Y-36083490D01*
X162334097Y-36282977D01*
X162919569Y-36256389D01*
X163336983Y-36083490D01*
X163415808Y-35833413D01*
X163415808Y-40341657D01*
X163354910Y-40194273D01*
X162754886Y-39593200D01*
X161970515Y-39267501D01*
X161121211Y-39266760D01*
X160336273Y-39591090D01*
X159735200Y-40191114D01*
X159409501Y-40975485D01*
X159408760Y-41824789D01*
X159733090Y-42609727D01*
X160333114Y-43210800D01*
X161117485Y-43536499D01*
X161966789Y-43537240D01*
X162751727Y-43212910D01*
X163352800Y-42612886D01*
X163678499Y-41828515D01*
X163679240Y-40979211D01*
X163679240Y-44335000D01*
X155194000Y-44335000D01*
X154663983Y-44440427D01*
X154214657Y-44740657D01*
X153350314Y-45605000D01*
X153096648Y-45605000D01*
X153154380Y-45581146D01*
X153529827Y-45206353D01*
X153733268Y-44716413D01*
X153733731Y-44185914D01*
X153531146Y-43695620D01*
X153156353Y-43320173D01*
X152666413Y-43116732D01*
X152318007Y-43116427D01*
X150999000Y-41797420D01*
X150999000Y-41656000D01*
X151129309Y-41656000D01*
X151362698Y-41559327D01*
X151541327Y-41380699D01*
X151638000Y-41147310D01*
X151638000Y-40894691D01*
X151638000Y-39116691D01*
X151541327Y-38883302D01*
X151362699Y-38704673D01*
X151129310Y-38608000D01*
X150876691Y-38608000D01*
X149098691Y-38608000D01*
X148865302Y-38704673D01*
X148686673Y-38883301D01*
X148626317Y-39029011D01*
X148438404Y-38840769D01*
X147878472Y-38608265D01*
X147272188Y-38607736D01*
X146711851Y-38839262D01*
X146303664Y-39246737D01*
X145898404Y-38840769D01*
X145338472Y-38608265D01*
X144732188Y-38607736D01*
X144171851Y-38839262D01*
X143742769Y-39267596D01*
X143510265Y-39827528D01*
X143509736Y-40433812D01*
X143741262Y-40994149D01*
X143895000Y-41148155D01*
X143895000Y-43449246D01*
X143650173Y-43693647D01*
X143446732Y-44183587D01*
X143446269Y-44714086D01*
X143641000Y-45185371D01*
X143641000Y-47005246D01*
X143396173Y-47249647D01*
X143192732Y-47739587D01*
X143192269Y-48270086D01*
X143394854Y-48760380D01*
X143769647Y-49135827D01*
X144259587Y-49339268D01*
X144790086Y-49339731D01*
X145280380Y-49137146D01*
X145655827Y-48762353D01*
X145859268Y-48272413D01*
X145859731Y-47741914D01*
X145657146Y-47251620D01*
X145411000Y-47005044D01*
X145411000Y-45632125D01*
X145534380Y-45581146D01*
X145909827Y-45206353D01*
X146113268Y-44716413D01*
X146113731Y-44185914D01*
X145911146Y-43695620D01*
X145665000Y-43449044D01*
X145665000Y-41520246D01*
X145896149Y-41424738D01*
X146189000Y-41132397D01*
X146189000Y-43434000D01*
X146294427Y-43964017D01*
X146594657Y-44413343D01*
X148508867Y-46327553D01*
X148163849Y-46672570D01*
X147817914Y-46672269D01*
X147327620Y-46874854D01*
X146952173Y-47249647D01*
X146748732Y-47739587D01*
X146748269Y-48270086D01*
X146950854Y-48760380D01*
X147325647Y-49135827D01*
X147815587Y-49339268D01*
X148346086Y-49339731D01*
X148836380Y-49137146D01*
X149211827Y-48762353D01*
X149415268Y-48272413D01*
X149415572Y-47924007D01*
X149760446Y-47579132D01*
X150150657Y-47969343D01*
X150599983Y-48269573D01*
X150599984Y-48269573D01*
X151130000Y-48375000D01*
X153670000Y-48375000D01*
X153924000Y-48375000D01*
X154374585Y-48285372D01*
X154570854Y-48760380D01*
X154945647Y-49135827D01*
X155435587Y-49339268D01*
X155966086Y-49339731D01*
X156456380Y-49137146D01*
X156702955Y-48891000D01*
X158567852Y-48891000D01*
X158930409Y-49254190D01*
X159471677Y-49478944D01*
X160057752Y-49479455D01*
X160599411Y-49255647D01*
X161014190Y-48841591D01*
X161036441Y-48788004D01*
X161270587Y-48861808D01*
X162126395Y-48006000D01*
X162112252Y-47991857D01*
X162291857Y-47812252D01*
X162306000Y-47826395D01*
X162320142Y-47812252D01*
X162499747Y-47991857D01*
X162485605Y-48006000D01*
X163341413Y-48861808D01*
X163591490Y-48782983D01*
X163790977Y-48231903D01*
X163764389Y-47646431D01*
X163591490Y-47229017D01*
X163341415Y-47150192D01*
X163386607Y-47105000D01*
X166438000Y-47105000D01*
X166968016Y-46999573D01*
X166968017Y-46999573D01*
X167417343Y-46699343D01*
X168225686Y-45891000D01*
X170028309Y-45891000D01*
X170261698Y-45794327D01*
X170440327Y-45615699D01*
X170511000Y-45445079D01*
X170511000Y-111184371D01*
X170417723Y-110959180D01*
X170417723Y-97978813D01*
X170417723Y-83373813D01*
X170417723Y-68768813D01*
X170417723Y-54163813D01*
X170401497Y-53314613D01*
X170107739Y-52605418D01*
X169788970Y-52445635D01*
X169609365Y-52625240D01*
X169609365Y-52266030D01*
X169449582Y-51947261D01*
X168658813Y-51637277D01*
X167809613Y-51653503D01*
X167100418Y-51947261D01*
X166940635Y-52266030D01*
X168275000Y-53600395D01*
X169609365Y-52266030D01*
X169609365Y-52625240D01*
X168454605Y-53780000D01*
X169788970Y-55114365D01*
X170107739Y-54954582D01*
X170417723Y-54163813D01*
X170417723Y-68768813D01*
X170410000Y-68364623D01*
X170410000Y-59606310D01*
X170410000Y-59353691D01*
X170410000Y-56353691D01*
X170313327Y-56120302D01*
X170134699Y-55941673D01*
X169901310Y-55845000D01*
X169648691Y-55845000D01*
X168888853Y-55845000D01*
X169449582Y-55612739D01*
X169609365Y-55293970D01*
X168275000Y-53959605D01*
X168095395Y-54139210D01*
X168095395Y-53780000D01*
X166761030Y-52445635D01*
X166442261Y-52605418D01*
X166132277Y-53396187D01*
X166148503Y-54245387D01*
X166442261Y-54954582D01*
X166761030Y-55114365D01*
X168095395Y-53780000D01*
X168095395Y-54139210D01*
X166940635Y-55293970D01*
X167100418Y-55612739D01*
X167692915Y-55845000D01*
X166648691Y-55845000D01*
X166415302Y-55941673D01*
X166236673Y-56120301D01*
X166140000Y-56353690D01*
X166140000Y-56595000D01*
X163790977Y-56595000D01*
X163161808Y-56595000D01*
X163161808Y-49041413D01*
X162306000Y-48185605D01*
X161450192Y-49041413D01*
X161529017Y-49291490D01*
X162080097Y-49490977D01*
X162665569Y-49464389D01*
X163082983Y-49291490D01*
X163161808Y-49041413D01*
X163161808Y-56595000D01*
X157920000Y-56595000D01*
X157389983Y-56700427D01*
X156940657Y-57000657D01*
X154366314Y-59575000D01*
X153511705Y-59575000D01*
X153783827Y-59303353D01*
X153987268Y-58813413D01*
X153987731Y-58282914D01*
X153785146Y-57792620D01*
X153410353Y-57417173D01*
X152920413Y-57213732D01*
X152572007Y-57213427D01*
X150999000Y-55640420D01*
X150999000Y-55626000D01*
X151129309Y-55626000D01*
X151362698Y-55529327D01*
X151541327Y-55350699D01*
X151638000Y-55117310D01*
X151638000Y-54864691D01*
X151638000Y-53086691D01*
X151541327Y-52853302D01*
X151362699Y-52674673D01*
X151129310Y-52578000D01*
X150876691Y-52578000D01*
X149098691Y-52578000D01*
X148865302Y-52674673D01*
X148686673Y-52853301D01*
X148626317Y-52999011D01*
X148438404Y-52810769D01*
X147878472Y-52578265D01*
X147272188Y-52577736D01*
X146711851Y-52809262D01*
X146303664Y-53216737D01*
X145898404Y-52810769D01*
X145338472Y-52578265D01*
X144732188Y-52577736D01*
X144171851Y-52809262D01*
X143742769Y-53237596D01*
X143510265Y-53797528D01*
X143509736Y-54403812D01*
X143741262Y-54964149D01*
X144149000Y-55372599D01*
X144149000Y-57546246D01*
X143904173Y-57790647D01*
X143700732Y-58280587D01*
X143700269Y-58811086D01*
X143902854Y-59301380D01*
X144149000Y-59547955D01*
X144149000Y-60705994D01*
X144148999Y-60706000D01*
X144205189Y-60988484D01*
X144216367Y-61044675D01*
X144408210Y-61331790D01*
X144970570Y-61894150D01*
X144970269Y-62240086D01*
X145172854Y-62730380D01*
X145547647Y-63105827D01*
X146037587Y-63309268D01*
X146568086Y-63309731D01*
X147058380Y-63107146D01*
X147433827Y-62732353D01*
X147637268Y-62242413D01*
X147637731Y-61711914D01*
X147435146Y-61221620D01*
X147060353Y-60846173D01*
X146570413Y-60642732D01*
X146222007Y-60642427D01*
X145919000Y-60339420D01*
X145919000Y-59547753D01*
X146163827Y-59303353D01*
X146367268Y-58813413D01*
X146367731Y-58282914D01*
X146165146Y-57792620D01*
X145919000Y-57546044D01*
X145919000Y-55371926D01*
X146189000Y-55102397D01*
X146189000Y-56769000D01*
X146294427Y-57299017D01*
X146594657Y-57748343D01*
X149488711Y-60642397D01*
X149341914Y-60642269D01*
X148851620Y-60844854D01*
X148476173Y-61219647D01*
X148272732Y-61709587D01*
X148272269Y-62240086D01*
X148474854Y-62730380D01*
X148849647Y-63105827D01*
X149339587Y-63309268D01*
X149870086Y-63309731D01*
X150360380Y-63107146D01*
X150735827Y-62732353D01*
X150939268Y-62242413D01*
X150939442Y-62042099D01*
X151234983Y-62239573D01*
X151234984Y-62239574D01*
X151765000Y-62345000D01*
X154940000Y-62345000D01*
X155470016Y-62239573D01*
X155470017Y-62239573D01*
X155892515Y-61957268D01*
X155892269Y-62240086D01*
X156094854Y-62730380D01*
X156469647Y-63105827D01*
X156959587Y-63309268D01*
X157490086Y-63309731D01*
X157980380Y-63107146D01*
X158226955Y-62861000D01*
X159329852Y-62861000D01*
X159692409Y-63224190D01*
X160233677Y-63448944D01*
X160819752Y-63449455D01*
X161361411Y-63225647D01*
X161776190Y-62811591D01*
X161798441Y-62758004D01*
X162032587Y-62831808D01*
X162888395Y-61976000D01*
X162032587Y-61120192D01*
X161798836Y-61193870D01*
X161777647Y-61142589D01*
X161363591Y-60727810D01*
X160822323Y-60503056D01*
X160236248Y-60502545D01*
X159694589Y-60726353D01*
X159329305Y-61091000D01*
X158226753Y-61091000D01*
X157982353Y-60846173D01*
X157492413Y-60642732D01*
X157216195Y-60642490D01*
X158493685Y-59365000D01*
X166140000Y-59365000D01*
X166140000Y-59606309D01*
X166236673Y-59839698D01*
X166415301Y-60018327D01*
X166648690Y-60115000D01*
X166901309Y-60115000D01*
X169901309Y-60115000D01*
X170134698Y-60018327D01*
X170313327Y-59839699D01*
X170410000Y-59606310D01*
X170410000Y-68364623D01*
X170401497Y-67919613D01*
X170107739Y-67210418D01*
X169788970Y-67050635D01*
X169609365Y-67230240D01*
X169609365Y-66871030D01*
X169449582Y-66552261D01*
X168658813Y-66242277D01*
X167809613Y-66258503D01*
X167100418Y-66552261D01*
X166940635Y-66871030D01*
X168275000Y-68205395D01*
X169609365Y-66871030D01*
X169609365Y-67230240D01*
X168454605Y-68385000D01*
X169788970Y-69719365D01*
X170107739Y-69559582D01*
X170417723Y-68768813D01*
X170417723Y-83373813D01*
X170410000Y-82969623D01*
X170410000Y-74211310D01*
X170410000Y-73958691D01*
X170410000Y-70958691D01*
X170313327Y-70725302D01*
X170134699Y-70546673D01*
X169901310Y-70450000D01*
X169648691Y-70450000D01*
X168888853Y-70450000D01*
X169449582Y-70217739D01*
X169609365Y-69898970D01*
X168275000Y-68564605D01*
X168095395Y-68744210D01*
X168095395Y-68385000D01*
X166761030Y-67050635D01*
X166442261Y-67210418D01*
X166132277Y-68001187D01*
X166148503Y-68850387D01*
X166442261Y-69559582D01*
X166761030Y-69719365D01*
X168095395Y-68385000D01*
X168095395Y-68744210D01*
X166940635Y-69898970D01*
X167100418Y-70217739D01*
X167692915Y-70450000D01*
X166648691Y-70450000D01*
X166415302Y-70546673D01*
X166236673Y-70725301D01*
X166140000Y-70958690D01*
X166140000Y-71005000D01*
X164552977Y-71005000D01*
X164552977Y-62201903D01*
X164526389Y-61616431D01*
X164353490Y-61199017D01*
X164103413Y-61120192D01*
X163923808Y-61299797D01*
X163923808Y-60940587D01*
X163844983Y-60690510D01*
X163293903Y-60491023D01*
X162708431Y-60517611D01*
X162291017Y-60690510D01*
X162212192Y-60940587D01*
X163068000Y-61796395D01*
X163923808Y-60940587D01*
X163923808Y-61299797D01*
X163247605Y-61976000D01*
X164103413Y-62831808D01*
X164353490Y-62752983D01*
X164552977Y-62201903D01*
X164552977Y-71005000D01*
X163923808Y-71005000D01*
X163923808Y-63011413D01*
X163068000Y-62155605D01*
X162212192Y-63011413D01*
X162291017Y-63261490D01*
X162842097Y-63460977D01*
X163427569Y-63434389D01*
X163844983Y-63261490D01*
X163923808Y-63011413D01*
X163923808Y-71005000D01*
X156845000Y-71005000D01*
X156314983Y-71110427D01*
X155865657Y-71410657D01*
X153731314Y-73545000D01*
X153511705Y-73545000D01*
X153783827Y-73273353D01*
X153987268Y-72783413D01*
X153987731Y-72252914D01*
X153785146Y-71762620D01*
X153410353Y-71387173D01*
X152920413Y-71183732D01*
X152572007Y-71183427D01*
X150999000Y-69610420D01*
X150999000Y-69596000D01*
X151129309Y-69596000D01*
X151362698Y-69499327D01*
X151541327Y-69320699D01*
X151638000Y-69087310D01*
X151638000Y-68834691D01*
X151638000Y-67056691D01*
X151541327Y-66823302D01*
X151362699Y-66644673D01*
X151129310Y-66548000D01*
X150876691Y-66548000D01*
X149098691Y-66548000D01*
X148865302Y-66644673D01*
X148686673Y-66823301D01*
X148626317Y-66969011D01*
X148438404Y-66780769D01*
X147878472Y-66548265D01*
X147272188Y-66547736D01*
X146711851Y-66779262D01*
X146303664Y-67186737D01*
X145898404Y-66780769D01*
X145338472Y-66548265D01*
X144732188Y-66547736D01*
X144171851Y-66779262D01*
X143742769Y-67207596D01*
X143510265Y-67767528D01*
X143509736Y-68373812D01*
X143741262Y-68934149D01*
X144149000Y-69342599D01*
X144149000Y-71516246D01*
X143904173Y-71760647D01*
X143700732Y-72250587D01*
X143700269Y-72781086D01*
X143902854Y-73271380D01*
X144149000Y-73517955D01*
X144149000Y-75437994D01*
X144148999Y-75438000D01*
X144205189Y-75720484D01*
X144208680Y-75738034D01*
X144208680Y-75738035D01*
X144208269Y-76210086D01*
X144410854Y-76700380D01*
X144785647Y-77075827D01*
X145275587Y-77279268D01*
X145806086Y-77279731D01*
X146296380Y-77077146D01*
X146671827Y-76702353D01*
X146875268Y-76212413D01*
X146875731Y-75681914D01*
X146673146Y-75191620D01*
X146298353Y-74816173D01*
X145919000Y-74658651D01*
X145919000Y-73517753D01*
X146163827Y-73273353D01*
X146367268Y-72783413D01*
X146367731Y-72252914D01*
X146165146Y-71762620D01*
X145919000Y-71516044D01*
X145919000Y-69341926D01*
X146189000Y-69072397D01*
X146189000Y-70739000D01*
X146294427Y-71269017D01*
X146594657Y-71718343D01*
X149334367Y-74458053D01*
X149179849Y-74612570D01*
X148833914Y-74612269D01*
X148343620Y-74814854D01*
X147968173Y-75189647D01*
X147764732Y-75679587D01*
X147764269Y-76210086D01*
X147966854Y-76700380D01*
X148341647Y-77075827D01*
X148831587Y-77279268D01*
X149362086Y-77279731D01*
X149852380Y-77077146D01*
X150227827Y-76702353D01*
X150431268Y-76212413D01*
X150431572Y-75864007D01*
X150585946Y-75709632D01*
X150785657Y-75909343D01*
X151234983Y-76209573D01*
X151234984Y-76209574D01*
X151765000Y-76315000D01*
X154305000Y-76315000D01*
X154835016Y-76209573D01*
X154835017Y-76209573D01*
X155284343Y-75909343D01*
X155384618Y-75809067D01*
X155384269Y-76210086D01*
X155586854Y-76700380D01*
X155961647Y-77075827D01*
X156451587Y-77279268D01*
X156982086Y-77279731D01*
X157472380Y-77077146D01*
X157718955Y-76831000D01*
X159257994Y-76831000D01*
X159258000Y-76831001D01*
X159258000Y-76831000D01*
X159540484Y-76774810D01*
X159596674Y-76763633D01*
X159596675Y-76763633D01*
X159756306Y-76656970D01*
X159756307Y-76656970D01*
X160311752Y-76657455D01*
X160853411Y-76433647D01*
X161268190Y-76019591D01*
X161290441Y-75966004D01*
X161524587Y-76039808D01*
X162380395Y-75184000D01*
X161524587Y-74328192D01*
X161290836Y-74401870D01*
X161269647Y-74350589D01*
X160855591Y-73935810D01*
X160468317Y-73775000D01*
X162081195Y-73775000D01*
X161783017Y-73898510D01*
X161704192Y-74148587D01*
X162560000Y-75004395D01*
X163415808Y-74148587D01*
X163336983Y-73898510D01*
X162995788Y-73775000D01*
X166140000Y-73775000D01*
X166140000Y-74211309D01*
X166236673Y-74444698D01*
X166415301Y-74623327D01*
X166648690Y-74720000D01*
X166901309Y-74720000D01*
X169901309Y-74720000D01*
X170134698Y-74623327D01*
X170313327Y-74444699D01*
X170410000Y-74211310D01*
X170410000Y-82969623D01*
X170401497Y-82524613D01*
X170107739Y-81815418D01*
X169788970Y-81655635D01*
X169609365Y-81835240D01*
X169609365Y-81476030D01*
X169449582Y-81157261D01*
X168658813Y-80847277D01*
X167809613Y-80863503D01*
X167100418Y-81157261D01*
X166940635Y-81476030D01*
X168275000Y-82810395D01*
X169609365Y-81476030D01*
X169609365Y-81835240D01*
X168454605Y-82990000D01*
X169788970Y-84324365D01*
X170107739Y-84164582D01*
X170417723Y-83373813D01*
X170417723Y-97978813D01*
X170410000Y-97574623D01*
X170410000Y-88816310D01*
X170410000Y-88563691D01*
X170410000Y-85563691D01*
X170313327Y-85330302D01*
X170134699Y-85151673D01*
X169901310Y-85055000D01*
X169648691Y-85055000D01*
X168888853Y-85055000D01*
X169449582Y-84822739D01*
X169609365Y-84503970D01*
X168275000Y-83169605D01*
X168095395Y-83349210D01*
X168095395Y-82990000D01*
X166761030Y-81655635D01*
X166442261Y-81815418D01*
X166132277Y-82606187D01*
X166148503Y-83455387D01*
X166442261Y-84164582D01*
X166761030Y-84324365D01*
X168095395Y-82990000D01*
X168095395Y-83349210D01*
X166940635Y-84503970D01*
X167100418Y-84822739D01*
X167533993Y-84992701D01*
X167445000Y-84975000D01*
X164044977Y-84975000D01*
X164044977Y-75409903D01*
X164018389Y-74824431D01*
X163845490Y-74407017D01*
X163595413Y-74328192D01*
X162739605Y-75184000D01*
X163595413Y-76039808D01*
X163845490Y-75960983D01*
X164044977Y-75409903D01*
X164044977Y-84975000D01*
X163415808Y-84975000D01*
X163415808Y-76219413D01*
X162560000Y-75363605D01*
X161704192Y-76219413D01*
X161783017Y-76469490D01*
X162334097Y-76668977D01*
X162919569Y-76642389D01*
X163336983Y-76469490D01*
X163415808Y-76219413D01*
X163415808Y-84975000D01*
X156210000Y-84975000D01*
X155679983Y-85080427D01*
X155230657Y-85380657D01*
X153096314Y-87515000D01*
X152461648Y-87515000D01*
X152519380Y-87491146D01*
X152894827Y-87116353D01*
X153098268Y-86626413D01*
X153098731Y-86095914D01*
X152896146Y-85605620D01*
X152521353Y-85230173D01*
X152031413Y-85026732D01*
X151683007Y-85026427D01*
X150999000Y-84342420D01*
X150999000Y-83566000D01*
X151129309Y-83566000D01*
X151362698Y-83469327D01*
X151541327Y-83290699D01*
X151638000Y-83057310D01*
X151638000Y-82804691D01*
X151638000Y-81026691D01*
X151541327Y-80793302D01*
X151362699Y-80614673D01*
X151129310Y-80518000D01*
X150876691Y-80518000D01*
X149098691Y-80518000D01*
X148865302Y-80614673D01*
X148686673Y-80793301D01*
X148626317Y-80939011D01*
X148438404Y-80750769D01*
X147878472Y-80518265D01*
X147272188Y-80517736D01*
X146711851Y-80749262D01*
X146303664Y-81156737D01*
X145898404Y-80750769D01*
X145338472Y-80518265D01*
X144732188Y-80517736D01*
X144171851Y-80749262D01*
X143742769Y-81177596D01*
X143510265Y-81737528D01*
X143509757Y-82319356D01*
X143509757Y-82319357D01*
X143327367Y-82592325D01*
X143316189Y-82648515D01*
X143259999Y-82931000D01*
X143260000Y-82931005D01*
X143260000Y-85359246D01*
X143015173Y-85603647D01*
X142811732Y-86093587D01*
X142811269Y-86624086D01*
X143013854Y-87114380D01*
X143260000Y-87360955D01*
X143260000Y-88772994D01*
X143259999Y-88773000D01*
X143316189Y-89055484D01*
X143327367Y-89111675D01*
X143519210Y-89398790D01*
X143954570Y-89834150D01*
X143954269Y-90180086D01*
X144156854Y-90670380D01*
X144531647Y-91045827D01*
X145021587Y-91249268D01*
X145552086Y-91249731D01*
X146042380Y-91047146D01*
X146417827Y-90672353D01*
X146621268Y-90182413D01*
X146621731Y-89651914D01*
X146419146Y-89161620D01*
X146044353Y-88786173D01*
X145554413Y-88582732D01*
X145206007Y-88582427D01*
X145030000Y-88406420D01*
X145030000Y-87360753D01*
X145274827Y-87116353D01*
X145478268Y-86626413D01*
X145478731Y-86095914D01*
X145276146Y-85605620D01*
X145030000Y-85359044D01*
X145030000Y-83565997D01*
X145335812Y-83566264D01*
X145896149Y-83334738D01*
X146189000Y-83042397D01*
X146189000Y-85344000D01*
X146294427Y-85874017D01*
X146594657Y-86323343D01*
X148572367Y-88301053D01*
X148218210Y-88655210D01*
X148147589Y-88760901D01*
X148089620Y-88784854D01*
X147714173Y-89159647D01*
X147510732Y-89649587D01*
X147510269Y-90180086D01*
X147712854Y-90670380D01*
X148087647Y-91045827D01*
X148577587Y-91249268D01*
X149108086Y-91249731D01*
X149598380Y-91047146D01*
X149973827Y-90672353D01*
X150177268Y-90182413D01*
X150177516Y-89897290D01*
X150599983Y-90179573D01*
X150599984Y-90179573D01*
X151130000Y-90285000D01*
X153670000Y-90285000D01*
X154200016Y-90179573D01*
X154200017Y-90179573D01*
X154649343Y-89879343D01*
X155309414Y-89219271D01*
X155130732Y-89649587D01*
X155130269Y-90180086D01*
X155332854Y-90670380D01*
X155707647Y-91045827D01*
X156197587Y-91249268D01*
X156728086Y-91249731D01*
X157218380Y-91047146D01*
X157464955Y-90801000D01*
X158749994Y-90801000D01*
X158750000Y-90801001D01*
X158750000Y-90801000D01*
X159032484Y-90744810D01*
X159088674Y-90733633D01*
X159088675Y-90733633D01*
X159375790Y-90541790D01*
X159544572Y-90373007D01*
X160057752Y-90373455D01*
X160599411Y-90149647D01*
X161014190Y-89735591D01*
X161036441Y-89682004D01*
X161270587Y-89755808D01*
X162126395Y-88900000D01*
X161270587Y-88044192D01*
X161036836Y-88117870D01*
X161015647Y-88066589D01*
X160694618Y-87745000D01*
X161487886Y-87745000D01*
X161450192Y-87864587D01*
X162306000Y-88720395D01*
X163161808Y-87864587D01*
X163124113Y-87745000D01*
X166140000Y-87745000D01*
X166140000Y-88816309D01*
X166236673Y-89049698D01*
X166415301Y-89228327D01*
X166648690Y-89325000D01*
X166901309Y-89325000D01*
X169901309Y-89325000D01*
X170134698Y-89228327D01*
X170313327Y-89049699D01*
X170410000Y-88816310D01*
X170410000Y-97574623D01*
X170401497Y-97129613D01*
X170107739Y-96420418D01*
X169788970Y-96260635D01*
X169609365Y-96440240D01*
X169609365Y-96081030D01*
X169449582Y-95762261D01*
X168658813Y-95452277D01*
X167809613Y-95468503D01*
X167100418Y-95762261D01*
X166940635Y-96081030D01*
X168275000Y-97415395D01*
X169609365Y-96081030D01*
X169609365Y-96440240D01*
X168454605Y-97595000D01*
X169788970Y-98929365D01*
X170107739Y-98769582D01*
X170417723Y-97978813D01*
X170417723Y-110959180D01*
X170234739Y-110517418D01*
X169915970Y-110357635D01*
X169736365Y-110537240D01*
X169736365Y-110178030D01*
X169576582Y-109859261D01*
X168785813Y-109549277D01*
X167936613Y-109565503D01*
X167227418Y-109859261D01*
X167067635Y-110178030D01*
X168402000Y-111512395D01*
X169736365Y-110178030D01*
X169736365Y-110537240D01*
X168581605Y-111692000D01*
X169915970Y-113026365D01*
X170234739Y-112866582D01*
X170511000Y-112161840D01*
X170511000Y-114202921D01*
M02*
